<?xml version="1.0" encoding="UTF-8"?>
<svg id="Layer_1" data-name="Layer 1" xmlns="http://www.w3.org/2000/svg" xmlns:xlink="http://www.w3.org/1999/xlink" viewBox="0 0 359.65 359.65">
  <defs>
    <style>
      .cls-1 {
        fill: #fec400;
      }

      .cls-3 {
        clip-path: url(#clippath);
      }

      .cls-4 {
        fill: none;
      }
    </style>
    <clipPath id="clippath">
      <rect class="cls-4" x="0" y="0" width="614.07" height="359.65"/>
    </clipPath>
  </defs>
  <g class="cls-3">
    <g>
      <path class="cls-1" d="M245.42,220.82l-19.97-11.51h-52.14l-19.96,11.51c19.1,33.19,76.22,87.54,138.1,92.24-21.56-12.08-55.88-55.48-46.03-92.24"/>
      <path class="cls-1" d="M202.67,158.46h0l-.39-.68,.39,.68Zm56.84-109.03c.32,24.72-20.09,76.13-56.86,85.98v23.04s26.08,45.16,26.08,45.16l19.95,11.54c19.19-33.14,37.7-109.77,10.83-165.72"/>
      <path class="cls-1" d="M170.03,203.62h0l-.39,.68,.39-.68Zm26.08-68.2c-38.29-.05-113.92,22.24-148.93,73.49,21.25-12.64,75.98-20.67,102.89,6.25l19.95-11.54,26.07-45.15v-23.05Z"/>
      <path class="cls-1" d="M187.16,190.46c0-6.75,5.47-12.21,12.22-12.21s12.22,5.47,12.22,12.21-5.47,12.22-12.22,12.22-12.22-5.45-12.22-12.22"/>
    </g>
  </g>
</svg>