<svg xmlns="http://www.w3.org/2000/svg" xmlns:xlink="http://www.w3.org/1999/xlink" width="297.636" height="419.526"><defs><path id="c" d="M0 0"/><path id="d" d="M.497.133H.219L.173 0H.026l.251.7H.44L.691 0H.543zM.459.245.358.537.257.245z"/><path id="e" d="M.033.277q0 .087.035.15a.25.25 0 0 0 .097.1.3.3 0 0 0 .142.036.27.27 0 0 0 .17-.051.25.25 0 0 0 .091-.145H.417a.1.1 0 0 1-.04.057.12.12 0 0 1-.071.02.12.12 0 0 1-.095-.043.2.2 0 0 1-.035-.124.2.2 0 0 1 .035-.122A.12.12 0 0 1 .306.11q.085 0 .111.076h.151A.26.26 0 0 0 .477.044a.27.27 0 0 0-.17-.053.3.3 0 0 0-.142.036.25.25 0 0 0-.097.1.3.3 0 0 0-.035.15"/><path id="f" d="M.592.554V0h-.14v.07A.2.2 0 0 0 .38.014a.2.2 0 0 0-.095-.02.24.24 0 0 0-.115.027.2.2 0 0 0-.078.08.3.3 0 0 0-.029.128v.325h.14V.25q0-.066.033-.101a.12.12 0 0 1 .09-.036q.059 0 .091.036.033.035.033.101v.305z"/><path id="g" d="M.757.562Q.859.562.92.499A.24.24 0 0 0 .984.325V0h-.14v.306q0 .065-.033.1A.12.12 0 0 1 .72.44.12.12 0 0 1 .63.406Q.596.37.596.306V0h-.14v.306q0 .065-.033.1a.12.12 0 0 1-.09.034.12.12 0 0 1-.092-.034Q.21.37.21.306V0h-.14v.554h.14V.487a.2.2 0 0 0 .07.055q.042.02.093.02A.24.24 0 0 0 .488.535.2.2 0 0 0 .567.456a.2.2 0 0 0 .078.077q.052.03.112.029"/><path id="h" d="M0 0"/><path id="i" d="M.033.28a.3.3 0 0 0 .033.148.242.242 0 0 0 .22.135.23.23 0 0 0 .183-.088v.08H.61V0H.469v.081A.2.2 0 0 0 .395.017a.23.23 0 0 0-.11-.026.24.24 0 0 0-.127.036.25.25 0 0 0-.092.102.3.3 0 0 0-.033.15M.469.277a.2.2 0 0 1-.02.088.14.14 0 0 1-.127.075.14.14 0 0 1-.126-.074.2.2 0 0 1-.02-.087.2.2 0 0 1 .02-.087A.15.15 0 0 1 .25.134.144.144 0 0 1 .45.19a.2.2 0 0 1 .02.087m.032.475A.15.15 0 0 0 .458.639.16.16 0 0 0 .34.6a.16.16 0 0 0-.116.04.15.15 0 0 0-.043.114v.02h.074q0-.035.019-.051Q.295.704.34.704t.066.018.019.051h.075z"/><path id="j" d="M.033.28q0 .083.033.148a.242.242 0 0 0 .22.135.23.23 0 0 0 .183-.088v.08h.14V0H.47v.081A.2.2 0 0 0 .394.017a.23.23 0 0 0-.11-.026.24.24 0 0 0-.127.036.25.25 0 0 0-.09.102.3.3 0 0 0-.034.15M.469.277a.2.2 0 0 1-.02.088.14.14 0 0 1-.127.075.14.14 0 0 1-.126-.074.2.2 0 0 1-.02-.087.2.2 0 0 1 .02-.087A.15.15 0 0 1 .25.134.144.144 0 0 1 .448.19a.2.2 0 0 1 .02.087"/><path id="k" d="M.14.62a.09.09 0 0 0-.062.024.08.08 0 0 0-.024.058q0 .035.024.059A.09.09 0 0 0 .14.784.09.09 0 0 0 .2.761.08.08 0 0 0 .226.702.08.08 0 0 0 .2.644.09.09 0 0 0 .14.62M.209.554V0h-.14v.554z"/><path id="l" d="M.033.28q0 .083.033.148A.245.245 0 0 0 .39.54.2.2 0 0 0 .468.477V.74H.61V0H.468v.082A.2.2 0 0 0 .395.016a.23.23 0 0 0-.11-.025.24.24 0 0 0-.127.036.25.25 0 0 0-.092.102.3.3 0 0 0-.033.15M.469.277a.2.2 0 0 1-.02.088.14.14 0 0 1-.127.075.14.14 0 0 1-.126-.074.2.2 0 0 1-.02-.087.2.2 0 0 1 .02-.087A.15.15 0 0 1 .25.134.144.144 0 0 1 .448.19a.2.2 0 0 1 .02.087"/><path id="m" d="M.584.29A.3.3 0 0 0 .58.234H.175A.14.14 0 0 1 .217.141.13.13 0 0 1 .308.107q.078 0 .111.067H.57A.25.25 0 0 0 .478.043.27.27 0 0 0 .311-.01a.3.3 0 0 0-.144.036.25.25 0 0 0-.099.1.3.3 0 0 0-.035.15q0 .087.035.151a.24.24 0 0 0 .098.1q.063.036.145.035.08 0 .141-.034A.24.24 0 0 0 .55.433.3.3 0 0 0 .584.289M.439.33A.11.11 0 0 1 .4.416a.14.14 0 0 1-.093.032.13.13 0 0 1-.088-.031.14.14 0 0 1-.043-.088z"/><path id="n" d="m.3.129.14.425h.149L.384 0h-.17L.01.554h.15z"/><path id="o" d="M.376.562q.1 0 .16-.063A.24.24 0 0 0 .597.325V0h-.14v.306q0 .066-.033.101a.12.12 0 0 1-.09.036.12.12 0 0 1-.092-.036Q.21.372.21.306V0h-.14v.554h.14V.485a.2.2 0 0 0 .072.056q.043.021.095.021"/><path id="p" d="M.232.439V.17q0-.028.014-.04T.29.117h.065V0H.268Q.091 0 .091.172v.267H.025v.115h.066V.69h.141V.554h.124V.439z"/><path id="q" d="M.281-.009A.3.3 0 0 0 .16.016a.2.2 0 0 0-.085.066.17.17 0 0 0-.035.093h.14A.08.08 0 0 1 .212.122.1.1 0 0 1 .28.102q.04 0 .063.015.022.016.022.041 0 .027-.027.04a.5.5 0 0 1-.088.03A1 1 0 0 0 .148.26.2.2 0 0 0 .08.31a.13.13 0 0 0-.028.088q0 .046.026.084a.2.2 0 0 0 .076.06.3.3 0 0 0 .117.022.24.24 0 0 0 .158-.05A.18.18 0 0 0 .494.38H.36a.07.07 0 0 1-.028.053.1.1 0 0 1-.065.02.1.1 0 0 1-.059-.015A.05.05 0 0 1 .188.4q0-.029.028-.042a.4.4 0 0 1 .087-.03q.06-.015.099-.03A.2.2 0 0 0 .47.246.14.14 0 0 0 .499.158.15.15 0 0 0 .473.072a.2.2 0 0 0-.076-.06.3.3 0 0 0-.116-.02"/><path id="r" d="M.033.28a.3.3 0 0 0 .033.148.242.242 0 0 0 .22.135.23.23 0 0 0 .183-.088v.08H.61V0H.47v.081A.2.2 0 0 0 .395.017a.23.23 0 0 0-.11-.026.24.24 0 0 0-.127.036.25.25 0 0 0-.092.102.3.3 0 0 0-.033.15M.469.277a.2.2 0 0 1-.02.088.14.14 0 0 1-.127.075.14.14 0 0 1-.126-.074.2.2 0 0 1-.02-.087.2.2 0 0 1 .02-.087A.15.15 0 0 1 .25.134.144.144 0 0 1 .45.19a.2.2 0 0 1 .02.087m-.128.4L.192.593v.102l.15.081.147-.08V.592z"/><path id="s" d="M.323.439H.226v-.44H.084v.44H.021v.115h.063v.028q0 .102.058.15t.175.045V.66Q.266.66.247.642T.226.577V.554h.096z"/><path id="t" d="M.315-.009a.3.3 0 0 0-.144.036.26.26 0 0 0-.1.1.3.3 0 0 0-.037.15q0 .086.037.15a.26.26 0 0 0 .103.1.3.3 0 0 0 .145.036.3.3 0 0 0 .145-.035.26.26 0 0 0 .102-.1.3.3 0 0 0 .038-.15.3.3 0 0 0-.039-.15.27.27 0 0 0-.104-.101.3.3 0 0 0-.146-.036m0 .122q.039 0 .071.019Q.42.15.44.187t.02.09Q.46.357.418.4A.14.14 0 0 1 .317.44.13.13 0 0 1 .217.4Q.174.357.175.277q0-.078.04-.121A.13.13 0 0 1 .314.113"/><path id="u" d="M.209.468q.027.044.07.069a.2.2 0 0 0 .1.025V.415H.342q-.066 0-.1-.031Q.21.354.21.276V0h-.14v.554h.14z"/><path id="v" d="M.232.439V.17q0-.028.014-.04T.29.117h.065V0H.268Q.091 0 .091.172v.267H.025v.115h.066V.69h.141V.554h.124V.439zm.02-.482A.4.4 0 0 0 .27-.151a.15.15 0 0 0-.032-.102Q.205-.289.143-.289v.057q.05 0 .05.062v.018H.136v.109z"/><path id="w" d="M.209.74V0h-.14v.74z"/><path id="x" d="M.209.474a.226.226 0 0 0 .183.089.24.24 0 0 0 .22-.135.3.3 0 0 0 .033-.15.3.3 0 0 0-.034-.15.25.25 0 0 0-.09-.101.24.24 0 0 0-.129-.036.22.22 0 0 0-.183.088v-.343h-.14v.818h.14zM.502.279a.2.2 0 0 1-.02.086.14.14 0 0 1-.127.075A.145.145 0 0 1 .23.364.2.2 0 0 1 .208.277q0-.051.02-.087A.14.14 0 0 1 .355.114q.039 0 .072.02.034.02.054.057.021.037.021.088"/><path id="y" d="M.197.115h.247V0H.038v.113L.28.439H.04v.115H.44V.44z"/><path id="z" d="M.25.71.234.227H.116L.099.71zM.179-.007a.1.1 0 0 0-.063.024.08.08 0 0 0-.024.058q0 .035.024.059a.1.1 0 0 0 .063.023.08.08 0 0 0 .06-.023.08.08 0 0 0 .025-.059.08.08 0 0 0-.024-.058.08.08 0 0 0-.061-.024"/><path id="A" d="M.027.571v.16h.277V0H.126v.57z"/><path id="B" d="M.142-.008a.1.1 0 0 0-.073.026.09.09 0 0 0-.029.066q0 .04.029.067a.1.1 0 0 0 .073.027q.045 0 .073-.027A.1.1 0 0 0 .243.084.09.09 0 0 0 .215.018a.1.1 0 0 0-.073-.026"/><path id="C" d="M0 0"/><path id="D" d="M.233.702V0h-.17v.702z"/><path id="E" d="M.233.565V.423h.23V.291h-.23V.137h.26V0h-.43v.702h.43V.565z"/><path id="F" d="M.42 0 .274.265h-.04V0H.061v.702H.35q.084 0 .142-.029a.2.2 0 0 0 .087-.08.2.2 0 0 0 .03-.112.2.2 0 0 0-.04-.125A.2.2 0 0 0 .45.278L.613 0zM.233.386H.34q.048 0 .07.023a.09.09 0 0 1 .024.065.08.08 0 0 1-.023.063Q.385.56.34.56H.232z"/><path id="G" d="M.499.124H.237L.195 0H.016L.27.702h.198L.722 0H.541zM.455.256.368.513.282.256z"/><path id="H" d="M.67.702V0H.499v.289H.233V0h-.17v.702h.17V.427H.5v.275z"/><path id="I" d="M.325.702A.4.4 0 0 0 .52.658.3.3 0 0 0 .648.535.36.36 0 0 0 .693.35.36.36 0 0 0 .648.168a.3.3 0 0 0-.13-.124A.4.4 0 0 0 .326 0H.062v.702zM.315.148q.096 0 .15.053.054.052.054.15a.2.2 0 0 1-.054.151.2.2 0 0 1-.15.054H.232V.148z"/><path id="J" d="M.857.702V0h-.17v.421L.528 0H.391L.233.422V0h-.17v.702h.201L.461.216l.195.486z"/><path id="K" d="M.69 0H.52L.232.433V0h-.17v.702h.17L.52.267v.435H.69z"/><path id="L" d="M.316-.007a.4.4 0 0 0-.138.025.23.23 0 0 0-.098.074.2.2 0 0 0-.038.118h.182A.1.1 0 0 1 .25.15.1.1 0 0 1 .31.13q.037 0 .06.017a.06.06 0 0 1 .022.049.06.06 0 0 1-.018.043.1.1 0 0 1-.043.028A1 1 0 0 1 .26.292a1 1 0 0 0-.111.042.2.2 0 0 0-.074.062.17.17 0 0 0-.031.107q0 .098.07.153A.3.3 0 0 0 .3.712q.116 0 .187-.056A.2.2 0 0 0 .563.502H.378a.07.07 0 0 1-.025.053.1.1 0 0 1-.06.02.07.07 0 0 1-.05-.016Q.226.543.226.51q0-.034.032-.053a.5.5 0 0 1 .1-.041 1 1 0 0 0 .11-.044.2.2 0 0 0 .074-.061.16.16 0 0 0 .03-.103.2.2 0 0 0-.118-.187.3.3 0 0 0-.137-.029"/><path id="M" d="M.567.702V.565H.381V0h-.17v.565H.023v.137z"/><path id="N" d="M.721.702.472 0H.258L.009.702h.182l.174-.53.175.53z"/><path id="O" d="M.5.124H.236L.195 0H.016L.27.702h.198L.722 0h-.18zM.455.256.368.513.282.256zM.54.917A.17.17 0 0 0 .493.79.17.17 0 0 0 .37.745a.17.17 0 0 0-.123.046.17.17 0 0 0-.047.127v.02h.085q0-.035.02-.05Q.321.87.368.87q.046 0 .066.017t.02.05H.54z"/><path id="P" d="m.413 0-.14.26H.252V0H.056v.705h.309a.3.3 0 0 0 .144-.03.2.2 0 0 0 .089-.08.23.23 0 0 0 .03-.116.2.2 0 0 0-.04-.127.2.2 0 0 0-.115-.077L.632 0zm-.16.394h.097q.04 0 .06.019.02.018.02.055a.07.07 0 0 1-.02.053q-.021.02-.06.02H.252z"/><path id="Q" d="M.252.548V.433h.225V.284H.252V.157h.255V0H.056v.705h.451V.548z"/><path id="R" d="M.032.354q0 .105.044.185.044.082.123.128.08.045.184.045a.35.35 0 0 0 .222-.07A.32.32 0 0 0 .721.45h-.21a.14.14 0 0 1-.053.061.14.14 0 0 1-.078.021.13.13 0 0 1-.108-.049.2.2 0 0 1-.04-.129q0-.082.04-.13A.13.13 0 0 1 .38.174q.044 0 .078.021.033.02.052.061h.211A.32.32 0 0 0 .605.065a.35.35 0 0 0-.222-.07Q.28-.005.2.04a.3.3 0 0 0-.123.127.4.4 0 0 0-.044.187"/><path id="S" d="M.587.705V.55H.399V0H.203v.55H.017v.155z"/><path id="T" d="M.394-.007a.37.37 0 0 0-.182.046.35.35 0 0 0-.131.13.36.36 0 0 0-.049.186q0 .104.049.186A.34.34 0 0 0 .212.67q.083.046.182.046A.37.37 0 0 0 .576.67a.34.34 0 0 0 .13-.129.36.36 0 0 0 .049-.186.36.36 0 0 0-.048-.186.34.34 0 0 0-.131-.13.37.37 0 0 0-.182-.046m0 .182q.076 0 .118.049a.2.2 0 0 1 .044.131q0 .084-.044.132a.15.15 0 0 1-.118.049.15.15 0 0 1-.119-.049.2.2 0 0 1-.043-.132q0-.083.043-.132A.15.15 0 0 1 .394.175"/><path id="U" d="M0 0"/><path id="V" d="M.495.416V.298H.071v.118z"/><path id="W" d="M.209.473a.2.2 0 0 0 .074.065.23.23 0 0 0 .109.025.24.24 0 0 0 .22-.134.3.3 0 0 0 .033-.15.3.3 0 0 0-.034-.15.25.25 0 0 0-.09-.102.24.24 0 0 0-.129-.036.23.23 0 0 0-.109.025.2.2 0 0 0-.074.063V0h-.14v.74h.14zM.502.28a.2.2 0 0 1-.02.087.14.14 0 0 1-.199.055A.14.14 0 0 1 .23.364.2.2 0 0 1 .21.277q0-.05.02-.087A.14.14 0 0 1 .355.114q.039 0 .072.02.034.021.054.057.021.037.021.088"/><path id="X" d="M.286.563A.23.23 0 0 0 .395.54.2.2 0 0 0 .469.475v.08h.14v-.56a.3.3 0 0 0-.03-.137.23.23 0 0 0-.093-.096.3.3 0 0 0-.15-.035.32.32 0 0 0-.194.055.2.2 0 0 0-.085.15h.139a.1.1 0 0 1 .047-.06.17.17 0 0 1 .089-.023q.06 0 .099.036.038.038.038.111v.086a.222.222 0 0 0-.183-.091.24.24 0 0 0-.128.036.25.25 0 0 0-.092.102.3.3 0 0 0-.033.15q0 .084.033.15a.242.242 0 0 0 .22.135M.469.276a.2.2 0 0 1-.02.088.14.14 0 0 1-.127.075.14.14 0 0 1-.126-.074.2.2 0 0 1-.02-.087.2.2 0 0 1 .02-.087A.15.15 0 0 1 .25.134.144.144 0 0 1 .448.19a.2.2 0 0 1 .02.087"/><path id="Y" d="M.613.47a.23.23 0 0 0-.03-.116A.2.2 0 0 0 .496.27.3.3 0 0 0 .349.238H.252V0H.056v.705h.293q.085 0 .145-.03t.09-.083A.24.24 0 0 0 .613.47M.33.394q.083 0 .083.076 0 .077-.083.077H.252V.394z"/><path id="Z" d="M.252.705V0H.056v.705z"/><path id="aa" d="M.335.705A.4.4 0 0 0 .529.661.3.3 0 0 0 .658.536.37.37 0 0 0 .703.353.36.36 0 0 0 .657.171.32.32 0 0 0 .528.046.4.4 0 0 0 .335 0H.056v.705zM.32.173q.085 0 .135.047a.18.18 0 0 1 .049.133q0 .087-.05.135A.19.19 0 0 1 .32.535H.252V.173z"/><path id="ab" d="M.502.115h-.25L.214 0H.008l.257.705h.226L.747 0H.54zm-.049.15L.377.493.302.265z"/><path id="ac" d="M.709 0H.513L.252.394V0H.056v.705h.196L.513.306v.399h.196z"/><path id="ad" d="M.879.705V0H.683v.389L.55 0H.386L.252.392V0H.056v.705h.237L.47.247l.173.458z"/><path id="ae" d="M.495.416V.298H.071v.118z"/><path id="af" d="M0 0"/><path id="ag" d="M.032.354q0 .105.044.185.044.082.123.128.08.045.184.045a.35.35 0 0 0 .222-.07A.32.32 0 0 0 .721.45h-.21a.14.14 0 0 1-.053.061.14.14 0 0 1-.078.021.13.13 0 0 1-.108-.049.2.2 0 0 1-.04-.129q0-.082.04-.13A.13.13 0 0 1 .38.174q.044 0 .078.021.033.02.052.061h.211A.32.32 0 0 0 .605.065a.35.35 0 0 0-.222-.07Q.28-.005.2.04a.3.3 0 0 0-.123.127.4.4 0 0 0-.044.187"/><path id="ah" d="M.394-.007a.37.37 0 0 0-.182.046.35.35 0 0 0-.131.13.36.36 0 0 0-.049.186q0 .104.049.186A.34.34 0 0 0 .212.67q.083.046.182.046A.37.37 0 0 0 .576.67a.34.34 0 0 0 .13-.129.36.36 0 0 0 .049-.186.36.36 0 0 0-.048-.186.34.34 0 0 0-.131-.13.37.37 0 0 0-.182-.046m0 .182q.076 0 .118.049a.2.2 0 0 1 .044.131q0 .084-.044.132a.15.15 0 0 1-.118.049.15.15 0 0 1-.119-.049.2.2 0 0 1-.043-.132q0-.083.043-.132A.15.15 0 0 1 .394.175"/><path id="ai" d="M.709 0H.513L.252.394V0H.056v.705h.196L.513.306v.399h.196z"/><path id="aj" d="M.322-.007A.33.33 0 0 0 .12.052a.21.21 0 0 0-.085.167h.21Q.246.183.265.165a.07.07 0 0 1 .05-.017.07.07 0 0 1 .044.014.05.05 0 0 1 .017.037q0 .03-.029.048a.5.5 0 0 1-.094.038A1 1 0 0 0 .143.33a.2.2 0 0 0-.074.063A.18.18 0 0 0 .037.5q0 .068.034.116a.2.2 0 0 0 .094.074q.06.024.136.025A.3.3 0 0 0 .498.658.2.2 0 0 0 .576.497H.363q0 .031-.02.048A.07.07 0 0 1 .297.56.05.05 0 0 1 .26.548Q.245.535.246.51q0-.02.016-.035A.1.1 0 0 1 .3.451L.368.425a1 1 0 0 0 .11-.046.2.2 0 0 0 .076-.063.16.16 0 0 0 .031-.102.21.21 0 0 0-.122-.192.3.3 0 0 0-.14-.029"/><path id="ak" d="M.252.705V0H.056v.705z"/><path id="al" d="M.252.15h.219V0H.056v.705h.196z"/><path id="am" d="M.248.705V.296q0-.057.027-.088Q.3.178.355.177q.054 0 .082.031.027.032.027.088v.409H.66V.296A.3.3 0 0 0 .62.13.26.26 0 0 0 .507.027.35.35 0 0 0 .35-.007a.33.33 0 0 0-.153.034.25.25 0 0 0-.106.103.33.33 0 0 0-.039.166v.409z"/><path id="an" d="M0 0"/><path id="ao" d="M.335.705A.4.4 0 0 0 .529.661.3.3 0 0 0 .658.536.37.37 0 0 0 .703.353.36.36 0 0 0 .657.171.32.32 0 0 0 .528.046.4.4 0 0 0 .335 0H.056v.705zM.32.173q.085 0 .135.047a.18.18 0 0 1 .049.133q0 .087-.05.135A.19.19 0 0 1 .32.535H.252V.173z"/><path id="ap" d="M.252.548V.433h.225V.284H.252V.157h.255V0H.056v.705h.451V.548z"/><path id="aq" d="M.502.115h-.25L.214 0H.008l.257.705h.226L.747 0H.54zm-.049.15L.377.493.302.265z"/><path id="ar" d="M.879.705V0H.683v.389L.55 0H.386L.252.392V0H.056v.705h.237L.47.247l.173.458z"/><path id="as" d="M.587.705V.55H.399V0H.203v.55H.017v.155z"/><path id="at" d="m.413 0-.14.26H.252V0H.056v.705h.309a.3.3 0 0 0 .144-.03.2.2 0 0 0 .089-.08.23.23 0 0 0 .03-.116.2.2 0 0 0-.04-.127.2.2 0 0 0-.115-.077L.632 0zm-.16.394h.097q.04 0 .06.019.02.018.02.055a.07.07 0 0 1-.02.053q-.021.02-.06.02H.252z"/><path id="au" d="M.587.705V.55H.399V0H.203v.55H.017v.155zM.372-.038a.4.4 0 0 0 .022-.126.18.18 0 0 0-.038-.12Q.318-.327.243-.327v.07q.053 0 .053.072v.013H.229v.135z"/><path id="av" d="M.216.554V0h-.14v.554zM.147.677-.002.593v.102l.149.081.148-.081V.593z"/><path id="aw" d="M.322-.007A.33.33 0 0 0 .12.052a.21.21 0 0 0-.085.167h.21Q.246.183.265.165a.07.07 0 0 1 .05-.017.07.07 0 0 1 .044.014.05.05 0 0 1 .017.037q0 .03-.029.048a.5.5 0 0 1-.094.038A1 1 0 0 0 .143.33a.2.2 0 0 0-.074.063A.18.18 0 0 0 .037.5q0 .068.034.116a.2.2 0 0 0 .094.074q.06.024.136.025A.3.3 0 0 0 .498.658.2.2 0 0 0 .576.497H.363q0 .031-.02.048A.07.07 0 0 1 .297.56.05.05 0 0 1 .26.548Q.245.535.246.51q0-.02.016-.035A.1.1 0 0 1 .3.451L.368.425a1 1 0 0 0 .11-.046.2.2 0 0 0 .076-.063.16.16 0 0 0 .031-.102.21.21 0 0 0-.122-.192.3.3 0 0 0-.14-.029"/><path id="ax" d="M.252.15h.219V0H.056v.705h.196z"/><path id="ay" d="M.742.705.499 0H.248L.004.705h.21l.16-.509.159.509z"/><path id="az" d="M.502.568.274 0H.046l.23.541H.018v.19h.484z"/><clipPath id="a"><path fill-rule="evenodd" d="M0 419.526h297.636V0H0Z"/></clipPath><clipPath id="b"><path d="M-399.649 459.038h729.883v-526.78h-729.883Z"/></clipPath></defs><g clip-path="url(#a)" data-name="Layer 1"><g clip-path="url(#b)"><path fill="#f7f1e5" d="M-390.18 443.282h720.417V-67.742h-720.418Z"/><path fill="#fbd77f" d="M-73.089 171.385c-1.277 10.392-.883 20.786.171 31.132.871-10.414 1.507-20.78-.17-31.132m44.34 138.064c.248 1.541.004 3.726 2.754 3.665 2.568-.058 3.093-1.787 3.392-3.745 1.412-9.26.045-18.385-1.52-27.472-.893-5.179-2.144-10.296-3.234-15.441l-1.045.176c-1.213 14.257-2.655 28.514-.347 42.817m132.555-170.416c-1.175 1.037-1.45 1.932-.628 3.48 3.552 6.696 6.931 13.483 10.747 20.97 4.65-12.318 9.228-23.956 14.604-35.98-10.148 1.258-17.866 5.472-24.723 11.53m153.56-11.714c-1.033-16.978-2.725-33.876-7.7-50.254a60 60 0 0 0-4.9-11.61c-1.174-2.125-2.585-2.773-4.994-1.923-4.042 1.426-7.586 3.64-10.93 6.22-10.012 7.724-17.834 17.456-25.262 27.56-1.25 1.701-.986 2.592.595 3.914 26.674 22.327 42.887 51.141 52.086 84.281.106.384.279.758.47 1.107.12.216.339.377 1.073 1.156.908-20.537.776-40.5-.439-60.451M20.16 204.976c3.924-22.178 10.235-43.623 20.344-63.838.781-1.563 1.202-2.837.053-4.474-10.273-14.623-21.172-28.668-35.983-39.088-5.601-3.941-11.56-7.066-18.613-7.668-3.533-.303-4.817 1.046-5.034 4.478-.723 11.412 1.311 22.495 3.84 33.497 6.977 30.354 17.534 59.656 26.567 89.406 1.417 4.664 2.853 9.321 4.279 13.982l.614-.182c1.298-8.708 2.4-17.448 3.933-26.113m46.994 28.746c-3.582 35.193-1.919 70.053 7.184 104.366 2.935 11.065 6.914 21.748 13.089 31.493 2.049 3.234 4.392 6.23 7.415 8.61 3.919 3.084 6.907 2.578 9.373-1.76 4.077-7.17 4.845-15.191 5.61-23.185.168-1.757.112-3.535.249-5.295.646-8.274-.747-15.62-5.477-23.047-8.191-12.857-10.612-27.801-11.563-42.856-.608-9.638-.457-19.296.364-28.933.09-1.062.133-2.213-.173-3.21-5.381-17.537-11.857-34.662-19.615-52.44-3.341 12.572-5.247 24.362-6.456 36.257m112.969-85.81c-3.377-3.765-3.472-3.734-5.594.98-13.502 30.01-23.688 61.04-28.908 93.609-.37 2.312-.434 4.515.219 6.833 4.93 17.553 9.09 35.285 11.55 53.367.432 3.185 1.881 3.663 4.622 3.303 20.4-2.684 35.047-13.16 43.465-32.03 5.71-12.796 7.389-26.36 7.359-42.524-1.564-29.876-10.822-59.117-32.713-83.537m61.392 217.667c2.928-21.265 5.619-42.559 7.844-64.01-1.628.056-1.654 1.392-2.117 2.197-18.39 31.8-46.101 49.072-82.445 52.669-3.847.381-4.734 1.736-5.047 5.368-1.122 13.09-4.149 25.717-10.27 37.498-17.313 33.312-57.946 41.744-86.974 17.944-12.279-10.067-20.446-23.152-26.923-37.404-5.76-12.674-9.755-25.938-12.898-39.475-.291-1.255-.657-2.493-1.065-4.032-16.526 32.36-69.693 37.947-90.54 7.646-.807 4.665-1.456 8.885-2.272 13.073-3.673 18.848-9.88 36.705-23.834 50.499-17.382 17.18-37.978 25.467-62.422 17.86-17.068-5.311-27.492-18.397-35.376-33.69-9.255-17.948-14.153-37.338-17.92-56.994-4.398-22.96-8.21-46.033-12.376-69.038-.97-5.352-2.55-10.535-4.807-15.543-8.619-19.116-23.388-29.074-44.25-30.1-8.718-.429-17.394.044-26.019 1.396v-51.44c10.454-.155 20.87-1.077 31.375-.31 49.401 3.613 79.615 35.84 91.022 76.439 5.268 18.75 7.275 38.18 10.682 57.317 3.692 20.746 7.117 41.575 15.442 61.153 1.653 3.886 3.656 7.572 6.335 10.893 1.544 1.915 3.12 2.196 5.34 1.297 5.37-2.173 8.842-6.185 11.308-11.22 5.497-11.222 7.066-23.353 8.055-35.59 1.75-21.641.294-43.234-1.145-64.823-2.097-31.476-6.017-62.87-4.511-94.515.538-11.328 2.206-22.48 6.678-33.016 8.065-19 23.35-28.853 43.91-28.075 3.514.134 4.328-.68 4.115-4.16-.562-9.254-.234-18.477 2.26-27.527 6.326-22.963 23.665-37.024 47.531-38.43 23.546-1.388 43.192 7.977 60.973 22.283 11.823 9.516 22.026 20.64 31.17 32.714 1.828 2.414 2.847 2.532 5.298.72 22.183-16.39 47.168-21.484 74.17-17.712 2.9.406 4.325-.338 5.908-2.693 12.506-18.623 26.52-35.898 45.246-48.75 10.82-7.428 22.572-12.569 35.817-13.589 20.223-1.56 35.598 6.943 46.911 23.263 10.315 14.88 14.765 31.99 17.81 49.497 5.463 31.38 5.919 63.064 5.23 94.79-1.169 54.058-6.418 107.79-13.044 161.413a2545 2545 0 0 1-16.74 114.242c-.187 1.1-1.07 2.333.125 3.424h-52.256c5.761-31.018 10.394-62.213 14.696-93.459"/></g><use xlink:href="#c" fill="#043c53" transform="matrix(11.2699 0 0 -11.2699 26.397 41.653)"/><use xlink:href="#c" fill="#043c53" transform="matrix(11.2699 0 0 -11.2699 34.41 41.653)"/><use xlink:href="#c" fill="#043c53" transform="matrix(11.2699 0 0 -11.2699 42.423 41.653)"/><use xlink:href="#d" fill="#043c53" data-text="A" transform="matrix(11.7599 0 0 -11.7599 50.44 41.653)"/><use xlink:href="#e" fill="#043c53" data-text="c" transform="matrix(11.7599 0 0 -11.7599 58.86 41.653)"/><use xlink:href="#f" fill="#043c53" data-text="u" transform="matrix(11.7599 0 0 -11.7599 65.94 41.653)"/><use xlink:href="#g" fill="#043c53" data-text="m" transform="matrix(11.7599 0 0 -11.7599 73.714 41.653)"/><use xlink:href="#h" fill="#043c53" transform="matrix(11.7599 0 0 -11.7599 86.038 41.653)"/><use xlink:href="#e" fill="#043c53" data-text="c" transform="matrix(11.7599 0 0 -11.7599 93.695 41.653)"/><use xlink:href="#i" fill="#043c53" data-text="ă" transform="matrix(11.7599 0 0 -11.7599 100.774 41.653)"/><use xlink:href="#h" fill="#043c53" transform="matrix(11.7599 0 0 -11.7599 108.747 41.653)"/><use xlink:href="#j" fill="#043c53" data-text="a" transform="matrix(11.7599 0 0 -11.7599 116.405 41.653)"/><use xlink:href="#k" fill="#043c53" data-text="i" transform="matrix(11.7599 0 0 -11.7599 124.378 41.653)"/><use xlink:href="#h" fill="#043c53" transform="matrix(11.7599 0 0 -11.7599 127.647 41.653)"/><use xlink:href="#l" fill="#043c53" data-text="d" transform="matrix(11.7599 0 0 -11.7599 135.304 41.653)"/><use xlink:href="#m" fill="#043c53" data-text="e" transform="matrix(11.7599 0 0 -11.7599 143.277 41.653)"/><use xlink:href="#n" fill="#043c53" data-text="v" transform="matrix(11.7599 0 0 -11.7599 150.533 41.653)"/><use xlink:href="#m" fill="#043c53" data-text="e" transform="matrix(11.7599 0 0 -11.7599 157.577 41.653)"/><use xlink:href="#o" fill="#043c53" data-text="n" transform="matrix(11.7599 0 0 -11.7599 164.833 41.653)"/><use xlink:href="#k" fill="#043c53" data-text="i" transform="matrix(11.7599 0 0 -11.7599 172.606 41.653)"/><use xlink:href="#p" fill="#043c53" data-text="t" transform="matrix(11.7599 0 0 -11.7599 175.875 41.653)"/><use xlink:href="#h" fill="#043c53" transform="matrix(11.7599 0 0 -11.7599 180.438 41.653)"/><use xlink:href="#q" fill="#043c53" data-text="s" transform="matrix(11.7599 0 0 -11.7599 188.095 41.653)"/><use xlink:href="#p" fill="#043c53" data-text="t" transform="matrix(11.7599 0 0 -11.7599 194.504 41.653)"/><use xlink:href="#f" fill="#043c53" data-text="u" transform="matrix(11.7599 0 0 -11.7599 199.067 41.653)"/><use xlink:href="#l" fill="#043c53" data-text="d" transform="matrix(11.7599 0 0 -11.7599 206.84 41.653)"/><use xlink:href="#m" fill="#043c53" data-text="e" transform="matrix(11.7599 0 0 -11.7599 214.813 41.653)"/><use xlink:href="#o" fill="#043c53" data-text="n" transform="matrix(11.7599 0 0 -11.7599 222.069 41.653)"/><use xlink:href="#p" fill="#043c53" data-text="t" transform="matrix(11.7599 0 0 -11.7599 229.842 41.653)"/><use xlink:href="#h" fill="#043c53" transform="matrix(11.7599 0 0 -11.7599 234.405 41.653)"/><use xlink:href="#k" fill="#043c53" data-text="i" transform="matrix(11.7599 0 0 -11.7599 242.06 41.653)"/><use xlink:href="#j" fill="#043c53" data-text="a" transform="matrix(11.7599 0 0 -11.7599 245.33 41.653)"/><use xlink:href="#p" fill="#043c53" data-text="t" transform="matrix(11.7599 0 0 -11.7599 253.303 41.653)"/><use xlink:href="#i" fill="#043c53" data-text="ă" transform="matrix(11.7599 0 0 -11.7599 257.866 41.653)"/><use xlink:href="#h" fill="#043c53" transform="matrix(11.7599 0 0 -11.7599 265.839 41.653)"/><use xlink:href="#e" fill="#043c53" data-text="c" transform="matrix(11.7599 0 0 -11.7599 26.392 55.377)"/><use xlink:href="#r" fill="#043c53" data-text="â" transform="matrix(11.7599 0 0 -11.7599 33.472 55.377)"/><use xlink:href="#p" fill="#043c53" data-text="t" transform="matrix(11.7599 0 0 -11.7599 41.445 55.377)"/><use xlink:href="#m" fill="#043c53" data-text="e" transform="matrix(11.7599 0 0 -11.7599 46.008 55.377)"/><use xlink:href="#n" fill="#043c53" data-text="v" transform="matrix(11.7599 0 0 -11.7599 53.264 55.377)"/><use xlink:href="#j" fill="#043c53" data-text="a" transform="matrix(11.7599 0 0 -11.7599 60.308 55.377)"/><use xlink:href="#h" fill="#043c53" transform="matrix(11.7599 0 0 -11.7599 68.281 55.377)"/><use xlink:href="#k" fill="#043c53" data-text="i" transform="matrix(11.7599 0 0 -11.7599 82.335 55.377)"/><use xlink:href="#o" fill="#043c53" data-text="n" transform="matrix(11.7599 0 0 -11.7599 85.604 55.377)"/><use xlink:href="#s" fill="#043c53" data-text="f" transform="matrix(11.7599 0 0 -11.7599 93.378 55.377)"/><use xlink:href="#t" fill="#043c53" data-text="o" transform="matrix(11.7599 0 0 -11.7599 97.435 55.377)"/><use xlink:href="#u" fill="#043c53" data-text="r" transform="matrix(11.7599 0 0 -11.7599 104.938 55.377)"/><use xlink:href="#g" fill="#043c53" data-text="m" transform="matrix(11.7599 0 0 -11.7599 109.689 55.377)"/><use xlink:href="#j" fill="#043c53" data-text="a" transform="matrix(11.7599 0 0 -11.7599 122.013 55.377)"/><use xlink:href="#v" fill="#043c53" data-text="ț" transform="matrix(11.7599 0 0 -11.7599 129.986 55.377)"/><use xlink:href="#k" fill="#043c53" data-text="i" transform="matrix(11.7599 0 0 -11.7599 134.55 55.377)"/><use xlink:href="#k" fill="#043c53" data-text="i" transform="matrix(11.7599 0 0 -11.7599 137.818 55.377)"/><use xlink:href="#h" fill="#043c53" transform="matrix(11.7599 0 0 -11.7599 141.088 55.377)"/><use xlink:href="#m" fill="#043c53" data-text="e" transform="matrix(11.7599 0 0 -11.7599 155.142 55.377)"/><use xlink:href="#q" fill="#043c53" data-text="s" transform="matrix(11.7599 0 0 -11.7599 162.398 55.377)"/><use xlink:href="#m" fill="#043c53" data-text="e" transform="matrix(11.7599 0 0 -11.7599 168.807 55.377)"/><use xlink:href="#o" fill="#043c53" data-text="n" transform="matrix(11.7599 0 0 -11.7599 176.063 55.377)"/><use xlink:href="#v" fill="#043c53" data-text="ț" transform="matrix(11.7599 0 0 -11.7599 183.836 55.377)"/><use xlink:href="#k" fill="#043c53" data-text="i" transform="matrix(11.7599 0 0 -11.7599 188.399 55.377)"/><use xlink:href="#j" fill="#043c53" data-text="a" transform="matrix(11.7599 0 0 -11.7599 191.668 55.377)"/><use xlink:href="#w" fill="#043c53" data-text="l" transform="matrix(11.7599 0 0 -11.7599 199.641 55.377)"/><use xlink:href="#m" fill="#043c53" data-text="e" transform="matrix(11.7599 0 0 -11.7599 202.91 55.377)"/><use xlink:href="#h" fill="#043c53" transform="matrix(11.7599 0 0 -11.7599 210.166 55.377)"/><use xlink:href="#l" fill="#043c53" data-text="d" transform="matrix(11.7599 0 0 -11.7599 224.22 55.377)"/><use xlink:href="#m" fill="#043c53" data-text="e" transform="matrix(11.7599 0 0 -11.7599 232.194 55.377)"/><use xlink:href="#q" fill="#043c53" data-text="s" transform="matrix(11.7599 0 0 -11.7599 239.45 55.377)"/><use xlink:href="#x" fill="#043c53" data-text="p" transform="matrix(11.7599 0 0 -11.7599 245.859 55.377)"/><use xlink:href="#u" fill="#043c53" data-text="r" transform="matrix(11.7599 0 0 -11.7599 253.832 55.377)"/><use xlink:href="#m" fill="#043c53" data-text="e" transform="matrix(11.7599 0 0 -11.7599 258.583 55.377)"/><use xlink:href="#h" fill="#043c53" transform="matrix(11.7599 0 0 -11.7599 265.84 55.377)"/><use xlink:href="#s" fill="#043c53" data-text="f" transform="matrix(11.7599 0 0 -11.7599 26.392 69.1)"/><use xlink:href="#j" fill="#043c53" data-text="a" transform="matrix(11.7599 0 0 -11.7599 30.45 69.1)"/><use xlink:href="#e" fill="#043c53" data-text="c" transform="matrix(11.7599 0 0 -11.7599 38.423 69.1)"/><use xlink:href="#f" fill="#043c53" data-text="u" transform="matrix(11.7599 0 0 -11.7599 45.502 69.1)"/><use xlink:href="#w" fill="#043c53" data-text="l" transform="matrix(11.7599 0 0 -11.7599 53.275 69.1)"/><use xlink:href="#p" fill="#043c53" data-text="t" transform="matrix(11.7599 0 0 -11.7599 56.545 69.1)"/><use xlink:href="#j" fill="#043c53" data-text="a" transform="matrix(11.7599 0 0 -11.7599 61.107 69.1)"/><use xlink:href="#p" fill="#043c53" data-text="t" transform="matrix(11.7599 0 0 -11.7599 69.08 69.1)"/><use xlink:href="#m" fill="#043c53" data-text="e" transform="matrix(11.7599 0 0 -11.7599 73.644 69.1)"/><use xlink:href="#j" fill="#043c53" data-text="a" transform="matrix(11.7599 0 0 -11.7599 80.9 69.1)"/><use xlink:href="#h" fill="#043c53" transform="matrix(11.7599 0 0 -11.7599 88.873 69.1)"/><use xlink:href="#w" fill="#043c53" data-text="l" transform="matrix(11.7599 0 0 -11.7599 91.671 69.1)"/><use xlink:href="#j" fill="#043c53" data-text="a" transform="matrix(11.7599 0 0 -11.7599 94.94 69.1)"/><use xlink:href="#h" fill="#043c53" transform="matrix(11.7599 0 0 -11.7599 102.914 69.1)"/><use xlink:href="#e" fill="#043c53" data-text="c" transform="matrix(11.7599 0 0 -11.7599 105.713 69.1)"/><use xlink:href="#j" fill="#043c53" data-text="a" transform="matrix(11.7599 0 0 -11.7599 112.792 69.1)"/><use xlink:href="#u" fill="#043c53" data-text="r" transform="matrix(11.7599 0 0 -11.7599 120.765 69.1)"/><use xlink:href="#m" fill="#043c53" data-text="e" transform="matrix(11.7599 0 0 -11.7599 125.516 69.1)"/><use xlink:href="#h" fill="#043c53" transform="matrix(11.7599 0 0 -11.7599 132.772 69.1)"/><use xlink:href="#f" fill="#043c53" data-text="u" transform="matrix(11.7599 0 0 -11.7599 135.571 69.1)"/><use xlink:href="#u" fill="#043c53" data-text="r" transform="matrix(11.7599 0 0 -11.7599 143.344 69.1)"/><use xlink:href="#g" fill="#043c53" data-text="m" transform="matrix(11.7599 0 0 -11.7599 148.095 69.1)"/><use xlink:href="#m" fill="#043c53" data-text="e" transform="matrix(11.7599 0 0 -11.7599 160.42 69.1)"/><use xlink:href="#j" fill="#043c53" data-text="a" transform="matrix(11.7599 0 0 -11.7599 167.676 69.1)"/><use xlink:href="#y" fill="#043c53" data-text="z" transform="matrix(11.7599 0 0 -11.7599 175.649 69.1)"/><use xlink:href="#i" fill="#043c53" data-text="ă" transform="matrix(11.7599 0 0 -11.7599 181.329 69.1)"/><use xlink:href="#h" fill="#043c53" transform="matrix(11.7599 0 0 -11.7599 189.302 69.1)"/><use xlink:href="#q" fill="#043c53" data-text="s" transform="matrix(11.7599 0 0 -11.7599 192.1 69.1)"/><use xlink:href="#i" fill="#043c53" data-text="ă" transform="matrix(11.7599 0 0 -11.7599 198.51 69.1)"/><use xlink:href="#h" fill="#043c53" transform="matrix(11.7599 0 0 -11.7599 206.483 69.1)"/><use xlink:href="#q" fill="#043c53" data-text="s" transform="matrix(11.7599 0 0 -11.7599 209.282 69.1)"/><use xlink:href="#p" fill="#043c53" data-text="t" transform="matrix(11.7599 0 0 -11.7599 215.691 69.1)"/><use xlink:href="#f" fill="#043c53" data-text="u" transform="matrix(11.7599 0 0 -11.7599 220.254 69.1)"/><use xlink:href="#l" fill="#043c53" data-text="d" transform="matrix(11.7599 0 0 -11.7599 228.027 69.1)"/><use xlink:href="#k" fill="#043c53" data-text="i" transform="matrix(11.7599 0 0 -11.7599 236 69.1)"/><use xlink:href="#m" fill="#043c53" data-text="e" transform="matrix(11.7599 0 0 -11.7599 239.27 69.1)"/><use xlink:href="#y" fill="#043c53" data-text="z" transform="matrix(11.7599 0 0 -11.7599 246.526 69.1)"/><use xlink:href="#k" fill="#043c53" data-text="i" transform="matrix(11.7599 0 0 -11.7599 252.206 69.1)"/><use xlink:href="#z" fill="#043c53" data-text="!" transform="matrix(11.7599 0 0 -11.7599 255.475 69.1)"/><use xlink:href="#A" fill="#fa7860" data-text="1" transform="matrix(16.46385 0 0 -16.46385 26.397 95.551)"/><use xlink:href="#B" fill="#fa7860" data-text="." transform="matrix(16.46385 0 0 -16.46385 32.587 95.551)"/><use xlink:href="#A" fill="#fa7860" data-text="1" transform="matrix(16.46385 0 0 -16.46385 37.23 95.551)"/><use xlink:href="#C" fill="#fa7860" transform="matrix(16.46385 0 0 -16.46385 43.42 95.551)"/><use xlink:href="#D" fill="#fa7860" data-text="I" transform="matrix(16.46385 0 0 -16.46385 46.91 95.551)"/><use xlink:href="#E" fill="#fa7860" data-text="E" transform="matrix(16.46385 0 0 -16.46385 51.768 95.551)"/><use xlink:href="#F" fill="#fa7860" data-text="R" transform="matrix(16.46385 0 0 -16.46385 60.675 95.551)"/><use xlink:href="#G" fill="#fa7860" data-text="A" transform="matrix(16.46385 0 0 -16.46385 71.41 95.551)"/><use xlink:href="#F" fill="#fa7860" data-text="R" transform="matrix(16.46385 0 0 -16.46385 83.543 95.551)"/><use xlink:href="#H" fill="#fa7860" data-text="H" transform="matrix(16.46385 0 0 -16.46385 94.277 95.551)"/><use xlink:href="#D" fill="#fa7860" data-text="I" transform="matrix(16.46385 0 0 -16.46385 106.312 95.551)"/><use xlink:href="#E" fill="#fa7860" data-text="E" transform="matrix(16.46385 0 0 -16.46385 111.17 95.551)"/><use xlink:href="#C" fill="#fa7860" transform="matrix(16.46385 0 0 -16.46385 120.076 95.551)"/><use xlink:href="#G" fill="#fa7860" data-text="A" transform="matrix(16.46385 0 0 -16.46385 123.567 95.551)"/><use xlink:href="#I" fill="#fa7860" data-text="D" transform="matrix(16.46385 0 0 -16.46385 135.7 95.551)"/><use xlink:href="#J" fill="#fa7860" data-text="M" transform="matrix(16.46385 0 0 -16.46385 147.67 95.551)"/><use xlink:href="#D" fill="#fa7860" data-text="I" transform="matrix(16.46385 0 0 -16.46385 162.784 95.551)"/><use xlink:href="#K" fill="#fa7860" data-text="N" transform="matrix(16.46385 0 0 -16.46385 167.64 95.551)"/><use xlink:href="#D" fill="#fa7860" data-text="I" transform="matrix(16.46385 0 0 -16.46385 180.021 95.551)"/><use xlink:href="#L" fill="#fa7860" data-text="S" transform="matrix(16.46385 0 0 -16.46385 184.878 95.551)"/><use xlink:href="#M" fill="#fa7860" data-text="T" transform="matrix(16.46385 0 0 -16.46385 195.003 95.551)"/><use xlink:href="#F" fill="#fa7860" data-text="R" transform="matrix(16.46385 0 0 -16.46385 204.733 95.551)"/><use xlink:href="#G" fill="#fa7860" data-text="A" transform="matrix(16.46385 0 0 -16.46385 215.468 95.551)"/><use xlink:href="#M" fill="#fa7860" data-text="T" transform="matrix(16.46385 0 0 -16.46385 227.602 95.551)"/><use xlink:href="#D" fill="#fa7860" data-text="I" transform="matrix(16.46385 0 0 -16.46385 237.332 95.551)"/><use xlink:href="#N" fill="#fa7860" data-text="V" transform="matrix(16.46385 0 0 -16.46385 242.189 95.551)"/><use xlink:href="#O" fill="#fa7860" data-text="Ă" transform="matrix(16.46385 0 0 -16.46385 254.207 95.551)"/><path fill="none" stroke="#fa7860" stroke-miterlimit="10" stroke-width=".6" d="M28.472 86.152v9.4h2.93V83.533h-4.56v2.619zM34.925 95.684q.724 0 1.194-.436t.47-1.078a1.45 1.45 0 0 0-.47-1.104q-.47-.446-1.194-.446-.74 0-1.21.446-.468.442-.47 1.104.002.641.47 1.078.47.435 1.21.436ZM39.304 86.152v9.4h2.93V83.533h-4.56v2.619zM47.931 95.552h2.815V83.994h-2.815ZM59.867 86.25v-2.256h-7.08v11.558h7.08v-2.255h-4.264V90.76h3.77v-2.172h-3.77V86.25zM70.766 95.552 68.1 90.976q1.267-.382 1.92-1.284a3.45 3.45 0 0 0 .648-2.06q-.001-1.02-.476-1.85-.479-.835-1.442-1.31-.962-.477-2.329-.478h-4.725v11.558h2.815V91.19h.675l2.404 4.363zm-6.256-9.22h1.745q.775 0 1.16.379.388.378.388 1.037 0 .691-.387 1.07-.386.379-1.16.38H64.51zM80.316 95.552h2.978l-4.18-11.558h-3.26l-4.182 11.558h2.948l.69-2.042h4.315zm-4.266-4.214 1.417-4.231 1.432 4.231zM93.635 95.552l-2.668-4.576q1.268-.382 1.919-1.284a3.45 3.45 0 0 0 .648-2.06q0-1.02-.475-1.85-.48-.835-1.442-1.31-.962-.477-2.33-.478h-4.724v11.558h2.815V91.19h.675l2.404 4.363zm-6.257-9.22h1.745q.775 0 1.161.379.386.378.386 1.037 0 .691-.386 1.07t-1.161.38h-1.745zM102.492 83.994v4.527h-4.38v-4.527h-2.815v11.558h2.815v-4.759h4.38v4.76h2.815V83.993zM107.332 95.552h2.815V83.994h-2.815ZM119.268 86.25v-2.256h-7.08v11.558h7.08v-2.255h-4.265V90.76h3.771v-2.172h-3.771V86.25zM132.472 95.552h2.98l-4.182-11.558h-3.26l-4.182 11.558h2.948l.692-2.042h4.313zm-4.265-4.214 1.416-4.231 1.433 4.231zM141.05 83.994h-4.33v11.558h4.33q1.811 0 3.186-.724a5.14 5.14 0 0 0 2.123-2.043q.75-1.316.75-3.012 0-1.712-.75-3.021a5.16 5.16 0 0 0-2.116-2.033q-1.365-.724-3.194-.725Zm-.182 9.123h-1.334v-6.718h1.334q1.598 0 2.486.888t.89 2.486q-.001 1.6-.89 2.47c-.592.58-1.42.874-2.486.874ZM158.468 83.994l-3.211 8.002-3.243-8.002h-3.326v11.558h2.815v-6.947l2.602 6.947h2.271l2.585-6.933v6.933h2.816V83.994zM163.802 95.552h2.815V83.994h-2.815ZM178.998 83.994h-2.815v7.162l-4.709-7.162h-2.816v11.558h2.816v-7.13l4.71 7.13h2.814zM181.039 95.552h2.815V83.994h-2.815ZM190.077 95.668q1.301-.001 2.256-.478.955-.478 1.458-1.286a3.3 3.3 0 0 0 .501-1.793q0-1.038-.51-1.694a3.5 3.5 0 0 0-1.21-1.006 15 15 0 0 0-1.819-.725q-1.12-.362-1.647-.674t-.527-.874q0-.51.313-.782.312-.27.824-.271.591 0 .97.321.38.322.412.881h3.046q-.081-1.63-1.251-2.544-1.17-.913-3.078-.912-1.878-.001-3.047.912-1.167.915-1.168 2.527 0 1.088.51 1.762.51.675 1.218 1.022.708.343 1.828.691.774.23 1.193.41c.28.123.517.274.708.462q.289.28.29.708 0 .51-.364.799-.363.288-.987.288-.609 0-.988-.339c-.253-.223-.402-.552-.446-.979h-2.996q.033 1.138.635 1.944.6.806 1.606 1.217 1.002.413 2.27.413ZM195.395 83.994v2.256h3.062v9.302h2.816V86.25h3.061v-2.256zM214.823 95.552l-2.668-4.576q1.268-.382 1.919-1.284a3.45 3.45 0 0 0 .649-2.06q0-1.02-.476-1.85-.48-.835-1.442-1.31-.961-.477-2.329-.478h-4.725v11.558h2.815V91.19h.675l2.404 4.363zm-6.257-9.22h1.745q.775 0 1.16.379.389.378.388 1.037 0 .691-.387 1.07t-1.16.38h-1.746zM224.372 95.552h2.979l-4.181-11.558h-3.26l-4.182 11.558h2.948l.691-2.042h4.314zm-4.265-4.214 1.416-4.231 1.433 4.231zM227.994 83.994v2.256h3.062v9.302h2.815V86.25h3.062v-2.256zM238.35 95.552h2.815V83.994h-2.815ZM251.076 83.994l-2.88 8.727-2.866-8.727h-2.997l4.099 11.558h3.526l4.096-11.558zM263.11 95.552h2.98l-4.18-11.558h-3.262l-4.18 11.558h2.946l.691-2.042h4.316zm-4.263-4.214 1.414-4.231 1.435 4.231zm4.246-10.884v-.329h-1.414q-.001.543-.312.824c-.211.187-.571.278-1.09.278q-.77.001-1.084-.278-.313-.28-.312-.824h-1.402v.312q0 1.35.768 2.1.764.75 2.03.75c.848 0 1.527-.248 2.045-.74q.77-.742.77-2.093Z"/><use xlink:href="#P" fill="#085bdb" data-text="R" transform="matrix(14.69986 0 0 -14.69986 26.397 122.502)"/><use xlink:href="#Q" fill="#085bdb" data-text="E" transform="matrix(14.69986 0 0 -14.69986 36.114 122.502)"/><use xlink:href="#R" fill="#085bdb" data-text="C" transform="matrix(14.69986 0 0 -14.69986 44.17 122.502)"/><use xlink:href="#S" fill="#085bdb" data-text="T" transform="matrix(14.69986 0 0 -14.69986 55.312 122.502)"/><use xlink:href="#T" fill="#085bdb" data-text="O" transform="matrix(14.69986 0 0 -14.69986 64.19 122.502)"/><use xlink:href="#P" fill="#085bdb" data-text="R" transform="matrix(14.69986 0 0 -14.69986 75.76 122.502)"/><path fill="none" stroke="#085bdb" stroke-miterlimit="10" stroke-width=".25008" d="m35.687 122.502-2.337-4.042q1.116-.337 1.698-1.14.58-.802.58-1.86 0-.94-.44-1.696-.44-.76-1.309-1.19-.866-.436-2.117-.435H27.22v10.363h2.881v-3.823h.31l2.057 3.823zm-5.586-7.954h1.426q.574 0 .876.288.3.286.301.787-.002.53-.294.807-.295.28-.883.28H30.1zM43.567 114.445v-2.306h-6.63v10.363h6.63v-2.309h-3.749v-1.865h3.307v-2.19h-3.307v-1.693zM44.64 117.299q0 1.543.639 2.74.64 1.199 1.816 1.868 1.175.67 2.705.67 1.939 0 3.263-1.038 1.323-1.036 1.705-2.815h-3.102a2.05 2.05 0 0 1-.77.895 2.1 2.1 0 0 1-1.14.31q-1 0-1.595-.713-.596-.712-.596-1.917 0-1.19.596-1.906.595-.711 1.594-.713a2.1 2.1 0 0 1 1.14.31q.493.31.771.895h3.102q-.382-1.775-1.705-2.813-1.323-1.035-3.263-1.036-1.53 0-2.705.67a4.6 4.6 0 0 0-1.816 1.866q-.639 1.198-.638 2.727ZM55.562 112.139v2.294h2.734v8.069h2.88v-8.069h2.765v-2.294zM69.983 122.605q1.454 0 2.674-.684a5.05 5.05 0 0 0 1.927-1.896q.706-1.214.706-2.74 0-1.53-.706-2.744a5 5 0 0 0-1.918-1.889q-1.215-.674-2.683-.674a5.4 5.4 0 0 0-2.676.674 5 5 0 0 0-1.932 1.89q-.713 1.212-.713 2.742 0 1.527.713 2.741a5.1 5.1 0 0 0 1.932 1.896 5.4 5.4 0 0 0 2.676.684Zm0-2.676q-1.119 0-1.75-.713-.632-.712-.632-1.932 0-1.236.632-1.949.631-.712 1.75-.712 1.102 0 1.741.712.64.712.64 1.95 0 1.204-.64 1.924t-1.741.72ZM85.05 122.502l-2.338-4.042q1.116-.337 1.698-1.14.58-.802.58-1.86a3.3 3.3 0 0 0-.44-1.696q-.44-.76-1.31-1.19-.866-.436-2.116-.435h-4.542v10.363h2.88v-3.823h.31l2.058 3.823zm-5.587-7.954h1.426q.574 0 .875.288.301.286.302.787-.001.53-.294.807-.294.28-.883.28h-1.426z"/><use xlink:href="#U" fill="#0b5adb" transform="matrix(13.71987 0 0 -13.71987 85.476 122.502)"/><use xlink:href="#V" fill="#043c53" data-text="-" transform="matrix(11.7599 0 0 -11.7599 105.517 122.502)"/><use xlink:href="#h" fill="#043c53" transform="matrix(11.7599 0 0 -11.7599 112.373 122.502)"/><use xlink:href="#u" fill="#043c53" data-text="r" transform="matrix(11.7599 0 0 -11.7599 133.782 122.502)"/><use xlink:href="#m" fill="#043c53" data-text="e" transform="matrix(11.7599 0 0 -11.7599 138.533 122.502)"/><use xlink:href="#q" fill="#043c53" data-text="s" transform="matrix(11.7599 0 0 -11.7599 145.79 122.502)"/><use xlink:href="#x" fill="#043c53" data-text="p" transform="matrix(11.7599 0 0 -11.7599 152.198 122.502)"/><use xlink:href="#t" fill="#043c53" data-text="o" transform="matrix(11.7599 0 0 -11.7599 160.172 122.502)"/><use xlink:href="#o" fill="#043c53" data-text="n" transform="matrix(11.7599 0 0 -11.7599 167.674 122.502)"/><use xlink:href="#q" fill="#043c53" data-text="s" transform="matrix(11.7599 0 0 -11.7599 175.448 122.502)"/><use xlink:href="#j" fill="#043c53" data-text="a" transform="matrix(11.7599 0 0 -11.7599 181.857 122.502)"/><use xlink:href="#W" fill="#043c53" data-text="b" transform="matrix(11.7599 0 0 -11.7599 189.83 122.502)"/><use xlink:href="#k" fill="#043c53" data-text="i" transform="matrix(11.7599 0 0 -11.7599 197.803 122.502)"/><use xlink:href="#w" fill="#043c53" data-text="l" transform="matrix(11.7599 0 0 -11.7599 201.072 122.502)"/><use xlink:href="#h" fill="#043c53" transform="matrix(11.7599 0 0 -11.7599 204.342 122.502)"/><use xlink:href="#x" fill="#043c53" data-text="p" transform="matrix(11.7599 0 0 -11.7599 225.75 122.502)"/><use xlink:href="#m" fill="#043c53" data-text="e" transform="matrix(11.7599 0 0 -11.7599 233.723 122.502)"/><use xlink:href="#o" fill="#043c53" data-text="n" transform="matrix(11.7599 0 0 -11.7599 240.98 122.502)"/><use xlink:href="#p" fill="#043c53" data-text="t" transform="matrix(11.7599 0 0 -11.7599 248.753 122.502)"/><use xlink:href="#u" fill="#043c53" data-text="r" transform="matrix(11.7599 0 0 -11.7599 253.315 122.502)"/><use xlink:href="#f" fill="#043c53" data-text="u" transform="matrix(11.7599 0 0 -11.7599 258.066 122.502)"/><use xlink:href="#h" fill="#043c53" transform="matrix(11.7599 0 0 -11.7599 265.84 122.502)"/><use xlink:href="#j" fill="#043c53" data-text="a" transform="matrix(11.7599 0 0 -11.7599 26.396 136.226)"/><use xlink:href="#l" fill="#043c53" data-text="d" transform="matrix(11.7599 0 0 -11.7599 34.37 136.226)"/><use xlink:href="#g" fill="#043c53" data-text="m" transform="matrix(11.7599 0 0 -11.7599 42.343 136.226)"/><use xlink:href="#k" fill="#043c53" data-text="i" transform="matrix(11.7599 0 0 -11.7599 54.667 136.226)"/><use xlink:href="#o" fill="#043c53" data-text="n" transform="matrix(11.7599 0 0 -11.7599 57.936 136.226)"/><use xlink:href="#k" fill="#043c53" data-text="i" transform="matrix(11.7599 0 0 -11.7599 65.71 136.226)"/><use xlink:href="#q" fill="#043c53" data-text="s" transform="matrix(11.7599 0 0 -11.7599 68.979 136.226)"/><use xlink:href="#p" fill="#043c53" data-text="t" transform="matrix(11.7599 0 0 -11.7599 75.388 136.226)"/><use xlink:href="#u" fill="#043c53" data-text="r" transform="matrix(11.7599 0 0 -11.7599 79.951 136.226)"/><use xlink:href="#j" fill="#043c53" data-text="a" transform="matrix(11.7599 0 0 -11.7599 84.702 136.226)"/><use xlink:href="#u" fill="#043c53" data-text="r" transform="matrix(11.7599 0 0 -11.7599 92.675 136.226)"/><use xlink:href="#m" fill="#043c53" data-text="e" transform="matrix(11.7599 0 0 -11.7599 97.426 136.226)"/><use xlink:href="#j" fill="#043c53" data-text="a" transform="matrix(11.7599 0 0 -11.7599 104.682 136.226)"/><use xlink:href="#h" fill="#043c53" transform="matrix(11.7599 0 0 -11.7599 112.655 136.226)"/><use xlink:href="#X" fill="#043c53" data-text="g" transform="matrix(11.7599 0 0 -11.7599 115.454 136.226)"/><use xlink:href="#m" fill="#043c53" data-text="e" transform="matrix(11.7599 0 0 -11.7599 123.427 136.226)"/><use xlink:href="#o" fill="#043c53" data-text="n" transform="matrix(11.7599 0 0 -11.7599 130.683 136.226)"/><use xlink:href="#m" fill="#043c53" data-text="e" transform="matrix(11.7599 0 0 -11.7599 138.456 136.226)"/><use xlink:href="#u" fill="#043c53" data-text="r" transform="matrix(11.7599 0 0 -11.7599 145.712 136.226)"/><use xlink:href="#j" fill="#043c53" data-text="a" transform="matrix(11.7599 0 0 -11.7599 150.463 136.226)"/><use xlink:href="#w" fill="#043c53" data-text="l" transform="matrix(11.7599 0 0 -11.7599 158.437 136.226)"/><use xlink:href="#i" fill="#043c53" data-text="ă" transform="matrix(11.7599 0 0 -11.7599 161.706 136.226)"/><use xlink:href="#h" fill="#043c53" transform="matrix(11.7599 0 0 -11.7599 169.679 136.226)"/><use xlink:href="#j" fill="#043c53" data-text="a" transform="matrix(11.7599 0 0 -11.7599 172.478 136.226)"/><use xlink:href="#h" fill="#043c53" transform="matrix(11.7599 0 0 -11.7599 180.451 136.226)"/><use xlink:href="#k" fill="#043c53" data-text="i" transform="matrix(11.7599 0 0 -11.7599 183.25 136.226)"/><use xlink:href="#o" fill="#043c53" data-text="n" transform="matrix(11.7599 0 0 -11.7599 186.52 136.226)"/><use xlink:href="#q" fill="#043c53" data-text="s" transform="matrix(11.7599 0 0 -11.7599 194.292 136.226)"/><use xlink:href="#p" fill="#043c53" data-text="t" transform="matrix(11.7599 0 0 -11.7599 200.702 136.226)"/><use xlink:href="#k" fill="#043c53" data-text="i" transform="matrix(11.7599 0 0 -11.7599 205.264 136.226)"/><use xlink:href="#p" fill="#043c53" data-text="t" transform="matrix(11.7599 0 0 -11.7599 208.534 136.226)"/><use xlink:href="#f" fill="#043c53" data-text="u" transform="matrix(11.7599 0 0 -11.7599 213.097 136.226)"/><use xlink:href="#v" fill="#043c53" data-text="ț" transform="matrix(11.7599 0 0 -11.7599 220.87 136.226)"/><use xlink:href="#k" fill="#043c53" data-text="i" transform="matrix(11.7599 0 0 -11.7599 225.433 136.226)"/><use xlink:href="#m" fill="#043c53" data-text="e" transform="matrix(11.7599 0 0 -11.7599 228.702 136.226)"/><use xlink:href="#k" fill="#043c53" data-text="i" transform="matrix(11.7599 0 0 -11.7599 235.958 136.226)"/><use xlink:href="#Y" fill="#085bdb" data-text="P" transform="matrix(14.69986 0 0 -14.69986 26.397 163.662)"/><use xlink:href="#P" fill="#085bdb" data-text="R" transform="matrix(14.69986 0 0 -14.69986 35.746 163.662)"/><use xlink:href="#T" fill="#085bdb" data-text="O" transform="matrix(14.69986 0 0 -14.69986 45.463 163.662)"/><use xlink:href="#P" fill="#085bdb" data-text="R" transform="matrix(14.69986 0 0 -14.69986 57.031 163.662)"/><use xlink:href="#Q" fill="#085bdb" data-text="E" transform="matrix(14.69986 0 0 -14.69986 66.748 163.662)"/><use xlink:href="#R" fill="#085bdb" data-text="C" transform="matrix(14.69986 0 0 -14.69986 74.804 163.662)"/><use xlink:href="#S" fill="#085bdb" data-text="T" transform="matrix(14.69986 0 0 -14.69986 85.946 163.662)"/><use xlink:href="#T" fill="#085bdb" data-text="O" transform="matrix(14.69986 0 0 -14.69986 94.825 163.662)"/><use xlink:href="#P" fill="#085bdb" data-text="R" transform="matrix(14.69986 0 0 -14.69986 106.394 163.662)"/><use xlink:href="#Z" fill="#085bdb" data-text="I" transform="matrix(14.69986 0 0 -14.69986 116.11 163.662)"/><path fill="none" stroke="#085bdb" stroke-miterlimit="10" stroke-width=".25008" d="M35.408 156.752q0-1.012-.44-1.793-.443-.78-1.316-1.22-.876-.44-2.125-.44H27.22v10.362h2.881v-3.496h1.426q1.264-.001 2.14-.464.874-.465 1.307-1.236a3.45 3.45 0 0 0 .434-1.713Zm-4.16 1.118H30.1v-2.249h1.146q1.221 0 1.222 1.13 0 1.12-1.222 1.12ZM45.036 163.661l-2.337-4.041q1.115-.338 1.698-1.14.58-.802.58-1.86 0-.94-.44-1.697t-1.31-1.19q-.868-.435-2.116-.435h-4.542v10.363h2.88v-3.823h.31l2.058 3.823zm-5.586-7.953h1.425q.575 0 .876.288.301.287.302.787-.002.53-.294.806-.296.281-.884.281H39.45zM51.255 163.765q1.454 0 2.674-.684a5.05 5.05 0 0 0 1.927-1.896q.706-1.215.706-2.741-.001-1.53-.706-2.743a5 5 0 0 0-1.918-1.89q-1.215-.674-2.683-.673-1.456-.001-2.677.674a5.03 5.03 0 0 0-1.931 1.889q-.715 1.213-.714 2.743 0 1.527.714 2.74a5.1 5.1 0 0 0 1.93 1.897 5.4 5.4 0 0 0 2.678.684Zm0-2.674q-1.119-.001-1.75-.715-.633-.713-.633-1.932 0-1.238.633-1.949.631-.713 1.75-.713 1.102 0 1.741.713.64.711.64 1.949 0 1.206-.64 1.925-.64.721-1.741.722ZM66.32 163.661l-2.336-4.041q1.116-.338 1.698-1.14.58-.802.58-1.86 0-.94-.44-1.697t-1.31-1.19q-.866-.435-2.116-.435h-4.542v10.363h2.88v-3.823h.31l2.058 3.823zm-5.585-7.953h1.425q.575 0 .876.288.301.287.302.787-.002.53-.294.806-.295.281-.884.281h-1.425zM74.2 155.605v-2.307h-6.63v10.363h6.63v-2.308h-3.748v-1.865h3.308v-2.191h-3.308v-1.692zM75.274 158.458q0 1.544.638 2.741.64 1.198 1.816 1.867 1.176.67 2.705.67 1.94 0 3.263-1.037t1.706-2.815h-3.103a2.05 2.05 0 0 1-.77.895 2.1 2.1 0 0 1-1.14.31q-1 0-1.595-.713-.595-.712-.595-1.918 0-1.19.595-1.903t1.595-.715a2.1 2.1 0 0 1 1.14.31q.492.31.77.895h3.103q-.382-1.776-1.706-2.813t-3.263-1.037q-1.528 0-2.705.67a4.6 4.6 0 0 0-1.816 1.867c-.425.8-.638 1.706-.638 2.726ZM86.196 153.298v2.295h2.733v8.068h2.881v-8.068h2.764v-2.295zM100.616 163.765q1.455 0 2.675-.684a5.04 5.04 0 0 0 1.926-1.896q.705-1.215.706-2.741 0-1.53-.706-2.743a5 5 0 0 0-1.918-1.89q-1.214-.674-2.683-.673a5.4 5.4 0 0 0-2.675.674 5 5 0 0 0-1.933 1.889q-.713 1.213-.713 2.743 0 1.527.713 2.74a5.1 5.1 0 0 0 1.933 1.897 5.4 5.4 0 0 0 2.675.684Zm0-2.674q-1.117-.001-1.75-.715-.632-.713-.632-1.932 0-1.238.633-1.949.63-.713 1.75-.713 1.1 0 1.741.713.64.711.64 1.949 0 1.206-.64 1.925-.64.721-1.742.722ZM115.683 163.661l-2.338-4.041q1.117-.338 1.698-1.14.58-.802.58-1.86 0-.94-.439-1.697-.441-.758-1.31-1.19-.866-.435-2.117-.435h-4.542v10.363h2.881v-3.823h.31l2.057 3.823zm-5.587-7.953h1.427q.573 0 .875.288.301.287.302.787-.001.53-.295.806-.295.281-.882.281h-1.427zM116.933 163.661h2.881v-10.363h-2.88Z"/><use xlink:href="#c" fill="#043c53" transform="matrix(11.7599 0 0 -11.7599 120.636 163.662)"/><use xlink:href="#V" fill="#043c53" data-text="-" transform="matrix(11.7599 0 0 -11.7599 138.053 163.662)"/><use xlink:href="#h" fill="#043c53" transform="matrix(11.7599 0 0 -11.7599 144.909 163.662)"/><use xlink:href="#u" fill="#043c53" data-text="r" transform="matrix(11.7599 0 0 -11.7599 160.848 163.662)"/><use xlink:href="#m" fill="#043c53" data-text="e" transform="matrix(11.7599 0 0 -11.7599 165.599 163.662)"/><use xlink:href="#q" fill="#043c53" data-text="s" transform="matrix(11.7599 0 0 -11.7599 172.855 163.662)"/><use xlink:href="#x" fill="#043c53" data-text="p" transform="matrix(11.7599 0 0 -11.7599 179.264 163.662)"/><use xlink:href="#t" fill="#043c53" data-text="o" transform="matrix(11.7599 0 0 -11.7599 187.237 163.662)"/><use xlink:href="#o" fill="#043c53" data-text="n" transform="matrix(11.7599 0 0 -11.7599 194.74 163.662)"/><use xlink:href="#q" fill="#043c53" data-text="s" transform="matrix(11.7599 0 0 -11.7599 202.513 163.662)"/><use xlink:href="#j" fill="#043c53" data-text="a" transform="matrix(11.7599 0 0 -11.7599 208.922 163.662)"/><use xlink:href="#W" fill="#043c53" data-text="b" transform="matrix(11.7599 0 0 -11.7599 216.895 163.662)"/><use xlink:href="#k" fill="#043c53" data-text="i" transform="matrix(11.7599 0 0 -11.7599 224.869 163.662)"/><use xlink:href="#w" fill="#043c53" data-text="l" transform="matrix(11.7599 0 0 -11.7599 228.138 163.662)"/><use xlink:href="#k" fill="#043c53" data-text="i" transform="matrix(11.7599 0 0 -11.7599 231.407 163.662)"/><use xlink:href="#h" fill="#043c53" transform="matrix(11.7599 0 0 -11.7599 234.676 163.662)"/><use xlink:href="#l" fill="#043c53" data-text="d" transform="matrix(11.7599 0 0 -11.7599 250.615 163.662)"/><use xlink:href="#m" fill="#043c53" data-text="e" transform="matrix(11.7599 0 0 -11.7599 258.589 163.662)"/><use xlink:href="#h" fill="#043c53" transform="matrix(11.7599 0 0 -11.7599 265.844 163.662)"/><use xlink:href="#j" fill="#043c53" data-text="a" transform="matrix(11.7599 0 0 -11.7599 26.404 177.386)"/><use xlink:href="#o" fill="#043c53" data-text="n" transform="matrix(11.7599 0 0 -11.7599 34.377 177.386)"/><use xlink:href="#f" fill="#043c53" data-text="u" transform="matrix(11.7599 0 0 -11.7599 42.15 177.386)"/><use xlink:href="#g" fill="#043c53" data-text="m" transform="matrix(11.7599 0 0 -11.7599 49.923 177.386)"/><use xlink:href="#k" fill="#043c53" data-text="i" transform="matrix(11.7599 0 0 -11.7599 62.248 177.386)"/><use xlink:href="#p" fill="#043c53" data-text="t" transform="matrix(11.7599 0 0 -11.7599 65.517 177.386)"/><use xlink:href="#m" fill="#043c53" data-text="e" transform="matrix(11.7599 0 0 -11.7599 70.08 177.386)"/><use xlink:href="#h" fill="#043c53" transform="matrix(11.7599 0 0 -11.7599 77.336 177.386)"/><use xlink:href="#j" fill="#043c53" data-text="a" transform="matrix(11.7599 0 0 -11.7599 80.135 177.386)"/><use xlink:href="#u" fill="#043c53" data-text="r" transform="matrix(11.7599 0 0 -11.7599 88.108 177.386)"/><use xlink:href="#k" fill="#043c53" data-text="i" transform="matrix(11.7599 0 0 -11.7599 92.859 177.386)"/><use xlink:href="#k" fill="#043c53" data-text="i" transform="matrix(11.7599 0 0 -11.7599 96.128 177.386)"/><use xlink:href="#h" fill="#043c53" transform="matrix(11.7599 0 0 -11.7599 99.397 177.386)"/><use xlink:href="#l" fill="#043c53" data-text="d" transform="matrix(11.7599 0 0 -11.7599 102.196 177.386)"/><use xlink:href="#m" fill="#043c53" data-text="e" transform="matrix(11.7599 0 0 -11.7599 110.17 177.386)"/><use xlink:href="#h" fill="#043c53" transform="matrix(11.7599 0 0 -11.7599 117.425 177.386)"/><use xlink:href="#j" fill="#043c53" data-text="a" transform="matrix(11.7599 0 0 -11.7599 120.224 177.386)"/><use xlink:href="#e" fill="#043c53" data-text="c" transform="matrix(11.7599 0 0 -11.7599 128.197 177.386)"/><use xlink:href="#p" fill="#043c53" data-text="t" transform="matrix(11.7599 0 0 -11.7599 135.277 177.386)"/><use xlink:href="#k" fill="#043c53" data-text="i" transform="matrix(11.7599 0 0 -11.7599 139.84 177.386)"/><use xlink:href="#n" fill="#043c53" data-text="v" transform="matrix(11.7599 0 0 -11.7599 143.109 177.386)"/><use xlink:href="#k" fill="#043c53" data-text="i" transform="matrix(11.7599 0 0 -11.7599 150.153 177.386)"/><use xlink:href="#p" fill="#043c53" data-text="t" transform="matrix(11.7599 0 0 -11.7599 153.422 177.386)"/><use xlink:href="#j" fill="#043c53" data-text="a" transform="matrix(11.7599 0 0 -11.7599 157.985 177.386)"/><use xlink:href="#p" fill="#043c53" data-text="t" transform="matrix(11.7599 0 0 -11.7599 165.958 177.386)"/><use xlink:href="#m" fill="#043c53" data-text="e" transform="matrix(11.7599 0 0 -11.7599 170.521 177.386)"/><use xlink:href="#aa" fill="#085bdb" data-text="D" transform="matrix(14.69986 0 0 -14.69986 26.397 204.821)"/><use xlink:href="#Q" fill="#085bdb" data-text="E" transform="matrix(14.69986 0 0 -14.69986 37.201 204.821)"/><use xlink:href="#R" fill="#085bdb" data-text="C" transform="matrix(14.69986 0 0 -14.69986 45.257 204.821)"/><use xlink:href="#ab" fill="#085bdb" data-text="A" transform="matrix(14.69986 0 0 -14.69986 56.4 204.821)"/><use xlink:href="#ac" fill="#085bdb" data-text="N" transform="matrix(14.69986 0 0 -14.69986 67.498 204.821)"/><use xlink:href="#Z" fill="#085bdb" data-text="I" transform="matrix(14.69986 0 0 -14.69986 78.743 204.821)"/><path fill="none" stroke="#085bdb" stroke-miterlimit="10" stroke-width=".25008" d="M31.322 194.458H27.22v10.362h4.102q1.615.001 2.844-.668a4.73 4.73 0 0 0 1.896-1.844q.67-1.176.669-2.677 0-1.514-.661-2.69a4.6 4.6 0 0 0-1.89-1.83q-1.227-.653-2.858-.653Zm-.22 7.82H30.1v-5.321h1q1.264 0 1.985.698.72.7.72 1.976 0 1.265-.72 1.956-.721.69-1.985.69ZM44.655 196.765v-2.308h-6.63v10.364h6.63v-2.308h-3.75v-1.867h3.309v-2.19h-3.309v-1.69zM45.728 199.617q0 1.545.64 2.741a4.58 4.58 0 0 0 1.815 1.867q1.175.67 2.704.67 1.941 0 3.264-1.037t1.705-2.815h-3.102a2.07 2.07 0 0 1-.771.896 2.1 2.1 0 0 1-1.14.31q-1 0-1.594-.714-.596-.712-.596-1.918 0-1.19.596-1.904.594-.711 1.594-.712.647 0 1.14.308.492.31.77.896h3.103q-.382-1.778-1.705-2.815-1.323-1.035-3.264-1.036-1.53 0-2.704.67a4.6 4.6 0 0 0-1.816 1.866q-.64 1.199-.64 2.727ZM64.338 204.821h3.042l-3.763-10.363h-3.321l-3.778 10.363h3.028l.559-1.69h3.674zm-3.499-3.896 1.103-3.35 1.117 3.35zM77.92 194.458h-2.88v5.865l-3.838-5.865h-2.88v10.362h2.88v-5.792l3.838 5.792h2.88zM79.566 204.82h2.882v-10.363h-2.882Z"/><use xlink:href="#c" fill="#043c53" transform="matrix(11.7599 0 0 -11.7599 83.27 204.821)"/><use xlink:href="#V" fill="#043c53" data-text="-" transform="matrix(11.7599 0 0 -11.7599 87.95 204.821)"/><use xlink:href="#h" fill="#043c53" transform="matrix(11.7599 0 0 -11.7599 94.807 204.821)"/><use xlink:href="#u" fill="#043c53" data-text="r" transform="matrix(11.7599 0 0 -11.7599 99.086 204.821)"/><use xlink:href="#m" fill="#043c53" data-text="e" transform="matrix(11.7599 0 0 -11.7599 103.837 204.821)"/><use xlink:href="#q" fill="#043c53" data-text="s" transform="matrix(11.7599 0 0 -11.7599 111.093 204.821)"/><use xlink:href="#x" fill="#043c53" data-text="p" transform="matrix(11.7599 0 0 -11.7599 117.502 204.821)"/><use xlink:href="#t" fill="#043c53" data-text="o" transform="matrix(11.7599 0 0 -11.7599 125.476 204.821)"/><use xlink:href="#o" fill="#043c53" data-text="n" transform="matrix(11.7599 0 0 -11.7599 132.978 204.821)"/><use xlink:href="#q" fill="#043c53" data-text="s" transform="matrix(11.7599 0 0 -11.7599 140.752 204.821)"/><use xlink:href="#j" fill="#043c53" data-text="a" transform="matrix(11.7599 0 0 -11.7599 147.16 204.821)"/><use xlink:href="#W" fill="#043c53" data-text="b" transform="matrix(11.7599 0 0 -11.7599 155.134 204.821)"/><use xlink:href="#k" fill="#043c53" data-text="i" transform="matrix(11.7599 0 0 -11.7599 163.107 204.821)"/><use xlink:href="#w" fill="#043c53" data-text="l" transform="matrix(11.7599 0 0 -11.7599 166.376 204.821)"/><use xlink:href="#h" fill="#043c53" transform="matrix(11.7599 0 0 -11.7599 169.646 204.821)"/><use xlink:href="#l" fill="#043c53" data-text="d" transform="matrix(11.7599 0 0 -11.7599 173.925 204.821)"/><use xlink:href="#m" fill="#043c53" data-text="e" transform="matrix(11.7599 0 0 -11.7599 181.899 204.821)"/><use xlink:href="#h" fill="#043c53" transform="matrix(11.7599 0 0 -11.7599 189.154 204.821)"/><use xlink:href="#e" fill="#043c53" data-text="c" transform="matrix(11.7599 0 0 -11.7599 193.434 204.821)"/><use xlink:href="#t" fill="#043c53" data-text="o" transform="matrix(11.7599 0 0 -11.7599 200.513 204.821)"/><use xlink:href="#o" fill="#043c53" data-text="n" transform="matrix(11.7599 0 0 -11.7599 208.016 204.821)"/><use xlink:href="#l" fill="#043c53" data-text="d" transform="matrix(11.7599 0 0 -11.7599 215.79 204.821)"/><use xlink:href="#f" fill="#043c53" data-text="u" transform="matrix(11.7599 0 0 -11.7599 223.762 204.821)"/><use xlink:href="#e" fill="#043c53" data-text="c" transform="matrix(11.7599 0 0 -11.7599 231.536 204.821)"/><use xlink:href="#m" fill="#043c53" data-text="e" transform="matrix(11.7599 0 0 -11.7599 238.615 204.821)"/><use xlink:href="#u" fill="#043c53" data-text="r" transform="matrix(11.7599 0 0 -11.7599 245.87 204.821)"/><use xlink:href="#m" fill="#043c53" data-text="e" transform="matrix(11.7599 0 0 -11.7599 250.622 204.821)"/><use xlink:href="#j" fill="#043c53" data-text="a" transform="matrix(11.7599 0 0 -11.7599 257.878 204.821)"/><use xlink:href="#h" fill="#043c53" transform="matrix(11.7599 0 0 -11.7599 265.851 204.821)"/><use xlink:href="#s" fill="#043c53" data-text="f" transform="matrix(11.7599 0 0 -11.7599 26.4 218.545)"/><use xlink:href="#j" fill="#043c53" data-text="a" transform="matrix(11.7599 0 0 -11.7599 30.457 218.545)"/><use xlink:href="#e" fill="#043c53" data-text="c" transform="matrix(11.7599 0 0 -11.7599 38.43 218.545)"/><use xlink:href="#f" fill="#043c53" data-text="u" transform="matrix(11.7599 0 0 -11.7599 45.51 218.545)"/><use xlink:href="#w" fill="#043c53" data-text="l" transform="matrix(11.7599 0 0 -11.7599 53.283 218.545)"/><use xlink:href="#p" fill="#043c53" data-text="t" transform="matrix(11.7599 0 0 -11.7599 56.552 218.545)"/><use xlink:href="#i" fill="#043c53" data-text="ă" transform="matrix(11.7599 0 0 -11.7599 61.115 218.545)"/><use xlink:href="#v" fill="#043c53" data-text="ț" transform="matrix(11.7599 0 0 -11.7599 69.088 218.545)"/><use xlink:href="#k" fill="#043c53" data-text="i" transform="matrix(11.7599 0 0 -11.7599 73.651 218.545)"/><use xlink:href="#w" fill="#043c53" data-text="l" transform="matrix(11.7599 0 0 -11.7599 76.92 218.545)"/><use xlink:href="#t" fill="#043c53" data-text="o" transform="matrix(11.7599 0 0 -11.7599 80.19 218.545)"/><use xlink:href="#u" fill="#043c53" data-text="r" transform="matrix(11.7599 0 0 -11.7599 87.692 218.545)"/><use xlink:href="#aa" fill="#0b5adb" data-text="D" transform="matrix(14.69986 0 0 -14.69986 26.397 245.98)"/><use xlink:href="#Z" fill="#0b5adb" data-text="I" transform="matrix(14.69986 0 0 -14.69986 37.201 245.98)"/><use xlink:href="#P" fill="#0b5adb" data-text="R" transform="matrix(14.69986 0 0 -14.69986 41.729 245.98)"/><use xlink:href="#Q" fill="#0b5adb" data-text="E" transform="matrix(14.69986 0 0 -14.69986 51.446 245.98)"/><use xlink:href="#R" fill="#0b5adb" data-text="C" transform="matrix(14.69986 0 0 -14.69986 59.501 245.98)"/><use xlink:href="#S" fill="#0b5adb" data-text="T" transform="matrix(14.69986 0 0 -14.69986 70.644 245.98)"/><use xlink:href="#T" fill="#0b5adb" data-text="O" transform="matrix(14.69986 0 0 -14.69986 79.522 245.98)"/><use xlink:href="#P" fill="#0b5adb" data-text="R" transform="matrix(14.69986 0 0 -14.69986 91.091 245.98)"/><use xlink:href="#Z" fill="#0b5adb" data-text="I" transform="matrix(14.69986 0 0 -14.69986 100.808 245.98)"/><use xlink:href="#U" fill="#0b5adb" transform="matrix(14.69986 0 0 -14.69986 105.335 245.98)"/><use xlink:href="#aa" fill="#0b5adb" data-text="D" transform="matrix(14.69986 0 0 -14.69986 110.45 245.98)"/><use xlink:href="#Q" fill="#0b5adb" data-text="E" transform="matrix(14.69986 0 0 -14.69986 121.255 245.98)"/><use xlink:href="#U" fill="#0b5adb" transform="matrix(14.69986 0 0 -14.69986 129.31 245.98)"/><use xlink:href="#aa" fill="#0b5adb" data-text="D" transform="matrix(14.69986 0 0 -14.69986 134.426 245.98)"/><use xlink:href="#Q" fill="#0b5adb" data-text="E" transform="matrix(14.69986 0 0 -14.69986 145.23 245.98)"/><use xlink:href="#Y" fill="#0b5adb" data-text="P" transform="matrix(14.69986 0 0 -14.69986 153.286 245.98)"/><use xlink:href="#ab" fill="#0b5adb" data-text="A" transform="matrix(14.69986 0 0 -14.69986 162.635 245.98)"/><use xlink:href="#P" fill="#0b5adb" data-text="R" transform="matrix(14.69986 0 0 -14.69986 173.734 245.98)"/><use xlink:href="#S" fill="#0b5adb" data-text="T" transform="matrix(14.69986 0 0 -14.69986 183.45 245.98)"/><use xlink:href="#ab" fill="#0b5adb" data-text="A" transform="matrix(14.69986 0 0 -14.69986 192.329 245.98)"/><use xlink:href="#ad" fill="#0b5adb" data-text="M" transform="matrix(14.69986 0 0 -14.69986 203.427 245.98)"/><use xlink:href="#Q" fill="#0b5adb" data-text="E" transform="matrix(14.69986 0 0 -14.69986 217.172 245.98)"/><use xlink:href="#ac" fill="#0b5adb" data-text="N" transform="matrix(14.69986 0 0 -14.69986 225.227 245.98)"/><use xlink:href="#S" fill="#0b5adb" data-text="T" transform="matrix(14.69986 0 0 -14.69986 236.473 245.98)"/><use xlink:href="#Q" fill="#0b5adb" data-text="E" transform="matrix(14.69986 0 0 -14.69986 245.351 245.98)"/><path fill="none" stroke="#085bdb" stroke-miterlimit="10" stroke-width=".25008" d="M31.322 235.618H27.22v10.363h4.102q1.615.001 2.844-.67a4.72 4.72 0 0 0 1.896-1.843q.67-1.177.669-2.676 0-1.514-.661-2.69a4.6 4.6 0 0 0-1.89-1.83q-1.227-.654-2.858-.654Zm-.22 7.82H30.1v-5.32h1q1.264-.001 1.985.696.72.7.72 1.978 0 1.265-.72 1.954-.721.693-1.985.692ZM38.025 245.98h2.88v-10.362h-2.88ZM51.02 245.98l-2.338-4.042q1.116-.337 1.698-1.139.58-.801.58-1.859 0-.94-.44-1.698-.44-.757-1.31-1.191-.866-.433-2.116-.432h-4.542v10.362h2.88v-3.821h.31l2.058 3.82zm-5.587-7.952h1.426q.574.001.875.287.301.287.302.787-.002.529-.294.809-.295.278-.883.278h-1.426zM58.899 237.926v-2.308h-6.63v10.364h6.63v-2.309h-3.75v-1.867h3.31v-2.19h-3.31v-1.69zM59.972 240.777q0 1.544.639 2.742a4.6 4.6 0 0 0 1.816 1.866q1.175.67 2.704.669 1.941.001 3.264-1.036t1.705-2.815h-3.102a2.07 2.07 0 0 1-.77.897q-.494.309-1.14.31-1.001 0-1.594-.714-.599-.713-.597-1.92 0-1.19.597-1.902.593-.713 1.593-.713.647 0 1.14.308.492.309.77.897H70.1q-.382-1.779-1.705-2.814-1.323-1.037-3.264-1.038-1.528 0-2.704.669a4.6 4.6 0 0 0-1.816 1.868q-.639 1.197-.639 2.726ZM70.894 235.618v2.293h2.734v8.07h2.88v-8.07h2.764v-2.293zM85.314 246.084q1.455 0 2.675-.684a5.03 5.03 0 0 0 1.927-1.895q.706-1.214.706-2.742-.001-1.53-.706-2.742a5 5 0 0 0-1.918-1.889 5.4 5.4 0 0 0-2.684-.677q-1.455.001-2.675.677a5 5 0 0 0-1.932 1.889q-.715 1.214-.714 2.742 0 1.529.714 2.742a5.07 5.07 0 0 0 1.932 1.895 5.4 5.4 0 0 0 2.675.684Zm0-2.676q-1.117.001-1.749-.712t-.633-1.933q0-1.235.633-1.949.632-.712 1.75-.711 1.1 0 1.741.711.64.714.64 1.949 0 1.204-.64 1.924-.64.721-1.742.721ZM100.38 245.98l-2.336-4.042q1.117-.337 1.698-1.139.58-.801.58-1.859 0-.94-.44-1.698-.44-.757-1.31-1.191-.866-.433-2.116-.432h-4.542v10.362h2.881v-3.821h.309l2.058 3.82zm-5.585-7.952h1.426q.574.001.875.287.301.287.302.787-.001.529-.294.809-.295.278-.883.278h-1.426zM101.63 245.98h2.882v-10.362h-2.881ZM115.379 235.618h-4.103v10.363h4.103q1.616.001 2.843-.67a4.73 4.73 0 0 0 1.897-1.843q.67-1.177.668-2.676 0-1.514-.66-2.69a4.6 4.6 0 0 0-1.89-1.83q-1.226-.654-2.858-.654Zm-.221 7.82h-1v-5.32h1q1.263-.001 1.984.696.72.7.72 1.978 0 1.265-.72 1.954-.72.693-1.984.692ZM128.712 237.926v-2.308h-6.63v10.364h6.63v-2.309h-3.75v-1.867h3.308v-2.19h-3.307v-1.69zM139.357 235.618h-4.103v10.363h4.103q1.615.001 2.844-.67a4.74 4.74 0 0 0 1.896-1.843q.67-1.177.67-2.676 0-1.514-.663-2.69a4.6 4.6 0 0 0-1.89-1.83q-1.226-.654-2.857-.654Zm-.221 7.82h-1v-5.32h1q1.264-.001 1.985.696.72.7.72 1.978 0 1.265-.72 1.954-.721.693-1.985.692ZM152.69 237.926v-2.308h-6.63v10.364h6.63v-2.309h-3.749v-1.867h3.307v-2.19h-3.307v-1.69zM162.303 239.072q0-1.013-.44-1.793-.442-.78-1.316-1.22-.876-.442-2.125-.441h-4.307v10.363h2.88v-3.5h1.427q1.264 0 2.14-.462.874-.462 1.307-1.234a3.44 3.44 0 0 0 .434-1.713Zm-4.16 1.117h-1.147v-2.25h1.148q1.219.001 1.22 1.133-.001 1.117-1.22 1.117ZM170.58 245.98h3.041l-3.763-10.361h-3.321l-3.778 10.362h3.028l.558-1.69h3.676zm-3.5-3.895 1.103-3.351 1.118 3.351zM183.03 245.98l-2.338-4.042q1.116-.337 1.699-1.139.58-.801.58-1.859 0-.94-.44-1.698-.441-.757-1.31-1.191-.868-.433-2.116-.432h-4.542v10.362h2.88v-3.821h.31l2.058 3.82zm-5.587-7.952h1.426q.574.001.875.287.302.287.302.787 0 .529-.293.809-.296.278-.884.278h-1.426zM183.706 235.618v2.293h2.734v8.07h2.882v-8.07h2.763v-2.293zM200.273 245.98h3.042l-3.763-10.361h-3.321l-3.778 10.362h3.028l.559-1.69h3.674zm-3.498-3.895 1.102-3.351 1.117 3.351zM212.885 235.618l-2.542 6.732-2.603-6.732h-3.483v10.363h2.88v-5.762l1.97 5.762h2.412l1.954-5.718v5.718h2.881v-10.363zM224.63 237.926v-2.308H218v10.364h6.63v-2.309h-3.749v-1.867h3.309v-2.19h-3.309v-1.69zM235.655 235.618h-2.88v5.865l-3.838-5.865h-2.88v10.363h2.88v-5.792l3.837 5.792h2.881zM236.729 235.618v2.293h2.733v8.07h2.88v-8.07h2.765v-2.293zM252.811 237.926v-2.308h-6.631v10.364h6.631v-2.309h-3.749v-1.867h3.307v-2.19h-3.307v-1.69z"/><use xlink:href="#c" fill="#043c53" transform="matrix(11.7599 0 0 -11.7599 253.413 245.98)"/><use xlink:href="#ae" fill="#043c53" data-text="-" transform="matrix(11.7599 0 0 -11.7599 258.987 245.98)"/><use xlink:href="#af" fill="#043c53" transform="matrix(11.7599 0 0 -11.7599 265.843 245.98)"/><use xlink:href="#u" fill="#043c53" data-text="r" transform="matrix(11.7599 0 0 -11.7599 26.4 259.705)"/><use xlink:href="#m" fill="#043c53" data-text="e" transform="matrix(11.7599 0 0 -11.7599 31.151 259.705)"/><use xlink:href="#q" fill="#043c53" data-text="s" transform="matrix(11.7599 0 0 -11.7599 38.407 259.705)"/><use xlink:href="#x" fill="#043c53" data-text="p" transform="matrix(11.7599 0 0 -11.7599 44.816 259.705)"/><use xlink:href="#t" fill="#043c53" data-text="o" transform="matrix(11.7599 0 0 -11.7599 52.79 259.705)"/><use xlink:href="#o" fill="#043c53" data-text="n" transform="matrix(11.7599 0 0 -11.7599 60.292 259.705)"/><use xlink:href="#q" fill="#043c53" data-text="s" transform="matrix(11.7599 0 0 -11.7599 68.065 259.705)"/><use xlink:href="#j" fill="#043c53" data-text="a" transform="matrix(11.7599 0 0 -11.7599 74.475 259.705)"/><use xlink:href="#W" fill="#043c53" data-text="b" transform="matrix(11.7599 0 0 -11.7599 82.448 259.705)"/><use xlink:href="#k" fill="#043c53" data-text="i" transform="matrix(11.7599 0 0 -11.7599 90.421 259.705)"/><use xlink:href="#w" fill="#043c53" data-text="l" transform="matrix(11.7599 0 0 -11.7599 93.69 259.705)"/><use xlink:href="#k" fill="#043c53" data-text="i" transform="matrix(11.7599 0 0 -11.7599 96.96 259.705)"/><use xlink:href="#h" fill="#043c53" transform="matrix(11.7599 0 0 -11.7599 100.229 259.705)"/><use xlink:href="#l" fill="#043c53" data-text="d" transform="matrix(11.7599 0 0 -11.7599 139.214 259.705)"/><use xlink:href="#m" fill="#043c53" data-text="e" transform="matrix(11.7599 0 0 -11.7599 147.187 259.705)"/><use xlink:href="#h" fill="#043c53" transform="matrix(11.7599 0 0 -11.7599 154.443 259.705)"/><use xlink:href="#e" fill="#043c53" data-text="c" transform="matrix(11.7599 0 0 -11.7599 193.43 259.705)"/><use xlink:href="#t" fill="#043c53" data-text="o" transform="matrix(11.7599 0 0 -11.7599 200.509 259.705)"/><use xlink:href="#o" fill="#043c53" data-text="n" transform="matrix(11.7599 0 0 -11.7599 208.011 259.705)"/><use xlink:href="#l" fill="#043c53" data-text="d" transform="matrix(11.7599 0 0 -11.7599 215.785 259.705)"/><use xlink:href="#f" fill="#043c53" data-text="u" transform="matrix(11.7599 0 0 -11.7599 223.758 259.705)"/><use xlink:href="#e" fill="#043c53" data-text="c" transform="matrix(11.7599 0 0 -11.7599 231.531 259.705)"/><use xlink:href="#m" fill="#043c53" data-text="e" transform="matrix(11.7599 0 0 -11.7599 238.61 259.705)"/><use xlink:href="#u" fill="#043c53" data-text="r" transform="matrix(11.7599 0 0 -11.7599 245.867 259.705)"/><use xlink:href="#m" fill="#043c53" data-text="e" transform="matrix(11.7599 0 0 -11.7599 250.618 259.705)"/><use xlink:href="#j" fill="#043c53" data-text="a" transform="matrix(11.7599 0 0 -11.7599 257.873 259.705)"/><use xlink:href="#h" fill="#043c53" transform="matrix(11.7599 0 0 -11.7599 265.847 259.705)"/><use xlink:href="#l" fill="#043c53" data-text="d" transform="matrix(11.7599 0 0 -11.7599 26.4 273.429)"/><use xlink:href="#m" fill="#043c53" data-text="e" transform="matrix(11.7599 0 0 -11.7599 34.373 273.429)"/><use xlink:href="#x" fill="#043c53" data-text="p" transform="matrix(11.7599 0 0 -11.7599 41.63 273.429)"/><use xlink:href="#j" fill="#043c53" data-text="a" transform="matrix(11.7599 0 0 -11.7599 49.602 273.429)"/><use xlink:href="#u" fill="#043c53" data-text="r" transform="matrix(11.7599 0 0 -11.7599 57.576 273.429)"/><use xlink:href="#p" fill="#043c53" data-text="t" transform="matrix(11.7599 0 0 -11.7599 62.327 273.429)"/><use xlink:href="#j" fill="#043c53" data-text="a" transform="matrix(11.7599 0 0 -11.7599 66.89 273.429)"/><use xlink:href="#g" fill="#043c53" data-text="m" transform="matrix(11.7599 0 0 -11.7599 74.863 273.429)"/><use xlink:href="#m" fill="#043c53" data-text="e" transform="matrix(11.7599 0 0 -11.7599 87.187 273.429)"/><use xlink:href="#o" fill="#043c53" data-text="n" transform="matrix(11.7599 0 0 -11.7599 94.443 273.429)"/><use xlink:href="#p" fill="#043c53" data-text="t" transform="matrix(11.7599 0 0 -11.7599 102.216 273.429)"/><use xlink:href="#m" fill="#043c53" data-text="e" transform="matrix(11.7599 0 0 -11.7599 106.779 273.429)"/><use xlink:href="#w" fill="#043c53" data-text="l" transform="matrix(11.7599 0 0 -11.7599 114.035 273.429)"/><use xlink:href="#t" fill="#043c53" data-text="o" transform="matrix(11.7599 0 0 -11.7599 117.304 273.429)"/><use xlink:href="#u" fill="#043c53" data-text="r" transform="matrix(11.7599 0 0 -11.7599 124.807 273.429)"/><use xlink:href="#ag" fill="#0b5adb" data-text="C" transform="matrix(14.69986 0 0 -14.69986 26.397 300.86)"/><use xlink:href="#ah" fill="#0b5adb" data-text="O" transform="matrix(14.69986 0 0 -14.69986 37.54 300.86)"/><use xlink:href="#ai" fill="#0b5adb" data-text="N" transform="matrix(14.69986 0 0 -14.69986 49.108 300.86)"/><use xlink:href="#aj" fill="#0b5adb" data-text="S" transform="matrix(14.69986 0 0 -14.69986 60.354 300.86)"/><use xlink:href="#ak" fill="#0b5adb" data-text="I" transform="matrix(14.69986 0 0 -14.69986 69.468 300.86)"/><use xlink:href="#al" fill="#0b5adb" data-text="L" transform="matrix(14.69986 0 0 -14.69986 73.995 300.86)"/><use xlink:href="#ak" fill="#0b5adb" data-text="I" transform="matrix(14.69986 0 0 -14.69986 81.213 300.86)"/><use xlink:href="#am" fill="#0b5adb" data-text="U" transform="matrix(14.69986 0 0 -14.69986 85.74 300.86)"/><use xlink:href="#al" fill="#0b5adb" data-text="L" transform="matrix(14.69986 0 0 -14.69986 96.207 300.86)"/><use xlink:href="#an" fill="#0b5adb" transform="matrix(14.69986 0 0 -14.69986 103.424 300.86)"/><use xlink:href="#ao" fill="#0b5adb" data-text="D" transform="matrix(14.69986 0 0 -14.69986 110.055 300.86)"/><use xlink:href="#ap" fill="#0b5adb" data-text="E" transform="matrix(14.69986 0 0 -14.69986 120.86 300.86)"/><use xlink:href="#an" fill="#0b5adb" transform="matrix(14.69986 0 0 -14.69986 128.915 300.86)"/><use xlink:href="#aq" fill="#0b5adb" data-text="A" transform="matrix(14.69986 0 0 -14.69986 135.547 300.86)"/><use xlink:href="#ao" fill="#0b5adb" data-text="D" transform="matrix(14.69986 0 0 -14.69986 146.646 300.86)"/><use xlink:href="#ar" fill="#0b5adb" data-text="M" transform="matrix(14.69986 0 0 -14.69986 157.45 300.86)"/><use xlink:href="#ak" fill="#0b5adb" data-text="I" transform="matrix(14.69986 0 0 -14.69986 171.194 300.86)"/><use xlink:href="#ai" fill="#0b5adb" data-text="N" transform="matrix(14.69986 0 0 -14.69986 175.722 300.86)"/><use xlink:href="#ak" fill="#0b5adb" data-text="I" transform="matrix(14.69986 0 0 -14.69986 186.967 300.86)"/><use xlink:href="#aj" fill="#0b5adb" data-text="S" transform="matrix(14.69986 0 0 -14.69986 191.495 300.86)"/><use xlink:href="#as" fill="#0b5adb" data-text="T" transform="matrix(14.69986 0 0 -14.69986 200.609 300.86)"/><use xlink:href="#at" fill="#0b5adb" data-text="R" transform="matrix(14.69986 0 0 -14.69986 209.488 300.86)"/><use xlink:href="#aq" fill="#0b5adb" data-text="A" transform="matrix(14.69986 0 0 -14.69986 219.204 300.86)"/><use xlink:href="#au" fill="#0b5adb" data-text="Ț" transform="matrix(14.69986 0 0 -14.69986 230.303 300.86)"/><use xlink:href="#ak" fill="#0b5adb" data-text="I" transform="matrix(14.69986 0 0 -14.69986 239.181 300.86)"/><use xlink:href="#ap" fill="#0b5adb" data-text="E" transform="matrix(14.69986 0 0 -14.69986 243.709 300.86)"/><path fill="none" stroke="#085bdb" stroke-miterlimit="10" stroke-width=".25008" d="M26.867 295.656q0 1.543.64 2.743a4.6 4.6 0 0 0 1.816 1.865q1.174.67 2.703.67 1.942.001 3.265-1.036t1.705-2.816h-3.102a2.1 2.1 0 0 1-.771.898 2.1 2.1 0 0 1-1.14.308q-1 .001-1.594-.712-.596-.715-.596-1.92 0-1.19.596-1.903.595-.713 1.594-.713.647 0 1.14.308.491.31.771.898h3.102q-.382-1.78-1.705-2.816t-3.265-1.037q-1.529 0-2.703.67a4.6 4.6 0 0 0-1.816 1.866q-.64 1.2-.64 2.727ZM43.332 300.963q1.454 0 2.674-.684a5.05 5.05 0 0 0 1.927-1.895q.706-1.214.706-2.742t-.706-2.742a5 5 0 0 0-1.918-1.888 5.4 5.4 0 0 0-2.683-.677q-1.456 0-2.677.677a5 5 0 0 0-1.93 1.888q-.715 1.214-.714 2.742 0 1.529.713 2.742a5.1 5.1 0 0 0 1.931 1.895 5.4 5.4 0 0 0 2.677.684Zm0-2.675q-1.119 0-1.75-.713-.632-.713-.632-1.933 0-1.235.632-1.948.631-.712 1.75-.712 1.1 0 1.742.712.639.713.64 1.948-.001 1.206-.64 1.925-.642.721-1.742.721ZM59.53 290.498h-2.881v5.864l-3.837-5.864H49.93v10.363h2.88v-5.793l3.838 5.793h2.88zM65.086 300.963q1.19 0 2.066-.426t1.337-1.162a3.05 3.05 0 0 0 .464-1.66q0-.911-.464-1.507a3.3 3.3 0 0 0-1.102-.927 13 13 0 0 0-1.625-.668q-.66-.236-1-.39a2.1 2.1 0 0 1-.566-.367.67.67 0 0 1-.226-.507q-.001-.353.205-.544a.75.75 0 0 1 .53-.192q.425 0 .697.236.272.235.287.706h3.13q-.072-1.529-1.153-2.374t-2.89-.846q-1.115 0-1.998.368-.882.367-1.38 1.08-.5.713-.5 1.713 0 .984.462 1.595.462.61 1.087.926t1.639.654q.957.309 1.382.559.427.25.427.705a.66.66 0 0 1-.258.55q-.257.2-.654.2-.439 0-.72-.25t-.322-.794h-3.074q.089 1.603 1.25 2.463 1.163.86 2.97.859ZM70.29 300.86h2.881v-10.362h-2.88ZM77.698 290.498h-2.88v10.363h6.1v-2.206h-3.22zM82.035 300.86h2.88v-10.362h-2.88ZM86.518 290.498v6.012q0 1.44.566 2.439a3.7 3.7 0 0 0 1.559 1.507q.99.507 2.257.507 1.263 0 2.3-.507a3.86 3.86 0 0 0 1.638-1.514q.604-1.008.603-2.432v-6.012H92.56v6.012q0 .822-.403 1.285-.404.464-1.199.464-.793 0-1.182-.456-.39-.456-.39-1.293v-6.012zM99.91 290.498h-2.882v10.363h6.102v-2.206h-3.22zM114.98 290.498h-4.103v10.363h4.102q1.616 0 2.844-.67a4.74 4.74 0 0 0 1.896-1.844q.67-1.177.669-2.676 0-1.513-.661-2.69a4.6 4.6 0 0 0-1.89-1.83q-1.226-.654-2.858-.653Zm-.222 7.82h-1v-5.322h1q1.264 0 1.985.698.72.698.72 1.977 0 1.266-.72 1.955-.721.691-1.985.691ZM128.313 292.805v-2.308h-6.63v10.364h6.63v-2.309h-3.75v-1.866h3.308v-2.191h-3.307v-1.69zM143.485 300.86h3.042l-3.763-10.362h-3.322l-3.778 10.363h3.028l.56-1.69h3.674zm-3.499-3.896 1.103-3.35 1.117 3.35zM151.57 290.498h-4.102v10.363h4.102q1.616 0 2.844-.67a4.74 4.74 0 0 0 1.896-1.844q.67-1.177.67-2.676-.001-1.513-.662-2.69a4.6 4.6 0 0 0-1.89-1.83q-1.227-.654-2.858-.653Zm-.222 7.82h-.999v-5.322h1q1.264 0 1.985.698.72.698.72 1.977 0 1.266-.72 1.955-.72.691-1.986.691ZM166.902 290.498l-2.543 6.732-2.603-6.732h-3.483v10.363h2.88v-5.763l1.97 5.763h2.412l1.954-5.72v5.72h2.881v-10.363zM172.017 300.86h2.881v-10.362h-2.88ZM186.143 290.498h-2.881v5.864l-3.838-5.864h-2.88v10.363h2.88v-5.793l3.838 5.793h2.88zM187.789 300.86h2.88v-10.362h-2.88ZM196.226 300.963q1.19 0 2.066-.426t1.337-1.162q.464-.734.463-1.66.001-.911-.463-1.507a3.3 3.3 0 0 0-1.101-.927 13 13 0 0 0-1.626-.668q-.66-.236-.998-.39a2.1 2.1 0 0 1-.568-.367.67.67 0 0 1-.226-.507q-.001-.353.206-.544a.75.75 0 0 1 .529-.192q.426 0 .697.236.273.235.288.706h3.13q-.073-1.529-1.154-2.374t-2.888-.846q-1.117 0-1.999.368-.882.367-1.382 1.08t-.5 1.713q0 .984.463 1.595.462.61 1.087.926t1.64.654q.956.309 1.382.559t.426.705a.65.65 0 0 1-.258.55q-.256.2-.653.2-.44 0-.72-.25t-.323-.794h-3.074q.09 1.603 1.25 2.463 1.162.86 2.97.859ZM200.857 290.498v2.293h2.734v8.07h2.881v-8.07h2.765v-2.293zM218.777 300.86l-2.338-4.043q1.117-.337 1.698-1.139.58-.8.58-1.858a3.3 3.3 0 0 0-.44-1.699q-.44-.757-1.309-1.19-.867-.434-2.117-.433h-4.542v10.363h2.881v-3.823h.31l2.057 3.823zm-5.587-7.952h1.426q.574 0 .876.287.3.285.301.785 0 .532-.294.81-.295.279-.883.279h-1.426zM227.142 300.86h3.04l-3.762-10.362h-3.322l-3.778 10.363h3.028l.56-1.69h3.674zm-3.5-3.896 1.104-3.35 1.116 3.35zM230.552 290.498v2.293h2.733v8.07h2.881v-8.07h2.765v-2.293zm5.219 10.921h-2.103v1.984h.985v.192q0 1.044-.78 1.045v1.042q1.102 0 1.661-.662.559-.66.559-1.75 0-.954-.322-1.85ZM240.002 300.86h2.881v-10.362h-2.88ZM251.16 292.805v-2.308h-6.629v10.364h6.629v-2.309h-3.749v-1.866h3.31v-2.191h-3.31v-1.69z"/><use xlink:href="#c" fill="#043c53" transform="matrix(11.7599 0 0 -11.7599 251.764 300.86)"/><use xlink:href="#ae" fill="#043c53" data-text="-" transform="matrix(11.7599 0 0 -11.7599 258.984 300.86)"/><use xlink:href="#af" fill="#043c53" transform="matrix(11.7599 0 0 -11.7599 265.84 300.86)"/><use xlink:href="#t" fill="#043c53" data-text="o" transform="matrix(11.7599 0 0 -11.7599 26.397 314.584)"/><use xlink:href="#u" fill="#043c53" data-text="r" transform="matrix(11.7599 0 0 -11.7599 33.9 314.584)"/><use xlink:href="#X" fill="#043c53" data-text="g" transform="matrix(11.7599 0 0 -11.7599 38.651 314.584)"/><use xlink:href="#j" fill="#043c53" data-text="a" transform="matrix(11.7599 0 0 -11.7599 46.624 314.584)"/><use xlink:href="#o" fill="#043c53" data-text="n" transform="matrix(11.7599 0 0 -11.7599 54.598 314.584)"/><use xlink:href="#h" fill="#043c53" transform="matrix(11.7599 0 0 -11.7599 62.37 314.584)"/><use xlink:href="#l" fill="#043c53" data-text="d" transform="matrix(11.7599 0 0 -11.7599 65.01 314.584)"/><use xlink:href="#m" fill="#043c53" data-text="e" transform="matrix(11.7599 0 0 -11.7599 72.983 314.584)"/><use xlink:href="#h" fill="#043c53" transform="matrix(11.7599 0 0 -11.7599 80.239 314.584)"/><use xlink:href="#e" fill="#043c53" data-text="c" transform="matrix(11.7599 0 0 -11.7599 82.878 314.584)"/><use xlink:href="#t" fill="#043c53" data-text="o" transform="matrix(11.7599 0 0 -11.7599 89.957 314.584)"/><use xlink:href="#o" fill="#043c53" data-text="n" transform="matrix(11.7599 0 0 -11.7599 97.46 314.584)"/><use xlink:href="#l" fill="#043c53" data-text="d" transform="matrix(11.7599 0 0 -11.7599 105.233 314.584)"/><use xlink:href="#f" fill="#043c53" data-text="u" transform="matrix(11.7599 0 0 -11.7599 113.206 314.584)"/><use xlink:href="#e" fill="#043c53" data-text="c" transform="matrix(11.7599 0 0 -11.7599 120.98 314.584)"/><use xlink:href="#m" fill="#043c53" data-text="e" transform="matrix(11.7599 0 0 -11.7599 128.059 314.584)"/><use xlink:href="#u" fill="#043c53" data-text="r" transform="matrix(11.7599 0 0 -11.7599 135.315 314.584)"/><use xlink:href="#m" fill="#043c53" data-text="e" transform="matrix(11.7599 0 0 -11.7599 140.066 314.584)"/><use xlink:href="#h" fill="#043c53" transform="matrix(11.7599 0 0 -11.7599 147.322 314.584)"/><use xlink:href="#e" fill="#043c53" data-text="c" transform="matrix(11.7599 0 0 -11.7599 149.96 314.584)"/><use xlink:href="#j" fill="#043c53" data-text="a" transform="matrix(11.7599 0 0 -11.7599 157.04 314.584)"/><use xlink:href="#u" fill="#043c53" data-text="r" transform="matrix(11.7599 0 0 -11.7599 165.013 314.584)"/><use xlink:href="#m" fill="#043c53" data-text="e" transform="matrix(11.7599 0 0 -11.7599 169.764 314.584)"/><use xlink:href="#h" fill="#043c53" transform="matrix(11.7599 0 0 -11.7599 177.02 314.584)"/><use xlink:href="#j" fill="#043c53" data-text="a" transform="matrix(11.7599 0 0 -11.7599 179.66 314.584)"/><use xlink:href="#q" fill="#043c53" data-text="s" transform="matrix(11.7599 0 0 -11.7599 187.634 314.584)"/><use xlink:href="#k" fill="#043c53" data-text="i" transform="matrix(11.7599 0 0 -11.7599 194.043 314.584)"/><use xlink:href="#q" fill="#043c53" data-text="s" transform="matrix(11.7599 0 0 -11.7599 197.312 314.584)"/><use xlink:href="#p" fill="#043c53" data-text="t" transform="matrix(11.7599 0 0 -11.7599 203.721 314.584)"/><use xlink:href="#i" fill="#043c53" data-text="ă" transform="matrix(11.7599 0 0 -11.7599 208.284 314.584)"/><use xlink:href="#h" fill="#043c53" transform="matrix(11.7599 0 0 -11.7599 216.257 314.584)"/><use xlink:href="#u" fill="#043c53" data-text="r" transform="matrix(11.7599 0 0 -11.7599 218.897 314.584)"/><use xlink:href="#m" fill="#043c53" data-text="e" transform="matrix(11.7599 0 0 -11.7599 223.648 314.584)"/><use xlink:href="#e" fill="#043c53" data-text="c" transform="matrix(11.7599 0 0 -11.7599 230.904 314.584)"/><use xlink:href="#p" fill="#043c53" data-text="t" transform="matrix(11.7599 0 0 -11.7599 237.983 314.584)"/><use xlink:href="#t" fill="#043c53" data-text="o" transform="matrix(11.7599 0 0 -11.7599 242.546 314.584)"/><use xlink:href="#u" fill="#043c53" data-text="r" transform="matrix(11.7599 0 0 -11.7599 250.05 314.584)"/><use xlink:href="#f" fill="#043c53" data-text="u" transform="matrix(11.7599 0 0 -11.7599 254.8 314.584)"/><use xlink:href="#w" fill="#043c53" data-text="l" transform="matrix(11.7599 0 0 -11.7599 262.573 314.584)"/><use xlink:href="#h" fill="#043c53" transform="matrix(11.7599 0 0 -11.7599 265.843 314.584)"/><use xlink:href="#av" fill="#043c53" data-text="î" transform="matrix(11.7599 0 0 -11.7599 26.397 328.308)"/><use xlink:href="#o" fill="#043c53" data-text="n" transform="matrix(11.7599 0 0 -11.7599 29.808 328.308)"/><use xlink:href="#h" fill="#043c53" transform="matrix(11.7599 0 0 -11.7599 37.581 328.308)"/><use xlink:href="#w" fill="#043c53" data-text="l" transform="matrix(11.7599 0 0 -11.7599 40.38 328.308)"/><use xlink:href="#f" fill="#043c53" data-text="u" transform="matrix(11.7599 0 0 -11.7599 43.65 328.308)"/><use xlink:href="#j" fill="#043c53" data-text="a" transform="matrix(11.7599 0 0 -11.7599 51.422 328.308)"/><use xlink:href="#u" fill="#043c53" data-text="r" transform="matrix(11.7599 0 0 -11.7599 59.396 328.308)"/><use xlink:href="#m" fill="#043c53" data-text="e" transform="matrix(11.7599 0 0 -11.7599 64.147 328.308)"/><use xlink:href="#j" fill="#043c53" data-text="a" transform="matrix(11.7599 0 0 -11.7599 71.403 328.308)"/><use xlink:href="#h" fill="#043c53" transform="matrix(11.7599 0 0 -11.7599 79.376 328.308)"/><use xlink:href="#l" fill="#043c53" data-text="d" transform="matrix(11.7599 0 0 -11.7599 82.175 328.308)"/><use xlink:href="#m" fill="#043c53" data-text="e" transform="matrix(11.7599 0 0 -11.7599 90.148 328.308)"/><use xlink:href="#e" fill="#043c53" data-text="c" transform="matrix(11.7599 0 0 -11.7599 97.404 328.308)"/><use xlink:href="#k" fill="#043c53" data-text="i" transform="matrix(11.7599 0 0 -11.7599 104.483 328.308)"/><use xlink:href="#y" fill="#043c53" data-text="z" transform="matrix(11.7599 0 0 -11.7599 107.752 328.308)"/><use xlink:href="#k" fill="#043c53" data-text="i" transform="matrix(11.7599 0 0 -11.7599 113.432 328.308)"/><use xlink:href="#k" fill="#043c53" data-text="i" transform="matrix(11.7599 0 0 -11.7599 116.702 328.308)"/><use xlink:href="#w" fill="#043c53" data-text="l" transform="matrix(11.7599 0 0 -11.7599 119.97 328.308)"/><use xlink:href="#t" fill="#043c53" data-text="o" transform="matrix(11.7599 0 0 -11.7599 123.24 328.308)"/><use xlink:href="#u" fill="#043c53" data-text="r" transform="matrix(11.7599 0 0 -11.7599 130.743 328.308)"/><use xlink:href="#h" fill="#043c53" transform="matrix(11.7599 0 0 -11.7599 135.494 328.308)"/><use xlink:href="#q" fill="#043c53" data-text="s" transform="matrix(11.7599 0 0 -11.7599 138.293 328.308)"/><use xlink:href="#p" fill="#043c53" data-text="t" transform="matrix(11.7599 0 0 -11.7599 144.702 328.308)"/><use xlink:href="#u" fill="#043c53" data-text="r" transform="matrix(11.7599 0 0 -11.7599 149.265 328.308)"/><use xlink:href="#j" fill="#043c53" data-text="a" transform="matrix(11.7599 0 0 -11.7599 154.016 328.308)"/><use xlink:href="#p" fill="#043c53" data-text="t" transform="matrix(11.7599 0 0 -11.7599 161.989 328.308)"/><use xlink:href="#m" fill="#043c53" data-text="e" transform="matrix(11.7599 0 0 -11.7599 166.552 328.308)"/><use xlink:href="#X" fill="#043c53" data-text="g" transform="matrix(11.7599 0 0 -11.7599 173.808 328.308)"/><use xlink:href="#k" fill="#043c53" data-text="i" transform="matrix(11.7599 0 0 -11.7599 181.78 328.308)"/><use xlink:href="#e" fill="#043c53" data-text="c" transform="matrix(11.7599 0 0 -11.7599 185.05 328.308)"/><use xlink:href="#m" fill="#043c53" data-text="e" transform="matrix(11.7599 0 0 -11.7599 192.13 328.308)"/><use xlink:href="#Y" fill="#085bdb" data-text="P" transform="matrix(14.69986 0 0 -14.69986 26.397 355.74)"/><use xlink:href="#Q" fill="#085bdb" data-text="E" transform="matrix(14.69986 0 0 -14.69986 35.746 355.74)"/><use xlink:href="#P" fill="#085bdb" data-text="R" transform="matrix(14.69986 0 0 -14.69986 43.802 355.74)"/><use xlink:href="#aw" fill="#085bdb" data-text="S" transform="matrix(14.69986 0 0 -14.69986 53.518 355.74)"/><use xlink:href="#T" fill="#085bdb" data-text="O" transform="matrix(14.69986 0 0 -14.69986 62.632 355.74)"/><use xlink:href="#ac" fill="#085bdb" data-text="N" transform="matrix(14.69986 0 0 -14.69986 74.2 355.74)"/><use xlink:href="#ab" fill="#085bdb" data-text="A" transform="matrix(14.69986 0 0 -14.69986 85.446 355.74)"/><use xlink:href="#ax" fill="#085bdb" data-text="L" transform="matrix(14.69986 0 0 -14.69986 96.545 355.74)"/><use xlink:href="#U" fill="#085bdb" transform="matrix(14.69986 0 0 -14.69986 103.762 355.74)"/><use xlink:href="#ab" fill="#085bdb" data-text="A" transform="matrix(14.69986 0 0 -14.69986 121.035 355.74)"/><use xlink:href="#aa" fill="#085bdb" data-text="D" transform="matrix(14.69986 0 0 -14.69986 132.133 355.74)"/><use xlink:href="#ad" fill="#085bdb" data-text="M" transform="matrix(14.69986 0 0 -14.69986 142.937 355.74)"/><use xlink:href="#Z" fill="#085bdb" data-text="I" transform="matrix(14.69986 0 0 -14.69986 156.682 355.74)"/><use xlink:href="#ac" fill="#085bdb" data-text="N" transform="matrix(14.69986 0 0 -14.69986 161.21 355.74)"/><use xlink:href="#Z" fill="#085bdb" data-text="I" transform="matrix(14.69986 0 0 -14.69986 172.455 355.74)"/><use xlink:href="#aw" fill="#085bdb" data-text="S" transform="matrix(14.69986 0 0 -14.69986 176.982 355.74)"/><use xlink:href="#S" fill="#085bdb" data-text="T" transform="matrix(14.69986 0 0 -14.69986 186.096 355.74)"/><use xlink:href="#P" fill="#085bdb" data-text="R" transform="matrix(14.69986 0 0 -14.69986 194.975 355.74)"/><use xlink:href="#ab" fill="#085bdb" data-text="A" transform="matrix(14.69986 0 0 -14.69986 204.692 355.74)"/><use xlink:href="#S" fill="#085bdb" data-text="T" transform="matrix(14.69986 0 0 -14.69986 215.79 355.74)"/><use xlink:href="#Z" fill="#085bdb" data-text="I" transform="matrix(14.69986 0 0 -14.69986 224.669 355.74)"/><use xlink:href="#ay" fill="#085bdb" data-text="V" transform="matrix(14.69986 0 0 -14.69986 229.196 355.74)"/><path fill="none" stroke="#085bdb" stroke-miterlimit="10" stroke-width=".25008" d="M35.408 348.83q0-1.012-.44-1.792-.443-.78-1.316-1.221-.876-.441-2.125-.44H27.22v10.362h2.881v-3.498h1.426q1.264 0 2.14-.463.874-.463 1.307-1.234a3.44 3.44 0 0 0 .434-1.713Zm-4.16 1.118H30.1v-2.25h1.146q1.221 0 1.222 1.133 0 1.116-1.222 1.117ZM43.199 347.684v-2.308h-6.63v10.364h6.63v-2.308h-3.75v-1.867h3.309v-2.191H39.45v-1.69zM53.091 355.74l-2.337-4.043q1.117-.337 1.699-1.14.579-.8.579-1.858a3.3 3.3 0 0 0-.44-1.698q-.441-.758-1.308-1.191-.869-.434-2.117-.433h-4.542v10.362h2.88v-3.82h.309l2.059 3.82zm-5.586-7.953h1.426q.574 0 .875.286.302.288.302.787-.001.529-.293.81-.296.278-.884.278h-1.426zM58.251 355.842q1.19 0 2.065-.426.875-.425 1.338-1.16.464-.737.463-1.662.001-.91-.463-1.506a3.3 3.3 0 0 0-1.101-.928q-.641-.329-1.625-.668a14 14 0 0 1-1-.388 2.2 2.2 0 0 1-.567-.369.67.67 0 0 1-.226-.507q0-.353.206-.544a.75.75 0 0 1 .528-.192q.427 0 .699.237.271.234.287.705h3.13q-.074-1.53-1.154-2.373-1.082-.847-2.888-.847-1.118 0-2 .368-.881.367-1.38 1.08-.501.715-.5 1.713 0 .984.462 1.595.462.61 1.088.926.624.316 1.639.655.955.308 1.382.558.425.25.426.705a.66.66 0 0 1-.258.552q-.256.197-.653.198-.441 0-.72-.25-.28-.249-.324-.794h-3.073q.09 1.603 1.249 2.464 1.163.859 2.97.858ZM68.424 355.842q1.454 0 2.675-.684a5.03 5.03 0 0 0 1.926-1.895q.706-1.214.706-2.742t-.706-2.742a5 5 0 0 0-1.918-1.888 5.4 5.4 0 0 0-2.683-.677 5.43 5.43 0 0 0-2.676.677 5.03 5.03 0 0 0-1.932 1.888q-.712 1.214-.712 2.742 0 1.53.712 2.742a5.1 5.1 0 0 0 1.932 1.895 5.4 5.4 0 0 0 2.676.684Zm0-2.675q-1.118.001-1.749-.713-.632-.713-.632-1.933 0-1.235.632-1.948t1.749-.712q1.101 0 1.742.712.639.713.639 1.948 0 1.206-.639 1.925-.64.72-1.742.72ZM84.623 345.376H81.74v5.865l-3.837-5.865h-2.88v10.363h2.88v-5.791l3.837 5.791h2.882zM93.384 355.74h3.042l-3.763-10.363H89.34l-3.778 10.362h3.028l.559-1.689h3.675zm-3.5-3.896 1.104-3.352 1.117 3.352zM100.248 345.376h-2.881v10.363h6.101v-2.205h-3.22zM128.973 355.74h3.042l-3.763-10.363h-3.323l-3.778 10.362h3.028l.56-1.689h3.675zm-3.5-3.896 1.103-3.352 1.118 3.352zM137.057 345.376h-4.102v10.363h4.102q1.615 0 2.844-.668a4.74 4.74 0 0 0 1.896-1.844q.67-1.177.669-2.677 0-1.513-.661-2.69a4.6 4.6 0 0 0-1.89-1.83q-1.226-.653-2.858-.654Zm-.22 7.82h-1.001v-5.32h1q1.264-.001 1.985.697.72.699.72 1.977 0 1.267-.72 1.956-.721.69-1.985.69ZM152.39 345.376l-2.544 6.732-2.603-6.732h-3.483v10.363h2.881v-5.761l1.97 5.761h2.411l1.955-5.718v5.718h2.88v-10.363zM157.504 355.74h2.88v-10.363h-2.88ZM171.63 345.376h-2.88v5.865l-3.838-5.865h-2.88v10.363h2.88v-5.791l3.837 5.791h2.881zM173.276 355.74h2.881v-10.363h-2.88ZM181.714 355.842q1.19 0 2.065-.426.875-.425 1.338-1.16.464-.737.463-1.662 0-.91-.463-1.506a3.3 3.3 0 0 0-1.102-.928q-.64-.329-1.625-.668-.66-.236-.999-.388a2.1 2.1 0 0 1-.567-.369.67.67 0 0 1-.227-.507q0-.353.206-.544a.75.75 0 0 1 .53-.192q.425 0 .697.237.271.234.287.705h3.13q-.073-1.53-1.153-2.373-1.082-.847-2.889-.847-1.116 0-2 .368-.88.367-1.38 1.08-.5.715-.5 1.713 0 .984.462 1.595.462.61 1.088.926.624.316 1.64.655.955.308 1.381.558t.427.705a.66.66 0 0 1-.258.552q-.257.197-.654.198-.44 0-.72-.25-.28-.249-.323-.794h-3.073q.089 1.603 1.249 2.464 1.162.859 2.97.858ZM186.345 345.376v2.293h2.734v8.07h2.88v-8.07h2.764v-2.293zM204.263 355.74l-2.336-4.043q1.116-.337 1.698-1.14.58-.8.58-1.858 0-.941-.44-1.698-.441-.758-1.31-1.191-.867-.434-2.116-.433h-4.542v10.362h2.88v-3.82h.31l2.058 3.82zm-5.585-7.953h1.426q.574 0 .874.286.303.288.302.787 0 .529-.293.81-.296.278-.883.278h-1.426zM212.629 355.74h3.042l-3.763-10.363h-3.322l-3.778 10.362h3.028l.559-1.689h3.675zm-3.5-3.896 1.104-3.352 1.117 3.352zM216.04 345.376v2.293h2.733v8.07h2.88v-8.07h2.764v-2.293zM225.49 355.74h2.882v-10.363h-2.881ZM237.03 345.376l-2.337 7.482-2.352-7.482h-3.087l3.587 10.363h3.689l3.57-10.363z"/><use xlink:href="#c" fill="#043c53" transform="matrix(11.7599 0 0 -11.7599 240.176 355.74)"/><use xlink:href="#ae" fill="#043c53" data-text="-" transform="matrix(11.7599 0 0 -11.7599 258.991 355.74)"/><use xlink:href="#af" fill="#043c53" transform="matrix(11.7599 0 0 -11.7599 265.847 355.74)"/><use xlink:href="#u" fill="#043c53" data-text="r" transform="matrix(11.7599 0 0 -11.7599 26.404 369.463)"/><use xlink:href="#m" fill="#043c53" data-text="e" transform="matrix(11.7599 0 0 -11.7599 31.155 369.463)"/><use xlink:href="#q" fill="#043c53" data-text="s" transform="matrix(11.7599 0 0 -11.7599 38.411 369.463)"/><use xlink:href="#x" fill="#043c53" data-text="p" transform="matrix(11.7599 0 0 -11.7599 44.82 369.463)"/><use xlink:href="#t" fill="#043c53" data-text="o" transform="matrix(11.7599 0 0 -11.7599 52.794 369.463)"/><use xlink:href="#o" fill="#043c53" data-text="n" transform="matrix(11.7599 0 0 -11.7599 60.296 369.463)"/><use xlink:href="#q" fill="#043c53" data-text="s" transform="matrix(11.7599 0 0 -11.7599 68.07 369.463)"/><use xlink:href="#j" fill="#043c53" data-text="a" transform="matrix(11.7599 0 0 -11.7599 74.479 369.463)"/><use xlink:href="#W" fill="#043c53" data-text="b" transform="matrix(11.7599 0 0 -11.7599 82.452 369.463)"/><use xlink:href="#k" fill="#043c53" data-text="i" transform="matrix(11.7599 0 0 -11.7599 90.425 369.463)"/><use xlink:href="#w" fill="#043c53" data-text="l" transform="matrix(11.7599 0 0 -11.7599 93.694 369.463)"/><use xlink:href="#k" fill="#043c53" data-text="i" transform="matrix(11.7599 0 0 -11.7599 96.964 369.463)"/><use xlink:href="#h" fill="#043c53" transform="matrix(11.7599 0 0 -11.7599 100.233 369.463)"/><use xlink:href="#e" fill="#043c53" data-text="c" transform="matrix(11.7599 0 0 -11.7599 106.213 369.463)"/><use xlink:href="#f" fill="#043c53" data-text="u" transform="matrix(11.7599 0 0 -11.7599 113.292 369.463)"/><use xlink:href="#h" fill="#043c53" transform="matrix(11.7599 0 0 -11.7599 121.066 369.463)"/><use xlink:href="#X" fill="#043c53" data-text="g" transform="matrix(11.7599 0 0 -11.7599 127.044 369.463)"/><use xlink:href="#m" fill="#043c53" data-text="e" transform="matrix(11.7599 0 0 -11.7599 135.017 369.463)"/><use xlink:href="#q" fill="#043c53" data-text="s" transform="matrix(11.7599 0 0 -11.7599 142.273 369.463)"/><use xlink:href="#p" fill="#043c53" data-text="t" transform="matrix(11.7599 0 0 -11.7599 148.682 369.463)"/><use xlink:href="#k" fill="#043c53" data-text="i" transform="matrix(11.7599 0 0 -11.7599 153.245 369.463)"/><use xlink:href="#t" fill="#043c53" data-text="o" transform="matrix(11.7599 0 0 -11.7599 156.514 369.463)"/><use xlink:href="#o" fill="#043c53" data-text="n" transform="matrix(11.7599 0 0 -11.7599 164.017 369.463)"/><use xlink:href="#j" fill="#043c53" data-text="a" transform="matrix(11.7599 0 0 -11.7599 171.79 369.463)"/><use xlink:href="#u" fill="#043c53" data-text="r" transform="matrix(11.7599 0 0 -11.7599 179.764 369.463)"/><use xlink:href="#m" fill="#043c53" data-text="e" transform="matrix(11.7599 0 0 -11.7599 184.515 369.463)"/><use xlink:href="#j" fill="#043c53" data-text="a" transform="matrix(11.7599 0 0 -11.7599 191.77 369.463)"/><use xlink:href="#h" fill="#043c53" transform="matrix(11.7599 0 0 -11.7599 199.744 369.463)"/><use xlink:href="#u" fill="#043c53" data-text="r" transform="matrix(11.7599 0 0 -11.7599 205.724 369.463)"/><use xlink:href="#m" fill="#043c53" data-text="e" transform="matrix(11.7599 0 0 -11.7599 210.475 369.463)"/><use xlink:href="#q" fill="#043c53" data-text="s" transform="matrix(11.7599 0 0 -11.7599 217.73 369.463)"/><use xlink:href="#f" fill="#043c53" data-text="u" transform="matrix(11.7599 0 0 -11.7599 224.14 369.463)"/><use xlink:href="#u" fill="#043c53" data-text="r" transform="matrix(11.7599 0 0 -11.7599 231.913 369.463)"/><use xlink:href="#q" fill="#043c53" data-text="s" transform="matrix(11.7599 0 0 -11.7599 236.664 369.463)"/><use xlink:href="#m" fill="#043c53" data-text="e" transform="matrix(11.7599 0 0 -11.7599 243.073 369.463)"/><use xlink:href="#w" fill="#043c53" data-text="l" transform="matrix(11.7599 0 0 -11.7599 250.33 369.463)"/><use xlink:href="#t" fill="#043c53" data-text="o" transform="matrix(11.7599 0 0 -11.7599 253.598 369.463)"/><use xlink:href="#u" fill="#043c53" data-text="r" transform="matrix(11.7599 0 0 -11.7599 261.101 369.463)"/><use xlink:href="#h" fill="#043c53" transform="matrix(11.7599 0 0 -11.7599 265.852 369.463)"/><use xlink:href="#f" fill="#043c53" data-text="u" transform="matrix(11.7599 0 0 -11.7599 26.404 383.187)"/><use xlink:href="#o" fill="#043c53" data-text="n" transform="matrix(11.7599 0 0 -11.7599 34.178 383.187)"/><use xlink:href="#k" fill="#043c53" data-text="i" transform="matrix(11.7599 0 0 -11.7599 41.95 383.187)"/><use xlink:href="#n" fill="#043c53" data-text="v" transform="matrix(11.7599 0 0 -11.7599 45.22 383.187)"/><use xlink:href="#m" fill="#043c53" data-text="e" transform="matrix(11.7599 0 0 -11.7599 52.264 383.187)"/><use xlink:href="#u" fill="#043c53" data-text="r" transform="matrix(11.7599 0 0 -11.7599 59.52 383.187)"/><use xlink:href="#q" fill="#043c53" data-text="s" transform="matrix(11.7599 0 0 -11.7599 64.271 383.187)"/><use xlink:href="#k" fill="#043c53" data-text="i" transform="matrix(11.7599 0 0 -11.7599 70.68 383.187)"/><use xlink:href="#p" fill="#043c53" data-text="t" transform="matrix(11.7599 0 0 -11.7599 73.95 383.187)"/><use xlink:href="#i" fill="#043c53" data-text="ă" transform="matrix(11.7599 0 0 -11.7599 78.512 383.187)"/><use xlink:href="#v" fill="#043c53" data-text="ț" transform="matrix(11.7599 0 0 -11.7599 86.486 383.187)"/><use xlink:href="#k" fill="#043c53" data-text="i" transform="matrix(11.7599 0 0 -11.7599 91.048 383.187)"/><use xlink:href="#k" fill="#043c53" data-text="i" transform="matrix(11.7599 0 0 -11.7599 94.318 383.187)"/><use xlink:href="#az" fill="#043c53" data-text="7" transform="matrix(14.69986 0 0 -14.69986 256.735 394.319)"/></g></svg>