<svg xmlns="http://www.w3.org/2000/svg" xmlns:xlink="http://www.w3.org/1999/xlink" width="297.636" height="419.526"><defs><path id="b" d="M0 0"/><path id="c" d="M.313.698A.4.4 0 0 0 .507.655.3.3 0 0 0 .635.533.37.37 0 0 0 .681.348.36.36 0 0 0 .635.165.3.3 0 0 0 .507.043.4.4 0 0 0 .313 0H.069v.698zM.308.12q.11 0 .17.06t.06.17q0 .108-.06.17-.06.06-.17.061H.209V.12z"/><path id="d" d="M.584.29A.3.3 0 0 0 .58.234H.175A.14.14 0 0 1 .217.141.13.13 0 0 1 .308.107q.078 0 .111.067H.57A.25.25 0 0 0 .478.043.27.27 0 0 0 .311-.01a.3.3 0 0 0-.144.036.25.25 0 0 0-.099.1.3.3 0 0 0-.035.15q0 .087.035.151a.24.24 0 0 0 .098.1q.063.036.145.035.08 0 .141-.034A.24.24 0 0 0 .55.433.3.3 0 0 0 .584.289M.439.33A.11.11 0 0 1 .4.416a.14.14 0 0 1-.093.032.13.13 0 0 1-.088-.031.14.14 0 0 1-.043-.088z"/><path id="e" d="M.033.28q0 .083.033.148a.242.242 0 0 0 .22.135.23.23 0 0 0 .183-.088v.08h.14V0H.47v.081A.2.2 0 0 0 .394.017a.23.23 0 0 0-.11-.026.24.24 0 0 0-.127.036.25.25 0 0 0-.09.102.3.3 0 0 0-.034.15M.469.277a.2.2 0 0 1-.02.088.14.14 0 0 1-.127.075.14.14 0 0 1-.126-.074.2.2 0 0 1-.02-.087.2.2 0 0 1 .02-.087A.15.15 0 0 1 .25.134.144.144 0 0 1 .448.19a.2.2 0 0 1 .02.087"/><path id="f" d="M.281-.009A.3.3 0 0 0 .16.016a.2.2 0 0 0-.085.066.17.17 0 0 0-.035.093h.14A.08.08 0 0 1 .212.122.1.1 0 0 1 .28.102q.04 0 .063.015.022.016.022.041 0 .027-.027.04a.5.5 0 0 1-.088.03A1 1 0 0 0 .148.26.2.2 0 0 0 .08.31a.13.13 0 0 0-.028.088q0 .046.026.084a.2.2 0 0 0 .076.06.3.3 0 0 0 .117.022.24.24 0 0 0 .158-.05A.18.18 0 0 0 .494.38H.36a.07.07 0 0 1-.028.053.1.1 0 0 1-.065.02.1.1 0 0 1-.059-.015A.05.05 0 0 1 .188.4q0-.029.028-.042a.4.4 0 0 1 .087-.03q.06-.015.099-.03A.2.2 0 0 0 .47.246.14.14 0 0 0 .499.158.15.15 0 0 0 .473.072a.2.2 0 0 0-.076-.06.3.3 0 0 0-.116-.02"/><path id="g" d="M.757.562Q.859.562.92.499A.24.24 0 0 0 .984.325V0h-.14v.306q0 .065-.033.1A.12.12 0 0 1 .72.44.12.12 0 0 1 .63.406Q.596.37.596.306V0h-.14v.306q0 .065-.033.1a.12.12 0 0 1-.09.034.12.12 0 0 1-.092-.034Q.21.37.21.306V0h-.14v.554h.14V.487a.2.2 0 0 0 .07.055q.042.02.093.02A.24.24 0 0 0 .488.535.2.2 0 0 0 .567.456a.2.2 0 0 0 .078.077q.052.03.112.029"/><path id="h" d="M.376.562q.1 0 .16-.063A.24.24 0 0 0 .597.325V0h-.14v.306q0 .066-.033.101a.12.12 0 0 1-.09.036.12.12 0 0 1-.092-.036Q.21.372.21.306V0h-.14v.554h.14V.485a.2.2 0 0 0 .072.056q.043.021.095.021"/><path id="i" d="m.222.147-.117-.28h-.09l.065.28z"/><path id="j" d="M.035.35q0 .103.046.185a.33.33 0 0 0 .127.127.36.36 0 0 0 .181.045q.117 0 .205-.06.089-.06.123-.166H.556a.17.17 0 0 1-.068.075.2.2 0 0 1-.1.025.194.194 0 0 1-.183-.109A.3.3 0 0 1 .18.35q0-.069.026-.121a.19.19 0 0 1 .183-.11q.057 0 .1.026A.17.17 0 0 1 .556.22h.161A.3.3 0 0 0 .594.054a.36.36 0 0 0-.205-.06.36.36 0 0 0-.18.046.33.33 0 0 0-.128.126.36.36 0 0 0-.046.184"/><path id="k" d="M.209.74V0h-.14v.74z"/><path id="l" d="M.592.554V0h-.14v.07A.2.2 0 0 0 .38.014a.2.2 0 0 0-.095-.02.24.24 0 0 0-.115.027.2.2 0 0 0-.078.08.3.3 0 0 0-.029.128v.325h.14V.25q0-.066.033-.101a.12.12 0 0 1 .09-.036q.059 0 .091.036.033.035.033.101v.305z"/><path id="m" d="M.14.62a.1.1 0 0 0-.062.024.08.08 0 0 0-.024.058q0 .035.024.059a.1.1 0 0 0 .063.023A.08.08 0 0 0 .2.761.08.08 0 0 0 .227.702.08.08 0 0 0 .202.644.08.08 0 0 0 .14.62M.21-.09q0-.093-.046-.133-.045-.04-.13-.04h-.062v.118h.04q.032 0 .045.013t.013.04v.646h.14z"/><path id="n" d="M.033.28q0 .083.033.148A.245.245 0 0 0 .39.54.2.2 0 0 0 .468.477V.74H.61V0H.468v.082A.2.2 0 0 0 .395.016a.23.23 0 0 0-.11-.025.24.24 0 0 0-.127.036.25.25 0 0 0-.092.102.3.3 0 0 0-.033.15M.469.277a.2.2 0 0 1-.02.088.14.14 0 0 1-.127.075.14.14 0 0 1-.126-.074.2.2 0 0 1-.02-.087.2.2 0 0 1 .02-.087A.15.15 0 0 1 .25.134.144.144 0 0 1 .448.19a.2.2 0 0 1 .02.087"/><path id="o" d="M.14.62a.09.09 0 0 0-.062.024.08.08 0 0 0-.024.058q0 .035.024.059A.09.09 0 0 0 .14.784.09.09 0 0 0 .2.761.08.08 0 0 0 .226.702.08.08 0 0 0 .2.644.09.09 0 0 0 .14.62M.209.554V0h-.14v.554z"/><path id="p" d="M.209.474a.226.226 0 0 0 .183.089.24.24 0 0 0 .22-.135.3.3 0 0 0 .033-.15.3.3 0 0 0-.034-.15.25.25 0 0 0-.09-.101.24.24 0 0 0-.129-.036.22.22 0 0 0-.183.088v-.343h-.14v.818h.14zM.502.279a.2.2 0 0 1-.02.086.14.14 0 0 1-.127.075A.145.145 0 0 1 .23.364.2.2 0 0 1 .208.277q0-.051.02-.087A.14.14 0 0 1 .355.114q.039 0 .072.02.034.02.054.057.021.037.021.088"/><path id="q" d="M.315-.009a.3.3 0 0 0-.144.036.26.26 0 0 0-.1.1.3.3 0 0 0-.037.15q0 .086.037.15a.26.26 0 0 0 .103.1.3.3 0 0 0 .145.036.3.3 0 0 0 .145-.035.26.26 0 0 0 .102-.1.3.3 0 0 0 .038-.15.3.3 0 0 0-.039-.15.27.27 0 0 0-.104-.101.3.3 0 0 0-.146-.036m0 .122q.039 0 .071.019Q.42.15.44.187t.02.09Q.46.357.418.4A.14.14 0 0 1 .317.44.13.13 0 0 1 .217.4Q.174.357.175.277q0-.078.04-.121A.13.13 0 0 1 .314.113"/><path id="r" d="M.028.28q0 .086.036.151a.25.25 0 0 0 .099.1q.063.035.145.035.105 0 .176-.055A.26.26 0 0 0 .576.356H.394Q.371.42.305.42A.09.09 0 0 1 .23.383.17.17 0 0 1 .202.28q0-.068.028-.104A.09.09 0 0 1 .305.138q.066 0 .09.064h.181A.26.26 0 0 0 .483.048a.27.27 0 0 0-.175-.056.3.3 0 0 0-.145.035.25.25 0 0 0-.1.1.3.3 0 0 0-.035.152"/><path id="s" d="M.612.558V0h-.17v.076A.2.2 0 0 0 .37.016a.2.2 0 0 0-.098-.022.2.2 0 0 0-.113.028.2.2 0 0 0-.076.083.3.3 0 0 0-.027.127v.326h.17V.255Q.227.2.256.168A.1.1 0 0 1 .334.137q.05 0 .078.031.03.03.03.087v.303z"/><path id="t" d="M.233.74V0h-.17v.74z"/><path id="u" d="M.373.145V0H.286a.2.2 0 0 0-.145.046Q.09.09.09.194v.222H.021v.142H.09v.136H.26V.558h.112V.416H.26V.192q0-.025.012-.036t.04-.011z"/><path id="v" d="M.233.465q.03.046.075.072.045.027.1.027V.383H.361Q.298.383.265.355.234.328.233.26V0h-.17v.558h.17z"/><path id="w" d="M.028.28q0 .086.033.151a.231.231 0 0 0 .213.135q.06 0 .104-.024A.2.2 0 0 0 .446.479v.079h.17V0h-.17v.08a.2.2 0 0 0-.07-.064.2.2 0 0 0-.103-.024.23.23 0 0 0-.124.036.25.25 0 0 0-.088.1.34.34 0 0 0-.033.152m.418 0a.14.14 0 0 1-.035.1.12.12 0 0 1-.087.037.12.12 0 0 1-.086-.036.14.14 0 0 1-.036-.1q0-.065.036-.102A.12.12 0 0 1 .324.14q.051 0 .087.037A.14.14 0 0 1 .446.28m.068.492A.17.17 0 0 0 .467.644.17.17 0 0 0 .343.599.17.17 0 0 0 .22.644a.17.17 0 0 0-.047.128v.019h.085q0-.033.019-.05.02-.017.066-.017T.409.74t.019.05h.086z"/><path id="x" d="M0 0"/><path id="y" d="m.313.16.121.398h.182L.418 0H.207L.009.558h.183z"/><path id="z" d="M.028.28q0 .086.033.151a.231.231 0 0 0 .214.135q.058 0 .103-.024A.2.2 0 0 0 .446.479v.079h.171V0h-.17v.08a.2.2 0 0 0-.07-.064.2.2 0 0 0-.104-.024.23.23 0 0 0-.124.036.25.25 0 0 0-.088.1.34.34 0 0 0-.033.152m.418 0a.14.14 0 0 1-.035.1.12.12 0 0 1-.087.037.12.12 0 0 1-.086-.036.14.14 0 0 1-.036-.1q0-.065.036-.102A.12.12 0 0 1 .324.14q.051 0 .087.037A.14.14 0 0 1 .446.28"/><path id="A" d="M.148.616a.1.1 0 0 0-.073.027.09.09 0 0 0-.029.065q0 .04.029.066a.1.1 0 0 0 .073.027q.045 0 .073-.027A.09.09 0 0 0 .249.708.09.09 0 0 0 .221.643.1.1 0 0 0 .148.616M.233.558V0H.062v.558z"/><path id="B" d="M.29-.008a.3.3 0 0 0-.13.025.2.2 0 0 0-.091.069.2.2 0 0 0-.037.097h.169A.07.07 0 0 1 .228.136a.1.1 0 0 1 .06-.018q.03 0 .049.013.017.012.017.032Q.354.187.33.2a1 1 0 0 1-.08.025 1 1 0 0 0-.1.03.2.2 0 0 0-.07.049.13.13 0 0 0-.029.09q0 .048.026.088a.2.2 0 0 0 .079.062.3.3 0 0 0 .122.023q.105 0 .166-.052a.2.2 0 0 0 .07-.138H.353A.07.07 0 0 1 .33.422.1.1 0 0 1 .272.44.1.1 0 0 1 .226.428.04.04 0 0 1 .21.396Q.21.372.235.36a.4.4 0 0 1 .08-.024A1 1 0 0 0 .416.305a.2.2 0 0 0 .069-.05.14.14 0 0 0 .03-.093.15.15 0 0 0-.027-.087.2.2 0 0 0-.08-.06.3.3 0 0 0-.119-.023M.341-.04q.02-.06.02-.118A.16.16 0 0 0 .326-.27Q.29-.31.22-.31v.065q.052 0 .052.066v.016H.21v.123z"/><path id="C" d="M.316-.008A.3.3 0 0 0 .17.027a.26.26 0 0 0-.103.1.3.3 0 0 0-.038.152q0 .086.038.152.039.065.104.1a.3.3 0 0 0 .148.035.3.3 0 0 0 .148-.035.26.26 0 0 0 .104-.1.3.3 0 0 0 .038-.152A.3.3 0 0 0 .57.128a.26.26 0 0 0-.105-.1.3.3 0 0 0-.149-.036m0 .148Q.365.14.4.176.434.212.434.28T.401.382a.1.1 0 0 1-.083.036.1.1 0 0 1-.083-.036Q.202.347.202.28T.235.176A.1.1 0 0 1 .316.14"/><path id="D" d="M.289-.008a.3.3 0 0 0-.13.025.2.2 0 0 0-.09.069.2.2 0 0 0-.037.097h.169A.07.07 0 0 1 .228.136.1.1 0 0 1 .287.118q.032 0 .05.013.016.012.017.032Q.354.187.329.2a1 1 0 0 1-.081.025 1 1 0 0 0-.1.03.2.2 0 0 0-.07.049.13.13 0 0 0-.028.09q0 .048.026.088a.2.2 0 0 0 .078.062.3.3 0 0 0 .123.023q.105 0 .165-.052a.2.2 0 0 0 .07-.138H.354a.07.07 0 0 1-.026.046.1.1 0 0 1-.056.017.1.1 0 0 1-.046-.011A.04.04 0 0 1 .21.396Q.21.372.235.36a.4.4 0 0 1 .08-.024 1 1 0 0 0 .1-.031.2.2 0 0 0 .07-.05.14.14 0 0 0 .03-.093.15.15 0 0 0-.028-.087.2.2 0 0 0-.079-.06.3.3 0 0 0-.12-.023"/><path id="E" d="M.588.288.585.238H.198a.12.12 0 0 1 .033-.08.1.1 0 0 1 .073-.027q.064 0 .089.054h.182A.25.25 0 0 0 .433.017.3.3 0 0 0 .31-.008a.3.3 0 0 0-.146.035.25.25 0 0 0-.1.1.3.3 0 0 0-.036.152q0 .086.035.152a.25.25 0 0 0 .1.1.3.3 0 0 0 .147.035.3.3 0 0 0 .144-.034.24.24 0 0 0 .098-.097.3.3 0 0 0 .036-.147M.413.333q0 .045-.03.07a.1.1 0 0 1-.075.026.1.1 0 0 1-.073-.025A.1.1 0 0 1 .2.333z"/><path id="F" d="M.233.479a.2.2 0 0 0 .07.063q.045.024.102.024A.23.23 0 0 0 .62.431.33.33 0 0 0 .65.281.34.34 0 0 0 .62.128.25.25 0 0 0 .53.028a.23.23 0 0 0-.125-.036.2.2 0 0 0-.103.024.2.2 0 0 0-.069.062V0h-.17v.74h.17zM.477.28a.14.14 0 0 1-.035.1.12.12 0 0 1-.088.037A.12.12 0 0 1 .268.38a.14.14 0 0 1-.036-.1.14.14 0 0 1 .036-.102.12.12 0 0 1 .086-.037q.051 0 .087.038A.14.14 0 0 1 .477.28"/><path id="G" d="M.274.566q.06 0 .104-.024A.2.2 0 0 0 .446.479v.079h.171V.001a.3.3 0 0 0-.03-.14.23.23 0 0 0-.093-.099.3.3 0 0 0-.156-.037q-.124 0-.2.059a.22.22 0 0 0-.089.158h.17a.08.08 0 0 1 .037-.05.14.14 0 0 1 .074-.019q.053 0 .085.03.03.03.031.098v.08A.2.2 0 0 0 .377.016a.2.2 0 0 0-.103-.025.23.23 0 0 0-.125.036.25.25 0 0 0-.088.1.34.34 0 0 0-.033.152q0 .086.033.151a.231.231 0 0 0 .214.135M.445.279A.14.14 0 0 1 .411.38a.12.12 0 0 1-.087.037.12.12 0 0 1-.086-.036.14.14 0 0 1-.036-.1q0-.065.036-.102A.12.12 0 0 1 .324.14q.051 0 .087.037A.14.14 0 0 1 .446.28"/><path id="H" d="M.033.277q0 .087.035.15a.25.25 0 0 0 .097.1.3.3 0 0 0 .142.036.27.27 0 0 0 .17-.051.25.25 0 0 0 .091-.145H.417a.1.1 0 0 1-.04.057.12.12 0 0 1-.071.02.12.12 0 0 1-.095-.043.2.2 0 0 1-.035-.124.2.2 0 0 1 .035-.122A.12.12 0 0 1 .306.11q.085 0 .111.076h.151A.26.26 0 0 0 .477.044a.27.27 0 0 0-.17-.053.3.3 0 0 0-.142.036.25.25 0 0 0-.097.1.3.3 0 0 0-.035.15"/><path id="I" d="M.209.468q.027.044.07.069a.2.2 0 0 0 .1.025V.415H.342q-.066 0-.1-.031Q.21.354.21.276V0h-.14v.554h.14z"/><path id="J" d="M.232.439V.17q0-.028.014-.04T.29.117h.065V0H.268Q.091 0 .091.172v.267H.025v.115h.066V.69h.141V.554h.124V.439z"/><path id="K" d="M.033.28a.3.3 0 0 0 .033.148.242.242 0 0 0 .22.135.23.23 0 0 0 .183-.088v.08H.61V0H.469v.081A.2.2 0 0 0 .395.017a.23.23 0 0 0-.11-.026.24.24 0 0 0-.127.036.25.25 0 0 0-.092.102.3.3 0 0 0-.033.15M.469.277a.2.2 0 0 1-.02.088.14.14 0 0 1-.127.075.14.14 0 0 1-.126-.074.2.2 0 0 1-.02-.087.2.2 0 0 1 .02-.087A.15.15 0 0 1 .25.134.144.144 0 0 1 .45.19a.2.2 0 0 1 .02.087m.032.475A.15.15 0 0 0 .458.639.16.16 0 0 0 .34.6a.16.16 0 0 0-.116.04.15.15 0 0 0-.043.114v.02h.074q0-.035.019-.051Q.295.704.34.704t.066.018.019.051h.075z"/><path id="L" d="M.25.71.234.227H.116L.099.71zM.179-.007a.1.1 0 0 0-.063.024.08.08 0 0 0-.024.058q0 .035.024.059a.1.1 0 0 0 .063.023.08.08 0 0 0 .06-.023.08.08 0 0 0 .025-.059.08.08 0 0 0-.024-.058.08.08 0 0 0-.061-.024"/><path id="M" d="M0 0"/><path id="N" d="M.9.708V0H.68v.353L.57 0H.38L.273.353V0H.05v.708h.272L.478.283.63.708z"/><path id="O" d="M.267.708V.31q0-.049.021-.077.022-.03.07-.029t.07.029a.12.12 0 0 1 .024.077v.4h.22v-.4A.34.34 0 0 0 .632.137.27.27 0 0 0 .516.029a.4.4 0 0 0-.163-.036.34.34 0 0 0-.16.036.26.26 0 0 0-.108.107.36.36 0 0 0-.04.173v.4z"/><path id="P" d="M.296.177H.58V0H.05v.167l.28.365H.05v.176h.53V.541z"/><path id="Q" d="M.272.531V.444h.22V.277h-.22v-.1h.25V0H.05v.708h.472V.531z"/><path id="R" d="M.395-.007A.37.37 0 0 0 .079.17.36.36 0 0 0 .03.357a.36.36 0 0 0 .182.316.4.4 0 0 0 .183.047.37.37 0 0 0 .183-.047.35.35 0 0 0 .131-.13.36.36 0 0 0 .049-.186A.36.36 0 0 0 .709.17a.366.366 0 0 0-.314-.177m0 .207Q.461.2.497.243a.17.17 0 0 1 .036.114.17.17 0 0 1-.036.115.13.13 0 0 1-.102.043Q.328.515.292.472A.17.17 0 0 1 .256.357q0-.072.036-.114T.395.2"/><path id="S" d="M.729 0H.507L.272.356V0H.05v.708h.222L.507.346v.362h.222z"/><path id="T" d="M.495.416V.298H.071v.118z"/><path id="U" d="M.497.133H.219L.173 0H.026l.251.7H.44L.691 0H.543zM.459.245.358.537.257.245z"/><path id="V" d="M.197.115h.247V0H.038v.113L.28.439H.04v.115H.44V.44z"/><path id="W" d="M.281-.009A.3.3 0 0 0 .16.016a.2.2 0 0 0-.085.066.17.17 0 0 0-.035.093h.14A.08.08 0 0 1 .212.122.1.1 0 0 1 .28.102q.04 0 .063.015.022.016.022.041 0 .027-.027.04a.5.5 0 0 1-.088.03A1 1 0 0 0 .148.26.2.2 0 0 0 .08.31a.13.13 0 0 0-.028.088q0 .046.026.084a.2.2 0 0 0 .076.06.3.3 0 0 0 .117.022.24.24 0 0 0 .158-.05A.18.18 0 0 0 .494.38H.36a.07.07 0 0 1-.028.053.1.1 0 0 1-.065.02.1.1 0 0 1-.059-.015A.05.05 0 0 1 .188.4q0-.029.028-.042a.4.4 0 0 1 .087-.03q.06-.015.099-.03A.2.2 0 0 0 .47.246.14.14 0 0 0 .499.158.15.15 0 0 0 .473.072a.2.2 0 0 0-.076-.06.3.3 0 0 0-.116-.02m.047-.035a.4.4 0 0 0 .016-.108.15.15 0 0 0-.032-.102Q.282-.289.22-.289v.057q.05 0 .05.062v.018H.212v.109z"/><path id="X" d="M.381.562q.064 0 .112-.027A.2.2 0 0 0 .57.454.3.3 0 0 0 .597.325V0h-.14v.306q0 .066-.033.102a.12.12 0 0 1-.09.035.12.12 0 0 1-.092-.035Q.21.372.21.306V0h-.14v.74h.14V.485a.2.2 0 0 0 .072.057q.045.02.1.02"/><path id="Y" d="m.3.129.14.425h.149L.384 0h-.17L.01.554h.15z"/><path id="Z" d="M.323.439H.226v-.44H.084v.44H.021v.115h.063v.028q0 .102.058.15t.175.045V.66Q.266.66.247.642T.226.577V.554h.096z"/><path id="aa" d="M.209.473a.2.2 0 0 0 .074.065.23.23 0 0 0 .109.025.24.24 0 0 0 .22-.134.3.3 0 0 0 .033-.15.3.3 0 0 0-.034-.15.25.25 0 0 0-.09-.102.24.24 0 0 0-.129-.036.23.23 0 0 0-.109.025.2.2 0 0 0-.074.063V0h-.14v.74h.14zM.502.28a.2.2 0 0 1-.02.087.14.14 0 0 1-.199.055A.14.14 0 0 1 .23.364.2.2 0 0 1 .21.277q0-.05.02-.087A.14.14 0 0 1 .355.114q.039 0 .072.02.034.021.054.057.021.037.021.088"/><path id="ab" d="M.774.564A.22.22 0 0 0 .94.501.24.24 0 0 0 1 .326V0h-.17v.303q0 .054-.028.083a.1.1 0 0 1-.079.03.1.1 0 0 1-.078-.03.12.12 0 0 1-.029-.083V0h-.17v.303q0 .054-.028.083a.1.1 0 0 1-.079.03.1.1 0 0 1-.078-.03.12.12 0 0 1-.029-.083V0h-.17v.558h.17v-.07Q.26.523.301.543q.042.021.095.021A.23.23 0 0 0 .51.537.2.2 0 0 0 .586.46a.23.23 0 0 0 .188.104"/><path id="ac" d="M.402.564A.2.2 0 0 0 .56.5.25.25 0 0 0 .617.326V0h-.17v.303q0 .055-.029.087A.1.1 0 0 1 .34.421.1.1 0 0 1 .262.39.12.12 0 0 1 .233.303V0h-.17v.558h.17V.484a.2.2 0 0 0 .07.058q.045.022.1.022"/><path id="ad" d="M.246.158.135-.129H.026l.058.287z"/><path id="ae" d="M.392 0 .285.155.195 0H.01l.184.285-.189.273h.192L.304.404l.09.154h.185L.392.277.584 0z"/><path id="af" d="M.233.48q.025.038.07.062.043.024.102.024A.23.23 0 0 0 .62.431.33.33 0 0 0 .65.281.34.34 0 0 0 .62.128.25.25 0 0 0 .53.028a.23.23 0 0 0-.125-.036.2.2 0 0 0-.102.024.2.2 0 0 0-.07.062v-.344h-.17v.824h.17zM.477.28a.14.14 0 0 1-.035.1.12.12 0 0 1-.088.037A.12.12 0 0 1 .268.38a.14.14 0 0 1-.036-.1.14.14 0 0 1 .036-.102.12.12 0 0 1 .086-.037q.051 0 .087.038A.14.14 0 0 1 .477.28"/><path id="ag" d="M.373.145V0H.286a.2.2 0 0 0-.145.046Q.089.09.089.194v.222H.021v.142H.09v.136H.26V.558h.112V.416H.26V.192q0-.025.012-.036t.04-.011zM.271-.04q.02-.06.02-.118A.16.16 0 0 0 .256-.27Q.22-.31.15-.31v.065q.052 0 .052.066v.016H.14v.123z"/><path id="ah" d="M.375 0 .261.172.16 0H.01l.181.278-.183.276h.158L.279.383l.102.171h.15L.349.278.533 0z"/><path id="ai" d="M.232.439V.17q0-.028.014-.04T.29.117h.065V0H.268Q.091 0 .091.172v.267H.025v.115h.066V.69h.141V.554h.124V.439zm.02-.482A.4.4 0 0 0 .27-.151a.15.15 0 0 0-.032-.102Q.205-.289.143-.289v.057q.05 0 .05.062v.018H.136v.109z"/><path id="aj" d="M.286.563A.23.23 0 0 0 .395.54.2.2 0 0 0 .469.475v.08h.14v-.56a.3.3 0 0 0-.03-.137.23.23 0 0 0-.093-.096.3.3 0 0 0-.15-.035.32.32 0 0 0-.194.055.2.2 0 0 0-.085.15h.139a.1.1 0 0 1 .047-.06.17.17 0 0 1 .089-.023q.06 0 .099.036.038.038.038.111v.086a.222.222 0 0 0-.183-.091.24.24 0 0 0-.128.036.25.25 0 0 0-.092.102.3.3 0 0 0-.033.15q0 .084.033.15a.242.242 0 0 0 .22.135M.469.276a.2.2 0 0 1-.02.088.14.14 0 0 1-.127.075.14.14 0 0 1-.126-.074.2.2 0 0 1-.02-.087.2.2 0 0 1 .02-.087A.15.15 0 0 1 .25.134.144.144 0 0 1 .448.19a.2.2 0 0 1 .02.087"/><path id="ak" d="M.033.28a.3.3 0 0 0 .033.148.242.242 0 0 0 .22.135.23.23 0 0 0 .183-.088v.08H.61V0H.47v.081A.2.2 0 0 0 .395.017a.23.23 0 0 0-.11-.026.24.24 0 0 0-.127.036.25.25 0 0 0-.092.102.3.3 0 0 0-.033.15M.469.277a.2.2 0 0 1-.02.088.14.14 0 0 1-.127.075.14.14 0 0 1-.126-.074.2.2 0 0 1-.02-.087.2.2 0 0 1 .02-.087A.15.15 0 0 1 .25.134.144.144 0 0 1 .45.19a.2.2 0 0 1 .02.087m-.128.4L.192.593v.102l.15.081.147-.08V.592z"/><path id="al" d="M.156.403a.1.1 0 0 0-.062.024.08.08 0 0 0-.025.058q0 .035.025.059a.1.1 0 0 0 .062.023.08.08 0 0 0 .061-.023.08.08 0 0 0 .024-.059.08.08 0 0 0-.024-.058.08.08 0 0 0-.06-.024M.247.147l-.117-.28h-.09l.065.28z"/><path id="am" d="M.9.708V0H.68v.353L.57 0H.38L.273.353V0H.05v.708h.272L.478.283.63.708z"/><path id="an" d="M.267.708V.31q0-.049.021-.077.022-.03.07-.029t.07.029a.12.12 0 0 1 .024.077v.4h.22v-.4A.34.34 0 0 0 .632.137.27.27 0 0 0 .516.029a.4.4 0 0 0-.163-.036.34.34 0 0 0-.16.036.26.26 0 0 0-.108.107.36.36 0 0 0-.04.173v.4z"/><path id="ao" d="M.296.177H.58V0H.05v.167l.28.365H.05v.176h.53V.541z"/><path id="ap" d="M.272.531V.444h.22V.277h-.22v-.1h.25V0H.05v.708h.472V.531z"/><path id="aq" d="M.272.168h.214V0H.05v.708h.222z"/><path id="ar" d="M0 0"/><path id="as" d="M.345.708A.4.4 0 0 0 .539.663.3.3 0 0 0 .668.538.37.37 0 0 0 .713.356.37.37 0 0 0 .668.174.32.32 0 0 0 .539.046.4.4 0 0 0 .345 0H.05v.708zm-.02-.51Q.4.198.444.239q.044.04.044.117 0 .076-.044.117a.17.17 0 0 1-.12.041H.273V.198z"/><path id="at" d="M.504.107H.268L.233 0H0l.259.708h.256L.773 0H.539zM.45.274.386.471.322.274z"/><path id="au" d="M.406 0 .273.254H.272V0H.05v.708h.33q.085 0 .147-.03A.21.21 0 0 0 .649.476.2.2 0 0 0 .609.35.22.22 0 0 0 .496.271L.65 0zM.272.402H.36q.032 0 .048.015t.016.045a.06.06 0 0 1-.017.044Q.391.522.36.522H.272z"/><path id="av" d="M.606.708V.532H.418V0H.196v.532H.01v.176z"/><path id="aw" d="M.504.107H.268L.233 0H0l.259.708h.256L.773 0H.54zM.45.274.386.471.322.274zM.575.95q0-.099-.052-.151A.18.18 0 0 0 .387.747q-.083 0-.135.052T.199.95v.017h.103q0-.03.019-.046.02-.016.066-.016t.066.016.02.046h.102z"/><path id="ax" d="M.429 0 .275.272H.209V0h-.14v.698h.262Q.412.698.469.67A.2.2 0 0 0 .583.484a.2.2 0 0 0-.04-.125.2.2 0 0 0-.119-.076L.591 0zm-.22.377h.117q.057 0 .085.027a.1.1 0 0 1 .028.077q0 .048-.028.075T.326.582H.209z"/><path id="ay" d="M.216.554V0h-.14v.554zM.147.677-.002.593v.102l.149.081.148-.081V.593z"/><path id="az" d="M.028.28q0 .086.033.151a.231.231 0 0 0 .214.135.2.2 0 0 0 .1-.023.2.2 0 0 0 .071-.062V.74h.171V0h-.17v.08a.2.2 0 0 0-.07-.064.2.2 0 0 0-.103-.024.23.23 0 0 0-.125.036.25.25 0 0 0-.088.1.34.34 0 0 0-.033.152m.418 0a.14.14 0 0 1-.035.1.12.12 0 0 1-.087.037.12.12 0 0 1-.086-.036.14.14 0 0 1-.036-.1q0-.065.036-.102A.12.12 0 0 1 .324.14q.051 0 .087.037A.14.14 0 0 1 .446.28"/><path id="aA" d="M.028.28q0 .086.033.151a.231.231 0 0 0 .214.135q.058 0 .103-.024A.2.2 0 0 0 .446.479v.079h.171V0h-.17v.08a.2.2 0 0 0-.07-.064.2.2 0 0 0-.104-.024.23.23 0 0 0-.124.036.25.25 0 0 0-.088.1.34.34 0 0 0-.033.152m.418 0a.14.14 0 0 1-.035.1.12.12 0 0 1-.087.037.12.12 0 0 1-.086-.036.14.14 0 0 1-.036-.1q0-.065.036-.102A.12.12 0 0 1 .324.14q.051 0 .087.037A.14.14 0 0 1 .446.28M.343.678.188.596v.118l.155.079.155-.079V.596z"/><path id="aB" d="M.045.502q.003.12.07.182a.26.26 0 0 0 .188.063A.3.3 0 0 0 .438.72.2.2 0 0 0 .522.647.2.2 0 0 0 .551.543a.17.17 0 0 0-.033-.11A.17.17 0 0 0 .444.38V.376q.12-.045.12-.167 0-.064-.03-.113A.2.2 0 0 0 .448.02a.3.3 0 0 0-.131-.027.3.3 0 0 0-.204.062Q.038.117.037.249h.216Q.251.213.263.194.276.176.307.176q.018 0 .03.013.012.014.012.036 0 .028-.019.043Q.312.283.268.282H.231v.179h.036Q.335.456.335.515q0 .026-.01.037a.03.03 0 0 1-.027.012Q.261.564.261.502z"/><path id="aC" d="M.16-.008q-.059 0-.093.031a.1.1 0 0 0-.035.078q0 .048.035.08A.13.13 0 0 0 .16.211Q.217.212.252.18A.1.1 0 0 0 .287.101.1.1 0 0 0 .252.023.13.13 0 0 0 .16-.008"/><path id="aD" d="M.584.536h-.29V.452Q.312.47.344.48a.2.2 0 0 0 .068.01.2.2 0 0 0 .115-.032.2.2 0 0 0 .07-.085A.3.3 0 0 0 .62.253.25.25 0 0 0 .553.067.25.25 0 0 0 .367 0a.34.34 0 0 0-.149.03.2.2 0 0 0-.095.083.2.2 0 0 0-.03.121h.216q0-.015.01-.03Q.332.189.357.19q.026 0 .037.018a.1.1 0 0 1 .012.05Q.405.285.392.3.378.316.353.316q-.021 0-.032-.01A.03.03 0 0 1 .31.283H.094v.448h.49z"/><path id="aE" d="M0 0"/><path id="aF" d="M.03.355a.4.4 0 0 0 .042.187.3.3 0 0 0 .122.127q.08.046.186.046A.4.4 0 0 0 .544.68.3.3 0 0 0 .662.583.35.35 0 0 0 .723.436H.489A.12.12 0 0 1 .376.51.1.1 0 0 1 .288.468.18.18 0 0 1 .255.355.18.18 0 0 1 .288.242.1.1 0 0 1 .376.2a.12.12 0 0 1 .113.074h.234a.35.35 0 0 0-.06-.147A.3.3 0 0 0 .543.03.4.4 0 0 0 .38-.005a.37.37 0 0 0-.186.046.3.3 0 0 0-.122.127.4.4 0 0 0-.042.187"/><path id="aG" d="M.365.51a.1.1 0 0 1-.018.043Q.335.567.312.567.274.567.262.53a.4.4 0 0 1-.013-.12q.018.027.052.044t.077.016q.096 0 .153-.06Q.59.353.59.24a.26.26 0 0 0-.032-.13.2.2 0 0 0-.09-.086.3.3 0 0 0-.136-.03q-.157 0-.218.097a.5.5 0 0 0-.061.27q0 .136.028.22a.23.23 0 0 0 .088.124.3.3 0 0 0 .158.04q.12 0 .18-.068A.27.27 0 0 0 .571.51zM.323.3A.06.06 0 0 1 .28.284.06.06 0 0 1 .264.242q0-.03.016-.044A.06.06 0 0 1 .323.183q.028 0 .043.015.016.015.016.044a.06.06 0 0 1-.016.042.06.06 0 0 1-.043.015"/><path id="aH" d="M.032.376q0 .173.073.272.075.1.227.1t.226-.1A.45.45 0 0 0 .632.376.45.45 0 0 0 .558.103q-.075-.1-.226-.1t-.227.1a.45.45 0 0 0-.073.273m.381 0a.4.4 0 0 1-.016.12Q.382.538.332.538T.266.497A.4.4 0 0 1 .25.376.4.4 0 0 1 .266.254q.016-.04.066-.04.049 0 .065.04a.4.4 0 0 1 .016.122"/><clipPath id="a"><path fill-rule="evenodd" d="M0 419.526h297.636V0H0Z"/></clipPath></defs><g clip-path="url(#a)" data-name="Layer 1"><path fill="#275d55" d="M382.77 118.326c14.64-.238 100.312-38.073 107.6-47.553-43.302 2.498-75.513 24.859-107.6 47.553M255.98 302.316c5.525 0 11.05.024 16.575-.013 2.155-.014 4.579-.002 5.647-2.198 1.538-3.167-1.635-4.158-3.336-5.569-11.414-9.472-20.885-20.445-26.753-34.062-2.29-5.31-5.39-6.465-10.757-4.384-16.047 6.216-31.33 13.705-44.824 24.43-3.078 2.449-7.444 4.589-6.05 9.168 1.222 4.008 5.675 4.998 9.51 6.156 19.572 5.91 39.864 5.705 59.988 6.471m99.412-71.42c-17.67 1.355-35.483 2.424-52.898 6.579-3.064.731-7.442-.83-8.745 3.371-1.337 4.306 1.778 7.192 4.413 10.284 12.101 14.196 28.555 19.66 46.284 21.435 22.145 2.217 43.586-.786 62.267-13.892 7.167-5.025 6.876-10.83.044-16.198-2.36-1.854-5.141-3.305-7.923-4.506-13.816-5.97-28.586-6.386-43.442-7.072M75.817-3.574h51.692c5.144 7.951 12.876 12.85 21.39 16.291 32.337 13.066 66.243 14.861 100.569 12.509 15.348-1.054 30.698-2.318 46.065-1.78 19.296.674 32.232 13.091 31.409 29.593-.466 9.324-5.559 16.517-12.408 22.428-15.343 13.238-33.206 22.72-50.873 32.484-52.965 29.272-107.234 56.354-157.475 90.218-17.514 11.805-34.482 24.352-48.08 40.623-8.859 10.602-6.081 17.557 7.693 20.225 11.63 2.251 22.535-.664 33.283-4.676 30.716-11.461 57.482-29.647 83.972-48.176 55.814-39.043 107.43-83.555 163.683-122.027 33.045-22.6 66.577-44.45 105.946-55.3 25.111-6.922 49.86-7.296 72.981 6.643 14.019 8.45 24.34 19.617 23.223 37.277-.984 15.532-10.294 26.138-22.57 34.494-25.706 17.501-54.743 28.334-83.373 40.027-23.875 9.754-47.5 20.093-71.183 30.297-1.785.77-4.615 1.385-4.464 3.945.187 3.161 3.202 1.865 5.066 2.325 11.6 2.85 23.66 3.202 35.175 6.724 18.664 5.712 34.334 15.598 44.73 31.99 9.043 14.257 11.107 29.833 5.146 46.045-1.092 2.965-2.72 8.306 2.325 7.523 9.533-1.483 21.012-.733 27.86-7.84 16.26-16.88 36.541-16.959 57.222-15.6 17.131 1.127 26.736 18.79 19.754 34.123-2.81 6.176-7.106 10.756-13.267 13.137-8.263 3.193-8.162 7.23-3.093 13.41 4.42 5.39 8.344 11.242 11.94 17.212 14.298 23.754 26.687 48.194 29.754 76.307.6 5.47-.835 12.083 4.678 16.427h-49.845c-1.91-8.842-3.274-17.84-5.827-26.498-8.122-27.492-25.203-50.086-41.707-73.025-3.665-5.093-6.809-6.025-12.953-4.543-34.905 8.416-70.288 14.646-105.786 19.979-34.605 5.198-69.484 8.727-104.476 10.061-31.965 1.22-63.95.762-94.82-9.393-17.81-5.856-32.878-15.477-40.187-33.202-6.396-15.51-5.765-15.763-21.4-9.137-.28.119-.505.37-.788.468-28.608 9.984-56.76 14.188-84.973-2.256C7.656 281.67-2.317 253.61 9.15 228.573c11.3-24.67 31.638-41.274 52.742-56.953 45.663-33.922 96.25-59.942 146.107-87.12 4.623-2.52 13.508-4.269 12.507-8.774-1.33-5.985-9.987-3.65-15.35-3.89-33.294-1.498-65.244-7.795-93.511-26.023-18.193-11.731-31.802-27.37-35.828-49.387"/><path fill="#497c77" d="M75.817-3.574c4.025 22.018 17.635 37.656 35.829 49.387 28.266 18.228 60.216 24.525 93.51 26.02 5.363.245 14.02-2.092 15.35 3.893 1.001 4.505-7.885 6.255-12.506 8.772-49.858 27.18-100.445 53.2-146.108 87.122-21.104 15.679-41.443 32.283-52.743 56.953-11.466 25.038-1.493 53.098 22.676 67.185 28.214 16.444 56.365 12.24 84.973 2.256.283-.098.508-.35.788-.468 15.635-6.626 15.004-6.373 21.4 9.136 7.31 17.725 22.378 27.347 40.185 33.204 30.873 10.155 62.857 10.61 94.822 9.392 34.992-1.335 69.87-4.862 104.476-10.061 35.498-5.332 70.883-11.563 105.784-19.979 6.146-1.482 9.29-.55 12.955 4.543 16.504 22.939 33.585 45.534 41.704 73.025 2.559 8.658 3.92 17.657 5.83 26.498-179.694 0-359.386-.042-539.079.175-6.321.006-7.574-1.221-7.562-7.44q.347-206.174 0-412.346C-1.911-2.527-.68-3.89 5.666-3.76c23.376.475 46.766.187 70.15.187"/><path fill="#497c77" d="M594.587 423.304c-5.513-4.345-4.078-10.955-4.675-16.428-3.072-28.111-15.459-52.553-29.758-76.306-3.595-5.97-7.519-11.821-11.94-17.213-5.066-6.179-5.169-10.216 3.094-13.41 6.16-2.379 10.457-6.96 13.267-13.136 6.98-15.333-2.623-32.995-19.754-34.122-20.68-1.36-40.963-1.281-57.223 15.6-6.844 7.106-18.323 6.356-27.859 7.838-5.044.784-3.417-4.557-2.325-7.522 5.961-16.212 3.897-31.788-5.146-46.045-10.396-16.392-26.066-26.278-44.73-31.99-11.516-3.52-23.575-3.873-35.175-6.725-1.867-.459-4.881.837-5.066-2.325-.151-2.559 2.68-3.176 4.464-3.944 23.68-10.202 47.308-20.546 71.183-30.297 28.63-11.693 57.667-22.526 83.373-40.024 12.276-8.357 21.586-18.965 22.57-34.5 1.118-17.657-9.207-28.824-23.223-37.274-23.121-13.939-47.867-13.565-72.983-6.643-39.367 10.848-72.9 32.697-105.944 55.3-56.254 38.474-107.87 82.984-163.683 122.026-26.49 18.529-53.256 36.717-83.972 48.178-10.748 4.01-21.654 6.927-33.283 4.675-13.773-2.667-16.552-9.623-7.692-20.225 13.598-16.27 30.565-28.82 48.078-40.624 50.242-33.863 104.512-60.945 157.479-90.217 17.664-9.766 35.527-19.246 50.87-32.484 6.85-5.909 11.942-13.104 12.408-22.428.823-16.502-12.113-28.92-31.409-29.596-15.367-.535-30.717.73-46.065 1.78-34.327 2.355-68.232.56-100.568-12.508-8.516-3.44-16.247-8.338-21.391-16.289 153.847 0 307.693.022 461.539-.089 4.972-.002 7.6-.228 7.588 6.45-.268 138.053-.184 276.106-.396 414.16 0 1.86 2.948 5.358-1.653 6.357"/><path fill="#497c77" d="M355.393 230.896c14.858.686 29.623 1.103 43.442 7.072 2.784 1.202 5.563 2.651 7.925 4.506 6.83 5.368 7.12 11.174-.046 16.198-18.683 13.106-40.12 16.11-62.267 13.892-17.729-1.773-34.183-7.24-46.284-21.435-2.635-3.092-5.748-5.978-4.413-10.283 1.303-4.203 5.68-2.64 8.745-3.372 17.415-4.155 35.227-5.225 52.898-6.578M255.981 302.315c-20.125-.766-40.417-.56-59.987-6.472-3.835-1.158-8.289-2.147-9.51-6.155-1.395-4.58 2.97-6.72 6.05-9.167 13.493-10.726 28.777-18.214 44.822-24.431 5.368-2.08 8.469-.925 10.756 4.385 5.87 13.616 15.34 24.589 26.757 34.06 1.7 1.412 4.872 2.402 3.331 5.57-1.065 2.196-3.49 2.183-5.644 2.198-5.525.037-11.05.012-16.575.012"/><use xlink:href="#b" fill="#fff" transform="matrix(10.96391 0 0 -10.7799 33.846 154.74)"/><use xlink:href="#b" fill="#fff" transform="matrix(10.96391 0 0 -10.7799 36.05 154.74)"/><use xlink:href="#b" fill="#fff" transform="matrix(10.96391 0 0 -10.7799 38.253 154.74)"/><use xlink:href="#c" fill="#fff" data-text="D" transform="matrix(10.96391 0 0 -10.7799 40.456 154.74)"/><use xlink:href="#d" fill="#fff" data-text="e" transform="matrix(10.96391 0 0 -10.7799 48.317 154.74)"/><use xlink:href="#b" fill="#fff" transform="matrix(10.96391 0 0 -10.7799 55.081 154.74)"/><use xlink:href="#e" fill="#fff" data-text="a" transform="matrix(10.96391 0 0 -10.7799 57.285 154.74)"/><use xlink:href="#f" fill="#fff" data-text="s" transform="matrix(10.96391 0 0 -10.7799 64.718 154.74)"/><use xlink:href="#d" fill="#fff" data-text="e" transform="matrix(10.96391 0 0 -10.7799 70.693 154.74)"/><use xlink:href="#g" fill="#fff" data-text="m" transform="matrix(10.96391 0 0 -10.7799 77.458 154.74)"/><use xlink:href="#d" fill="#fff" data-text="e" transform="matrix(10.96391 0 0 -10.7799 88.948 154.74)"/><use xlink:href="#h" fill="#fff" data-text="n" transform="matrix(10.96391 0 0 -10.7799 95.713 154.74)"/><use xlink:href="#d" fill="#fff" data-text="e" transform="matrix(10.96391 0 0 -10.7799 102.96 154.74)"/><use xlink:href="#e" fill="#fff" data-text="a" transform="matrix(10.96391 0 0 -10.7799 109.725 154.74)"/><use xlink:href="#i" fill="#fff" data-text="," transform="matrix(10.96391 0 0 -10.7799 117.158 154.74)"/><use xlink:href="#b" fill="#fff" transform="matrix(10.96391 0 0 -10.7799 119.943 154.74)"/><use xlink:href="#j" fill="#fff" data-text="C" transform="matrix(10.96391 0 0 -10.7799 122.146 154.74)"/><use xlink:href="#k" fill="#fff" data-text="l" transform="matrix(10.96391 0 0 -10.7799 130.566 154.74)"/><use xlink:href="#l" fill="#fff" data-text="u" transform="matrix(10.96391 0 0 -10.7799 133.614 154.74)"/><use xlink:href="#m" fill="#fff" data-text="j" transform="matrix(10.96391 0 0 -10.7799 140.861 154.74)"/><use xlink:href="#l" fill="#fff" data-text="u" transform="matrix(10.96391 0 0 -10.7799 143.91 154.74)"/><use xlink:href="#k" fill="#fff" data-text="l" transform="matrix(10.96391 0 0 -10.7799 151.156 154.74)"/><use xlink:href="#b" fill="#fff" transform="matrix(10.96391 0 0 -10.7799 154.204 154.74)"/><use xlink:href="#n" fill="#fff" data-text="d" transform="matrix(10.96391 0 0 -10.7799 156.407 154.74)"/><use xlink:href="#o" fill="#fff" data-text="i" transform="matrix(10.96391 0 0 -10.7799 163.84 154.74)"/><use xlink:href="#f" fill="#fff" data-text="s" transform="matrix(10.96391 0 0 -10.7799 166.888 154.74)"/><use xlink:href="#p" fill="#fff" data-text="p" transform="matrix(10.96391 0 0 -10.7799 172.863 154.74)"/><use xlink:href="#l" fill="#fff" data-text="u" transform="matrix(10.96391 0 0 -10.7799 180.297 154.74)"/><use xlink:href="#h" fill="#fff" data-text="n" transform="matrix(10.96391 0 0 -10.7799 187.544 154.74)"/><use xlink:href="#d" fill="#fff" data-text="e" transform="matrix(10.96391 0 0 -10.7799 194.791 154.74)"/><use xlink:href="#b" fill="#fff" transform="matrix(10.96391 0 0 -10.7799 201.556 154.74)"/><use xlink:href="#n" fill="#fff" data-text="d" transform="matrix(10.96391 0 0 -10.7799 203.76 154.74)"/><use xlink:href="#d" fill="#fff" data-text="e" transform="matrix(10.96391 0 0 -10.7799 211.193 154.74)"/><use xlink:href="#b" fill="#fff" transform="matrix(10.96391 0 0 -10.7799 217.958 154.74)"/><use xlink:href="#q" fill="#fff" data-text="o" transform="matrix(10.96391 0 0 -10.7799 220.16 154.74)"/><use xlink:href="#b" fill="#fff" transform="matrix(10.96391 0 0 -10.7799 227.155 154.74)"/><use xlink:href="#r" fill="#9efc5b" data-text="c" transform="matrix(10.96391 0 0 -10.7799 229.355 154.74)"/><use xlink:href="#s" fill="#9efc5b" data-text="u" transform="matrix(10.96391 0 0 -10.7799 235.988 154.74)"/><use xlink:href="#t" fill="#9efc5b" data-text="l" transform="matrix(10.96391 0 0 -10.7799 243.378 154.74)"/><use xlink:href="#u" fill="#9efc5b" data-text="t" transform="matrix(10.96391 0 0 -10.7799 246.612 154.74)"/><use xlink:href="#s" fill="#9efc5b" data-text="u" transform="matrix(10.96391 0 0 -10.7799 251.063 154.74)"/><use xlink:href="#v" fill="#9efc5b" data-text="r" transform="matrix(10.96391 0 0 -10.7799 258.453 154.74)"/><use xlink:href="#w" fill="#9efc5b" data-text="ă" transform="matrix(10.96391 0 0 -10.7799 263.146 154.74)"/><use xlink:href="#x" fill="#9efc5b" transform="matrix(10.96391 0 0 -10.7799 270.59 154.74)"/><use xlink:href="#y" fill="#9efc5b" data-text="v" transform="matrix(10.96391 0 0 -10.7799 33.846 167.482)"/><use xlink:href="#z" fill="#9efc5b" data-text="a" transform="matrix(10.96391 0 0 -10.7799 40.71 167.482)"/><use xlink:href="#v" fill="#9efc5b" data-text="r" transform="matrix(10.96391 0 0 -10.7799 48.154 167.482)"/><use xlink:href="#A" fill="#9efc5b" data-text="i" transform="matrix(10.96391 0 0 -10.7799 52.847 167.482)"/><use xlink:href="#z" fill="#9efc5b" data-text="a" transform="matrix(10.96391 0 0 -10.7799 56.081 167.482)"/><use xlink:href="#u" fill="#9efc5b" data-text="t" transform="matrix(10.96391 0 0 -10.7799 63.526 167.482)"/><use xlink:href="#w" fill="#9efc5b" data-text="ă" transform="matrix(10.96391 0 0 -10.7799 67.977 167.482)"/><use xlink:href="#x" fill="#9efc5b" transform="matrix(10.96391 0 0 -10.7799 75.421 167.482)"/><use xlink:href="#B" fill="#9efc5b" data-text="ș" transform="matrix(10.96391 0 0 -10.7799 81.747 167.482)"/><use xlink:href="#A" fill="#9efc5b" data-text="i" transform="matrix(10.96391 0 0 -10.7799 87.864 167.482)"/><use xlink:href="#x" fill="#9efc5b" transform="matrix(10.96391 0 0 -10.7799 91.099 167.482)"/><use xlink:href="#C" fill="#9efc5b" data-text="o" transform="matrix(10.96391 0 0 -10.7799 97.424 167.482)"/><use xlink:href="#x" fill="#9efc5b" transform="matrix(10.96391 0 0 -10.7799 104.408 167.482)"/><use xlink:href="#A" fill="#9efc5b" data-text="i" transform="matrix(10.96391 0 0 -10.7799 110.733 167.482)"/><use xlink:href="#D" fill="#9efc5b" data-text="s" transform="matrix(10.96391 0 0 -10.7799 113.967 167.482)"/><use xlink:href="#u" fill="#9efc5b" data-text="t" transform="matrix(10.96391 0 0 -10.7799 120.085 167.482)"/><use xlink:href="#C" fill="#9efc5b" data-text="o" transform="matrix(10.96391 0 0 -10.7799 124.536 167.482)"/><use xlink:href="#v" fill="#9efc5b" data-text="r" transform="matrix(10.96391 0 0 -10.7799 131.52 167.482)"/><use xlink:href="#A" fill="#9efc5b" data-text="i" transform="matrix(10.96391 0 0 -10.7799 136.213 167.482)"/><use xlink:href="#E" fill="#9efc5b" data-text="e" transform="matrix(10.96391 0 0 -10.7799 139.447 167.482)"/><use xlink:href="#x" fill="#9efc5b" transform="matrix(10.96391 0 0 -10.7799 146.201 167.482)"/><use xlink:href="#F" fill="#9efc5b" data-text="b" transform="matrix(10.96391 0 0 -10.7799 152.527 167.482)"/><use xlink:href="#C" fill="#9efc5b" data-text="o" transform="matrix(10.96391 0 0 -10.7799 159.972 167.482)"/><use xlink:href="#G" fill="#9efc5b" data-text="g" transform="matrix(10.96391 0 0 -10.7799 166.956 167.482)"/><use xlink:href="#z" fill="#9efc5b" data-text="a" transform="matrix(10.96391 0 0 -10.7799 174.4 167.482)"/><use xlink:href="#u" fill="#9efc5b" data-text="t" transform="matrix(10.96391 0 0 -10.7799 181.845 167.482)"/><use xlink:href="#w" fill="#9efc5b" data-text="ă" transform="matrix(10.96391 0 0 -10.7799 186.296 167.482)"/><use xlink:href="#b" fill="#fff" transform="matrix(10.96391 0 0 -10.7799 193.74 167.482)"/><use xlink:href="#H" fill="#fff" data-text="c" transform="matrix(10.96391 0 0 -10.7799 200.842 167.482)"/><use xlink:href="#e" fill="#fff" data-text="a" transform="matrix(10.96391 0 0 -10.7799 207.442 167.482)"/><use xlink:href="#I" fill="#fff" data-text="r" transform="matrix(10.96391 0 0 -10.7799 214.876 167.482)"/><use xlink:href="#d" fill="#fff" data-text="e" transform="matrix(10.96391 0 0 -10.7799 219.305 167.482)"/><use xlink:href="#b" fill="#fff" transform="matrix(10.96391 0 0 -10.7799 226.07 167.482)"/><use xlink:href="#g" fill="#fff" data-text="m" transform="matrix(10.96391 0 0 -10.7799 233.171 167.482)"/><use xlink:href="#d" fill="#fff" data-text="e" transform="matrix(10.96391 0 0 -10.7799 244.661 167.482)"/><use xlink:href="#I" fill="#fff" data-text="r" transform="matrix(10.96391 0 0 -10.7799 251.426 167.482)"/><use xlink:href="#o" fill="#fff" data-text="i" transform="matrix(10.96391 0 0 -10.7799 255.856 167.482)"/><use xlink:href="#J" fill="#fff" data-text="t" transform="matrix(10.96391 0 0 -10.7799 258.904 167.482)"/><use xlink:href="#K" fill="#fff" data-text="ă" transform="matrix(10.96391 0 0 -10.7799 263.157 167.482)"/><use xlink:href="#b" fill="#fff" transform="matrix(10.96391 0 0 -10.7799 270.591 167.482)"/><use xlink:href="#n" fill="#fff" data-text="d" transform="matrix(10.96391 0 0 -10.7799 33.846 180.224)"/><use xlink:href="#d" fill="#fff" data-text="e" transform="matrix(10.96391 0 0 -10.7799 41.28 180.224)"/><use xlink:href="#f" fill="#fff" data-text="s" transform="matrix(10.96391 0 0 -10.7799 48.044 180.224)"/><use xlink:href="#H" fill="#fff" data-text="c" transform="matrix(10.96391 0 0 -10.7799 54.02 180.224)"/><use xlink:href="#q" fill="#fff" data-text="o" transform="matrix(10.96391 0 0 -10.7799 60.62 180.224)"/><use xlink:href="#p" fill="#fff" data-text="p" transform="matrix(10.96391 0 0 -10.7799 67.615 180.224)"/><use xlink:href="#d" fill="#fff" data-text="e" transform="matrix(10.96391 0 0 -10.7799 75.048 180.224)"/><use xlink:href="#I" fill="#fff" data-text="r" transform="matrix(10.96391 0 0 -10.7799 81.813 180.224)"/><use xlink:href="#o" fill="#fff" data-text="i" transform="matrix(10.96391 0 0 -10.7799 86.243 180.224)"/><use xlink:href="#J" fill="#fff" data-text="t" transform="matrix(10.96391 0 0 -10.7799 89.29 180.224)"/><use xlink:href="#d" fill="#fff" data-text="e" transform="matrix(10.96391 0 0 -10.7799 93.545 180.224)"/><use xlink:href="#L" fill="#fff" data-text="!" transform="matrix(10.96391 0 0 -10.7799 100.31 180.224)"/><use xlink:href="#M" fill="#fff" transform="matrix(10.96391 0 0 -10.7799 33.846 205.708)"/><use xlink:href="#N" fill="#fc5b9f" data-text="M" transform="matrix(15.41656 0 0 -15.67985 33.846 218.44)"/><use xlink:href="#O" fill="#fc5b9f" data-text="U" transform="matrix(15.41656 0 0 -15.67985 48.507 218.44)"/><use xlink:href="#P" fill="#fc5b9f" data-text="Z" transform="matrix(15.41656 0 0 -15.67985 59.592 218.44)"/><use xlink:href="#Q" fill="#fc5b9f" data-text="E" transform="matrix(15.41656 0 0 -15.67985 69.304 218.44)"/><use xlink:href="#R" fill="#fc5b9f" data-text="O" transform="matrix(15.41656 0 0 -15.67985 77.876 218.44)"/><use xlink:href="#S" fill="#fc5b9f" data-text="N" transform="matrix(15.41656 0 0 -15.67985 90.024 218.44)"/><use xlink:href="#b" fill="#fff" transform="matrix(10.96391 0 0 -10.7799 102.033 218.44)"/><use xlink:href="#T" fill="#fff" data-text="-" transform="matrix(10.96391 0 0 -10.7799 119.918 218.44)"/><use xlink:href="#b" fill="#fff" transform="matrix(10.96391 0 0 -10.7799 126.31 218.44)"/><use xlink:href="#U" fill="#fff" data-text="A" transform="matrix(10.96391 0 0 -10.7799 144.194 218.44)"/><use xlink:href="#H" fill="#fff" data-text="c" transform="matrix(10.96391 0 0 -10.7799 152.044 218.44)"/><use xlink:href="#d" fill="#fff" data-text="e" transform="matrix(10.96391 0 0 -10.7799 158.644 218.44)"/><use xlink:href="#f" fill="#fff" data-text="s" transform="matrix(10.96391 0 0 -10.7799 165.41 218.44)"/><use xlink:href="#J" fill="#fff" data-text="t" transform="matrix(10.96391 0 0 -10.7799 171.385 218.44)"/><use xlink:href="#b" fill="#fff" transform="matrix(10.96391 0 0 -10.7799 175.639 218.44)"/><use xlink:href="#g" fill="#fff" data-text="m" transform="matrix(10.96391 0 0 -10.7799 193.523 218.44)"/><use xlink:href="#o" fill="#fff" data-text="i" transform="matrix(10.96391 0 0 -10.7799 205.013 218.44)"/><use xlink:href="#H" fill="#fff" data-text="c" transform="matrix(10.96391 0 0 -10.7799 208.061 218.44)"/><use xlink:href="#b" fill="#fff" transform="matrix(10.96391 0 0 -10.7799 214.661 218.44)"/><use xlink:href="#g" fill="#fff" data-text="m" transform="matrix(10.96391 0 0 -10.7799 232.546 218.44)"/><use xlink:href="#l" fill="#fff" data-text="u" transform="matrix(10.96391 0 0 -10.7799 244.036 218.44)"/><use xlink:href="#V" fill="#fff" data-text="z" transform="matrix(10.96391 0 0 -10.7799 251.283 218.44)"/><use xlink:href="#d" fill="#fff" data-text="e" transform="matrix(10.96391 0 0 -10.7799 256.579 218.44)"/><use xlink:href="#l" fill="#fff" data-text="u" transform="matrix(10.96391 0 0 -10.7799 263.344 218.44)"/><use xlink:href="#b" fill="#fff" transform="matrix(10.96391 0 0 -10.7799 270.59 218.44)"/><use xlink:href="#o" fill="#fff" data-text="i" transform="matrix(10.96391 0 0 -10.7799 33.85 231.181)"/><use xlink:href="#h" fill="#fff" data-text="n" transform="matrix(10.96391 0 0 -10.7799 36.897 231.181)"/><use xlink:href="#n" fill="#fff" data-text="d" transform="matrix(10.96391 0 0 -10.7799 44.144 231.181)"/><use xlink:href="#d" fill="#fff" data-text="e" transform="matrix(10.96391 0 0 -10.7799 51.578 231.181)"/><use xlink:href="#p" fill="#fff" data-text="p" transform="matrix(10.96391 0 0 -10.7799 58.343 231.181)"/><use xlink:href="#d" fill="#fff" data-text="e" transform="matrix(10.96391 0 0 -10.7799 65.776 231.181)"/><use xlink:href="#h" fill="#fff" data-text="n" transform="matrix(10.96391 0 0 -10.7799 72.54 231.181)"/><use xlink:href="#n" fill="#fff" data-text="d" transform="matrix(10.96391 0 0 -10.7799 79.788 231.181)"/><use xlink:href="#d" fill="#fff" data-text="e" transform="matrix(10.96391 0 0 -10.7799 87.222 231.181)"/><use xlink:href="#h" fill="#fff" data-text="n" transform="matrix(10.96391 0 0 -10.7799 93.986 231.181)"/><use xlink:href="#J" fill="#fff" data-text="t" transform="matrix(10.96391 0 0 -10.7799 101.233 231.181)"/><use xlink:href="#b" fill="#fff" transform="matrix(10.96391 0 0 -10.7799 105.487 231.181)"/><use xlink:href="#p" fill="#fff" data-text="p" transform="matrix(10.96391 0 0 -10.7799 111.022 231.181)"/><use xlink:href="#q" fill="#fff" data-text="o" transform="matrix(10.96391 0 0 -10.7799 118.455 231.181)"/><use xlink:href="#I" fill="#fff" data-text="r" transform="matrix(10.96391 0 0 -10.7799 125.45 231.181)"/><use xlink:href="#h" fill="#fff" data-text="n" transform="matrix(10.96391 0 0 -10.7799 129.88 231.181)"/><use xlink:href="#d" fill="#fff" data-text="e" transform="matrix(10.96391 0 0 -10.7799 137.127 231.181)"/><use xlink:href="#W" fill="#fff" data-text="ș" transform="matrix(10.96391 0 0 -10.7799 143.892 231.181)"/><use xlink:href="#J" fill="#fff" data-text="t" transform="matrix(10.96391 0 0 -10.7799 149.867 231.181)"/><use xlink:href="#d" fill="#fff" data-text="e" transform="matrix(10.96391 0 0 -10.7799 154.12 231.181)"/><use xlink:href="#b" fill="#fff" transform="matrix(10.96391 0 0 -10.7799 160.886 231.181)"/><use xlink:href="#n" fill="#fff" data-text="d" transform="matrix(10.96391 0 0 -10.7799 166.421 231.181)"/><use xlink:href="#d" fill="#fff" data-text="e" transform="matrix(10.96391 0 0 -10.7799 173.855 231.181)"/><use xlink:href="#b" fill="#fff" transform="matrix(10.96391 0 0 -10.7799 180.62 231.181)"/><use xlink:href="#k" fill="#fff" data-text="l" transform="matrix(10.96391 0 0 -10.7799 186.154 231.181)"/><use xlink:href="#e" fill="#fff" data-text="a" transform="matrix(10.96391 0 0 -10.7799 189.202 231.181)"/><use xlink:href="#b" fill="#fff" transform="matrix(10.96391 0 0 -10.7799 196.636 231.181)"/><use xlink:href="#q" fill="#fff" data-text="o" transform="matrix(10.96391 0 0 -10.7799 202.17 231.181)"/><use xlink:href="#b" fill="#fff" transform="matrix(10.96391 0 0 -10.7799 209.165 231.181)"/><use xlink:href="#e" fill="#fff" data-text="a" transform="matrix(10.96391 0 0 -10.7799 214.701 231.181)"/><use xlink:href="#I" fill="#fff" data-text="r" transform="matrix(10.96391 0 0 -10.7799 222.135 231.181)"/><use xlink:href="#X" fill="#fff" data-text="h" transform="matrix(10.96391 0 0 -10.7799 226.564 231.181)"/><use xlink:href="#o" fill="#fff" data-text="i" transform="matrix(10.96391 0 0 -10.7799 233.811 231.181)"/><use xlink:href="#Y" fill="#fff" data-text="v" transform="matrix(10.96391 0 0 -10.7799 236.86 231.181)"/><use xlink:href="#K" fill="#fff" data-text="ă" transform="matrix(10.96391 0 0 -10.7799 243.426 231.181)"/><use xlink:href="#b" fill="#fff" transform="matrix(10.96391 0 0 -10.7799 250.86 231.181)"/><use xlink:href="#n" fill="#fff" data-text="d" transform="matrix(10.96391 0 0 -10.7799 256.396 231.181)"/><use xlink:href="#d" fill="#fff" data-text="e" transform="matrix(10.96391 0 0 -10.7799 263.83 231.181)"/><use xlink:href="#b" fill="#fff" transform="matrix(10.96391 0 0 -10.7799 270.594 231.181)"/><use xlink:href="#Z" fill="#fff" data-text="f" transform="matrix(10.96391 0 0 -10.7799 33.85 243.923)"/><use xlink:href="#e" fill="#fff" data-text="a" transform="matrix(10.96391 0 0 -10.7799 37.632 243.923)"/><use xlink:href="#g" fill="#fff" data-text="m" transform="matrix(10.96391 0 0 -10.7799 45.065 243.923)"/><use xlink:href="#o" fill="#fff" data-text="i" transform="matrix(10.96391 0 0 -10.7799 56.555 243.923)"/><use xlink:href="#k" fill="#fff" data-text="l" transform="matrix(10.96391 0 0 -10.7799 59.603 243.923)"/><use xlink:href="#o" fill="#fff" data-text="i" transform="matrix(10.96391 0 0 -10.7799 62.651 243.923)"/><use xlink:href="#d" fill="#fff" data-text="e" transform="matrix(10.96391 0 0 -10.7799 65.7 243.923)"/><use xlink:href="#b" fill="#fff" transform="matrix(10.96391 0 0 -10.7799 72.464 243.923)"/><use xlink:href="#n" fill="#fff" data-text="d" transform="matrix(10.96391 0 0 -10.7799 75.404 243.923)"/><use xlink:href="#e" fill="#fff" data-text="a" transform="matrix(10.96391 0 0 -10.7799 82.837 243.923)"/><use xlink:href="#I" fill="#fff" data-text="r" transform="matrix(10.96391 0 0 -10.7799 90.27 243.923)"/><use xlink:href="#b" fill="#fff" transform="matrix(10.96391 0 0 -10.7799 94.7 243.923)"/><use xlink:href="#Y" fill="#fff" data-text="v" transform="matrix(10.96391 0 0 -10.7799 97.639 243.923)"/><use xlink:href="#q" fill="#fff" data-text="o" transform="matrix(10.96391 0 0 -10.7799 104.206 243.923)"/><use xlink:href="#I" fill="#fff" data-text="r" transform="matrix(10.96391 0 0 -10.7799 111.201 243.923)"/><use xlink:href="#aa" fill="#fff" data-text="b" transform="matrix(10.96391 0 0 -10.7799 115.63 243.923)"/><use xlink:href="#d" fill="#fff" data-text="e" transform="matrix(10.96391 0 0 -10.7799 123.064 243.923)"/><use xlink:href="#W" fill="#fff" data-text="ș" transform="matrix(10.96391 0 0 -10.7799 129.83 243.923)"/><use xlink:href="#J" fill="#fff" data-text="t" transform="matrix(10.96391 0 0 -10.7799 135.804 243.923)"/><use xlink:href="#d" fill="#fff" data-text="e" transform="matrix(10.96391 0 0 -10.7799 140.058 243.923)"/><use xlink:href="#b" fill="#fff" transform="matrix(10.96391 0 0 -10.7799 146.823 243.923)"/><use xlink:href="#n" fill="#fff" data-text="d" transform="matrix(10.96391 0 0 -10.7799 149.762 243.923)"/><use xlink:href="#d" fill="#fff" data-text="e" transform="matrix(10.96391 0 0 -10.7799 157.195 243.923)"/><use xlink:href="#f" fill="#fff" data-text="s" transform="matrix(10.96391 0 0 -10.7799 163.96 243.923)"/><use xlink:href="#p" fill="#fff" data-text="p" transform="matrix(10.96391 0 0 -10.7799 169.935 243.923)"/><use xlink:href="#I" fill="#fff" data-text="r" transform="matrix(10.96391 0 0 -10.7799 177.369 243.923)"/><use xlink:href="#d" fill="#fff" data-text="e" transform="matrix(10.96391 0 0 -10.7799 181.798 243.923)"/><use xlink:href="#b" fill="#fff" transform="matrix(10.96391 0 0 -10.7799 188.563 243.923)"/><use xlink:href="#C" fill="#9efc5b" data-text="o" transform="matrix(10.96391 0 0 -10.7799 191.498 243.923)"/><use xlink:href="#x" fill="#9efc5b" transform="matrix(10.96391 0 0 -10.7799 198.482 243.923)"/><use xlink:href="#r" fill="#9efc5b" data-text="c" transform="matrix(10.96391 0 0 -10.7799 201.1 243.923)"/><use xlink:href="#C" fill="#9efc5b" data-text="o" transform="matrix(10.96391 0 0 -10.7799 207.733 243.923)"/><use xlink:href="#ab" fill="#9efc5b" data-text="m" transform="matrix(10.96391 0 0 -10.7799 214.717 243.923)"/><use xlink:href="#s" fill="#9efc5b" data-text="u" transform="matrix(10.96391 0 0 -10.7799 226.328 243.923)"/><use xlink:href="#ac" fill="#9efc5b" data-text="n" transform="matrix(10.96391 0 0 -10.7799 233.718 243.923)"/><use xlink:href="#A" fill="#9efc5b" data-text="i" transform="matrix(10.96391 0 0 -10.7799 241.107 243.923)"/><use xlink:href="#u" fill="#9efc5b" data-text="t" transform="matrix(10.96391 0 0 -10.7799 244.342 243.923)"/><use xlink:href="#z" fill="#9efc5b" data-text="a" transform="matrix(10.96391 0 0 -10.7799 248.793 243.923)"/><use xlink:href="#u" fill="#9efc5b" data-text="t" transform="matrix(10.96391 0 0 -10.7799 256.238 243.923)"/><use xlink:href="#E" fill="#9efc5b" data-text="e" transform="matrix(10.96391 0 0 -10.7799 260.689 243.923)"/><use xlink:href="#ad" fill="#9efc5b" data-text="," transform="matrix(10.96391 0 0 -10.7799 267.443 243.923)"/><use xlink:href="#x" fill="#9efc5b" transform="matrix(10.96391 0 0 -10.7799 270.59 243.923)"/><use xlink:href="#s" fill="#9efc5b" data-text="u" transform="matrix(10.96391 0 0 -10.7799 33.849 256.665)"/><use xlink:href="#ac" fill="#9efc5b" data-text="n" transform="matrix(10.96391 0 0 -10.7799 41.238 256.665)"/><use xlink:href="#x" fill="#9efc5b" transform="matrix(10.96391 0 0 -10.7799 48.628 256.665)"/><use xlink:href="#C" fill="#9efc5b" data-text="o" transform="matrix(10.96391 0 0 -10.7799 70.155 256.665)"/><use xlink:href="#v" fill="#9efc5b" data-text="r" transform="matrix(10.96391 0 0 -10.7799 77.139 256.665)"/><use xlink:href="#z" fill="#9efc5b" data-text="a" transform="matrix(10.96391 0 0 -10.7799 81.832 256.665)"/><use xlink:href="#B" fill="#9efc5b" data-text="ș" transform="matrix(10.96391 0 0 -10.7799 89.276 256.665)"/><use xlink:href="#x" fill="#9efc5b" transform="matrix(10.96391 0 0 -10.7799 95.394 256.665)"/><use xlink:href="#B" fill="#9efc5b" data-text="ș" transform="matrix(10.96391 0 0 -10.7799 116.922 256.665)"/><use xlink:href="#A" fill="#9efc5b" data-text="i" transform="matrix(10.96391 0 0 -10.7799 123.04 256.665)"/><use xlink:href="#x" fill="#9efc5b" transform="matrix(10.96391 0 0 -10.7799 126.274 256.665)"/><use xlink:href="#E" fill="#9efc5b" data-text="e" transform="matrix(10.96391 0 0 -10.7799 147.802 256.665)"/><use xlink:href="#ae" fill="#9efc5b" data-text="x" transform="matrix(10.96391 0 0 -10.7799 154.556 256.665)"/><use xlink:href="#af" fill="#9efc5b" data-text="p" transform="matrix(10.96391 0 0 -10.7799 161.002 256.665)"/><use xlink:href="#E" fill="#9efc5b" data-text="e" transform="matrix(10.96391 0 0 -10.7799 168.447 256.665)"/><use xlink:href="#v" fill="#9efc5b" data-text="r" transform="matrix(10.96391 0 0 -10.7799 175.2 256.665)"/><use xlink:href="#A" fill="#9efc5b" data-text="i" transform="matrix(10.96391 0 0 -10.7799 179.893 256.665)"/><use xlink:href="#E" fill="#9efc5b" data-text="e" transform="matrix(10.96391 0 0 -10.7799 183.128 256.665)"/><use xlink:href="#ac" fill="#9efc5b" data-text="n" transform="matrix(10.96391 0 0 -10.7799 189.881 256.665)"/><use xlink:href="#ag" fill="#9efc5b" data-text="ț" transform="matrix(10.96391 0 0 -10.7799 197.271 256.665)"/><use xlink:href="#E" fill="#9efc5b" data-text="e" transform="matrix(10.96391 0 0 -10.7799 201.722 256.665)"/><use xlink:href="#x" fill="#9efc5b" transform="matrix(10.96391 0 0 -10.7799 208.476 256.665)"/><use xlink:href="#s" fill="#9efc5b" data-text="u" transform="matrix(10.96391 0 0 -10.7799 230.001 256.665)"/><use xlink:href="#ab" fill="#9efc5b" data-text="m" transform="matrix(10.96391 0 0 -10.7799 237.39 256.665)"/><use xlink:href="#z" fill="#9efc5b" data-text="a" transform="matrix(10.96391 0 0 -10.7799 249.002 256.665)"/><use xlink:href="#ac" fill="#9efc5b" data-text="n" transform="matrix(10.96391 0 0 -10.7799 256.446 256.665)"/><use xlink:href="#E" fill="#9efc5b" data-text="e" transform="matrix(10.96391 0 0 -10.7799 263.836 256.665)"/><use xlink:href="#M" fill="#fff" transform="matrix(10.96391 0 0 -10.7799 270.59 256.665)"/><use xlink:href="#Z" fill="#fff" data-text="f" transform="matrix(10.96391 0 0 -10.7799 33.848 269.406)"/><use xlink:href="#l" fill="#fff" data-text="u" transform="matrix(10.96391 0 0 -10.7799 37.63 269.406)"/><use xlink:href="#h" fill="#fff" data-text="n" transform="matrix(10.96391 0 0 -10.7799 44.878 269.406)"/><use xlink:href="#n" fill="#fff" data-text="d" transform="matrix(10.96391 0 0 -10.7799 52.125 269.406)"/><use xlink:href="#e" fill="#fff" data-text="a" transform="matrix(10.96391 0 0 -10.7799 59.559 269.406)"/><use xlink:href="#g" fill="#fff" data-text="m" transform="matrix(10.96391 0 0 -10.7799 66.992 269.406)"/><use xlink:href="#d" fill="#fff" data-text="e" transform="matrix(10.96391 0 0 -10.7799 78.482 269.406)"/><use xlink:href="#h" fill="#fff" data-text="n" transform="matrix(10.96391 0 0 -10.7799 85.247 269.406)"/><use xlink:href="#J" fill="#fff" data-text="t" transform="matrix(10.96391 0 0 -10.7799 92.494 269.406)"/><use xlink:href="#e" fill="#fff" data-text="a" transform="matrix(10.96391 0 0 -10.7799 96.748 269.406)"/><use xlink:href="#k" fill="#fff" data-text="l" transform="matrix(10.96391 0 0 -10.7799 104.182 269.406)"/><use xlink:href="#d" fill="#fff" data-text="e" transform="matrix(10.96391 0 0 -10.7799 107.23 269.406)"/><use xlink:href="#b" fill="#fff" transform="matrix(10.96391 0 0 -10.7799 113.995 269.406)"/><use xlink:href="#W" fill="#fff" data-text="ș" transform="matrix(10.96391 0 0 -10.7799 116.336 269.406)"/><use xlink:href="#o" fill="#fff" data-text="i" transform="matrix(10.96391 0 0 -10.7799 122.312 269.406)"/><use xlink:href="#b" fill="#fff" transform="matrix(10.96391 0 0 -10.7799 125.36 269.406)"/><use xlink:href="#q" fill="#fff" data-text="o" transform="matrix(10.96391 0 0 -10.7799 127.702 269.406)"/><use xlink:href="#b" fill="#fff" transform="matrix(10.96391 0 0 -10.7799 134.697 269.406)"/><use xlink:href="#Z" fill="#fff" data-text="f" transform="matrix(10.96391 0 0 -10.7799 137.038 269.406)"/><use xlink:href="#e" fill="#fff" data-text="a" transform="matrix(10.96391 0 0 -10.7799 140.82 269.406)"/><use xlink:href="#H" fill="#fff" data-text="c" transform="matrix(10.96391 0 0 -10.7799 148.254 269.406)"/><use xlink:href="#d" fill="#fff" data-text="e" transform="matrix(10.96391 0 0 -10.7799 154.855 269.406)"/><use xlink:href="#b" fill="#fff" transform="matrix(10.96391 0 0 -10.7799 161.62 269.406)"/><use xlink:href="#p" fill="#fff" data-text="p" transform="matrix(10.96391 0 0 -10.7799 163.962 269.406)"/><use xlink:href="#I" fill="#fff" data-text="r" transform="matrix(10.96391 0 0 -10.7799 171.396 269.406)"/><use xlink:href="#o" fill="#fff" data-text="i" transform="matrix(10.96391 0 0 -10.7799 175.825 269.406)"/><use xlink:href="#h" fill="#fff" data-text="n" transform="matrix(10.96391 0 0 -10.7799 178.873 269.406)"/><use xlink:href="#J" fill="#fff" data-text="t" transform="matrix(10.96391 0 0 -10.7799 186.12 269.406)"/><use xlink:href="#I" fill="#fff" data-text="r" transform="matrix(10.96391 0 0 -10.7799 190.374 269.406)"/><use xlink:href="#T" fill="#fff" data-text="-" transform="matrix(10.96391 0 0 -10.7799 194.804 269.406)"/><use xlink:href="#q" fill="#fff" data-text="o" transform="matrix(10.96391 0 0 -10.7799 201.195 269.406)"/><use xlink:href="#b" fill="#fff" transform="matrix(10.96391 0 0 -10.7799 208.19 269.406)"/><use xlink:href="#d" fill="#fff" data-text="e" transform="matrix(10.96391 0 0 -10.7799 210.532 269.406)"/><use xlink:href="#ah" fill="#fff" data-text="x" transform="matrix(10.96391 0 0 -10.7799 217.297 269.406)"/><use xlink:href="#p" fill="#fff" data-text="p" transform="matrix(10.96391 0 0 -10.7799 223.217 269.406)"/><use xlink:href="#d" fill="#fff" data-text="e" transform="matrix(10.96391 0 0 -10.7799 230.65 269.406)"/><use xlink:href="#I" fill="#fff" data-text="r" transform="matrix(10.96391 0 0 -10.7799 237.416 269.406)"/><use xlink:href="#o" fill="#fff" data-text="i" transform="matrix(10.96391 0 0 -10.7799 241.845 269.406)"/><use xlink:href="#d" fill="#fff" data-text="e" transform="matrix(10.96391 0 0 -10.7799 244.893 269.406)"/><use xlink:href="#h" fill="#fff" data-text="n" transform="matrix(10.96391 0 0 -10.7799 251.658 269.406)"/><use xlink:href="#ai" fill="#fff" data-text="ț" transform="matrix(10.96391 0 0 -10.7799 258.905 269.406)"/><use xlink:href="#K" fill="#fff" data-text="ă" transform="matrix(10.96391 0 0 -10.7799 263.159 269.406)"/><use xlink:href="#b" fill="#fff" transform="matrix(10.96391 0 0 -10.7799 270.592 269.406)"/><use xlink:href="#f" fill="#fff" data-text="s" transform="matrix(10.96391 0 0 -10.7799 33.848 282.148)"/><use xlink:href="#p" fill="#fff" data-text="p" transform="matrix(10.96391 0 0 -10.7799 39.824 282.148)"/><use xlink:href="#e" fill="#fff" data-text="a" transform="matrix(10.96391 0 0 -10.7799 47.257 282.148)"/><use xlink:href="#ai" fill="#fff" data-text="ț" transform="matrix(10.96391 0 0 -10.7799 54.69 282.148)"/><use xlink:href="#o" fill="#fff" data-text="i" transform="matrix(10.96391 0 0 -10.7799 58.945 282.148)"/><use xlink:href="#e" fill="#fff" data-text="a" transform="matrix(10.96391 0 0 -10.7799 61.993 282.148)"/><use xlink:href="#k" fill="#fff" data-text="l" transform="matrix(10.96391 0 0 -10.7799 69.426 282.148)"/><use xlink:href="#K" fill="#fff" data-text="ă" transform="matrix(10.96391 0 0 -10.7799 72.474 282.148)"/><use xlink:href="#b" fill="#fff" transform="matrix(10.96391 0 0 -10.7799 79.908 282.148)"/><use xlink:href="#W" fill="#fff" data-text="ș" transform="matrix(10.96391 0 0 -10.7799 86.383 282.148)"/><use xlink:href="#o" fill="#fff" data-text="i" transform="matrix(10.96391 0 0 -10.7799 92.358 282.148)"/><use xlink:href="#b" fill="#fff" transform="matrix(10.96391 0 0 -10.7799 95.406 282.148)"/><use xlink:href="#e" fill="#fff" data-text="a" transform="matrix(10.96391 0 0 -10.7799 101.881 282.148)"/><use xlink:href="#l" fill="#fff" data-text="u" transform="matrix(10.96391 0 0 -10.7799 109.315 282.148)"/><use xlink:href="#n" fill="#fff" data-text="d" transform="matrix(10.96391 0 0 -10.7799 116.562 282.148)"/><use xlink:href="#o" fill="#fff" data-text="i" transform="matrix(10.96391 0 0 -10.7799 123.995 282.148)"/><use xlink:href="#J" fill="#fff" data-text="t" transform="matrix(10.96391 0 0 -10.7799 127.043 282.148)"/><use xlink:href="#o" fill="#fff" data-text="i" transform="matrix(10.96391 0 0 -10.7799 131.297 282.148)"/><use xlink:href="#Y" fill="#fff" data-text="v" transform="matrix(10.96391 0 0 -10.7799 134.345 282.148)"/><use xlink:href="#K" fill="#fff" data-text="ă" transform="matrix(10.96391 0 0 -10.7799 140.913 282.148)"/><use xlink:href="#b" fill="#fff" transform="matrix(10.96391 0 0 -10.7799 148.346 282.148)"/><use xlink:href="#g" fill="#fff" data-text="m" transform="matrix(10.96391 0 0 -10.7799 154.821 282.148)"/><use xlink:href="#e" fill="#fff" data-text="a" transform="matrix(10.96391 0 0 -10.7799 166.312 282.148)"/><use xlink:href="#o" fill="#fff" data-text="i" transform="matrix(10.96391 0 0 -10.7799 173.745 282.148)"/><use xlink:href="#b" fill="#fff" transform="matrix(10.96391 0 0 -10.7799 176.793 282.148)"/><use xlink:href="#n" fill="#fff" data-text="d" transform="matrix(10.96391 0 0 -10.7799 183.269 282.148)"/><use xlink:href="#d" fill="#fff" data-text="e" transform="matrix(10.96391 0 0 -10.7799 190.702 282.148)"/><use xlink:href="#aj" fill="#fff" data-text="g" transform="matrix(10.96391 0 0 -10.7799 197.467 282.148)"/><use xlink:href="#I" fill="#fff" data-text="r" transform="matrix(10.96391 0 0 -10.7799 204.9 282.148)"/><use xlink:href="#e" fill="#fff" data-text="a" transform="matrix(10.96391 0 0 -10.7799 209.33 282.148)"/><use xlink:href="#aa" fill="#fff" data-text="b" transform="matrix(10.96391 0 0 -10.7799 216.763 282.148)"/><use xlink:href="#K" fill="#fff" data-text="ă" transform="matrix(10.96391 0 0 -10.7799 224.197 282.148)"/><use xlink:href="#b" fill="#fff" transform="matrix(10.96391 0 0 -10.7799 231.63 282.148)"/><use xlink:href="#n" fill="#fff" data-text="d" transform="matrix(10.96391 0 0 -10.7799 238.106 282.148)"/><use xlink:href="#d" fill="#fff" data-text="e" transform="matrix(10.96391 0 0 -10.7799 245.539 282.148)"/><use xlink:href="#H" fill="#fff" data-text="c" transform="matrix(10.96391 0 0 -10.7799 252.304 282.148)"/><use xlink:href="#ak" fill="#fff" data-text="â" transform="matrix(10.96391 0 0 -10.7799 258.904 282.148)"/><use xlink:href="#J" fill="#fff" data-text="t" transform="matrix(10.96391 0 0 -10.7799 266.338 282.148)"/><use xlink:href="#b" fill="#fff" transform="matrix(10.96391 0 0 -10.7799 270.592 282.148)"/><use xlink:href="#p" fill="#fff" data-text="p" transform="matrix(10.96391 0 0 -10.7799 33.848 294.89)"/><use xlink:href="#I" fill="#fff" data-text="r" transform="matrix(10.96391 0 0 -10.7799 41.282 294.89)"/><use xlink:href="#o" fill="#fff" data-text="i" transform="matrix(10.96391 0 0 -10.7799 45.711 294.89)"/><use xlink:href="#h" fill="#fff" data-text="n" transform="matrix(10.96391 0 0 -10.7799 48.76 294.89)"/><use xlink:href="#b" fill="#fff" transform="matrix(10.96391 0 0 -10.7799 56.006 294.89)"/><use xlink:href="#g" fill="#fff" data-text="m" transform="matrix(10.96391 0 0 -10.7799 58.616 294.89)"/><use xlink:href="#o" fill="#fff" data-text="i" transform="matrix(10.96391 0 0 -10.7799 70.106 294.89)"/><use xlink:href="#m" fill="#fff" data-text="j" transform="matrix(10.96391 0 0 -10.7799 73.154 294.89)"/><use xlink:href="#k" fill="#fff" data-text="l" transform="matrix(10.96391 0 0 -10.7799 76.202 294.89)"/><use xlink:href="#q" fill="#fff" data-text="o" transform="matrix(10.96391 0 0 -10.7799 79.25 294.89)"/><use xlink:href="#e" fill="#fff" data-text="a" transform="matrix(10.96391 0 0 -10.7799 86.245 294.89)"/><use xlink:href="#H" fill="#fff" data-text="c" transform="matrix(10.96391 0 0 -10.7799 93.678 294.89)"/><use xlink:href="#d" fill="#fff" data-text="e" transform="matrix(10.96391 0 0 -10.7799 100.279 294.89)"/><use xlink:href="#k" fill="#fff" data-text="l" transform="matrix(10.96391 0 0 -10.7799 107.043 294.89)"/><use xlink:href="#d" fill="#fff" data-text="e" transform="matrix(10.96391 0 0 -10.7799 110.091 294.89)"/><use xlink:href="#b" fill="#fff" transform="matrix(10.96391 0 0 -10.7799 116.856 294.89)"/><use xlink:href="#g" fill="#fff" data-text="m" transform="matrix(10.96391 0 0 -10.7799 119.466 294.89)"/><use xlink:href="#l" fill="#fff" data-text="u" transform="matrix(10.96391 0 0 -10.7799 130.956 294.89)"/><use xlink:href="#V" fill="#fff" data-text="z" transform="matrix(10.96391 0 0 -10.7799 138.203 294.89)"/><use xlink:href="#d" fill="#fff" data-text="e" transform="matrix(10.96391 0 0 -10.7799 143.498 294.89)"/><use xlink:href="#e" fill="#fff" data-text="a" transform="matrix(10.96391 0 0 -10.7799 150.263 294.89)"/><use xlink:href="#k" fill="#fff" data-text="l" transform="matrix(10.96391 0 0 -10.7799 157.697 294.89)"/><use xlink:href="#d" fill="#fff" data-text="e" transform="matrix(10.96391 0 0 -10.7799 160.745 294.89)"/><use xlink:href="#b" fill="#fff" transform="matrix(10.96391 0 0 -10.7799 167.51 294.89)"/><use xlink:href="#H" fill="#fff" data-text="c" transform="matrix(10.96391 0 0 -10.7799 170.119 294.89)"/><use xlink:href="#k" fill="#fff" data-text="l" transform="matrix(10.96391 0 0 -10.7799 176.72 294.89)"/><use xlink:href="#e" fill="#fff" data-text="a" transform="matrix(10.96391 0 0 -10.7799 179.767 294.89)"/><use xlink:href="#f" fill="#fff" data-text="s" transform="matrix(10.96391 0 0 -10.7799 187.2 294.89)"/><use xlink:href="#o" fill="#fff" data-text="i" transform="matrix(10.96391 0 0 -10.7799 193.176 294.89)"/><use xlink:href="#H" fill="#fff" data-text="c" transform="matrix(10.96391 0 0 -10.7799 196.224 294.89)"/><use xlink:href="#d" fill="#fff" data-text="e" transform="matrix(10.96391 0 0 -10.7799 202.824 294.89)"/><use xlink:href="#al" fill="#fff" data-text=";" transform="matrix(10.96391 0 0 -10.7799 209.589 294.89)"/><use xlink:href="#am" fill="#fc5b9f" data-text="M" transform="matrix(15.41656 0 0 -15.67985 33.846 331.139)"/><use xlink:href="#an" fill="#fc5b9f" data-text="U" transform="matrix(15.41656 0 0 -15.67985 48.507 331.139)"/><use xlink:href="#ao" fill="#fc5b9f" data-text="Z" transform="matrix(15.41656 0 0 -15.67985 59.592 331.139)"/><use xlink:href="#ap" fill="#fc5b9f" data-text="E" transform="matrix(15.41656 0 0 -15.67985 69.304 331.139)"/><use xlink:href="#an" fill="#fc5b9f" data-text="U" transform="matrix(15.41656 0 0 -15.67985 77.876 331.139)"/><use xlink:href="#aq" fill="#fc5b9f" data-text="L" transform="matrix(15.41656 0 0 -15.67985 88.96 331.139)"/><use xlink:href="#ar" fill="#fc5b9f" transform="matrix(15.41656 0 0 -15.67985 96.761 331.139)"/><use xlink:href="#as" fill="#fc5b9f" data-text="D" transform="matrix(15.41656 0 0 -15.67985 104.192 331.139)"/><use xlink:href="#ap" fill="#fc5b9f" data-text="E" transform="matrix(15.41656 0 0 -15.67985 115.646 331.139)"/><use xlink:href="#ar" fill="#fc5b9f" transform="matrix(15.41656 0 0 -15.67985 124.218 331.139)"/><use xlink:href="#at" fill="#fc5b9f" data-text="A" transform="matrix(15.41656 0 0 -15.67985 131.65 331.139)"/><use xlink:href="#au" fill="#fc5b9f" data-text="R" transform="matrix(15.41656 0 0 -15.67985 143.567 331.139)"/><use xlink:href="#av" fill="#fc5b9f" data-text="T" transform="matrix(15.41656 0 0 -15.67985 153.896 331.139)"/><use xlink:href="#aw" fill="#fc5b9f" data-text="Ă" transform="matrix(15.41656 0 0 -15.67985 163.393 331.139)"/><use xlink:href="#b" fill="#fff" transform="matrix(10.96391 0 0 -10.7799 175.31 331.139)"/><use xlink:href="#T" fill="#fff" data-text="-" transform="matrix(10.96391 0 0 -10.7799 182.71 331.139)"/><use xlink:href="#b" fill="#fff" transform="matrix(10.96391 0 0 -10.7799 189.101 331.139)"/><use xlink:href="#ax" fill="#fff" data-text="R" transform="matrix(10.96391 0 0 -10.7799 196.5 331.139)"/><use xlink:href="#d" fill="#fff" data-text="e" transform="matrix(10.96391 0 0 -10.7799 203.528 331.139)"/><use xlink:href="#p" fill="#fff" data-text="p" transform="matrix(10.96391 0 0 -10.7799 210.293 331.139)"/><use xlink:href="#I" fill="#fff" data-text="r" transform="matrix(10.96391 0 0 -10.7799 217.727 331.139)"/><use xlink:href="#d" fill="#fff" data-text="e" transform="matrix(10.96391 0 0 -10.7799 222.156 331.139)"/><use xlink:href="#V" fill="#fff" data-text="z" transform="matrix(10.96391 0 0 -10.7799 228.92 331.139)"/><use xlink:href="#o" fill="#fff" data-text="i" transform="matrix(10.96391 0 0 -10.7799 234.216 331.139)"/><use xlink:href="#h" fill="#fff" data-text="n" transform="matrix(10.96391 0 0 -10.7799 237.264 331.139)"/><use xlink:href="#J" fill="#fff" data-text="t" transform="matrix(10.96391 0 0 -10.7799 244.512 331.139)"/><use xlink:href="#K" fill="#fff" data-text="ă" transform="matrix(10.96391 0 0 -10.7799 248.766 331.139)"/><use xlink:href="#b" fill="#fff" transform="matrix(10.96391 0 0 -10.7799 256.2 331.139)"/><use xlink:href="#q" fill="#fff" data-text="o" transform="matrix(10.96391 0 0 -10.7799 263.596 331.139)"/><use xlink:href="#b" fill="#fff" transform="matrix(10.96391 0 0 -10.7799 270.591 331.139)"/><use xlink:href="#o" fill="#fff" data-text="i" transform="matrix(10.96391 0 0 -10.7799 33.842 343.88)"/><use xlink:href="#h" fill="#fff" data-text="n" transform="matrix(10.96391 0 0 -10.7799 36.89 343.88)"/><use xlink:href="#f" fill="#fff" data-text="s" transform="matrix(10.96391 0 0 -10.7799 44.137 343.88)"/><use xlink:href="#J" fill="#fff" data-text="t" transform="matrix(10.96391 0 0 -10.7799 50.113 343.88)"/><use xlink:href="#o" fill="#fff" data-text="i" transform="matrix(10.96391 0 0 -10.7799 54.367 343.88)"/><use xlink:href="#J" fill="#fff" data-text="t" transform="matrix(10.96391 0 0 -10.7799 57.415 343.88)"/><use xlink:href="#l" fill="#fff" data-text="u" transform="matrix(10.96391 0 0 -10.7799 61.669 343.88)"/><use xlink:href="#ai" fill="#fff" data-text="ț" transform="matrix(10.96391 0 0 -10.7799 68.916 343.88)"/><use xlink:href="#o" fill="#fff" data-text="i" transform="matrix(10.96391 0 0 -10.7799 73.17 343.88)"/><use xlink:href="#d" fill="#fff" data-text="e" transform="matrix(10.96391 0 0 -10.7799 76.218 343.88)"/><use xlink:href="#b" fill="#fff" transform="matrix(10.96391 0 0 -10.7799 82.983 343.88)"/><use xlink:href="#p" fill="#fff" data-text="p" transform="matrix(10.96391 0 0 -10.7799 87.409 343.88)"/><use xlink:href="#l" fill="#fff" data-text="u" transform="matrix(10.96391 0 0 -10.7799 94.842 343.88)"/><use xlink:href="#aa" fill="#fff" data-text="b" transform="matrix(10.96391 0 0 -10.7799 102.09 343.88)"/><use xlink:href="#k" fill="#fff" data-text="l" transform="matrix(10.96391 0 0 -10.7799 109.523 343.88)"/><use xlink:href="#o" fill="#fff" data-text="i" transform="matrix(10.96391 0 0 -10.7799 112.571 343.88)"/><use xlink:href="#H" fill="#fff" data-text="c" transform="matrix(10.96391 0 0 -10.7799 115.619 343.88)"/><use xlink:href="#K" fill="#fff" data-text="ă" transform="matrix(10.96391 0 0 -10.7799 122.22 343.88)"/><use xlink:href="#b" fill="#fff" transform="matrix(10.96391 0 0 -10.7799 129.653 343.88)"/><use xlink:href="#n" fill="#fff" data-text="d" transform="matrix(10.96391 0 0 -10.7799 134.079 343.88)"/><use xlink:href="#d" fill="#fff" data-text="e" transform="matrix(10.96391 0 0 -10.7799 141.513 343.88)"/><use xlink:href="#b" fill="#fff" transform="matrix(10.96391 0 0 -10.7799 148.277 343.88)"/><use xlink:href="#H" fill="#fff" data-text="c" transform="matrix(10.96391 0 0 -10.7799 152.703 343.88)"/><use xlink:href="#l" fill="#fff" data-text="u" transform="matrix(10.96391 0 0 -10.7799 159.304 343.88)"/><use xlink:href="#k" fill="#fff" data-text="l" transform="matrix(10.96391 0 0 -10.7799 166.55 343.88)"/><use xlink:href="#J" fill="#fff" data-text="t" transform="matrix(10.96391 0 0 -10.7799 169.599 343.88)"/><use xlink:href="#l" fill="#fff" data-text="u" transform="matrix(10.96391 0 0 -10.7799 173.853 343.88)"/><use xlink:href="#I" fill="#fff" data-text="r" transform="matrix(10.96391 0 0 -10.7799 181.1 343.88)"/><use xlink:href="#K" fill="#fff" data-text="ă" transform="matrix(10.96391 0 0 -10.7799 185.53 343.88)"/><use xlink:href="#b" fill="#fff" transform="matrix(10.96391 0 0 -10.7799 192.963 343.88)"/><use xlink:href="#H" fill="#fff" data-text="c" transform="matrix(10.96391 0 0 -10.7799 197.389 343.88)"/><use xlink:href="#e" fill="#fff" data-text="a" transform="matrix(10.96391 0 0 -10.7799 203.99 343.88)"/><use xlink:href="#I" fill="#fff" data-text="r" transform="matrix(10.96391 0 0 -10.7799 211.423 343.88)"/><use xlink:href="#d" fill="#fff" data-text="e" transform="matrix(10.96391 0 0 -10.7799 215.852 343.88)"/><use xlink:href="#b" fill="#fff" transform="matrix(10.96391 0 0 -10.7799 222.617 343.88)"/><use xlink:href="#p" fill="#fff" data-text="p" transform="matrix(10.96391 0 0 -10.7799 227.043 343.88)"/><use xlink:href="#l" fill="#fff" data-text="u" transform="matrix(10.96391 0 0 -10.7799 234.476 343.88)"/><use xlink:href="#h" fill="#fff" data-text="n" transform="matrix(10.96391 0 0 -10.7799 241.723 343.88)"/><use xlink:href="#d" fill="#fff" data-text="e" transform="matrix(10.96391 0 0 -10.7799 248.97 343.88)"/><use xlink:href="#b" fill="#fff" transform="matrix(10.96391 0 0 -10.7799 255.735 343.88)"/><use xlink:href="#ay" fill="#fff" data-text="î" transform="matrix(10.96391 0 0 -10.7799 260.16 343.88)"/><use xlink:href="#h" fill="#fff" data-text="n" transform="matrix(10.96391 0 0 -10.7799 263.34 343.88)"/><use xlink:href="#b" fill="#fff" transform="matrix(10.96391 0 0 -10.7799 270.587 343.88)"/><use xlink:href="#Y" fill="#fff" data-text="v" transform="matrix(10.96391 0 0 -10.7799 33.842 356.622)"/><use xlink:href="#e" fill="#fff" data-text="a" transform="matrix(10.96391 0 0 -10.7799 40.41 356.622)"/><use xlink:href="#k" fill="#fff" data-text="l" transform="matrix(10.96391 0 0 -10.7799 47.843 356.622)"/><use xlink:href="#q" fill="#fff" data-text="o" transform="matrix(10.96391 0 0 -10.7799 50.891 356.622)"/><use xlink:href="#e" fill="#fff" data-text="a" transform="matrix(10.96391 0 0 -10.7799 57.886 356.622)"/><use xlink:href="#I" fill="#fff" data-text="r" transform="matrix(10.96391 0 0 -10.7799 65.32 356.622)"/><use xlink:href="#d" fill="#fff" data-text="e" transform="matrix(10.96391 0 0 -10.7799 69.75 356.622)"/><use xlink:href="#b" fill="#fff" transform="matrix(10.96391 0 0 -10.7799 76.514 356.622)"/><use xlink:href="#af" fill="#9efc5b" data-text="p" transform="matrix(10.96391 0 0 -10.7799 80.176 356.622)"/><use xlink:href="#z" fill="#9efc5b" data-text="a" transform="matrix(10.96391 0 0 -10.7799 87.62 356.622)"/><use xlink:href="#u" fill="#9efc5b" data-text="t" transform="matrix(10.96391 0 0 -10.7799 95.065 356.622)"/><use xlink:href="#v" fill="#9efc5b" data-text="r" transform="matrix(10.96391 0 0 -10.7799 99.516 356.622)"/><use xlink:href="#A" fill="#9efc5b" data-text="i" transform="matrix(10.96391 0 0 -10.7799 104.21 356.622)"/><use xlink:href="#ab" fill="#9efc5b" data-text="m" transform="matrix(10.96391 0 0 -10.7799 107.443 356.622)"/><use xlink:href="#C" fill="#9efc5b" data-text="o" transform="matrix(10.96391 0 0 -10.7799 119.054 356.622)"/><use xlink:href="#ac" fill="#9efc5b" data-text="n" transform="matrix(10.96391 0 0 -10.7799 126.038 356.622)"/><use xlink:href="#A" fill="#9efc5b" data-text="i" transform="matrix(10.96391 0 0 -10.7799 133.428 356.622)"/><use xlink:href="#s" fill="#9efc5b" data-text="u" transform="matrix(10.96391 0 0 -10.7799 136.662 356.622)"/><use xlink:href="#t" fill="#9efc5b" data-text="l" transform="matrix(10.96391 0 0 -10.7799 144.052 356.622)"/><use xlink:href="#x" fill="#9efc5b" transform="matrix(10.96391 0 0 -10.7799 147.286 356.622)"/><use xlink:href="#v" fill="#9efc5b" data-text="r" transform="matrix(10.96391 0 0 -10.7799 150.543 356.622)"/><use xlink:href="#E" fill="#9efc5b" data-text="e" transform="matrix(10.96391 0 0 -10.7799 155.236 356.622)"/><use xlink:href="#z" fill="#9efc5b" data-text="a" transform="matrix(10.96391 0 0 -10.7799 161.99 356.622)"/><use xlink:href="#t" fill="#9efc5b" data-text="l" transform="matrix(10.96391 0 0 -10.7799 169.434 356.622)"/><use xlink:href="#x" fill="#9efc5b" transform="matrix(10.96391 0 0 -10.7799 172.669 356.622)"/><use xlink:href="#B" fill="#9efc5b" data-text="ș" transform="matrix(10.96391 0 0 -10.7799 175.925 356.622)"/><use xlink:href="#A" fill="#9efc5b" data-text="i" transform="matrix(10.96391 0 0 -10.7799 182.043 356.622)"/><use xlink:href="#x" fill="#9efc5b" transform="matrix(10.96391 0 0 -10.7799 185.277 356.622)"/><use xlink:href="#y" fill="#9efc5b" data-text="v" transform="matrix(10.96391 0 0 -10.7799 188.536 356.622)"/><use xlink:href="#A" fill="#9efc5b" data-text="i" transform="matrix(10.96391 0 0 -10.7799 195.4 356.622)"/><use xlink:href="#v" fill="#9efc5b" data-text="r" transform="matrix(10.96391 0 0 -10.7799 198.634 356.622)"/><use xlink:href="#u" fill="#9efc5b" data-text="t" transform="matrix(10.96391 0 0 -10.7799 203.327 356.622)"/><use xlink:href="#s" fill="#9efc5b" data-text="u" transform="matrix(10.96391 0 0 -10.7799 207.778 356.622)"/><use xlink:href="#z" fill="#9efc5b" data-text="a" transform="matrix(10.96391 0 0 -10.7799 215.168 356.622)"/><use xlink:href="#t" fill="#9efc5b" data-text="l" transform="matrix(10.96391 0 0 -10.7799 222.612 356.622)"/><use xlink:href="#x" fill="#9efc5b" transform="matrix(10.96391 0 0 -10.7799 225.846 356.622)"/><use xlink:href="#az" fill="#9efc5b" data-text="d" transform="matrix(10.96391 0 0 -10.7799 229.103 356.622)"/><use xlink:href="#E" fill="#9efc5b" data-text="e" transform="matrix(10.96391 0 0 -10.7799 236.547 356.622)"/><use xlink:href="#x" fill="#9efc5b" transform="matrix(10.96391 0 0 -10.7799 243.3 356.622)"/><use xlink:href="#z" fill="#9efc5b" data-text="a" transform="matrix(10.96391 0 0 -10.7799 246.56 356.622)"/><use xlink:href="#v" fill="#9efc5b" data-text="r" transform="matrix(10.96391 0 0 -10.7799 254.004 356.622)"/><use xlink:href="#u" fill="#9efc5b" data-text="t" transform="matrix(10.96391 0 0 -10.7799 258.697 356.622)"/><use xlink:href="#w" fill="#9efc5b" data-text="ă" transform="matrix(10.96391 0 0 -10.7799 263.148 356.622)"/><use xlink:href="#x" fill="#9efc5b" transform="matrix(10.96391 0 0 -10.7799 270.592 356.622)"/><use xlink:href="#v" fill="#9efc5b" data-text="r" transform="matrix(10.96391 0 0 -10.7799 33.842 369.364)"/><use xlink:href="#C" fill="#9efc5b" data-text="o" transform="matrix(10.96391 0 0 -10.7799 38.535 369.364)"/><use xlink:href="#ab" fill="#9efc5b" data-text="m" transform="matrix(10.96391 0 0 -10.7799 45.519 369.364)"/><use xlink:href="#aA" fill="#9efc5b" data-text="â" transform="matrix(10.96391 0 0 -10.7799 57.13 369.364)"/><use xlink:href="#ac" fill="#9efc5b" data-text="n" transform="matrix(10.96391 0 0 -10.7799 64.574 369.364)"/><use xlink:href="#E" fill="#9efc5b" data-text="e" transform="matrix(10.96391 0 0 -10.7799 71.964 369.364)"/><use xlink:href="#z" fill="#9efc5b" data-text="a" transform="matrix(10.96391 0 0 -10.7799 78.718 369.364)"/><use xlink:href="#D" fill="#9efc5b" data-text="s" transform="matrix(10.96391 0 0 -10.7799 86.162 369.364)"/><use xlink:href="#r" fill="#9efc5b" data-text="c" transform="matrix(10.96391 0 0 -10.7799 92.28 369.364)"/><use xlink:href="#w" fill="#9efc5b" data-text="ă" transform="matrix(10.96391 0 0 -10.7799 98.913 369.364)"/><use xlink:href="#x" fill="#9efc5b" transform="matrix(10.96391 0 0 -10.7799 106.358 369.364)"/><use xlink:href="#s" fill="#9efc5b" data-text="u" transform="matrix(10.96391 0 0 -10.7799 108.682 369.364)"/><use xlink:href="#ac" fill="#9efc5b" data-text="n" transform="matrix(10.96391 0 0 -10.7799 116.072 369.364)"/><use xlink:href="#A" fill="#9efc5b" data-text="i" transform="matrix(10.96391 0 0 -10.7799 123.461 369.364)"/><use xlink:href="#y" fill="#9efc5b" data-text="v" transform="matrix(10.96391 0 0 -10.7799 126.696 369.364)"/><use xlink:href="#E" fill="#9efc5b" data-text="e" transform="matrix(10.96391 0 0 -10.7799 133.56 369.364)"/><use xlink:href="#v" fill="#9efc5b" data-text="r" transform="matrix(10.96391 0 0 -10.7799 140.313 369.364)"/><use xlink:href="#D" fill="#9efc5b" data-text="s" transform="matrix(10.96391 0 0 -10.7799 145.006 369.364)"/><use xlink:href="#z" fill="#9efc5b" data-text="a" transform="matrix(10.96391 0 0 -10.7799 151.123 369.364)"/><use xlink:href="#t" fill="#9efc5b" data-text="l" transform="matrix(10.96391 0 0 -10.7799 158.568 369.364)"/><use xlink:href="#w" fill="#9efc5b" data-text="ă" transform="matrix(10.96391 0 0 -10.7799 161.802 369.364)"/><use xlink:href="#al" fill="#fff" data-text=";" transform="matrix(10.96391 0 0 -10.7799 169.246 369.364)"/><use xlink:href="#aB" fill="#fc5b9f" data-text="3" transform="matrix(49.62216 0 0 -50.46954 191.137 72.84)"/><use xlink:href="#aC" fill="#fc5b9f" data-text="." transform="matrix(49.62216 0 0 -50.46954 221.655 72.84)"/><use xlink:href="#aD" fill="#fc5b9f" data-text="5" transform="matrix(49.62216 0 0 -50.46954 237.484 72.84)"/><use xlink:href="#aE" fill="#fc5b9f" transform="matrix(49.62216 0 0 -50.46954 270.235 72.84)"/><use xlink:href="#aF" fill="#fc5b9f" data-text="C" transform="matrix(49.62216 0 0 -50.46954 34.232 129.668)"/><use xlink:href="#an" fill="#fc5b9f" data-text="U" transform="matrix(49.62216 0 0 -50.46954 71.598 129.668)"/><use xlink:href="#aq" fill="#fc5b9f" data-text="L" transform="matrix(49.62216 0 0 -50.46954 107.276 129.668)"/><use xlink:href="#av" fill="#fc5b9f" data-text="T" transform="matrix(49.62216 0 0 -50.46954 132.385 129.668)"/><use xlink:href="#an" fill="#fc5b9f" data-text="U" transform="matrix(49.62216 0 0 -50.46954 162.952 129.668)"/><use xlink:href="#au" fill="#fc5b9f" data-text="R" transform="matrix(49.62216 0 0 -50.46954 198.63 129.668)"/><use xlink:href="#aw" fill="#fc5b9f" data-text="Ă" transform="matrix(49.62216 0 0 -50.46954 231.877 129.668)"/><use xlink:href="#aG" fill="#fff" data-text="6" transform="matrix(14.69986 0 0 -14.69986 33.846 397.48)"/><use xlink:href="#aH" fill="#fff" data-text="0" transform="matrix(14.69986 0 0 -14.69986 43.151 397.48)"/></g></svg>