<svg xmlns="http://www.w3.org/2000/svg" xmlns:xlink="http://www.w3.org/1999/xlink" width="297.636" height="419.526"><defs><path id="c" d="M.606.708V.532H.418V0H.196v.532H.01v.176z"/><path id="d" d="M.272.708V0H.05v.708z"/><path id="e" d="M.629.465A.24.24 0 0 0 .598.343.22.22 0 0 0 .506.257.3.3 0 0 0 .36.225H.272V0H.05v.708h.31q.13 0 .2-.066A.23.23 0 0 0 .628.465M.335.4Q.404.4.404.465T.334.53H.273V.4z"/><path id="f" d="M.327-.007a.35.35 0 0 0-.21.06.22.22 0 0 0-.089.174h.236Q.27.167.318.166q.02 0 .031.009Q.362.183.362.2q0 .025-.027.04A1 1 0 0 1 .25.278a1 1 0 0 0-.113.047.2.2 0 0 0-.077.067.2.2 0 0 0-.03.113q0 .069.035.117a.2.2 0 0 0 .097.074A.4.4 0 0 0 .3.72q.13 0 .207-.06a.21.21 0 0 0 .08-.17H.35Q.348.52.335.535A.05.05 0 0 1 .3.547a.03.03 0 0 1-.023-.01.04.04 0 0 1-.009-.026q0-.025.027-.04A1 1 0 0 1 .379.434 1 1 0 0 0 .49.386.2.2 0 0 0 .566.322.16.16 0 0 0 .598.219.2.2 0 0 0 .566.102a.2.2 0 0 0-.094-.08.34.34 0 0 0-.145-.029"/><path id="g" d="m.587 0-.05.046a.4.4 0 0 0-.22-.056.4.4 0 0 0-.15.027.2.2 0 0 0-.097.076.2.2 0 0 0-.034.114q0 .06.032.111a.25.25 0 0 0 .094.086.181.181 0 0 0-.018.219q.03.045.084.071.055.027.13.027Q.437.72.49.693a.185.185 0 0 0 .108-.17H.396q0 .02-.011.03a.04.04 0 0 1-.026.009.04.04 0 0 1-.028-.01A.03.03 0 0 1 .32.526q0-.033.044-.074l.16-.156q.014.027.026.06l.003.01h.215L.758.34A.8.8 0 0 0 .664.162L.83 0zM.333.165Q.369.165.4.176l-.118.11A.1.1 0 0 1 .257.258.1.1 0 0 1 .248.227q0-.026.022-.044A.1.1 0 0 1 .333.165"/><path id="h" d="M.406 0 .273.254H.272V0H.05v.708h.33q.085 0 .147-.03A.21.21 0 0 0 .649.476.2.2 0 0 0 .609.35.22.22 0 0 0 .496.271L.65 0zM.272.402H.36q.032 0 .048.015t.016.045a.06.06 0 0 1-.017.044Q.391.522.36.522H.272z"/><path id="i" d="M.03.355a.4.4 0 0 0 .042.187.3.3 0 0 0 .122.127q.08.046.186.046A.4.4 0 0 0 .544.68.3.3 0 0 0 .662.583.35.35 0 0 0 .723.436H.489A.12.12 0 0 1 .376.51.1.1 0 0 1 .288.468.18.18 0 0 1 .255.355.18.18 0 0 1 .288.242.1.1 0 0 1 .376.2a.12.12 0 0 1 .113.074h.234a.35.35 0 0 0-.06-.147A.3.3 0 0 0 .543.03.4.4 0 0 0 .38-.005a.37.37 0 0 0-.186.046.3.3 0 0 0-.122.127.4.4 0 0 0-.042.187"/><path id="j" d="M.478 0 .272.307V0H.05v.708h.222V.41l.203.298h.25L.483.369.742 0z"/><clipPath id="a"><path fill-rule="evenodd" d="M0 419.526h297.636V0H0Z"/></clipPath><clipPath id="b"><path d="M0 425.659h605.44V-6.132H0Z"/></clipPath></defs><g clip-path="url(#a)" data-name="Layer 1"><g clip-path="url(#b)"><path fill="#2f4ab1" d="M388.76 117.26c14.796-.237 101.377-38.476 108.745-48.057-43.763 2.525-76.316 25.126-108.745 48.057M260.623 303.208c5.582 0 11.167.024 16.75-.012 2.179-.014 4.629-.003 5.707-2.22 1.557-3.203-1.65-4.204-3.368-5.63-11.536-9.574-21.11-20.662-27.04-34.424-2.311-5.365-5.446-6.533-10.872-4.431-16.217 6.283-31.662 13.85-45.3 24.69-3.11 2.475-7.523 4.638-6.113 9.267 1.234 4.05 5.735 5.05 9.61 6.22 19.78 5.974 40.286 5.765 60.626 6.54m100.47-72.18c-17.86 1.37-35.86 2.45-53.46 6.65-3.098.738-7.52-.84-8.838 3.406-1.352 4.352 1.795 7.268 4.459 10.393 12.23 14.347 28.857 19.87 46.773 21.664 22.384 2.24 44.051-.796 62.932-14.04 7.243-5.079 6.95-10.945.046-16.37-2.386-1.874-5.196-3.34-8.01-4.555-13.965-6.033-28.888-6.454-43.902-7.147M78.543-5.933h52.242c5.199 8.035 13.013 12.984 21.618 16.462 32.68 13.207 66.945 15.019 101.64 12.643 15.508-1.064 31.021-2.343 46.554-1.8 19.5.684 32.575 13.23 31.74 29.908-.47 9.422-5.616 16.694-12.54 22.666-15.504 13.382-33.56 22.962-51.41 32.831-53.53 29.585-108.377 56.952-159.153 91.176-17.7 11.93-34.848 24.612-48.59 41.056-8.954 10.715-6.146 17.744 7.774 20.44 11.754 2.276 22.776-.672 33.637-4.724 31.043-11.584 58.094-29.963 84.867-48.69 56.407-39.458 108.57-84.44 165.42-123.325 33.399-22.84 67.284-44.923 107.073-55.888 25.38-6.996 50.39-7.373 73.756 6.715 14.17 8.542 24.603 19.824 23.472 37.67-.996 15.7-10.404 26.42-22.81 34.865-25.979 17.685-55.326 28.634-84.257 40.451-24.13 9.857-48.01 20.309-71.942 30.621-1.803.776-4.663 1.397-4.512 3.985.19 3.195 3.235 1.885 5.119 2.348 11.724 2.882 23.913 3.238 35.548 6.797 18.867 5.772 34.702 15.765 45.209 32.33 9.139 14.409 11.224 30.151 5.2 46.536-1.103 2.995-2.747 8.394 2.35 7.602 9.636-1.498 21.235-.74 28.157-7.923 16.43-17.06 36.928-17.14 57.83-15.765 17.313 1.14 27.018 18.988 19.965 34.486-2.842 6.241-7.183 10.87-13.409 13.275-8.352 3.228-8.249 7.307-3.127 13.552 4.469 5.449 8.434 11.363 12.067 17.396 14.45 24.006 26.971 48.707 30.074 77.117.603 5.531-.847 12.214 4.726 16.604h-50.378c-1.927-8.937-3.305-18.03-5.89-26.78-8.205-27.783-25.468-50.62-42.148-73.802-3.703-5.146-6.88-6.089-13.092-4.59-35.275 8.504-71.034 14.8-106.91 20.19-34.974 5.254-70.223 8.82-105.586 10.168-32.304 1.233-64.63.77-95.83-9.49-17.998-5.921-33.226-15.645-40.614-33.557-6.463-15.675-5.825-15.93-21.628-9.235-.281.12-.508.373-.795.474-28.912 10.088-57.363 14.339-85.877-2.281-24.425-14.238-34.506-42.595-22.917-67.899 11.421-24.932 31.975-41.713 53.304-57.56 46.15-34.283 97.274-60.58 147.662-88.047 4.67-2.546 13.65-4.313 12.64-8.865-1.345-6.05-10.094-3.69-15.514-3.932-33.65-1.514-65.938-7.879-94.506-26.301-18.387-11.856-32.14-27.66-36.209-49.91"/><path fill="#202b6d" d="M78.543-5.933c4.069 22.25 17.823 38.054 36.21 49.91 28.566 18.422 60.856 24.787 94.504 26.301 5.42.243 14.17-2.119 15.515 3.932 1.011 4.552-7.97 6.319-12.64 8.865-50.388 27.468-101.513 53.764-147.662 88.048-21.328 15.846-41.884 32.627-53.304 57.559-11.589 25.304-1.509 53.661 22.918 67.899 28.513 16.62 56.964 12.37 85.876 2.28.286-.1.513-.354.795-.473 15.804-6.695 15.165-6.44 21.63 9.235 7.386 17.912 22.615 27.636 40.612 33.556 31.2 10.262 63.526 10.724 95.83 9.492 35.363-1.35 70.612-4.915 105.59-10.169 35.872-5.39 71.631-11.686 106.906-20.19 6.211-1.499 9.389-.556 13.092 4.59 16.68 23.183 33.943 46.019 42.15 73.803 2.583 8.748 3.96 17.842 5.888 26.779-181.604 0-363.206-.043-544.81.175-6.389.008-7.653-1.232-7.643-7.518Q.351 209.776 0 1.41c-.01-6.288 1.233-7.665 7.646-7.533 23.624.48 47.263.19 70.897.19"/><path fill="#202b6d" d="M602.83 425.484c-5.572-4.391-4.122-11.074-4.725-16.603-3.103-28.41-15.624-53.112-30.076-77.119-3.631-6.033-7.596-11.946-12.065-17.394-5.122-6.246-5.225-10.326 3.127-13.553 6.226-2.406 10.567-7.034 13.409-13.275 7.053-15.498-2.652-33.348-19.966-34.486-20.9-1.375-41.4-1.295-57.83 15.765-6.92 7.183-18.52 6.424-28.158 7.922-5.095.792-3.451-4.606-2.35-7.602 6.024-16.385 3.94-32.126-5.198-46.535-10.507-16.565-26.342-26.558-45.209-32.329-11.635-3.56-23.824-3.915-35.548-6.797-1.884-.464-4.93.846-5.12-2.35-.15-2.587 2.71-3.208 4.513-3.986 23.932-10.313 47.812-20.762 71.942-30.619 28.931-11.817 58.278-22.766 84.258-40.451 12.405-8.446 21.813-19.164 22.81-34.865 1.13-17.846-9.303-29.13-23.473-37.672-23.366-14.086-48.376-13.709-73.756-6.713-39.789 10.965-73.676 33.045-107.072 55.888-56.85 38.882-109.014 83.867-165.423 123.323-26.771 18.728-53.823 37.107-84.865 48.69-10.861 4.054-21.884 7.002-33.637 4.726-13.92-2.695-16.728-9.726-7.773-20.44 13.741-16.443 30.889-29.125 48.589-41.056 50.776-34.224 105.623-61.591 159.153-91.178 17.85-9.867 35.906-19.447 51.41-32.827 6.924-5.974 12.07-13.246 12.54-22.668.835-16.677-12.24-29.227-31.74-29.908-15.533-.543-31.046.736-46.557 1.797-34.692 2.379-68.958.567-101.637-12.64-8.605-3.478-16.42-8.427-21.618-16.462 155.482 0 310.964.02 466.447-.089 5.025-.004 7.682-.232 7.668 6.516-.272 139.52-.185 279.042-.396 418.563-.005 1.883 2.973 5.416-1.673 6.427"/><path fill="#202b6d" d="M361.093 231.029c15.014.693 29.94 1.114 43.903 7.147 2.813 1.215 5.623 2.681 8.009 4.555 6.904 5.425 7.197 11.291-.044 16.37-18.883 13.245-40.55 16.28-62.932 14.04-17.918-1.794-34.545-7.317-46.775-21.664-2.664-3.125-5.81-6.041-4.46-10.393 1.318-4.246 5.741-2.668 8.84-3.407 17.599-4.199 35.599-5.279 53.46-6.648M260.623 303.208c-20.34-.775-40.847-.565-60.626-6.54-3.875-1.17-8.376-2.17-9.61-6.22-1.41-4.63 3.001-6.792 6.114-9.266 13.636-10.84 29.082-18.407 45.299-24.69 5.426-2.102 8.558-.935 10.872 4.43 5.93 13.762 15.501 24.85 27.038 34.424 1.718 1.426 4.925 2.427 3.37 5.63-1.078 2.219-3.53 2.206-5.708 2.22-5.584.037-11.167.012-16.749.012"/></g><path fill="none" stroke="#ff8b00" stroke-miterlimit="10" stroke-width="1.99992" d="M20.882 31.03v16.384h17.025v49.528h20.321V47.414h17.209V31.029zM80.928 96.942h20.321V31.028H80.928ZM163.402 53.651q-.001-10.332-6.362-16.478-6.363-6.142-18.262-6.144h-28.376v65.913h20.32V75.995h8.056q7.872.001 13.41-2.978 5.538-2.977 8.375-8.055 2.837-5.072 2.839-11.31Zm-26.913 6.053h-5.766V47.601h5.766q6.317 0 6.316 6.05.001 6.053-6.316 6.053ZM195.163 97.595q7.689 0 13.272-2.7t8.513-7.495q2.93-4.794 2.93-10.846 0-5.77-2.93-9.59-2.93-3.815-6.91-5.957-3.983-2.142-10.115-4.469-5.31-2.049-7.735-3.491-2.426-1.446-2.425-3.677 0-1.583.823-2.467.824-.886 2.105-.886 1.83.001 3.113 1.212 1.279 1.209 1.373 4.003h21.877q-.368-10.15-7.37-15.734c-4.667-3.725-10.97-5.587-18.901-5.587q-7.05 0-12.678 2.328t-8.879 6.842q-3.25 4.517-3.25 10.94-.092 6.425 2.838 10.518 2.93 4.1 7.003 6.24 4.072 2.141 10.297 4.375c3.48 1.244 6.042 2.343 7.69 3.305q2.471 1.446 2.47 3.77c0 1.116-.38 1.942-1.143 2.468q-1.145.792-2.792.792-4.486 0-4.942-5.681h-21.603q.64 10.71 8.193 16.245 7.55 5.543 19.176 5.542Z"/><use xlink:href="#c" fill="#f3f2f7" data-text="T" transform="matrix(91.53591 0 0 -93.09914 19.966 177.301)"/><use xlink:href="#d" fill="#f3f2f7" data-text="I" transform="matrix(91.53591 0 0 -93.09914 76.352 177.301)"/><use xlink:href="#e" fill="#f3f2f7" data-text="P" transform="matrix(91.53591 0 0 -93.09914 105.826 177.301)"/><use xlink:href="#f" fill="#f3f2f7" data-text="S" transform="matrix(91.53591 0 0 -93.09914 165.233 177.301)"/><path fill="none" stroke="#fec400" stroke-miterlimit="10" stroke-width="1.99992" d="M20.882 191.748v16.385h17.025v49.529h20.321v-49.529h17.209v-16.385zM80.928 257.662h20.321v-65.914H80.928ZM163.402 214.371q-.001-10.335-6.362-16.479-6.363-6.145-18.262-6.144h-28.376v65.914h20.32v-20.947h8.056q7.872.001 13.41-2.98 5.538-2.978 8.375-8.052t2.839-11.312Zm-26.913 6.051h-5.766v-12.103h5.766q6.317 0 6.316 6.052.001 6.052-6.316 6.051ZM195.163 258.312c5.126 0 9.55-.897 13.272-2.699q5.583-2.7 8.513-7.494t2.93-10.846q0-5.772-2.93-9.59-2.93-3.816-6.91-5.958-3.983-2.14-10.115-4.469-5.31-2.046-7.735-3.49-2.426-1.443-2.425-3.679 0-1.581.823-2.465.824-.886 2.105-.886 1.83.001 3.113 1.21 1.279 1.21 1.373 4.005h21.877q-.368-10.148-7.37-15.734c-4.667-3.725-10.97-5.588-18.901-5.588q-7.05.001-12.678 2.328-5.629 2.33-8.879 6.844t-3.25 10.939q-.092 6.424 2.838 10.52 2.93 4.097 7.003 6.238 4.072 2.14 10.297 4.375 5.219 1.863 7.69 3.305 2.471 1.445 2.47 3.77 0 1.677-1.143 2.468-1.145.791-2.792.791-4.486 0-4.942-5.679h-21.603q.64 10.708 8.193 16.246 7.55 5.539 19.176 5.538Z"/><use xlink:href="#g" fill="#f3f2f7" data-text="&amp;" transform="matrix(202.34316 0 0 -205.7981 19.785 386.056)"/><use xlink:href="#c" fill="#fec400" data-text="T" transform="matrix(64.55698 0 0 -65.65939 237.434 76.862)"/><path fill="none" stroke="#fec400" stroke-miterlimit="10" stroke-width="1.99992" d="M238.08 30.374v11.558h12.007v34.93h14.333v-34.93h12.136V30.374z"/><use xlink:href="#h" fill="#fec400" data-text="R" transform="matrix(64.55698 0 0 -65.65939 235.69 138.6)"/><path fill="none" stroke="#fec400" stroke-miterlimit="10" stroke-width="1.99992" d="m277.653 138.6-9.94-17.793q4.774-1.575 7.324-5.188 2.552-3.609 2.551-8.27 0-4.335-1.968-7.784-1.971-3.445-5.908-5.448-3.937-2.002-9.49-2.004H238.92v46.488h14.331v-16.678h.065l8.585 16.678zm-24.403-34.273h5.681q2.002 0 3.067 1.051t1.066 2.887q0 2.038-1.035 2.988-1.031.953-3.098.953h-5.68z"/><use xlink:href="#d" fill="#fec400" data-text="I" transform="matrix(64.55698 0 0 -65.65939 246.925 200.341)"/><path fill="none" stroke="#fec400" stroke-miterlimit="10" stroke-width="1.99992" d="M250.152 200.341h14.331v-46.487h-14.331Z"/><use xlink:href="#i" fill="#fec400" data-text="C" transform="matrix(64.55698 0 0 -65.65939 233.013 262.08)"/><path fill="none" stroke="#fec400" stroke-miterlimit="10" stroke-width="1.99992" d="M234.948 238.772q0 6.895 2.744 12.277 2.743 5.385 7.845 8.372 5.097 2.988 12.007 2.987 5.94 0 10.62-2.265t7.617-6.4q2.938-4.138 3.905-9.654h-15.105q-1.034 2.3-2.938 3.58t-4.356 1.28q-3.619 0-5.714-2.758-2.1-2.758-2.1-7.42 0-4.66 2.1-7.419 2.095-2.759 5.714-2.758 2.451 0 4.356 1.282 1.905 1.278 2.938 3.577h15.105q-.968-5.516-3.905-9.652-2.937-4.137-7.617-6.401-4.68-2.266-10.62-2.267-6.91 0-12.007 2.99-5.102 2.987-7.845 8.37-2.744 5.384-2.744 12.279Z"/><use xlink:href="#j" fill="#fec400" data-text="K" transform="matrix(64.55698 0 0 -65.65939 232.947 323.82)"/><path fill="none" stroke="#fec400" stroke-miterlimit="10" stroke-width="1.99992" d="m280.848 323.82-16.783-24.23 15.75-22.258h-16.204L250.507 296.9v-19.567h-14.333v46.488h14.333v-20.157l13.298 20.157z"/><use xlink:href="#f" fill="#fec400" data-text="S" transform="matrix(64.55698 0 0 -65.65939 237.143 385.559)"/><path fill="none" stroke="#fec400" stroke-miterlimit="10" stroke-width="1.99992" d="M258.254 386.018q5.423 0 9.36-1.904t6.002-5.285q2.068-3.38 2.07-7.65-.002-4.07-2.07-6.763-2.066-2.69-4.874-4.202-2.805-1.51-7.133-3.151-3.745-1.444-5.455-2.463-1.71-1.017-1.709-2.594-.001-1.115.581-1.739.58-.624 1.483-.624 1.293 0 2.196.854.903.853.968 2.823h15.429q-.258-7.156-5.196-11.097-4.94-3.938-13.332-3.939-4.97.001-8.94 1.64-3.971 1.644-6.261 4.827-2.294 3.185-2.293 7.716-.066 4.53 2.002 7.419 2.064 2.89 4.94 4.4 2.869 1.51 7.262 3.086c2.45.876 4.26 1.652 5.421 2.331q1.743 1.018 1.743 2.659 0 1.181-.807 1.739-.806.56-1.97.559-3.162 0-3.485-4.006H238.95q.452 7.552 5.778 11.458t13.526 3.906Z"/></g></svg>