<svg xmlns="http://www.w3.org/2000/svg" xmlns:xlink="http://www.w3.org/1999/xlink" width="297.636" height="419.526"><defs><path id="c" d="M0 0"/><path id="d" d="M.322-.007A.33.33 0 0 0 .12.052a.21.21 0 0 0-.085.167h.21Q.246.183.265.165a.07.07 0 0 1 .05-.017.07.07 0 0 1 .044.014.05.05 0 0 1 .017.037q0 .03-.029.048a.5.5 0 0 1-.094.038A1 1 0 0 0 .143.33a.2.2 0 0 0-.074.063A.18.18 0 0 0 .037.5q0 .068.034.116a.2.2 0 0 0 .094.074q.06.024.136.025A.3.3 0 0 0 .498.658.2.2 0 0 0 .576.497H.363q0 .031-.02.048A.07.07 0 0 1 .297.56.05.05 0 0 1 .26.548Q.245.535.246.51q0-.02.016-.035A.1.1 0 0 1 .3.451L.368.425a1 1 0 0 0 .11-.046.2.2 0 0 0 .076-.063.16.16 0 0 0 .031-.102.21.21 0 0 0-.122-.192.3.3 0 0 0-.14-.029"/><path id="e" d="M.024.281q0 .087.031.152a.24.24 0 0 0 .086.1.2.2 0 0 0 .122.035.2.2 0 0 0 .1-.023.17.17 0 0 0 .065-.062v.078h.196v-.56H.428v.077A.17.17 0 0 0 .362.016a.2.2 0 0 0-.1-.023.2.2 0 0 0-.12.035.24.24 0 0 0-.087.1.35.35 0 0 0-.031.153m.404 0q0 .054-.03.085a.1.1 0 0 1-.072.031.1.1 0 0 1-.073-.03.12.12 0 0 1-.03-.086q0-.054.03-.085A.1.1 0 0 1 .326.164q.043 0 .072.031.03.031.03.086"/><path id="f" d="M.252.74V0H.056v.74z"/><path id="g" d="M.63.561v-.56H.433v.08a.2.2 0 0 0-.07-.062.2.2 0 0 0-.1-.024.2.2 0 0 0-.154.065.26.26 0 0 0-.057.175v.326h.195v-.3q0-.05.026-.076A.09.09 0 0 1 .34.157q.043 0 .068.028A.1.1 0 0 1 .433.26v.301z"/><path id="h" d="M.387.167V0H.302Q.087 0 .087.213v.185h-.07v.163h.07v.136h.197V.561h.102V.398H.284V.21q0-.022.01-.033.011-.01.036-.01z"/><path id="i" d="M.318.741.295.264H.128L.105.741zM.212-.008A.12.12 0 0 0 .13.021a.1.1 0 0 0-.032.072q0 .045.032.073.031.03.083.03.051 0 .083-.03A.1.1 0 0 0 .326.093.1.1 0 0 0 .295.021a.12.12 0 0 0-.083-.029"/><path id="j" d="M0 0"/><path id="k" d="M.544.698V.585H.358V0h-.14v.585H.032v.113z"/><path id="l" d="M.315-.009a.3.3 0 0 0-.144.036.26.26 0 0 0-.1.1.3.3 0 0 0-.037.15q0 .086.037.15a.26.26 0 0 0 .103.1.3.3 0 0 0 .145.036.3.3 0 0 0 .145-.035.26.26 0 0 0 .102-.1.3.3 0 0 0 .038-.15.3.3 0 0 0-.039-.15.27.27 0 0 0-.104-.101.3.3 0 0 0-.146-.036m0 .122q.039 0 .071.019Q.42.15.44.187t.02.09Q.46.357.418.4A.14.14 0 0 1 .317.44.13.13 0 0 1 .217.4Q.174.357.175.277q0-.078.04-.121A.13.13 0 0 1 .314.113"/><path id="m" d="M.033.277q0 .087.035.15a.25.25 0 0 0 .097.1.3.3 0 0 0 .142.036.27.27 0 0 0 .17-.051.25.25 0 0 0 .091-.145H.417a.1.1 0 0 1-.04.057.12.12 0 0 1-.071.02.12.12 0 0 1-.095-.043.2.2 0 0 1-.035-.124.2.2 0 0 1 .035-.122A.12.12 0 0 1 .306.11q.085 0 .111.076h.151A.26.26 0 0 0 .477.044a.27.27 0 0 0-.17-.053.3.3 0 0 0-.142.036.25.25 0 0 0-.097.1.3.3 0 0 0-.035.15"/><path id="n" d="M.757.562Q.859.562.92.499A.24.24 0 0 0 .984.325V0h-.14v.306q0 .065-.033.1A.12.12 0 0 1 .72.44.12.12 0 0 1 .63.406Q.596.37.596.306V0h-.14v.306q0 .065-.033.1a.12.12 0 0 1-.09.034.12.12 0 0 1-.092-.034Q.21.37.21.306V0h-.14v.554h.14V.487a.2.2 0 0 0 .07.055q.042.02.093.02A.24.24 0 0 0 .488.535.2.2 0 0 0 .567.456a.2.2 0 0 0 .078.077q.052.03.112.029"/><path id="o" d="M.033.28q0 .083.033.148a.242.242 0 0 0 .22.135.23.23 0 0 0 .183-.088v.08h.14V0H.47v.081A.2.2 0 0 0 .394.017a.23.23 0 0 0-.11-.026.24.24 0 0 0-.127.036.25.25 0 0 0-.09.102.3.3 0 0 0-.034.15M.469.277a.2.2 0 0 1-.02.088.14.14 0 0 1-.127.075.14.14 0 0 1-.126-.074.2.2 0 0 1-.02-.087.2.2 0 0 1 .02-.087A.15.15 0 0 1 .25.134.144.144 0 0 1 .448.19a.2.2 0 0 1 .02.087"/><path id="p" d="M.14.62a.09.09 0 0 0-.062.024.08.08 0 0 0-.024.058q0 .035.024.059A.09.09 0 0 0 .14.784.09.09 0 0 0 .2.761.08.08 0 0 0 .226.702.08.08 0 0 0 .2.644.09.09 0 0 0 .14.62M.209.554V0h-.14v.554z"/><path id="q" d="M.376.562q.1 0 .16-.063A.24.24 0 0 0 .597.325V0h-.14v.306q0 .066-.033.101a.12.12 0 0 1-.09.036.12.12 0 0 1-.092-.036Q.21.372.21.306V0h-.14v.554h.14V.485a.2.2 0 0 0 .072.056q.043.021.095.021"/><path id="r" d="M.232.439V.17q0-.028.014-.04T.29.117h.065V0H.268Q.091 0 .091.172v.267H.025v.115h.066V.69h.141V.554h.124V.439z"/><path id="s" d="M.209.468q.027.044.07.069a.2.2 0 0 0 .1.025V.415H.342q-.066 0-.1-.031Q.21.354.21.276V0h-.14v.554h.14z"/><path id="t" d="M.209.474a.226.226 0 0 0 .183.089.24.24 0 0 0 .22-.135.3.3 0 0 0 .033-.15.3.3 0 0 0-.034-.15.25.25 0 0 0-.09-.101.24.24 0 0 0-.129-.036.22.22 0 0 0-.183.088v-.343h-.14v.818h.14zM.502.279a.2.2 0 0 1-.02.086.14.14 0 0 1-.127.075A.145.145 0 0 1 .23.364.2.2 0 0 1 .208.277q0-.051.02-.087A.14.14 0 0 1 .355.114q.039 0 .072.02.034.02.054.057.021.037.021.088"/><path id="u" d="M.584.29A.3.3 0 0 0 .58.234H.175A.14.14 0 0 1 .217.141.13.13 0 0 1 .308.107q.078 0 .111.067H.57A.25.25 0 0 0 .478.043.27.27 0 0 0 .311-.01a.3.3 0 0 0-.144.036.25.25 0 0 0-.099.1.3.3 0 0 0-.035.15q0 .087.035.151a.24.24 0 0 0 .098.1q.063.036.145.035.08 0 .141-.034A.24.24 0 0 0 .55.433.3.3 0 0 0 .584.289M.439.33A.11.11 0 0 1 .4.416a.14.14 0 0 1-.093.032.13.13 0 0 1-.088-.031.14.14 0 0 1-.043-.088z"/><path id="v" d="M.592.554V0h-.14v.07A.2.2 0 0 0 .38.014a.2.2 0 0 0-.095-.02.24.24 0 0 0-.115.027.2.2 0 0 0-.078.08.3.3 0 0 0-.029.128v.325h.14V.25q0-.066.033-.101a.12.12 0 0 1 .09-.036q.059 0 .091.036.033.035.033.101v.305z"/><path id="w" d="M.033.28a.3.3 0 0 0 .033.148.242.242 0 0 0 .22.135.23.23 0 0 0 .183-.088v.08H.61V0H.469v.081A.2.2 0 0 0 .395.017a.23.23 0 0 0-.11-.026.24.24 0 0 0-.127.036.25.25 0 0 0-.092.102.3.3 0 0 0-.033.15M.469.277a.2.2 0 0 1-.02.088.14.14 0 0 1-.127.075.14.14 0 0 1-.126-.074.2.2 0 0 1-.02-.087.2.2 0 0 1 .02-.087A.15.15 0 0 1 .25.134.144.144 0 0 1 .45.19a.2.2 0 0 1 .02.087m.032.475A.15.15 0 0 0 .458.639.16.16 0 0 0 .34.6a.16.16 0 0 0-.116.04.15.15 0 0 0-.043.114v.02h.074q0-.035.019-.051Q.295.704.34.704t.066.018.019.051h.075z"/><path id="x" d="M.033.28a.3.3 0 0 0 .033.148.242.242 0 0 0 .22.135.23.23 0 0 0 .183-.088v.08H.61V0H.47v.081A.2.2 0 0 0 .395.017a.23.23 0 0 0-.11-.026.24.24 0 0 0-.127.036.25.25 0 0 0-.092.102.3.3 0 0 0-.033.15M.469.277a.2.2 0 0 1-.02.088.14.14 0 0 1-.127.075.14.14 0 0 1-.126-.074.2.2 0 0 1-.02-.087.2.2 0 0 1 .02-.087A.15.15 0 0 1 .25.134.144.144 0 0 1 .45.19a.2.2 0 0 1 .02.087m-.128.4L.192.593v.102l.15.081.147-.08V.592z"/><path id="y" d="M.376.562q.1 0 .16-.063A.24.24 0 0 0 .597.325V0h-.14v.306q0 .066-.033.101a.12.12 0 0 1-.09.036.12.12 0 0 1-.092-.036Q.21.372.21.306V0h-.14v.554h.14V.485a.2.2 0 0 0 .072.056q.043.021.095.021"/><path id="z" d="M.584.29A.3.3 0 0 0 .58.234H.175A.14.14 0 0 1 .217.141.13.13 0 0 1 .308.107q.078 0 .111.067H.57A.25.25 0 0 0 .478.043.27.27 0 0 0 .311-.01a.3.3 0 0 0-.144.036.25.25 0 0 0-.099.1.3.3 0 0 0-.035.15q0 .087.035.151a.24.24 0 0 0 .098.1q.063.036.145.035.08 0 .141-.034A.24.24 0 0 0 .55.433.3.3 0 0 0 .584.289M.439.33A.11.11 0 0 1 .4.416a.14.14 0 0 1-.093.032.13.13 0 0 1-.088-.031.14.14 0 0 1-.043-.088z"/><path id="A" d="M.033.277q0 .087.035.15a.25.25 0 0 0 .097.1.3.3 0 0 0 .142.036.27.27 0 0 0 .17-.051.25.25 0 0 0 .091-.145H.417a.1.1 0 0 1-.04.057.12.12 0 0 1-.071.02.12.12 0 0 1-.095-.043.2.2 0 0 1-.035-.124.2.2 0 0 1 .035-.122A.12.12 0 0 1 .306.11q.085 0 .111.076h.151A.26.26 0 0 0 .477.044a.27.27 0 0 0-.17-.053.3.3 0 0 0-.142.036.25.25 0 0 0-.097.1.3.3 0 0 0-.035.15"/><path id="B" d="M.592.554V0h-.14v.07A.2.2 0 0 0 .38.014a.2.2 0 0 0-.095-.02.24.24 0 0 0-.115.027.2.2 0 0 0-.078.08.3.3 0 0 0-.029.128v.325h.14V.25q0-.066.033-.101a.12.12 0 0 1 .09-.036q.059 0 .091.036.033.035.033.101v.305z"/><path id="C" d="M.315-.009a.3.3 0 0 0-.144.036.26.26 0 0 0-.1.1.3.3 0 0 0-.037.15q0 .086.037.15a.26.26 0 0 0 .103.1.3.3 0 0 0 .145.036.3.3 0 0 0 .145-.035.26.26 0 0 0 .102-.1.3.3 0 0 0 .038-.15.3.3 0 0 0-.039-.15.27.27 0 0 0-.104-.101.3.3 0 0 0-.146-.036m0 .122q.039 0 .071.019Q.42.15.44.187t.02.09Q.46.357.418.4A.14.14 0 0 1 .317.44.13.13 0 0 1 .217.4Q.174.357.175.277q0-.078.04-.121A.13.13 0 0 1 .314.113"/><path id="D" d="M.281-.009A.3.3 0 0 0 .16.016a.2.2 0 0 0-.085.066.17.17 0 0 0-.035.093h.14A.08.08 0 0 1 .212.122.1.1 0 0 1 .28.102q.04 0 .063.015.022.016.022.041 0 .027-.027.04a.5.5 0 0 1-.088.03A1 1 0 0 0 .148.26.2.2 0 0 0 .08.31a.13.13 0 0 0-.028.088q0 .046.026.084a.2.2 0 0 0 .076.06.3.3 0 0 0 .117.022.24.24 0 0 0 .158-.05A.18.18 0 0 0 .494.38H.36a.07.07 0 0 1-.028.053.1.1 0 0 1-.065.02.1.1 0 0 1-.059-.015A.05.05 0 0 1 .188.4q0-.029.028-.042a.4.4 0 0 1 .087-.03q.06-.015.099-.03A.2.2 0 0 0 .47.246.14.14 0 0 0 .499.158.15.15 0 0 0 .473.072a.2.2 0 0 0-.076-.06.3.3 0 0 0-.116-.02"/><path id="E" d="M.232.439V.17q0-.028.014-.04T.29.117h.065V0H.268Q.091 0 .091.172v.267H.025v.115h.066V.69h.141V.554h.124V.439z"/><path id="F" d="m.222.147-.117-.28h-.09l.065.28z"/><path id="G" d="M.033.28q0 .083.033.148a.242.242 0 0 0 .22.135.23.23 0 0 0 .183-.088v.08h.14V0H.47v.081A.2.2 0 0 0 .394.017a.23.23 0 0 0-.11-.026.24.24 0 0 0-.127.036.25.25 0 0 0-.09.102.3.3 0 0 0-.034.15M.469.277a.2.2 0 0 1-.02.088.14.14 0 0 1-.127.075.14.14 0 0 1-.126-.074.2.2 0 0 1-.02-.087.2.2 0 0 1 .02-.087A.15.15 0 0 1 .25.134.144.144 0 0 1 .448.19a.2.2 0 0 1 .02.087"/><path id="H" d="M.757.562Q.859.562.92.499A.24.24 0 0 0 .984.325V0h-.14v.306q0 .065-.033.1A.12.12 0 0 1 .72.44.12.12 0 0 1 .63.406Q.596.37.596.306V0h-.14v.306q0 .065-.033.1a.12.12 0 0 1-.09.034.12.12 0 0 1-.092-.034Q.21.37.21.306V0h-.14v.554h.14V.487a.2.2 0 0 0 .07.055q.042.02.093.02A.24.24 0 0 0 .488.535.2.2 0 0 0 .567.456a.2.2 0 0 0 .078.077q.052.03.112.029"/><path id="I" d="M.359.398H.27V0H.074v.398H.013v.163h.06v.005q0 .108.064.166.064.057.183.057h.037V.62L.335.622Q.303.622.288.608T.27.56h.088z"/><path id="J" d="M.024.281q0 .087.036.152a.25.25 0 0 0 .1.1.3.3 0 0 0 .148.035q.107 0 .18-.058A.27.27 0 0 0 .582.346H.374Q.356.401.304.401a.07.07 0 0 1-.059-.03.16.16 0 0 1-.021-.09q0-.06.021-.09a.07.07 0 0 1 .059-.03q.052 0 .07.054h.208A.27.27 0 0 0 .488.052a.28.28 0 0 0-.18-.059.3.3 0 0 0-.148.035.25.25 0 0 0-.1.1.3.3 0 0 0-.036.153"/><path id="K" d="M.592.287.589.241H.218Q.22.196.243.173A.08.08 0 0 1 .301.15Q.35.15.37.194H.58A.25.25 0 0 0 .53.091.3.3 0 0 0 .434.019a.3.3 0 0 0-.126-.026.3.3 0 0 0-.148.035.25.25 0 0 0-.1.1.3.3 0 0 0-.037.153q0 .089.036.153a.25.25 0 0 0 .1.1.3.3 0 0 0 .149.034.3.3 0 0 0 .147-.034.25.25 0 0 0 .1-.097.3.3 0 0 0 .036-.15m-.2.049a.07.07 0 0 1-.024.057.1.1 0 0 1-.06.02.1.1 0 0 1-.06-.02.1.1 0 0 1-.03-.057z"/><path id="L" d="M.25.71.234.227H.116L.099.71zM.179-.007a.1.1 0 0 0-.063.024.08.08 0 0 0-.024.058q0 .035.024.059a.1.1 0 0 0 .063.023.08.08 0 0 0 .06-.023.08.08 0 0 0 .025-.059.08.08 0 0 0-.024-.058.08.08 0 0 0-.061-.024"/><path id="M" d="M.31-.007A.3.3 0 0 0 .18.018.2.2 0 0 0 .086.09a.2.2 0 0 0-.035.111h.15a.1.1 0 0 1 .03-.068.1.1 0 0 1 .076-.025q.049 0 .077.024a.08.08 0 0 1 .028.061q0 .03-.019.051a.13.13 0 0 1-.047.032A1 1 0 0 1 .267.3a1 1 0 0 0-.11.04.168.168 0 0 0-.104.164q0 .062.031.108.03.046.087.07T.3.709q.108 0 .176-.052A.2.2 0 0 0 .549.509H.395a.08.08 0 0 1-.03.06.12.12 0 0 1-.076.023.1.1 0 0 1-.065-.021Q.199.551.199.51.2.482.218.464a.14.14 0 0 1 .046-.03A1 1 0 0 1 .34.407a1 1 0 0 0 .111-.04.2.2 0 0 0 .074-.06.17.17 0 0 0 .031-.105.2.2 0 0 0-.114-.18.3.3 0 0 0-.133-.029m.058-.036a.4.4 0 0 0 .017-.108.15.15 0 0 0-.032-.102Q.32-.289.259-.289v.057q.05 0 .05.062v.018H.252v.109z"/><path id="N" d="m.222.147-.117-.28h-.09l.065.28z"/><path id="O" d="M.232.439V.17q0-.028.014-.04T.29.117h.065V0H.268Q.091 0 .091.172v.267H.025v.115h.066V.69h.141V.554h.124V.439zm.02-.482A.4.4 0 0 0 .27-.151a.15.15 0 0 0-.032-.102Q.205-.289.143-.289v.057q.05 0 .05.062v.018H.136v.109z"/><path id="P" d="M.216.554V0h-.14v.554zM.147.677-.002.593v.102l.149.081.148-.081V.593z"/><path id="Q" d="M.323.439H.226v-.44H.084v.44H.021v.115h.063v.028q0 .102.058.15t.175.045V.66Q.266.66.247.642T.226.577V.554h.096z"/><path id="R" d="M.281-.009A.3.3 0 0 0 .16.016a.2.2 0 0 0-.085.066.17.17 0 0 0-.035.093h.14A.08.08 0 0 1 .212.122.1.1 0 0 1 .28.102q.04 0 .063.015.022.016.022.041 0 .027-.027.04a.5.5 0 0 1-.088.03A1 1 0 0 0 .148.26.2.2 0 0 0 .08.31a.13.13 0 0 0-.028.088q0 .046.026.084a.2.2 0 0 0 .076.06.3.3 0 0 0 .117.022.24.24 0 0 0 .158-.05A.18.18 0 0 0 .494.38H.36a.07.07 0 0 1-.028.053.1.1 0 0 1-.065.02.1.1 0 0 1-.059-.015A.05.05 0 0 1 .188.4q0-.029.028-.042a.4.4 0 0 1 .087-.03q.06-.015.099-.03A.2.2 0 0 0 .47.246.14.14 0 0 0 .499.158.15.15 0 0 0 .473.072a.2.2 0 0 0-.076-.06.3.3 0 0 0-.116-.02m.047-.035a.4.4 0 0 0 .016-.108.15.15 0 0 0-.032-.102Q.282-.289.22-.289v.057q.05 0 .05.062v.018H.212v.109z"/><path id="S" d="M.209.74V0h-.14v.74z"/><path id="T" d="M.033.28q0 .083.033.148A.245.245 0 0 0 .39.54.2.2 0 0 0 .468.477V.74H.61V0H.468v.082A.2.2 0 0 0 .395.016a.23.23 0 0 0-.11-.025.24.24 0 0 0-.127.036.25.25 0 0 0-.092.102.3.3 0 0 0-.033.15M.469.277a.2.2 0 0 1-.02.088.14.14 0 0 1-.127.075.14.14 0 0 1-.126-.074.2.2 0 0 1-.02-.087.2.2 0 0 1 .02-.087A.15.15 0 0 1 .25.134.144.144 0 0 1 .448.19a.2.2 0 0 1 .02.087"/><path id="U" d="M.281-.009A.3.3 0 0 0 .16.016a.2.2 0 0 0-.085.066.17.17 0 0 0-.035.093h.14A.08.08 0 0 1 .212.122.1.1 0 0 1 .28.102q.04 0 .063.015.022.016.022.041 0 .027-.027.04a.5.5 0 0 1-.088.03A1 1 0 0 0 .148.26.2.2 0 0 0 .08.31a.13.13 0 0 0-.028.088q0 .046.026.084a.2.2 0 0 0 .076.06.3.3 0 0 0 .117.022.24.24 0 0 0 .158-.05A.18.18 0 0 0 .494.38H.36a.07.07 0 0 1-.028.053.1.1 0 0 1-.065.02.1.1 0 0 1-.059-.015A.05.05 0 0 1 .188.4q0-.029.028-.042a.4.4 0 0 1 .087-.03q.06-.015.099-.03A.2.2 0 0 0 .47.246.14.14 0 0 0 .499.158.15.15 0 0 0 .473.072a.2.2 0 0 0-.076-.06.3.3 0 0 0-.116-.02"/><path id="V" d="M.13-.007a.1.1 0 0 0-.062.024.08.08 0 0 0-.024.058q0 .035.024.059a.1.1 0 0 0 .063.023.08.08 0 0 0 .06-.023.08.08 0 0 0 .025-.059.08.08 0 0 0-.024-.058.08.08 0 0 0-.061-.024"/><path id="W" d="M.21.698V0H.07v.698zM.141.822-.008.738V.84l.15.081L.288.84V.738z"/><path id="X" d="M.423.566A.2.2 0 0 0 .577.501.25.25 0 0 0 .634.327V0H.438v.301a.1.1 0 0 1-.025.075.09.09 0 0 1-.067.028.09.09 0 0 1-.07-.028.1.1 0 0 1-.024-.075V0H.056v.561h.196v-.08q.025.038.07.061.045.024.1.024"/><path id="Y" d="M.316-.007a.3.3 0 0 0-.15.035.26.26 0 0 0-.104.1.3.3 0 0 0-.038.153q0 .087.038.152Q.1.5.167.533a.3.3 0 0 0 .15.035.3.3 0 0 0 .15-.035.26.26 0 0 0 .106-.1A.3.3 0 0 0 .61.281.3.3 0 0 0 .573.13a.26.26 0 0 0-.106-.1.3.3 0 0 0-.15-.036m0 .17q.04 0 .068.03.027.031.027.088T.385.368a.09.09 0 0 1-.068.03.09.09 0 0 1-.066-.03Q.224.338.224.281q0-.058.026-.088t.066-.03"/><path id="Z" d="M.155.613a.12.12 0 0 0-.083.029.1.1 0 0 0-.032.071q0 .045.032.073.03.03.083.03.051 0 .083-.03A.1.1 0 0 0 .269.713.1.1 0 0 0 .238.642.12.12 0 0 0 .155.613M.252.561V0H.056v.561z"/><path id="aa" d="M0 0"/><path id="ab" d="M.295-.007a.3.3 0 0 0-.136.025.23.23 0 0 0-.094.07.2.2 0 0 0-.038.1h.19A.06.06 0 0 1 .242.148.1.1 0 0 1 .294.132q.024 0 .038.01a.03.03 0 0 1 .014.026q0 .02-.023.031a1 1 0 0 1-.076.022 1 1 0 0 0-.1.027.2.2 0 0 0-.07.049.14.14 0 0 0-.03.092.16.16 0 0 0 .028.09.2.2 0 0 0 .08.065.3.3 0 0 0 .126.024Q.39.568.454.514A.2.2 0 0 0 .527.372H.35a.07.07 0 0 1-.024.041.08.08 0 0 1-.05.015.06.06 0 0 1-.036-.01.03.03 0 0 1-.012-.024q0-.021.023-.03A.4.4 0 0 1 .325.341a1 1 0 0 0 .101-.03.2.2 0 0 0 .071-.05.14.14 0 0 0 .03-.097A.14.14 0 0 0 .5.077.2.2 0 0 0 .42.015a.3.3 0 0 0-.124-.022"/><path id="ac" d="M.789.566q.105 0 .166-.064a.24.24 0 0 0 .06-.175V0H.82v.301q0 .045-.025.07a.1.1 0 0 1-.068.025.1.1 0 0 1-.068-.025.1.1 0 0 1-.025-.07V0H.438v.301q0 .045-.025.07a.1.1 0 0 1-.067.025.1.1 0 0 1-.07-.025.1.1 0 0 1-.024-.07V0H.056v.561h.196V.487q.026.036.067.057t.096.022a.2.2 0 0 0 .11-.027.2.2 0 0 0 .077-.076q.03.045.079.074a.2.2 0 0 0 .108.029"/><path id="ad" d="M.155.613a.12.12 0 0 0-.083.029.1.1 0 0 0-.032.071q0 .045.032.073.03.03.083.03.051 0 .083-.03A.1.1 0 0 0 .269.713.1.1 0 0 0 .238.642.12.12 0 0 0 .155.613m.098-.668q0-.213-.214-.213h-.071V-.1H.01q.025 0 .036.01t.011.033v.62h.196z"/><path id="ae" d="M.024.281q0 .087.031.152a.24.24 0 0 0 .086.1.2.2 0 0 0 .122.035.2.2 0 0 0 .1-.023.17.17 0 0 0 .065-.062v.078h.196v-.56H.428v.077A.17.17 0 0 0 .362.016a.2.2 0 0 0-.1-.023.2.2 0 0 0-.12.035.24.24 0 0 0-.087.1.35.35 0 0 0-.031.153m.404 0q0 .054-.03.085a.1.1 0 0 1-.072.031.1.1 0 0 1-.073-.03.12.12 0 0 1-.03-.086q0-.054.03-.085A.1.1 0 0 1 .326.164q.043 0 .072.031.03.031.03.086m.096.506q0-.09-.05-.14A.18.18 0 0 0 .344.6a.18.18 0 0 0-.129.049q-.05.048-.05.139v.018H.26q0-.031.019-.048Q.297.742.345.741.39.741.41.757.43.773.43.805h.094z"/><path id="af" d="M.035.35q0 .103.046.185a.33.33 0 0 0 .127.127.36.36 0 0 0 .181.045q.117 0 .205-.06.089-.06.123-.166H.556a.17.17 0 0 1-.068.075.2.2 0 0 1-.1.025.194.194 0 0 1-.183-.109A.3.3 0 0 1 .18.35q0-.069.026-.121a.19.19 0 0 1 .183-.11q.057 0 .1.026A.17.17 0 0 1 .556.22h.161A.3.3 0 0 0 .594.054a.36.36 0 0 0-.205-.06.36.36 0 0 0-.18.046.33.33 0 0 0-.128.126.36.36 0 0 0-.046.184"/><path id="ag" d="M.495.416V.298H.071v.118z"/><path id="ah" d="M.197.115h.247V0H.038v.113L.28.439H.04v.115H.44V.44z"/><path id="ai" d="m.3.129.14.425h.149L.384 0h-.17L.01.554h.15z"/><path id="aj" d="M.587.705V.55H.399V0H.203v.55H.017v.155zM.372-.038a.4.4 0 0 0 .022-.126.18.18 0 0 0-.038-.12Q.318-.327.243-.327v.07q.053 0 .053.072v.013H.229v.135z"/><path id="ak" d="M.151-.008a.12.12 0 0 0-.083.029.1.1 0 0 0-.032.072q0 .045.032.073.03.03.083.03.051 0 .083-.03A.1.1 0 0 0 .265.093.1.1 0 0 0 .234.021.12.12 0 0 0 .15-.008m0 .402a.12.12 0 0 0-.083.028.1.1 0 0 0-.032.073q0 .043.032.073.03.029.083.029.051 0 .083-.03A.1.1 0 0 0 .265.496.1.1 0 0 0 .234.423.12.12 0 0 0 .15.393"/><path id="al" d="M0 0"/><path id="am" d="M.504.107H.268L.233 0H0l.259.708h.256L.773 0H.539zM.45.274.386.471.322.274z"/><path id="an" d="M.729 0H.507L.272.356V0H.05v.708h.222L.507.346v.362h.222z"/><path id="ao" d="M.272.708V0H.05v.708z"/><path id="ap" d="M0 0"/><path id="aq" d="M.345.708A.4.4 0 0 0 .539.663.3.3 0 0 0 .668.538.37.37 0 0 0 .713.356.37.37 0 0 0 .668.174.32.32 0 0 0 .539.046.4.4 0 0 0 .345 0H.05v.708zm-.02-.51Q.4.198.444.239q.044.04.044.117 0 .076-.044.117a.17.17 0 0 1-.12.041H.273V.198z"/><path id="ar" d="M.272.531V.444h.22V.277h-.22v-.1h.25V0H.05v.708h.472V.531z"/><path id="as" d="M.327-.007a.35.35 0 0 0-.21.06.22.22 0 0 0-.089.174h.236Q.27.167.318.166q.02 0 .031.009Q.362.183.362.2q0 .025-.027.04A1 1 0 0 1 .25.278a1 1 0 0 0-.113.047.2.2 0 0 0-.077.067.2.2 0 0 0-.03.113q0 .069.035.117a.2.2 0 0 0 .097.074A.4.4 0 0 0 .3.72q.13 0 .207-.06a.21.21 0 0 0 .08-.17H.35Q.348.52.335.535A.05.05 0 0 1 .3.547a.03.03 0 0 1-.023-.01.04.04 0 0 1-.009-.026q0-.025.027-.04A1 1 0 0 1 .379.434 1 1 0 0 0 .49.386.2.2 0 0 0 .566.322.16.16 0 0 0 .598.219.2.2 0 0 0 .566.102a.2.2 0 0 0-.094-.08.34.34 0 0 0-.145-.029"/><path id="at" d="M.606.708V.532H.418V0H.196v.532H.01v.176z"/><path id="au" d="M.267.708V.31q0-.049.021-.077.022-.03.07-.029t.07.029a.12.12 0 0 1 .024.077v.4h.22v-.4A.34.34 0 0 0 .632.137.27.27 0 0 0 .516.029a.4.4 0 0 0-.163-.036.34.34 0 0 0-.16.036.26.26 0 0 0-.108.107.36.36 0 0 0-.04.173v.4z"/><path id="av" d="M.345.708A.4.4 0 0 0 .539.663.3.3 0 0 0 .668.538.37.37 0 0 0 .713.356.37.37 0 0 0 .668.174.32.32 0 0 0 .539.046.4.4 0 0 0 .345 0H.05v.708zm-.02-.51Q.4.198.444.239q.044.04.044.117 0 .076-.044.117a.17.17 0 0 1-.12.041H.273V.198z"/><path id="aw" d="M.272.531V.444h.22V.277h-.22v-.1h.25V0H.05v.708h.472V.531z"/><path id="ax" d="M.729 0H.507L.272.356V0H.05v.708h.222L.507.346v.362h.222z"/><path id="ay" d="M.606.708V.532H.418V0H.196v.532H.01v.176zM.385-.035A.4.4 0 0 0 .41-.17a.2.2 0 0 0-.042-.126q-.04-.05-.122-.05v.078q.055 0 .055.075v.01H.229v.148z"/><path id="az" d="M.272.708V0H.05v.708z"/><path id="aA" d="M0 0"/><path id="aB" d="M.327-.007a.35.35 0 0 0-.21.06.22.22 0 0 0-.089.174h.236Q.27.167.318.166q.02 0 .031.009Q.362.183.362.2q0 .025-.027.04A1 1 0 0 1 .25.278a1 1 0 0 0-.113.047.2.2 0 0 0-.077.067.2.2 0 0 0-.03.113q0 .069.035.117a.2.2 0 0 0 .097.074A.4.4 0 0 0 .3.72q.13 0 .207-.06a.21.21 0 0 0 .08-.17H.35Q.348.52.335.535A.05.05 0 0 1 .3.547a.03.03 0 0 1-.023-.01.04.04 0 0 1-.009-.026q0-.025.027-.04A1 1 0 0 1 .379.434 1 1 0 0 0 .49.386.2.2 0 0 0 .566.322.16.16 0 0 0 .598.219.2.2 0 0 0 .566.102a.2.2 0 0 0-.094-.08.34.34 0 0 0-.145-.029"/><path id="aC" d="M.267.708V.31q0-.049.021-.077.022-.03.07-.029t.07.029a.12.12 0 0 1 .024.077v.4h.22v-.4A.34.34 0 0 0 .632.137.27.27 0 0 0 .516.029a.4.4 0 0 0-.163-.036.34.34 0 0 0-.16.036.26.26 0 0 0-.108.107.36.36 0 0 0-.04.173v.4z"/><path id="aD" d="M.606.708V.532H.418V0H.196v.532H.01v.176z"/><path id="aE" d="M.03.355a.4.4 0 0 0 .042.187.3.3 0 0 0 .122.127q.08.046.186.046A.4.4 0 0 0 .544.68.3.3 0 0 0 .662.583.35.35 0 0 0 .723.436H.489A.12.12 0 0 1 .376.51.1.1 0 0 1 .288.468.18.18 0 0 1 .255.355.18.18 0 0 1 .288.242.1.1 0 0 1 .376.2a.12.12 0 0 1 .113.074h.234a.35.35 0 0 0-.06-.147A.3.3 0 0 0 .543.03.4.4 0 0 0 .38-.005a.37.37 0 0 0-.186.046.3.3 0 0 0-.122.127.4.4 0 0 0-.042.187"/><path id="aF" d="M.9.708V0H.68v.353L.57 0H.38L.273.353V0H.05v.708h.272L.478.283.63.708z"/><path id="aG" d="M.55.708V.532H.272V.434h.2V.267h-.2V0H.05v.708z"/><path id="aH" d="M.406 0 .273.254H.272V0H.05v.708h.33q.085 0 .147-.03A.21.21 0 0 0 .649.476.2.2 0 0 0 .609.35.22.22 0 0 0 .496.271L.65 0zM.272.402H.36q.032 0 .048.015t.016.045a.06.06 0 0 1-.017.044Q.391.522.36.522H.272z"/><path id="aI" d="M.9.708V0H.68v.353L.57 0H.38L.273.353V0H.05v.708h.272L.478.283.63.708z"/><path id="aJ" d="M.395-.007A.37.37 0 0 0 .079.17.36.36 0 0 0 .03.357a.36.36 0 0 0 .182.316.4.4 0 0 0 .183.047.37.37 0 0 0 .183-.047.35.35 0 0 0 .131-.13.36.36 0 0 0 .049-.186A.36.36 0 0 0 .709.17a.366.366 0 0 0-.314-.177m0 .207Q.461.2.497.243a.17.17 0 0 1 .036.114.17.17 0 0 1-.036.115.13.13 0 0 1-.102.043Q.328.515.292.472A.17.17 0 0 1 .256.357q0-.072.036-.114T.395.2"/><path id="aK" d="M.327-.007a.35.35 0 0 0-.21.06.22.22 0 0 0-.089.174h.236Q.27.167.318.166q.018 0 .03.009Q.363.183.362.2q0 .025-.027.04A1 1 0 0 1 .25.278a1 1 0 0 0-.112.047.2.2 0 0 0-.077.067.2.2 0 0 0-.03.113q0 .069.035.117a.2.2 0 0 0 .097.074A.4.4 0 0 0 .3.72q.13 0 .207-.06a.21.21 0 0 0 .08-.17H.35q0 .03-.015.044A.05.05 0 0 1 .3.547a.03.03 0 0 1-.023-.01.04.04 0 0 1-.009-.026q0-.025.027-.04A1 1 0 0 1 .379.434 1 1 0 0 0 .49.386.2.2 0 0 0 .566.322.16.16 0 0 0 .597.219.2.2 0 0 0 .565.102a.2.2 0 0 0-.093-.08.3.3 0 0 0-.145-.029M.42-.035A.4.4 0 0 0 .445-.17a.2.2 0 0 0-.042-.126Q.361-.346.28-.346v.078q.055 0 .055.075v.01H.263v.148z"/><path id="aL" d="M.763.708.525 0H.238L0 .708h.236L.382.221l.145.487z"/><path id="aM" d="M.504.107H.268L.233 0H0l.259.708h.256L.773 0H.539zM.45.274.386.471.322.274z"/><path id="aN" d="M.395-.007A.37.37 0 0 0 .079.17.36.36 0 0 0 .03.357a.36.36 0 0 0 .182.316.4.4 0 0 0 .183.047.37.37 0 0 0 .183-.047.35.35 0 0 0 .131-.13.36.36 0 0 0 .049-.186A.36.36 0 0 0 .709.17a.366.366 0 0 0-.314-.177m0 .207Q.461.2.497.243a.17.17 0 0 1 .036.114.17.17 0 0 1-.036.115.13.13 0 0 1-.102.043Q.328.515.292.472A.17.17 0 0 1 .256.357q0-.072.036-.114T.395.2"/><path id="aO" d="M.349.755.323.281h-.19L.107.755zM.228-.008q-.06 0-.093.031A.1.1 0 0 0 .1.101q0 .048.035.08a.13.13 0 0 0 .093.031Q.285.212.32.18A.1.1 0 0 0 .355.101.1.1 0 0 0 .32.023a.13.13 0 0 0-.092-.031"/><path id="aP" d="M.045.502q.003.12.07.182a.26.26 0 0 0 .188.063A.3.3 0 0 0 .438.72.2.2 0 0 0 .522.647.2.2 0 0 0 .551.543a.17.17 0 0 0-.033-.11A.17.17 0 0 0 .444.38V.376q.12-.045.12-.167 0-.064-.03-.113A.2.2 0 0 0 .448.02a.3.3 0 0 0-.131-.027.3.3 0 0 0-.204.062Q.038.117.037.249h.216Q.251.213.263.194.276.176.307.176q.018 0 .03.013.012.014.012.036 0 .028-.019.043Q.312.283.268.282H.231v.179h.036Q.335.456.335.515q0 .026-.01.037a.03.03 0 0 1-.027.012Q.261.564.261.502z"/><clipPath id="a"><path fill-rule="evenodd" d="M0 419.526h297.636V0H0Z"/></clipPath><clipPath id="b"><path d="M-301.749 512.409h599.768V-72.045h-599.768Z"/></clipPath></defs><g clip-path="url(#a)" data-name="Layer 1"><g clip-path="url(#b)"><path fill="#f5efe3" d="M297.76 420.346c0 27.154-.403 54.318.243 81.455.199 8.425-1.246 10.637-10.275 10.607-120.512-.4-241.023-.267-361.536-.267-72.985 0-145.973-.173-218.958.247-7.98.046-9.122-2.055-8.971-9.296.511-24.173.194-48.362.194-72.546 9.49-.226 15.41 7.839 24.024 10.125 30.149 8 53.355-4.494 73.203-24.951 36.599-37.718 56.203-84.587 68.271-134.691 11.298-46.903 15.07-94.056-5.555-139.836-2.607-5.787 1.239-7.757 3.784-10.642 14.349-16.274 29.734-31.555 46.19-45.669 19.713-16.91 40.04-33.13 65.571-40.579 16.437-4.797 24.78 2.007 23.596 18.958-1.135 16.267-6.658 31.483-12.343 46.598-12.697 33.755-29.016 66.06-40.286 100.39-6.123 18.65-10.803 37.542-9.366 57.437 2.303 31.869 26.552 56.386 58.033 58.955 31.253 2.552 53.236-14.21 72.926-35.153 20.162-21.445 35.743-46.353 51.784-70.882 18.343-28.051 35.223-57.168 58.627-81.578 6.188-6.456 12.65-12.72 21.2-15.986 13.8-5.27 25.979 2.957 26.321 17.69.22 9.458-2.085 18.501-4.868 27.46-9.23 29.72-23.495 57.284-36.469 85.402-14.761 31.992-30.282 63.759-37.09 98.674-6.634 34.027-3.305 65.71 26.745 88.514 35.642 27.048 82.194 21.614 113.992-12.424 3.113-3.332 4.701-8.994 11.013-8.012"/><path fill="#f5efe3" d="M-301.543 101.615c0-55.19.09-110.377-.13-165.563-.023-5.915.754-8.03 7.585-8.023 194.883.24 389.764.281 584.643-.074 9.19-.017 7.186 4.778 7.186 9.621.026 132.023.02 264.05.02 396.075-7.285 10.518-14.324 21.216-21.913 31.511-10.852 14.72-21.962 29.376-38.611 38.187-22.243 11.77-44.06-1.363-44.232-26.397-.079-11.211 2.843-21.845 6.295-32.358 10.359-31.543 25.296-61.114 39.177-91.15 14.588-31.567 30.056-62.915 35.048-97.873 4.284-30.028-2.858-56.114-29.927-73.048-27.451-17.174-54.757-14.693-81.081 3.48-26.118 18.031-43.732 43.564-61.258 69.184-20.6 30.118-38.607 61.999-61.385 90.632-8.466 10.643-17.308 21.023-29.335 27.93-6.255 3.592-13.081 4.732-19.319.523-5.897-3.98-7.062-10.606-5.94-17.127 1.575-9.172 3.405-18.37 6.092-27.267 9.595-31.764 24.679-61.376 36.695-92.199 10.191-26.14 20.354-52.34 19.638-81.085-1.022-40.954-35.109-69.18-75.548-62.932-22.36 3.455-41.888 13.468-60.42 25.76-30.639 20.321-56.997 45.543-82.088 72.19-3.271 3.475-5.364 8.25-12.253 4.485-38.34-20.956-75.765-17.253-112.298 5.131-1.67 1.025-4.207 5.261-6.64.387"/><path fill="#fbd77f" d="M-180.134 182.418c-18.612 22.917-33.538 45.83-47.275 69.496-20.062 34.56-38.823 69.783-44.914 110.016-1.625 10.754-4.406 23.845 8.018 29.456 11.768 5.312 19.584-5.117 26.613-12.852 24.212-26.652 38.444-58.723 48.57-92.752 9.822-33.019 15.596-66.515 8.988-103.364m-121.409-80.803c2.434 4.874 4.97.638 6.641-.387 36.533-22.384 73.958-26.087 112.298-5.13 6.89 3.765 8.98-1.011 12.253-4.486 25.091-26.65 51.448-51.869 82.088-72.192C-69.731 7.13-50.205-2.883-27.843-6.338c40.44-6.248 74.526 21.978 75.547 62.934.717 28.742-9.446 54.943-19.637 81.083-12.017 30.823-27.1 60.435-36.694 92.2-2.688 8.895-4.518 18.094-6.093 27.266-1.12 6.52.043 13.147 5.94 17.127 6.238 4.209 13.065 3.069 19.32-.523 12.026-6.907 20.868-17.288 29.334-27.93 22.778-28.633 40.785-60.514 61.386-90.632 17.524-25.62 35.138-51.153 61.258-69.184 26.323-18.173 53.629-20.654 81.08-3.48 27.069 16.934 34.211 43.02 29.925 73.048-4.987 34.96-20.458 66.306-35.046 97.872-13.881 30.037-28.82 59.608-39.176 91.151-3.452 10.513-6.375 21.147-6.297 32.358.173 25.034 21.99 38.166 44.233 26.397 16.652-8.81 27.759-23.468 38.611-38.187 7.59-10.294 14.628-20.993 21.912-31.511v86.695c-6.312-.982-7.9 4.68-11.013 8.012-31.798 34.038-78.35 39.472-113.992 12.424-30.05-22.805-33.38-54.487-26.745-88.514 6.808-34.914 22.329-66.681 37.09-98.674 12.974-28.118 27.24-55.681 36.469-85.401 2.783-8.96 5.087-18.003 4.868-27.459-.341-14.733-12.52-22.963-26.32-17.692-8.552 3.266-15.013 9.53-21.201 15.986-23.404 24.41-40.284 53.528-58.627 81.578-16.04 24.528-31.622 49.437-51.784 70.882-19.69 20.941-41.673 37.704-72.926 35.153-31.48-2.57-55.73-27.087-58.033-58.955-1.437-19.896 3.243-38.786 9.366-57.439 11.27-34.329 27.589-66.633 40.286-100.39C-9.117 94.743-3.595 79.526-2.459 63.26c1.183-16.951-7.159-23.755-23.596-18.958-25.53 7.45-45.858 23.669-65.57 40.58-16.457 14.113-31.842 29.394-46.19 45.666-2.546 2.887-6.392 4.857-3.784 10.646 20.623 45.777 16.852 92.931 5.554 139.834-12.068 50.104-31.672 96.973-68.27 134.69-19.848 20.457-43.055 32.953-73.204 24.952-8.613-2.286-14.534-10.351-24.024-10.126V277.553c.2.375.372.767.605 1.118.2.3.468.554.706.828 1.161-1.093 2.784-1.968 3.413-3.31 21.873-46.597 49.624-89.537 80.936-130.263 4.716-6.135 3.144-9.603-4.128-11.561-19.23-5.182-36.153.66-51.508 11.525-10.531 7.447-20.052 16.329-30.024 24.57"/></g><use xlink:href="#c" fill="#07435b" transform="matrix(13.95407 0 0 -13.71987 23.181 34.838)"/><use xlink:href="#d" fill="#1265e5" data-text="S" transform="matrix(17.94095 0 0 -17.63984 26.503 34.838)"/><use xlink:href="#e" fill="#1265e5" data-text="a" transform="matrix(17.94095 0 0 -17.63984 37.626 34.838)"/><use xlink:href="#f" fill="#1265e5" data-text="l" transform="matrix(17.94095 0 0 -17.63984 49.826 34.838)"/><use xlink:href="#g" fill="#1265e5" data-text="u" transform="matrix(17.94095 0 0 -17.63984 55.352 34.838)"/><use xlink:href="#h" fill="#1265e5" data-text="t" transform="matrix(17.94095 0 0 -17.63984 67.66 34.838)"/><use xlink:href="#i" fill="#1265e5" data-text="!" transform="matrix(17.94095 0 0 -17.63984 75.213 34.838)"/><use xlink:href="#j" fill="#07435b" transform="matrix(11.96063 0 0 -11.7599 82.8 34.838)"/><use xlink:href="#k" fill="#07435b" data-text="T" transform="matrix(11.96063 0 0 -11.7599 85.647 34.838)"/><use xlink:href="#l" fill="#07435b" data-text="o" transform="matrix(11.96063 0 0 -11.7599 92.548 34.838)"/><use xlink:href="#m" fill="#07435b" data-text="c" transform="matrix(11.96063 0 0 -11.7599 100.179 34.838)"/><use xlink:href="#n" fill="#07435b" data-text="m" transform="matrix(11.96063 0 0 -11.7599 107.38 34.838)"/><use xlink:href="#o" fill="#07435b" data-text="a" transform="matrix(11.96063 0 0 -11.7599 119.914 34.838)"/><use xlink:href="#p" fill="#07435b" data-text="i" transform="matrix(11.96063 0 0 -11.7599 128.023 34.838)"/><use xlink:href="#j" fill="#07435b" transform="matrix(11.96063 0 0 -11.7599 131.348 34.838)"/><use xlink:href="#o" fill="#07435b" data-text="a" transform="matrix(11.96063 0 0 -11.7599 134.195 34.838)"/><use xlink:href="#p" fill="#07435b" data-text="i" transform="matrix(11.96063 0 0 -11.7599 142.304 34.838)"/><use xlink:href="#j" fill="#07435b" transform="matrix(11.96063 0 0 -11.7599 145.63 34.838)"/><use xlink:href="#p" fill="#07435b" data-text="i" transform="matrix(11.96063 0 0 -11.7599 148.476 34.838)"/><use xlink:href="#q" fill="#07435b" data-text="n" transform="matrix(11.96063 0 0 -11.7599 151.801 34.838)"/><use xlink:href="#r" fill="#07435b" data-text="t" transform="matrix(11.96063 0 0 -11.7599 159.707 34.838)"/><use xlink:href="#s" fill="#07435b" data-text="r" transform="matrix(11.96063 0 0 -11.7599 164.348 34.838)"/><use xlink:href="#o" fill="#07435b" data-text="a" transform="matrix(11.96063 0 0 -11.7599 169.18 34.838)"/><use xlink:href="#r" fill="#07435b" data-text="t" transform="matrix(11.96063 0 0 -11.7599 177.29 34.838)"/><use xlink:href="#j" fill="#07435b" transform="matrix(11.96063 0 0 -11.7599 181.93 34.838)"/><use xlink:href="#t" fill="#07435b" data-text="p" transform="matrix(11.96063 0 0 -11.7599 184.777 34.838)"/><use xlink:href="#u" fill="#07435b" data-text="e" transform="matrix(11.96063 0 0 -11.7599 192.886 34.838)"/><use xlink:href="#j" fill="#07435b" transform="matrix(11.96063 0 0 -11.7599 200.266 34.838)"/><use xlink:href="#v" fill="#07435b" data-text="u" transform="matrix(11.96063 0 0 -11.7599 203.112 34.838)"/><use xlink:href="#q" fill="#07435b" data-text="n" transform="matrix(11.96063 0 0 -11.7599 211.018 34.838)"/><use xlink:href="#j" fill="#07435b" transform="matrix(11.96063 0 0 -11.7599 218.924 34.838)"/><use xlink:href="#r" fill="#07435b" data-text="t" transform="matrix(11.96063 0 0 -11.7599 221.77 34.838)"/><use xlink:href="#w" fill="#07435b" data-text="ă" transform="matrix(11.96063 0 0 -11.7599 226.412 34.838)"/><use xlink:href="#s" fill="#07435b" data-text="r" transform="matrix(11.96063 0 0 -11.7599 234.52 34.838)"/><use xlink:href="#x" fill="#07435b" data-text="â" transform="matrix(11.96063 0 0 -11.7599 239.353 34.838)"/><use xlink:href="#n" fill="#07435b" data-text="m" transform="matrix(11.96063 0 0 -11.7599 247.462 34.838)"/><use xlink:href="#j" fill="#07435b" transform="matrix(11.96063 0 0 -11.7599 259.997 34.838)"/><use xlink:href="#y" fill="#07435b" data-text="n" transform="matrix(11.96063 0 0 -11.7599 23.176 51.502)"/><use xlink:href="#z" fill="#07435b" data-text="e" transform="matrix(11.96063 0 0 -11.7599 31.082 51.502)"/><use xlink:href="#A" fill="#07435b" data-text="c" transform="matrix(11.96063 0 0 -11.7599 38.462 51.502)"/><use xlink:href="#B" fill="#07435b" data-text="u" transform="matrix(11.96063 0 0 -11.7599 45.662 51.502)"/><use xlink:href="#y" fill="#07435b" data-text="n" transform="matrix(11.96063 0 0 -11.7599 53.568 51.502)"/><use xlink:href="#C" fill="#07435b" data-text="o" transform="matrix(11.96063 0 0 -11.7599 61.474 51.502)"/><use xlink:href="#D" fill="#07435b" data-text="s" transform="matrix(11.96063 0 0 -11.7599 69.105 51.502)"/><use xlink:href="#A" fill="#07435b" data-text="c" transform="matrix(11.96063 0 0 -11.7599 75.624 51.502)"/><use xlink:href="#B" fill="#07435b" data-text="u" transform="matrix(11.96063 0 0 -11.7599 82.824 51.502)"/><use xlink:href="#E" fill="#07435b" data-text="t" transform="matrix(11.96063 0 0 -11.7599 90.73 51.502)"/><use xlink:href="#F" fill="#07435b" data-text="," transform="matrix(11.96063 0 0 -11.7599 95.37 51.502)"/><use xlink:href="#c" fill="#07435b" transform="matrix(11.96063 0 0 -11.7599 98.409 51.502)"/><use xlink:href="#G" fill="#07435b" data-text="a" transform="matrix(11.96063 0 0 -11.7599 106.518 51.502)"/><use xlink:href="#y" fill="#07435b" data-text="n" transform="matrix(11.96063 0 0 -11.7599 114.627 51.502)"/><use xlink:href="#B" fill="#07435b" data-text="u" transform="matrix(11.96063 0 0 -11.7599 122.533 51.502)"/><use xlink:href="#H" fill="#07435b" data-text="m" transform="matrix(11.96063 0 0 -11.7599 130.44 51.502)"/><use xlink:href="#z" fill="#07435b" data-text="e" transform="matrix(11.96063 0 0 -11.7599 142.974 51.502)"/><use xlink:href="#c" fill="#07435b" transform="matrix(11.96063 0 0 -11.7599 150.354 51.502)"/><use xlink:href="#I" fill="#fe7c64" data-text="f" transform="matrix(12.95735 0 0 -12.73988 158.467 51.498)"/><use xlink:href="#e" fill="#fe7c64" data-text="a" transform="matrix(12.95735 0 0 -12.73988 163.3 51.498)"/><use xlink:href="#J" fill="#fe7c64" data-text="c" transform="matrix(12.95735 0 0 -12.73988 172.11 51.498)"/><use xlink:href="#g" fill="#fe7c64" data-text="u" transform="matrix(12.95735 0 0 -12.73988 179.976 51.498)"/><use xlink:href="#f" fill="#fe7c64" data-text="l" transform="matrix(12.95735 0 0 -12.73988 188.864 51.498)"/><use xlink:href="#h" fill="#fe7c64" data-text="t" transform="matrix(12.95735 0 0 -12.73988 192.855 51.498)"/><use xlink:href="#e" fill="#fe7c64" data-text="a" transform="matrix(12.95735 0 0 -12.73988 198.31 51.498)"/><use xlink:href="#h" fill="#fe7c64" data-text="t" transform="matrix(12.95735 0 0 -12.73988 207.121 51.498)"/><use xlink:href="#K" fill="#fe7c64" data-text="e" transform="matrix(12.95735 0 0 -12.73988 212.576 51.498)"/><use xlink:href="#e" fill="#fe7c64" data-text="a" transform="matrix(12.95735 0 0 -12.73988 220.558 51.498)"/><use xlink:href="#L" fill="#07435b" data-text="!" transform="matrix(11.96063 0 0 -11.7599 229.368 51.498)"/><use xlink:href="#j" fill="#07435b" transform="matrix(11.96063 0 0 -11.7599 233.602 51.498)"/><use xlink:href="#M" fill="#07435b" data-text="Ș" transform="matrix(11.96063 0 0 -11.7599 241.71 51.498)"/><use xlink:href="#r" fill="#07435b" data-text="t" transform="matrix(11.96063 0 0 -11.7599 249.173 51.498)"/><use xlink:href="#p" fill="#07435b" data-text="i" transform="matrix(11.96063 0 0 -11.7599 253.814 51.498)"/><use xlink:href="#v" fill="#07435b" data-text="u" transform="matrix(11.96063 0 0 -11.7599 257.14 51.498)"/><use xlink:href="#N" fill="#07435b" data-text="," transform="matrix(11.96063 0 0 -11.7599 265.045 51.498)"/><use xlink:href="#j" fill="#07435b" transform="matrix(11.96063 0 0 -11.7599 268.083 51.498)"/><use xlink:href="#t" fill="#07435b" data-text="p" transform="matrix(11.96063 0 0 -11.7599 23.18 68.162)"/><use xlink:href="#l" fill="#07435b" data-text="o" transform="matrix(11.96063 0 0 -11.7599 31.288 68.162)"/><use xlink:href="#o" fill="#07435b" data-text="a" transform="matrix(11.96063 0 0 -11.7599 38.92 68.162)"/><use xlink:href="#r" fill="#07435b" data-text="t" transform="matrix(11.96063 0 0 -11.7599 47.029 68.162)"/><use xlink:href="#u" fill="#07435b" data-text="e" transform="matrix(11.96063 0 0 -11.7599 51.67 68.162)"/><use xlink:href="#j" fill="#07435b" transform="matrix(11.96063 0 0 -11.7599 59.05 68.162)"/><use xlink:href="#t" fill="#07435b" data-text="p" transform="matrix(11.96063 0 0 -11.7599 61.516 68.162)"/><use xlink:href="#w" fill="#07435b" data-text="ă" transform="matrix(11.96063 0 0 -11.7599 69.625 68.162)"/><use xlink:href="#s" fill="#07435b" data-text="r" transform="matrix(11.96063 0 0 -11.7599 77.735 68.162)"/><use xlink:href="#u" fill="#07435b" data-text="e" transform="matrix(11.96063 0 0 -11.7599 82.567 68.162)"/><use xlink:href="#o" fill="#07435b" data-text="a" transform="matrix(11.96063 0 0 -11.7599 89.947 68.162)"/><use xlink:href="#j" fill="#07435b" transform="matrix(11.96063 0 0 -11.7599 98.056 68.162)"/><use xlink:href="#t" fill="#07435b" data-text="p" transform="matrix(11.96063 0 0 -11.7599 100.524 68.162)"/><use xlink:href="#v" fill="#07435b" data-text="u" transform="matrix(11.96063 0 0 -11.7599 108.634 68.162)"/><use xlink:href="#O" fill="#07435b" data-text="ț" transform="matrix(11.96063 0 0 -11.7599 116.54 68.162)"/><use xlink:href="#p" fill="#07435b" data-text="i" transform="matrix(11.96063 0 0 -11.7599 121.18 68.162)"/><use xlink:href="#q" fill="#07435b" data-text="n" transform="matrix(11.96063 0 0 -11.7599 124.505 68.162)"/><use xlink:href="#j" fill="#07435b" transform="matrix(11.96063 0 0 -11.7599 132.411 68.162)"/><use xlink:href="#P" fill="#07435b" data-text="î" transform="matrix(11.96063 0 0 -11.7599 134.88 68.162)"/><use xlink:href="#q" fill="#07435b" data-text="n" transform="matrix(11.96063 0 0 -11.7599 138.348 68.162)"/><use xlink:href="#Q" fill="#07435b" data-text="f" transform="matrix(11.96063 0 0 -11.7599 146.254 68.162)"/><use xlink:href="#s" fill="#07435b" data-text="r" transform="matrix(11.96063 0 0 -11.7599 150.38 68.162)"/><use xlink:href="#p" fill="#07435b" data-text="i" transform="matrix(11.96063 0 0 -11.7599 155.213 68.162)"/><use xlink:href="#m" fill="#07435b" data-text="c" transform="matrix(11.96063 0 0 -11.7599 158.538 68.162)"/><use xlink:href="#l" fill="#07435b" data-text="o" transform="matrix(11.96063 0 0 -11.7599 165.738 68.162)"/><use xlink:href="#R" fill="#07435b" data-text="ș" transform="matrix(11.96063 0 0 -11.7599 173.37 68.162)"/><use xlink:href="#w" fill="#07435b" data-text="ă" transform="matrix(11.96063 0 0 -11.7599 179.888 68.162)"/><use xlink:href="#r" fill="#07435b" data-text="t" transform="matrix(11.96063 0 0 -11.7599 187.997 68.162)"/><use xlink:href="#l" fill="#07435b" data-text="o" transform="matrix(11.96063 0 0 -11.7599 192.638 68.162)"/><use xlink:href="#s" fill="#07435b" data-text="r" transform="matrix(11.96063 0 0 -11.7599 200.269 68.162)"/><use xlink:href="#j" fill="#07435b" transform="matrix(11.96063 0 0 -11.7599 205.1 68.162)"/><use xlink:href="#S" fill="#07435b" data-text="l" transform="matrix(11.96063 0 0 -11.7599 207.57 68.162)"/><use xlink:href="#o" fill="#07435b" data-text="a" transform="matrix(11.96063 0 0 -11.7599 210.894 68.162)"/><use xlink:href="#j" fill="#07435b" transform="matrix(11.96063 0 0 -11.7599 219.004 68.162)"/><use xlink:href="#P" fill="#07435b" data-text="î" transform="matrix(11.96063 0 0 -11.7599 221.471 68.162)"/><use xlink:href="#q" fill="#07435b" data-text="n" transform="matrix(11.96063 0 0 -11.7599 224.94 68.162)"/><use xlink:href="#m" fill="#07435b" data-text="c" transform="matrix(11.96063 0 0 -11.7599 232.846 68.162)"/><use xlink:href="#u" fill="#07435b" data-text="e" transform="matrix(11.96063 0 0 -11.7599 240.046 68.162)"/><use xlink:href="#t" fill="#07435b" data-text="p" transform="matrix(11.96063 0 0 -11.7599 247.426 68.162)"/><use xlink:href="#v" fill="#07435b" data-text="u" transform="matrix(11.96063 0 0 -11.7599 255.535 68.162)"/><use xlink:href="#r" fill="#07435b" data-text="t" transform="matrix(11.96063 0 0 -11.7599 263.441 68.162)"/><use xlink:href="#j" fill="#07435b" transform="matrix(11.96063 0 0 -11.7599 268.082 68.162)"/><use xlink:href="#T" fill="#07435b" data-text="d" transform="matrix(11.96063 0 0 -11.7599 23.18 84.824)"/><use xlink:href="#p" fill="#07435b" data-text="i" transform="matrix(11.96063 0 0 -11.7599 31.288 84.824)"/><use xlink:href="#q" fill="#07435b" data-text="n" transform="matrix(11.96063 0 0 -11.7599 34.614 84.824)"/><use xlink:href="#j" fill="#07435b" transform="matrix(11.96063 0 0 -11.7599 42.52 84.824)"/><use xlink:href="#n" fill="#07435b" data-text="m" transform="matrix(11.96063 0 0 -11.7599 45.273 84.824)"/><use xlink:href="#l" fill="#07435b" data-text="o" transform="matrix(11.96063 0 0 -11.7599 57.808 84.824)"/><use xlink:href="#n" fill="#07435b" data-text="m" transform="matrix(11.96063 0 0 -11.7599 65.439 84.824)"/><use xlink:href="#u" fill="#07435b" data-text="e" transform="matrix(11.96063 0 0 -11.7599 77.973 84.824)"/><use xlink:href="#q" fill="#07435b" data-text="n" transform="matrix(11.96063 0 0 -11.7599 85.353 84.824)"/><use xlink:href="#r" fill="#07435b" data-text="t" transform="matrix(11.96063 0 0 -11.7599 93.26 84.824)"/><use xlink:href="#j" fill="#07435b" transform="matrix(11.96063 0 0 -11.7599 97.9 84.824)"/><use xlink:href="#m" fill="#07435b" data-text="c" transform="matrix(11.96063 0 0 -11.7599 100.65 84.824)"/><use xlink:href="#u" fill="#07435b" data-text="e" transform="matrix(11.96063 0 0 -11.7599 107.851 84.824)"/><use xlink:href="#j" fill="#07435b" transform="matrix(11.96063 0 0 -11.7599 115.231 84.824)"/><use xlink:href="#Q" fill="#07435b" data-text="f" transform="matrix(11.96063 0 0 -11.7599 117.984 84.824)"/><use xlink:href="#o" fill="#07435b" data-text="a" transform="matrix(11.96063 0 0 -11.7599 122.11 84.824)"/><use xlink:href="#m" fill="#07435b" data-text="c" transform="matrix(11.96063 0 0 -11.7599 130.22 84.824)"/><use xlink:href="#v" fill="#07435b" data-text="u" transform="matrix(11.96063 0 0 -11.7599 137.42 84.824)"/><use xlink:href="#S" fill="#07435b" data-text="l" transform="matrix(11.96063 0 0 -11.7599 145.326 84.824)"/><use xlink:href="#r" fill="#07435b" data-text="t" transform="matrix(11.96063 0 0 -11.7599 148.651 84.824)"/><use xlink:href="#o" fill="#07435b" data-text="a" transform="matrix(11.96063 0 0 -11.7599 153.292 84.824)"/><use xlink:href="#r" fill="#07435b" data-text="t" transform="matrix(11.96063 0 0 -11.7599 161.401 84.824)"/><use xlink:href="#u" fill="#07435b" data-text="e" transform="matrix(11.96063 0 0 -11.7599 166.042 84.824)"/><use xlink:href="#o" fill="#07435b" data-text="a" transform="matrix(11.96063 0 0 -11.7599 173.422 84.824)"/><use xlink:href="#j" fill="#07435b" transform="matrix(11.96063 0 0 -11.7599 181.531 84.824)"/><use xlink:href="#u" fill="#07435b" data-text="e" transform="matrix(11.96063 0 0 -11.7599 184.283 84.824)"/><use xlink:href="#U" fill="#07435b" data-text="s" transform="matrix(11.96063 0 0 -11.7599 191.663 84.824)"/><use xlink:href="#r" fill="#07435b" data-text="t" transform="matrix(11.96063 0 0 -11.7599 198.181 84.824)"/><use xlink:href="#u" fill="#07435b" data-text="e" transform="matrix(11.96063 0 0 -11.7599 202.822 84.824)"/><use xlink:href="#j" fill="#07435b" transform="matrix(11.96063 0 0 -11.7599 210.202 84.824)"/><use xlink:href="#n" fill="#07435b" data-text="m" transform="matrix(11.96063 0 0 -11.7599 212.955 84.824)"/><use xlink:href="#v" fill="#07435b" data-text="u" transform="matrix(11.96063 0 0 -11.7599 225.49 84.824)"/><use xlink:href="#S" fill="#07435b" data-text="l" transform="matrix(11.96063 0 0 -11.7599 233.396 84.824)"/><use xlink:href="#r" fill="#07435b" data-text="t" transform="matrix(11.96063 0 0 -11.7599 236.721 84.824)"/><use xlink:href="#j" fill="#07435b" transform="matrix(11.96063 0 0 -11.7599 241.362 84.824)"/><use xlink:href="#n" fill="#07435b" data-text="m" transform="matrix(11.96063 0 0 -11.7599 244.114 84.824)"/><use xlink:href="#o" fill="#07435b" data-text="a" transform="matrix(11.96063 0 0 -11.7599 256.649 84.824)"/><use xlink:href="#p" fill="#07435b" data-text="i" transform="matrix(11.96063 0 0 -11.7599 264.758 84.824)"/><use xlink:href="#j" fill="#07435b" transform="matrix(11.96063 0 0 -11.7599 268.083 84.824)"/><use xlink:href="#T" fill="#07435b" data-text="d" transform="matrix(11.96063 0 0 -11.7599 23.18 101.488)"/><use xlink:href="#p" fill="#07435b" data-text="i" transform="matrix(11.96063 0 0 -11.7599 31.288 101.488)"/><use xlink:href="#Q" fill="#07435b" data-text="f" transform="matrix(11.96063 0 0 -11.7599 34.614 101.488)"/><use xlink:href="#u" fill="#07435b" data-text="e" transform="matrix(11.96063 0 0 -11.7599 38.74 101.488)"/><use xlink:href="#s" fill="#07435b" data-text="r" transform="matrix(11.96063 0 0 -11.7599 46.12 101.488)"/><use xlink:href="#p" fill="#07435b" data-text="i" transform="matrix(11.96063 0 0 -11.7599 50.952 101.488)"/><use xlink:href="#r" fill="#07435b" data-text="t" transform="matrix(11.96063 0 0 -11.7599 54.277 101.488)"/><use xlink:href="#w" fill="#07435b" data-text="ă" transform="matrix(11.96063 0 0 -11.7599 58.918 101.488)"/><use xlink:href="#j" fill="#07435b" transform="matrix(11.96063 0 0 -11.7599 67.027 101.488)"/><use xlink:href="#Q" fill="#07435b" data-text="f" transform="matrix(11.96063 0 0 -11.7599 71.442 101.488)"/><use xlink:href="#o" fill="#07435b" data-text="a" transform="matrix(11.96063 0 0 -11.7599 75.569 101.488)"/><use xlink:href="#O" fill="#07435b" data-text="ț" transform="matrix(11.96063 0 0 -11.7599 83.678 101.488)"/><use xlink:href="#w" fill="#07435b" data-text="ă" transform="matrix(11.96063 0 0 -11.7599 88.319 101.488)"/><use xlink:href="#j" fill="#07435b" transform="matrix(11.96063 0 0 -11.7599 96.428 101.488)"/><use xlink:href="#T" fill="#07435b" data-text="d" transform="matrix(11.96063 0 0 -11.7599 100.844 101.488)"/><use xlink:href="#u" fill="#07435b" data-text="e" transform="matrix(11.96063 0 0 -11.7599 108.953 101.488)"/><use xlink:href="#j" fill="#07435b" transform="matrix(11.96063 0 0 -11.7599 116.333 101.488)"/><use xlink:href="#S" fill="#07435b" data-text="l" transform="matrix(11.96063 0 0 -11.7599 120.749 101.488)"/><use xlink:href="#p" fill="#07435b" data-text="i" transform="matrix(11.96063 0 0 -11.7599 124.074 101.488)"/><use xlink:href="#m" fill="#07435b" data-text="c" transform="matrix(11.96063 0 0 -11.7599 127.4 101.488)"/><use xlink:href="#u" fill="#07435b" data-text="e" transform="matrix(11.96063 0 0 -11.7599 134.6 101.488)"/><use xlink:href="#v" fill="#07435b" data-text="u" transform="matrix(11.96063 0 0 -11.7599 141.98 101.488)"/><use xlink:href="#V" fill="#07435b" data-text="." transform="matrix(11.96063 0 0 -11.7599 149.885 101.488)"/><use xlink:href="#j" fill="#07435b" transform="matrix(11.96063 0 0 -11.7599 152.995 101.488)"/><use xlink:href="#W" fill="#07435b" data-text="Î" transform="matrix(11.96063 0 0 -11.7599 157.41 101.488)"/><use xlink:href="#q" fill="#07435b" data-text="n" transform="matrix(11.96063 0 0 -11.7599 160.736 101.488)"/><use xlink:href="#U" fill="#07435b" data-text="s" transform="matrix(11.96063 0 0 -11.7599 168.642 101.488)"/><use xlink:href="#w" fill="#07435b" data-text="ă" transform="matrix(11.96063 0 0 -11.7599 175.16 101.488)"/><use xlink:href="#N" fill="#07435b" data-text="," transform="matrix(11.96063 0 0 -11.7599 183.27 101.488)"/><use xlink:href="#j" fill="#07435b" transform="matrix(11.96063 0 0 -11.7599 186.308 101.488)"/><use xlink:href="#X" fill="#fe7c64" data-text="n" transform="matrix(12.95735 0 0 -12.73988 190.725 101.477)"/><use xlink:href="#Y" fill="#fe7c64" data-text="o" transform="matrix(12.95735 0 0 -12.73988 199.614 101.477)"/><use xlink:href="#Z" fill="#fe7c64" data-text="i" transform="matrix(12.95735 0 0 -12.73988 207.855 101.477)"/><use xlink:href="#aa" fill="#fe7c64" transform="matrix(12.95735 0 0 -12.73988 211.846 101.477)"/><use xlink:href="#ab" fill="#fe7c64" data-text="s" transform="matrix(12.95735 0 0 -12.73988 215.685 101.477)"/><use xlink:href="#g" fill="#fe7c64" data-text="u" transform="matrix(12.95735 0 0 -12.73988 223.045 101.477)"/><use xlink:href="#X" fill="#fe7c64" data-text="n" transform="matrix(12.95735 0 0 -12.73988 231.933 101.477)"/><use xlink:href="#h" fill="#fe7c64" data-text="t" transform="matrix(12.95735 0 0 -12.73988 240.822 101.477)"/><use xlink:href="#K" fill="#fe7c64" data-text="e" transform="matrix(12.95735 0 0 -12.73988 246.277 101.477)"/><use xlink:href="#ac" fill="#fe7c64" data-text="m" transform="matrix(12.95735 0 0 -12.73988 254.259 101.477)"/><use xlink:href="#aa" fill="#fe7c64" transform="matrix(12.95735 0 0 -12.73988 268.084 101.477)"/><use xlink:href="#e" fill="#fe7c64" data-text="a" transform="matrix(12.95735 0 0 -12.73988 23.187 118.141)"/><use xlink:href="#Z" fill="#fe7c64" data-text="i" transform="matrix(12.95735 0 0 -12.73988 31.998 118.141)"/><use xlink:href="#J" fill="#fe7c64" data-text="c" transform="matrix(12.95735 0 0 -12.73988 35.989 118.141)"/><use xlink:href="#Z" fill="#fe7c64" data-text="i" transform="matrix(12.95735 0 0 -12.73988 43.854 118.141)"/><use xlink:href="#aa" fill="#fe7c64" transform="matrix(12.95735 0 0 -12.73988 47.845 118.141)"/><use xlink:href="#ab" fill="#fe7c64" data-text="s" transform="matrix(12.95735 0 0 -12.73988 52.149 118.141)"/><use xlink:href="#e" fill="#fe7c64" data-text="a" transform="matrix(12.95735 0 0 -12.73988 59.508 118.141)"/><use xlink:href="#aa" fill="#fe7c64" transform="matrix(12.95735 0 0 -12.73988 68.32 118.141)"/><use xlink:href="#h" fill="#fe7c64" data-text="t" transform="matrix(12.95735 0 0 -12.73988 72.623 118.141)"/><use xlink:href="#K" fill="#fe7c64" data-text="e" transform="matrix(12.95735 0 0 -12.73988 78.079 118.141)"/><use xlink:href="#aa" fill="#fe7c64" transform="matrix(12.95735 0 0 -12.73988 86.06 118.141)"/><use xlink:href="#e" fill="#fe7c64" data-text="a" transform="matrix(12.95735 0 0 -12.73988 90.364 118.141)"/><use xlink:href="#ad" fill="#fe7c64" data-text="j" transform="matrix(12.95735 0 0 -12.73988 99.175 118.141)"/><use xlink:href="#g" fill="#fe7c64" data-text="u" transform="matrix(12.95735 0 0 -12.73988 103.153 118.141)"/><use xlink:href="#h" fill="#fe7c64" data-text="t" transform="matrix(12.95735 0 0 -12.73988 112.041 118.141)"/><use xlink:href="#ae" fill="#fe7c64" data-text="ă" transform="matrix(12.95735 0 0 -12.73988 117.496 118.141)"/><use xlink:href="#ac" fill="#fe7c64" data-text="m" transform="matrix(12.95735 0 0 -12.73988 126.307 118.141)"/><use xlink:href="#i" fill="#fe7c64" data-text="!" transform="matrix(12.95735 0 0 -12.73988 140.133 118.141)"/><use xlink:href="#aa" fill="#fe7c64" transform="matrix(12.95735 0 0 -12.73988 145.614 118.141)"/><use xlink:href="#af" fill="#07435b" data-text="C" transform="matrix(11.96063 0 0 -11.7599 149.909 118.138)"/><use xlink:href="#l" fill="#07435b" data-text="o" transform="matrix(11.96063 0 0 -11.7599 159.094 118.138)"/><use xlink:href="#q" fill="#07435b" data-text="n" transform="matrix(11.96063 0 0 -11.7599 166.725 118.138)"/><use xlink:href="#r" fill="#07435b" data-text="t" transform="matrix(11.96063 0 0 -11.7599 174.631 118.138)"/><use xlink:href="#p" fill="#07435b" data-text="i" transform="matrix(11.96063 0 0 -11.7599 179.272 118.138)"/><use xlink:href="#q" fill="#07435b" data-text="n" transform="matrix(11.96063 0 0 -11.7599 182.597 118.138)"/><use xlink:href="#v" fill="#07435b" data-text="u" transform="matrix(11.96063 0 0 -11.7599 190.503 118.138)"/><use xlink:href="#w" fill="#07435b" data-text="ă" transform="matrix(11.96063 0 0 -11.7599 198.409 118.138)"/><use xlink:href="#j" fill="#07435b" transform="matrix(11.96063 0 0 -11.7599 206.518 118.138)"/><use xlink:href="#U" fill="#07435b" data-text="s" transform="matrix(11.96063 0 0 -11.7599 211.47 118.138)"/><use xlink:href="#w" fill="#07435b" data-text="ă" transform="matrix(11.96063 0 0 -11.7599 217.989 118.138)"/><use xlink:href="#j" fill="#07435b" transform="matrix(11.96063 0 0 -11.7599 226.098 118.138)"/><use xlink:href="#m" fill="#07435b" data-text="c" transform="matrix(11.96063 0 0 -11.7599 231.049 118.138)"/><use xlink:href="#p" fill="#07435b" data-text="i" transform="matrix(11.96063 0 0 -11.7599 238.25 118.138)"/><use xlink:href="#r" fill="#07435b" data-text="t" transform="matrix(11.96063 0 0 -11.7599 241.574 118.138)"/><use xlink:href="#u" fill="#07435b" data-text="e" transform="matrix(11.96063 0 0 -11.7599 246.215 118.138)"/><use xlink:href="#R" fill="#07435b" data-text="ș" transform="matrix(11.96063 0 0 -11.7599 253.595 118.138)"/><use xlink:href="#r" fill="#07435b" data-text="t" transform="matrix(11.96063 0 0 -11.7599 260.113 118.138)"/><use xlink:href="#p" fill="#07435b" data-text="i" transform="matrix(11.96063 0 0 -11.7599 264.754 118.138)"/><use xlink:href="#j" fill="#07435b" transform="matrix(11.96063 0 0 -11.7599 268.079 118.138)"/><use xlink:href="#t" fill="#07435b" data-text="p" transform="matrix(11.96063 0 0 -11.7599 23.186 134.802)"/><use xlink:href="#u" fill="#07435b" data-text="e" transform="matrix(11.96063 0 0 -11.7599 31.295 134.802)"/><use xlink:href="#q" fill="#07435b" data-text="n" transform="matrix(11.96063 0 0 -11.7599 38.675 134.802)"/><use xlink:href="#r" fill="#07435b" data-text="t" transform="matrix(11.96063 0 0 -11.7599 46.58 134.802)"/><use xlink:href="#s" fill="#07435b" data-text="r" transform="matrix(11.96063 0 0 -11.7599 51.222 134.802)"/><use xlink:href="#v" fill="#07435b" data-text="u" transform="matrix(11.96063 0 0 -11.7599 56.054 134.802)"/><use xlink:href="#j" fill="#07435b" transform="matrix(11.96063 0 0 -11.7599 63.96 134.802)"/><use xlink:href="#o" fill="#07435b" data-text="a" transform="matrix(11.96063 0 0 -11.7599 70.02 134.802)"/><use xlink:href="#ag" fill="#07435b" data-text="-" transform="matrix(11.96063 0 0 -11.7599 78.129 134.802)"/><use xlink:href="#O" fill="#07435b" data-text="ț" transform="matrix(11.96063 0 0 -11.7599 85.102 134.802)"/><use xlink:href="#p" fill="#07435b" data-text="i" transform="matrix(11.96063 0 0 -11.7599 89.743 134.802)"/><use xlink:href="#j" fill="#07435b" transform="matrix(11.96063 0 0 -11.7599 93.068 134.802)"/><use xlink:href="#Q" fill="#07435b" data-text="f" transform="matrix(11.96063 0 0 -11.7599 99.127 134.802)"/><use xlink:href="#o" fill="#07435b" data-text="a" transform="matrix(11.96063 0 0 -11.7599 103.253 134.802)"/><use xlink:href="#m" fill="#07435b" data-text="c" transform="matrix(11.96063 0 0 -11.7599 111.362 134.802)"/><use xlink:href="#u" fill="#07435b" data-text="e" transform="matrix(11.96063 0 0 -11.7599 118.563 134.802)"/><use xlink:href="#j" fill="#07435b" transform="matrix(11.96063 0 0 -11.7599 125.943 134.802)"/><use xlink:href="#o" fill="#07435b" data-text="a" transform="matrix(11.96063 0 0 -11.7599 132.001 134.802)"/><use xlink:href="#m" fill="#07435b" data-text="c" transform="matrix(11.96063 0 0 -11.7599 140.11 134.802)"/><use xlink:href="#u" fill="#07435b" data-text="e" transform="matrix(11.96063 0 0 -11.7599 147.31 134.802)"/><use xlink:href="#o" fill="#07435b" data-text="a" transform="matrix(11.96063 0 0 -11.7599 154.69 134.802)"/><use xlink:href="#U" fill="#07435b" data-text="s" transform="matrix(11.96063 0 0 -11.7599 162.8 134.802)"/><use xlink:href="#r" fill="#07435b" data-text="t" transform="matrix(11.96063 0 0 -11.7599 169.318 134.802)"/><use xlink:href="#w" fill="#07435b" data-text="ă" transform="matrix(11.96063 0 0 -11.7599 173.959 134.802)"/><use xlink:href="#j" fill="#07435b" transform="matrix(11.96063 0 0 -11.7599 182.068 134.802)"/><use xlink:href="#r" fill="#07435b" data-text="t" transform="matrix(11.96063 0 0 -11.7599 188.128 134.802)"/><use xlink:href="#s" fill="#07435b" data-text="r" transform="matrix(11.96063 0 0 -11.7599 192.769 134.802)"/><use xlink:href="#o" fill="#07435b" data-text="a" transform="matrix(11.96063 0 0 -11.7599 197.6 134.802)"/><use xlink:href="#q" fill="#07435b" data-text="n" transform="matrix(11.96063 0 0 -11.7599 205.71 134.802)"/><use xlink:href="#ah" fill="#07435b" data-text="z" transform="matrix(11.96063 0 0 -11.7599 213.616 134.802)"/><use xlink:href="#p" fill="#07435b" data-text="i" transform="matrix(11.96063 0 0 -11.7599 219.393 134.802)"/><use xlink:href="#O" fill="#07435b" data-text="ț" transform="matrix(11.96063 0 0 -11.7599 222.718 134.802)"/><use xlink:href="#p" fill="#07435b" data-text="i" transform="matrix(11.96063 0 0 -11.7599 227.359 134.802)"/><use xlink:href="#u" fill="#07435b" data-text="e" transform="matrix(11.96063 0 0 -11.7599 230.684 134.802)"/><use xlink:href="#j" fill="#07435b" transform="matrix(11.96063 0 0 -11.7599 238.063 134.802)"/><use xlink:href="#n" fill="#07435b" data-text="m" transform="matrix(11.96063 0 0 -11.7599 244.122 134.802)"/><use xlink:href="#o" fill="#07435b" data-text="a" transform="matrix(11.96063 0 0 -11.7599 256.656 134.802)"/><use xlink:href="#p" fill="#07435b" data-text="i" transform="matrix(11.96063 0 0 -11.7599 264.766 134.802)"/><use xlink:href="#j" fill="#07435b" transform="matrix(11.96063 0 0 -11.7599 268.09 134.802)"/><use xlink:href="#v" fill="#07435b" data-text="u" transform="matrix(11.96063 0 0 -11.7599 23.186 151.465)"/><use xlink:href="#R" fill="#07435b" data-text="ș" transform="matrix(11.96063 0 0 -11.7599 31.092 151.465)"/><use xlink:href="#l" fill="#07435b" data-text="o" transform="matrix(11.96063 0 0 -11.7599 37.61 151.465)"/><use xlink:href="#o" fill="#07435b" data-text="a" transform="matrix(11.96063 0 0 -11.7599 45.241 151.465)"/><use xlink:href="#s" fill="#07435b" data-text="r" transform="matrix(11.96063 0 0 -11.7599 53.35 151.465)"/><use xlink:href="#w" fill="#07435b" data-text="ă" transform="matrix(11.96063 0 0 -11.7599 58.183 151.465)"/><use xlink:href="#j" fill="#07435b" transform="matrix(11.96063 0 0 -11.7599 66.292 151.465)"/><use xlink:href="#R" fill="#07435b" data-text="ș" transform="matrix(11.96063 0 0 -11.7599 71.317 151.465)"/><use xlink:href="#p" fill="#07435b" data-text="i" transform="matrix(11.96063 0 0 -11.7599 77.835 151.465)"/><use xlink:href="#j" fill="#07435b" transform="matrix(11.96063 0 0 -11.7599 81.16 151.465)"/><use xlink:href="#t" fill="#07435b" data-text="p" transform="matrix(11.96063 0 0 -11.7599 86.186 151.465)"/><use xlink:href="#u" fill="#07435b" data-text="e" transform="matrix(11.96063 0 0 -11.7599 94.295 151.465)"/><use xlink:href="#q" fill="#07435b" data-text="n" transform="matrix(11.96063 0 0 -11.7599 101.675 151.465)"/><use xlink:href="#r" fill="#07435b" data-text="t" transform="matrix(11.96063 0 0 -11.7599 109.58 151.465)"/><use xlink:href="#s" fill="#07435b" data-text="r" transform="matrix(11.96063 0 0 -11.7599 114.221 151.465)"/><use xlink:href="#v" fill="#07435b" data-text="u" transform="matrix(11.96063 0 0 -11.7599 119.053 151.465)"/><use xlink:href="#j" fill="#07435b" transform="matrix(11.96063 0 0 -11.7599 126.96 151.465)"/><use xlink:href="#o" fill="#07435b" data-text="a" transform="matrix(11.96063 0 0 -11.7599 131.985 151.465)"/><use xlink:href="#j" fill="#07435b" transform="matrix(11.96063 0 0 -11.7599 140.094 151.465)"/><use xlink:href="#T" fill="#07435b" data-text="d" transform="matrix(11.96063 0 0 -11.7599 145.12 151.465)"/><use xlink:href="#u" fill="#07435b" data-text="e" transform="matrix(11.96063 0 0 -11.7599 153.23 151.465)"/><use xlink:href="#ai" fill="#07435b" data-text="v" transform="matrix(11.96063 0 0 -11.7599 160.61 151.465)"/><use xlink:href="#u" fill="#07435b" data-text="e" transform="matrix(11.96063 0 0 -11.7599 167.774 151.465)"/><use xlink:href="#q" fill="#07435b" data-text="n" transform="matrix(11.96063 0 0 -11.7599 175.153 151.465)"/><use xlink:href="#p" fill="#07435b" data-text="i" transform="matrix(11.96063 0 0 -11.7599 183.06 151.465)"/><use xlink:href="#j" fill="#07435b" transform="matrix(11.96063 0 0 -11.7599 186.384 151.465)"/><use xlink:href="#n" fill="#07435b" data-text="m" transform="matrix(11.96063 0 0 -11.7599 191.41 151.465)"/><use xlink:href="#o" fill="#07435b" data-text="a" transform="matrix(11.96063 0 0 -11.7599 203.944 151.465)"/><use xlink:href="#p" fill="#07435b" data-text="i" transform="matrix(11.96063 0 0 -11.7599 212.053 151.465)"/><use xlink:href="#j" fill="#07435b" transform="matrix(11.96063 0 0 -11.7599 215.378 151.465)"/><use xlink:href="#Q" fill="#07435b" data-text="f" transform="matrix(11.96063 0 0 -11.7599 220.402 151.465)"/><use xlink:href="#o" fill="#07435b" data-text="a" transform="matrix(11.96063 0 0 -11.7599 224.528 151.465)"/><use xlink:href="#n" fill="#07435b" data-text="m" transform="matrix(11.96063 0 0 -11.7599 232.638 151.465)"/><use xlink:href="#p" fill="#07435b" data-text="i" transform="matrix(11.96063 0 0 -11.7599 245.173 151.465)"/><use xlink:href="#S" fill="#07435b" data-text="l" transform="matrix(11.96063 0 0 -11.7599 248.498 151.465)"/><use xlink:href="#p" fill="#07435b" data-text="i" transform="matrix(11.96063 0 0 -11.7599 251.823 151.465)"/><use xlink:href="#o" fill="#07435b" data-text="a" transform="matrix(11.96063 0 0 -11.7599 255.148 151.465)"/><use xlink:href="#s" fill="#07435b" data-text="r" transform="matrix(11.96063 0 0 -11.7599 263.257 151.465)"/><use xlink:href="#j" fill="#07435b" transform="matrix(11.96063 0 0 -11.7599 268.09 151.465)"/><use xlink:href="#m" fill="#07435b" data-text="c" transform="matrix(11.96063 0 0 -11.7599 23.186 168.129)"/><use xlink:href="#v" fill="#07435b" data-text="u" transform="matrix(11.96063 0 0 -11.7599 30.386 168.129)"/><use xlink:href="#j" fill="#07435b" transform="matrix(11.96063 0 0 -11.7599 38.292 168.129)"/><use xlink:href="#U" fill="#07435b" data-text="s" transform="matrix(11.96063 0 0 -11.7599 41.139 168.129)"/><use xlink:href="#r" fill="#07435b" data-text="t" transform="matrix(11.96063 0 0 -11.7599 47.657 168.129)"/><use xlink:href="#v" fill="#07435b" data-text="u" transform="matrix(11.96063 0 0 -11.7599 52.298 168.129)"/><use xlink:href="#T" fill="#07435b" data-text="d" transform="matrix(11.96063 0 0 -11.7599 60.204 168.129)"/><use xlink:href="#u" fill="#07435b" data-text="e" transform="matrix(11.96063 0 0 -11.7599 68.313 168.129)"/><use xlink:href="#q" fill="#07435b" data-text="n" transform="matrix(11.96063 0 0 -11.7599 75.693 168.129)"/><use xlink:href="#O" fill="#07435b" data-text="ț" transform="matrix(11.96063 0 0 -11.7599 83.6 168.129)"/><use xlink:href="#p" fill="#07435b" data-text="i" transform="matrix(11.96063 0 0 -11.7599 88.24 168.129)"/><use xlink:href="#o" fill="#07435b" data-text="a" transform="matrix(11.96063 0 0 -11.7599 91.565 168.129)"/><use xlink:href="#V" fill="#07435b" data-text="." transform="matrix(11.96063 0 0 -11.7599 99.674 168.129)"/><use xlink:href="#j" fill="#07435b" transform="matrix(11.96063 0 0 -11.7599 102.784 168.129)"/><use xlink:href="#aj" fill="#fe7c64" data-text="Ț" transform="matrix(12.95735 0 0 -12.73988 105.626 168.118)"/><use xlink:href="#Z" fill="#fe7c64" data-text="i" transform="matrix(12.95735 0 0 -12.73988 113.452 168.118)"/><use xlink:href="#X" fill="#fe7c64" data-text="n" transform="matrix(12.95735 0 0 -12.73988 117.443 168.118)"/><use xlink:href="#K" fill="#fe7c64" data-text="e" transform="matrix(12.95735 0 0 -12.73988 126.332 168.118)"/><use xlink:href="#aa" fill="#fe7c64" transform="matrix(12.95735 0 0 -12.73988 134.314 168.118)"/><use xlink:href="#ac" fill="#fe7c64" data-text="m" transform="matrix(12.95735 0 0 -12.73988 136.788 168.118)"/><use xlink:href="#Z" fill="#fe7c64" data-text="i" transform="matrix(12.95735 0 0 -12.73988 150.614 168.118)"/><use xlink:href="#X" fill="#fe7c64" data-text="n" transform="matrix(12.95735 0 0 -12.73988 154.605 168.118)"/><use xlink:href="#h" fill="#fe7c64" data-text="t" transform="matrix(12.95735 0 0 -12.73988 163.494 168.118)"/><use xlink:href="#K" fill="#fe7c64" data-text="e" transform="matrix(12.95735 0 0 -12.73988 168.949 168.118)"/><use xlink:href="#ak" fill="#fe7c64" data-text=":" transform="matrix(12.95735 0 0 -12.73988 176.93 168.118)"/><use xlink:href="#c" fill="#07435b" transform="matrix(13.95407 0 0 -13.71987 23.181 201.436)"/><use xlink:href="#al" fill="#1265e5" transform="matrix(15.94751 0 0 -15.67985 145.63 218.097)"/><use xlink:href="#am" fill="#1265e5" data-text="A" transform="matrix(36.25966 0 0 -36.25966 23.181 209.867)"/><use xlink:href="#an" fill="#1265e5" data-text="N" transform="matrix(36.25966 0 0 -36.25966 51.21 209.867)"/><use xlink:href="#ao" fill="#1265e5" data-text="I" transform="matrix(36.25966 0 0 -36.25966 79.456 209.867)"/><use xlink:href="#ao" fill="#1265e5" data-text="I" transform="matrix(36.25966 0 0 -36.25966 91.132 209.867)"/><use xlink:href="#ap" fill="#1265e5" transform="matrix(36.25966 0 0 -36.25966 102.808 209.867)"/><use xlink:href="#aq" fill="#1265e5" data-text="D" transform="matrix(36.25966 0 0 -36.25966 108.972 209.867)"/><use xlink:href="#ar" fill="#1265e5" data-text="E" transform="matrix(36.25966 0 0 -36.25966 135.913 209.867)"/><use xlink:href="#ap" fill="#1265e5" transform="matrix(36.25966 0 0 -36.25966 156.073 209.867)"/><use xlink:href="#as" fill="#1265e5" data-text="S" transform="matrix(36.25966 0 0 -36.25966 23.181 247.106)"/><use xlink:href="#at" fill="#1265e5" data-text="T" transform="matrix(36.25966 0 0 -36.25966 51.391 247.106)"/><use xlink:href="#au" fill="#1265e5" data-text="U" transform="matrix(36.25966 0 0 -36.25966 79.275 247.106)"/><use xlink:href="#av" fill="#1265e5" data-text="D" transform="matrix(36.25966 0 0 -36.25966 110.894 247.106)"/><use xlink:href="#aw" fill="#1265e5" data-text="E" transform="matrix(36.25966 0 0 -36.25966 143.382 247.106)"/><use xlink:href="#ax" fill="#1265e5" data-text="N" transform="matrix(36.25966 0 0 -36.25966 169.09 247.106)"/><use xlink:href="#ay" fill="#1265e5" data-text="Ț" transform="matrix(36.25966 0 0 -36.25966 202.884 247.106)"/><use xlink:href="#az" fill="#1265e5" data-text="I" transform="matrix(36.25966 0 0 -36.25966 230.768 247.106)"/><use xlink:href="#aw" fill="#1265e5" data-text="E" transform="matrix(36.25966 0 0 -36.25966 247.991 247.106)"/><use xlink:href="#aA" fill="#1265e5" transform="matrix(36.25966 0 0 -36.25966 268.152 247.106)"/><use xlink:href="#aB" fill="#1265e5" data-text="S" transform="matrix(36.25966 0 0 -36.25966 23.181 284.344)"/><use xlink:href="#aC" fill="#1265e5" data-text="U" transform="matrix(36.25966 0 0 -36.25966 45.844 284.344)"/><use xlink:href="#an" fill="#1265e5" data-text="N" transform="matrix(36.25966 0 0 -36.25966 71.914 284.344)"/><use xlink:href="#aD" fill="#1265e5" data-text="T" transform="matrix(36.25966 0 0 -36.25966 100.16 284.344)"/><use xlink:href="#ap" fill="#1265e5" transform="matrix(36.25966 0 0 -36.25966 122.497 284.344)"/><use xlink:href="#aE" fill="#1265e5" data-text="C" transform="matrix(36.25966 0 0 -36.25966 128.66 284.344)"/><use xlink:href="#ar" fill="#1265e5" data-text="E" transform="matrix(36.25966 0 0 -36.25966 155.964 284.344)"/><use xlink:href="#ao" fill="#1265e5" data-text="I" transform="matrix(36.25966 0 0 -36.25966 176.125 284.344)"/><use xlink:href="#ap" fill="#1265e5" transform="matrix(36.25966 0 0 -36.25966 187.8 284.344)"/><use xlink:href="#aF" fill="#1265e5" data-text="M" transform="matrix(36.25966 0 0 -36.25966 193.964 284.344)"/><use xlink:href="#am" fill="#1265e5" data-text="A" transform="matrix(36.25966 0 0 -36.25966 228.447 284.344)"/><use xlink:href="#ao" fill="#1265e5" data-text="I" transform="matrix(36.25966 0 0 -36.25966 256.476 284.344)"/><use xlink:href="#ap" fill="#1265e5" transform="matrix(36.25966 0 0 -36.25966 268.152 284.344)"/><use xlink:href="#aG" fill="#1265e5" data-text="F" transform="matrix(36.25966 0 0 -36.25966 23.181 321.583)"/><use xlink:href="#aH" fill="#1265e5" data-text="R" transform="matrix(36.25966 0 0 -36.25966 44.03 321.583)"/><use xlink:href="#au" fill="#1265e5" data-text="U" transform="matrix(36.25966 0 0 -36.25966 68.325 321.583)"/><use xlink:href="#aI" fill="#1265e5" data-text="M" transform="matrix(36.25966 0 0 -36.25966 94.395 321.583)"/><use xlink:href="#aJ" fill="#1265e5" data-text="O" transform="matrix(36.25966 0 0 -36.25966 128.878 321.583)"/><use xlink:href="#aK" fill="#1265e5" data-text="Ș" transform="matrix(36.25966 0 0 -36.25966 157.45 321.583)"/><use xlink:href="#az" fill="#1265e5" data-text="I" transform="matrix(36.25966 0 0 -36.25966 182.289 321.583)"/><use xlink:href="#aA" fill="#1265e5" transform="matrix(36.25966 0 0 -36.25966 193.964 321.583)"/><use xlink:href="#av" fill="#1265e5" data-text="D" transform="matrix(36.25966 0 0 -36.25966 201.22 321.583)"/><use xlink:href="#az" fill="#1265e5" data-text="I" transform="matrix(36.25966 0 0 -36.25966 228.161 321.583)"/><use xlink:href="#ax" fill="#1265e5" data-text="N" transform="matrix(36.25966 0 0 -36.25966 239.837 321.583)"/><use xlink:href="#aA" fill="#1265e5" transform="matrix(36.25966 0 0 -36.25966 268.083 321.583)"/><use xlink:href="#aL" fill="#1265e5" data-text="V" transform="matrix(36.25966 0 0 -36.25966 23.181 358.821)"/><use xlink:href="#az" fill="#1265e5" data-text="I" transform="matrix(36.25966 0 0 -36.25966 50.848 358.821)"/><use xlink:href="#aM" fill="#1265e5" data-text="A" transform="matrix(36.25966 0 0 -36.25966 62.523 358.821)"/><use xlink:href="#ay" fill="#1265e5" data-text="Ț" transform="matrix(36.25966 0 0 -36.25966 90.552 358.821)"/><use xlink:href="#aM" fill="#1265e5" data-text="A" transform="matrix(36.25966 0 0 -36.25966 112.888 358.821)"/><use xlink:href="#aA" fill="#1265e5" transform="matrix(36.25966 0 0 -36.25966 140.917 358.821)"/><use xlink:href="#au" fill="#1265e5" data-text="U" transform="matrix(36.25966 0 0 -36.25966 176.016 358.821)"/><use xlink:href="#ax" fill="#1265e5" data-text="N" transform="matrix(36.25966 0 0 -36.25966 202.087 358.821)"/><use xlink:href="#au" fill="#1265e5" data-text="U" transform="matrix(36.25966 0 0 -36.25966 230.333 358.821)"/><use xlink:href="#az" fill="#1265e5" data-text="I" transform="matrix(36.25966 0 0 -36.25966 256.404 358.821)"/><use xlink:href="#aA" fill="#1265e5" transform="matrix(36.25966 0 0 -36.25966 268.08 358.821)"/><use xlink:href="#aN" fill="#1265e5" data-text="O" transform="matrix(36.25966 0 0 -36.25966 188.527 396.065)"/><use xlink:href="#aF" fill="#1265e5" data-text="M" transform="matrix(36.25966 0 0 -36.25966 217.1 396.065)"/><use xlink:href="#aO" fill="#1265e5" data-text="!" transform="matrix(36.25966 0 0 -36.25966 251.582 396.065)"/><use xlink:href="#aP" fill="#043c53" data-text="3" transform="matrix(14.40587 0 0 -14.40587 23.183 401.637)"/></g></svg>