<svg xmlns="http://www.w3.org/2000/svg" xmlns:xlink="http://www.w3.org/1999/xlink" width="297.636" height="419.526"><defs><path id="b" d="M.587.705V.55H.399V0H.203v.55H.017v.155z"/><path id="c" d="M.252.705V0H.056v.705z"/><path id="d" d="M.879.705V0H.683v.389L.55 0H.386L.252.392V0H.056v.705h.237L.47.247l.173.458z"/><path id="e" d="M.613.47a.23.23 0 0 0-.03-.116A.2.2 0 0 0 .496.27.3.3 0 0 0 .349.238H.252V0H.056v.705h.293q.085 0 .145-.03t.09-.083A.24.24 0 0 0 .613.47M.33.394q.083 0 .083.076 0 .077-.083.077H.252V.394z"/><path id="f" d="M0 0"/><path id="g" d="M.252.15h.219V0H.056v.705h.196z"/><path id="h" d="M.506.362A.17.17 0 0 0 .604.301.17.17 0 0 0 .641.192q0-.09-.062-.141A.27.27 0 0 0 .405 0H.056v.705h.338a.27.27 0 0 0 .17-.048.16.16 0 0 0 .061-.135.16.16 0 0 0-.033-.103.16.16 0 0 0-.086-.057M.252.425h.099q.074 0 .074.061 0 .063-.074.063H.252zM.366.158Q.44.158.44.22q0 .032-.02.049a.1.1 0 0 1-.055.017H.252V.158z"/><path id="i" d="M.252.548V.433h.225V.284H.252V.157h.255V0H.056v.705h.451V.548z"/><path id="j" d="m.413 0-.14.26H.252V0H.056v.705h.309a.3.3 0 0 0 .144-.03.2.2 0 0 0 .089-.08.23.23 0 0 0 .03-.116.2.2 0 0 0-.04-.127.2.2 0 0 0-.115-.077L.632 0zm-.16.394h.097q.04 0 .06.019.02.018.02.055a.07.07 0 0 1-.02.053q-.021.02-.06.02H.252z"/><clipPath id="a"><path fill-rule="evenodd" d="M0 419.526h297.636V0H0Z"/></clipPath></defs><g clip-path="url(#a)" data-name="Layer 1"><path fill="#497c77" d="M0 419.525h297.635V0H0Z"/><path fill="#497c77" d="M-.127-.819c0-27.153.405-54.318-.24-81.455-.2-8.424 1.244-10.639 10.274-10.608 120.511.401 241.022.27 361.537.27 72.984 0 145.972.172 218.955-.248 7.982-.048 9.125 2.054 8.971 9.295-.509 24.173-.192 48.362-.192 72.547-9.49.225-15.41-7.839-24.024-10.126-30.148-8.001-53.356 4.495-73.204 24.95-36.6 37.718-56.202 84.587-68.27 134.692-11.296 46.903-15.069 94.056 5.554 139.835 2.606 5.788-1.238 7.757-3.785 10.644-14.347 16.274-29.73 31.553-46.187 45.669-19.714 16.908-40.041 33.128-65.572 40.578-16.438 4.796-24.78-2.007-23.597-18.957 1.138-16.267 6.658-31.485 12.343-46.598 12.698-33.756 29.016-66.06 40.288-100.39 6.12-18.651 10.8-37.542 9.363-57.437-2.3-31.87-26.551-56.386-58.032-58.956-31.252-2.551-53.236 14.21-72.925 35.153-20.163 21.446-35.743 46.353-51.784 70.883-18.343 28.05-35.224 57.168-58.626 81.577-6.19 6.455-12.65 12.721-21.202 15.986-13.8 5.27-25.978-2.958-26.32-17.691-.22-9.458 2.085-18.5 4.868-27.46 9.23-29.72 23.494-57.283 36.468-85.4 14.762-31.994 30.282-63.76 37.09-98.675 6.635-34.027 3.306-65.709-26.745-88.513C89.238-48.302 42.684-42.87 10.887-8.832 7.775-5.501 6.187.163-.127-.82"/><path fill="#497c77" d="M599.178 317.913c0 55.188-.089 110.376.127 165.562.024 5.915-.751 8.03-7.581 8.022-194.883-.239-389.765-.279-584.646.075-9.187.017-7.184-4.777-7.184-9.621-.025-132.025-.02-264.049-.02-396.075 7.285-10.517 14.324-21.218 21.913-31.512 10.852-14.719 21.961-29.376 38.61-38.186 22.245-11.77 44.06 1.363 44.234 26.397.077 11.21-2.845 21.845-6.297 32.357-10.356 31.545-25.294 61.115-39.177 91.151-14.587 31.567-30.056 62.914-35.046 97.874-4.285 30.027 2.858 56.113 29.927 73.047 27.45 17.174 54.756 14.692 81.08-3.48 26.117-18.031 43.733-43.565 61.257-69.184 20.602-30.118 38.608-61.998 61.385-90.632 8.467-10.642 17.308-21.022 29.335-27.931 6.254-3.59 13.082-4.73 19.32-.521 5.896 3.98 7.06 10.605 5.94 17.126-1.575 9.173-3.406 18.37-6.092 27.267-9.595 31.764-24.679 61.376-36.695 92.198-10.19 26.142-20.354 52.341-19.64 81.085 1.023 40.954 35.11 69.18 75.55 62.933 22.36-3.455 41.889-13.467 60.419-25.759 30.64-20.323 56.997-45.544 82.089-72.191 3.27-3.475 5.364-8.251 12.254-4.485 38.34 20.955 75.765 17.254 112.297-5.132 1.67-1.024 4.207-5.26 6.641-.385"/><path fill="#275d55" d="M477.768 237.11c18.612-22.918 33.537-45.83 47.275-69.496 20.061-34.562 38.824-69.784 44.913-110.017 1.63-10.754 4.409-23.844-8.016-29.455-11.77-5.314-19.586 5.117-26.613 12.852-24.214 26.652-38.446 58.722-48.569 92.752-9.823 33.019-15.597 66.514-8.99 103.363m121.41 80.804c-2.436-4.874-4.97-.639-6.64.385-36.536 22.386-73.958 26.087-112.298 5.132-6.89-3.766-8.983 1.01-12.254 4.485-25.092 26.649-51.449 51.869-82.087 72.191-18.535 12.292-38.06 22.304-60.421 25.759-40.44 6.248-74.527-21.979-75.547-62.933-.717-28.744 9.446-54.943 19.637-81.085 12.016-30.822 27.1-60.434 36.693-92.198 2.688-8.896 4.52-18.094 6.096-27.267 1.118-6.52-.043-13.147-5.942-17.126-6.238-4.21-13.066-3.07-19.318.52-12.029 6.91-20.87 17.29-29.337 27.932-22.777 28.634-40.784 60.514-61.385 90.632-17.524 25.62-35.139 51.153-61.257 69.184-26.323 18.172-53.63 20.654-81.08 3.48-27.07-16.934-34.211-43.02-29.927-73.047 4.99-34.96 20.46-66.307 35.047-97.874 13.88-30.036 28.819-59.606 39.175-91.151 3.453-10.512 6.375-21.146 6.298-32.357-.173-25.034-21.99-38.166-44.233-26.397-16.651 8.81-27.758 23.467-38.61 38.186C14.197 64.658 7.157 75.36-.128 85.876V-.82c6.313.982 7.902-4.68 11.015-8.013 31.796-34.037 78.35-39.47 113.991-12.422 30.05 22.804 33.38 54.486 26.745 88.513-6.808 34.915-22.327 66.681-37.09 98.675-12.973 28.117-27.238 55.68-36.468 85.4-2.783 8.96-5.088 18.002-4.868 27.46.34 14.733 12.52 22.96 26.32 17.691 8.551-3.265 15.012-9.53 21.202-15.985 23.402-24.41 40.283-53.529 58.626-81.578 16.041-24.528 31.621-49.437 51.785-70.883 19.688-20.943 41.672-37.704 72.924-35.153 31.48 2.57 55.733 27.089 58.032 58.956 1.437 19.895-3.243 38.786-9.363 57.438-11.27 34.328-27.59 66.633-40.288 100.39-5.685 15.112-11.205 30.33-12.343 46.597-1.183 16.95 7.16 23.754 23.597 18.957 25.53-7.45 45.858-23.67 65.572-40.578 16.456-14.116 31.84-29.395 46.187-45.668 2.547-2.888 6.391-4.857 3.785-10.645-20.623-45.778-16.85-92.932-5.554-139.835 12.068-50.105 31.67-96.974 68.27-134.69 19.848-20.457 43.056-32.953 73.204-24.952 8.614 2.287 14.535 10.351 24.024 10.126v152.99c-.2-.374-.372-.765-.605-1.115-.199-.3-.468-.555-.705-.828-1.162 1.092-2.784 1.968-3.416 3.31-21.87 46.597-49.624 89.536-80.934 130.262-4.716 6.135-3.144 9.602 4.128 11.561 19.231 5.182 36.15-.66 51.508-11.524 10.531-7.449 20.052-16.33 30.024-24.571"/><use xlink:href="#b" fill="#fc5b9f" data-text="T" transform="matrix(85.75478 0 0 -87.21919 26.725 292.91)"/><use xlink:href="#c" fill="#fc5b9f" data-text="I" transform="matrix(85.75478 0 0 -87.21919 78.521 292.91)"/><use xlink:href="#d" fill="#fc5b9f" data-text="M" transform="matrix(85.75478 0 0 -87.21919 104.933 292.91)"/><use xlink:href="#e" fill="#fc5b9f" data-text="P" transform="matrix(85.75478 0 0 -87.21919 185.114 292.91)"/><use xlink:href="#f" fill="#fc5b9f" transform="matrix(85.75478 0 0 -87.21919 239.654 292.91)"/><path fill="none" stroke="#fc5b9f" stroke-miterlimit="10" stroke-width=".75" d="M28.184 231.42v13.606h15.95v47.885H60.94v-47.885h16.122v-13.605zM83.322 292.91h16.808v-61.488H83.322ZM160.073 231.42l-14.835 39.947-15.179-39.946h-20.324v61.49h16.808v-34.19l11.491 34.19h14.064l11.406-33.928v33.928h16.806v-61.49zM237.681 251.918q0-6.02-2.572-10.642-2.574-4.622-7.676-7.238-5.103-2.618-12.391-2.617h-25.126v61.489h16.807v-20.758h8.319q7.374 0 12.478-2.748 5.1-2.746 7.63-7.326 2.53-4.578 2.531-10.16Zm-24.269 6.629h-6.689v-13.345h6.69q7.118 0 7.118 6.716 0 6.628-7.119 6.629Z"/><use xlink:href="#g" fill="#fc5b9f" data-text="L" transform="matrix(85.75478 0 0 -87.21919 26.725 383.069)"/><use xlink:href="#c" fill="#fc5b9f" data-text="I" transform="matrix(85.75478 0 0 -87.21919 68.83 383.069)"/><use xlink:href="#h" fill="#fc5b9f" data-text="B" transform="matrix(85.75478 0 0 -87.21919 95.243 383.069)"/><use xlink:href="#i" fill="#fc5b9f" data-text="E" transform="matrix(85.75478 0 0 -87.21919 152.785 383.069)"/><use xlink:href="#j" fill="#fc5b9f" data-text="R" transform="matrix(85.75478 0 0 -87.21919 199.778 383.069)"/><path fill="none" stroke="#fc5b9f" stroke-miterlimit="10" stroke-width=".75" d="M48.335 321.58H31.528v61.49h35.588v-13.084H48.335zM73.633 383.07h16.808v-61.49H73.633ZM138.635 351.496q4.63-1.308 7.418-4.928 2.786-3.619 2.787-9.027 0-7.588-5.275-11.774-5.273-4.187-14.534-4.187h-28.986v61.49h29.929q9.603 0 14.92-4.449 5.318-4.447 5.318-12.297 0-5.32-3.13-9.464-3.131-4.142-8.447-5.364Zm-21.782-16.31h8.49q6.345 0 6.346 5.495 0 5.32-6.346 5.32h-8.49zm9.777 34.104h-9.777v-11.166h9.691q3.086 0 4.76 1.483 1.67 1.485 1.67 4.274 0 5.409-6.344 5.409ZM196.262 335.273V321.58h-38.675v61.49h38.675v-13.693h-21.868v-11.078h19.294v-12.996h-19.294v-10.03zM253.973 383.07l-13.635-23.986q6.517-2.005 9.905-6.759 3.385-4.754 3.386-11.033 0-5.58-2.57-10.075-2.574-4.49-7.634-7.064-5.062-2.573-12.348-2.573h-26.499v61.49h16.809v-22.677h1.8l12.006 22.676zm-32.586-47.186h8.317q3.344 0 5.104 1.7 1.756 1.701 1.757 4.667 0 3.14-1.715 4.798-1.716 1.656-5.146 1.657h-8.317z"/><path fill="#9efc5b" d="M190.7 287.406c-.305 8.436-2.613 16.004-7.307 22.864-1.508 2.205-3.739 5.013-6.87 3.19-3.36-1.96-1.125-4.68.698-6.767 5.417-6.202 5.978-13.448 5.578-20.92-.1-1.885-.26-3.764-.38-5.647-.11-1.745.725-2.945 2.614-3.308 1.912-.369 3.17.57 3.901 2.09 1.354 2.815 1.468 5.853 1.766 8.498"/><path fill="none" stroke="#9efc5b" stroke-miterlimit="10" stroke-width="1.99992" d="M190.7 287.406c-.305 8.436-2.613 16.004-7.307 22.864-1.508 2.205-3.739 5.013-6.87 3.19-3.36-1.96-1.125-4.68.698-6.767 5.417-6.202 5.978-13.448 5.578-20.92-.1-1.885-.26-3.764-.38-5.647-.11-1.745.725-2.945 2.614-3.308 1.912-.369 3.17.57 3.901 2.09 1.354 2.815 1.468 5.853 1.766 8.498Z"/><path fill="#9efc5b" d="M207.238 292.228c-.695 4.453-2.106 8.984-5.14 12.962-1.394 1.829-3.385 3.152-5.837 2.067-2.528-1.118-2.551-3.328-1.503-5.42 1.653-3.295 2.702-6.62 2.92-10.32.166-2.813 2.257-5.056 5.827-4.704 3.167.313 3.613 2.704 3.733 5.415"/><path fill="none" stroke="#9efc5b" stroke-miterlimit="10" stroke-width="1.99992" d="M207.238 292.228c-.695 4.453-2.106 8.984-5.14 12.962-1.394 1.829-3.385 3.152-5.837 2.067-2.528-1.118-2.551-3.328-1.503-5.42 1.653-3.295 2.702-6.62 2.92-10.32.166-2.813 2.257-5.056 5.827-4.704 3.167.313 3.613 2.704 3.733 5.415Z"/><path fill="#9efc5b" d="M176.895 283.714c-.085 4.244-1.396 7.794-3.105 11.237-.971 1.955-2.852 2.964-5.016 2.364-2.835-.786-1.984-3.203-1.283-4.736 1.547-3.385 2.23-6.768 2.04-10.42-.111-2.125-.703-5.146 2.746-5.382 3.42-.234 4.001 2.642 4.486 5.094.145.734.11 1.497.132 1.843"/><path fill="none" stroke="#9efc5b" stroke-miterlimit="10" stroke-width="1.99992" d="M176.895 283.714c-.085 4.244-1.396 7.794-3.105 11.237-.971 1.955-2.852 2.964-5.016 2.364-2.835-.786-1.984-3.203-1.283-4.736 1.547-3.385 2.23-6.768 2.04-10.42-.111-2.125-.703-5.146 2.746-5.382 3.42-.234 4.001 2.642 4.486 5.094.145.734.11 1.497.132 1.843Z"/><path fill="none" stroke="#fff" stroke-miterlimit="10" stroke-width="1.99992" d="M253.66 392.012q6.075 0 10.784-2.515 4.712-2.514 7.344-7.14 2.63-4.625 2.63-10.64 0-7.632-4.075-12.836-4.079-5.203-11.074-6.707v12.2c1.544.733 2.717 1.744 3.528 3.035q1.215 1.939 1.215 4.482 0 3.933-2.806 6.273-2.805 2.342-7.545 2.342c-3.123 0-5.616-.78-7.488-2.342q-2.802-2.34-2.803-6.273-.001-2.543 1.214-4.482 1.214-1.936 3.526-3.034v-12.201q-6.995 1.504-11.072 6.707-4.076 5.204-4.076 12.836 0 6.014 2.63 10.64 2.633 4.626 7.343 7.14 4.713 2.515 10.726 2.515ZM274.128 318.813v-11.969l-40.761 14.803v13.066l40.76 14.86v-11.91l-6.647-2.198V321.01zm-15.32 13.76-13.182-4.335 13.183-4.395zM246.953 270.94q-3.986 0-7.053 1.734-3.065 1.736-4.799 5.175-1.734 3.441-1.734 8.356v16.94h40.763v-11.332H260.37v-5.608q0-4.974-1.822-8.413t-4.858-5.147q-3.033-1.704-6.736-1.705Zm4.396 16.361v4.512h-8.848V287.3q0-4.797 4.452-4.799 4.398.001 4.396 4.8ZM233.367 266.373h40.762V255.04h-40.762ZM233.367 250.82h9.019v-10.755h31.744v-11.333h-31.744v-10.87h-9.02zM274.533 194.1q0-5.726-2.688-10.524-2.69-4.798-7.456-7.576-4.774-2.774-10.786-2.775-6.013.001-10.783 2.775-4.77 2.778-7.43 7.547-2.659 4.77-2.66 10.552.001 5.724 2.66 10.523 2.66 4.8 7.43 7.603 4.77 2.805 10.783 2.805 6.012 0 10.786-2.805 4.766-2.803 7.456-7.603 2.689-4.8 2.688-10.523Zm-10.521 0q0 4.394-2.806 6.88c-1.87 1.658-4.401 2.485-7.603 2.485q-4.857.001-7.66-2.486-2.806-2.484-2.806-6.88 0-4.337 2.805-6.852 2.804-2.514 7.661-2.515 4.741 0 7.574 2.515 2.835 2.515 2.835 6.852ZM233.367 156.807v11.333h40.763v-23.998h-8.673v12.665zM233.367 139.923h23.649c3.775 0 6.977-.741 9.595-2.227q3.934-2.224 5.928-6.127 1.995-3.904 1.994-8.875 0-4.976-1.994-9.05t-5.954-6.447q-3.96-2.37-9.57-2.371h-23.648v11.333h23.649q3.24 0 5.057 1.59 1.822 1.591 1.821 4.714.001 3.12-1.79 4.654-1.793 1.53-5.088 1.531h-23.65zM233.367 87.249v11.335h40.763V74.586h-8.673V87.25zM244.469 59.613V48.57q-1.736-.118-2.921-.898t-1.186-2.458q.001-1.504.896-2.37.899-.868 2.69-.867 2.371 0 3.151 1.531.778 1.534.723 3.73v1.965h9.194v-2.023q-.001-3.178 1.039-4.596 1.041-1.417 3.238-1.416 1.733 0 2.776.953 1.041.955 1.042 2.63 0 2.199-1.274 3.295-1.272 1.103-3.586.984v11.043q7.23-.174 10.728-4.364t3.497-11.419q0-4.395-1.56-7.574-1.562-3.182-4.337-4.857-2.776-1.678-6.42-1.678-7.34 0-9.943 6.996h-.23q-.811-2.428-3.152-4.337-2.342-1.907-6.273-1.908-3.298 0-5.928 1.62t-4.162 4.769q-1.533 3.153-1.532 7.605 0 6.824 3.497 10.637 3.5 3.819 10.033 4.049Z"/><use xlink:href="#b" fill="#fc5b9f" data-text="T" transform="matrix(85.75478 0 0 -87.21919 23.81 97.551)"/><use xlink:href="#c" fill="#fc5b9f" data-text="I" transform="matrix(85.75478 0 0 -87.21919 75.605 97.551)"/><use xlink:href="#d" fill="#fc5b9f" data-text="M" transform="matrix(85.75478 0 0 -87.21919 102.018 97.551)"/><use xlink:href="#e" fill="#fc5b9f" data-text="P" transform="matrix(85.75478 0 0 -87.21919 182.199 97.551)"/><use xlink:href="#f" fill="#fc5b9f" transform="matrix(85.75478 0 0 -87.21919 236.739 97.551)"/><path fill="none" stroke="#fc5b9f" stroke-miterlimit="10" stroke-width=".75" d="M25.268 36.062v13.605h15.95v47.885h16.808V49.667h16.121V36.062zM80.408 97.552h16.807v-61.49H80.408ZM157.157 36.062l-14.836 39.947-15.178-39.947H106.82v61.49h16.807v-34.19l11.49 34.19h14.065l11.405-33.929v33.929h16.809v-61.49zM234.765 56.558q.001-6.016-2.573-10.64-2.574-4.622-7.674-7.24-5.104-2.615-12.393-2.616h-25.126v61.49h16.809V76.794h8.317q7.375 0 12.478-2.748 5.102-2.746 7.632-7.327 2.529-4.579 2.53-10.161Zm-24.268 6.628h-6.69V49.843h6.69q7.117 0 7.117 6.715 0 6.629-7.117 6.628Z"/><use xlink:href="#g" fill="#fc5b9f" data-text="L" transform="matrix(85.75478 0 0 -87.21919 23.81 187.71)"/><use xlink:href="#c" fill="#fc5b9f" data-text="I" transform="matrix(85.75478 0 0 -87.21919 65.915 187.71)"/><use xlink:href="#h" fill="#fc5b9f" data-text="B" transform="matrix(85.75478 0 0 -87.21919 92.328 187.71)"/><use xlink:href="#i" fill="#fc5b9f" data-text="E" transform="matrix(85.75478 0 0 -87.21919 149.869 187.71)"/><use xlink:href="#j" fill="#fc5b9f" data-text="R" transform="matrix(85.75478 0 0 -87.21919 196.863 187.71)"/><path fill="none" stroke="#fc5b9f" stroke-miterlimit="10" stroke-width=".75" d="M45.42 126.222H28.612v61.49H64.2v-13.083H45.42zM70.718 187.712h16.807v-61.49H70.718ZM135.72 156.137q4.63-1.305 7.417-4.927 2.786-3.618 2.787-9.028 0-7.586-5.274-11.775-5.273-4.185-14.535-4.185H97.13v61.49h29.928q9.603 0 14.921-4.45 5.318-4.447 5.318-12.297-.001-5.318-3.13-9.464-3.132-4.14-8.447-5.364Zm-21.782-16.31h8.49q6.346 0 6.346 5.496 0 5.32-6.346 5.319h-8.49zm9.776 34.104h-9.776v-11.165h9.69q3.088 0 4.76 1.483t1.671 4.272q0 5.411-6.345 5.41ZM193.346 139.916v-13.694H154.67v61.49h38.676v-13.695H171.48v-11.076h19.295v-12.995h-19.295v-10.03zM251.057 187.711l-13.635-23.985q6.517-2.005 9.905-6.76 3.387-4.754 3.386-11.033 0-5.58-2.57-10.075-2.573-4.49-7.634-7.063t-12.347-2.573h-26.5v61.49h16.808v-22.678h1.802l12.005 22.677zm-32.587-47.185h8.318q3.344 0 5.103 1.701 1.757 1.7 1.758 4.666 0 3.14-1.715 4.797t-5.146 1.656h-8.318z"/><path fill="#9efc5b" d="M69.545 191.479c-.617.544-1.354 1.002-1.834 1.649-8.403 11.342-16.754 22.723-25.168 34.058-2.153 2.901-1.114 5.556.278 8.282 3.366 6.593 6.96 13.097 11.537 18.899 6.098 7.728 8.791 15.009 6.42 25.789-5.028 22.86 4.14 40.978 23.765 53.811 3.5 2.288 5.616 5.186 2.975 9.955-3.42 6.176-6.385 12.643-9.035 19.193-2.955 7.306-5.159 9.691 4.458 12.916 1.229.412 2.279 1.334 3.488 1.834 5.606 2.316 11.105 5.107 17.365 5.072 1.723-.01 4.018-.04 4.629-2.058.582-1.92-.959-3.242-2.494-4.403-2.52-1.902-5.244-3.362-8.124-4.625-7.253-3.18-7.588-3.805-3.882-10.874 2.436-4.649 5.337-9.072 8.257-13.444 2.647-3.962 3.632-7.423-.385-11.313-2.68-2.597-4.541-6.024-6.897-8.978-4.07-5.102-3.398-7.7 2.665-10.346 7.106-3.1 14.879-4.195 21.923-7.537 4.551-2.16 6.436-.826 7.39 4.305 2.195 11.807 4.103 23.653 4.879 35.652.204 3.18 1.6 4.326 4.84 3.707 7.515-1.439 14.321-4.769 21.254-7.743 1.895-.814 4.153-2.007 3.748-4.62-.413-2.679-2.82-3.773-5.104-3.927-3.25-.222-6.546.212-9.82.388-3.066.164-4.9-.56-4.873-4.336.065-8.543-.403-17.087-.463-25.63-.034-4.77-.956-8.209-6.734-8.892-4.19-.496-8.23-2.217-12.344-3.363-2.514-.701-3.593-2.082-3.765-4.923-.647-10.655-1.562-21.298-2.565-31.928-.689-7.297.8-13.656 5.194-19.828 5.417-7.608 9.807-15.947 14.658-23.958 2.033-3.359 1.975-6.19-1.074-9.191-3.747-3.689-6.903-7.97-10.503-11.819-2.692-2.879-4.536-5.579-3.424-9.993.923-3.667-2.176-6.404-4.943-4.892-2.103 1.15-4.323 2.303-5.917 4.338-4.57 5.834-4.394 8.536.902 13.563 3.695 3.507 7.196 7.22 10.9 10.716 2.482 2.342 2.58 4.304.508 7.202-3.927 5.49-9.041 9.97-12.735 15.659-1.524 2.347-2.034 4.233-.701 6.766 2.976 5.654 2.58 11.437.14 17.162-.882 2.071-1.625 5.012-4.58 4.156-3.313-.96-1.576-3.637-1.039-5.763 2.704-10.71.017-17.42-9.084-21.078-5.339-2.146-10.994-1.733-16.361.482-6.075 2.506-8.131 7.782-6.437 14.067 1.64 6.084 6.28 8.968 11.048 11.89 1.727 1.06 3.018 2.466 2.273 4.392-.866 2.242-3.105 2.258-5.11 1.76-6.194-1.539-11.075-5.546-12.935-11.206-2.027-6.167-4.895-10.548-10.484-14.002-5.063-3.133-4.893-5.338-1.43-10.126 2.5-3.46 4.857-7.06 7.666-10.256 6.635-7.547 10.28-17.774 20.205-22.426 1.751-.822 3.149-2.834 2.087-4.98-1.192-2.41-3-4.47-6.178-3.94-3.51.585-6.529 2.19-9.03 4.735m35.673 139.056c8.283 9.378 8.26 9.365 1.549 19.954-2.29 3.613-4.39 7.348-6.673 10.965-1.472 2.333-.94 3.761 1.428 5.136 3.263 1.897 6.551 3.88 9.402 6.323 3.323 2.848 6.167 6.456 4.28 11.21-1.953 4.927-6.412 5.64-11.13 5.398-12.26-.63-22.774-6.172-33.152-11.959-2.918-1.628-3.208-4.546-1.448-7.308 5.077-7.972 7.266-17.264 11.787-25.48 1.691-3.073.632-5.22-2-7.147-22.125-16.197-29.511-37.85-23.434-64.284.61-2.66-.119-4.376-1.502-6.307-6.825-9.526-12.589-19.694-18.242-29.943-2.493-4.517-2.33-8.21 1.336-11.995 6.059-6.258 10.812-13.51 15.564-20.794 4.958-7.598 10.605-14.737 18.035-20.154 5.968-4.352 12.33-3.856 16.826 1.041 4.649 5.063 4.178 11.198-1.74 14.624-12.345 7.147-17.201 20.474-25.908 30.604-1.444 1.682-.259 3.083 1.332 3.997 1.646.946 3.488 2.72 5.138.294 8.972-13.188 21.052-11.99 33.841-7.386 1.986.713 3.072-.052 4.225-1.402 2.887-3.38 5.578-6.981 8.806-10.006 3.891-3.644 2.642-6.573-.538-9.496-3.395-3.12-6.84-6.197-10.415-9.107-3.442-2.802-4.272-5.557-1.787-9.69 3.324-5.527 6.17-11.297 11.996-14.736 7.01-4.138 15.304.058 15.075 8.196-.175 6.24 2.355 10.53 6.293 14.844 12.504 13.69 12.507 13.906 2.187 29.212-4.893 7.257-9.028 14.918-13.143 22.609-1.043 1.95-1.468 3.899-1.462 6.123.037 10.737 3.009 21.215 2.759 31.961-.058 2.448 1.704 3.104 3.362 3.61 4.089 1.247 8.195 2.658 12.399 3.24 5.036.701 6.594 3.469 6.621 8.069.054 8.725.407 17.448.384 26.173-.007 3.036.82 4.072 3.955 3.666 4.99-.647 9.896-.092 14.271 2.722 5.126 3.295 5.5 8.226.777 12.064-10.48 8.515-22.795 12.975-35.799 15.795-3.962.86-3.752-2.05-3.83-4.564-.366-11.878-1.839-23.63-4.088-35.29-1.223-6.345-1.277-6.351-7.413-4.015-3.846 1.465-7.6 3.214-11.523 4.414-3.931 1.202-4.504 2.719-1.366 5.507 1.1.978 1.983 2.2 2.965 3.312"/><path fill="none" stroke="#9efc5b" stroke-miterlimit="10" stroke-width="3" d="M69.545 191.479c-.617.544-1.354 1.002-1.834 1.649-8.403 11.342-16.754 22.723-25.168 34.058-2.153 2.901-1.114 5.556.278 8.282 3.366 6.593 6.96 13.097 11.537 18.899 6.098 7.728 8.791 15.009 6.42 25.789-5.028 22.86 4.14 40.978 23.765 53.811 3.5 2.288 5.616 5.186 2.975 9.955-3.42 6.176-6.385 12.643-9.035 19.193-2.955 7.306-5.159 9.691 4.458 12.916 1.229.412 2.279 1.334 3.488 1.834 5.606 2.316 11.105 5.107 17.365 5.072 1.723-.01 4.018-.04 4.629-2.058.582-1.92-.959-3.242-2.494-4.403-2.52-1.902-5.244-3.362-8.124-4.625-7.253-3.18-7.588-3.805-3.882-10.874 2.436-4.649 5.337-9.072 8.257-13.444 2.647-3.962 3.632-7.423-.385-11.313-2.68-2.597-4.541-6.024-6.897-8.978-4.07-5.102-3.398-7.7 2.665-10.346 7.106-3.1 14.879-4.195 21.923-7.537 4.551-2.16 6.436-.826 7.39 4.305 2.195 11.807 4.103 23.653 4.879 35.652.204 3.18 1.6 4.326 4.84 3.707 7.515-1.439 14.321-4.769 21.254-7.743 1.895-.814 4.153-2.007 3.748-4.62-.413-2.679-2.82-3.773-5.104-3.927-3.25-.222-6.546.212-9.82.388-3.066.164-4.9-.56-4.873-4.336.065-8.543-.403-17.087-.463-25.63-.034-4.77-.956-8.209-6.734-8.892-4.19-.496-8.23-2.217-12.344-3.363-2.514-.701-3.593-2.082-3.765-4.923-.647-10.655-1.562-21.298-2.565-31.928-.689-7.297.8-13.656 5.194-19.828 5.417-7.608 9.807-15.947 14.658-23.958 2.033-3.359 1.975-6.19-1.074-9.191-3.747-3.689-6.903-7.97-10.503-11.819-2.692-2.879-4.536-5.579-3.424-9.993.923-3.667-2.176-6.404-4.943-4.892-2.103 1.15-4.323 2.303-5.917 4.338-4.57 5.834-4.394 8.536.902 13.563 3.695 3.507 7.196 7.22 10.9 10.716 2.482 2.342 2.58 4.304.508 7.202-3.927 5.49-9.041 9.97-12.735 15.659-1.524 2.347-2.034 4.233-.701 6.766 2.976 5.654 2.58 11.437.14 17.162-.882 2.071-1.625 5.012-4.58 4.156-3.313-.96-1.576-3.637-1.039-5.763 2.704-10.71.017-17.42-9.084-21.078-5.339-2.146-10.994-1.733-16.361.482-6.075 2.506-8.131 7.782-6.437 14.067 1.64 6.084 6.28 8.968 11.048 11.89 1.727 1.06 3.018 2.466 2.273 4.392-.866 2.242-3.105 2.258-5.11 1.76-6.194-1.539-11.075-5.546-12.935-11.206-2.027-6.167-4.895-10.548-10.484-14.002-5.063-3.133-4.893-5.338-1.43-10.126 2.5-3.46 4.857-7.06 7.666-10.256 6.635-7.547 10.28-17.774 20.205-22.426 1.751-.822 3.149-2.834 2.087-4.98-1.192-2.41-3-4.47-6.178-3.94-3.51.585-6.529 2.19-9.03 4.735Zm35.673 139.056c8.283 9.378 8.26 9.365 1.549 19.954-2.29 3.613-4.39 7.348-6.673 10.965-1.472 2.333-.94 3.761 1.428 5.136 3.263 1.897 6.551 3.88 9.402 6.323 3.323 2.848 6.167 6.456 4.28 11.21-1.953 4.927-6.412 5.64-11.13 5.398-12.26-.63-22.774-6.172-33.152-11.959-2.918-1.628-3.208-4.546-1.448-7.308 5.077-7.972 7.266-17.264 11.787-25.48 1.691-3.073.632-5.22-2-7.147-22.125-16.197-29.511-37.85-23.434-64.284.61-2.66-.119-4.376-1.502-6.307-6.825-9.526-12.589-19.694-18.242-29.943-2.493-4.517-2.33-8.21 1.336-11.995 6.059-6.258 10.812-13.51 15.564-20.794 4.958-7.598 10.605-14.737 18.035-20.154 5.968-4.352 12.33-3.856 16.826 1.041 4.649 5.063 4.178 11.198-1.74 14.624-12.345 7.147-17.201 20.474-25.908 30.604-1.444 1.682-.259 3.083 1.332 3.997 1.646.946 3.488 2.72 5.138.294 8.972-13.188 21.052-11.99 33.841-7.386 1.986.713 3.072-.052 4.225-1.402 2.887-3.38 5.578-6.981 8.806-10.006 3.891-3.644 2.642-6.573-.538-9.496-3.395-3.12-6.84-6.197-10.415-9.107-3.442-2.802-4.272-5.557-1.787-9.69 3.324-5.527 6.17-11.297 11.996-14.736 7.01-4.138 15.304.058 15.075 8.196-.175 6.24 2.355 10.53 6.293 14.844 12.504 13.69 12.507 13.906 2.187 29.212-4.893 7.257-9.028 14.918-13.143 22.609-1.043 1.95-1.468 3.899-1.462 6.123.037 10.737 3.009 21.215 2.759 31.961-.058 2.448 1.704 3.104 3.362 3.61 4.089 1.247 8.195 2.658 12.399 3.24 5.036.701 6.594 3.469 6.621 8.069.054 8.725.407 17.448.384 26.173-.007 3.036.82 4.072 3.955 3.666 4.99-.647 9.896-.092 14.271 2.722 5.126 3.295 5.5 8.226.777 12.064-10.48 8.515-22.795 12.975-35.799 15.795-3.962.86-3.752-2.05-3.83-4.564-.366-11.878-1.839-23.63-4.088-35.29-1.223-6.345-1.277-6.351-7.413-4.015-3.846 1.465-7.6 3.214-11.523 4.414-3.931 1.202-4.504 2.719-1.366 5.507 1.1.978 1.983 2.2 2.965 3.312Z"/></g></svg>