<svg xmlns="http://www.w3.org/2000/svg" xmlns:xlink="http://www.w3.org/1999/xlink" width="297.636" height="419.526"><defs><path id="g" d="M.55.708V.532H.272V.434h.2V.267h-.2V0H.05v.708z"/><path id="h" d="M.504.107H.268L.233 0H0l.259.708h.256L.773 0H.539zM.45.274.386.471.322.274z"/><path id="i" d="M.03.355a.4.4 0 0 0 .042.187.3.3 0 0 0 .122.127q.08.046.186.046A.4.4 0 0 0 .544.68.3.3 0 0 0 .662.583.35.35 0 0 0 .723.436H.489A.12.12 0 0 1 .376.51.1.1 0 0 1 .288.468.18.18 0 0 1 .255.355.18.18 0 0 1 .288.242.1.1 0 0 1 .376.2a.12.12 0 0 1 .113.074h.234a.35.35 0 0 0-.06-.147A.3.3 0 0 0 .543.03.4.4 0 0 0 .38-.005a.37.37 0 0 0-.186.046.3.3 0 0 0-.122.127.4.4 0 0 0-.042.187"/><path id="j" d="M.606.708V.532H.418V0H.196v.532H.01v.176z"/><path id="k" d="M.327-.007a.35.35 0 0 0-.21.06.22.22 0 0 0-.089.174h.236Q.27.167.318.166q.02 0 .031.009Q.362.183.362.2q0 .025-.027.04A1 1 0 0 1 .25.278a1 1 0 0 0-.113.047.2.2 0 0 0-.077.067.2.2 0 0 0-.03.113q0 .069.035.117a.2.2 0 0 0 .097.074A.4.4 0 0 0 .3.72q.13 0 .207-.06a.21.21 0 0 0 .08-.17H.35Q.348.52.335.535A.05.05 0 0 1 .3.547a.03.03 0 0 1-.023-.01.04.04 0 0 1-.009-.026q0-.025.027-.04A1 1 0 0 1 .379.434 1 1 0 0 0 .49.386.2.2 0 0 0 .566.322.16.16 0 0 0 .598.219.2.2 0 0 0 .566.102a.2.2 0 0 0-.094-.08.34.34 0 0 0-.145-.029"/><path id="l" d="M.16-.008q-.059 0-.093.031a.1.1 0 0 0-.035.078q0 .048.035.08A.13.13 0 0 0 .16.211Q.217.212.252.18A.1.1 0 0 0 .287.101.1.1 0 0 0 .252.023.13.13 0 0 0 .16-.008"/><path id="m" d="M0 0"/><path id="n" d="M.497.133H.219L.173 0H.026l.251.7H.44L.691 0H.543zM.459.245.358.537.257.245z"/><path id="o" d="M.209.473a.2.2 0 0 0 .074.065.23.23 0 0 0 .109.025.24.24 0 0 0 .22-.134.3.3 0 0 0 .033-.15.3.3 0 0 0-.034-.15.25.25 0 0 0-.09-.102.24.24 0 0 0-.129-.036.23.23 0 0 0-.109.025.2.2 0 0 0-.074.063V0h-.14v.74h.14zM.502.28a.2.2 0 0 1-.02.087.14.14 0 0 1-.199.055A.14.14 0 0 1 .23.364.2.2 0 0 1 .21.277q0-.05.02-.087A.14.14 0 0 1 .355.114q.039 0 .072.02.034.021.054.057.021.037.021.088"/><path id="p" d="M.315-.009a.3.3 0 0 0-.144.036.26.26 0 0 0-.1.1.3.3 0 0 0-.037.15q0 .086.037.15a.26.26 0 0 0 .103.1.3.3 0 0 0 .145.036.3.3 0 0 0 .145-.035.26.26 0 0 0 .102-.1.3.3 0 0 0 .038-.15.3.3 0 0 0-.039-.15.27.27 0 0 0-.104-.101.3.3 0 0 0-.146-.036m0 .122q.039 0 .071.019Q.42.15.44.187t.02.09Q.46.357.418.4A.14.14 0 0 1 .317.44.13.13 0 0 1 .217.4Q.174.357.175.277q0-.078.04-.121A.13.13 0 0 1 .314.113"/><path id="q" d="M.376.562q.1 0 .16-.063A.24.24 0 0 0 .597.325V0h-.14v.306q0 .066-.033.101a.12.12 0 0 1-.09.036.12.12 0 0 1-.092-.036Q.21.372.21.306V0h-.14v.554h.14V.485a.2.2 0 0 0 .072.056q.043.021.095.021"/><path id="r" d="M.033.28q0 .083.033.148a.242.242 0 0 0 .22.135.23.23 0 0 0 .183-.088v.08h.14V0H.47v.081A.2.2 0 0 0 .394.017a.23.23 0 0 0-.11-.026.24.24 0 0 0-.127.036.25.25 0 0 0-.09.102.3.3 0 0 0-.034.15M.469.277a.2.2 0 0 1-.02.088.14.14 0 0 1-.127.075.14.14 0 0 1-.126-.074.2.2 0 0 1-.02-.087.2.2 0 0 1 .02-.087A.15.15 0 0 1 .25.134.144.144 0 0 1 .448.19a.2.2 0 0 1 .02.087"/><path id="s" d="M.757.562Q.859.562.92.499A.24.24 0 0 0 .984.325V0h-.14v.306q0 .065-.033.1A.12.12 0 0 1 .72.44.12.12 0 0 1 .63.406Q.596.37.596.306V0h-.14v.306q0 .065-.033.1a.12.12 0 0 1-.09.034.12.12 0 0 1-.092-.034Q.21.37.21.306V0h-.14v.554h.14V.487a.2.2 0 0 0 .07.055q.042.02.093.02A.24.24 0 0 0 .488.535.2.2 0 0 0 .567.456a.2.2 0 0 0 .078.077q.052.03.112.029"/><path id="t" d="M.584.29A.3.3 0 0 0 .58.234H.175A.14.14 0 0 1 .217.141.13.13 0 0 1 .308.107q.078 0 .111.067H.57A.25.25 0 0 0 .478.043.27.27 0 0 0 .311-.01a.3.3 0 0 0-.144.036.25.25 0 0 0-.099.1.3.3 0 0 0-.035.15q0 .087.035.151a.24.24 0 0 0 .098.1q.063.036.145.035.08 0 .141-.034A.24.24 0 0 0 .55.433.3.3 0 0 0 .584.289M.439.33A.11.11 0 0 1 .4.416a.14.14 0 0 1-.093.032.13.13 0 0 1-.088-.031.14.14 0 0 1-.043-.088z"/><path id="u" d="M.232.439V.17q0-.028.014-.04T.29.117h.065V0H.268Q.091 0 .091.172v.267H.025v.115h.066V.69h.141V.554h.124V.439z"/><path id="v" d="M.209.74V0h-.14v.74z"/><path id="w" d="M.035.35q0 .103.046.185a.33.33 0 0 0 .127.127.36.36 0 0 0 .181.045q.117 0 .205-.06.089-.06.123-.166H.556a.17.17 0 0 1-.068.075.2.2 0 0 1-.1.025.194.194 0 0 1-.183-.109A.3.3 0 0 1 .18.35q0-.069.026-.121a.19.19 0 0 1 .183-.11q.057 0 .1.026A.17.17 0 0 1 .556.22h.161A.3.3 0 0 0 .594.054a.36.36 0 0 0-.205-.06.36.36 0 0 0-.18.046.33.33 0 0 0-.128.126.36.36 0 0 0-.046.184"/><path id="x" d="M.544.698V.585H.358V0h-.14v.585H.032v.113z"/><path id="y" d="M.578.482A.2.2 0 0 0 .552.377a.2.2 0 0 0-.083-.08.3.3 0 0 0-.143-.03H.209V0h-.14v.698h.257Q.407.698.464.67A.2.2 0 0 0 .55.593.2.2 0 0 0 .578.482M.32.38q.058 0 .086.026a.1.1 0 0 1 .028.075q0 .102-.114.102H.21V.381z"/><path id="z" d="M.281-.009A.3.3 0 0 0 .16.016a.2.2 0 0 0-.085.066.17.17 0 0 0-.035.093h.14A.08.08 0 0 1 .212.122.1.1 0 0 1 .28.102q.04 0 .063.015.022.016.022.041 0 .027-.027.04a.5.5 0 0 1-.088.03A1 1 0 0 0 .148.26.2.2 0 0 0 .08.31a.13.13 0 0 0-.028.088q0 .046.026.084a.2.2 0 0 0 .076.06.3.3 0 0 0 .117.022.24.24 0 0 0 .158-.05A.18.18 0 0 0 .494.38H.36a.07.07 0 0 1-.028.053.1.1 0 0 1-.065.02.1.1 0 0 1-.059-.015A.05.05 0 0 1 .188.4q0-.029.028-.042a.4.4 0 0 1 .087-.03q.06-.015.099-.03A.2.2 0 0 0 .47.246.14.14 0 0 0 .499.158.15.15 0 0 0 .473.072a.2.2 0 0 0-.076-.06.3.3 0 0 0-.116-.02"/><path id="A" d="M.209.474a.226.226 0 0 0 .183.089.24.24 0 0 0 .22-.135.3.3 0 0 0 .033-.15.3.3 0 0 0-.034-.15.25.25 0 0 0-.09-.101.24.24 0 0 0-.129-.036.22.22 0 0 0-.183.088v-.343h-.14v.818h.14zM.502.279a.2.2 0 0 1-.02.086.14.14 0 0 1-.127.075A.145.145 0 0 1 .23.364.2.2 0 0 1 .208.277q0-.051.02-.087A.14.14 0 0 1 .355.114q.039 0 .072.02.034.02.054.057.021.037.021.088"/><path id="B" d="M.209.468q.027.044.07.069a.2.2 0 0 0 .1.025V.415H.342q-.066 0-.1-.031Q.21.354.21.276V0h-.14v.554h.14z"/><path id="C" d="M.216.554V0h-.14v.554zM.147.677-.002.593v.102l.149.081.148-.081V.593z"/><path id="D" d="M.033.277q0 .087.035.15a.25.25 0 0 0 .097.1.3.3 0 0 0 .142.036.27.27 0 0 0 .17-.051.25.25 0 0 0 .091-.145H.417a.1.1 0 0 1-.04.057.12.12 0 0 1-.071.02.12.12 0 0 1-.095-.043.2.2 0 0 1-.035-.124.2.2 0 0 1 .035-.122A.12.12 0 0 1 .306.11q.085 0 .111.076h.151A.26.26 0 0 0 .477.044a.27.27 0 0 0-.17-.053.3.3 0 0 0-.142.036.25.25 0 0 0-.097.1.3.3 0 0 0-.035.15"/><path id="E" d="M.033.28a.3.3 0 0 0 .033.148.242.242 0 0 0 .22.135.23.23 0 0 0 .183-.088v.08H.61V0H.469v.081A.2.2 0 0 0 .395.017a.23.23 0 0 0-.11-.026.24.24 0 0 0-.127.036.25.25 0 0 0-.092.102.3.3 0 0 0-.033.15M.469.277a.2.2 0 0 1-.02.088.14.14 0 0 1-.127.075.14.14 0 0 1-.126-.074.2.2 0 0 1-.02-.087.2.2 0 0 1 .02-.087A.15.15 0 0 1 .25.134.144.144 0 0 1 .45.19a.2.2 0 0 1 .02.087m.032.475A.15.15 0 0 0 .458.639.16.16 0 0 0 .34.6a.16.16 0 0 0-.116.04.15.15 0 0 0-.043.114v.02h.074q0-.035.019-.051Q.295.704.34.704t.066.018.019.051h.075z"/><path id="F" d="M.592.554V0h-.14v.07A.2.2 0 0 0 .38.014a.2.2 0 0 0-.095-.02.24.24 0 0 0-.115.027.2.2 0 0 0-.078.08.3.3 0 0 0-.029.128v.325h.14V.25q0-.066.033-.101a.12.12 0 0 1 .09-.036q.059 0 .091.036.033.035.033.101v.305z"/><path id="G" d="M.033.28q0 .083.033.148A.245.245 0 0 0 .39.54.2.2 0 0 0 .468.477V.74H.61V0H.468v.082A.2.2 0 0 0 .395.016a.23.23 0 0 0-.11-.025.24.24 0 0 0-.127.036.25.25 0 0 0-.092.102.3.3 0 0 0-.033.15M.469.277a.2.2 0 0 1-.02.088.14.14 0 0 1-.127.075.14.14 0 0 1-.126-.074.2.2 0 0 1-.02-.087.2.2 0 0 1 .02-.087A.15.15 0 0 1 .25.134.144.144 0 0 1 .448.19a.2.2 0 0 1 .02.087"/><path id="H" d="M.14.62a.09.09 0 0 0-.062.024.08.08 0 0 0-.024.058q0 .035.024.059A.09.09 0 0 0 .14.784.09.09 0 0 0 .2.761.08.08 0 0 0 .226.702.08.08 0 0 0 .2.644.09.09 0 0 0 .14.62M.209.554V0h-.14v.554z"/><path id="I" d="M.232.439V.17q0-.028.014-.04T.29.117h.065V0H.268Q.091 0 .091.172v.267H.025v.115h.066V.69h.141V.554h.124V.439zm.02-.482A.4.4 0 0 0 .27-.151a.15.15 0 0 0-.032-.102Q.205-.289.143-.289v.057q.05 0 .05.062v.018H.136v.109z"/><path id="J" d="M.375 0 .261.172.16 0H.01l.181.278-.183.276h.158L.279.383l.102.171h.15L.349.278.533 0z"/><path id="K" d="M.25.71.234.227H.116L.099.71zM.179-.007a.1.1 0 0 0-.063.024.08.08 0 0 0-.024.058q0 .035.024.059a.1.1 0 0 0 .063.023.08.08 0 0 0 .06-.023.08.08 0 0 0 .025-.059.08.08 0 0 0-.024-.058.08.08 0 0 0-.061-.024"/><path id="L" d="M.313.698A.4.4 0 0 0 .507.655.3.3 0 0 0 .635.533.37.37 0 0 0 .681.348.36.36 0 0 0 .635.165.3.3 0 0 0 .507.043.4.4 0 0 0 .313 0H.069v.698zM.308.12q.11 0 .17.06t.06.17q0 .108-.06.17-.06.06-.17.061H.209V.12z"/><path id="M" d="M.286.563A.23.23 0 0 0 .395.54.2.2 0 0 0 .469.475v.08h.14v-.56a.3.3 0 0 0-.03-.137.23.23 0 0 0-.093-.096.3.3 0 0 0-.15-.035.32.32 0 0 0-.194.055.2.2 0 0 0-.085.15h.139a.1.1 0 0 1 .047-.06.17.17 0 0 1 .089-.023q.06 0 .099.036.038.038.038.111v.086a.222.222 0 0 0-.183-.091.24.24 0 0 0-.128.036.25.25 0 0 0-.092.102.3.3 0 0 0-.033.15q0 .084.033.15a.242.242 0 0 0 .22.135M.469.276a.2.2 0 0 1-.02.088.14.14 0 0 1-.127.075.14.14 0 0 1-.126-.074.2.2 0 0 1-.02-.087.2.2 0 0 1 .02-.087A.15.15 0 0 1 .25.134.144.144 0 0 1 .448.19a.2.2 0 0 1 .02.087"/><path id="N" d="M.381.562q.064 0 .112-.027A.2.2 0 0 0 .57.454.3.3 0 0 0 .597.325V0h-.14v.306q0 .066-.033.102a.12.12 0 0 1-.09.035.12.12 0 0 1-.092-.035Q.21.372.21.306V0h-.14v.74h.14V.485a.2.2 0 0 0 .072.057q.045.02.1.02"/><path id="O" d="M.281-.009A.3.3 0 0 0 .16.016a.2.2 0 0 0-.085.066.17.17 0 0 0-.035.093h.14A.08.08 0 0 1 .212.122.1.1 0 0 1 .28.102q.04 0 .063.015.022.016.022.041 0 .027-.027.04a.5.5 0 0 1-.088.03A1 1 0 0 0 .148.26.2.2 0 0 0 .08.31a.13.13 0 0 0-.028.088q0 .046.026.084a.2.2 0 0 0 .076.06.3.3 0 0 0 .117.022.24.24 0 0 0 .158-.05A.18.18 0 0 0 .494.38H.36a.07.07 0 0 1-.028.053.1.1 0 0 1-.065.02.1.1 0 0 1-.059-.015A.05.05 0 0 1 .188.4q0-.029.028-.042a.4.4 0 0 1 .087-.03q.06-.015.099-.03A.2.2 0 0 0 .47.246.14.14 0 0 0 .499.158.15.15 0 0 0 .473.072a.2.2 0 0 0-.076-.06.3.3 0 0 0-.116-.02m.047-.035a.4.4 0 0 0 .016-.108.15.15 0 0 0-.032-.102Q.282-.289.22-.289v.057q.05 0 .05.062v.018H.212v.109z"/><path id="P" d="m.3.129.14.425h.149L.384 0h-.17L.01.554h.15z"/><path id="Q" d="M.323.439H.226v-.44H.084v.44H.021v.115h.063v.028q0 .102.058.15t.175.045V.66Q.266.66.247.642T.226.577V.554h.096z"/><path id="R" d="M.197.115h.247V0H.038v.113L.28.439H.04v.115H.44V.44z"/><path id="S" d="M.179.446H.031l.108.252h.097zm.202 0H.233l.108.252h.097z"/><path id="T" d="M.036.6v.129h.24v-.73H.134v.6z"/><path id="U" d="M.097.158q.096.08.153.133t.095.112a.2.2 0 0 1 .038.114q0 .05-.024.08-.023.03-.074.029A.1.1 0 0 1 .208.592.15.15 0 0 1 .18.501H.044q.005.12.072.182a.24.24 0 0 0 .171.062q.114 0 .175-.06a.22.22 0 0 0 .061-.16.3.3 0 0 0-.042-.149.6.6 0 0 0-.096-.124A3 3 0 0 0 .244.126h.295V.01H.045v.104z"/><path id="V" d="M.055.537a.2.2 0 0 0 .07.154.26.26 0 0 0 .173.055Q.37.746.423.72A.2.2 0 0 0 .5.652.2.2 0 0 0 .528.553.17.17 0 0 0 .495.447.16.16 0 0 0 .418.388V.384A.17.17 0 0 0 .508.32.2.2 0 0 0 .541.202q0-.06-.028-.107a.2.2 0 0 0-.08-.073.3.3 0 0 0-.13-.027.3.3 0 0 0-.183.057Q.05.11.045.22H.18A.1.1 0 0 1 .214.142q.032-.03.087-.03.051 0 .078.029a.1.1 0 0 1 .028.073q0 .06-.038.086A.2.2 0 0 1 .25.326H.22v.115h.03q.142 0 .142.095 0 .043-.026.067T.294.627.22.601a.1.1 0 0 1-.03-.064z"/><path id="W" d="M.047.142v.11L.374.72h.163V.264h.088V.142H.537V0h-.14v.142zM.406.57.201.264h.205z"/><path id="X" d="M.097.698h.147L.136.446H.04zm.202 0h.147L.338.446H.242z"/><path id="Y" d="m.222.147-.117-.28h-.09l.065.28z"/><path id="Z" d="M.033.28a.3.3 0 0 0 .033.148.242.242 0 0 0 .22.135.23.23 0 0 0 .183-.088v.08H.61V0H.47v.081A.2.2 0 0 0 .395.017a.23.23 0 0 0-.11-.026.24.24 0 0 0-.127.036.25.25 0 0 0-.092.102.3.3 0 0 0-.033.15M.469.277a.2.2 0 0 1-.02.088.14.14 0 0 1-.127.075.14.14 0 0 1-.126-.074.2.2 0 0 1-.02-.087.2.2 0 0 1 .02-.087A.15.15 0 0 1 .25.134.144.144 0 0 1 .45.19a.2.2 0 0 1 .02.087m-.128.4L.192.593v.102l.15.081.147-.08V.592z"/><path id="aa" d="M0 0"/><path id="ab" d="M.209.111h.23V0h-.37v.698h.14z"/><path id="ac" d="M.495.416V.298H.071v.118z"/><path id="ad" d="M.13-.007a.1.1 0 0 0-.062.024.08.08 0 0 0-.024.058q0 .035.024.059a.1.1 0 0 0 .063.023.08.08 0 0 0 .06-.023.08.08 0 0 0 .025-.059.08.08 0 0 0-.024-.058.08.08 0 0 0-.061-.024"/><path id="ae" d="M.696.698.44 0H.27L.014.698h.15L.356.143l.191.555z"/><path id="af" d="M.543.608H.219v-.17a.15.15 0 0 0 .06.042.2.2 0 0 0 .083.016.23.23 0 0 0 .13-.035.2.2 0 0 0 .075-.09A.3.3 0 0 0 .59.256.26.26 0 0 0 .524.07Q.46 0 .338 0a.27.27 0 0 0-.182.057.21.21 0 0 0-.077.15h.136a.1.1 0 0 1 .04-.065.13.13 0 0 1 .08-.024q.06 0 .09.037a.15.15 0 0 1 .03.098q0 .062-.03.095Q.394.38.334.38a.1.1 0 0 1-.07-.02.1.1 0 0 1-.04-.057H.09v.428h.452z"/><path id="ag" d="M.028.177q.134.1.212.181.078.082.078.153a.06.06 0 0 1-.01.037.03.03 0 0 1-.028.013q-.02 0-.032-.02A.1.1 0 0 1 .24.478H.025a.3.3 0 0 0 .04.153q.038.06.098.088t.132.028q.128 0 .187-.061a.22.22 0 0 0 .06-.158.3.3 0 0 0-.065-.19.6.6 0 0 0-.161-.15h.229V.01H.028z"/><path id="ah" d="M.149.402a.2.2 0 0 0-.063.06.2.2 0 0 0-.022.09q0 .054.029.098A.2.2 0 0 0 .18.72a.4.4 0 0 0 .147.027.4.4 0 0 0 .146-.026.2.2 0 0 0 .089-.07.17.17 0 0 0 .029-.099.17.17 0 0 0-.023-.09.2.2 0 0 0-.062-.06.19.19 0 0 0 .1-.177.22.22 0 0 0-.14-.209.4.4 0 0 0-.14-.027.4.4 0 0 0-.14.027.216.216 0 0 0-.14.209q0 .119.102.177m.225.113A.07.07 0 0 1 .36.56a.04.04 0 0 1-.033.016A.04.04 0 0 1 .295.56.07.07 0 0 1 .282.515q0-.03.013-.044A.04.04 0 0 1 .328.456q.02 0 .033.015t.013.044M.328.307A.06.06 0 0 1 .28.287.07.07 0 0 1 .263.239.07.07 0 0 1 .28.189.06.06 0 0 1 .328.17q.03 0 .048.019a.07.07 0 0 1 .017.049q0 .03-.018.05a.06.06 0 0 1-.047.02"/><clipPath id="a"><path fill-rule="evenodd" d="M0 419.526h297.636V0H0Z"/></clipPath><clipPath id="b"/><clipPath id="c"><path d="M-1.35 419.525h596.417V-1.527H-1.35Z"/></clipPath><clipPath id="d"><path d="M161.153 176.381h103.759V2.981H161.153Z"/></clipPath><clipPath id="e"><path d="M153.948 186.398h103.757V12.996H153.948Z"/></clipPath><clipPath id="f"><path d="M-31.214 456.469h329.111V-1.527H-31.214Z"/></clipPath></defs><g clip-path="url(#a)" data-name="Layer 1"><g clip-path="url(#f)"><path fill="#2f4ab1" d="M119.502 131.173c9.77-2.302 18.914-6.024 26.927-12.3-10.07 1.625-18.823 6.233-26.927 12.3M79.16 378.687c.776 0 1.553.01 2.33 0 7.415-.108 6.651.25 7.184-6.594.577-7.402 2.452-14.286 7.212-20.132 1.719-2.11.064-2.634-1.464-3.236-13.767-5.432-27.749-10.144-42.374-12.605a37.7 37.7 0 0 0-12.763.043c-2.255.393-4.04 1.436-4.542 3.93-2.24 11.182.84 23.544 11.534 30.028 10.144 6.15 21.272 8.256 32.883 8.566M31.49 88.636c-1.407.117-3.535.254-5.652.487-2.764.302-4.489 2.006-4.987 4.637-2.078 10.96-.19 24.611 11.128 32.505 9.327 6.506 19.892 8.95 30.843 10.476 2.638.367 4.077-.43 5.348-2.762 5.786-10.618 13.839-19.34 22.83-27.235.845-.744 2.43-1.1 2.23-2.439-.199-1.346-1.797-1.298-2.852-1.625-7.6-2.37-15.184-4.81-22.843-6.974-11.582-3.273-23.162-6.643-36.046-7.07M-29.079 227.5v223.261c.003 5.31.168 5.489 5.363 5.49q61.193.012 122.384.008c3.828 0 4.271-.586 3.203-4.38-2.845-10.105-5.337-20.299-7.582-30.555-1.448-6.617-.3-6.406-7.887-6.168-16.595.518-32.76-1.465-48.158-8.144-11.85-5.14-21.953-12.538-29.35-23.363-9.26-13.552-12.259-28.76-10.609-44.863 1.891-18.455 11.895-32.537 30.232-37.697 8.158-2.295 16.494-2.423 24.862-1.533 8.036.856 15.9 2.605 23.702 4.701 3.272.88 4.407-.066 3.616-2.969a53.2 53.2 0 0 1-1.516-20.421c.25-2.125-.57-3.06-2.69-3.2a207 207 0 0 1-11.02-1.025c-12.753-1.536-24.696-5.136-34.647-13.882-13.625-11.975-17.942-36.795-2.611-52.441 7.37-7.523 16.656-11.382 26.51-14.03 4.778-1.283 9.693-2.044 14.544-3.05 1.702-.353 3.065-.998 1.209-2.803-4.277-4.155-7.451-9.024-9.52-14.621-.7-1.894-1.927-2.688-3.893-2.947-12.103-1.594-23.834-4.575-34.857-10.015C10.248 156.95.274 148.683-6.58 137.046c-9.788-16.623-11.685-34.512-7.328-53.131 1.872-7.994 5.887-14.957 11.94-20.517 8.131-7.47 18.023-10.61 28.782-11.177 10.95-.578 21.681 1.128 32.334 3.552 16.888 3.842 33.243 9.535 49.825 14.445 15.442 4.575 30.69 9.922 46.92 11.352 7.122.629 14.112 2.57 21.375 1.848 8.373-.833 16.01-3.158 21.65-9.979 4.498-5.438 7.655-11.604 9.294-18.475 4.237-17.765 2.502-35.26-2.474-52.61-.73-2.544-2.046-3.285-4.586-3.273-20.299.09-40.6.052-60.9.048C85.57-.876 30.884-.886-23.8-.891c-5.273 0-5.273.01-5.284 5.424v.293q-.001 111.337.005 222.674M297.58-.2c0 151.322-.006 302.641.054 453.961 0 2.21-.492 2.709-2.678 2.708q-161.747-.094-323.493 0c-2.186.001-2.679-.498-2.678-2.708q.09-226.243 0-452.487c0-2.208.491-2.707 2.678-2.707 107.83.062 215.662.053 323.493.091.854 0 1.978-.679 2.623.555-17.29-.027-34.579-.065-51.87-.06-2.89 0-3.192.532-2.506 3.708 3.7 17.145 4.685 34.42 1.932 51.786-2.738 17.27-9.38 32.75-21.483 45.537-9.014 9.521-20.065 15.305-32.75 18.02-1.986.424-3.664.91-4.09 3.415-1.586 9.333-6.784 16.538-13.49 22.797-8.2 7.649-17.974 12.614-28.173 16.855q-2.016.836-4.033 1.675c.75.473 1.33.535 1.893.466 16.384-2.045 32.771-4.059 49.146-6.17 17.36-2.242 34.766-3.944 52.28-2.902 10.168.602 19.943 2.863 28.6 8.885 13.99 9.734 17.19 30.988 6.662 44.367-6.163 7.833-14.424 12.112-23.642 14.733-12.972 3.687-26.314 4.793-39.723 5.329-19.132.765-38.26.29-57.392-.05-25.15-.442-50.315-1.32-75.43.91-8.707.772-17.407 1.804-25.618 5.173-.777.32-1.882.43-2.024 1.462-.174 1.253 1.013 1.555 1.834 1.977 4.688 2.413 9.82 3.008 14.941 3.518 18.12 1.807 36.101-.262 54.045-2.373 21.99-2.588 43.813-6.588 65.893-8.425 8.89-.741 17.861-1.155 26.446 2.42 12.905 5.373 17.559 21.333 9.72 32.959-4.775 7.082-11.727 10.358-19.576 12.16-7.047 1.618-14.24 1.748-21.444 1.807-15.925.13-31.865-.684-47.777.504-6.975.52-13.95 1.165-20.548 3.82-4.916 1.979-5.768 5.558-2.226 9.616 2.954 3.382 6.787 5.508 10.726 7.469 11.22 5.588 23.316 8.645 35.17 12.395 11.864 3.752 23.87 7.115 34.834 13.247 10.357 5.792 18.642 13.42 21.717 25.574 4.07 16.085-4.463 31.395-22.115 32.953-6.483.57-12.752-.778-18.977-2.429-9.327-2.472-18.195-6.254-27.17-9.72-2.253-.87-3.074-.266-2.984 2.09.096 2.55.082 5.093-.485 7.618-2.23 9.925-8.68 16.452-16.98 21.396-2.218 1.32-2.89 2.775-2.334 5.283 3.16 14.278 6.585 28.485 10.752 42.502 1.409 4.74 1.414 4.758 6.152 4.756q73.148-.003 146.299-.024c5.623-.001 5.798-.202 5.798-6.022z"/><path fill="#202b6d" d="M297.58-.2v450.42c0 5.82-.175 6.021-5.798 6.023q-73.151.018-146.3.025c-4.738 0-4.743-.018-6.152-4.758-4.167-14.017-7.591-28.224-10.752-42.502-.555-2.508.117-3.962 2.334-5.283 8.3-4.944 14.752-11.47 16.981-21.396.566-2.525.581-5.068.484-7.619-.09-2.355.732-2.96 2.984-2.09 8.976 3.467 17.843 7.25 27.17 9.721 6.225 1.651 12.494 3 18.978 2.429 17.652-1.557 26.185-16.868 22.115-32.953-3.076-12.155-11.36-19.782-21.717-25.574-10.965-6.132-22.972-9.495-34.834-13.247-11.854-3.75-23.95-6.807-35.171-12.395-3.938-1.961-7.772-4.087-10.725-7.47-3.543-4.057-2.692-7.635 2.225-9.614 6.598-2.656 13.574-3.301 20.55-3.821 15.91-1.188 31.85-.374 47.775-.504 7.203-.057 14.397-.19 21.444-1.807 7.85-1.802 14.801-5.078 19.577-12.16 7.839-11.626 3.184-27.586-9.72-32.96-8.585-3.574-17.556-3.16-26.447-2.42-22.08 1.838-43.902 5.838-65.893 8.426-17.943 2.112-35.924 4.18-54.045 2.373-5.12-.51-10.253-1.105-14.94-3.518-.82-.422-2.01-.724-1.835-1.977.143-1.031 1.247-1.143 2.025-1.462 8.21-3.369 16.91-4.401 25.618-5.173 25.115-2.23 50.278-1.352 75.43-.91 19.132.34 38.26.815 57.392.05 13.408-.536 26.751-1.642 39.72-5.329 9.221-2.621 17.48-6.9 23.645-14.733 10.529-13.378 7.327-34.633-6.665-44.365-8.654-6.024-18.43-8.285-28.598-8.887-17.513-1.042-34.918.66-52.28 2.901-16.375 2.115-32.762 4.126-49.145 6.17-.563.07-1.143.008-1.893-.465q2.014-.839 4.033-1.675c10.198-4.24 19.973-9.206 28.171-16.855 6.707-6.26 11.906-13.464 13.492-22.795.426-2.508 2.104-2.993 4.09-3.418 12.685-2.714 23.736-8.498 32.749-18.019 12.103-12.787 18.746-28.266 21.482-45.537 2.752-17.366 1.77-34.641-1.93-51.786-.686-3.176-.384-3.708 2.506-3.708 17.291-.005 34.58.033 51.87.06"/><path fill="#202b6d" d="M-29.081 227.5q-.004-111.334-.003-222.674v-.293c.01-5.414.01-5.424 5.284-5.424q82.027.01 164.052.022c20.3.002 40.6.043 60.9-.05 2.54-.012 3.856.73 4.585 3.273 4.976 17.35 6.712 34.845 2.475 52.61-1.639 6.871-4.795 13.04-9.293 18.475-5.64 6.82-13.277 9.146-21.65 9.98-7.265.722-14.254-1.22-21.377-1.849-16.23-1.43-31.477-6.777-46.919-11.352-16.581-4.91-32.937-10.603-49.824-14.445-10.654-2.424-21.385-4.13-32.335-3.552-10.759.566-20.65 3.708-28.783 11.177-6.052 5.56-10.067 12.523-11.939 20.517-4.356 18.619-2.46 36.51 7.329 53.13 6.853 11.638 16.828 19.906 28.785 25.808 11.024 5.44 22.755 8.421 34.858 10.015 1.966.259 3.19 1.053 3.89 2.947 2.07 5.597 5.246 10.466 9.522 14.622 1.855 1.804.494 2.449-1.209 2.801-4.85 1.007-9.766 1.768-14.544 3.051-9.853 2.65-19.14 6.507-26.51 14.03-15.33 15.646-11.015 40.466 2.61 52.441 9.953 8.747 21.894 12.346 34.647 13.882 3.663.443 7.34.78 11.02 1.025 2.121.142 2.942 1.075 2.69 3.2a53.2 53.2 0 0 0 1.517 20.421c.79 2.903-.345 3.85-3.617 2.969-7.802-2.096-15.665-3.845-23.701-4.7-8.368-.891-16.705-.763-24.86 1.532-18.34 5.16-28.343 19.242-30.234 37.697-1.65 16.102 1.348 31.311 10.609 44.863 7.396 10.825 17.5 18.223 29.35 23.364 15.397 6.678 31.563 8.661 48.157 8.144 7.587-.238 6.44-.45 7.887 6.167 2.246 10.257 4.737 20.45 7.583 30.555 1.067 3.794.625 4.38-3.204 4.381q-61.191.005-122.384-.01c-5.195 0-5.36-.177-5.36-5.487q-.003-111.631-.004-223.263"/><path fill="#202b6d" d="M31.49 88.636c12.883.427 24.463 3.797 36.045 7.07 7.66 2.165 15.242 4.603 22.843 6.974 1.055.327 2.653.279 2.853 1.625.197 1.34-1.386 1.695-2.233 2.439-8.99 7.895-17.042 16.617-22.83 27.235-1.269 2.332-2.708 3.13-5.346 2.762-10.95-1.527-21.516-3.97-30.843-10.476C20.66 118.371 18.772 104.72 20.85 93.76c.498-2.63 2.223-4.335 4.986-4.637 2.117-.233 4.245-.37 5.652-.487M79.16 378.688c-11.611-.312-22.739-2.417-32.883-8.567-10.693-6.484-13.775-18.847-11.533-30.028.5-2.493 2.285-3.537 4.54-3.93 4.248-.74 8.53-.756 12.763-.043 14.626 2.46 28.607 7.173 42.375 12.604 1.528.603 3.182 1.126 1.464 3.237-4.76 5.847-6.634 12.731-7.212 20.132-.534 6.846.23 6.486-7.184 6.593-.777.013-1.553.002-2.33.002M119.502 131.173c8.104-6.067 16.857-10.675 26.927-12.3-8.013 6.276-17.156 9.998-26.927 12.3"/></g><use xlink:href="#g" fill="#ff8b00" data-text="F" transform="matrix(15.94751 0 0 -15.67985 22.602 44.493)"/><use xlink:href="#h" fill="#ff8b00" data-text="A" transform="matrix(15.94751 0 0 -15.67985 31.772 44.493)"/><use xlink:href="#i" fill="#ff8b00" data-text="C" transform="matrix(15.94751 0 0 -15.67985 44.1 44.493)"/><use xlink:href="#j" fill="#ff8b00" data-text="T" transform="matrix(15.94751 0 0 -15.67985 56.108 44.493)"/><use xlink:href="#k" fill="#ff8b00" data-text="S" transform="matrix(15.94751 0 0 -15.67985 65.931 44.493)"/><use xlink:href="#l" fill="#ff8b00" data-text="." transform="matrix(15.94751 0 0 -15.67985 75.899 44.493)"/><use xlink:href="#l" fill="#ff8b00" data-text="." transform="matrix(15.94751 0 0 -15.67985 80.986 44.493)"/><use xlink:href="#m" fill="#f3f2f7" transform="matrix(10.96391 0 0 -10.7799 86.071 44.493)"/><use xlink:href="#n" fill="#f3f2f7" data-text="A" transform="matrix(10.96391 0 0 -10.7799 99.28 44.493)"/><use xlink:href="#o" fill="#f3f2f7" data-text="b" transform="matrix(10.96391 0 0 -10.7799 107.13 44.493)"/><use xlink:href="#p" fill="#f3f2f7" data-text="o" transform="matrix(10.96391 0 0 -10.7799 114.564 44.493)"/><use xlink:href="#q" fill="#f3f2f7" data-text="n" transform="matrix(10.96391 0 0 -10.7799 121.56 44.493)"/><use xlink:href="#r" fill="#f3f2f7" data-text="a" transform="matrix(10.96391 0 0 -10.7799 128.806 44.493)"/><use xlink:href="#s" fill="#f3f2f7" data-text="m" transform="matrix(10.96391 0 0 -10.7799 136.24 44.493)"/><use xlink:href="#t" fill="#f3f2f7" data-text="e" transform="matrix(10.96391 0 0 -10.7799 147.73 44.493)"/><use xlink:href="#q" fill="#f3f2f7" data-text="n" transform="matrix(10.96391 0 0 -10.7799 154.495 44.493)"/><use xlink:href="#u" fill="#f3f2f7" data-text="t" transform="matrix(10.96391 0 0 -10.7799 161.742 44.493)"/><use xlink:href="#t" fill="#f3f2f7" data-text="e" transform="matrix(10.96391 0 0 -10.7799 165.996 44.493)"/><use xlink:href="#v" fill="#f3f2f7" data-text="l" transform="matrix(10.96391 0 0 -10.7799 172.76 44.493)"/><use xlink:href="#t" fill="#f3f2f7" data-text="e" transform="matrix(10.96391 0 0 -10.7799 175.809 44.493)"/><use xlink:href="#m" fill="#f3f2f7" transform="matrix(10.96391 0 0 -10.7799 182.573 44.493)"/><use xlink:href="#w" fill="#f3f2f7" data-text="C" transform="matrix(10.96391 0 0 -10.7799 195.784 44.493)"/><use xlink:href="#x" fill="#f3f2f7" data-text="T" transform="matrix(10.96391 0 0 -10.7799 204.204 44.493)"/><use xlink:href="#y" fill="#f3f2f7" data-text="P" transform="matrix(10.96391 0 0 -10.7799 210.53 44.493)"/><use xlink:href="#m" fill="#f3f2f7" transform="matrix(10.96391 0 0 -10.7799 217.197 44.493)"/><use xlink:href="#z" fill="#f3f2f7" data-text="s" transform="matrix(10.96391 0 0 -10.7799 230.406 44.493)"/><use xlink:href="#t" fill="#f3f2f7" data-text="e" transform="matrix(10.96391 0 0 -10.7799 236.381 44.493)"/><use xlink:href="#m" fill="#f3f2f7" transform="matrix(10.96391 0 0 -10.7799 243.146 44.493)"/><use xlink:href="#A" fill="#f3f2f7" data-text="p" transform="matrix(10.96391 0 0 -10.7799 256.355 44.493)"/><use xlink:href="#p" fill="#f3f2f7" data-text="o" transform="matrix(10.96391 0 0 -10.7799 263.789 44.493)"/><use xlink:href="#u" fill="#f3f2f7" data-text="t" transform="matrix(10.96391 0 0 -10.7799 270.784 44.493)"/><use xlink:href="#m" fill="#f3f2f7" transform="matrix(10.96391 0 0 -10.7799 275.038 44.493)"/><use xlink:href="#B" fill="#f3f2f7" data-text="r" transform="matrix(10.96391 0 0 -10.7799 22.6 56.922)"/><use xlink:href="#t" fill="#f3f2f7" data-text="e" transform="matrix(10.96391 0 0 -10.7799 27.03 56.922)"/><use xlink:href="#C" fill="#f3f2f7" data-text="î" transform="matrix(10.96391 0 0 -10.7799 33.795 56.922)"/><use xlink:href="#q" fill="#f3f2f7" data-text="n" transform="matrix(10.96391 0 0 -10.7799 36.975 56.922)"/><use xlink:href="#D" fill="#f3f2f7" data-text="c" transform="matrix(10.96391 0 0 -10.7799 44.222 56.922)"/><use xlink:href="#E" fill="#f3f2f7" data-text="ă" transform="matrix(10.96391 0 0 -10.7799 50.822 56.922)"/><use xlink:href="#B" fill="#f3f2f7" data-text="r" transform="matrix(10.96391 0 0 -10.7799 58.256 56.922)"/><use xlink:href="#D" fill="#f3f2f7" data-text="c" transform="matrix(10.96391 0 0 -10.7799 62.685 56.922)"/><use xlink:href="#r" fill="#f3f2f7" data-text="a" transform="matrix(10.96391 0 0 -10.7799 69.285 56.922)"/><use xlink:href="#m" fill="#f3f2f7" transform="matrix(10.96391 0 0 -10.7799 76.719 56.922)"/><use xlink:href="#v" fill="#f3f2f7" data-text="l" transform="matrix(10.96391 0 0 -10.7799 81.25 56.922)"/><use xlink:href="#r" fill="#f3f2f7" data-text="a" transform="matrix(10.96391 0 0 -10.7799 84.298 56.922)"/><use xlink:href="#m" fill="#f3f2f7" transform="matrix(10.96391 0 0 -10.7799 91.731 56.922)"/><use xlink:href="#r" fill="#f3f2f7" data-text="a" transform="matrix(10.96391 0 0 -10.7799 96.26 56.922)"/><use xlink:href="#F" fill="#f3f2f7" data-text="u" transform="matrix(10.96391 0 0 -10.7799 103.694 56.922)"/><use xlink:href="#u" fill="#f3f2f7" data-text="t" transform="matrix(10.96391 0 0 -10.7799 110.941 56.922)"/><use xlink:href="#p" fill="#f3f2f7" data-text="o" transform="matrix(10.96391 0 0 -10.7799 115.195 56.922)"/><use xlink:href="#s" fill="#f3f2f7" data-text="m" transform="matrix(10.96391 0 0 -10.7799 122.19 56.922)"/><use xlink:href="#r" fill="#f3f2f7" data-text="a" transform="matrix(10.96391 0 0 -10.7799 133.68 56.922)"/><use xlink:href="#u" fill="#f3f2f7" data-text="t" transform="matrix(10.96391 0 0 -10.7799 141.114 56.922)"/><use xlink:href="#t" fill="#f3f2f7" data-text="e" transform="matrix(10.96391 0 0 -10.7799 145.368 56.922)"/><use xlink:href="#v" fill="#f3f2f7" data-text="l" transform="matrix(10.96391 0 0 -10.7799 152.133 56.922)"/><use xlink:href="#t" fill="#f3f2f7" data-text="e" transform="matrix(10.96391 0 0 -10.7799 155.18 56.922)"/><use xlink:href="#m" fill="#f3f2f7" transform="matrix(10.96391 0 0 -10.7799 161.946 56.922)"/><use xlink:href="#G" fill="#f3f2f7" data-text="d" transform="matrix(10.96391 0 0 -10.7799 166.477 56.922)"/><use xlink:href="#t" fill="#f3f2f7" data-text="e" transform="matrix(10.96391 0 0 -10.7799 173.91 56.922)"/><use xlink:href="#m" fill="#f3f2f7" transform="matrix(10.96391 0 0 -10.7799 180.675 56.922)"/><use xlink:href="#o" fill="#f3f2f7" data-text="b" transform="matrix(10.96391 0 0 -10.7799 185.205 56.922)"/><use xlink:href="#H" fill="#f3f2f7" data-text="i" transform="matrix(10.96391 0 0 -10.7799 192.639 56.922)"/><use xlink:href="#v" fill="#f3f2f7" data-text="l" transform="matrix(10.96391 0 0 -10.7799 195.687 56.922)"/><use xlink:href="#t" fill="#f3f2f7" data-text="e" transform="matrix(10.96391 0 0 -10.7799 198.735 56.922)"/><use xlink:href="#u" fill="#f3f2f7" data-text="t" transform="matrix(10.96391 0 0 -10.7799 205.5 56.922)"/><use xlink:href="#t" fill="#f3f2f7" data-text="e" transform="matrix(10.96391 0 0 -10.7799 209.754 56.922)"/><use xlink:href="#m" fill="#f3f2f7" transform="matrix(10.96391 0 0 -10.7799 216.518 56.922)"/><use xlink:href="#G" fill="#f3f2f7" data-text="d" transform="matrix(10.96391 0 0 -10.7799 221.049 56.922)"/><use xlink:href="#H" fill="#f3f2f7" data-text="i" transform="matrix(10.96391 0 0 -10.7799 228.482 56.922)"/><use xlink:href="#q" fill="#f3f2f7" data-text="n" transform="matrix(10.96391 0 0 -10.7799 231.53 56.922)"/><use xlink:href="#m" fill="#f3f2f7" transform="matrix(10.96391 0 0 -10.7799 238.777 56.922)"/><use xlink:href="#z" fill="#f3f2f7" data-text="s" transform="matrix(10.96391 0 0 -10.7799 243.307 56.922)"/><use xlink:href="#u" fill="#f3f2f7" data-text="t" transform="matrix(10.96391 0 0 -10.7799 249.283 56.922)"/><use xlink:href="#r" fill="#f3f2f7" data-text="a" transform="matrix(10.96391 0 0 -10.7799 253.537 56.922)"/><use xlink:href="#I" fill="#f3f2f7" data-text="ț" transform="matrix(10.96391 0 0 -10.7799 260.97 56.922)"/><use xlink:href="#H" fill="#f3f2f7" data-text="i" transform="matrix(10.96391 0 0 -10.7799 265.224 56.922)"/><use xlink:href="#t" fill="#f3f2f7" data-text="e" transform="matrix(10.96391 0 0 -10.7799 268.272 56.922)"/><use xlink:href="#m" fill="#f3f2f7" transform="matrix(10.96391 0 0 -10.7799 275.037 56.922)"/><use xlink:href="#G" fill="#f3f2f7" data-text="d" transform="matrix(10.96391 0 0 -10.7799 22.6 69.351)"/><use xlink:href="#p" fill="#f3f2f7" data-text="o" transform="matrix(10.96391 0 0 -10.7799 30.034 69.351)"/><use xlink:href="#r" fill="#f3f2f7" data-text="a" transform="matrix(10.96391 0 0 -10.7799 37.03 69.351)"/><use xlink:href="#B" fill="#f3f2f7" data-text="r" transform="matrix(10.96391 0 0 -10.7799 44.463 69.351)"/><use xlink:href="#m" fill="#f3f2f7" transform="matrix(10.96391 0 0 -10.7799 48.892 69.351)"/><use xlink:href="#C" fill="#f3f2f7" data-text="î" transform="matrix(10.96391 0 0 -10.7799 55.343 69.351)"/><use xlink:href="#q" fill="#f3f2f7" data-text="n" transform="matrix(10.96391 0 0 -10.7799 58.522 69.351)"/><use xlink:href="#r" fill="#f3f2f7" data-text="a" transform="matrix(10.96391 0 0 -10.7799 65.77 69.351)"/><use xlink:href="#H" fill="#f3f2f7" data-text="i" transform="matrix(10.96391 0 0 -10.7799 73.203 69.351)"/><use xlink:href="#q" fill="#f3f2f7" data-text="n" transform="matrix(10.96391 0 0 -10.7799 76.251 69.351)"/><use xlink:href="#u" fill="#f3f2f7" data-text="t" transform="matrix(10.96391 0 0 -10.7799 83.498 69.351)"/><use xlink:href="#t" fill="#f3f2f7" data-text="e" transform="matrix(10.96391 0 0 -10.7799 87.752 69.351)"/><use xlink:href="#m" fill="#f3f2f7" transform="matrix(10.96391 0 0 -10.7799 94.517 69.351)"/><use xlink:href="#G" fill="#f3f2f7" data-text="d" transform="matrix(10.96391 0 0 -10.7799 100.967 69.351)"/><use xlink:href="#t" fill="#f3f2f7" data-text="e" transform="matrix(10.96391 0 0 -10.7799 108.4 69.351)"/><use xlink:href="#m" fill="#f3f2f7" transform="matrix(10.96391 0 0 -10.7799 115.165 69.351)"/><use xlink:href="#G" fill="#f3f2f7" data-text="d" transform="matrix(10.96391 0 0 -10.7799 121.616 69.351)"/><use xlink:href="#r" fill="#f3f2f7" data-text="a" transform="matrix(10.96391 0 0 -10.7799 129.05 69.351)"/><use xlink:href="#u" fill="#f3f2f7" data-text="t" transform="matrix(10.96391 0 0 -10.7799 136.483 69.351)"/><use xlink:href="#r" fill="#f3f2f7" data-text="a" transform="matrix(10.96391 0 0 -10.7799 140.737 69.351)"/><use xlink:href="#m" fill="#f3f2f7" transform="matrix(10.96391 0 0 -10.7799 148.17 69.351)"/><use xlink:href="#G" fill="#f3f2f7" data-text="d" transform="matrix(10.96391 0 0 -10.7799 154.62 69.351)"/><use xlink:href="#t" fill="#f3f2f7" data-text="e" transform="matrix(10.96391 0 0 -10.7799 162.053 69.351)"/><use xlink:href="#m" fill="#f3f2f7" transform="matrix(10.96391 0 0 -10.7799 168.818 69.351)"/><use xlink:href="#t" fill="#f3f2f7" data-text="e" transform="matrix(10.96391 0 0 -10.7799 175.268 69.351)"/><use xlink:href="#J" fill="#f3f2f7" data-text="x" transform="matrix(10.96391 0 0 -10.7799 182.033 69.351)"/><use xlink:href="#A" fill="#f3f2f7" data-text="p" transform="matrix(10.96391 0 0 -10.7799 187.953 69.351)"/><use xlink:href="#H" fill="#f3f2f7" data-text="i" transform="matrix(10.96391 0 0 -10.7799 195.387 69.351)"/><use xlink:href="#B" fill="#f3f2f7" data-text="r" transform="matrix(10.96391 0 0 -10.7799 198.435 69.351)"/><use xlink:href="#r" fill="#f3f2f7" data-text="a" transform="matrix(10.96391 0 0 -10.7799 202.864 69.351)"/><use xlink:href="#B" fill="#f3f2f7" data-text="r" transform="matrix(10.96391 0 0 -10.7799 210.298 69.351)"/><use xlink:href="#t" fill="#f3f2f7" data-text="e" transform="matrix(10.96391 0 0 -10.7799 214.727 69.351)"/><use xlink:href="#K" fill="#f3f2f7" data-text="!" transform="matrix(10.96391 0 0 -10.7799 221.492 69.351)"/><use xlink:href="#m" fill="#f3f2f7" transform="matrix(10.96391 0 0 -10.7799 225.373 69.351)"/><use xlink:href="#L" fill="#f3f2f7" data-text="D" transform="matrix(10.96391 0 0 -10.7799 231.823 69.351)"/><use xlink:href="#r" fill="#f3f2f7" data-text="a" transform="matrix(10.96391 0 0 -10.7799 239.684 69.351)"/><use xlink:href="#D" fill="#f3f2f7" data-text="c" transform="matrix(10.96391 0 0 -10.7799 247.118 69.351)"/><use xlink:href="#E" fill="#f3f2f7" data-text="ă" transform="matrix(10.96391 0 0 -10.7799 253.718 69.351)"/><use xlink:href="#m" fill="#f3f2f7" transform="matrix(10.96391 0 0 -10.7799 261.152 69.351)"/><use xlink:href="#r" fill="#f3f2f7" data-text="a" transform="matrix(10.96391 0 0 -10.7799 267.602 69.351)"/><use xlink:href="#m" fill="#f3f2f7" transform="matrix(10.96391 0 0 -10.7799 275.035 69.351)"/><use xlink:href="#t" fill="#f3f2f7" data-text="e" transform="matrix(10.96391 0 0 -10.7799 22.6 81.78)"/><use xlink:href="#J" fill="#f3f2f7" data-text="x" transform="matrix(10.96391 0 0 -10.7799 29.366 81.78)"/><use xlink:href="#A" fill="#f3f2f7" data-text="p" transform="matrix(10.96391 0 0 -10.7799 35.286 81.78)"/><use xlink:href="#H" fill="#f3f2f7" data-text="i" transform="matrix(10.96391 0 0 -10.7799 42.72 81.78)"/><use xlink:href="#B" fill="#f3f2f7" data-text="r" transform="matrix(10.96391 0 0 -10.7799 45.768 81.78)"/><use xlink:href="#r" fill="#f3f2f7" data-text="a" transform="matrix(10.96391 0 0 -10.7799 50.197 81.78)"/><use xlink:href="#u" fill="#f3f2f7" data-text="t" transform="matrix(10.96391 0 0 -10.7799 57.63 81.78)"/><use xlink:href="#m" fill="#f3f2f7" transform="matrix(10.96391 0 0 -10.7799 61.885 81.78)"/><use xlink:href="#C" fill="#f3f2f7" data-text="î" transform="matrix(10.96391 0 0 -10.7799 67.505 81.78)"/><use xlink:href="#v" fill="#f3f2f7" data-text="l" transform="matrix(10.96391 0 0 -10.7799 70.684 81.78)"/><use xlink:href="#m" fill="#f3f2f7" transform="matrix(10.96391 0 0 -10.7799 73.732 81.78)"/><use xlink:href="#A" fill="#f3f2f7" data-text="p" transform="matrix(10.96391 0 0 -10.7799 79.353 81.78)"/><use xlink:href="#p" fill="#f3f2f7" data-text="o" transform="matrix(10.96391 0 0 -10.7799 86.787 81.78)"/><use xlink:href="#I" fill="#f3f2f7" data-text="ț" transform="matrix(10.96391 0 0 -10.7799 93.781 81.78)"/><use xlink:href="#H" fill="#f3f2f7" data-text="i" transform="matrix(10.96391 0 0 -10.7799 98.035 81.78)"/><use xlink:href="#m" fill="#f3f2f7" transform="matrix(10.96391 0 0 -10.7799 101.083 81.78)"/><use xlink:href="#B" fill="#f3f2f7" data-text="r" transform="matrix(10.96391 0 0 -10.7799 106.703 81.78)"/><use xlink:href="#t" fill="#f3f2f7" data-text="e" transform="matrix(10.96391 0 0 -10.7799 111.133 81.78)"/><use xlink:href="#C" fill="#f3f2f7" data-text="î" transform="matrix(10.96391 0 0 -10.7799 117.898 81.78)"/><use xlink:href="#q" fill="#f3f2f7" data-text="n" transform="matrix(10.96391 0 0 -10.7799 121.077 81.78)"/><use xlink:href="#D" fill="#f3f2f7" data-text="c" transform="matrix(10.96391 0 0 -10.7799 128.324 81.78)"/><use xlink:href="#E" fill="#f3f2f7" data-text="ă" transform="matrix(10.96391 0 0 -10.7799 134.925 81.78)"/><use xlink:href="#B" fill="#f3f2f7" data-text="r" transform="matrix(10.96391 0 0 -10.7799 142.358 81.78)"/><use xlink:href="#D" fill="#f3f2f7" data-text="c" transform="matrix(10.96391 0 0 -10.7799 146.787 81.78)"/><use xlink:href="#r" fill="#f3f2f7" data-text="a" transform="matrix(10.96391 0 0 -10.7799 153.388 81.78)"/><use xlink:href="#m" fill="#f3f2f7" transform="matrix(10.96391 0 0 -10.7799 160.821 81.78)"/><use xlink:href="#G" fill="#f3f2f7" data-text="d" transform="matrix(10.96391 0 0 -10.7799 166.442 81.78)"/><use xlink:href="#p" fill="#f3f2f7" data-text="o" transform="matrix(10.96391 0 0 -10.7799 173.876 81.78)"/><use xlink:href="#r" fill="#f3f2f7" data-text="a" transform="matrix(10.96391 0 0 -10.7799 180.87 81.78)"/><use xlink:href="#B" fill="#f3f2f7" data-text="r" transform="matrix(10.96391 0 0 -10.7799 188.304 81.78)"/><use xlink:href="#m" fill="#f3f2f7" transform="matrix(10.96391 0 0 -10.7799 192.734 81.78)"/><use xlink:href="#v" fill="#f3f2f7" data-text="l" transform="matrix(10.96391 0 0 -10.7799 198.353 81.78)"/><use xlink:href="#r" fill="#f3f2f7" data-text="a" transform="matrix(10.96391 0 0 -10.7799 201.4 81.78)"/><use xlink:href="#m" fill="#f3f2f7" transform="matrix(10.96391 0 0 -10.7799 208.834 81.78)"/><use xlink:href="#M" fill="#f3f2f7" data-text="g" transform="matrix(10.96391 0 0 -10.7799 214.454 81.78)"/><use xlink:href="#N" fill="#f3f2f7" data-text="h" transform="matrix(10.96391 0 0 -10.7799 221.888 81.78)"/><use xlink:href="#H" fill="#f3f2f7" data-text="i" transform="matrix(10.96391 0 0 -10.7799 229.135 81.78)"/><use xlink:href="#O" fill="#f3f2f7" data-text="ș" transform="matrix(10.96391 0 0 -10.7799 232.183 81.78)"/><use xlink:href="#t" fill="#f3f2f7" data-text="e" transform="matrix(10.96391 0 0 -10.7799 238.158 81.78)"/><use xlink:href="#F" fill="#f3f2f7" data-text="u" transform="matrix(10.96391 0 0 -10.7799 244.923 81.78)"/><use xlink:href="#v" fill="#f3f2f7" data-text="l" transform="matrix(10.96391 0 0 -10.7799 252.17 81.78)"/><use xlink:href="#m" fill="#f3f2f7" transform="matrix(10.96391 0 0 -10.7799 255.218 81.78)"/><use xlink:href="#G" fill="#f3f2f7" data-text="d" transform="matrix(10.96391 0 0 -10.7799 260.839 81.78)"/><use xlink:href="#t" fill="#f3f2f7" data-text="e" transform="matrix(10.96391 0 0 -10.7799 268.272 81.78)"/><use xlink:href="#m" fill="#f3f2f7" transform="matrix(10.96391 0 0 -10.7799 275.037 81.78)"/><use xlink:href="#o" fill="#f3f2f7" data-text="b" transform="matrix(10.96391 0 0 -10.7799 22.6 94.209)"/><use xlink:href="#H" fill="#f3f2f7" data-text="i" transform="matrix(10.96391 0 0 -10.7799 30.034 94.209)"/><use xlink:href="#v" fill="#f3f2f7" data-text="l" transform="matrix(10.96391 0 0 -10.7799 33.082 94.209)"/><use xlink:href="#t" fill="#f3f2f7" data-text="e" transform="matrix(10.96391 0 0 -10.7799 36.13 94.209)"/><use xlink:href="#u" fill="#f3f2f7" data-text="t" transform="matrix(10.96391 0 0 -10.7799 42.895 94.209)"/><use xlink:href="#t" fill="#f3f2f7" data-text="e" transform="matrix(10.96391 0 0 -10.7799 47.15 94.209)"/><use xlink:href="#m" fill="#f3f2f7" transform="matrix(10.96391 0 0 -10.7799 53.914 94.209)"/><use xlink:href="#F" fill="#f3f2f7" data-text="u" transform="matrix(10.96391 0 0 -10.7799 58.92 94.209)"/><use xlink:href="#q" fill="#f3f2f7" data-text="n" transform="matrix(10.96391 0 0 -10.7799 66.167 94.209)"/><use xlink:href="#G" fill="#f3f2f7" data-text="d" transform="matrix(10.96391 0 0 -10.7799 73.415 94.209)"/><use xlink:href="#t" fill="#f3f2f7" data-text="e" transform="matrix(10.96391 0 0 -10.7799 80.848 94.209)"/><use xlink:href="#m" fill="#f3f2f7" transform="matrix(10.96391 0 0 -10.7799 87.613 94.209)"/><use xlink:href="#P" fill="#f3f2f7" data-text="v" transform="matrix(10.96391 0 0 -10.7799 92.62 94.209)"/><use xlink:href="#t" fill="#f3f2f7" data-text="e" transform="matrix(10.96391 0 0 -10.7799 99.187 94.209)"/><use xlink:href="#H" fill="#f3f2f7" data-text="i" transform="matrix(10.96391 0 0 -10.7799 105.952 94.209)"/><use xlink:href="#m" fill="#f3f2f7" transform="matrix(10.96391 0 0 -10.7799 109 94.209)"/><use xlink:href="#r" fill="#f3f2f7" data-text="a" transform="matrix(10.96391 0 0 -10.7799 114.006 94.209)"/><use xlink:href="#P" fill="#f3f2f7" data-text="v" transform="matrix(10.96391 0 0 -10.7799 121.44 94.209)"/><use xlink:href="#t" fill="#f3f2f7" data-text="e" transform="matrix(10.96391 0 0 -10.7799 128.006 94.209)"/><use xlink:href="#r" fill="#f3f2f7" data-text="a" transform="matrix(10.96391 0 0 -10.7799 134.771 94.209)"/><use xlink:href="#m" fill="#f3f2f7" transform="matrix(10.96391 0 0 -10.7799 142.205 94.209)"/><use xlink:href="#q" fill="#f3f2f7" data-text="n" transform="matrix(10.96391 0 0 -10.7799 147.21 94.209)"/><use xlink:href="#t" fill="#f3f2f7" data-text="e" transform="matrix(10.96391 0 0 -10.7799 154.458 94.209)"/><use xlink:href="#P" fill="#f3f2f7" data-text="v" transform="matrix(10.96391 0 0 -10.7799 161.222 94.209)"/><use xlink:href="#p" fill="#f3f2f7" data-text="o" transform="matrix(10.96391 0 0 -10.7799 167.79 94.209)"/><use xlink:href="#H" fill="#f3f2f7" data-text="i" transform="matrix(10.96391 0 0 -10.7799 174.785 94.209)"/><use xlink:href="#t" fill="#f3f2f7" data-text="e" transform="matrix(10.96391 0 0 -10.7799 177.833 94.209)"/><use xlink:href="#m" fill="#f3f2f7" transform="matrix(10.96391 0 0 -10.7799 184.598 94.209)"/><use xlink:href="#G" fill="#f3f2f7" data-text="d" transform="matrix(10.96391 0 0 -10.7799 189.604 94.209)"/><use xlink:href="#t" fill="#f3f2f7" data-text="e" transform="matrix(10.96391 0 0 -10.7799 197.038 94.209)"/><use xlink:href="#m" fill="#f3f2f7" transform="matrix(10.96391 0 0 -10.7799 203.802 94.209)"/><use xlink:href="#D" fill="#f3f2f7" data-text="c" transform="matrix(10.96391 0 0 -10.7799 208.809 94.209)"/><use xlink:href="#r" fill="#f3f2f7" data-text="a" transform="matrix(10.96391 0 0 -10.7799 215.409 94.209)"/><use xlink:href="#B" fill="#f3f2f7" data-text="r" transform="matrix(10.96391 0 0 -10.7799 222.842 94.209)"/><use xlink:href="#q" fill="#f3f2f7" data-text="n" transform="matrix(10.96391 0 0 -10.7799 227.272 94.209)"/><use xlink:href="#t" fill="#f3f2f7" data-text="e" transform="matrix(10.96391 0 0 -10.7799 234.519 94.209)"/><use xlink:href="#u" fill="#f3f2f7" data-text="t" transform="matrix(10.96391 0 0 -10.7799 241.284 94.209)"/><use xlink:href="#F" fill="#f3f2f7" data-text="u" transform="matrix(10.96391 0 0 -10.7799 245.538 94.209)"/><use xlink:href="#v" fill="#f3f2f7" data-text="l" transform="matrix(10.96391 0 0 -10.7799 252.785 94.209)"/><use xlink:href="#m" fill="#f3f2f7" transform="matrix(10.96391 0 0 -10.7799 255.833 94.209)"/><use xlink:href="#G" fill="#f3f2f7" data-text="d" transform="matrix(10.96391 0 0 -10.7799 260.838 94.209)"/><use xlink:href="#t" fill="#f3f2f7" data-text="e" transform="matrix(10.96391 0 0 -10.7799 268.271 94.209)"/><use xlink:href="#m" fill="#f3f2f7" transform="matrix(10.96391 0 0 -10.7799 275.036 94.209)"/><use xlink:href="#z" fill="#f3f2f7" data-text="s" transform="matrix(10.96391 0 0 -10.7799 22.6 106.638)"/><use xlink:href="#u" fill="#f3f2f7" data-text="t" transform="matrix(10.96391 0 0 -10.7799 28.576 106.638)"/><use xlink:href="#F" fill="#f3f2f7" data-text="u" transform="matrix(10.96391 0 0 -10.7799 32.83 106.638)"/><use xlink:href="#G" fill="#f3f2f7" data-text="d" transform="matrix(10.96391 0 0 -10.7799 40.077 106.638)"/><use xlink:href="#t" fill="#f3f2f7" data-text="e" transform="matrix(10.96391 0 0 -10.7799 47.51 106.638)"/><use xlink:href="#q" fill="#f3f2f7" data-text="n" transform="matrix(10.96391 0 0 -10.7799 54.276 106.638)"/><use xlink:href="#u" fill="#f3f2f7" data-text="t" transform="matrix(10.96391 0 0 -10.7799 61.523 106.638)"/><use xlink:href="#m" fill="#f3f2f7" transform="matrix(10.96391 0 0 -10.7799 65.777 106.638)"/><use xlink:href="#O" fill="#f3f2f7" data-text="ș" transform="matrix(10.96391 0 0 -10.7799 74.231 106.638)"/><use xlink:href="#H" fill="#f3f2f7" data-text="i" transform="matrix(10.96391 0 0 -10.7799 80.207 106.638)"/><use xlink:href="#m" fill="#f3f2f7" transform="matrix(10.96391 0 0 -10.7799 83.255 106.638)"/><use xlink:href="#o" fill="#f3f2f7" data-text="b" transform="matrix(10.96391 0 0 -10.7799 91.708 106.638)"/><use xlink:href="#F" fill="#f3f2f7" data-text="u" transform="matrix(10.96391 0 0 -10.7799 99.142 106.638)"/><use xlink:href="#v" fill="#f3f2f7" data-text="l" transform="matrix(10.96391 0 0 -10.7799 106.389 106.638)"/><use xlink:href="#t" fill="#f3f2f7" data-text="e" transform="matrix(10.96391 0 0 -10.7799 109.437 106.638)"/><use xlink:href="#u" fill="#f3f2f7" data-text="t" transform="matrix(10.96391 0 0 -10.7799 116.202 106.638)"/><use xlink:href="#H" fill="#f3f2f7" data-text="i" transform="matrix(10.96391 0 0 -10.7799 120.456 106.638)"/><use xlink:href="#q" fill="#f3f2f7" data-text="n" transform="matrix(10.96391 0 0 -10.7799 123.504 106.638)"/><use xlink:href="#m" fill="#f3f2f7" transform="matrix(10.96391 0 0 -10.7799 130.75 106.638)"/><use xlink:href="#C" fill="#f3f2f7" data-text="î" transform="matrix(10.96391 0 0 -10.7799 139.205 106.638)"/><use xlink:href="#q" fill="#f3f2f7" data-text="n" transform="matrix(10.96391 0 0 -10.7799 142.385 106.638)"/><use xlink:href="#m" fill="#f3f2f7" transform="matrix(10.96391 0 0 -10.7799 149.632 106.638)"/><use xlink:href="#Q" fill="#f3f2f7" data-text="f" transform="matrix(10.96391 0 0 -10.7799 158.086 106.638)"/><use xlink:href="#p" fill="#f3f2f7" data-text="o" transform="matrix(10.96391 0 0 -10.7799 161.869 106.638)"/><use xlink:href="#B" fill="#f3f2f7" data-text="r" transform="matrix(10.96391 0 0 -10.7799 168.864 106.638)"/><use xlink:href="#s" fill="#f3f2f7" data-text="m" transform="matrix(10.96391 0 0 -10.7799 173.293 106.638)"/><use xlink:href="#r" fill="#f3f2f7" data-text="a" transform="matrix(10.96391 0 0 -10.7799 184.784 106.638)"/><use xlink:href="#u" fill="#f3f2f7" data-text="t" transform="matrix(10.96391 0 0 -10.7799 192.217 106.638)"/><use xlink:href="#m" fill="#f3f2f7" transform="matrix(10.96391 0 0 -10.7799 196.471 106.638)"/><use xlink:href="#Q" fill="#f3f2f7" data-text="f" transform="matrix(10.96391 0 0 -10.7799 204.925 106.638)"/><use xlink:href="#H" fill="#f3f2f7" data-text="i" transform="matrix(10.96391 0 0 -10.7799 208.708 106.638)"/><use xlink:href="#R" fill="#f3f2f7" data-text="z" transform="matrix(10.96391 0 0 -10.7799 211.756 106.638)"/><use xlink:href="#H" fill="#f3f2f7" data-text="i" transform="matrix(10.96391 0 0 -10.7799 217.052 106.638)"/><use xlink:href="#D" fill="#f3f2f7" data-text="c" transform="matrix(10.96391 0 0 -10.7799 220.1 106.638)"/><use xlink:href="#K" fill="#f3f2f7" data-text="!" transform="matrix(10.96391 0 0 -10.7799 226.7 106.638)"/><use xlink:href="#m" fill="#f3f2f7" transform="matrix(10.96391 0 0 -10.7799 230.581 106.638)"/><use xlink:href="#y" fill="#f3f2f7" data-text="P" transform="matrix(10.96391 0 0 -10.7799 239.035 106.638)"/><use xlink:href="#r" fill="#f3f2f7" data-text="a" transform="matrix(10.96391 0 0 -10.7799 245.701 106.638)"/><use xlink:href="#B" fill="#f3f2f7" data-text="r" transform="matrix(10.96391 0 0 -10.7799 253.135 106.638)"/><use xlink:href="#p" fill="#f3f2f7" data-text="o" transform="matrix(10.96391 0 0 -10.7799 257.564 106.638)"/><use xlink:href="#v" fill="#f3f2f7" data-text="l" transform="matrix(10.96391 0 0 -10.7799 264.56 106.638)"/><use xlink:href="#r" fill="#f3f2f7" data-text="a" transform="matrix(10.96391 0 0 -10.7799 267.607 106.638)"/><use xlink:href="#m" fill="#f3f2f7" transform="matrix(10.96391 0 0 -10.7799 275.04 106.638)"/><use xlink:href="#D" fill="#f3f2f7" data-text="c" transform="matrix(10.96391 0 0 -10.7799 22.6 119.067)"/><use xlink:href="#r" fill="#f3f2f7" data-text="a" transform="matrix(10.96391 0 0 -10.7799 29.201 119.067)"/><use xlink:href="#B" fill="#f3f2f7" data-text="r" transform="matrix(10.96391 0 0 -10.7799 36.635 119.067)"/><use xlink:href="#G" fill="#f3f2f7" data-text="d" transform="matrix(10.96391 0 0 -10.7799 41.064 119.067)"/><use xlink:href="#F" fill="#f3f2f7" data-text="u" transform="matrix(10.96391 0 0 -10.7799 48.498 119.067)"/><use xlink:href="#v" fill="#f3f2f7" data-text="l" transform="matrix(10.96391 0 0 -10.7799 55.745 119.067)"/><use xlink:href="#F" fill="#f3f2f7" data-text="u" transform="matrix(10.96391 0 0 -10.7799 58.793 119.067)"/><use xlink:href="#H" fill="#f3f2f7" data-text="i" transform="matrix(10.96391 0 0 -10.7799 66.04 119.067)"/><use xlink:href="#m" fill="#f3f2f7" transform="matrix(10.96391 0 0 -10.7799 69.088 119.067)"/><use xlink:href="#w" fill="#f3f2f7" data-text="C" transform="matrix(10.96391 0 0 -10.7799 72.986 119.067)"/><use xlink:href="#x" fill="#f3f2f7" data-text="T" transform="matrix(10.96391 0 0 -10.7799 81.407 119.067)"/><use xlink:href="#y" fill="#f3f2f7" data-text="P" transform="matrix(10.96391 0 0 -10.7799 87.733 119.067)"/><use xlink:href="#m" fill="#f3f2f7" transform="matrix(10.96391 0 0 -10.7799 94.399 119.067)"/><use xlink:href="#t" fill="#f3f2f7" data-text="e" transform="matrix(10.96391 0 0 -10.7799 98.298 119.067)"/><use xlink:href="#z" fill="#f3f2f7" data-text="s" transform="matrix(10.96391 0 0 -10.7799 105.063 119.067)"/><use xlink:href="#u" fill="#f3f2f7" data-text="t" transform="matrix(10.96391 0 0 -10.7799 111.038 119.067)"/><use xlink:href="#t" fill="#f3f2f7" data-text="e" transform="matrix(10.96391 0 0 -10.7799 115.292 119.067)"/><use xlink:href="#m" fill="#f3f2f7" transform="matrix(10.96391 0 0 -10.7799 122.057 119.067)"/><use xlink:href="#S" fill="#f3f2f7" data-text="“" transform="matrix(10.96391 0 0 -10.7799 125.956 119.067)"/><use xlink:href="#T" fill="#f3f2f7" data-text="1" transform="matrix(10.96391 0 0 -10.7799 131.186 119.067)"/><use xlink:href="#U" fill="#f3f2f7" data-text="2" transform="matrix(10.96391 0 0 -10.7799 135.155 119.067)"/><use xlink:href="#V" fill="#f3f2f7" data-text="3" transform="matrix(10.96391 0 0 -10.7799 141.448 119.067)"/><use xlink:href="#W" fill="#f3f2f7" data-text="4" transform="matrix(10.96391 0 0 -10.7799 148.015 119.067)"/><use xlink:href="#X" fill="#f3f2f7" data-text="”" transform="matrix(10.96391 0 0 -10.7799 155.262 119.067)"/><use xlink:href="#Y" fill="#f3f2f7" data-text="," transform="matrix(10.96391 0 0 -10.7799 160.492 119.067)"/><use xlink:href="#m" fill="#f3f2f7" transform="matrix(10.96391 0 0 -10.7799 163.277 119.067)"/><use xlink:href="#P" fill="#f3f2f7" data-text="v" transform="matrix(10.96391 0 0 -10.7799 167.175 119.067)"/><use xlink:href="#t" fill="#f3f2f7" data-text="e" transform="matrix(10.96391 0 0 -10.7799 173.743 119.067)"/><use xlink:href="#H" fill="#f3f2f7" data-text="i" transform="matrix(10.96391 0 0 -10.7799 180.508 119.067)"/><use xlink:href="#m" fill="#f3f2f7" transform="matrix(10.96391 0 0 -10.7799 183.556 119.067)"/><use xlink:href="#r" fill="#f3f2f7" data-text="a" transform="matrix(10.96391 0 0 -10.7799 187.455 119.067)"/><use xlink:href="#P" fill="#f3f2f7" data-text="v" transform="matrix(10.96391 0 0 -10.7799 194.889 119.067)"/><use xlink:href="#t" fill="#f3f2f7" data-text="e" transform="matrix(10.96391 0 0 -10.7799 201.456 119.067)"/><use xlink:href="#r" fill="#f3f2f7" data-text="a" transform="matrix(10.96391 0 0 -10.7799 208.221 119.067)"/><use xlink:href="#m" fill="#f3f2f7" transform="matrix(10.96391 0 0 -10.7799 215.655 119.067)"/><use xlink:href="#q" fill="#f3f2f7" data-text="n" transform="matrix(10.96391 0 0 -10.7799 219.552 119.067)"/><use xlink:href="#t" fill="#f3f2f7" data-text="e" transform="matrix(10.96391 0 0 -10.7799 226.8 119.067)"/><use xlink:href="#P" fill="#f3f2f7" data-text="v" transform="matrix(10.96391 0 0 -10.7799 233.564 119.067)"/><use xlink:href="#p" fill="#f3f2f7" data-text="o" transform="matrix(10.96391 0 0 -10.7799 240.132 119.067)"/><use xlink:href="#H" fill="#f3f2f7" data-text="i" transform="matrix(10.96391 0 0 -10.7799 247.126 119.067)"/><use xlink:href="#t" fill="#f3f2f7" data-text="e" transform="matrix(10.96391 0 0 -10.7799 250.174 119.067)"/><use xlink:href="#m" fill="#f3f2f7" transform="matrix(10.96391 0 0 -10.7799 256.94 119.067)"/><use xlink:href="#G" fill="#f3f2f7" data-text="d" transform="matrix(10.96391 0 0 -10.7799 260.838 119.067)"/><use xlink:href="#t" fill="#f3f2f7" data-text="e" transform="matrix(10.96391 0 0 -10.7799 268.271 119.067)"/><use xlink:href="#m" fill="#f3f2f7" transform="matrix(10.96391 0 0 -10.7799 275.036 119.067)"/><use xlink:href="#t" fill="#f3f2f7" data-text="e" transform="matrix(10.96391 0 0 -10.7799 22.6 131.497)"/><use xlink:href="#r" fill="#f3f2f7" data-text="a" transform="matrix(10.96391 0 0 -10.7799 29.366 131.497)"/><use xlink:href="#m" fill="#f3f2f7" transform="matrix(10.96391 0 0 -10.7799 36.8 131.497)"/><use xlink:href="#D" fill="#f3f2f7" data-text="c" transform="matrix(10.96391 0 0 -10.7799 39.409 131.497)"/><use xlink:href="#Z" fill="#f3f2f7" data-text="â" transform="matrix(10.96391 0 0 -10.7799 46.009 131.497)"/><use xlink:href="#q" fill="#f3f2f7" data-text="n" transform="matrix(10.96391 0 0 -10.7799 53.442 131.497)"/><use xlink:href="#G" fill="#f3f2f7" data-text="d" transform="matrix(10.96391 0 0 -10.7799 60.69 131.497)"/><use xlink:href="#m" fill="#f3f2f7" transform="matrix(10.96391 0 0 -10.7799 68.123 131.497)"/><use xlink:href="#C" fill="#f3f2f7" data-text="î" transform="matrix(10.96391 0 0 -10.7799 70.733 131.497)"/><use xlink:href="#I" fill="#f3f2f7" data-text="ț" transform="matrix(10.96391 0 0 -10.7799 73.912 131.497)"/><use xlink:href="#H" fill="#f3f2f7" data-text="i" transform="matrix(10.96391 0 0 -10.7799 78.166 131.497)"/><use xlink:href="#m" fill="#f3f2f7" transform="matrix(10.96391 0 0 -10.7799 81.214 131.497)"/><use xlink:href="#B" fill="#f3f2f7" data-text="r" transform="matrix(10.96391 0 0 -10.7799 83.823 131.497)"/><use xlink:href="#t" fill="#f3f2f7" data-text="e" transform="matrix(10.96391 0 0 -10.7799 88.253 131.497)"/><use xlink:href="#C" fill="#f3f2f7" data-text="î" transform="matrix(10.96391 0 0 -10.7799 95.018 131.497)"/><use xlink:href="#q" fill="#f3f2f7" data-text="n" transform="matrix(10.96391 0 0 -10.7799 98.197 131.497)"/><use xlink:href="#D" fill="#f3f2f7" data-text="c" transform="matrix(10.96391 0 0 -10.7799 105.444 131.497)"/><use xlink:href="#r" fill="#f3f2f7" data-text="a" transform="matrix(10.96391 0 0 -10.7799 112.045 131.497)"/><use xlink:href="#B" fill="#f3f2f7" data-text="r" transform="matrix(10.96391 0 0 -10.7799 119.478 131.497)"/><use xlink:href="#D" fill="#f3f2f7" data-text="c" transform="matrix(10.96391 0 0 -10.7799 123.907 131.497)"/><use xlink:href="#H" fill="#f3f2f7" data-text="i" transform="matrix(10.96391 0 0 -10.7799 130.508 131.497)"/><use xlink:href="#m" fill="#f3f2f7" transform="matrix(10.96391 0 0 -10.7799 133.556 131.497)"/><use xlink:href="#r" fill="#f3f2f7" data-text="a" transform="matrix(10.96391 0 0 -10.7799 136.165 131.497)"/><use xlink:href="#o" fill="#f3f2f7" data-text="b" transform="matrix(10.96391 0 0 -10.7799 143.599 131.497)"/><use xlink:href="#p" fill="#f3f2f7" data-text="o" transform="matrix(10.96391 0 0 -10.7799 151.032 131.497)"/><use xlink:href="#q" fill="#f3f2f7" data-text="n" transform="matrix(10.96391 0 0 -10.7799 158.027 131.497)"/><use xlink:href="#r" fill="#f3f2f7" data-text="a" transform="matrix(10.96391 0 0 -10.7799 165.274 131.497)"/><use xlink:href="#s" fill="#f3f2f7" data-text="m" transform="matrix(10.96391 0 0 -10.7799 172.708 131.497)"/><use xlink:href="#t" fill="#f3f2f7" data-text="e" transform="matrix(10.96391 0 0 -10.7799 184.198 131.497)"/><use xlink:href="#q" fill="#f3f2f7" data-text="n" transform="matrix(10.96391 0 0 -10.7799 190.963 131.497)"/><use xlink:href="#u" fill="#f3f2f7" data-text="t" transform="matrix(10.96391 0 0 -10.7799 198.21 131.497)"/><use xlink:href="#F" fill="#f3f2f7" data-text="u" transform="matrix(10.96391 0 0 -10.7799 202.464 131.497)"/><use xlink:href="#v" fill="#f3f2f7" data-text="l" transform="matrix(10.96391 0 0 -10.7799 209.711 131.497)"/><use xlink:href="#K" fill="#f3f2f7" data-text="!" transform="matrix(10.96391 0 0 -10.7799 212.76 131.497)"/><use xlink:href="#g" fill="#ff8b00" data-text="F" transform="matrix(15.94751 0 0 -15.67985 22.602 168.765)"/><use xlink:href="#h" fill="#ff8b00" data-text="A" transform="matrix(15.94751 0 0 -15.67985 31.772 168.765)"/><use xlink:href="#i" fill="#ff8b00" data-text="C" transform="matrix(15.94751 0 0 -15.67985 44.1 168.765)"/><use xlink:href="#j" fill="#ff8b00" data-text="T" transform="matrix(15.94751 0 0 -15.67985 56.108 168.765)"/><use xlink:href="#k" fill="#ff8b00" data-text="S" transform="matrix(15.94751 0 0 -15.67985 65.931 168.765)"/><use xlink:href="#l" fill="#ff8b00" data-text="." transform="matrix(15.94751 0 0 -15.67985 75.899 168.765)"/><use xlink:href="#l" fill="#ff8b00" data-text="." transform="matrix(15.94751 0 0 -15.67985 80.986 168.765)"/><use xlink:href="#aa" fill="#f3f2f7" transform="matrix(15.94751 0 0 -15.67985 86.073 168.765)"/><use xlink:href="#ab" fill="#f3f2f7" data-text="L" transform="matrix(10.96391 0 0 -10.7799 94.044 168.765)"/><use xlink:href="#r" fill="#f3f2f7" data-text="a" transform="matrix(10.96391 0 0 -10.7799 99.077 168.765)"/><use xlink:href="#m" fill="#f3f2f7" transform="matrix(10.96391 0 0 -10.7799 106.51 168.765)"/><use xlink:href="#H" fill="#f3f2f7" data-text="i" transform="matrix(10.96391 0 0 -10.7799 111.99 168.765)"/><use xlink:href="#q" fill="#f3f2f7" data-text="n" transform="matrix(10.96391 0 0 -10.7799 115.039 168.765)"/><use xlink:href="#u" fill="#f3f2f7" data-text="t" transform="matrix(10.96391 0 0 -10.7799 122.286 168.765)"/><use xlink:href="#B" fill="#f3f2f7" data-text="r" transform="matrix(10.96391 0 0 -10.7799 126.54 168.765)"/><use xlink:href="#r" fill="#f3f2f7" data-text="a" transform="matrix(10.96391 0 0 -10.7799 130.97 168.765)"/><use xlink:href="#B" fill="#f3f2f7" data-text="r" transform="matrix(10.96391 0 0 -10.7799 138.403 168.765)"/><use xlink:href="#t" fill="#f3f2f7" data-text="e" transform="matrix(10.96391 0 0 -10.7799 142.832 168.765)"/><use xlink:href="#m" fill="#f3f2f7" transform="matrix(10.96391 0 0 -10.7799 149.597 168.765)"/><use xlink:href="#C" fill="#f3f2f7" data-text="î" transform="matrix(10.96391 0 0 -10.7799 155.08 168.765)"/><use xlink:href="#q" fill="#f3f2f7" data-text="n" transform="matrix(10.96391 0 0 -10.7799 158.26 168.765)"/><use xlink:href="#m" fill="#f3f2f7" transform="matrix(10.96391 0 0 -10.7799 165.507 168.765)"/><use xlink:href="#r" fill="#f3f2f7" data-text="a" transform="matrix(10.96391 0 0 -10.7799 170.987 168.765)"/><use xlink:href="#F" fill="#f3f2f7" data-text="u" transform="matrix(10.96391 0 0 -10.7799 178.42 168.765)"/><use xlink:href="#u" fill="#f3f2f7" data-text="t" transform="matrix(10.96391 0 0 -10.7799 185.668 168.765)"/><use xlink:href="#p" fill="#f3f2f7" data-text="o" transform="matrix(10.96391 0 0 -10.7799 189.922 168.765)"/><use xlink:href="#o" fill="#f3f2f7" data-text="b" transform="matrix(10.96391 0 0 -10.7799 196.917 168.765)"/><use xlink:href="#F" fill="#f3f2f7" data-text="u" transform="matrix(10.96391 0 0 -10.7799 204.35 168.765)"/><use xlink:href="#R" fill="#f3f2f7" data-text="z" transform="matrix(10.96391 0 0 -10.7799 211.598 168.765)"/><use xlink:href="#m" fill="#f3f2f7" transform="matrix(10.96391 0 0 -10.7799 216.893 168.765)"/><use xlink:href="#P" fill="#f3f2f7" data-text="v" transform="matrix(10.96391 0 0 -10.7799 222.374 168.765)"/><use xlink:href="#r" fill="#f3f2f7" data-text="a" transform="matrix(10.96391 0 0 -10.7799 228.941 168.765)"/><use xlink:href="#m" fill="#f3f2f7" transform="matrix(10.96391 0 0 -10.7799 236.375 168.765)"/><use xlink:href="#u" fill="#f3f2f7" data-text="t" transform="matrix(10.96391 0 0 -10.7799 241.858 168.765)"/><use xlink:href="#B" fill="#f3f2f7" data-text="r" transform="matrix(10.96391 0 0 -10.7799 246.112 168.765)"/><use xlink:href="#t" fill="#f3f2f7" data-text="e" transform="matrix(10.96391 0 0 -10.7799 250.541 168.765)"/><use xlink:href="#o" fill="#f3f2f7" data-text="b" transform="matrix(10.96391 0 0 -10.7799 257.306 168.765)"/><use xlink:href="#F" fill="#f3f2f7" data-text="u" transform="matrix(10.96391 0 0 -10.7799 264.74 168.765)"/><use xlink:href="#H" fill="#f3f2f7" data-text="i" transform="matrix(10.96391 0 0 -10.7799 271.987 168.765)"/><use xlink:href="#m" fill="#f3f2f7" transform="matrix(10.96391 0 0 -10.7799 275.035 168.765)"/><use xlink:href="#z" fill="#f3f2f7" data-text="s" transform="matrix(10.96391 0 0 -10.7799 22.603 181.194)"/><use xlink:href="#E" fill="#f3f2f7" data-text="ă" transform="matrix(10.96391 0 0 -10.7799 28.578 181.194)"/><use xlink:href="#ac" fill="#f3f2f7" data-text="-" transform="matrix(10.96391 0 0 -10.7799 36.012 181.194)"/><use xlink:href="#I" fill="#f3f2f7" data-text="ț" transform="matrix(10.96391 0 0 -10.7799 42.404 181.194)"/><use xlink:href="#H" fill="#f3f2f7" data-text="i" transform="matrix(10.96391 0 0 -10.7799 46.658 181.194)"/><use xlink:href="#m" fill="#f3f2f7" transform="matrix(10.96391 0 0 -10.7799 49.706 181.194)"/><use xlink:href="#z" fill="#f3f2f7" data-text="s" transform="matrix(10.96391 0 0 -10.7799 57.04 181.194)"/><use xlink:href="#D" fill="#f3f2f7" data-text="c" transform="matrix(10.96391 0 0 -10.7799 63.016 181.194)"/><use xlink:href="#r" fill="#f3f2f7" data-text="a" transform="matrix(10.96391 0 0 -10.7799 69.616 181.194)"/><use xlink:href="#q" fill="#f3f2f7" data-text="n" transform="matrix(10.96391 0 0 -10.7799 77.05 181.194)"/><use xlink:href="#t" fill="#f3f2f7" data-text="e" transform="matrix(10.96391 0 0 -10.7799 84.297 181.194)"/><use xlink:href="#R" fill="#f3f2f7" data-text="z" transform="matrix(10.96391 0 0 -10.7799 91.062 181.194)"/><use xlink:href="#H" fill="#f3f2f7" data-text="i" transform="matrix(10.96391 0 0 -10.7799 96.357 181.194)"/><use xlink:href="#m" fill="#f3f2f7" transform="matrix(10.96391 0 0 -10.7799 99.405 181.194)"/><use xlink:href="#r" fill="#f3f2f7" data-text="a" transform="matrix(10.96391 0 0 -10.7799 106.74 181.194)"/><use xlink:href="#o" fill="#f3f2f7" data-text="b" transform="matrix(10.96391 0 0 -10.7799 114.174 181.194)"/><use xlink:href="#p" fill="#f3f2f7" data-text="o" transform="matrix(10.96391 0 0 -10.7799 121.608 181.194)"/><use xlink:href="#q" fill="#f3f2f7" data-text="n" transform="matrix(10.96391 0 0 -10.7799 128.603 181.194)"/><use xlink:href="#r" fill="#f3f2f7" data-text="a" transform="matrix(10.96391 0 0 -10.7799 135.85 181.194)"/><use xlink:href="#s" fill="#f3f2f7" data-text="m" transform="matrix(10.96391 0 0 -10.7799 143.284 181.194)"/><use xlink:href="#t" fill="#f3f2f7" data-text="e" transform="matrix(10.96391 0 0 -10.7799 154.774 181.194)"/><use xlink:href="#q" fill="#f3f2f7" data-text="n" transform="matrix(10.96391 0 0 -10.7799 161.539 181.194)"/><use xlink:href="#u" fill="#f3f2f7" data-text="t" transform="matrix(10.96391 0 0 -10.7799 168.786 181.194)"/><use xlink:href="#F" fill="#f3f2f7" data-text="u" transform="matrix(10.96391 0 0 -10.7799 173.04 181.194)"/><use xlink:href="#v" fill="#f3f2f7" data-text="l" transform="matrix(10.96391 0 0 -10.7799 180.287 181.194)"/><use xlink:href="#m" fill="#f3f2f7" transform="matrix(10.96391 0 0 -10.7799 183.335 181.194)"/><use xlink:href="#z" fill="#f3f2f7" data-text="s" transform="matrix(10.96391 0 0 -10.7799 190.67 181.194)"/><use xlink:href="#r" fill="#f3f2f7" data-text="a" transform="matrix(10.96391 0 0 -10.7799 196.645 181.194)"/><use xlink:href="#F" fill="#f3f2f7" data-text="u" transform="matrix(10.96391 0 0 -10.7799 204.079 181.194)"/><use xlink:href="#m" fill="#f3f2f7" transform="matrix(10.96391 0 0 -10.7799 211.326 181.194)"/><use xlink:href="#o" fill="#f3f2f7" data-text="b" transform="matrix(10.96391 0 0 -10.7799 218.662 181.194)"/><use xlink:href="#H" fill="#f3f2f7" data-text="i" transform="matrix(10.96391 0 0 -10.7799 226.095 181.194)"/><use xlink:href="#v" fill="#f3f2f7" data-text="l" transform="matrix(10.96391 0 0 -10.7799 229.143 181.194)"/><use xlink:href="#t" fill="#f3f2f7" data-text="e" transform="matrix(10.96391 0 0 -10.7799 232.191 181.194)"/><use xlink:href="#u" fill="#f3f2f7" data-text="t" transform="matrix(10.96391 0 0 -10.7799 238.956 181.194)"/><use xlink:href="#F" fill="#f3f2f7" data-text="u" transform="matrix(10.96391 0 0 -10.7799 243.21 181.194)"/><use xlink:href="#v" fill="#f3f2f7" data-text="l" transform="matrix(10.96391 0 0 -10.7799 250.457 181.194)"/><use xlink:href="#m" fill="#f3f2f7" transform="matrix(10.96391 0 0 -10.7799 253.505 181.194)"/><use xlink:href="#G" fill="#f3f2f7" data-text="d" transform="matrix(10.96391 0 0 -10.7799 260.84 181.194)"/><use xlink:href="#t" fill="#f3f2f7" data-text="e" transform="matrix(10.96391 0 0 -10.7799 268.273 181.194)"/><use xlink:href="#m" fill="#f3f2f7" transform="matrix(10.96391 0 0 -10.7799 275.038 181.194)"/><use xlink:href="#Q" fill="#f3f2f7" data-text="f" transform="matrix(10.96391 0 0 -10.7799 22.603 193.623)"/><use xlink:href="#H" fill="#f3f2f7" data-text="i" transform="matrix(10.96391 0 0 -10.7799 26.385 193.623)"/><use xlink:href="#t" fill="#f3f2f7" data-text="e" transform="matrix(10.96391 0 0 -10.7799 29.433 193.623)"/><use xlink:href="#D" fill="#f3f2f7" data-text="c" transform="matrix(10.96391 0 0 -10.7799 36.198 193.623)"/><use xlink:href="#r" fill="#f3f2f7" data-text="a" transform="matrix(10.96391 0 0 -10.7799 42.798 193.623)"/><use xlink:href="#B" fill="#f3f2f7" data-text="r" transform="matrix(10.96391 0 0 -10.7799 50.232 193.623)"/><use xlink:href="#t" fill="#f3f2f7" data-text="e" transform="matrix(10.96391 0 0 -10.7799 54.661 193.623)"/><use xlink:href="#m" fill="#f3f2f7" transform="matrix(10.96391 0 0 -10.7799 61.426 193.623)"/><use xlink:href="#G" fill="#f3f2f7" data-text="d" transform="matrix(10.96391 0 0 -10.7799 64.305 193.623)"/><use xlink:href="#r" fill="#f3f2f7" data-text="a" transform="matrix(10.96391 0 0 -10.7799 71.739 193.623)"/><use xlink:href="#u" fill="#f3f2f7" data-text="t" transform="matrix(10.96391 0 0 -10.7799 79.172 193.623)"/><use xlink:href="#E" fill="#f3f2f7" data-text="ă" transform="matrix(10.96391 0 0 -10.7799 83.426 193.623)"/><use xlink:href="#m" fill="#f3f2f7" transform="matrix(10.96391 0 0 -10.7799 90.86 193.623)"/><use xlink:href="#D" fill="#f3f2f7" data-text="c" transform="matrix(10.96391 0 0 -10.7799 93.74 193.623)"/><use xlink:href="#Z" fill="#f3f2f7" data-text="â" transform="matrix(10.96391 0 0 -10.7799 100.34 193.623)"/><use xlink:href="#q" fill="#f3f2f7" data-text="n" transform="matrix(10.96391 0 0 -10.7799 107.774 193.623)"/><use xlink:href="#G" fill="#f3f2f7" data-text="d" transform="matrix(10.96391 0 0 -10.7799 115.02 193.623)"/><use xlink:href="#m" fill="#f3f2f7" transform="matrix(10.96391 0 0 -10.7799 122.454 193.623)"/><use xlink:href="#z" fill="#f3f2f7" data-text="s" transform="matrix(10.96391 0 0 -10.7799 125.333 193.623)"/><use xlink:href="#D" fill="#f3f2f7" data-text="c" transform="matrix(10.96391 0 0 -10.7799 131.309 193.623)"/><use xlink:href="#N" fill="#f3f2f7" data-text="h" transform="matrix(10.96391 0 0 -10.7799 137.909 193.623)"/><use xlink:href="#H" fill="#f3f2f7" data-text="i" transform="matrix(10.96391 0 0 -10.7799 145.156 193.623)"/><use xlink:href="#s" fill="#f3f2f7" data-text="m" transform="matrix(10.96391 0 0 -10.7799 148.204 193.623)"/><use xlink:href="#o" fill="#f3f2f7" data-text="b" transform="matrix(10.96391 0 0 -10.7799 159.694 193.623)"/><use xlink:href="#H" fill="#f3f2f7" data-text="i" transform="matrix(10.96391 0 0 -10.7799 167.128 193.623)"/><use xlink:href="#m" fill="#f3f2f7" transform="matrix(10.96391 0 0 -10.7799 170.176 193.623)"/><use xlink:href="#v" fill="#f3f2f7" data-text="l" transform="matrix(10.96391 0 0 -10.7799 173.054 193.623)"/><use xlink:href="#H" fill="#f3f2f7" data-text="i" transform="matrix(10.96391 0 0 -10.7799 176.102 193.623)"/><use xlink:href="#q" fill="#f3f2f7" data-text="n" transform="matrix(10.96391 0 0 -10.7799 179.15 193.623)"/><use xlink:href="#H" fill="#f3f2f7" data-text="i" transform="matrix(10.96391 0 0 -10.7799 186.398 193.623)"/><use xlink:href="#r" fill="#f3f2f7" data-text="a" transform="matrix(10.96391 0 0 -10.7799 189.446 193.623)"/><use xlink:href="#ad" fill="#f3f2f7" data-text="." transform="matrix(10.96391 0 0 -10.7799 196.88 193.623)"/><use xlink:href="#m" fill="#f3f2f7" transform="matrix(10.96391 0 0 -10.7799 199.73 193.623)"/><use xlink:href="#ae" fill="#f3f2f7" data-text="V" transform="matrix(10.96391 0 0 -10.7799 202.61 193.623)"/><use xlink:href="#r" fill="#f3f2f7" data-text="a" transform="matrix(10.96391 0 0 -10.7799 210.405 193.623)"/><use xlink:href="#v" fill="#f3f2f7" data-text="l" transform="matrix(10.96391 0 0 -10.7799 217.839 193.623)"/><use xlink:href="#r" fill="#f3f2f7" data-text="a" transform="matrix(10.96391 0 0 -10.7799 220.887 193.623)"/><use xlink:href="#o" fill="#f3f2f7" data-text="b" transform="matrix(10.96391 0 0 -10.7799 228.32 193.623)"/><use xlink:href="#H" fill="#f3f2f7" data-text="i" transform="matrix(10.96391 0 0 -10.7799 235.754 193.623)"/><use xlink:href="#v" fill="#f3f2f7" data-text="l" transform="matrix(10.96391 0 0 -10.7799 238.802 193.623)"/><use xlink:href="#H" fill="#f3f2f7" data-text="i" transform="matrix(10.96391 0 0 -10.7799 241.85 193.623)"/><use xlink:href="#u" fill="#f3f2f7" data-text="t" transform="matrix(10.96391 0 0 -10.7799 244.898 193.623)"/><use xlink:href="#r" fill="#f3f2f7" data-text="a" transform="matrix(10.96391 0 0 -10.7799 249.152 193.623)"/><use xlink:href="#u" fill="#f3f2f7" data-text="t" transform="matrix(10.96391 0 0 -10.7799 256.585 193.623)"/><use xlink:href="#t" fill="#f3f2f7" data-text="e" transform="matrix(10.96391 0 0 -10.7799 260.84 193.623)"/><use xlink:href="#r" fill="#f3f2f7" data-text="a" transform="matrix(10.96391 0 0 -10.7799 267.604 193.623)"/><use xlink:href="#m" fill="#f3f2f7" transform="matrix(10.96391 0 0 -10.7799 275.038 193.623)"/><use xlink:href="#o" fill="#f3f2f7" data-text="b" transform="matrix(10.96391 0 0 -10.7799 22.603 206.052)"/><use xlink:href="#H" fill="#f3f2f7" data-text="i" transform="matrix(10.96391 0 0 -10.7799 30.036 206.052)"/><use xlink:href="#v" fill="#f3f2f7" data-text="l" transform="matrix(10.96391 0 0 -10.7799 33.084 206.052)"/><use xlink:href="#t" fill="#f3f2f7" data-text="e" transform="matrix(10.96391 0 0 -10.7799 36.132 206.052)"/><use xlink:href="#u" fill="#f3f2f7" data-text="t" transform="matrix(10.96391 0 0 -10.7799 42.897 206.052)"/><use xlink:href="#F" fill="#f3f2f7" data-text="u" transform="matrix(10.96391 0 0 -10.7799 47.151 206.052)"/><use xlink:href="#v" fill="#f3f2f7" data-text="l" transform="matrix(10.96391 0 0 -10.7799 54.398 206.052)"/><use xlink:href="#F" fill="#f3f2f7" data-text="u" transform="matrix(10.96391 0 0 -10.7799 57.446 206.052)"/><use xlink:href="#H" fill="#f3f2f7" data-text="i" transform="matrix(10.96391 0 0 -10.7799 64.693 206.052)"/><use xlink:href="#m" fill="#f3f2f7" transform="matrix(10.96391 0 0 -10.7799 67.741 206.052)"/><use xlink:href="#t" fill="#f3f2f7" data-text="e" transform="matrix(10.96391 0 0 -10.7799 72.339 206.052)"/><use xlink:href="#z" fill="#f3f2f7" data-text="s" transform="matrix(10.96391 0 0 -10.7799 79.103 206.052)"/><use xlink:href="#u" fill="#f3f2f7" data-text="t" transform="matrix(10.96391 0 0 -10.7799 85.079 206.052)"/><use xlink:href="#t" fill="#f3f2f7" data-text="e" transform="matrix(10.96391 0 0 -10.7799 89.333 206.052)"/><use xlink:href="#m" fill="#f3f2f7" transform="matrix(10.96391 0 0 -10.7799 96.098 206.052)"/><use xlink:href="#G" fill="#f3f2f7" data-text="d" transform="matrix(10.96391 0 0 -10.7799 100.696 206.052)"/><use xlink:href="#t" fill="#f3f2f7" data-text="e" transform="matrix(10.96391 0 0 -10.7799 108.13 206.052)"/><use xlink:href="#m" fill="#f3f2f7" transform="matrix(10.96391 0 0 -10.7799 114.894 206.052)"/><use xlink:href="#W" fill="#f3f2f7" data-text="4" transform="matrix(10.96391 0 0 -10.7799 119.49 206.052)"/><use xlink:href="#af" fill="#f3f2f7" data-text="5" transform="matrix(10.96391 0 0 -10.7799 126.737 206.052)"/><use xlink:href="#m" fill="#f3f2f7" transform="matrix(10.96391 0 0 -10.7799 133.798 206.052)"/><use xlink:href="#G" fill="#f3f2f7" data-text="d" transform="matrix(10.96391 0 0 -10.7799 138.394 206.052)"/><use xlink:href="#t" fill="#f3f2f7" data-text="e" transform="matrix(10.96391 0 0 -10.7799 145.827 206.052)"/><use xlink:href="#m" fill="#f3f2f7" transform="matrix(10.96391 0 0 -10.7799 152.592 206.052)"/><use xlink:href="#s" fill="#f3f2f7" data-text="m" transform="matrix(10.96391 0 0 -10.7799 157.19 206.052)"/><use xlink:href="#H" fill="#f3f2f7" data-text="i" transform="matrix(10.96391 0 0 -10.7799 168.68 206.052)"/><use xlink:href="#q" fill="#f3f2f7" data-text="n" transform="matrix(10.96391 0 0 -10.7799 171.728 206.052)"/><use xlink:href="#F" fill="#f3f2f7" data-text="u" transform="matrix(10.96391 0 0 -10.7799 178.975 206.052)"/><use xlink:href="#u" fill="#f3f2f7" data-text="t" transform="matrix(10.96391 0 0 -10.7799 186.222 206.052)"/><use xlink:href="#t" fill="#f3f2f7" data-text="e" transform="matrix(10.96391 0 0 -10.7799 190.476 206.052)"/><use xlink:href="#m" fill="#f3f2f7" transform="matrix(10.96391 0 0 -10.7799 197.24 206.052)"/><use xlink:href="#A" fill="#f3f2f7" data-text="p" transform="matrix(10.96391 0 0 -10.7799 201.837 206.052)"/><use xlink:href="#t" fill="#f3f2f7" data-text="e" transform="matrix(10.96391 0 0 -10.7799 209.27 206.052)"/><use xlink:href="#m" fill="#f3f2f7" transform="matrix(10.96391 0 0 -10.7799 216.035 206.052)"/><use xlink:href="#p" fill="#f3f2f7" data-text="o" transform="matrix(10.96391 0 0 -10.7799 220.632 206.052)"/><use xlink:href="#m" fill="#f3f2f7" transform="matrix(10.96391 0 0 -10.7799 227.627 206.052)"/><use xlink:href="#z" fill="#f3f2f7" data-text="s" transform="matrix(10.96391 0 0 -10.7799 232.224 206.052)"/><use xlink:href="#H" fill="#f3f2f7" data-text="i" transform="matrix(10.96391 0 0 -10.7799 238.2 206.052)"/><use xlink:href="#q" fill="#f3f2f7" data-text="n" transform="matrix(10.96391 0 0 -10.7799 241.248 206.052)"/><use xlink:href="#M" fill="#f3f2f7" data-text="g" transform="matrix(10.96391 0 0 -10.7799 248.495 206.052)"/><use xlink:href="#F" fill="#f3f2f7" data-text="u" transform="matrix(10.96391 0 0 -10.7799 255.928 206.052)"/><use xlink:href="#B" fill="#f3f2f7" data-text="r" transform="matrix(10.96391 0 0 -10.7799 263.176 206.052)"/><use xlink:href="#E" fill="#f3f2f7" data-text="ă" transform="matrix(10.96391 0 0 -10.7799 267.605 206.052)"/><use xlink:href="#m" fill="#f3f2f7" transform="matrix(10.96391 0 0 -10.7799 275.039 206.052)"/><use xlink:href="#v" fill="#f3f2f7" data-text="l" transform="matrix(10.96391 0 0 -10.7799 22.603 218.482)"/><use xlink:href="#H" fill="#f3f2f7" data-text="i" transform="matrix(10.96391 0 0 -10.7799 25.65 218.482)"/><use xlink:href="#q" fill="#f3f2f7" data-text="n" transform="matrix(10.96391 0 0 -10.7799 28.699 218.482)"/><use xlink:href="#H" fill="#f3f2f7" data-text="i" transform="matrix(10.96391 0 0 -10.7799 35.946 218.482)"/><use xlink:href="#t" fill="#f3f2f7" data-text="e" transform="matrix(10.96391 0 0 -10.7799 38.994 218.482)"/><use xlink:href="#ad" fill="#f3f2f7" data-text="." transform="matrix(10.96391 0 0 -10.7799 45.759 218.482)"/><use xlink:href="#m" fill="#f3f2f7" transform="matrix(10.96391 0 0 -10.7799 48.61 218.482)"/><path fill="#ff8b00" d="M217.461 395.342c2.768-.593 3.5-2.042 3.065-4.831-1.02-6.551-3.38-12.706-5.172-19.027-1.578-5.566-.892-7.003 4.41-8.82 14.966-5.127 26.162-22.106 25.091-38.033-.177-2.64-.362-5.281-.449-7.924-.146-4.537 4.136-5.884 6.516-8.445 5.004-5.378 10.255-10.478 14.32-16.677 1.4-2.132 1.791-4.027.64-6.22-5.269-10.01-10.465-20.063-15.903-29.981-1.305-2.38-3.398-4.388-6.019-5.527-2.98-1.294-5.856-.37-7.395 2.054-1.562 2.46.416 4.51 2.685 5.66 3.85 1.95 4.612 6.055 6.452 9.285 3.521 6.171 6.255 12.787 9.665 19.027 2.076 3.797 1.022 6.374-2.592 7.51-4.802 1.51-7.586 4.752-9.689 8.95-2.416 4.828-6.864 6.053-11.697 6.577-1.528.166-3.212-.424-3.441-1.706-.224-1.257 1.02-2.388 2.653-2.708 4.103-.8 7.417-2.815 9.66-6.49 3.106-5.091 2.295-10.107-2.59-13.456-4.6-3.152-9.84-3.97-15.175-2.568-6.332 1.665-9.635 7.741-8.237 14.526.363 1.76 1.464 3.973-1.159 4.428-2.148.373-2.934-1.838-3.289-3.655-.92-4.704-.627-9.34 2.508-13.168 1.68-2.05 1.487-3.71.335-5.671-2.621-4.462-5.177-8.964-7.898-13.365-1.574-2.545-1.213-4.304 1.367-5.897 3.8-2.347 7.346-5.121 11.239-7.29 3.021-1.685 3.186-3.942 2.416-6.713-.811-2.919-2.684-5.202-4.692-7.362-1.112-1.197-2.52-1.011-3.905-.512-1.424.51-1.968 1.645-1.664 3.001.782 3.495-1.234 5.436-3.671 7.314-3.213 2.479-6.162 5.33-9.519 7.58-3.597 2.41-4.022 5.11-2.398 8.893 3.365 7.839 6.424 15.811 9.714 23.684.957 2.289 1.347 4.516.755 6.937-2.423 9.919-4.867 19.833-7.18 29.777-.467 2.005-1.872 2.355-3.38 2.493-3.62.33-7.258.655-10.887.642-3.308-.011-5.061.993-5.619 4.59-1.093 7.045-2.752 14-4.027 21.02-.52 2.87-1.692 3.76-4.6 2.824-3.035-.977-6.152-2.017-9.463-1.321-3.472.729-4.362 2.913-1.698 5.198 5.44 4.666 11.618 8.217 18.344 10.795 2.516.965 2.817-.62 3.22-2.372 2.103-9.166 5.28-17.988 8.686-26.73 1.945-4.992 2.566-4.994 7.22-2.226 5.286 3.144 10.827 5.86 16.142 8.956 3.585 2.09 3.748 4.072.759 6.92-2.735 2.607-5.515 5.188-8.473 7.53-2.26 1.79-2.597 3.723-1.558 6.228 1.983 4.778 4.04 9.533 5.794 14.395 1.64 4.546 1.218 5.043-3.555 6.28-3.516.914-7.076 1.687-10.056 4.012-1.937 1.512-1.837 2.576.392 3.58 4.217 1.9 8.493 1.228 12.81.498 3.395-.831 6.775-1.737 10.192-2.47m-24.812 6.918c-5.883-2.144-6.9-7.621-2.19-11.735 2.823-2.467 6.312-3.597 9.74-4.783 2.478-.857 3.355-1.947 2.145-4.599-2.15-4.702-3.885-9.595-6.03-14.301-.988-2.166-.676-3.753 1.027-5.186 2.778-2.34 5.479-4.795 8.429-6.9 2.47-1.76 2.099-2.737-.298-4.058-3.306-1.825-6.577-3.743-9.696-5.865-2.73-1.858-4.022-1.738-5.33 1.724-3.421 9.055-6.362 18.219-8.27 27.71-.397 1.984-.766 4.336-3.627 3.065-9.76-4.333-19.215-9.2-26.375-17.455-3.129-3.607-2.073-7.558 2.406-9.226 3.657-1.362 7.46-1.495 11.129-.216 2.705.943 3.709.28 4.154-2.54 1.034-6.542 2.428-13.028 3.553-19.558.676-3.916 2.483-5.976 6.803-5.525 3.485.364 6.976-.304 10.438-.86 1.372-.22 2.292-.606 2.53-2.216 1.05-7.097 3.748-13.75 5.682-20.61 1.094-3.88.914-7.498-.435-11.428-2.734-7.96-6.37-15.533-9.298-23.395-2.417-6.49-2.188-7.125 2.982-11.481 2.46-2.073 4.94-4.13 7.536-6.024 2.403-1.751 3.976-3.865 4.204-6.902.286-3.813 1.894-6.802 5.802-7.84 4.164-1.108 7.363.717 9.89 3.92 2.372 3.01 3.54 6.614 5.069 10.071 1.904 4.307.56 6.704-3.35 8.675-3.236 1.631-6.274 3.677-9.312 5.675-2.279 1.497-3.147 3.28-1.197 5.913 1.905 2.572 3.491 5.403 5.017 8.228 1.357 2.511 2.93 3.38 6.016 2.946 9.819-1.38 18.716.088 23.345 10.408 1.17 2.61 2.866 2.367 4.712 1.582 2.193-.934 1.98-2.72 1.039-4.553-2.4-4.679-4.783-9.367-7.171-14.053-2.388-4.69-4.552-9.472-9.325-12.476-1.893-1.192-2.917-3.332-2.414-5.827.777-3.849 3.803-6.01 6.935-6.971 2.658-.817 6.232-.374 8.432 1.866 3.747 3.813 6.96 8.103 9.535 12.854 4.582 8.447 7.77 17.622 13.635 25.412 1.86 2.472 1.924 5.439-.298 8.125-6.153 7.437-12.17 14.999-19.36 21.495-1.37 1.24-1.882 2.53-1.668 4.413.59 5.184.259 10.36-.917 15.444-3.283 14.181-11.818 24.21-24.77 30.47-3.526 1.704-4.894 3.534-3.435 7.44 2.398 6.415 2.884 13.382 5.505 19.77 1.164 2.834.04 4.913-2.942 5.85-4.673 1.467-9.3 3.11-14.175 3.825-6.333 1.043-12.442.927-15.807-.298"/><path fill="none" stroke="#ff8b00" stroke-miterlimit="10" stroke-width="1.99992" d="M217.461 395.342c2.768-.593 3.5-2.042 3.065-4.831-1.02-6.551-3.38-12.706-5.172-19.027-1.578-5.566-.892-7.003 4.41-8.82 14.966-5.127 26.162-22.106 25.091-38.033-.177-2.64-.362-5.281-.449-7.924-.146-4.537 4.136-5.884 6.516-8.445 5.004-5.378 10.255-10.478 14.32-16.677 1.4-2.132 1.791-4.027.64-6.22-5.269-10.01-10.465-20.063-15.903-29.981-1.305-2.38-3.398-4.388-6.019-5.527-2.98-1.294-5.856-.37-7.395 2.054-1.562 2.46.416 4.51 2.685 5.66 3.85 1.95 4.612 6.055 6.452 9.285 3.521 6.171 6.255 12.787 9.665 19.027 2.076 3.797 1.022 6.374-2.592 7.51-4.802 1.51-7.586 4.752-9.689 8.95-2.416 4.828-6.864 6.053-11.697 6.577-1.528.166-3.212-.424-3.441-1.706-.224-1.257 1.02-2.388 2.653-2.708 4.103-.8 7.417-2.815 9.66-6.49 3.106-5.091 2.295-10.107-2.59-13.456-4.6-3.152-9.84-3.97-15.175-2.568-6.332 1.665-9.635 7.741-8.237 14.526.363 1.76 1.464 3.973-1.159 4.428-2.148.373-2.934-1.838-3.289-3.655-.92-4.704-.627-9.34 2.508-13.168 1.68-2.05 1.487-3.71.335-5.671-2.621-4.462-5.177-8.964-7.898-13.365-1.574-2.545-1.213-4.304 1.367-5.897 3.8-2.347 7.346-5.121 11.239-7.29 3.021-1.685 3.186-3.942 2.416-6.713-.811-2.919-2.684-5.202-4.692-7.362-1.112-1.197-2.52-1.011-3.905-.512-1.424.51-1.968 1.645-1.664 3.001.782 3.495-1.234 5.436-3.671 7.314-3.213 2.479-6.162 5.33-9.519 7.58-3.597 2.41-4.022 5.11-2.398 8.893 3.365 7.839 6.424 15.811 9.714 23.684.957 2.289 1.347 4.516.755 6.937-2.423 9.919-4.867 19.833-7.18 29.777-.467 2.005-1.872 2.355-3.38 2.493-3.62.33-7.258.655-10.887.642-3.308-.011-5.061.993-5.619 4.59-1.093 7.045-2.752 14-4.027 21.02-.52 2.87-1.692 3.76-4.6 2.824-3.035-.977-6.152-2.017-9.463-1.321-3.472.729-4.362 2.913-1.698 5.198 5.44 4.666 11.618 8.217 18.344 10.795 2.516.965 2.817-.62 3.22-2.372 2.103-9.166 5.28-17.988 8.686-26.73 1.945-4.992 2.566-4.994 7.22-2.226 5.286 3.144 10.827 5.86 16.142 8.956 3.585 2.09 3.748 4.072.759 6.92-2.735 2.607-5.515 5.188-8.473 7.53-2.26 1.79-2.597 3.723-1.558 6.228 1.983 4.778 4.04 9.533 5.794 14.395 1.64 4.546 1.218 5.043-3.555 6.28-3.516.914-7.076 1.687-10.056 4.012-1.937 1.512-1.837 2.576.392 3.58 4.217 1.9 8.493 1.228 12.81.498 3.395-.831 6.775-1.737 10.192-2.47Zm-24.812 6.917c-5.883-2.144-6.9-7.621-2.19-11.735 2.823-2.467 6.312-3.597 9.74-4.783 2.478-.857 3.355-1.947 2.145-4.599-2.15-4.702-3.885-9.595-6.03-14.301-.988-2.166-.676-3.753 1.027-5.186 2.778-2.34 5.479-4.795 8.429-6.9 2.47-1.76 2.099-2.737-.298-4.058-3.306-1.825-6.577-3.743-9.696-5.865-2.73-1.858-4.022-1.738-5.33 1.724-3.421 9.055-6.362 18.219-8.27 27.71-.397 1.984-.766 4.336-3.627 3.065-9.76-4.333-19.215-9.2-26.375-17.455-3.129-3.607-2.073-7.558 2.406-9.226 3.657-1.362 7.46-1.495 11.129-.216 2.705.943 3.709.28 4.154-2.54 1.034-6.542 2.428-13.028 3.553-19.558.676-3.916 2.483-5.976 6.803-5.525 3.485.364 6.976-.304 10.438-.86 1.372-.22 2.292-.606 2.53-2.216 1.05-7.097 3.748-13.75 5.682-20.61 1.094-3.88.914-7.498-.435-11.428-2.734-7.96-6.37-15.533-9.298-23.395-2.417-6.49-2.188-7.125 2.982-11.481 2.46-2.073 4.94-4.13 7.536-6.024 2.403-1.751 3.976-3.865 4.204-6.902.286-3.813 1.894-6.802 5.802-7.84 4.164-1.108 7.363.717 9.89 3.92 2.372 3.01 3.54 6.614 5.069 10.071 1.904 4.307.56 6.704-3.35 8.675-3.236 1.631-6.274 3.677-9.312 5.675-2.279 1.497-3.147 3.28-1.197 5.913 1.905 2.572 3.491 5.403 5.017 8.228 1.357 2.511 2.93 3.38 6.016 2.946 9.819-1.38 18.716.088 23.345 10.408 1.17 2.61 2.866 2.367 4.712 1.582 2.193-.934 1.98-2.72 1.039-4.553-2.4-4.679-4.783-9.367-7.171-14.053-2.388-4.69-4.552-9.472-9.325-12.476-1.893-1.192-2.917-3.332-2.414-5.827.777-3.849 3.803-6.01 6.935-6.971 2.658-.817 6.232-.374 8.432 1.866 3.747 3.813 6.96 8.103 9.535 12.854 4.582 8.447 7.77 17.622 13.635 25.412 1.86 2.472 1.924 5.439-.298 8.125-6.153 7.437-12.17 14.999-19.36 21.495-1.37 1.24-1.882 2.53-1.668 4.413.59 5.184.259 10.36-.917 15.444-3.283 14.181-11.818 24.21-24.77 30.47-3.526 1.704-4.894 3.534-3.435 7.44 2.398 6.415 2.884 13.382 5.505 19.77 1.164 2.834.04 4.913-2.942 5.85-4.673 1.467-9.3 3.11-14.175 3.825-6.333 1.043-12.442.927-15.807-.298Z"/><path fill="#fec400" d="M69.463 374.383c3.323 1.405 6.624 2.754 10.366 2.03 1.978-.38 2.26-1.215.994-2.795-1.948-2.43-4.657-3.725-7.303-5.124-3.592-1.898-3.835-2.376-1.658-5.71 2.33-3.566 4.88-6.99 7.376-10.444 1.308-1.811 1.405-3.425-.068-5.289-1.927-2.439-3.666-5.037-5.365-7.645-1.857-2.85-1.35-4.409 1.92-5.403 4.851-1.477 9.808-2.602 14.642-4.12 4.258-1.337 4.755-1.217 5.368 3.154 1.074 7.656 1.946 15.332 1.894 23.08-.01 1.482-.069 2.809 2.132 2.513 5.882-.79 11.51-2.466 16.756-5.176 2.57-1.327 2.27-3.246-.376-4.49-2.522-1.186-5.218-.943-7.837-.735-2.51.199-3.282-.737-3.154-3.137.311-5.87.299-11.762.76-17.62.234-2.989-.981-4.127-3.636-4.745-2.912-.677-5.767-1.629-8.607-2.58-1.183-.395-2.243-.945-2.237-2.64.03-8.412-.047-16.826-.109-25.239-.015-2.053.72-3.765 1.92-5.418 4.133-5.688 8.098-11.5 12.283-17.148 2.02-2.724 2.192-4.969-.236-7.585-2.265-2.441-4.088-5.287-6.195-7.883-1.597-1.968-2.847-3.908-1.556-6.561.502-1.03.28-2.043-.764-2.722-1.017-.662-2.11-1.079-3.228-.33-2.02 1.351-3.955 2.826-5.16 5.012-1.143 2.077-1.44 3.918.665 5.84 2.709 2.478 5.027 5.377 7.628 7.979 1.767 1.766 1.723 3.243-.023 4.987-3.016 3.013-5.92 6.138-8.867 9.219-1.296 1.354-1.765 2.648-.807 4.611 1.787 3.663 1.142 7.435-.487 11.032-.63 1.392-1.68 3.015-3.331 2.308-2.016-.862-.714-2.428-.089-3.77 2.408-5.175.912-10.674-3.85-13.21-4.01-2.136-8.368-2.474-12.654-.82-4.553 1.76-6.153 5.628-4.629 10.298 1.102 3.373 3.375 5.617 6.514 7.038 1.25.565 2.032 1.708 1.614 2.672-.426.987-1.89 1.138-3.083.717-3.777-1.338-7.109-3.163-8.131-7.492-.89-3.767-2.507-6.893-6.071-9.015-2.683-1.596-3.039-3.863-.654-6.514 3.918-4.356 7.365-9.142 11.358-13.423 2.09-2.24 3.477-5.388 6.935-6.222 2.039-.49 4.012-1.76 3.226-4.028-.773-2.235-2.904-3.521-5.538-3.049-2.319.417-4.377 1.629-5.875 3.29-6.242 6.92-12.316 13.995-18.437 21.023-1.342 1.54-1.387 3.133-.67 5.108 2.083 5.74 5.328 10.828 8.319 16.088 1.425 2.507 4.602 4.399 3.623 8.007-.57 2.104-1.219 4.187-1.862 6.27-3.881 12.565 1.876 28.306 12.903 35.255 3.907 2.462 4.184 3.745 1.863 7.908-2.636 4.728-5.696 9.216-7.757 14.275-.877 2.154-.564 3.454 1.542 4.455 2.6 1.235 5.138 2.603 7.703 3.913m-1.851 3.58c-3.774-1.499-7.172-3.693-10.64-5.756-2.214-1.316-2.72-3.196-1.25-5.248 3.314-4.625 5.025-10.119 8.164-14.808 1.91-2.855 1.16-4.582-1.341-6.617-9.2-7.477-14.14-17.137-14.081-29.13.02-4.3.736-8.512 2.193-12.557.529-1.47.364-2.601-.5-3.856-4.535-6.572-7.922-13.776-11.446-20.908-1.273-2.574-.658-4.941 1.302-6.57 6.18-5.133 10.477-11.886 15.754-17.79a47.2 47.2 0 0 1 10.082-8.498c2.19-1.379 5.14-1.055 7.116.104 2.33 1.364 4.345 3.67 4.238 6.905-.07 2.096-1.296 3.618-3.04 4.214-4.398 1.504-7.04 4.926-9.845 8.234-2.802 3.306-5.603 6.612-8.414 9.909-1.103 1.291-1.614 2.682-.03 3.848 1.329.98 2.643 1.496 4.078-.375 5.67-7.398 13.081-6.886 20.691-3.917 2.393.933 3.82.535 5.383-1.222 1.76-1.975 3.568-3.944 5.584-5.645 2.063-1.74 1.705-3.335.162-4.969-2.057-2.177-4.105-4.394-6.39-6.316-2.762-2.322-3.385-4.498-1.04-7.59 1.881-2.482 3.501-5.151 5.975-7.114 2.632-2.09 5.544-2.946 8.673-1.268 2.936 1.574 3.659 4.275 3.164 7.387-.393 2.48.468 4.472 2.061 6.332 1.722 2.01 3.323 4.131 4.9 6.26 3.32 4.473 3.383 5.025.214 9.77-3.839 5.749-8.192 11.132-11.893 16.996-1.828 2.894-2.659 5.762-2.517 9.081.25 5.867 1.15 11.714.647 17.602-.115 1.336.55 1.82 1.607 2.258 2.67 1.102 5.343 2.3 8.207 2.669 3.55.457 4.607 2.452 4.406 5.721-.336 5.45-.45 10.914-.86 16.355-.178 2.347.5 3.07 2.848 2.826 3.186-.33 6.208.497 8.883 2.283 3.275 2.188 3.372 5.556.179 7.855-7.307 5.26-15.812 7.37-24.46 8.992-2.534.476-2.384-1.48-2.327-3.146.272-7.972-.348-15.878-1.374-23.786-.392-3.025-1.405-3.366-3.946-2.395-2.904 1.11-5.89 2.028-8.887 2.863-2.172.606-2.655 1.32-1.01 3.2 1.968 2.245 3.667 4.727 5.451 7.13 1.093 1.473 1.042 2.804-.161 4.353-2.613 3.366-4.932 6.96-7.548 10.324-1.473 1.896-.977 2.936.849 4.094 2.523 1.6 5.106 3.17 6.901 5.682 2.995 4.192 1.142 8.392-3.982 8.993-2.93.345-7.85-.721-12.73-2.759"/><path fill="none" stroke="#fec400" stroke-miterlimit="10" stroke-width="1.99992" d="M69.463 374.383c3.323 1.405 6.624 2.754 10.366 2.03 1.978-.38 2.26-1.215.994-2.795-1.948-2.43-4.657-3.725-7.303-5.124-3.592-1.898-3.835-2.376-1.658-5.71 2.33-3.566 4.88-6.99 7.376-10.444 1.308-1.811 1.405-3.425-.068-5.289-1.927-2.439-3.666-5.037-5.365-7.645-1.857-2.85-1.35-4.409 1.92-5.403 4.851-1.477 9.808-2.602 14.642-4.12 4.258-1.337 4.755-1.217 5.368 3.154 1.074 7.656 1.946 15.332 1.894 23.08-.01 1.482-.069 2.809 2.132 2.513 5.882-.79 11.51-2.466 16.756-5.176 2.57-1.327 2.27-3.246-.376-4.49-2.522-1.186-5.218-.943-7.837-.735-2.51.199-3.282-.737-3.154-3.137.311-5.87.299-11.762.76-17.62.234-2.989-.981-4.127-3.636-4.745-2.912-.677-5.767-1.629-8.607-2.58-1.183-.395-2.243-.945-2.237-2.64.03-8.412-.047-16.826-.109-25.239-.015-2.053.72-3.765 1.92-5.418 4.133-5.688 8.098-11.5 12.283-17.148 2.02-2.724 2.192-4.969-.236-7.585-2.265-2.441-4.088-5.287-6.195-7.883-1.597-1.968-2.847-3.908-1.556-6.561.502-1.03.28-2.043-.764-2.722-1.017-.662-2.11-1.079-3.228-.33-2.02 1.351-3.955 2.826-5.16 5.012-1.143 2.077-1.44 3.918.665 5.84 2.709 2.478 5.027 5.377 7.628 7.979 1.767 1.766 1.723 3.243-.023 4.987-3.016 3.013-5.92 6.138-8.867 9.219-1.296 1.354-1.765 2.648-.807 4.611 1.787 3.663 1.142 7.435-.487 11.032-.63 1.392-1.68 3.015-3.331 2.308-2.016-.862-.714-2.428-.089-3.77 2.408-5.175.912-10.674-3.85-13.21-4.01-2.136-8.368-2.474-12.654-.82-4.553 1.76-6.153 5.628-4.629 10.298 1.102 3.373 3.375 5.617 6.514 7.038 1.25.565 2.032 1.708 1.614 2.672-.426.987-1.89 1.138-3.083.717-3.777-1.338-7.109-3.163-8.131-7.492-.89-3.767-2.507-6.893-6.071-9.015-2.683-1.596-3.039-3.863-.654-6.514 3.918-4.356 7.365-9.142 11.358-13.423 2.09-2.24 3.477-5.388 6.935-6.222 2.039-.49 4.012-1.76 3.226-4.028-.773-2.235-2.904-3.521-5.538-3.049-2.319.417-4.377 1.629-5.875 3.29-6.242 6.92-12.316 13.995-18.437 21.023-1.342 1.54-1.387 3.133-.67 5.108 2.083 5.74 5.328 10.828 8.319 16.088 1.425 2.507 4.602 4.399 3.623 8.007-.57 2.104-1.219 4.187-1.862 6.27-3.881 12.565 1.876 28.306 12.903 35.255 3.907 2.462 4.184 3.745 1.863 7.908-2.636 4.728-5.696 9.216-7.757 14.275-.877 2.154-.564 3.454 1.542 4.455 2.6 1.235 5.138 2.603 7.703 3.913Zm-1.851 3.58c-3.774-1.499-7.172-3.693-10.64-5.756-2.214-1.316-2.72-3.196-1.25-5.248 3.314-4.625 5.025-10.119 8.164-14.808 1.91-2.855 1.16-4.582-1.341-6.617-9.2-7.477-14.14-17.137-14.081-29.13.02-4.3.736-8.512 2.193-12.557.529-1.47.364-2.601-.5-3.856-4.535-6.572-7.922-13.776-11.446-20.908-1.273-2.574-.658-4.941 1.302-6.57 6.18-5.133 10.477-11.886 15.754-17.79a47.2 47.2 0 0 1 10.082-8.498c2.19-1.379 5.14-1.055 7.116.104 2.33 1.364 4.345 3.67 4.238 6.905-.07 2.096-1.296 3.618-3.04 4.214-4.398 1.504-7.04 4.926-9.845 8.234-2.802 3.306-5.603 6.612-8.414 9.909-1.103 1.291-1.614 2.682-.03 3.848 1.329.98 2.643 1.496 4.078-.375 5.67-7.398 13.081-6.886 20.691-3.917 2.393.933 3.82.535 5.383-1.222 1.76-1.975 3.568-3.944 5.584-5.645 2.063-1.74 1.705-3.335.162-4.969-2.057-2.177-4.105-4.394-6.39-6.316-2.762-2.322-3.385-4.498-1.04-7.59 1.881-2.482 3.501-5.151 5.975-7.114 2.632-2.09 5.544-2.946 8.673-1.268 2.936 1.574 3.659 4.275 3.164 7.387-.393 2.48.468 4.472 2.061 6.332 1.722 2.01 3.323 4.131 4.9 6.26 3.32 4.473 3.383 5.025.214 9.77-3.839 5.749-8.192 11.132-11.893 16.996-1.828 2.894-2.659 5.762-2.517 9.081.25 5.867 1.15 11.714.647 17.602-.115 1.336.55 1.82 1.607 2.258 2.67 1.102 5.343 2.3 8.207 2.669 3.55.457 4.607 2.452 4.406 5.721-.336 5.45-.45 10.914-.86 16.355-.178 2.347.5 3.07 2.848 2.826 3.186-.33 6.208.497 8.883 2.283 3.275 2.188 3.372 5.556.179 7.855-7.307 5.26-15.812 7.37-24.46 8.992-2.534.476-2.384-1.48-2.327-3.146.272-7.972-.348-15.878-1.374-23.786-.392-3.025-1.405-3.366-3.946-2.395-2.904 1.11-5.89 2.028-8.887 2.863-2.172.606-2.655 1.32-1.01 3.2 1.968 2.245 3.667 4.727 5.451 7.13 1.093 1.473 1.042 2.804-.161 4.353-2.613 3.366-4.932 6.96-7.548 10.324-1.473 1.896-.977 2.936.849 4.094 2.523 1.6 5.106 3.17 6.901 5.682 2.995 4.192 1.142 8.392-3.982 8.993-2.93.345-7.85-.721-12.73-2.759Z"/><use xlink:href="#ag" fill="#fff" data-text="2" transform="matrix(14.69986 0 0 -14.69986 22.602 400.972)"/><use xlink:href="#ah" fill="#fff" data-text="8" transform="matrix(14.69986 0 0 -14.69986 30.922 400.972)"/></g></svg>