<svg xmlns="http://www.w3.org/2000/svg" xmlns:xlink="http://www.w3.org/1999/xlink" width="297.636" height="419.526"><defs><path id="c" d="M.032.354q0 .105.044.185.044.082.123.128.08.045.184.045a.35.35 0 0 0 .222-.07A.32.32 0 0 0 .721.45h-.21a.14.14 0 0 1-.053.061.14.14 0 0 1-.078.021.13.13 0 0 1-.108-.049.2.2 0 0 1-.04-.129q0-.082.04-.13A.13.13 0 0 1 .38.174q.044 0 .078.021.033.02.052.061h.211A.32.32 0 0 0 .605.065a.35.35 0 0 0-.222-.07Q.28-.005.2.04a.3.3 0 0 0-.123.127.4.4 0 0 0-.044.187"/><path id="d" d="M.502.115h-.25L.214 0H.008l.257.705h.226L.747 0H.54zm-.049.15L.377.493.302.265z"/><path id="e" d="M.613.47a.23.23 0 0 0-.03-.116A.2.2 0 0 0 .496.27.3.3 0 0 0 .349.238H.252V0H.056v.705h.293q.085 0 .145-.03t.09-.083A.24.24 0 0 0 .613.47M.33.394q.083 0 .083.076 0 .077-.083.077H.252V.394z"/><path id="f" d="M.252.705V0H.056v.705z"/><path id="g" d="M.587.705V.55H.399V0H.203v.55H.017v.155z"/><path id="h" d="M.394-.007a.37.37 0 0 0-.182.046.35.35 0 0 0-.131.13.36.36 0 0 0-.049.186q0 .104.049.186A.34.34 0 0 0 .212.67q.083.046.182.046A.37.37 0 0 0 .576.67a.34.34 0 0 0 .13-.129.36.36 0 0 0 .049-.186.36.36 0 0 0-.048-.186.34.34 0 0 0-.131-.13.37.37 0 0 0-.182-.046m0 .182q.076 0 .118.049a.2.2 0 0 1 .044.131q0 .084-.044.132a.15.15 0 0 1-.118.049.15.15 0 0 1-.119-.049.2.2 0 0 1-.043-.132q0-.083.043-.132A.15.15 0 0 1 .394.175"/><path id="i" d="M.252.15h.219V0H.056v.705h.196z"/><path id="j" d="M.248.705V.296q0-.057.027-.088Q.3.178.355.177q.054 0 .082.031.027.032.027.088v.409H.66V.296A.3.3 0 0 0 .62.13.26.26 0 0 0 .507.027.35.35 0 0 0 .35-.007a.33.33 0 0 0-.153.034.25.25 0 0 0-.106.103.33.33 0 0 0-.039.166v.409z"/><path id="k" d="M0 0"/><path id="l" d="M.033.157q.097.075.16.131a.7.7 0 0 1 .103.114.2.2 0 0 1 .042.111.08.08 0 0 1-.014.05Q.309.581.28.581A.05.05 0 0 1 .236.557.13.13 0 0 1 .221.485h-.19q.003.09.04.148a.2.2 0 0 0 .093.086.3.3 0 0 0 .13.027q.122 0 .182-.061.06-.06.06-.158a.3.3 0 0 0-.07-.195.8.8 0 0 0-.173-.163h.25v-.16h-.51z"/><path id="m" d="m.587 0-.05.046a.4.4 0 0 0-.22-.056.4.4 0 0 0-.15.027.2.2 0 0 0-.097.076.2.2 0 0 0-.034.114q0 .06.032.111a.25.25 0 0 0 .094.086.181.181 0 0 0-.018.219q.03.045.084.071.055.027.13.027Q.437.72.49.693a.185.185 0 0 0 .108-.17H.396q0 .02-.011.03a.04.04 0 0 1-.026.009.04.04 0 0 1-.028-.01A.03.03 0 0 1 .32.526q0-.033.044-.074l.16-.156q.014.027.026.06l.003.01h.215L.758.34A.8.8 0 0 0 .664.162L.83 0zM.333.165Q.369.165.4.176l-.118.11A.1.1 0 0 1 .257.258.1.1 0 0 1 .248.227q0-.026.022-.044A.1.1 0 0 1 .333.165"/><path id="n" d="M.606.708V.532H.418V0H.196v.532H.01v.176z"/><path id="o" d="M.406 0 .273.254H.272V0H.05v.708h.33q.085 0 .147-.03A.21.21 0 0 0 .649.476.2.2 0 0 0 .609.35.22.22 0 0 0 .496.271L.65 0zM.272.402H.36q.032 0 .048.015t.016.045a.06.06 0 0 1-.017.044Q.391.522.36.522H.272z"/><path id="p" d="M.272.708V0H.05v.708z"/><path id="q" d="M.03.355a.4.4 0 0 0 .042.187.3.3 0 0 0 .122.127q.08.046.186.046A.4.4 0 0 0 .544.68.3.3 0 0 0 .662.583.35.35 0 0 0 .723.436H.489A.12.12 0 0 1 .376.51.1.1 0 0 1 .288.468.18.18 0 0 1 .255.355.18.18 0 0 1 .288.242.1.1 0 0 1 .376.2a.12.12 0 0 1 .113.074h.234a.35.35 0 0 0-.06-.147A.3.3 0 0 0 .543.03.4.4 0 0 0 .38-.005a.37.37 0 0 0-.186.046.3.3 0 0 0-.122.127.4.4 0 0 0-.042.187"/><path id="r" d="M.478 0 .272.307V0H.05v.708h.222V.41l.203.298h.25L.483.369.742 0z"/><path id="s" d="M.327-.007a.35.35 0 0 0-.21.06.22.22 0 0 0-.089.174h.236Q.27.167.318.166q.02 0 .031.009Q.362.183.362.2q0 .025-.027.04A1 1 0 0 1 .25.278a1 1 0 0 0-.113.047.2.2 0 0 0-.077.067.2.2 0 0 0-.03.113q0 .069.035.117a.2.2 0 0 0 .097.074A.4.4 0 0 0 .3.72q.13 0 .207-.06a.21.21 0 0 0 .08-.17H.35Q.348.52.335.535A.05.05 0 0 1 .3.547a.03.03 0 0 1-.023-.01.04.04 0 0 1-.009-.026q0-.025.027-.04A1 1 0 0 1 .379.434 1 1 0 0 0 .49.386.2.2 0 0 0 .566.322.16.16 0 0 0 .598.219.2.2 0 0 0 .566.102a.2.2 0 0 0-.094-.08.34.34 0 0 0-.145-.029"/><clipPath id="a"><path fill-rule="evenodd" d="M0 419.526h297.636V0H0Z"/></clipPath><clipPath id="b"><path d="M-297.635 425.659h605.44V-6.132h-605.44Z"/></clipPath></defs><g clip-path="url(#a)" data-name="Layer 1"><g clip-path="url(#b)"><path fill="#2f4ab1" d="M91.124 117.26c14.798-.237 101.38-38.476 108.746-48.057-43.762 2.525-76.316 25.126-108.746 48.057M-37.012 303.208c5.584 0 11.167.024 16.75-.012 2.179-.014 4.628-.003 5.707-2.22 1.557-3.203-1.65-4.204-3.369-5.63-11.536-9.574-21.11-20.662-27.04-34.424-2.31-5.365-5.445-6.533-10.87-4.431-16.218 6.283-31.664 13.85-45.3 24.69-3.111 2.475-7.525 4.638-6.114 9.267 1.235 4.05 5.735 5.05 9.61 6.22 19.78 5.974 40.287 5.765 60.626 6.54m100.47-72.18c-17.86 1.37-35.86 2.45-53.46 6.65-3.098.738-7.522-.84-8.838 3.406-1.35 4.352 1.795 7.268 4.46 10.393 12.229 14.347 28.857 19.87 46.774 21.664 22.382 2.24 44.05-.796 62.931-14.04 7.24-5.079 6.949-10.945.045-16.37-2.386-1.874-5.196-3.34-8.008-4.555-13.965-6.033-28.89-6.454-43.903-7.147M-219.091-5.933h52.241c5.198 8.035 13.012 12.984 21.619 16.462 32.68 13.207 66.945 15.019 101.638 12.643 15.51-1.064 31.022-2.343 46.555-1.8 19.5.684 32.573 13.23 31.741 29.908-.471 9.422-5.618 16.694-12.54 22.666-15.505 13.382-33.56 22.962-51.412 32.831-53.529 29.585-108.375 56.952-159.151 91.176-17.7 11.93-34.848 24.612-48.59 41.056-8.955 10.715-6.147 17.744 7.774 20.44 11.754 2.276 22.774-.672 33.637-4.724 31.043-11.584 58.092-29.963 84.865-48.69C-54.307 166.576-2.141 121.594 54.709 82.71c33.396-22.84 67.284-44.923 107.072-55.888 25.38-6.996 50.39-7.373 73.757 6.715 14.168 8.542 24.603 19.824 23.47 37.67-.996 15.7-10.402 26.42-22.81 34.865-25.978 17.685-55.324 28.634-84.258 40.451-24.129 9.857-48.007 20.309-71.94 30.621-1.805.776-4.664 1.397-4.512 3.985.187 3.195 3.235 1.885 5.12 2.348 11.723 2.882 23.912 3.238 35.547 6.797 18.866 5.772 34.7 15.765 45.208 32.33 9.138 14.409 11.224 30.151 5.2 46.536-1.102 2.995-2.749 8.394 2.35 7.602 9.636-1.498 21.236-.74 28.155-7.923 16.433-17.06 36.93-17.14 57.831-15.765 17.313 1.14 27.019 18.988 19.965 34.486-2.841 6.241-7.18 10.87-13.408 13.275-8.352 3.228-8.249 7.307-3.127 13.552 4.468 5.449 8.436 11.363 12.067 17.396 14.45 24.006 26.97 48.707 30.074 77.117.602 5.531-.847 12.214 4.725 16.604h-50.378c-1.927-8.937-3.304-18.03-5.89-26.78-8.202-27.783-25.467-50.62-42.147-73.802-3.703-5.146-6.88-6.089-13.092-4.59-35.274 8.504-71.035 14.8-106.908 20.19-34.975 5.254-70.225 8.82-105.589 10.168-32.302 1.233-64.629.77-95.828-9.49-17.998-5.921-33.227-15.645-40.614-33.557-6.464-15.675-5.826-15.93-21.628-9.235-.282.12-.51.373-.795.474-28.912 10.088-57.363 14.339-85.877-2.281-24.425-14.238-34.507-42.595-22.917-67.899 11.421-24.932 31.975-41.713 53.304-57.56 46.148-34.283 97.273-60.58 147.661-88.047 4.67-2.546 13.65-4.313 12.64-8.865-1.344-6.05-10.094-3.69-15.514-3.932-33.649-1.514-65.938-7.879-94.506-26.301-18.387-11.856-32.14-27.66-36.209-49.91"/><path fill="#202b6d" d="M-219.092-5.933c4.069 22.25 17.823 38.054 36.21 49.91 28.566 18.422 60.856 24.787 94.505 26.301 5.42.243 14.17-2.119 15.513 3.932 1.013 4.552-7.968 6.319-12.639 8.865-50.387 27.468-101.512 53.764-147.661 88.048-21.327 15.846-41.885 32.627-53.304 57.559-11.59 25.304-1.51 53.661 22.917 67.899 28.514 16.62 56.964 12.37 85.877 2.28.286-.1.513-.354.795-.473 15.802-6.695 15.165-6.44 21.629 9.235 7.386 17.912 22.616 27.636 40.612 33.556 31.2 10.262 63.527 10.724 95.83 9.492 35.364-1.35 70.613-4.915 105.588-10.169 35.874-5.39 71.634-11.686 106.91-20.19 6.21-1.499 9.388-.556 13.091 4.59 16.68 23.183 33.941 46.019 42.147 73.803 2.585 8.748 3.96 17.842 5.892 26.779-181.605 0-363.208-.043-544.812.175-6.388.008-7.653-1.232-7.643-7.518q.353-208.365 0-416.73c-.01-6.288 1.233-7.665 7.646-7.533 23.625.48 47.263.19 70.897.19"/><path fill="#202b6d" d="M305.195 425.484c-5.572-4.391-4.123-11.074-4.728-16.603-3.1-28.41-15.621-53.112-30.074-77.119-3.63-6.033-7.596-11.946-12.064-17.394-5.122-6.246-5.225-10.326 3.127-13.553 6.228-2.406 10.567-7.034 13.408-13.275 7.054-15.498-2.652-33.348-19.965-34.486-20.901-1.375-41.398-1.295-57.831 15.765-6.919 7.183-18.52 6.424-28.156 7.922-5.098.792-3.451-4.606-2.35-7.602 6.024-16.385 3.94-32.126-5.2-46.535-10.508-16.565-26.343-26.558-45.207-32.329-11.635-3.56-23.825-3.915-35.548-6.797-1.885-.464-4.932.846-5.12-2.35-.152-2.587 2.708-3.208 4.512-3.986 23.933-10.313 47.812-20.762 71.94-30.619 28.934-11.817 58.28-22.766 84.26-40.451 12.407-8.446 21.813-19.164 22.809-34.865 1.133-17.846-9.302-29.13-23.47-37.672-23.367-14.086-48.376-13.709-73.758-6.713C121.993 37.787 88.104 59.867 54.708 82.71c-56.85 38.882-109.016 83.867-165.422 123.323-26.773 18.728-53.823 37.107-84.866 48.69-10.862 4.054-21.884 7.002-33.636 4.726-13.92-2.695-16.729-9.726-7.774-20.44 13.742-16.443 30.89-29.125 48.589-41.056 50.777-34.224 105.622-61.591 159.151-91.178 17.853-9.867 35.908-19.447 51.413-32.827 6.922-5.974 12.069-13.246 12.538-22.668.834-16.677-12.24-29.227-31.74-29.908-15.532-.543-31.044.736-46.555 1.797-34.692 2.379-68.96.567-101.637-12.64-8.607-3.478-16.42-8.427-21.619-16.462 155.482 0 310.965.02 466.446-.089 5.026-.004 7.683-.232 7.67 6.516-.273 139.52-.187 279.042-.398 418.563-.005 1.883 2.974 5.416-1.673 6.427"/><path fill="#202b6d" d="M63.458 231.029c15.015.693 29.939 1.114 43.903 7.147 2.813 1.215 5.623 2.681 8.008 4.555 6.904 5.425 7.197 11.291-.044 16.37-18.882 13.245-40.548 16.28-62.93 14.04-17.919-1.794-34.546-7.317-46.777-21.664-2.663-3.125-5.81-6.041-4.46-10.393 1.318-4.246 5.742-2.668 8.84-3.407 17.6-4.199 35.6-5.279 53.46-6.648M91.124 117.26c32.43-22.931 64.984-45.532 108.746-48.057-7.367 9.58-93.948 47.82-108.746 48.057"/></g><path fill="none" stroke="#f3f2f7" stroke-miterlimit="10" stroke-opacity=".5" stroke-width="1.0000799999999999" d="M34.62 42.652q0 3.91 1.593 6.943 1.59 3.037 4.521 4.73 2.93 1.696 6.738 1.695 4.831 0 8.128-2.625 3.295-2.624 4.247-7.13h-7.725q-.697 1.487-1.923 2.27-1.227.781-2.837.782-2.49 0-3.973-1.805-1.484-1.808-1.483-4.86 0-3.017 1.483-4.824 1.482-1.804 3.973-1.805 1.61 0 2.837.78 1.225.785 1.923 2.273h7.725q-.951-4.506-4.247-7.132-3.297-2.625-8.128-2.626-3.808 0-6.738 1.697-2.93 1.693-4.521 4.728-1.594 3.035-1.593 6.91ZM80.973 55.835h7.58L79.179 29.58h-8.274l-9.411 26.255h7.543l1.391-4.284h9.154zm-8.714-9.87 2.746-8.49 2.783 8.49zM111.29 38.332q0-2.57-1.1-4.543-1.098-1.975-3.276-3.091-2.18-1.119-5.29-1.118H90.894v26.255h7.176v-8.863h3.552q3.15 0 5.328-1.173 2.177-1.175 3.258-3.13t1.08-4.337Zm-10.362 2.83h-2.857v-5.698h2.857q3.038 0 3.039 2.868 0 2.83-3.039 2.83ZM114.182 55.835h7.176V29.581h-7.176ZM124.03 29.58v5.81h6.81v20.445h7.176V35.39h6.884v-5.81zM159.948 56.094q3.626 0 6.665-1.73 3.038-1.73 4.796-4.805 1.76-3.069 1.759-6.945 0-3.87-1.76-6.946-1.757-3.071-4.776-4.785-3.022-1.712-6.684-1.714c-2.416 0-4.638.574-6.663 1.714q-3.039 1.714-4.816 4.785-1.774 3.075-1.774 6.946 0 3.876 1.774 6.945 1.777 3.074 4.816 4.805t6.663 1.73Zm0-6.777q-2.781.001-4.355-1.805-1.576-1.807-1.576-4.898 0-3.128 1.576-4.935 1.574-1.803 4.355-1.804 2.746 0 4.34 1.804 1.592 1.808 1.593 4.935 0 3.053-1.593 4.879-1.594 1.825-4.34 1.824ZM183.564 29.58h-7.176v26.255h15.195v-5.587h-8.019zM194.256 29.58v15.232q0 3.65 1.41 6.18 1.41 2.535 3.88 3.818 2.472 1.285 5.621 1.284t5.73-1.284q2.582-1.285 4.083-3.835 1.502-2.552 1.502-6.163V29.58h-7.177v15.232q0 2.086-1.007 3.257-1.007 1.173-2.984 1.174t-2.948-1.155q-.97-1.155-.97-3.276V29.58zM227.61 29.58h-7.175v26.255h15.195v-5.587h-8.02zM244.562 49.989v5.472h18.675v-5.92h-9.154q3.809-2.681 6.353-6.07 2.545-3.387 2.544-7.263 0-3.61-2.196-5.882-2.2-2.272-6.7-2.273-2.603 0-4.724 1.025c-1.416.682-2.566 1.75-3.442 3.202q-1.318 2.18-1.43 5.493h6.957q-.036-1.75.55-2.662c.391-.607.938-.914 1.649-.914q1.024.002 1.555.672t.53 1.862c0 1.316-.51 2.698-1.538 4.152q-1.538 2.178-3.806 4.227c-1.512 1.365-3.456 2.993-5.823 4.879ZM34.62 76.165q0 3.913 1.593 6.946c1.06 2.026 2.568 3.6 4.521 4.73q2.93 1.695 6.738 1.695 4.831 0 8.128-2.626 3.295-2.625 4.247-7.133h-7.725q-.697 1.491-1.923 2.273-1.227.782-2.837.783-2.49 0-3.973-1.808-1.484-1.803-1.483-4.86 0-3.013 1.483-4.821 1.482-1.806 3.973-1.805 1.61 0 2.837.78 1.225.785 1.923 2.273h7.725q-.951-4.505-4.247-7.133-3.297-2.625-8.128-2.625-3.808 0-6.738 1.696-2.93 1.694-4.521 4.728-1.594 3.039-1.593 6.907ZM80.973 89.349h7.58l-9.374-26.254h-8.274L61.494 89.35h7.543l1.391-4.282h9.154zm-8.714-9.87 2.746-8.488 2.783 8.489zM111.29 71.846q0-2.568-1.1-4.544-1.098-1.972-3.276-3.088-2.18-1.12-5.29-1.119H90.894V89.35h7.176v-8.864h3.552q3.15.001 5.328-1.17 2.177-1.175 3.258-3.13t1.08-4.34Zm-10.362 2.831h-2.857V68.98h2.857q3.038 0 3.039 2.866 0 2.832-3.039 2.831ZM114.182 89.349h7.176V63.095h-7.176ZM124.03 63.095v5.81h6.81V89.35h7.176V68.906h6.884v-5.81zM159.948 89.61q3.626.001 6.665-1.733 3.038-1.73 4.796-4.802 1.76-3.073 1.759-6.946 0-3.87-1.76-6.945-1.757-3.072-4.776-4.783-3.022-1.715-6.684-1.716-3.625 0-6.663 1.716-3.039 1.711-4.816 4.783-1.774 3.076-1.774 6.945 0 3.873 1.774 6.946 1.777 3.072 4.816 4.802 3.038 1.734 6.663 1.733Zm0-6.777c-1.853 0-3.307-.6-4.355-1.808q-1.576-1.803-1.576-4.896 0-3.128 1.576-4.934 1.574-1.804 4.355-1.805 2.746.001 4.34 1.805 1.592 1.807 1.593 4.934 0 3.054-1.593 4.88-1.594 1.824-4.34 1.824ZM183.564 63.095h-7.176V89.35h15.195v-5.585h-8.019zM194.256 63.095v15.23q0 3.652 1.41 6.183 1.41 2.534 3.88 3.818 2.472 1.285 5.621 1.284t5.73-1.284q2.582-1.286 4.083-3.835 1.502-2.552 1.502-6.166v-15.23h-7.177v15.23q0 2.087-1.007 3.26t-2.984 1.173q-1.978 0-2.948-1.154-.97-1.155-.97-3.279v-15.23zM227.61 63.095h-7.175V89.35h15.195v-5.585h-8.02zM244.562 83.502v5.475h18.675v-5.919h-9.154q3.809-2.683 6.353-6.072 2.545-3.386 2.544-7.262 0-3.61-2.196-5.885-2.2-2.269-6.7-2.27-2.603.001-4.724 1.025c-1.416.684-2.566 1.75-3.442 3.201q-1.318 2.182-1.43 5.494h6.957q-.036-1.751.55-2.662c.391-.61.938-.912 1.649-.912q1.024 0 1.555.667.53.674.53 1.865c0 1.315-.51 2.698-1.538 4.152q-1.538 2.177-3.806 4.226c-1.512 1.366-3.456 2.993-5.823 4.877ZM34.62 109.684q0 3.909 1.593 6.943 1.59 3.036 4.521 4.73t6.738 1.694q4.831.001 8.128-2.625 3.295-2.624 4.247-7.133h-7.725q-.697 1.491-1.923 2.273-1.227.781-2.837.782-2.49 0-3.973-1.805-1.484-1.806-1.483-4.86 0-3.016 1.483-4.823 1.482-1.805 3.973-1.805 1.61 0 2.837.78 1.225.785 1.923 2.273h7.725q-.951-4.506-4.247-7.133-3.297-2.624-8.128-2.623-3.808 0-6.738 1.694t-4.521 4.728q-1.594 3.034-1.593 6.91ZM80.973 122.864h7.58l-9.374-26.253h-8.274l-9.411 26.253h7.543l1.391-4.281h9.154zm-8.714-9.866 2.746-8.491 2.783 8.49zM111.29 105.364q0-2.569-1.1-4.544-1.098-1.974-3.276-3.09-2.18-1.117-5.29-1.117H90.894v26.254h7.176v-8.863h3.552q3.15 0 5.328-1.174 2.177-1.172 3.258-3.13 1.08-1.954 1.08-4.336Zm-10.362 2.83h-2.857v-5.696h2.857q3.038 0 3.039 2.866 0 2.83-3.039 2.83ZM114.182 122.864h7.176V96.611h-7.176ZM124.03 96.61v5.811h6.81v20.443h7.176v-20.443h6.884v-5.81zM159.948 123.126q3.626.001 6.665-1.733 3.038-1.73 4.796-4.802 1.76-3.072 1.759-6.946 0-3.87-1.76-6.945-1.757-3.073-4.776-4.784-3.022-1.714-6.684-1.716-3.625.001-6.663 1.716-3.039 1.711-4.816 4.784-1.774 3.075-1.774 6.945 0 3.874 1.774 6.946c1.185 2.05 2.79 3.648 4.816 4.802q3.038 1.734 6.663 1.733Zm0-6.778q-2.781.001-4.355-1.805-1.576-1.805-1.576-4.898 0-3.128 1.576-4.934 1.574-1.805 4.355-1.805 2.746 0 4.34 1.805 1.592 1.807 1.593 4.934 0 3.054-1.593 4.877-1.594 1.826-4.34 1.826ZM183.564 96.61h-7.176v26.254h15.195v-5.585h-8.019zM194.256 96.61v15.234q0 3.649 1.41 6.18 1.41 2.533 3.88 3.818 2.472 1.285 5.621 1.284t5.73-1.284q2.582-1.286 4.083-3.835 1.502-2.553 1.502-6.163V96.61h-7.177v15.233q0 2.085-1.007 3.256-1.007 1.174-2.984 1.174t-2.948-1.155c-.647-.767-.97-1.862-.97-3.275V96.61zM227.61 96.61h-7.175v26.254h15.195v-5.585h-8.02zM244.562 117.02v5.475h18.675v-5.924h-9.154q3.809-2.679 6.353-6.07 2.545-3.387 2.544-7.261 0-3.611-2.196-5.883-2.2-2.272-6.7-2.273-2.603 0-4.724 1.025c-1.416.684-2.566 1.75-3.442 3.202q-1.318 2.181-1.43 5.493h6.957q-.036-1.75.55-2.661c.391-.61.938-.915 1.649-.915q1.024.001 1.555.672.53.67.53 1.863c0 1.315-.51 2.697-1.538 4.152q-1.538 2.177-3.806 4.226c-1.512 1.366-3.456 2.993-5.823 4.88ZM34.62 143.197q0 3.912 1.593 6.945c1.06 2.026 2.568 3.6 4.521 4.73q2.93 1.696 6.738 1.695 4.831 0 8.128-2.625 3.295-2.625 4.247-7.13h-7.725q-.697 1.487-1.923 2.27-1.227.781-2.837.782-2.49 0-3.973-1.807-1.484-1.805-1.483-4.86 0-3.014 1.483-4.82 1.482-1.806 3.973-1.807 1.61 0 2.837.78 1.225.786 1.923 2.273h7.725q-.951-4.506-4.247-7.132-3.297-2.625-8.128-2.626-3.808 0-6.738 1.697-2.93 1.694-4.521 4.728-1.594 3.036-1.593 6.907ZM80.973 156.382h7.58l-9.374-26.253h-8.274l-9.411 26.253h7.543l1.391-4.284h9.154zm-8.714-9.868 2.746-8.492 2.783 8.492zM111.29 138.88q0-2.571-1.1-4.544-1.098-1.974-3.276-3.091-2.18-1.118-5.29-1.116H90.894v26.253h7.176v-8.863h3.552q3.15 0 5.328-1.173 2.177-1.173 3.258-3.13 1.08-1.954 1.08-4.337Zm-10.362 2.831h-2.857v-5.7h2.857q3.038.001 3.039 2.868 0 2.831-3.039 2.832ZM114.182 156.382h7.176V130.13h-7.176ZM124.03 130.127v5.81h6.81v20.443h7.176v-20.443h6.884v-5.81zM159.948 156.641q3.626 0 6.665-1.73 3.038-1.73 4.796-4.805 1.76-3.074 1.759-6.945 0-3.874-1.76-6.943-1.757-3.073-4.776-4.786-3.022-1.714-6.684-1.716-3.625.002-6.663 1.716t-4.816 4.786q-1.774 3.07-1.774 6.943t1.774 6.945q1.777 3.074 4.816 4.805t6.663 1.73Zm0-6.777q-2.781 0-4.355-1.807-1.576-1.805-1.576-4.896 0-3.126 1.576-4.935 1.574-1.805 4.355-1.804 2.746-.001 4.34 1.804 1.592 1.809 1.593 4.935 0 3.053-1.593 4.879-1.594 1.825-4.34 1.824ZM183.564 130.127h-7.176v26.253h15.195v-5.585h-8.019zM194.256 130.127v15.23q0 3.653 1.41 6.182 1.41 2.534 3.88 3.818 2.472 1.285 5.621 1.284t5.73-1.284q2.582-1.284 4.083-3.835t1.502-6.165v-15.23h-7.177v15.23q0 2.089-1.007 3.259-1.007 1.173-2.984 1.174t-2.948-1.155q-.97-1.155-.97-3.278v-15.23zM227.61 130.127h-7.175v26.253h15.195v-5.585h-8.02zM244.562 150.536v5.472h18.675v-5.92h-9.154c2.54-1.786 4.656-3.812 6.353-6.07q2.545-3.388 2.544-7.26 0-3.614-2.196-5.885-2.2-2.272-6.7-2.273-2.603.001-4.724 1.025c-1.416.684-2.566 1.75-3.442 3.202q-1.318 2.18-1.43 5.493h6.957q-.036-1.75.55-2.662c.391-.607.938-.914 1.649-.914q1.024.001 1.555.672.53.668.53 1.862c0 1.316-.51 2.698-1.538 4.152q-1.538 2.178-3.806 4.227c-1.512 1.365-3.456 2.993-5.823 4.879ZM34.62 176.712q0 3.914 1.593 6.946 1.59 3.035 4.521 4.73t6.738 1.695q4.831 0 8.128-2.625 3.295-2.625 4.247-7.133h-7.725q-.697 1.49-1.923 2.273-1.227.781-2.837.782-2.49 0-3.973-1.807-1.484-1.804-1.483-4.86 0-3.016 1.483-4.822 1.482-1.804 3.973-1.805 1.61 0 2.837.78 1.225.785 1.923 2.273h7.725c-.634-3.005-2.05-5.38-4.247-7.133q-3.297-2.624-8.128-2.623-3.808 0-6.738 1.694t-4.521 4.728q-1.594 3.039-1.593 6.907ZM80.973 189.896h7.58l-9.374-26.254h-8.274l-9.411 26.254h7.543l1.391-4.282h9.154zm-8.714-9.869 2.746-8.489 2.783 8.49zM111.29 172.393q0-2.568-1.1-4.541-1.098-1.975-3.276-3.094-2.18-1.116-5.29-1.116H90.894v26.254h7.176v-8.863h3.552q3.15 0 5.328-1.172 2.177-1.172 3.258-3.13 1.08-1.955 1.08-4.338Zm-10.362 2.831h-2.857v-5.697h2.857q3.038 0 3.039 2.866 0 2.831-3.039 2.831ZM114.182 189.896h7.176v-26.253h-7.176ZM124.03 163.642v5.81h6.81v20.444h7.176v-20.443h6.884v-5.81zM159.948 190.158q3.626 0 6.665-1.733 3.038-1.73 4.796-4.803 1.76-3.073 1.759-6.946c0-2.58-.586-4.898-1.76-6.945q-1.757-3.074-4.776-4.783-3.022-1.714-6.684-1.714-3.625 0-6.663 1.714-3.039 1.709-4.816 4.783c-1.183 2.047-1.774 4.366-1.774 6.945q0 3.873 1.774 6.946 1.777 3.074 4.816 4.803 3.038 1.733 6.663 1.733Zm0-6.778q-2.781.001-4.355-1.807-1.576-1.804-1.576-4.897 0-3.128 1.576-4.934 1.574-1.804 4.355-1.805 2.746.001 4.34 1.805 1.592 1.807 1.593 4.934 0 3.056-1.593 4.878-1.594 1.826-4.34 1.826ZM183.564 163.642h-7.176v26.254h15.195v-5.585h-8.019zM194.256 163.642v15.23q0 3.653 1.41 6.184t3.88 3.816q2.472 1.286 5.621 1.286t5.73-1.286q2.582-1.283 4.083-3.835 1.502-2.55 1.502-6.165v-15.23h-7.177v15.23q0 2.089-1.007 3.26-1.007 1.174-2.984 1.174t-2.948-1.155q-.97-1.154-.97-3.279v-15.23zM227.61 163.642h-7.175v26.254h15.195v-5.585h-8.02zM244.562 184.051v5.473h18.675v-5.92h-9.154q3.809-2.681 6.353-6.07c1.697-2.26 2.544-4.678 2.544-7.263q0-3.61-2.196-5.882-2.2-2.273-6.7-2.273-2.603-.001-4.724 1.025c-1.416.684-2.566 1.75-3.442 3.201q-1.318 2.182-1.43 5.494h6.957q-.036-1.751.55-2.662c.391-.61.938-.914 1.649-.914q1.024 0 1.555.672.53.67.53 1.862c0 1.315-.51 2.7-1.538 4.152q-1.538 2.178-3.806 4.226c-1.512 1.365-3.456 2.993-5.823 4.88ZM34.62 210.23q0 3.911 1.593 6.946 1.59 3.035 4.521 4.729 2.93 1.695 6.738 1.695 4.831 0 8.128-2.626 3.295-2.625 4.247-7.13h-7.725q-.697 1.488-1.923 2.27-1.227.783-2.837.783-2.49 0-3.973-1.807-1.484-1.805-1.483-4.86 0-3.015 1.483-4.822 1.482-1.806 3.973-1.806 1.61 0 2.837.781 1.225.783 1.923 2.273h7.725q-.951-4.506-4.247-7.133-3.297-2.625-8.128-2.625-3.808 0-6.738 1.695-2.93 1.694-4.521 4.73-1.594 3.035-1.593 6.908ZM80.973 223.413h7.58l-9.374-26.254h-8.274l-9.411 26.254h7.543l1.391-4.282h9.154zm-8.714-9.868 2.746-8.49 2.783 8.49zM111.29 205.91q0-2.568-1.1-4.543-1.098-1.973-3.276-3.09-2.18-1.118-5.29-1.118H90.894v26.254h7.176v-8.863h3.552q3.15 0 5.328-1.172 2.177-1.174 3.258-3.13 1.08-1.954 1.08-4.337Zm-10.362 2.832h-2.857v-5.698h2.857q3.038 0 3.039 2.867 0 2.83-3.039 2.83ZM114.182 223.413h7.176V197.16h-7.176ZM124.03 197.158v5.81h6.81v20.444h7.176V202.97h6.884v-5.81zM159.948 223.674q3.626 0 6.665-1.73 3.038-1.732 4.796-4.806 1.76-3.07 1.759-6.945 0-3.871-1.76-6.945-1.757-3.071-4.776-4.785-3.022-1.714-6.684-1.714-3.625 0-6.663 1.714t-4.816 4.785q-1.774 3.073-1.774 6.945 0 3.874 1.774 6.945 1.777 3.074 4.816 4.805 3.038 1.732 6.663 1.731Zm0-6.777q-2.781 0-4.355-1.807-1.576-1.805-1.576-4.897 0-3.128 1.576-4.934 1.574-1.806 4.355-1.806 2.746 0 4.34 1.806 1.592 1.807 1.593 4.934 0 3.055-1.593 4.879-1.594 1.825-4.34 1.825ZM183.564 197.158h-7.176v26.254h15.195v-5.586h-8.019zM194.256 197.158v15.232q0 3.649 1.41 6.182t3.88 3.816q2.472 1.285 5.621 1.285 3.15-.001 5.73-1.285 2.582-1.284 4.083-3.835 1.502-2.55 1.502-6.163v-15.232h-7.177v15.232q0 2.085-1.007 3.258t-2.984 1.173-2.948-1.155q-.97-1.154-.97-3.276v-15.232zM227.61 197.158h-7.175v26.254h15.195v-5.586h-8.02zM244.562 217.566v5.475h18.675v-5.922h-9.154q3.809-2.68 6.353-6.07 2.545-3.387 2.544-7.262 0-3.611-2.196-5.884-2.2-2.271-6.7-2.271-2.603 0-4.724 1.025c-1.416.682-2.566 1.75-3.442 3.201q-1.318 2.18-1.43 5.494h6.957q-.036-1.75.55-2.663c.391-.607.938-.913 1.649-.913q1.024 0 1.555.67.53.672.53 1.863c0 1.316-.51 2.7-1.538 4.153q-1.538 2.178-3.806 4.226c-1.512 1.365-3.456 2.991-5.823 4.878Z"/><use xlink:href="#c" fill="#ff8b00" data-text="C" transform="matrix(36.61437 0 0 -37.23966 33.448 256.928)"/><use xlink:href="#d" fill="#ff8b00" data-text="A" transform="matrix(36.61437 0 0 -37.23966 61.201 256.928)"/><use xlink:href="#e" fill="#ff8b00" data-text="P" transform="matrix(36.61437 0 0 -37.23966 88.845 256.928)"/><use xlink:href="#f" fill="#ff8b00" data-text="I" transform="matrix(36.61437 0 0 -37.23966 112.132 256.928)"/><use xlink:href="#g" fill="#ff8b00" data-text="T" transform="matrix(36.61437 0 0 -37.23966 123.41 256.928)"/><use xlink:href="#h" fill="#ff8b00" data-text="O" transform="matrix(36.61437 0 0 -37.23966 145.524 256.928)"/><use xlink:href="#i" fill="#ff8b00" data-text="L" transform="matrix(36.61437 0 0 -37.23966 174.34 256.928)"/><use xlink:href="#j" fill="#ff8b00" data-text="U" transform="matrix(36.61437 0 0 -37.23966 192.318 256.928)"/><use xlink:href="#i" fill="#ff8b00" data-text="L" transform="matrix(36.61437 0 0 -37.23966 218.387 256.928)"/><use xlink:href="#k" fill="#ff8b00" transform="matrix(36.61437 0 0 -37.23966 236.365 256.928)"/><use xlink:href="#l" fill="#ff8b00" data-text="2" transform="matrix(36.61437 0 0 -37.23966 243.358 256.928)"/><use xlink:href="#c" fill="#fec400" data-text="C" transform="matrix(36.61437 0 0 -37.23966 33.448 290.443)"/><use xlink:href="#d" fill="#fec400" data-text="A" transform="matrix(36.61437 0 0 -37.23966 61.201 290.443)"/><use xlink:href="#e" fill="#fec400" data-text="P" transform="matrix(36.61437 0 0 -37.23966 88.845 290.443)"/><use xlink:href="#f" fill="#fec400" data-text="I" transform="matrix(36.61437 0 0 -37.23966 112.132 290.443)"/><use xlink:href="#g" fill="#fec400" data-text="T" transform="matrix(36.61437 0 0 -37.23966 123.41 290.443)"/><use xlink:href="#h" fill="#fec400" data-text="O" transform="matrix(36.61437 0 0 -37.23966 145.524 290.443)"/><use xlink:href="#i" fill="#fec400" data-text="L" transform="matrix(36.61437 0 0 -37.23966 174.34 290.443)"/><use xlink:href="#j" fill="#fec400" data-text="U" transform="matrix(36.61437 0 0 -37.23966 192.318 290.443)"/><use xlink:href="#i" fill="#fec400" data-text="L" transform="matrix(36.61437 0 0 -37.23966 218.387 290.443)"/><use xlink:href="#k" fill="#fec400" transform="matrix(36.61437 0 0 -37.23966 236.365 290.443)"/><use xlink:href="#l" fill="#fec400" data-text="2" transform="matrix(36.61437 0 0 -37.23966 243.358 290.443)"/><use xlink:href="#c" fill="#f3f2f7" data-text="C" transform="matrix(36.61437 0 0 -37.23966 33.448 323.96)"/><use xlink:href="#d" fill="#f3f2f7" data-text="A" transform="matrix(36.61437 0 0 -37.23966 61.201 323.96)"/><use xlink:href="#e" fill="#f3f2f7" data-text="P" transform="matrix(36.61437 0 0 -37.23966 88.845 323.96)"/><use xlink:href="#f" fill="#f3f2f7" data-text="I" transform="matrix(36.61437 0 0 -37.23966 112.132 323.96)"/><use xlink:href="#g" fill="#f3f2f7" data-text="T" transform="matrix(36.61437 0 0 -37.23966 123.41 323.96)"/><use xlink:href="#h" fill="#f3f2f7" data-text="O" transform="matrix(36.61437 0 0 -37.23966 145.524 323.96)"/><use xlink:href="#i" fill="#f3f2f7" data-text="L" transform="matrix(36.61437 0 0 -37.23966 174.34 323.96)"/><use xlink:href="#j" fill="#f3f2f7" data-text="U" transform="matrix(36.61437 0 0 -37.23966 192.318 323.96)"/><use xlink:href="#i" fill="#f3f2f7" data-text="L" transform="matrix(36.61437 0 0 -37.23966 218.387 323.96)"/><use xlink:href="#k" fill="#f3f2f7" transform="matrix(36.61437 0 0 -37.23966 236.365 323.96)"/><use xlink:href="#l" fill="#f3f2f7" data-text="2" transform="matrix(36.61437 0 0 -37.23966 243.358 323.96)"/><path fill="none" stroke="#f3f2f7" stroke-miterlimit="10" stroke-opacity=".5" stroke-width="1.0000799999999999" d="M34.62 344.292q0 3.91 1.593 6.946 1.59 3.035 4.521 4.73 2.93 1.694 6.738 1.693 4.831.001 8.128-2.626 3.295-2.625 4.247-7.13h-7.725q-.697 1.49-1.923 2.271-1.227.782-2.837.782-2.49 0-3.973-1.807-1.484-1.805-1.483-4.859 0-3.016 1.483-4.822 1.482-1.806 3.973-1.806 1.61 0 2.837.781 1.225.784 1.923 2.273h7.725q-.951-4.507-4.247-7.133-3.297-2.624-8.128-2.624-3.808 0-6.738 1.694-2.93 1.695-4.521 4.73-1.594 3.034-1.593 6.907ZM80.973 357.475h7.58l-9.374-26.254h-8.274l-9.411 26.254h7.543l1.391-4.282h9.154zm-8.714-9.867 2.746-8.491 2.783 8.49zM111.29 339.973q0-2.57-1.1-4.543-1.098-1.975-3.276-3.091-2.18-1.118-5.29-1.118H90.894v26.255h7.176v-8.864h3.552q3.15 0 5.328-1.172 2.177-1.175 3.258-3.129 1.08-1.956 1.08-4.338Zm-10.362 2.829h-2.857v-5.696h2.857q3.038 0 3.039 2.867 0 2.83-3.039 2.829ZM114.182 357.475h7.176V331.22h-7.176ZM124.03 331.221v5.81h6.81v20.445h7.176v-20.444h6.884v-5.811zM159.948 357.736q3.626 0 6.665-1.731 3.038-1.732 4.796-4.805 1.76-3.072 1.759-6.944 0-3.874-1.76-6.946-1.757-3.073-4.776-4.786-3.022-1.713-6.684-1.713-3.625 0-6.663 1.713t-4.816 4.786q-1.774 3.072-1.774 6.946 0 3.872 1.774 6.944 1.777 3.074 4.816 4.805t6.663 1.731Zm0-6.777q-2.781 0-4.355-1.808-1.576-1.805-1.576-4.895 0-3.129 1.576-4.935 1.574-1.807 4.355-1.807 2.746 0 4.34 1.807 1.592 1.807 1.593 4.935 0 3.054-1.593 4.877-1.594 1.826-4.34 1.826ZM183.564 331.221h-7.176v26.255h15.195v-5.587h-8.019zM194.256 331.221v15.23q0 3.651 1.41 6.183t3.88 3.816q2.472 1.286 5.621 1.286 3.15-.001 5.73-1.286 2.582-1.284 4.083-3.833 1.502-2.553 1.502-6.165V331.22h-7.177v15.23q0 2.086-1.007 3.26-1.007 1.172-2.984 1.172t-2.948-1.154q-.97-1.155-.97-3.277V331.22zM227.61 331.221h-7.175v26.255h15.195v-5.587h-8.02zM244.562 351.628v5.475h18.675v-5.922h-9.154q3.809-2.68 6.353-6.07 2.545-3.387 2.544-7.26 0-3.614-2.196-5.886-2.2-2.271-6.7-2.271-2.603 0-4.724 1.025c-1.416.681-2.566 1.75-3.442 3.201q-1.318 2.18-1.43 5.494h6.957q-.036-1.75.55-2.663c.391-.607.938-.913 1.649-.913q1.024 0 1.555.672.53.669.53 1.86c0 1.318-.51 2.7-1.538 4.153q-1.538 2.181-3.806 4.227c-1.512 1.366-3.456 2.991-5.823 4.878ZM34.62 377.808q0 3.91 1.593 6.945 1.59 3.035 4.521 4.73 2.93 1.694 6.738 1.693 4.831.001 8.128-2.626 3.295-2.624 4.247-7.13h-7.725q-.697 1.49-1.923 2.271-1.227.782-2.837.782-2.49 0-3.973-1.806-1.484-1.806-1.483-4.86 0-3.015 1.483-4.823 1.482-1.804 3.973-1.805 1.61 0 2.837.782 1.225.783 1.923 2.272h7.725q-.951-4.507-4.247-7.132-3.297-2.625-8.128-2.625-3.808 0-6.738 1.694-2.93 1.695-4.521 4.73-1.594 3.035-1.593 6.908ZM80.973 390.99h7.58l-9.374-26.254h-8.274l-9.411 26.254h7.543l1.391-4.282h9.154zm-8.714-9.867 2.746-8.491 2.783 8.49zM111.29 373.488q0-2.57-1.1-4.543c-.731-1.315-1.825-2.348-3.276-3.091q-2.18-1.118-5.29-1.118H90.894v26.255h7.176v-8.863h3.552q3.15 0 5.328-1.174 2.177-1.173 3.258-3.127 1.08-1.956 1.08-4.339Zm-10.362 2.83h-2.857v-5.697h2.857q3.038 0 3.039 2.867 0 2.83-3.039 2.83ZM114.182 390.99h7.176v-26.254h-7.176ZM124.03 364.736v5.811h6.81v20.444h7.176v-20.444h6.884v-5.81zM159.948 391.251q3.626 0 6.665-1.731 3.038-1.731 4.796-4.805 1.76-3.072 1.759-6.944 0-3.873-1.76-6.946-1.757-3.073-4.776-4.785-3.022-1.713-6.684-1.713-3.625 0-6.663 1.713-3.039 1.712-4.816 4.785-1.774 3.073-1.774 6.946t1.774 6.944q1.777 3.074 4.816 4.805t6.663 1.731Zm0-6.777q-2.781 0-4.355-1.807-1.576-1.806-1.576-4.896 0-3.128 1.576-4.935 1.574-1.805 4.355-1.806 2.746 0 4.34 1.806 1.592 1.807 1.593 4.935 0 3.054-1.593 4.877-1.594 1.826-4.34 1.826ZM183.564 364.736h-7.176v26.255h15.195v-5.587h-8.019zM194.256 364.736v15.23q0 3.651 1.41 6.184 1.41 2.532 3.88 3.815 2.472 1.286 5.621 1.286t5.73-1.286q2.582-1.284 4.083-3.833 1.502-2.553 1.502-6.165v-15.23h-7.177v15.23q0 2.085-1.007 3.259-1.007 1.172-2.984 1.172t-2.948-1.154q-.97-1.155-.97-3.277v-15.23zM227.61 364.736h-7.175v26.255h15.195v-5.587h-8.02zM244.562 385.144v5.475h18.675v-5.922h-9.154q3.809-2.681 6.353-6.07 2.545-3.388 2.544-7.26 0-3.614-2.196-5.886-2.2-2.272-6.7-2.272-2.603 0-4.724 1.025c-1.416.682-2.566 1.75-3.442 3.202q-1.318 2.18-1.43 5.493h6.957q-.036-1.75.55-2.662c.391-.608.938-.913 1.649-.913q1.024 0 1.555.67t.53 1.862c0 1.317-.51 2.7-1.538 4.153q-1.538 2.18-3.806 4.226c-1.512 1.366-3.456 2.992-5.823 4.879Z"/><use xlink:href="#m" fill="#f3f2f7" data-text="&amp;" transform="matrix(202.34316 0 0 -205.7981 -277.85 386.056)"/><use xlink:href="#n" fill="#fec400" data-text="T" transform="matrix(64.55698 0 0 -65.65939 -60.201 76.862)"/><use xlink:href="#o" fill="#fec400" data-text="R" transform="matrix(64.55698 0 0 -65.65939 -61.944 138.582)"/><use xlink:href="#p" fill="#fec400" data-text="I" transform="matrix(64.55698 0 0 -65.65939 -50.71 200.341)"/><use xlink:href="#q" fill="#fec400" data-text="C" transform="matrix(64.55698 0 0 -65.65939 -64.655 262.061)"/><use xlink:href="#r" fill="#fec400" data-text="K" transform="matrix(64.55698 0 0 -65.65939 -64.688 323.82)"/><use xlink:href="#s" fill="#fec400" data-text="S" transform="matrix(64.55698 0 0 -65.65939 -60.492 385.54)"/></g></svg>