<svg xmlns="http://www.w3.org/2000/svg" xmlns:xlink="http://www.w3.org/1999/xlink" width="297.636" height="419.526"><defs><path id="b" d="M.506.362A.17.17 0 0 0 .604.301.17.17 0 0 0 .641.192q0-.09-.062-.141A.27.27 0 0 0 .405 0H.056v.705h.338a.27.27 0 0 0 .17-.048.16.16 0 0 0 .061-.135.16.16 0 0 0-.033-.103.16.16 0 0 0-.086-.057M.252.425h.099q.074 0 .074.061 0 .063-.074.063H.252zM.366.158Q.44.158.44.22q0 .032-.02.049a.1.1 0 0 1-.055.017H.252V.158z"/><path id="c" d="M.252.548V.433h.225V.284H.252V.157h.255V0H.056v.705h.451V.548z"/><path id="d" d="M.322-.007A.33.33 0 0 0 .12.052a.21.21 0 0 0-.085.167h.21Q.246.183.265.165a.07.07 0 0 1 .05-.017.07.07 0 0 1 .044.014.05.05 0 0 1 .017.037q0 .03-.029.048a.5.5 0 0 1-.094.038A1 1 0 0 0 .143.33a.2.2 0 0 0-.074.063A.18.18 0 0 0 .037.5q0 .068.034.116a.2.2 0 0 0 .094.074q.06.024.136.025A.3.3 0 0 0 .498.658.2.2 0 0 0 .576.497H.363q0 .031-.02.048A.07.07 0 0 1 .297.56.05.05 0 0 1 .26.548Q.245.535.246.51q0-.02.016-.035A.1.1 0 0 1 .3.451L.368.425a1 1 0 0 0 .11-.046.2.2 0 0 0 .076-.063.16.16 0 0 0 .031-.102.21.21 0 0 0-.122-.192.3.3 0 0 0-.14-.029"/><path id="e" d="M.587.705V.55H.399V0H.203v.55H.017v.155z"/><path id="f" d="M.316-.007a.3.3 0 0 0-.15.035.26.26 0 0 0-.104.1.3.3 0 0 0-.038.153q0 .087.038.152Q.1.5.167.533a.3.3 0 0 0 .15.035.3.3 0 0 0 .15-.035.26.26 0 0 0 .106-.1A.3.3 0 0 0 .61.281.3.3 0 0 0 .573.13a.26.26 0 0 0-.106-.1.3.3 0 0 0-.15-.036m0 .17q.04 0 .068.03.027.031.027.088T.385.368a.09.09 0 0 1-.068.03.09.09 0 0 1-.066-.03Q.224.338.224.281q0-.058.026-.088t.066-.03"/><path id="g" d="M.024.281q0 .087.031.152a.24.24 0 0 0 .086.1.2.2 0 0 0 .122.035.2.2 0 0 0 .1-.023.17.17 0 0 0 .065-.062v.078h.196v-.56H.428v.077A.17.17 0 0 0 .362.016a.2.2 0 0 0-.1-.023.2.2 0 0 0-.12.035.24.24 0 0 0-.087.1.35.35 0 0 0-.031.153m.404 0q0 .054-.03.085a.1.1 0 0 1-.072.031.1.1 0 0 1-.073-.03.12.12 0 0 1-.03-.086q0-.054.03-.085A.1.1 0 0 1 .326.164q.043 0 .072.031.03.031.03.086"/><path id="h" d="M.252.462a.3.3 0 0 0 .08.076.2.2 0 0 0 .101.028V.357H.378Q.314.357.283.332.253.306.252.245V0H.056v.561h.196z"/><path id="i" d="M.024.281q0 .087.031.152.032.066.087.1A.22.22 0 0 0 .36.546.2.2 0 0 0 .427.484V.74h.197V0H.427v.078A.17.17 0 0 0 .362.016a.2.2 0 0 0-.1-.023.2.2 0 0 0-.12.035.24.24 0 0 0-.087.1.35.35 0 0 0-.031.153m.404 0q0 .054-.03.085a.1.1 0 0 1-.072.031.1.1 0 0 1-.073-.03.12.12 0 0 1-.03-.086q0-.054.03-.085A.1.1 0 0 1 .326.164q.043 0 .072.031.03.031.03.086"/><path id="j" d="M0 0"/><path id="k" d="M.359.398H.27V0H.074v.398H.013v.163h.06v.005q0 .108.064.166.064.057.183.057h.037V.62L.335.622Q.303.622.288.608T.27.56h.088z"/><path id="l" d="M.63.561v-.56H.433v.08a.2.2 0 0 0-.07-.062.2.2 0 0 0-.1-.024.2.2 0 0 0-.154.065.26.26 0 0 0-.057.175v.326h.195v-.3q0-.05.026-.076A.09.09 0 0 1 .34.157q.043 0 .068.028A.1.1 0 0 1 .433.26v.301z"/><path id="m" d="M.252.483a.17.17 0 0 0 .065.062.2.2 0 0 0 .099.023.2.2 0 0 0 .122-.035.24.24 0 0 0 .086-.1.35.35 0 0 0 .031-.152A.35.35 0 0 0 .624.13a.24.24 0 0 0-.086-.1.2.2 0 0 0-.122-.036.2.2 0 0 0-.099.023.2.2 0 0 0-.065.062v-.346H.056v.83h.196zM.456.281q0 .056-.03.086a.1.1 0 0 1-.072.03.1.1 0 0 1-.073-.03A.12.12 0 0 1 .252.28a.12.12 0 0 1 .03-.086.1.1 0 0 1 .072-.03q.043 0 .073.03.03.033.03.086"/><path id="n" d="M.592.287.589.241H.218Q.22.196.243.173A.08.08 0 0 1 .301.15Q.35.15.37.194H.58A.25.25 0 0 0 .53.091.3.3 0 0 0 .434.019a.3.3 0 0 0-.126-.026.3.3 0 0 0-.148.035.25.25 0 0 0-.1.1.3.3 0 0 0-.037.153q0 .089.036.153a.25.25 0 0 0 .1.1.3.3 0 0 0 .149.034.3.3 0 0 0 .147-.034.25.25 0 0 0 .1-.097.3.3 0 0 0 .036-.15m-.2.049a.07.07 0 0 1-.024.057.1.1 0 0 1-.06.02.1.1 0 0 1-.06-.02.1.1 0 0 1-.03-.057z"/><path id="o" d="M.423.566A.2.2 0 0 0 .577.501.25.25 0 0 0 .634.327V0H.438v.301a.1.1 0 0 1-.025.075.09.09 0 0 1-.067.028.09.09 0 0 1-.07-.028.1.1 0 0 1-.024-.075V0H.056v.561h.196v-.08q.025.038.07.061.045.024.1.024"/><path id="p" d="M.387.167V0H.302Q.087 0 .087.213v.185h-.07v.163h.07v.136h.197V.561h.102V.398H.284V.21q0-.022.01-.033.011-.01.036-.01z"/><path id="q" d="M.295-.007a.3.3 0 0 0-.136.025.23.23 0 0 0-.094.07.2.2 0 0 0-.038.1h.19A.06.06 0 0 1 .242.148.1.1 0 0 1 .294.132q.024 0 .038.01a.03.03 0 0 1 .014.026q0 .02-.023.031a1 1 0 0 1-.076.022 1 1 0 0 0-.1.027.2.2 0 0 0-.07.049.14.14 0 0 0-.03.092.16.16 0 0 0 .028.09.2.2 0 0 0 .08.065.3.3 0 0 0 .126.024Q.39.568.454.514A.2.2 0 0 0 .527.372H.35a.07.07 0 0 1-.024.041.08.08 0 0 1-.05.015.06.06 0 0 1-.036-.01.03.03 0 0 1-.012-.024q0-.021.023-.03A.4.4 0 0 1 .325.341a1 1 0 0 0 .101-.03.2.2 0 0 0 .071-.05.14.14 0 0 0 .03-.097A.14.14 0 0 0 .5.077.2.2 0 0 0 .42.015a.3.3 0 0 0-.124-.022"/><path id="r" d="M.024.281q0 .087.036.152a.25.25 0 0 0 .1.1.3.3 0 0 0 .148.035q.107 0 .18-.058A.27.27 0 0 0 .582.346H.374Q.356.401.304.401a.07.07 0 0 1-.059-.03.16.16 0 0 1-.021-.09q0-.06.021-.09a.07.07 0 0 1 .059-.03q.052 0 .07.054h.208A.27.27 0 0 0 .488.052a.28.28 0 0 0-.18-.059.3.3 0 0 0-.148.035.25.25 0 0 0-.1.1.3.3 0 0 0-.036.153"/><path id="s" d="M.425.566A.2.2 0 0 0 .577.502.26.26 0 0 0 .634.327V0H.438v.301a.1.1 0 0 1-.025.075.09.09 0 0 1-.067.028.09.09 0 0 1-.07-.028.1.1 0 0 1-.024-.075V0H.056v.74h.196V.481q.025.038.07.061.045.024.103.024"/><path id="t" d="M.252.74V0H.056v.74z"/><path id="u" d="M.263.568a.2.2 0 0 0 .1-.023.17.17 0 0 0 .065-.062v.078h.196V.006a.3.3 0 0 0-.03-.143A.23.23 0 0 0 .5-.238a.3.3 0 0 0-.16-.038.33.33 0 0 0-.208.06.23.23 0 0 0-.09.167h.194a.06.06 0 0 1 .03-.042.1.1 0 0 1 .062-.015q.1 0 .1.112v.072A.17.17 0 0 0 .362.016a.2.2 0 0 0-.1-.023.2.2 0 0 0-.12.035.24.24 0 0 0-.087.1.35.35 0 0 0-.031.153q0 .087.031.152a.24.24 0 0 0 .086.1.2.2 0 0 0 .122.035M.428.281q0 .054-.03.085a.1.1 0 0 1-.072.031.1.1 0 0 1-.073-.03.12.12 0 0 1-.03-.086q0-.054.03-.085A.1.1 0 0 1 .326.164q.043 0 .072.031.03.031.03.086"/><path id="v" d="M.661.561.305-.267H.092l.134.291-.23.537h.218L.332.243l.114.318z"/><clipPath id="a"><path fill-rule="evenodd" d="M0 419.526h297.636V0H0Z"/></clipPath></defs><g clip-path="url(#a)" data-name="Layer 1"><path fill="#3e0f6b" d="M348.01 129.596c.817.706 1.403.435 1.99.123 8.208-4.344 16.102-9.245 24.35-13.539 9.274-4.828 18.106-10.5 27.303-15.482 13.19-7.147 26.143-14.7 39.052-22.332 8.609-5.088 16.745-10.836 24.55-17.068.746-.598 2.236-.73 1.713-2.16-.398-1.09-1.584-1.342-2.618-1.368-4.287-.116-8.549-.245-12.8.823-9.726 2.445-18.686 6.578-27.594 11.153-16.073 8.258-29.738 19.869-43.985 30.633-8.772 6.631-16.77 14.306-24.955 21.688-2.524 2.278-5.306 4.457-7.005 7.53m-64.989 195.45c-1.087-1.683-2.712-2.252-4.157-3.079-9.705-5.552-17.913-12.853-25.202-21.288-5.918-6.85-10.229-14.716-14.566-22.56-.972-1.753-1.483-2.386-3.432-1.195-2.98 1.825-6.346 3.037-9.258 4.95-8.676 5.701-17.56 11.09-25.634 17.692-5.984 4.89-11.509 10.17-15.65 16.693-3.124 4.92-2.29 6.985 3.056 9.182 7.786 3.2 16.017 4.574 24.314 4.981 19.67.964 39.264-.43 58.74-3.193 3.886-.55 8.004-.335 11.789-2.183m60.047-35.94c11.926.173 25.824-3.812 38.518-9.71 5.808-2.697 10.975-6.522 15.371-11.16 3.353-3.538 6.492-7.675 3.646-12.885-1.98-3.627-4.762-6.664-8.635-8.746-8.662-4.656-18.132-5.566-27.564-5.832-13.524-.382-26.827 1.84-40.159 4.262-13.502 2.452-26.392 6.704-39.417 10.671-1.54.469-2.08 1.278-1.272 2.9 4.522 9.052 11.018 16.488 19.618 21.633 11.068 6.623 23.44 8.875 39.894 8.866M47.244-7.339h48.51c-.206 8.92 2.934 16.512 9.163 22.833 7.817 7.937 17.567 12.475 28.098 15.365 21.602 5.928 43.672 6.41 65.803 4.67 20.334-1.6 40.287-6.057 60.478-8.726 9.53-1.258 19.168-1.46 28.178 3.333 14.551 7.745 19.11 24.267 11.546 39.055-4.949 9.677-13.099 16.462-20.94 23.378-12.076 10.651-25.238 19.99-38.245 29.484-15.402 11.24-30.964 22.257-46.425 33.415-11.8 8.517-23.639 16.985-35.29 25.7-7.175 5.366-13.816 11.454-21.071 16.702-13.924 10.072-26.684 21.513-39.573 32.805-9.21 8.07-17.835 16.74-25.974 25.898-7.899 8.889-14.967 18.298-19.563 29.377-1.771 4.272-1.013 7.127 2.64 9.876 7.652 5.757 16.093 5.294 24.534 2.68 14.803-4.582 27.747-12.657 40.432-21.434 13.94-9.646 26.929-20.42 39.582-31.584 14.424-12.726 28.436-25.918 41.949-39.644 17.911-18.191 36.184-36.027 54.289-54.029 15.4-15.312 30.484-30.962 46.274-45.859 11.143-10.514 22.552-20.779 34.127-30.854 19.656-17.104 39.96-33.201 62.678-46.108 13.598-7.726 27.689-14.045 43.123-17.215 20.445-4.202 39.83-2.035 57.81 9.036 7.524 4.632 14.235 10.373 18.012 18.484 7.28 15.641 4.102 30.13-5.973 43.526-5.431 7.224-12.279 12.946-19.28 18.588-9.323 7.515-19.506 13.723-29.56 20.11-7.963 5.059-16.322 9.499-24.51 14.203-6.2 3.559-12.267 7.384-18.641 10.596-13.81 6.957-27.082 14.875-40.618 22.315-10.567 5.81-20.803 12.223-31.137 18.452-2.544 1.532-4.889 3.391-7.325 5.1 6.992.738 13.644-.05 20.194.207 10.077.394 20.23.308 30.225 2.742 10.462 2.544 20.726 5.683 29.58 11.69 12.052 8.179 21.264 19.09 26.284 33.02 3.677 10.204 4.95 20.64 2.384 31.403-1.018 4.267-2.972 8.228-4.059 12.47.56.168.823.347 1.027.294 10.817-2.911 21.187-7.148 31.754-10.796 1.176-.406 1.76-1.467 2.372-2.49 2.452-4.09 5.896-7.273 9.679-10.056 12.28-9.044 26.363-11.776 41.255-11.474 10.762.219 20.378 7.292 23.918 17.486 3.212 9.25-.955 22.245-8.894 28.446-5.39 4.209-11.599 6.903-17.644 9.869-2.372 1.162-2.84 2.446-1.834 4.543 1.289 2.69 2.525 5.432 4.118 7.94 5.717 8.99 11.475 17.959 17.4 26.811 12.422 18.562 25.735 36.547 35.68 56.68 5.132 10.387 8.883 21.064 8.81 32.809h-48.51c-.679-6.097-3.799-11.237-6.588-16.48-6.667-12.539-14.956-24.061-22.84-35.825-11.93-17.798-24.773-35.024-33.602-54.72-.92-2.05-2.283-2.348-4.402-1.59-6.115 2.188-12.317 4.127-18.465 6.216-18.322 6.222-36.876 11.703-55.471 16.982-16.473 4.676-33.156 8.639-49.804 12.668-16.91 4.092-34.03 7.178-51.12 10.438-13.41 2.56-26.928 4.195-40.44 5.828-14.474 1.748-29.065 2.101-43.661 1.734-15.396-.386-30.514-2.172-45.078-7.615-10.83-4.047-19.99-10.25-27.455-19.117-5.513-6.546-8.619-14.086-10.38-22.324-.42-1.963-.825-4.034-3.725-2.196-11.377 7.206-23.574 12.713-36.351 16.878-12.559 4.094-25.507 4.948-38.544 3.246-12.288-1.604-23.046-7.082-32.75-14.55-6.346-4.884-11.673-10.943-15.187-18.116-8.7-17.754-7.147-35.63.933-53.103 7.719-16.693 19.03-30.997 31.599-44.22 19.825-20.855 41.645-39.5 64.466-57.032 9.16-7.037 18.142-14.314 27.395-21.245 24.104-18.053 48.799-35.287 73.18-52.953.934-.677 2.532-1.21 2.167-2.429-.481-1.598-2.272-.948-3.424-.787-7.093.984-14.246 1.145-21.372 1.332-7.139.187-14.283.108-21.452-.514-9.973-.864-19.948-1.706-29.735-3.7-15.752-3.207-30.654-8.664-44.49-17.141-12.026-7.37-21.678-16.985-28.944-28.853C50.72 21.82 46.949 7.733 47.244-7.339"/><path fill="none" stroke="#3e0f6b" stroke-miterlimit="10" stroke-width=".75" d="M348.01 129.596c.817.706 1.403.435 1.99.123 8.208-4.344 16.102-9.245 24.35-13.539 9.274-4.828 18.106-10.5 27.303-15.482 13.19-7.147 26.143-14.7 39.052-22.332 8.609-5.088 16.745-10.836 24.55-17.068.746-.598 2.236-.73 1.713-2.16-.398-1.09-1.584-1.342-2.618-1.368-4.287-.116-8.549-.245-12.8.823-9.726 2.445-18.686 6.578-27.594 11.153-16.073 8.258-29.738 19.869-43.985 30.633-8.772 6.631-16.77 14.306-24.955 21.688-2.524 2.278-5.306 4.457-7.005 7.53Zm-64.988 195.45c-1.087-1.682-2.712-2.251-4.157-3.078-9.705-5.552-17.913-12.853-25.202-21.288-5.918-6.85-10.229-14.716-14.566-22.56-.972-1.753-1.483-2.386-3.432-1.195-2.98 1.825-6.346 3.037-9.258 4.95-8.676 5.701-17.56 11.09-25.634 17.692-5.984 4.89-11.509 10.17-15.65 16.693-3.124 4.92-2.29 6.985 3.056 9.182 7.786 3.2 16.017 4.574 24.314 4.981 19.67.964 39.264-.43 58.74-3.193 3.886-.55 8.004-.335 11.789-2.183Zm60.047-35.94c11.926.174 25.824-3.81 38.518-9.708 5.808-2.698 10.975-6.523 15.371-11.16 3.353-3.54 6.492-7.676 3.646-12.886-1.98-3.627-4.762-6.664-8.635-8.746-8.662-4.656-18.132-5.566-27.564-5.832-13.524-.382-26.827 1.84-40.159 4.262-13.502 2.452-26.392 6.704-39.417 10.671-1.54.469-2.08 1.278-1.272 2.9 4.522 9.052 11.018 16.488 19.618 21.633 11.068 6.623 23.44 8.875 39.894 8.866ZM47.244-7.339h48.51c-.206 8.92 2.934 16.512 9.163 22.833 7.817 7.937 17.567 12.475 28.098 15.365 21.602 5.928 43.672 6.41 65.803 4.67 20.334-1.6 40.287-6.057 60.478-8.726 9.53-1.258 19.168-1.46 28.178 3.333 14.551 7.745 19.11 24.267 11.546 39.055-4.949 9.677-13.099 16.462-20.94 23.378-12.076 10.651-25.238 19.99-38.245 29.484-15.402 11.24-30.964 22.257-46.425 33.415-11.8 8.517-23.639 16.985-35.29 25.7-7.175 5.366-13.816 11.454-21.071 16.702-13.924 10.072-26.684 21.513-39.573 32.805-9.21 8.07-17.835 16.74-25.974 25.898-7.899 8.889-14.967 18.298-19.563 29.377-1.771 4.272-1.013 7.127 2.64 9.876 7.652 5.757 16.093 5.294 24.534 2.68 14.803-4.582 27.747-12.657 40.432-21.434 13.94-9.646 26.929-20.42 39.582-31.584 14.424-12.726 28.436-25.918 41.949-39.644 17.911-18.191 36.184-36.027 54.289-54.029 15.4-15.312 30.484-30.962 46.274-45.859 11.143-10.514 22.552-20.779 34.127-30.854 19.656-17.104 39.96-33.201 62.678-46.108 13.598-7.726 27.689-14.045 43.123-17.215 20.445-4.202 39.83-2.035 57.81 9.036 7.524 4.632 14.235 10.373 18.012 18.484 7.28 15.641 4.102 30.13-5.973 43.526-5.431 7.224-12.279 12.946-19.28 18.588-9.323 7.515-19.506 13.723-29.56 20.11-7.963 5.059-16.322 9.499-24.51 14.203-6.2 3.559-12.267 7.384-18.641 10.596-13.81 6.957-27.082 14.875-40.618 22.315-10.567 5.81-20.803 12.223-31.137 18.452-2.544 1.532-4.889 3.391-7.325 5.1 6.992.738 13.644-.05 20.194.207 10.077.394 20.23.308 30.225 2.742 10.462 2.544 20.726 5.683 29.58 11.69 12.052 8.179 21.264 19.09 26.284 33.02 3.677 10.204 4.95 20.64 2.384 31.403-1.018 4.267-2.972 8.228-4.059 12.47.56.168.823.347 1.027.294 10.817-2.911 21.187-7.148 31.754-10.796 1.176-.406 1.76-1.467 2.372-2.49 2.452-4.09 5.896-7.273 9.679-10.056 12.28-9.044 26.363-11.776 41.255-11.474 10.762.219 20.378 7.292 23.918 17.486 3.212 9.25-.955 22.245-8.894 28.446-5.39 4.209-11.599 6.903-17.644 9.869-2.372 1.162-2.84 2.446-1.834 4.543 1.289 2.69 2.525 5.432 4.118 7.94 5.717 8.99 11.475 17.959 17.4 26.811 12.422 18.562 25.735 36.547 35.68 56.68 5.132 10.387 8.883 21.064 8.81 32.809h-48.51c-.679-6.097-3.799-11.237-6.588-16.48-6.667-12.539-14.956-24.061-22.84-35.825-11.93-17.798-24.773-35.024-33.602-54.72-.92-2.05-2.283-2.348-4.402-1.59-6.115 2.188-12.317 4.127-18.465 6.216-18.322 6.222-36.876 11.703-55.471 16.982-16.473 4.676-33.156 8.639-49.804 12.668-16.91 4.092-34.03 7.178-51.12 10.438-13.41 2.56-26.928 4.195-40.44 5.828-14.474 1.748-29.065 2.101-43.661 1.734-15.396-.386-30.514-2.172-45.078-7.615-10.83-4.047-19.99-10.25-27.455-19.117-5.513-6.546-8.619-14.086-10.38-22.324-.42-1.963-.825-4.034-3.725-2.196-11.377 7.206-23.574 12.713-36.351 16.878-12.559 4.094-25.507 4.948-38.544 3.246-12.288-1.604-23.046-7.082-32.75-14.55-6.346-4.884-11.673-10.943-15.187-18.116-8.7-17.754-7.147-35.63.933-53.103 7.719-16.693 19.03-30.997 31.599-44.22 19.825-20.855 41.645-39.5 64.466-57.032 9.16-7.037 18.142-14.314 27.395-21.245 24.104-18.053 48.799-35.287 73.18-52.953.934-.677 2.532-1.21 2.167-2.429-.481-1.598-2.272-.948-3.424-.787-7.093.984-14.246 1.145-21.372 1.332-7.139.187-14.283.108-21.452-.514-9.973-.864-19.948-1.706-29.735-3.7-15.752-3.207-30.654-8.664-44.49-17.141-12.026-7.37-21.678-16.985-28.944-28.853C50.72 21.82 46.949 7.733 47.244-7.339Z"/><path fill="#512888" d="M592.595 433.784c.072-11.745-3.68-22.424-8.81-32.812-9.946-20.131-23.259-38.116-35.68-56.677-5.926-8.853-11.684-17.821-17.4-26.813-1.594-2.507-2.833-5.25-4.121-7.94-1.004-2.096-.536-3.38 1.838-4.542 6.043-2.965 12.252-5.66 17.642-9.87 7.94-6.2 12.106-19.195 8.894-28.444-3.54-10.196-13.156-17.268-23.918-17.487-14.892-.302-28.975 2.43-41.255 11.473-3.783 2.784-7.227 5.967-9.68 10.057-.611 1.023-1.195 2.084-2.37 2.49-10.568 3.65-20.938 7.884-31.755 10.795-.204.055-.468-.125-1.027-.292 1.087-4.242 3.04-8.203 4.059-12.471 2.565-10.763 1.293-21.199-2.384-31.401-5.02-13.932-14.232-24.843-26.284-33.023-8.854-6.005-19.118-9.144-29.58-11.69-9.996-2.432-20.15-2.346-30.225-2.741-6.55-.256-13.202.532-20.194-.208 2.436-1.709 4.784-3.567 7.325-5.1 10.334-6.228 20.57-12.641 31.137-18.451 13.536-7.44 26.808-15.36 40.618-22.315 6.374-3.21 12.441-7.037 18.64-10.596 8.189-4.704 16.548-9.144 24.511-14.203 10.056-6.387 20.237-12.595 29.56-20.11 7.001-5.642 13.849-11.364 19.28-18.588 10.075-13.396 13.252-27.885 5.973-43.523-3.777-8.114-10.488-13.855-18.012-18.487-17.98-11.074-37.365-13.238-57.813-9.036-15.431 3.17-29.522 9.492-43.12 17.215-22.718 12.907-43.024 29.004-62.678 46.11-11.577 10.073-22.984 20.336-34.127 30.85-15.79 14.901-30.874 30.55-46.274 45.864-18.105 18-36.378 35.835-54.288 54.027-13.514 13.725-27.525 26.917-41.95 39.644-12.654 11.163-25.642 21.937-39.582 31.583-12.684 8.778-25.63 16.852-40.431 21.434-8.442 2.615-16.883 3.077-24.534-2.679-3.654-2.75-4.412-5.606-2.64-9.878 4.594-11.077 11.663-20.487 19.562-29.375 8.139-9.159 16.764-17.83 25.974-25.899 12.89-11.292 25.65-22.733 39.573-32.805 7.255-5.248 13.897-11.336 21.071-16.702 11.651-8.715 23.49-17.183 35.29-25.7 15.461-11.158 31.023-22.176 46.425-33.415 13.007-9.492 26.169-18.833 38.245-29.484 7.841-6.916 15.99-13.699 20.94-23.378 7.565-14.786 3.005-31.31-11.546-39.052-9.007-4.795-18.65-4.594-28.178-3.334-20.191 2.667-40.143 7.126-60.477 8.722-22.132 1.74-44.202 1.257-65.803-4.668-10.532-2.89-20.282-7.428-28.099-15.363-6.23-6.323-9.369-13.915-9.163-22.835 167.31 0 334.617.01 501.926-.072 2.936-.003 3.598.66 3.596 3.592-.084 144.433-.092 288.867.028 433.3.003 3.68-.71 5.031-4.413 4.345-1.387-.259-2.86-.042-4.296-.042"/><path fill="#512888" d="M47.244-7.34c-.295 15.073 3.476 29.16 11.299 41.935 7.268 11.868 16.92 21.483 28.945 28.853 13.835 8.477 28.738 13.934 44.49 17.14 9.787 1.995 19.763 2.837 29.734 3.701 7.17.622 14.314.704 21.454.514 7.125-.185 14.277-.348 21.371-1.332 1.152-.158 2.944-.811 3.424.787.366 1.22-1.233 1.752-2.166 2.429-24.382 17.666-49.078 34.9-73.181 52.953-9.254 6.931-18.234 14.208-27.395 21.245-22.821 17.531-44.64 36.177-64.467 57.033-12.568 13.222-23.88 27.526-31.598 44.22-8.08 17.472-9.633 35.348-.934 53.103 3.515 7.172 8.842 13.231 15.19 18.115 9.702 7.468 20.46 12.946 32.748 14.55 13.037 1.702 25.985.848 38.545-3.246 12.776-4.165 24.973-9.672 36.349-16.878 2.901-1.838 3.307.233 3.726 2.196 1.761 8.238 4.868 15.778 10.381 22.324 7.464 8.865 16.625 15.07 27.454 19.117 14.564 5.443 29.682 7.229 45.077 7.616 14.596.366 29.188.013 43.663-1.735 13.511-1.633 27.028-3.267 40.44-5.828 17.087-3.26 34.208-6.346 51.119-10.437 16.648-4.03 33.33-7.993 49.802-12.669 18.597-5.279 37.154-10.76 55.47-16.982 6.151-2.088 12.353-4.028 18.468-6.216 2.12-.758 3.482-.46 4.402 1.59 8.83 19.697 21.671 36.922 33.602 54.721 7.886 11.763 16.173 23.285 22.84 35.824 2.789 5.243 5.909 10.383 6.588 16.48-182.175 0-364.35-.008-546.523.073-2.935.002-3.597-.66-3.596-3.592q.127-217.04 0-434.083c-.001-2.932.657-3.628 3.596-3.6 16.56.166 33.121.08 49.683.08"/><path fill="#512888" d="M343.07 289.106c-16.455.009-28.827-2.243-39.895-8.866-8.602-5.146-15.096-12.58-19.618-21.632-.811-1.623-.269-2.432 1.272-2.9 13.025-3.968 25.915-8.22 39.417-10.672 13.332-2.422 26.635-4.644 40.16-4.263 9.431.267 18.901 1.178 27.56 5.833 3.876 2.082 6.658 5.119 8.638 8.746 2.846 5.21-.293 9.347-3.646 12.885-4.396 4.638-9.563 8.462-15.371 11.16-12.694 5.898-26.592 9.883-38.518 9.71M283.022 325.047c-3.785 1.848-7.903 1.632-11.789 2.183-19.476 2.764-39.07 4.157-58.74 3.193-8.298-.407-16.528-1.781-24.313-4.98-5.349-2.198-6.181-4.263-3.057-9.183 4.141-6.523 9.666-11.802 15.65-16.693 8.076-6.602 16.96-11.99 25.634-17.692 2.912-1.913 6.278-3.125 9.257-4.95 1.95-1.191 2.461-.558 3.432 1.196 4.338 7.843 8.649 15.708 14.567 22.559 7.289 8.435 15.497 15.736 25.202 21.288 1.447.827 3.07 1.396 4.157 3.079"/><use xlink:href="#b" fill="#fff" data-text="B" transform="matrix(85.75478 0 0 -87.21919 65.115 393.14)"/><use xlink:href="#c" fill="#fff" data-text="E" transform="matrix(85.75478 0 0 -87.21919 122.657 393.14)"/><use xlink:href="#d" fill="#fff" data-text="S" transform="matrix(85.75478 0 0 -87.21919 169.65 393.14)"/><use xlink:href="#e" fill="#fff" data-text="T" transform="matrix(85.75478 0 0 -87.21919 222.818 393.14)"/><use xlink:href="#b" fill="#fff" data-text="B" transform="matrix(20.23432 0 0 -20.57981 185.865 249.774)"/><use xlink:href="#f" fill="#fff" data-text="o" transform="matrix(20.23432 0 0 -20.57981 199.442 249.774)"/><use xlink:href="#g" fill="#fff" data-text="a" transform="matrix(20.23432 0 0 -20.57981 212.312 249.774)"/><use xlink:href="#h" fill="#fff" data-text="r" transform="matrix(20.23432 0 0 -20.57981 226.07 249.774)"/><use xlink:href="#i" fill="#fff" data-text="d" transform="matrix(20.23432 0 0 -20.57981 235.116 249.774)"/><use xlink:href="#j" fill="#fff" transform="matrix(20.23432 0 0 -20.57981 248.875 249.774)"/><use xlink:href="#f" fill="#fff" data-text="o" transform="matrix(20.23432 0 0 -20.57981 252.74 249.774)"/><use xlink:href="#k" fill="#fff" data-text="f" transform="matrix(20.23432 0 0 -20.57981 265.609 249.774)"/><use xlink:href="#c" fill="#fff" data-text="E" transform="matrix(20.23432 0 0 -20.57981 172.41 271.342)"/><use xlink:href="#l" fill="#fff" data-text="u" transform="matrix(20.23432 0 0 -20.57981 183.498 271.342)"/><use xlink:href="#h" fill="#fff" data-text="r" transform="matrix(20.23432 0 0 -20.57981 197.379 271.342)"/><use xlink:href="#f" fill="#fff" data-text="o" transform="matrix(20.23432 0 0 -20.57981 206.423 271.342)"/><use xlink:href="#m" fill="#fff" data-text="p" transform="matrix(20.23432 0 0 -20.57981 219.292 271.342)"/><use xlink:href="#n" fill="#fff" data-text="e" transform="matrix(20.23432 0 0 -20.57981 233.052 271.342)"/><use xlink:href="#g" fill="#fff" data-text="a" transform="matrix(20.23432 0 0 -20.57981 245.516 271.342)"/><use xlink:href="#o" fill="#fff" data-text="n" transform="matrix(20.23432 0 0 -20.57981 259.275 271.342)"/><use xlink:href="#j" fill="#fff" transform="matrix(20.23432 0 0 -20.57981 273.156 271.342)"/><use xlink:href="#d" fill="#fff" data-text="S" transform="matrix(20.23432 0 0 -20.57981 153.814 292.91)"/><use xlink:href="#p" fill="#fff" data-text="t" transform="matrix(20.23432 0 0 -20.57981 166.36 292.91)"/><use xlink:href="#l" fill="#fff" data-text="u" transform="matrix(20.23432 0 0 -20.57981 174.878 292.91)"/><use xlink:href="#i" fill="#fff" data-text="d" transform="matrix(20.23432 0 0 -20.57981 188.759 292.91)"/><use xlink:href="#n" fill="#fff" data-text="e" transform="matrix(20.23432 0 0 -20.57981 202.518 292.91)"/><use xlink:href="#o" fill="#fff" data-text="n" transform="matrix(20.23432 0 0 -20.57981 214.983 292.91)"/><use xlink:href="#p" fill="#fff" data-text="t" transform="matrix(20.23432 0 0 -20.57981 228.863 292.91)"/><use xlink:href="#q" fill="#fff" data-text="s" transform="matrix(20.23432 0 0 -20.57981 237.382 292.91)"/><use xlink:href="#j" fill="#fff" transform="matrix(20.23432 0 0 -20.57981 248.875 292.91)"/><use xlink:href="#f" fill="#fff" data-text="o" transform="matrix(20.23432 0 0 -20.57981 252.74 292.91)"/><use xlink:href="#k" fill="#fff" data-text="f" transform="matrix(20.23432 0 0 -20.57981 265.609 292.91)"/><use xlink:href="#e" fill="#fff" data-text="T" transform="matrix(20.23432 0 0 -20.57981 149.444 314.477)"/><use xlink:href="#n" fill="#fff" data-text="e" transform="matrix(20.23432 0 0 -20.57981 161.665 314.477)"/><use xlink:href="#r" fill="#fff" data-text="c" transform="matrix(20.23432 0 0 -20.57981 174.13 314.477)"/><use xlink:href="#s" fill="#fff" data-text="h" transform="matrix(20.23432 0 0 -20.57981 186.412 314.477)"/><use xlink:href="#o" fill="#fff" data-text="n" transform="matrix(20.23432 0 0 -20.57981 200.293 314.477)"/><use xlink:href="#f" fill="#fff" data-text="o" transform="matrix(20.23432 0 0 -20.57981 214.173 314.477)"/><use xlink:href="#t" fill="#fff" data-text="l" transform="matrix(20.23432 0 0 -20.57981 227.042 314.477)"/><use xlink:href="#f" fill="#fff" data-text="o" transform="matrix(20.23432 0 0 -20.57981 233.275 314.477)"/><use xlink:href="#u" fill="#fff" data-text="g" transform="matrix(20.23432 0 0 -20.57981 246.144 314.477)"/><use xlink:href="#v" fill="#fff" data-text="y" transform="matrix(20.23432 0 0 -20.57981 259.883 314.477)"/><use xlink:href="#b" fill="#fff" data-text="B" transform="matrix(85.75478 0 0 -87.21919 19.939 90.318)"/><use xlink:href="#c" fill="#fff" data-text="E" transform="matrix(85.75478 0 0 -87.21919 77.48 90.318)"/><use xlink:href="#d" fill="#fff" data-text="S" transform="matrix(85.75478 0 0 -87.21919 124.474 90.318)"/><use xlink:href="#e" fill="#fff" data-text="T" transform="matrix(85.75478 0 0 -87.21919 177.642 90.318)"/><path fill="#512888" d="M161.569 316.15c.237-.663.451-1.333.68-1.999a27 27 0 0 1-.146-1.09 36 36 0 0 0-.534 3.088"/><path fill="#512888" d="M164.173 316.867a62 62 0 0 0 .448-1.312c.07-.21.147-.418.212-.63q.073-.198.067-.415.12-.54-.048-1.077l-.027-.18-.052-.364.097.718a36 36 0 0 1-.068-.546 2.04 2.04 0 0 0-.232-1.04 2.03 2.03 0 0 0-.558-.869q-.275-.21-.547-.422a2 2 0 0 0-1.004-.32 1.34 1.34 0 0 0-.717 0q-.54.024-1.004.32c-.574.369-1.092.926-1.241 1.614-.273 1.258-.465 2.528-.63 3.805q-.02.558.233 1.04.164.502.558.869.367.396.87.559.482.252 1.039.232c.698-.03 1.423-.26 1.91-.791l.422-.546a2.7 2.7 0 0 0 .368-1.363q.015-.12.032-.239l-.097.718q.195-1.434.502-2.849l-5.304-.718q.103.906.243 1.808v-1.436c-.228.666-.443 1.336-.68 1.998a2.05 2.05 0 0 0-.047 1.077q.024.54.32 1.004.255.472.695.758.39.358.919.482c.69.158 1.467.123 2.08-.271l.547-.423q.501-.505.694-1.19M161.187 300.807l1.927 2.17-.967-2.968a16 16 0 0 1-.337-.364c-.174.41-.38.8-.623 1.162"/><path fill="#512888" d="m159.278 302.717 1.927 2.17q.274.21.547.422.465.296 1.004.32.358.096.718 0a2 2 0 0 0 1.003-.32c.391-.252.717-.578.968-.97q.297-.464.321-1.003.12-.538-.048-1.077l-.896-2.748-.064-.197a5 5 0 0 0-.28-.666c-.175-.33-.503-.627-.76-.912a2.7 2.7 0 0 0-1.19-.694 2.04 2.04 0 0 0-1.077-.049 2 2 0 0 0-1.004.32q-.608.36-.968.97-.26.607-.623 1.162-.296.465-.32 1.004-.121.539.048 1.076.124.527.483.919.286.44.757.695c.627.33 1.386.496 2.08.272l.646-.272q.608-.36.969-.969.363-.553.622-1.162-2.12.272-4.24.546.166.186.337.365l-.695-1.192.848 2.601.12.366 4.513-2.625-1.928-2.17a2 2 0 0 0-.869-.56 2.03 2.03 0 0 0-1.04-.23 2.04 2.04 0 0 0-1.04.23 2.03 2.03 0 0 0-.87.56c-.47.514-.822 1.19-.79 1.909l.097.717q.193.686.694 1.192"/><path fill="#3e0f6b" d="M162.918 292.607c2.373-.785 3.31-2.821 2.784-3.88-.537-1.073-2.91-1.791-5.15-.609-.349.499-.747.715-.986.815-1.119.464-2.696-.01-3.874-1.225a15.9 15.9 0 0 1 2.43 5.508 15.2 15.2 0 0 1 .243 5.39c.526-1.538 1.287-1.795 1.517-1.85 1.359-.346 3.485 1.37 4.943 4.555a43.3 43.3 0 0 1-4.293-9.374 42 42 0 0 1-.79-2.816c.98 1.657 2.302 2.825 3.176 3.486"/><path fill="#3e0f6b" d="M164.114 296.946c2.13-.749 3.874-1.935 5.128-3.842 1.155-1.758 1.43-4.083.612-6.017-.855-2.029-2.812-3.493-4.988-3.864-1.43-.244-2.624-.24-4.055.04-.543.106-1.034.315-1.543.53-.316.135-.686.257-.987.44-.752.452-1.22 1.098-1.746 1.788q.35-.457.704-.91a3.6 3.6 0 0 1-.403.382l.91-.703c-.145.1-.29.186-.451.257l1.074-.453c-.214.079-.422.13-.65.161q.597-.08 1.197-.161c-.241.017-.472.01-.712-.017l1.198.16a4.7 4.7 0 0 1-.927-.262l1.076.453a5.5 5.5 0 0 1-1.085-.65l.91.703a8 8 0 0 1-.501-.454c-1.6-1.584-4.148-1.714-5.91-.353-1.663 1.286-2.428 3.943-1.158 5.805q.914 1.34 1.56 2.828-.226-.539-.454-1.076a16.3 16.3 0 0 1 1.099 3.923l-.161-1.197c.183 1.382.192 2.768.014 4.15-.131 1.015.589 2.513 1.318 3.182.742.682 1.579 1.103 2.584 1.238 2.32.312 4.158-1.091 4.936-3.224q.078-.225.174-.444-.226.537-.455 1.075c.133-.281.28-.541.466-.788l-.702.91c.111-.132.228-.25.362-.36q-.455.352-.912.703c.1-.071.198-.133.307-.186l-1.074.454c.133-.056.26-.088.403-.108l-1.196.162a2 2 0 0 1 .416.008l-1.197-.161c.195.033.376.086.56.156q-.538-.226-1.075-.453c.347.148.657.342.957.568l-.91-.704c.51.407.948.877 1.35 1.388l-.703-.911c.582.77 1.057 1.598 1.466 2.47l7.77-4.542a45.5 45.5 0 0 1-2.985-5.832q.226.538.453 1.075a43.4 43.4 0 0 1-2.096-6.359l-8.225 3.468c1.26 2.08 2.883 3.642 4.79 5.1.861.659 2.477.727 3.467.454 1.045-.287 2.175-1.095 2.69-2.068.551-1.044.829-2.31.454-3.467-.386-1.19-1.083-1.937-2.068-2.69q-.056-.043-.113-.084.457.35.911.702a13.6 13.6 0 0 1-2.278-2.25l.704.911a13 13 0 0 1-.786-1.151c-1.167-1.924-3.552-2.712-5.62-1.84-2.082.877-3.147 3.106-2.606 5.309 1.146 4.655 3.054 9.164 5.538 13.264 1.219 2.013 4.091 2.946 6.156 1.615.961-.62 1.807-1.542 2.068-2.69.284-1.24.084-2.317-.453-3.467-1.312-2.805-3.502-5.502-6.521-6.517a6.07 6.07 0 0 0-4.788.42c-1.763.948-2.715 2.655-3.377 4.468l8.84 1.196c.585-4.537-.719-9.406-3.286-13.17l-7.068 5.453c1.623 1.606 3.676 2.594 5.964 2.712 1.173.061 2.376-.271 3.41-.805 1.114-.574 1.811-1.435 2.554-2.41q-.807.81-1.615 1.616.22-.116.45-.212l-1.076.454c.437-.17.87-.288 1.333-.358l-1.195.161a5.7 5.7 0 0 1 1.238 0l-1.196-.161a4.7 4.7 0 0 1 1.052.282q-.538-.226-1.075-.454c.194.09.373.189.548.309l-.91-.703c.148.115.275.235.394.38q-.35-.457-.703-.91c.069.098.123.191.173.3l-.454-1.073c.037.103.062.197.082.304l-.16-1.196c.023.195.017.38-.007.575q.08-.6.16-1.197a3.2 3.2 0 0 1-.184.624q.225-.539.452-1.075a4 4 0 0 1-.456.759q.351-.455.704-.91a5 5 0 0 1-.713.707q.456-.351.912-.704a5.7 5.7 0 0 1-1.154.67l1.076-.454q-.194.081-.393.146c-1.117.393-2.078 1.023-2.69 2.07-.563.963-.802 2.385-.454 3.466.71 2.188 3.159 3.979 5.536 3.143M153.934 311.97c.27.262.538.59.773.905a14 14 0 0 1 1.404-3.536c-.163.276-1.235 1.66-2.177 2.63"/><path fill="#3e0f6b" d="M150.752 315.151c.236.234.45.487.653.749l-.703-.911q.06.078.12.159l.704.91.91.704 1.075.454a3.4 3.4 0 0 0 1.795.08 2.24 2.24 0 0 0 1.135-.307q.573-.16.993-.58.507-.298.808-.807.594-.651.805-1.53.266-1.07.691-2.087-.228.538-.454 1.075.315-.746.713-1.45a3.35 3.35 0 0 0 .534-1.673 3.4 3.4 0 0 0-.081-1.794 3.4 3.4 0 0 0-.806-1.531 3.4 3.4 0 0 0-1.262-1.159l-1.075-.453a4.5 4.5 0 0 0-2.392 0l-1.076.453q-1.013.6-1.614 1.615c-.124.207-.28.398-.427.59l.704-.912a25 25 0 0 1-1.75 2.042q-.66.612-.93 1.447a3.4 3.4 0 0 0-.388 1.735q-.035.93.388 1.734.27.837.93 1.447l.91.705q1.054.61 2.272.614.598-.081 1.195-.161a4.5 4.5 0 0 0 1.987-1.158 24 24 0 0 0 1.397-1.595q.607-.757 1.19-1.532c.102-.135.207-.269.294-.414l-7.772-4.542c-.499.882-.889 1.824-1.264 2.764q-.359.905-.593 1.848l8.225-1.075c-.464-.617-.923-1.272-1.477-1.817a3.37 3.37 0 0 0-1.449-.93 3.4 3.4 0 0 0-1.733-.388 3.4 3.4 0 0 0-1.734.388 3.37 3.37 0 0 0-1.448.93q-.353.455-.704.911a4.5 4.5 0 0 0-.614 2.27l.16 1.197q.322 1.145 1.158 1.985"/><path fill="#512888" d="M167.186 309.728c.173 1.224.42 2.437.765 3.623.186-.6.303-1.218.38-1.84-.095-1.878-.22-3.752-.413-5.623a68 68 0 0 0-.732 3.84"/><path fill="#512888" d="M164.583 310.446c.175 1.224.423 2.434.764 3.622.316 1.1 1.418 2.036 2.604 1.982 1.212-.054 2.248-.804 2.604-1.982.168-.559.28-1.128.362-1.706.08-.573.105-1.03.075-1.592l-.057-.963a98 98 0 0 0-.316-3.919c-.073-.701-.244-1.407-.792-1.908a2.77 2.77 0 0 0-1.55-.744c-1.263-.169-2.67.617-2.963 1.934a70 70 0 0 0-.73 3.84c-.122.738-.12 1.412.27 2.081.33.56.97 1.094 1.614 1.241.691.157 1.467.123 2.08-.272.556-.358 1.13-.934 1.242-1.614.212-1.286.45-2.567.733-3.84l-5.304-.718q.147 1.44.248 2.883.05.703.091 1.406c.027.475.115.996.055 1.467l.097-.718c-.08.579-.194 1.148-.363 1.707h5.208a27 27 0 0 1-.765-3.623c-.09-.62-.727-1.311-1.241-1.612-.579-.34-1.431-.483-2.08-.273-.654.21-1.284.616-1.614 1.24l-.272.645q-.195.719 0 1.436"/><path fill="#512888" d="M164.422 313.158c.008.15.023.302.032.453l.23-2.548-.13-.375q.031-.247.066-.493l.104.415.032-.353q.225.214.419.529-.083.467-.173.934l.183.73.273-1.141c.038.081.073.17.11.258l.115-.459-.08-.4.071-.303c-.112-.876-.158-1.762-.084-2.644q-.095.924-.23 1.843a97 97 0 0 0-.953-3.915c-.033.632-.05 1.266-.065 1.9-.066.225-.139.448-.205.671l.056.225q.069-.314.14-.628c-.008.384-.008.768-.009 1.151l.246.987-.024.091q.03.018.056.037l.008.03c-.027.145-.066.289-.089.435l-.062-.18-.124.458c.008.333.024.666.036.998a19.5 19.5 0 0 0-.043 3.148l.11-1.23c-.006-.207-.015-.416-.016-.624"/><path fill="#512888" d="m161.722 313.158.032.453c.1 1.406 1.17 2.769 2.7 2.7 1.57-.07 2.564-1.189 2.7-2.7.108-1.188.396-2.493.005-3.64l.096.717.02-.165-.096.718.045-.328h-5.207q.052.208.103.415c.327 1.304 1.674 2.106 2.963 1.934 1.4-.19 2.219-1.295 2.34-2.652l.033-.353q-2.305.954-4.61 1.91c.478.48-.266-.424-.003-.018q-.135-1.042-.272-2.081c-.075.43-.163.858-.221 1.292-.085.63.082 1.207.232 1.808.275 1.103 1.446 2.033 2.603 1.983 1.162-.053 2.32-.797 2.603-1.983l.274-1.143-4.935.645-.163-.385c.232.563.469 1.017.968 1.401.455.353 1.044.608 1.635.58 1.174-.052 2.304-.796 2.604-1.981q.054-.206.104-.413c.153-.662.063-1.237-.07-1.881v1.434c.102-.423.187-.846.138-1.283q-.045-.395-.068-.792-.043-.795.015-1.589c.106-1.411-1.317-2.761-2.7-2.7-.697.031-1.422.26-1.909.79-.512.56-.712 1.16-.791 1.91q-.07.673-.16 1.342l.097-.717-.07.5h5.207a103 103 0 0 0-.953-3.915c-.346-1.302-1.66-2.11-2.962-1.935-1.362.183-2.274 1.296-2.342 2.653a80 80 0 0 0-.065 1.9l.096-.717c-.067.223-.15.445-.204.67-.144.58-.086 1.096.055 1.661.276 1.105 1.448 2.035 2.604 1.982 1.146-.05 2.343-.793 2.603-1.982l.14-.629q-2.652-.358-5.303-.717c-.007.382-.025.77-.009 1.151.024.58.203 1.147.343 1.704v-1.435l-.025.091c-.323 1.196.226 2.396 1.241 3.05q.03.017.057.035-.621-.806-1.24-1.613l.006.03v-1.435l-.09.435h5.208l-.061-.18c-.371-1.09-1.377-2.037-2.604-1.982-1.186.053-2.284.799-2.603 1.982-.258.953-.182 1.898-.24 2.872-.047.817-.038 1.633.012 2.45.087 1.406 1.18 2.767 2.7 2.7 1.571-.07 2.564-1.19 2.7-2.7.056-.624.102-1.228.094-1.854-.018-1.412-1.23-2.766-2.7-2.7-1.447.064-2.72 1.186-2.7 2.7.008.626-.038 1.23-.094 1.854h5.4c-.085-1.387.044-2.762.006-4.146l-.095.718.124-.459h-5.207l.06.18c.373 1.09 1.378 2.037 2.605 1.983 1.122-.05 2.377-.793 2.603-1.983.118-.619.284-1.241.089-1.87-.224-.722-.671-1.273-1.304-1.68l1.24 3.048c.233-.86-.014-1.68-.222-2.511l.097.716q0-.575.009-1.151c.024-1.345-1.046-2.478-2.342-2.651-1.266-.172-2.665.617-2.962 1.934l-.14.629h5.207l-.056-.226v1.435c.33-1.086.312-2.166.367-3.29l-5.303.719c.345 1.298.66 2.605.953 3.916.248 1.107 1.468 2.032 2.603 1.981.48-.02.939-.144 1.363-.367.514-.273 1.156-1.018 1.24-1.614.121-.852.238-1.706.327-2.562h-5.4c-.066.885-.024 1.764.084 2.644l.097-.717c-.11.461-.185.904-.121 1.379.035.258.078.505.13.76v-1.435q-.059.228-.116.457h5.207a48 48 0 0 0-.382-.903c-.163-.375-.624-.767-.968-.97-.525-.306-1.126-.399-1.722-.32-1.022.137-1.995.893-2.245 1.935l-.272 1.141h5.206q-.09-.365-.184-.73v1.436c.128-.66.312-1.344.222-2.011-.11-.823-.585-1.5-1.16-2.08-.769-.772-1.962-.975-2.951-.557-1.047.442-1.56 1.364-1.659 2.467l-.032.353 5.304-.719-.104-.413c-.276-1.105-1.447-2.035-2.604-1.983a3.2 3.2 0 0 0-1.362.368c-.512.271-1.158 1.02-1.24 1.615-.057.398-.168.81-.163 1.21.005.44.097.717.225 1.093l-.096-.718-.23 2.548h5.4l-.032-.453c-.093-1.407-1.175-2.769-2.7-2.7-1.383.062-2.8 1.19-2.7 2.7"/><path fill="#512888" d="M165.674 310.405c.022.17.03.342.058.512l-.048.192q.234 1.139.443 2.284a12 12 0 0 0-.56-1.827q-.237.942-.476 1.883l1.42 2.422c-.016-.25-.052-.604-.111-1.01.022-.484.026-.967.04-1.449l.044.113.002 1.974c.04-.528.096-1.056.148-1.583.033.074.055.152.088.225.263-1.14.358-2.316.308-3.485.047-.31.105-.617.156-.928a25.5 25.5 0 0 1-.248-4.602"/><path fill="#512888" d="M162.974 310.405q.02.172.035.342.165-.89-.025.362c0 .435.137.909.222 1.339q.167.83.318 1.662l5.208-1.435a13 13 0 0 0-.561-1.825c-.43-1.08-1.334-2.04-2.604-1.984-1.172.053-2.304.798-2.603 1.984l-.334 1.318c-.244.965-.326 1.807.18 2.731.433.79.914 1.559 1.37 2.335.582.992 1.919 1.607 3.05 1.241 1.075-.348 2.07-1.395 1.982-2.604q-.016-.224-.04-.447-.02-.183-.044-.365-.195-1.149-.058-.562.06.338.045-.051.004-.154.007-.31l.018-.724-5.304.717-.052-.407v.296l.001.494.001.987c.001 1.413 1.24 2.766 2.7 2.7 1.558-.069 2.58-1.188 2.7-2.7.042-.528.096-1.055.15-1.583l-5.305.718.087.225c.422 1.08 1.339 2.04 2.604 1.982 1.148-.05 2.34-.794 2.603-1.982a18 18 0 0 0 .39-2.759c.007-.097.098-1.213.022-1.237.002 0-.129.646-.027.047q.071-.41.129-.823.12-.538-.05-1.077l.041.302c-.059-.071-.062-.53-.072-.624a25.25 25.25 0 0 1-.12-3.562c.048-1.342-1.065-2.48-2.341-2.651-1.28-.172-2.647.62-2.962 1.934l-1.265 5.278c-.328 1.372.432 2.99 1.886 3.323 1.388.314 2.97-.418 3.323-1.887q.63-2.64 1.263-5.279l-5.304-.718c-.064 1.792.1 3.548.344 5.32v-1.436c-.072.43-.146.856-.202 1.288-.064.462-.03.924-.044 1.39-.01.292.039.758-.073 1.029l.03-.206a13.41 13.41 0 0 1-.174.913h5.206a6 6 0 0 1-.086-.226c-.484-1.268-1.551-2.124-2.963-1.934-1.41.19-2.205 1.296-2.342 2.652-.052.528-.106 1.055-.148 1.583h5.4c0-.856.166-2.005-.142-2.805-.489-1.268-1.545-2.125-2.963-1.934-1.338.18-2.304 1.296-2.34 2.652-.013.447-.037.897-.036 1.345q-.026.413.091.821-.069-.54-.034-.242c.015.178.036.356.05.535l5.031-1.361q-.71-1.213-1.421-2.423.137 1.04.272 2.08l.477-1.883h-5.207c.237.594.413 1.205.56 1.826.322 1.376 1.97 2.323 3.321 1.886 1.492-.483 2.16-1.829 1.887-3.321q-.21-1.144-.446-2.284v1.436c.126-.497.14-.93.088-1.422-.078-.736-.25-1.367-.79-1.909-.469-.467-1.237-.82-1.91-.79-1.335.06-2.86 1.195-2.7 2.7"/><path fill="#512888" d="M168.326 308.819c.122.893.113 1.798.003 2.692.04.782.088 1.563.109 2.346.084-.345.15-.693.215-1.042.017-1.34-.084-2.68-.327-3.996"/><path fill="#512888" d="M165.626 308.819c.11.83.115 1.669.026 2.5-.044.417.013.849.033 1.267q.035.636.053 1.27c.02.675.281 1.44.791 1.91.446.41.948.663 1.552.743.574.077 1.218.003 1.72-.32.58-.374 1.08-.925 1.241-1.614.149-.632.31-1.31.312-1.955q.003-.638-.03-1.274a26 26 0 0 0-.393-3.245c-.116-.632-.706-1.3-1.241-1.613-.58-.34-1.433-.483-2.082-.273-.652.212-1.282.617-1.612 1.24l-.274.646a2.74 2.74 0 0 0 0 1.436q.089.482.154.967l-.097-.718c.13 1.005.184 2.016.174 3.03l.095-.719q-.093.524-.213 1.042l5.303.718a52 52 0 0 0-.053-1.271c-.02-.418-.077-.85-.033-1.267.088-.831.083-1.67-.026-2.5a2 2 0 0 0-.233-1.04 2 2 0 0 0-.558-.869c-.468-.468-1.235-.821-1.909-.791-.698.03-1.423.262-1.908.791-.448.488-.882 1.219-.792 1.909M164.46 310.408l.086-.322a1 1 0 0 0-.222-.12 71 71 0 0 1 0-.958q-.066-.26-.13-.523c-.051.232-.106.461-.155.693q.134.39.267.783a1.2 1.2 0 0 0-.41-.07 90 90 0 0 0-1.091 6.647l1.53-5.672q-.008-.426-.01-.854z"/><path fill="#512888" d="m167.063 311.125.087-.32c.316-1.175-.215-2.424-1.241-3.05a1.3 1.3 0 0 0-.223-.12l1.34 2.331c-.007-.753-.045-1.461-.23-2.198-.276-1.104-1.447-2.034-2.603-1.982-1.148.052-2.34.794-2.603 1.982-.132.589-.284 1.16-.202 1.768.054.404.184.76.315 1.142q1.66-1.66 3.322-3.32c-.365-.107-.751-.146-1.13-.167-1.105-.066-2.381.877-2.603 1.981-.49 2.44-.876 4.897-1.188 7.366-.077.61.353 1.507.79 1.909.447.41.949.662 1.551.743 1.308.177 2.61-.627 2.963-1.934l.91-3.372.455-1.685c.118-.437.244-.877.261-1.332.013-.283-.007-.572-.009-.855q-2.652.36-5.304.718l.135.395c.228.668.619 1.25 1.241 1.615.578.337 1.43.481 2.08.271 1.323-.428 2.375-1.89 1.886-3.322l-.135-.394c-.438-1.282-1.586-2.119-2.962-1.934-1.304.175-2.355 1.3-2.34 2.651q.001.428.009.855l.097-.718-1.53 5.671q2.65.36 5.302.718.05-.388.1-.777-.046.36-.096.718a93 93 0 0 1 .992-5.87l-2.604 1.981.136.008-.718-.097q.142.015.274.063c1.896.555 3.992-1.361 3.322-3.32l-.267-.784v1.435q.077-.345.153-.692h-5.206l.13.523-.096-.717q-.003.48.001.957c.006.888.493 1.934 1.337 2.332q.118.048.22.119l-1.239-3.049-.087.32c-.369 1.364.46 2.998 1.886 3.323 1.42.323 2.927-.427 3.32-1.886M168.703 312.567c.223-1.3.32-2.62.287-3.938z"/><path fill="#512888" d="M171.307 313.285c.26-1.54.419-3.094.384-4.657-.017-.702-.29-1.407-.791-1.91-.468-.467-1.238-.82-1.909-.79-.7.033-1.423.261-1.91.79l-.422.548a2.7 2.7 0 0 0-.368 1.362l-.289 3.939a2.03 2.03 0 0 0 .234 1.04q.163.503.558.869c.468.47 1.237.82 1.908.79.7-.03 1.423-.259 1.911-.79q.21-.273.422-.546.366-.63.367-1.363.144-1.97.29-3.94h-5.4a21 21 0 0 1-.174 3.188l.095-.717q-.049.377-.113.75-.171.54-.048 1.078.024.539.32 1.004c.328.56.97 1.094 1.614 1.241.691.157 1.466.123 2.08-.272.556-.359 1.125-.933 1.24-1.614M164.487 314.085c.024.328.044.656.07.984l.616-2.571-.206-.602a46 46 0 0 1-.48 2.189"/><path fill="#512888" d="M161.787 314.085q.033.492.07.984-.02.558.233 1.04.163.502.559.869l.546.422q.465.295 1.004.321.358.096.718 0a2 2 0 0 0 1.004-.321c.58-.374 1.075-.924 1.24-1.613l.55-2.296q.034-.137.066-.275l.096-.718-.096-.718q-.001-.006-.005-.01a4 4 0 0 0-.064-.191l-.137-.401-.272-.646a2.04 2.04 0 0 0-.695-.756 1.36 1.36 0 0 0-.596-.348 2.03 2.03 0 0 0-1.04-.232l-.718.096-.645.273a2.04 2.04 0 0 0-.758.695q-.358.392-.483.918c-.144.733-.3 1.464-.48 2.189-.17.692-.09 1.46.273 2.08q.253.473.695.758.392.357.918.484c.691.157 1.466.123 2.08-.273.583-.375 1.072-.923 1.242-1.613a49 49 0 0 0 .479-2.19h-5.207l.206.603v-1.436l-.616 2.571q2.652.36 5.304.718-.039-.492-.07-.984a2 2 0 0 0-.233-1.04 2 2 0 0 0-.558-.869 2 2 0 0 0-.869-.558 2 2 0 0 0-1.04-.233c-.698.03-1.423.261-1.91.791-.465.507-.84 1.197-.79 1.909"/><path fill="#512888" d="M161.994 308.382q-.094 1.442-.031 2.88c.257-.368.546-.7.857-.948.026-.086.047-.173.075-.259.002.069-.007.136-.007.204q.324-.24.67-.33l.336-1.175-.81-2.373a77 77 0 0 1-1.59 2.485c.191 1.09.244 2.143.033 3.103q.156-.286.338-.564a7.8 7.8 0 0 1 .129-3.023"/><path fill="#512888" d="M159.294 308.382q-.091 1.44-.031 2.88a2.78 2.78 0 0 0 .58 1.637c.345.446.837.839 1.402.967.475.109.96.109 1.436 0 .701-.16 1.217-.681 1.614-1.24q.09-.126.183-.25l-.423.548c.154-.194.315-.382.498-.548.25-.231.376-.319.6-.7.178-.305.252-.586.345-.904l-5.303-.717a5 5 0 0 1-.007.204c-.041.938.544 1.866 1.338 2.33.775.455 1.96.548 2.725 0 .132-.093.265-.173.413-.241l-.644.272c.085-.034.17-.058.255-.088.57-.19 1.033-.487 1.404-.966.315-.408.467-.862.605-1.346.22-.771.434-1.539.16-2.34q-.377-1.107-.757-2.215c-.352-1.034-1.135-1.786-2.244-1.935a2.72 2.72 0 0 0-2.69 1.29 76 76 0 0 1-1.019 1.615c-.168.261-.347.515-.509.777a3 3 0 0 0-.333.736c-.132.48-.076.955 0 1.436q.044.27.083.542l-.098-.718c.088.69.117 1.382.034 2.073l.096-.717q-.033.245-.084.488c-.143.68-.12 1.471.272 2.08a2.8 2.8 0 0 0 1.291 1.104c1.203.507 2.717.08 3.371-1.104q.125-.226.263-.445c.155-.246.268-.41.349-.764l.096-.718a55 55 0 0 0-.111-.82l.096.716a8.3 8.3 0 0 1-.01-2.096l-.097.716q.056-.414.155-.82c.166-.698.093-1.457-.273-2.082-.327-.56-.97-1.094-1.613-1.241-.691-.157-1.467-.123-2.081.273-.58.373-1.075.924-1.24 1.613a11.7 11.7 0 0 0-.31 2.22c-.03.756.074 1.491.18 2.24l.273-2.082q-.18.277-.339.565l4.935 2.08a10 10 0 0 0 .23-2.221c-.014-.776-.131-1.553-.26-2.318l-.274 2.08a80 80 0 0 0 1.59-2.484l-4.935-.644.81 2.371v-1.435l-.336 1.176q.942-.944 1.886-1.887c-.461.13-.924.323-1.315.602l4.062 2.332q.006-.102.007-.204c.023-1.345-1.046-2.477-2.342-2.65a2.7 2.7 0 0 0-2.962 1.932l-.074.259.694-1.192c-.507.417-.903.966-1.279 1.496l5.03 1.363q-.059-1.441.032-2.881c.043-.665-.332-1.45-.791-1.91-.468-.468-1.236-.82-1.91-.79-.697.03-1.422.26-1.908.79-.502.548-.743 1.165-.791 1.91"/><path fill="#3e0f6b" d="M162.248 307.609c2.374-.987 3.31-3.545 2.783-4.874-.536-1.35-2.91-2.251-5.147-.766-.351.628-.75.9-.989 1.023-1.118.583-2.695-.01-3.872-1.538a22.8 22.8 0 0 1 2.43 6.92 24 24 0 0 1 .241 6.774c.526-1.933 1.289-2.257 1.517-2.328 1.36-.433 3.486 1.721 4.944 5.724a62 62 0 0 1-4.293-11.776 62 62 0 0 1-.79-3.54 14.8 14.8 0 0 0 3.176 4.38"/><path fill="#3e0f6b" d="M164.52 311.494c2.332-1.04 4.111-3.3 4.832-5.72.891-2.989-.166-6.023-2.725-7.792-2.559-1.767-6.125-1.587-8.745-.065a5.4 5.4 0 0 0-1.885 1.78c-.54.838.647-.657.095-.143l.643-.51q-.341.186.252-.094.644-.24.18-.113.409-.062.818-.123c-.75.093 1.105.266.397.034 1.175.386.639.283.258.072-.668-.372.665.744.118.075-.175-.213-.378-.406-.554-.624-.651-.806-2.177-1.363-3.181-1.318-1.017.046-1.919.342-2.728.968-1.793 1.385-2.24 3.81-1.158 5.804q.322.593.613 1.204c.094.2.175.41.275.61-.62-1.22-.208-.494-.085-.177a23 23 0 0 1 1.051 3.572c.067.323.121.645.181.969.19 1.03-.067-.841.016.091.06.69.12 1.378.136 2.07a25 25 0 0 1-.13 3.083c-.106 1.034.57 2.495 1.319 3.182.743.682 1.578 1.103 2.583 1.238a4.505 4.505 0 0 0 4.937-3.224q.078-.282.173-.558l-.27.614c.11-.146.196-.362.283-.53.333-.634-.76.888-.342.458.428-.437-1.055.738-.603.47.457-.271-1.314.485-.867.36.593-.163-1.366.1-.766.11-1.4-.021-1.182-.206-.73-.063-1.301-.41-.959-.382-.515-.168.351.17-.972-.889-.393-.3.13.133.269.256.395.393.122.132.617.752.113.101-.518-.668.01.042.11.194.282.431.535.881.767 1.34.129.255.243.516.365.773q.203.458-.16-.383.116.292.223.587l8.225-3.468a60 60 0 0 1-.77-1.652q-.166-.37-.327-.74c-.373-.85.35.868.024.06a71 71 0 0 1-1.378-3.678 64 64 0 0 1-2.179-8.23l-8.224 3.466c.95 1.963 2.309 3.78 3.88 5.291 1.698 1.634 4.698 1.815 6.364 0 1.621-1.767 1.812-4.62 0-6.363a16 16 0 0 1-1.095-1.158c-.11-.131-.569-.707-.103-.112.493.631-.047-.083-.108-.174q-.198-.285-.38-.58c-.29-.468-.548-.951-.788-1.446-.973-2.013-3.704-2.648-5.619-1.84-2.152.907-3.042 3.075-2.605 5.307 1.114 5.691 3.02 11.171 5.537 16.392.97 2.014 3.707 2.648 5.618 1.841 1.91-.806 3.393-3.199 2.606-5.309-1.243-3.334-3.054-7.082-6.531-8.549-1.702-.718-3.645-.714-5.266.248-1.793 1.063-2.78 2.968-3.341 4.905l8.838 1.195c.564-5.485-.66-11.129-3.286-15.965l-7.067 5.453c1.439 1.782 3.646 2.977 5.947 3.071 2.537.103 4.692-1.369 5.98-3.467l-1.613 1.615q.194-.132.403-.24.463-.24-.401.156c-.017-.023 1.181-.23.191-.102-.857.113.055.087.16.04q-1.135-.19-.61-.077.169.03.33.088-1.041-.483-.575-.241.138.069.268.157l-.598-.457q.333.347-.103-.176-.39-.55-.148-.154l-.334-.784c.203.614-.1-1.29-.066-.602.01.216-.068.768.05-.097.122-.883.035-.28-.021-.072-.144.523-.38.447.185-.354-.114.16-.205.365-.298.535-.337.612.632-.654.254-.317-.135.12-.265.262-.388.393q-.391.33.1-.066.506-.38.072-.089c-.22.099-.428.23-.649.329-.964.428-1.8 1.715-2.067 2.688-.297 1.078-.163 2.512.453 3.468.62.96 1.542 1.807 2.689 2.068 1.251.285 2.303.065 3.467-.454"/><path fill="#3e0f6b" d="M171.8 306.64c2.373-.867 3.31-3.115 2.783-4.282-.536-1.186-2.91-1.977-5.148-.674-.35.552-.749.79-.988.9-1.117.511-2.695-.009-3.872-1.352a18.5 18.5 0 0 1 2.43 6.079c.502 2.448.414 4.538.241 5.95.526-1.698 1.288-1.981 1.517-2.045 1.36-.38 3.487 1.513 4.945 5.029a50.2 50.2 0 0 1-5.084-13.454c.98 1.83 2.302 3.118 3.177 3.848"/><path fill="#3e0f6b" d="M172.997 310.978c2.137-.833 4.085-2.089 5.209-4.17 1.097-2.032 1.493-4.715.23-6.784-1.383-2.266-3.732-3.334-6.31-3.501a7.9 7.9 0 0 0-3.285.523c-1.184.462-2.136.87-2.939 1.912q-.728.938.045-.055l-.154.15c.123-.103.994-.657.384-.353l1.075-.455a2.8 2.8 0 0 1-.683.183q.596-.083 1.196-.162a4 4 0 0 1-.556-.006l1.196.16c-.34-.05-.65-.14-.967-.27l1.075.454c-.257-.122-.51-.343-.769-.44q.887.713.358.247a5 5 0 0 1-.346-.361c-1.516-1.653-4.212-1.661-5.909-.352-1.72 1.332-2.346 3.883-1.158 5.805q.798 1.293 1.39 2.695l-.454-1.076a19.5 19.5 0 0 1 1.239 4.531l-.161-1.196c.212 1.598.23 3.203.043 4.804-.12 1.023.58 2.504 1.319 3.182.743.682 1.58 1.102 2.584 1.237 2.27.305 4.225-1.071 4.937-3.223q.076-.25.173-.491l-.454 1.075c.085-.197.17-.39.276-.577.22-.38.616-.656-.329.391.562-.622-1.11.645-.363.298l-1.075.454a1.5 1.5 0 0 1 .345-.09l-1.196.16c.144-.01.282-.006.426.013l-1.197-.16c.159.031.307.075.458.132l-1.076-.454c.168.072.32.162.48.247q.127.08.247.166-1.046-.832-.536-.403c.311.3.587.62.883.933-.993-1.047-.315-.406-.084-.052q.19.29.361.59c.34.588.631 1.201.897 1.827l7.77-4.542a53 53 0 0 1-2.307-4.746q.226.537.455 1.074a51 51 0 0 1-2.776-8.707l-8.225 3.467a17 17 0 0 0 3.88 4.76c.929.784 1.925 1.317 3.182 1.317 1.103 0 2.421-.49 3.182-1.318 1.534-1.671 1.92-4.742 0-6.364a15 15 0 0 1-1.476-1.428c-.126-.142-.243-.29-.367-.432-.347-.4.626.877.193.244a16 16 0 0 1-.823-1.32c-1.082-1.967-3.621-2.686-5.619-1.842-2.115.892-3.1 3.09-2.606 5.308 1.129 5.069 3.04 9.979 5.537 14.53 1.134 2.065 4.152 2.906 6.157 1.614.961-.62 1.807-1.542 2.067-2.69.288-1.262.046-2.288-.453-3.467-1.253-2.957-3.402-5.914-6.552-6.99-1.561-.535-3.315-.363-4.757.427-1.778.973-2.764 2.802-3.377 4.654l8.84 1.196c.574-4.918-.69-10.1-3.287-14.3l-7.067 5.453c1.51 1.647 3.655 2.774 5.91 2.853 2.576.092 4.589-1.269 6.018-3.312q-.808.807-1.614 1.616.234-.137.481-.25l-1.075.454a5.7 5.7 0 0 1 1.425-.396l-1.197.162c.372-.033.73-.03 1.103.013l-1.197-.162c.33.057.641.14.953.263l-1.075-.454c.48.224.79.686-.175-.248.49.475-.668-1.136-.253-.324q-.226-.537-.454-1.075c.062.156.102.305.128.469l-.161-1.197c.017.181.015.355-.001.537q.079-.599.161-1.197c-.045.306-.127.59-.245.876l.455-1.073c-.096.206-.208.395-.322.592-.337.583.872-.943.12-.203-.759.748.778-.429.13-.085-.256.137-.499.28-.767.398l1.074-.454-.212.083c-1.125.438-2.056.989-2.688 2.068-.564.964-.803 2.386-.454 3.467.688 2.125 3.188 4.058 5.536 3.143"/><path fill="#fff" d="m158.96 281.851-.012-.02q.075.179.152.358a.1.1 0 0 1-.01-.03l.055.4a.2.2 0 0 1 0-.04l-.055.4a.2.2 0 0 1 .013-.042q-.077.18-.151.359a.2.2 0 0 1 .023-.043l-.234.304a.2.2 0 0 1 .036-.036l-.303.236a.3.3 0 0 1 .07-.04l-.358.15q.046-.018.094-.032.294-.07.511-.268.245-.159.386-.421a1.13 1.13 0 0 0 .179-.558q.067-.299-.028-.598l-.15-.358a1.5 1.5 0 0 0-.539-.539l-.359-.15a1.5 1.5 0 0 0-.856.017l-.028.012-.007.002-.375.16a.2.2 0 0 0-.05.03c-.11.078-.221.157-.321.247q-.013.011-.021.022-.06.076-.12.155l-.12.154-.008.012q-.007.012-.012.024c-.055.123-.12.248-.16.38l-.005.024c-.063.4-.08.439.001.84l.009.024q.07.182.151.36l.002.006.01.013q.142.262.385.421.218.197.51.269.3.093.598.025.3-.012.559-.178l.303-.233q.279-.281.385-.662.028-.2.054-.4-.001-.406-.205-.756"/><path fill="#fff" d="M159.324 282.235a2.3 2.3 0 0 0-.365-.49 1 1 0 0 0-.096-.089c-.127-.104-.257-.216-.4-.299-.088-.053-.187-.088-.281-.127-.093-.04-.188-.086-.287-.113a3 3 0 0 0-.646-.083q.199.029.398.055-.016-.007-.033-.011.33.192.66.385l-.016-.016.235.303-.01-.02q.105.377.206.757l-.002-.024-.054.398a.2.2 0 0 1 .013-.05l-.151.357c.087-.19.24-.367.369-.533q-.119.152-.235.304.09-.117.186-.232-1.177-.152-2.356-.303a.3.3 0 0 1 .034.058q-.078-.179-.151-.358c.01.033.02.063.025.098l-.053-.399c.025.205.006.42.004.625-.003.325-.028.664.055.983a1.64 1.64 0 0 0 2.034 1.164c.422-.122.76-.411.995-.776.05-.08.09-.161.145-.236l-.233.304q.058-.07.124-.13l-2.355-.305c.125.237.283.466.46.665.2.227.47.372.754.467.403.136.882.063 1.244-.15.368-.216.626-.572.736-.982.025-.089.031-.198.043-.284.013-.094.032-.19.03-.287-.011-.38-.106-.78-.316-1.1-.204-.311-.52-.604-.897-.69l-.4-.053a1.15 1.15 0 0 0-.577.13.74.74 0 0 0-.33.192 1.1 1.1 0 0 0-.387.421l-.15.36q-.11.396 0 .796.027.174.092.338c.086.22.173.454.308.652.093.137.192.286.309.403.163.162.352.28.56.37.248.103.364.132.672.15.055.003.11 0 .165.007q-.199-.028-.399-.054.03.005.06.017l-.359-.15q.013.008.027.017c.328.2.788.252 1.156.151.348-.097.725-.366.896-.69.184-.349.276-.77.152-1.155a1.6 1.6 0 0 0-.69-.897 2 2 0 0 0-.414-.18c-.142-.043-.297-.05-.445-.061-.06-.005-.121-.002-.181-.008q.2.025.4.053a.2.2 0 0 1-.063-.018q.18.075.358.152l-.028-.017.304.235a.4.4 0 0 1-.071-.069l.234.304a1.6 1.6 0 0 1-.194-.331l.151.358a1.6 1.6 0 0 1-.108-.374l-2.742 1.155q.038.06.066.123-.075-.18-.151-.358.03.082.042.168l-.053-.398a1 1 0 0 1 0 .139l.053-.4a.6.6 0 0 1-.032.135l.151-.357-.019.026q.27-.268.538-.538-.01.008-.022.015l.358-.15q-.012.001-.025.005l.4-.054-.027-.003.4.054-.028-.01.358.15-.026-.015.304.233a.4.4 0 0 1-.066-.064l.234.304a3 3 0 0 1-.224-.361 1.5 1.5 0 0 0-.539-.539 1.1 1.1 0 0 0-.558-.177 1.13 1.13 0 0 0-.598.027 1.5 1.5 0 0 0-.662.386c-.154.136-.275.31-.392.477-.05.07-.083.149-.133.217l.233-.303a.2.2 0 0 1-.048.045l.303-.234-.029.016.358-.15-.032.008q.2-.024.4-.052a.2.2 0 0 1-.065 0l.757.204-.029-.012.303.235a.1.1 0 0 1-.038-.038q.119.15.235.304l-.012-.024.15.358a.3.3 0 0 1-.013-.054q.027.199.053.398c-.028-.248 0-.513.002-.764.001-.12.006-.24.001-.358q-.002-.044-.007-.086c-.015-.136-.025-.3-.06-.432-.023-.085-.06-.161-.096-.244-.036-.084-.061-.163-.109-.237a1.5 1.5 0 0 0-.538-.539 1.1 1.1 0 0 0-.557-.178q-.3-.066-.6.027a1.5 1.5 0 0 0-.66.385c-.261.315-.517.64-.74.985-.326.5-.351 1.151-.06 1.674.19.341.557.64.939.731.18.044.367.049.55.067q-.198-.028-.398-.054a1 1 0 0 1 .22.059q-.179-.076-.358-.151a1 1 0 0 1 .198.116l-.304-.234a1 1 0 0 1 .139.137l-.234-.304q.05.067.088.138c.17.326.55.595.896.69q.3.095.598.027.3-.013.558-.178c.32-.206.602-.514.689-.896a1.62 1.62 0 0 0-.151-1.157"/><path fill="#3e0f6b" d="M159.854 283.816c-.455-.446-.648-1.087-.818-1.702l1.13 1.515c.241.321.49.665.538 1.065a.5.5 0 0 1-.017.226c-.042.11-.144.183-.248.24a1.55 1.55 0 0 1-.714.184c-.345.003-.714-.104-1.022.055-.21.107-.372.334-.61.344-.159.006-.301-.09-.43-.185-.443-.319-.89-.64-1.258-1.044-.367-.403-.655-.898-.72-1.44-.054-.444.043-.892.178-1.318.063-.205.137-.411.268-.583.26-.347.702-.503 1.038-.777a5 5 0 0 1-.656.22c.101-.273.422-.395.712-.419.117-.01.237-.01.347-.048.178-.065.31-.227.492-.28-.26.025-.518.086-.761.181a1.8 1.8 0 0 1 1.512-.33"/><path fill="#3e0f6b" d="M163.035 280.634a3 3 0 0 1-.187-.213q.35.455.704.91a3 3 0 0 1-.328-.574l.453 1.074a8 8 0 0 1-.302-.913l-8.224 3.467q.422.568.847 1.135c.255.342.533.674.714 1.062l-.455-1.075c.052.127.087.249.108.383l-.161-1.196q.01.075.002.152.08-.597.16-1.196l-.019.074.454-1.075-.042.075q.35-.455.704-.91l-.06.063.912-.703a1.4 1.4 0 0 1-.243.146l1.075-.452a2 2 0 0 1-.406.12q.597-.081 1.196-.16c-.16.017-.314.015-.474.003-.382-.028-.66.012-1.067.067-.775.103-1.201.173-1.963.614-.421.244-.793.591-1.174.89l.911-.705a1.3 1.3 0 0 1-.2.125l1.076-.453a.4.4 0 0 1-.149.034l1.197-.16-.093-.008 1.195.161-.09-.028 1.076.454c-.28-.137-.53-.35-.777-.54q.458.353.911.705a5.4 5.4 0 0 1-.914-.877l.703.91a3.2 3.2 0 0 1-.39-.663l.454 1.075a2.6 2.6 0 0 1-.146-.555l.161 1.197a3 3 0 0 1 .003-.554q-.08.597-.16 1.195c.049-.35.14-.694.266-1.024l-.454 1.075c.051-.115.105-.22.177-.322q-.353.456-.703.911c.078-.096.163-.179.26-.258l-.91.704c.139-.102.284-.19.43-.282.446-.276.844-.62 1.258-.941l.704-.91a3.35 3.35 0 0 0 .535-1.674q.159-.6 0-1.196a3.34 3.34 0 0 0-.535-1.673 5.4 5.4 0 0 0-1.614-1.615 3.35 3.35 0 0 0-1.674-.534 3.4 3.4 0 0 0-1.794.081 6 6 0 0 1-.655.219l5.082 6.61a.5.5 0 0 1 .075-.133l-.704.91a.6.6 0 0 1 .11-.106l-.912.704a1 1 0 0 1 .136-.08q-.539.226-1.074.454.15-.063.31-.09l-1.196.16q.127-.012.256-.021c1.01-.083 1.13-.095 1.905-.423.378-.16.62-.295.953-.477l-1.074.453q.037-.013.075-.03a3.4 3.4 0 0 0 1.531-.804 3.4 3.4 0 0 0 1.159-1.263l.453-1.075a3.4 3.4 0 0 0 .08-1.794 2.24 2.24 0 0 0-.308-1.136 3.37 3.37 0 0 0-.93-1.448q-.455-.351-.91-.704a4.5 4.5 0 0 0-2.271-.614c-.65.076-1.334.114-1.958.342l3.467 8.224c.129-.095.26-.172.405-.237l-1.074.453a2.3 2.3 0 0 1 .452-.123l-1.196.16c.159-.017.31-.019.47-.003l-1.196-.16q.093.012.184.034c1.184.253 2.401.17 3.467-.454q.787-.425 1.263-1.159a3.4 3.4 0 0 0 .805-1.53c.264-1.152.207-2.445-.452-3.467-.616-.954-1.545-1.824-2.69-2.068-1.117-.24-2.024-.253-3.14-.017-.317.067-.6.21-.898.336-.337.143-.652.249-.941.464q-.786.425-1.264 1.159a3.4 3.4 0 0 0-.804 1.53q-.081.6-.161 1.197a3.4 3.4 0 0 0 .388 1.733q.16.573.577.993.477.736 1.264 1.159c1.02.539 2.34.866 3.467.454a3.4 3.4 0 0 1 .65-.168l-1.197.161c.038-.003.074-.01.112-.013l-1.197-8.838c-.437.167-.894.31-1.289.565-.092.06-.176.122-.277.167l1.074-.454a.7.7 0 0 1-.17.036l1.196-.16c-.485.038-.976.091-1.452.182-.303.058-.556.192-.849.316-.24.101-.436.162-.64.285a8 8 0 0 0-.972.75c-.17.165-.265.322-.433.537-.146.188-.326.37-.428.589q-.226.538-.453 1.075l-.16 1.197.16 1.196q.21.88.806 1.53.3.507.807.808.42.417.993.578.526.306 1.136.307a3.4 3.4 0 0 0 1.793-.08q.336-.091.657-.22l-4.378-7.52-.074.056q.456-.351.91-.704c-.578.411-1.14.729-1.686 1.224-.07.064-.128.128-.19.2-.264.312-.57.673-.778 1.026-.267.452-.45.958-.618 1.455-.242.715-.356 1.53-.382 2.269-.039 1.187.3 2.112.775 3.158.617 1.364 1.763 2.28 2.918 3.156.603.456 1.117.79 1.896 1.005.938.26 1.742.21 2.68-.012.957-.228 1.495-.747 2.247-1.333l-.91.704c.095-.073.183-.129.292-.176l-1.075.454a1 1 0 0 1 .198-.041l-1.196.16c.244-.012.485.033.73.028.61-.013 1.24-.084 1.816-.3.49-.182.91-.324 1.315-.599.716-.484 1.21-.963 1.675-1.678.748-1.152.77-2.528.505-3.818-.289-1.403-1.286-2.497-2.114-3.606a3.4 3.4 0 0 0-1.16-1.263 3.4 3.4 0 0 0-1.53-.805l-1.196-.16a3.4 3.4 0 0 0-1.734.388q-.572.159-.992.577-.736.476-1.159 1.263c-.565 1.07-.787 2.279-.455 3.467.388 1.38.967 2.647 1.976 3.688.795.821 2.046 1.318 3.182 1.318a3.4 3.4 0 0 0 1.734-.388 3.36 3.36 0 0 0 1.447-.93c.788-.858 1.373-1.984 1.318-3.182-.053-1.204-.466-2.303-1.318-3.182"/><path fill="#e101ff" d="m185.86 236.516.375-.195q-.834 2.294-1.67 4.589a69 69 0 0 1 4.056-5.964 11.7 11.7 0 0 1-2.466 4.496l1.683-5.377c-.127 3.428-2.41 6.363-3.419 9.64a22.7 22.7 0 0 1 2.334-3.74l-3.071 5.687 3.877-8.85c-.295 1.994-.747 3.96-1.197 5.924a18.7 18.7 0 0 0 2.57-7.055 34.1 34.1 0 0 1-5.886 13.088c-2.113 2.865-4.661 5.38-7.226 7.851-1.467 1.414-2.945 2.82-4.352 4.294a23.6 23.6 0 0 0 3.341-4.189q-1.332 1.197-2.668 2.393c.513-1.239 1.278-2.356 2.038-3.462a15 15 0 0 0-2.442 2.466 2.7 2.7 0 0 1 1.425-1.29 3.73 3.73 0 0 0-.102 1.97c.448-.075.793-.423 1.106-.753l3.06-3.237a37.2 37.2 0 0 1-4.18 6.194c2.555-2.512 5.31-4.831 7.66-7.537a34.6 34.6 0 0 0 7.646-15.257"/><path fill="#3e0f6b" d="m187.373 239.106.376-.195-4.407-3.388-1.67 4.589c-1.192 3.277 3.764 5.13 5.484 2.31a73 73 0 0 1 4.056-5.96l-5.484-2.312c-.354 1.155-.904 2.243-1.694 3.171l5.015 2.92q.84-2.69 1.683-5.379l-5.894-.797c-.192 3.098-2.371 5.943-3.312 8.844-1.037 3.203 3.935 5.358 5.485 2.312a25 25 0 0 1 2.332-3.741l-5.18-3.027q-1.537 2.84-3.073 5.686l5.181 3.027 3.88-8.85q-2.743-1.154-5.485-2.312c-.307 1.994-.746 3.959-1.196 5.925-.75 3.27 3.692 5.297 5.482 2.31 1.432-2.385 2.433-5.02 2.873-7.771.254-1.597-.413-3.227-2.097-3.69-1.5-.412-3.34.506-3.69 2.095-1.017 4.634-2.961 9.022-5.887 12.777-3.184 4.085-7.227 7.41-10.804 11.133-2.674 2.784 1.526 7.002 4.243 4.242a29.5 29.5 0 0 0 3.81-4.796c.798-1.247.373-3.013-.773-3.87-1.233-.92-2.798-.788-3.938.235q-1.335 1.197-2.668 2.393l4.71 3.636c.545-1.237 1.276-2.35 2.039-3.462.836-1.22.345-3.035-.773-3.87-1.271-.951-2.75-.741-3.938.234a17 17 0 0 0-2.444 2.465l4.712 3.636c.323-.547-.217.047.349-.214q-2.203-1.696-4.406-3.388c-.338 1.238-.31 2.31-.102 3.565.255 1.555 2.271 2.553 3.69 2.095 2.282-.737 3.894-3.074 5.49-4.76l-4.712-3.635c-1.073 1.967-2.287 3.854-3.712 5.586-1.027 1.25-1.222 3.019 0 4.242 1.162 1.16 3.08 1.136 4.243 0 3.616-3.532 7.41-6.79 10.327-10.962 2.751-3.935 4.703-8.475 5.751-13.156.355-1.58-.48-3.246-2.095-3.69-1.507-.415-3.335.507-3.69 2.096-.949 4.233-2.658 8.162-5.147 11.722-2.598 3.715-6.168 6.602-9.389 9.748q2.124 2.121 4.243 4.242c1.754-2.13 3.328-4.375 4.65-6.8 1.587-2.916-2.301-6.184-4.713-3.636l-1.87 1.978q-.423.45-.85.898-.168.18-.34.36-.577.522.218-.018l3.69 2.095c.012.069.08-.29.103-.375.742-2.709-2.122-4.443-4.406-3.388-1.072.494-1.91 1.36-2.502 2.366-.752 1.279-.407 2.988.772 3.87 1.09.815 2.99.945 3.94-.234a16.8 16.8 0 0 1 2.442-2.465l-4.711-3.636c-.763 1.112-1.495 2.225-2.038 3.462-.603 1.369-.515 2.91.771 3.87 1.233.92 2.8.788 3.94-.234l2.668-2.394q-2.356-1.816-4.711-3.635a22 22 0 0 1-2.873 3.582l4.243 4.242c3.907-4.068 8.215-7.71 11.645-12.219 3.208-4.217 5.453-9.165 6.59-14.338q-2.896-.796-5.787-1.595c-.363 2.281-1.079 4.36-2.266 6.34l5.482 2.311c.45-1.965.89-3.93 1.198-5.924.228-1.477-.246-2.94-1.737-3.54-1.25-.503-3.139-.158-3.745 1.229q-1.94 4.424-3.88 8.85c-.65 1.48-.435 3.219 1.078 4.103 1.365.799 3.33.354 4.103-1.076q1.537-2.842 3.072-5.686c.77-1.425.354-3.266-1.076-4.104-1.536-.899-3.127-.222-4.104 1.077a25 25 0 0 0-2.334 3.74l5.484 2.31c1.157-3.57 3.285-6.58 3.525-10.438.216-3.482-4.914-3.925-5.893-.798l-1.682 5.377c-.866 2.767 3.051 5.226 5.013 2.92 1.487-1.746 2.562-3.62 3.237-5.82.435-1.413-.4-3-1.737-3.539-1.491-.6-2.818-.002-3.746 1.228a74 74 0 0 0-4.055 5.962l5.484 2.313 1.67-4.59c.955-2.623-2.266-4.498-4.408-3.387l-.376.195c-1.438.745-1.864 2.757-1.077 4.104.854 1.459 2.663 1.825 4.105 1.076"/><path fill="#e101ff" d="M171 97.542c-3.697-.617-5.801 1.783-7.187 4.586-1.236 2.494.39 4.839 2.428 5.792 11.546 5.412 15.786 17.308 23.506 26.09 3.27 3.717 6.008 7.905 8.918 11.93 4.029 5.573 4.228 8.138-1.664 11.781-6.5 4.02-9.838 9.116-12.196 16.292-2.165 6.583-7.842 11.246-15.048 13.036-2.333.579-4.936.56-5.944-2.047-.868-2.24.633-3.877 2.643-5.11 5.547-3.4 10.945-6.755 12.853-13.835 1.97-7.31-.42-13.447-7.488-16.363-6.244-2.578-12.823-3.058-19.034-.56-10.587 4.256-13.715 12.06-10.569 24.52.625 2.475 2.647 5.588-1.208 6.706-3.439.996-4.301-2.426-5.329-4.836-2.84-6.66-3.299-13.387.163-19.967 1.55-2.945.958-5.139-.815-7.872-4.298-6.617-10.246-11.827-14.815-18.216-2.412-3.372-2.297-5.654.588-8.378 4.312-4.068 8.383-8.386 12.683-12.466 6.162-5.849 6.364-8.993 1.049-15.78-1.856-2.368-4.438-3.708-6.883-5.047-3.219-1.759-6.825 1.426-5.75 5.69 1.293 5.139-.852 8.278-3.985 11.628-4.19 4.479-7.858 9.459-12.219 13.75-3.546 3.492-3.614 6.785-1.248 10.692 5.643 9.321 10.75 19.022 17.052 27.873 5.112 7.178 6.844 14.578 6.044 23.067-1.169 12.366-2.232 24.748-2.984 37.144-.201 3.305-1.457 4.912-4.381 5.726-4.786 1.335-9.489 3.337-14.36 3.914-6.723.795-7.797 4.795-7.835 10.344-.069 9.94-.614 19.88-.54 29.817.033 4.394-2.1 5.236-5.668 5.045-3.81-.203-7.643-.71-11.424-.453-2.657.181-5.458 1.455-5.94 4.57-.47 3.041 2.158 4.428 4.362 5.375 8.065 3.46 15.983 7.334 24.727 9.009 3.768.72 5.391-.613 5.63-4.315.903-13.958 3.123-27.74 5.677-41.476 1.109-5.969 3.3-7.52 8.597-5.008 8.194 3.889 17.237 5.163 25.503 8.77 7.054 3.078 7.837 6.1 3.101 12.036-2.74 3.436-4.905 7.423-8.024 10.444-4.673 4.524-3.526 8.551-.448 13.161 3.399 5.087 6.774 10.232 9.608 15.64 4.31 8.225 3.92 8.953-4.518 12.651-3.35 1.47-6.52 3.168-9.451 5.381-1.787 1.35-3.577 2.887-2.902 5.122.711 2.348 3.381 2.383 5.386 2.394 7.284.042 13.68-3.205 20.202-5.9 1.407-.581 2.627-1.655 4.057-2.134 11.189-3.75 8.625-6.526 5.187-15.026-3.082-7.619-6.532-15.145-10.511-22.328-3.071-5.548-.61-8.92 3.46-11.582 22.833-14.93 33.499-36.007 27.649-62.603-2.76-12.54.374-21.011 7.469-30.003 5.325-6.748 9.505-14.316 13.423-21.986 1.619-3.173 2.828-6.259.32-9.636-9.787-13.185-19.502-26.426-29.28-39.621-.557-.754-1.414-1.284-2.132-1.918-2.91-2.961-6.423-4.828-10.505-5.51m-27.545 163.431c3.65-3.243 2.983-5.008-1.59-6.407-4.565-1.396-8.932-3.431-13.405-5.134-7.14-2.718-7.201-2.71-8.625 4.671-2.618 13.563-4.33 27.236-4.756 41.055-.09 2.927.155 6.311-4.457 5.31-15.128-3.282-29.455-8.471-41.646-18.375-5.496-4.465-5.06-10.202.903-14.037 5.09-3.272 10.796-3.918 16.604-3.166 3.647.473 4.61-.732 4.6-4.265-.026-10.149.384-20.3.446-30.448.033-5.353 1.845-8.573 7.704-9.387 4.89-.678 9.668-2.32 14.424-3.77 1.93-.589 3.978-1.353 3.913-4.198-.293-12.505 3.166-24.693 3.208-37.185.007-2.587-.488-4.852-1.7-7.123-4.788-8.95-9.598-17.858-15.29-26.301-12.006-17.81-12.002-18.06 2.544-33.986 4.582-5.019 7.524-10.01 7.321-17.27-.266-9.468 9.382-14.35 17.538-9.536 6.778 4.001 10.089 10.714 13.955 17.146 2.891 4.807 1.928 8.011-2.078 11.27-4.16 3.387-8.167 6.967-12.117 10.598-3.7 3.399-5.153 6.807-.627 11.048 3.757 3.515 6.886 7.708 10.246 11.64 1.342 1.569 2.604 2.46 4.915 1.629 14.88-5.354 28.933-6.749 39.37 8.594 1.92 2.82 4.062.756 5.977-.343 1.85-1.063 3.23-2.693 1.549-4.649-10.128-11.786-15.778-27.29-30.14-35.606-6.885-3.981-7.433-11.121-2.024-17.01 5.231-5.698 12.631-6.274 19.575-1.213 8.643 6.303 15.213 14.607 20.981 23.446 5.527 8.474 11.059 16.912 18.108 24.194 4.263 4.401 4.453 8.7 1.554 13.953-6.577 11.923-13.282 23.753-21.222 34.836-1.61 2.246-2.458 4.244-1.748 7.337 7.071 30.752-1.524 55.942-27.262 74.786-3.061 2.242-4.295 4.74-2.328 8.314 5.259 9.558 7.806 20.369 13.714 29.643 2.046 3.214 1.711 6.608-1.686 8.502-12.073 6.732-24.305 13.181-38.568 13.914-5.488.28-10.675-.549-12.949-6.279-2.194-5.533 1.114-9.73 4.98-13.043 3.317-2.843 7.142-5.15 10.938-7.356 2.754-1.6 3.373-3.261 1.661-5.974-2.655-4.21-5.099-8.554-7.763-12.758-7.807-12.32-7.834-12.304 1.803-23.214 1.143-1.292 2.168-2.716 3.45-3.853"/><path fill="none" stroke="#e101ff" stroke-miterlimit="10" stroke-width="1.99992" d="M171 97.542c-3.697-.617-5.801 1.783-7.187 4.586-1.236 2.494.39 4.839 2.428 5.792 11.546 5.412 15.786 17.308 23.506 26.09 3.27 3.717 6.008 7.905 8.918 11.93 4.029 5.573 4.228 8.138-1.664 11.781-6.5 4.02-9.838 9.116-12.196 16.292-2.165 6.583-7.842 11.246-15.048 13.036-2.333.579-4.936.56-5.944-2.047-.868-2.24.633-3.877 2.643-5.11 5.547-3.4 10.945-6.755 12.853-13.835 1.97-7.31-.42-13.447-7.488-16.363-6.244-2.578-12.823-3.058-19.034-.56-10.587 4.256-13.715 12.06-10.569 24.52.625 2.475 2.647 5.588-1.208 6.706-3.439.996-4.301-2.426-5.329-4.836-2.84-6.66-3.299-13.387.163-19.967 1.55-2.945.958-5.139-.815-7.872-4.298-6.617-10.246-11.827-14.815-18.216-2.412-3.372-2.297-5.654.588-8.378 4.312-4.068 8.383-8.386 12.683-12.466 6.162-5.849 6.364-8.993 1.049-15.78-1.856-2.368-4.438-3.708-6.883-5.047-3.219-1.759-6.825 1.426-5.75 5.69 1.293 5.139-.852 8.278-3.985 11.628-4.19 4.479-7.858 9.459-12.219 13.75-3.546 3.492-3.614 6.785-1.248 10.692 5.643 9.321 10.75 19.022 17.052 27.873 5.112 7.178 6.844 14.578 6.044 23.067-1.169 12.366-2.232 24.748-2.984 37.144-.201 3.305-1.457 4.912-4.381 5.726-4.786 1.335-9.489 3.337-14.36 3.914-6.723.795-7.797 4.795-7.835 10.344-.069 9.94-.614 19.88-.54 29.817.033 4.394-2.1 5.236-5.668 5.045-3.81-.203-7.643-.71-11.424-.453-2.657.181-5.458 1.455-5.94 4.57-.47 3.041 2.158 4.428 4.362 5.375 8.065 3.46 15.983 7.334 24.727 9.009 3.768.72 5.391-.613 5.63-4.315.903-13.958 3.123-27.74 5.677-41.476 1.109-5.969 3.3-7.52 8.597-5.008 8.194 3.889 17.237 5.163 25.503 8.77 7.054 3.078 7.837 6.1 3.101 12.036-2.74 3.436-4.905 7.423-8.024 10.444-4.673 4.524-3.526 8.551-.448 13.161 3.399 5.087 6.774 10.232 9.608 15.64 4.31 8.225 3.92 8.953-4.518 12.651-3.35 1.47-6.52 3.168-9.451 5.381-1.787 1.35-3.577 2.887-2.902 5.122.711 2.348 3.381 2.383 5.386 2.394 7.284.042 13.68-3.205 20.202-5.9 1.407-.581 2.627-1.655 4.057-2.134 11.189-3.75 8.625-6.526 5.187-15.026-3.082-7.619-6.532-15.145-10.511-22.328-3.071-5.548-.61-8.92 3.46-11.582 22.833-14.93 33.499-36.007 27.649-62.603-2.76-12.54.374-21.011 7.469-30.003 5.325-6.748 9.505-14.316 13.423-21.986 1.619-3.173 2.828-6.259.32-9.636-9.787-13.185-19.502-26.426-29.28-39.621-.557-.754-1.414-1.284-2.132-1.918-2.91-2.961-6.423-4.828-10.505-5.51Zm-27.545 163.431c3.65-3.243 2.983-5.008-1.59-6.407-4.565-1.396-8.932-3.431-13.405-5.134-7.14-2.718-7.201-2.71-8.625 4.671-2.618 13.563-4.33 27.236-4.756 41.055-.09 2.927.155 6.311-4.457 5.31-15.128-3.282-29.455-8.471-41.646-18.375-5.496-4.465-5.06-10.202.903-14.037 5.09-3.272 10.796-3.918 16.604-3.166 3.647.473 4.61-.732 4.6-4.265-.026-10.149.384-20.3.446-30.448.033-5.353 1.845-8.573 7.704-9.387 4.89-.678 9.668-2.32 14.424-3.77 1.93-.589 3.978-1.353 3.913-4.198-.293-12.505 3.166-24.693 3.208-37.185.007-2.587-.488-4.852-1.7-7.123-4.788-8.95-9.598-17.858-15.29-26.301-12.006-17.81-12.002-18.06 2.544-33.986 4.582-5.019 7.524-10.01 7.321-17.27-.266-9.468 9.382-14.35 17.538-9.536 6.778 4.001 10.089 10.714 13.955 17.146 2.891 4.807 1.928 8.011-2.078 11.27-4.16 3.387-8.167 6.967-12.117 10.598-3.7 3.399-5.153 6.807-.627 11.048 3.757 3.515 6.886 7.708 10.246 11.64 1.342 1.569 2.604 2.46 4.915 1.629 14.88-5.354 28.933-6.749 39.37 8.594 1.92 2.82 4.062.756 5.977-.343 1.85-1.063 3.23-2.693 1.549-4.649-10.128-11.786-15.778-27.29-30.14-35.606-6.885-3.981-7.433-11.121-2.024-17.01 5.231-5.698 12.631-6.274 19.575-1.213 8.643 6.303 15.213 14.607 20.981 23.446 5.527 8.474 11.059 16.912 18.108 24.194 4.263 4.401 4.453 8.7 1.554 13.953-6.577 11.923-13.282 23.753-21.222 34.836-1.61 2.246-2.458 4.244-1.748 7.337 7.071 30.752-1.524 55.942-27.262 74.786-3.061 2.242-4.295 4.74-2.328 8.314 5.259 9.558 7.806 20.369 13.714 29.643 2.046 3.214 1.711 6.608-1.686 8.502-12.073 6.732-24.305 13.181-38.568 13.914-5.488.28-10.675-.549-12.949-6.279-2.194-5.533 1.114-9.73 4.98-13.043 3.317-2.843 7.142-5.15 10.938-7.356 2.754-1.6 3.373-3.261 1.661-5.974-2.655-4.21-5.099-8.554-7.763-12.758-7.807-12.32-7.834-12.304 1.803-23.214 1.143-1.292 2.168-2.716 3.45-3.853Z"/><path fill="none" stroke="#fff" stroke-miterlimit="10" stroke-width=".75" d="M35.324 108.244q1.092-.309 1.75-1.164c.437-.567.657-1.28.657-2.127q0-1.792-1.244-2.781-1.245-.987-3.431-.987h-6.837v14.508h7.06q2.267 0 3.521-1.049 1.255-1.05 1.255-2.901 0-1.256-.74-2.235-.737-.976-1.991-1.264Zm-5.14-3.848h2.004q1.496 0 1.496 1.296 0 1.257-1.496 1.256h-2.004zm2.307 8.048h-2.307v-2.636h2.286q.729 0 1.123.35.395.35.396 1.009 0 1.276-1.498 1.277ZM45.076 115.837q1.7 0 3.055-.72a5.3 5.3 0 0 0 2.135-2.069q.78-1.347.78-3.136 0-1.792-.78-3.13a5.34 5.34 0 0 0-2.125-2.057q-1.345-.72-3.045-.72t-3.045.72a5.33 5.33 0 0 0-2.125 2.057q-.778 1.338-.778 3.13 0 1.81.768 3.148a5.25 5.25 0 0 0 2.115 2.057q1.346.72 3.045.72Zm0-3.5q-.83.002-1.356-.616-.526-.615-.526-1.81 0-1.174.547-1.79.545-.62 1.355-.619.81 0 1.366.62.556.615.556 1.79 0 1.173-.556 1.8a1.78 1.78 0 0 1-1.386.626ZM52.016 109.912q0 1.79.637 3.136.637 1.35 1.74 2.07t2.46.72q1.15 0 2.012-.474a3.4 3.4 0 0 0 1.325-1.274v1.603h3.967V104.15H60.19v1.606a3.4 3.4 0 0 0-1.315-1.277q-.85-.474-2.023-.473-1.356 0-2.459.72-1.102.721-1.74 2.057-.636 1.34-.637 3.13Zm8.174 0q0 1.13-.595 1.768a1.94 1.94 0 0 1-1.469.639 1.9 1.9 0 0 1-1.477-.648q-.586-.648-.586-1.76 0-1.13.586-1.759t1.477-.628q.87 0 1.469.638.594.637.595 1.75ZM70.389 106.187v-2.04h-3.967v11.546h3.967v-5.04c0-.852.209-1.447.627-1.793q.626-.511 1.922-.513h1.113v-4.301q-1.093 0-2.043.576a5.2 5.2 0 0 0-1.62 1.565ZM74.82 109.912q-.001 1.79.637 3.136.637 1.35 1.74 2.07a4.4 4.4 0 0 0 2.459.72q1.152 0 2.002-.474a3.4 3.4 0 0 0 1.316-1.274v1.603h3.987v-15.228h-3.987v5.268a3.45 3.45 0 0 0-1.346-1.265q-.86-.464-1.953-.463-1.355 0-2.467.72-1.115.721-1.751 2.057-.638 1.34-.638 3.13Zm8.173 0q0 1.13-.595 1.768a1.94 1.94 0 0 1-1.468.639 1.9 1.9 0 0 1-1.478-.648q-.585-.648-.586-1.76 0-1.13.586-1.759.587-.629 1.478-.628.87 0 1.468.638.595.637.595 1.75ZM98.372 115.837q1.7 0 3.055-.72a5.3 5.3 0 0 0 2.135-2.069q.78-1.347.779-3.136 0-1.792-.78-3.13a5.34 5.34 0 0 0-2.124-2.057q-1.346-.72-3.044-.72-1.701 0-3.046.72a5.33 5.33 0 0 0-2.125 2.057q-.78 1.338-.779 3.13 0 1.81.769 3.148a5.24 5.24 0 0 0 2.115 2.057q1.346.72 3.045.72Zm0-3.5q-.83.002-1.356-.616-.526-.615-.526-1.81 0-1.174.546-1.79.547-.62 1.357-.619.81 0 1.365.62.555.615.556 1.79 0 1.173-.556 1.8a1.78 1.78 0 0 1-1.386.626ZM112.09 104.15h-1.781q.04-.66.344-.958.305-.299.951-.298.284 0 .445.02v-3.438a10 10 0 0 0-.748-.019q-2.408 0-3.693 1.183t-1.284 3.406v.103h-1.235v3.353h1.235v8.191h3.985v-8.191h1.781zM35.343 125.977v-3.233H26.22v14.51h9.124v-3.232h-5.16v-2.614h4.554v-3.065h-4.553v-2.366zM44.935 125.708v6.195q0 .986-.506 1.555-.505.565-1.377.564-.849 0-1.366-.564-.515-.57-.515-1.555v-6.195h-3.945v6.708q0 2.287 1.143 3.612 1.143 1.33 3.125 1.33 1.154-.002 2.045-.485a3.77 3.77 0 0 0 1.396-1.265v1.646h3.986v-11.546zM55.153 127.746v-2.038h-3.967v11.546h3.967v-5.042q0-1.277.626-1.79.628-.514 1.923-.514h1.113v-4.303q-1.094 0-2.043.576a5.2 5.2 0 0 0-1.62 1.565ZM65.512 137.398q1.7 0 3.055-.72a5.3 5.3 0 0 0 2.135-2.068q.78-1.35.779-3.14 0-1.788-.78-3.127a5.33 5.33 0 0 0-2.124-2.059q-1.346-.72-3.044-.72-1.701 0-3.046.72a5.3 5.3 0 0 0-2.125 2.06q-.78 1.338-.779 3.127 0 1.81.769 3.148a5.25 5.25 0 0 0 2.115 2.06q1.346.72 3.045.72Zm0-3.499a1.7 1.7 0 0 1-1.356-.619q-.526-.615-.526-1.81 0-1.172.546-1.79.546-.616 1.357-.617.81.001 1.365.617.556.618.556 1.79 0 1.174-.556 1.803a1.78 1.78 0 0 1-1.386.626ZM77.065 127.314v-1.606H73.1v17.062h3.966v-7.124q.486.806 1.325 1.277.84.475 1.993.475 1.356 0 2.46-.72 1.101-.72 1.74-2.068.636-1.35.636-3.14 0-1.788-.637-3.127-.638-1.338-1.74-2.059a4.4 4.4 0 0 0-2.459-.72q-1.153.001-2.003.473a3.4 3.4 0 0 0-1.315 1.277Zm4.128 4.157q0 1.111-.597 1.759a1.92 1.92 0 0 1-1.467.648q-.87 0-1.467-.636-.597-.639-.597-1.771 0-1.111.597-1.75a1.93 1.93 0 0 1 1.467-.636q.87 0 1.467.626.597.627.597 1.76ZM97.704 131.348q.001-1.772-.73-3.077a5 5 0 0 0-2.022-2.006q-1.296-.701-2.975-.7-1.699 0-3.003.72a5.1 5.1 0 0 0-2.035 2.046q-.727 1.328-.727 3.14-.001 1.81.737 3.148a5.13 5.13 0 0 0 2.044 2.06q1.305.72 2.984.72 1.396-.001 2.55-.536a5.3 5.3 0 0 0 1.912-1.47 5.1 5.1 0 0 0 1.023-2.132h-4.23q-.425.906-1.417.905-.708 0-1.162-.463-.456-.462-.517-1.41h7.508q.06-.473.06-.945Zm-7.547-1.01q.14-.781.607-1.183.465-.4 1.193-.401.729 0 1.215.422.485.423.485 1.162zM98.675 131.47q0 1.79.637 3.14.638 1.349 1.74 2.068 1.103.72 2.46.72 1.15 0 2.012-.475a3.36 3.36 0 0 0 1.326-1.274v1.605h3.966v-11.546h-3.966v1.606a3.4 3.4 0 0 0-1.316-1.277q-.85-.474-2.023-.473-1.356 0-2.459.72t-1.74 2.06q-.637 1.338-.637 3.127Zm8.175 0q0 1.134-.597 1.772a1.93 1.93 0 0 1-1.468.636 1.9 1.9 0 0 1-1.476-.648q-.586-.647-.586-1.76 0-1.13.586-1.759.587-.629 1.476-.628.87 0 1.468.638.596.637.597 1.75ZM120.508 125.605q-1.154.001-2.043.485a3.9 3.9 0 0 0-1.417 1.265v-1.647h-3.966v11.546h3.966v-6.194q-.001-.99.506-1.555.504-.566 1.396-.566.85.001 1.355.566.507.565.507 1.555v6.194h3.965v-6.73q0-2.264-1.154-3.59-1.153-1.33-3.115-1.329ZM31.6 158.957q1.639 0 2.843-.597t1.842-1.625q.636-1.03.637-2.325 0-1.276-.637-2.11a4.6 4.6 0 0 0-1.518-1.296q-.88-.465-2.236-.936a19 19 0 0 1-1.375-.547 2.9 2.9 0 0 1-.78-.514.94.94 0 0 1-.313-.71q-.001-.494.283-.761.281-.266.728-.266.586-.001.96.328.376.33.397.987h4.31q-.104-2.14-1.59-3.324-1.486-1.182-3.976-1.183-1.538 0-2.751.516c-.81.343-1.445.844-1.902 1.512q-.689.997-.688 2.397-.001 1.38.637 2.232a4.3 4.3 0 0 0 1.497 1.299c.573.292 1.326.6 2.257.914q1.314.433 1.9.782.589.349.589.99 0 .492-.355.77-.355.277-.9.278-.607.001-.992-.35-.384-.35-.446-1.112h-4.229q.122 2.243 1.722 3.447 1.598 1.205 4.086 1.204ZM44.307 155.377q-.506 0-.717-.207-.214-.204-.214-.679v-3.869h2.064v-3.352h-2.064v-2.801H39.39v2.8h-1.396v3.353h1.396v3.81q0 4.38 4.35 4.381h1.719v-3.436zM54.91 147.27v6.194q0 .987-.505 1.553-.506.565-1.377.566-.85-.001-1.366-.566-.516-.566-.516-1.553v-6.194H47.2v6.708q-.001 2.282 1.144 3.611 1.141 1.328 3.125 1.328 1.153 0 2.044-.483a3.8 3.8 0 0 0 1.396-1.267v1.646h3.986V147.27zM60.514 153.03q0 1.792.638 3.139.636 1.349 1.74 2.068 1.102.72 2.459.72 1.152.001 2.002-.472a3.4 3.4 0 0 0 1.315-1.277v1.605h3.987v-15.23h-3.987v5.268a3.46 3.46 0 0 0-1.345-1.265q-.86-.464-1.953-.463-1.356 0-2.467.72-1.115.72-1.751 2.06-.638 1.338-.638 3.127Zm8.174 0q0 1.134-.595 1.77a1.94 1.94 0 0 1-1.468.637q-.891.001-1.478-.646-.585-.65-.586-1.761 0-1.133.586-1.757.587-.63 1.478-.63.87.002 1.468.637.594.639.595 1.75ZM85.766 152.907q0-1.77-.728-3.077a5 5 0 0 0-2.023-2.006q-1.296-.7-2.975-.7-1.7 0-3.005.72a5.07 5.07 0 0 0-2.033 2.049q-.728 1.327-.728 3.137 0 1.812.737 3.148a5.13 5.13 0 0 0 2.045 2.06q1.305.72 2.984.72 1.396 0 2.55-.536a5.3 5.3 0 0 0 1.912-1.47 5.05 5.05 0 0 0 1.022-2.132h-4.23q-.424.907-1.416.907-.709-.001-1.164-.463-.453-.463-.515-1.411h7.506q.06-.473.061-.946Zm-7.547-1.01q.141-.78.608-1.181.465-.4 1.193-.4.73-.002 1.214.422.486.42.486 1.159zM94.811 147.166q-1.153 0-2.043.483a3.9 3.9 0 0 0-1.417 1.267v-1.646h-3.966v11.543h3.966v-6.194q0-.989.506-1.553.505-.565 1.396-.566.85.001 1.356.566.506.564.506 1.553v6.194h3.966v-6.73q0-2.264-1.154-3.59t-3.116-1.327ZM106.81 155.377q-.506 0-.718-.207-.213-.204-.213-.679v-3.869h2.064v-3.352h-2.064v-2.801h-3.986v2.8h-1.396v3.353h1.396v3.81q0 4.38 4.351 4.381h1.72v-3.436zM114.62 158.957q1.437.001 2.5-.463 1.061-.464 1.638-1.265a3.03 3.03 0 0 0 .576-1.812c0-.835-.204-1.5-.617-1.984-.41-.49-.89-.84-1.436-1.061q-.82-.327-2.053-.598-1.033-.225-1.498-.441t-.465-.627q0-.33.253-.516.252-.183.739-.184.627 0 1 .297.375.3.476.855h3.581q-.203-1.812-1.476-2.921-1.276-1.113-3.5-1.114-1.499 0-2.56.495-1.062.493-1.61 1.327a3.33 3.33 0 0 0-.545 1.862q0 1.195.597 1.894c.397.465.865.804 1.405 1.008q.81.308 2.024.557 1.072.248 1.538.453t.466.636a.64.64 0 0 1-.284.538q-.284.204-.77.204-.626.001-1.05-.308a1.24 1.24 0 0 1-.506-.866h-3.845q.08 1.155.778 2.069.698.916 1.902 1.44 1.206.525 2.742.525ZM130.424 158.957q1.698 0 3.054-.72a5.3 5.3 0 0 0 2.136-2.068q.778-1.346.779-3.14 0-1.788-.78-3.127a5.33 5.33 0 0 0-2.125-2.059q-1.345-.72-3.045-.72-1.698 0-3.045.72a5.3 5.3 0 0 0-2.125 2.06q-.778 1.338-.778 3.127 0 1.812.769 3.148a5.25 5.25 0 0 0 2.115 2.06q1.345.72 3.045.72Zm0-3.499a1.7 1.7 0 0 1-1.357-.617q-.525-.616-.526-1.811 0-1.171.547-1.788.546-.62 1.355-.62.81 0 1.366.62.557.617.556 1.788.001 1.174-.556 1.802a1.78 1.78 0 0 1-1.385.626ZM144.142 147.27h-1.781q.04-.661.344-.958.304-.299.95-.298.285-.001.446.02v-3.437q-.263-.021-.748-.02-2.408 0-3.693 1.181-1.286 1.184-1.286 3.408v.104h-1.233v3.352h1.233v8.191h3.987v-8.19h1.781zM25.428 165.865v3.21h3.765v11.298h3.965v-11.297h3.805v-3.211zM49.285 174.466q0-1.768-.73-3.077a5 5 0 0 0-2.023-2.006q-1.294-.698-2.974-.698-1.7 0-3.004.72a5.08 5.08 0 0 0-2.034 2.047q-.728 1.328-.728 3.139t.738 3.149a5.1 5.1 0 0 0 2.044 2.057q1.305.721 2.984.72 1.395.001 2.55-.535a5.3 5.3 0 0 0 1.912-1.47 5.1 5.1 0 0 0 1.022-2.13h-4.229q-.425.905-1.418.904-.707 0-1.162-.463-.454-.461-.517-1.409h7.508q.06-.474.06-.948Zm-7.548-1.008q.14-.78.608-1.183.465-.4 1.193-.4t1.214.422c.323.28.486.67.486 1.161zM50.256 174.59q0 1.811.728 3.15a5.06 5.06 0 0 0 2.034 2.057q1.304.72 2.985.72 2.164 0 3.642-1.213 1.475-1.212 1.901-3.355h-4.208q-.344 1.13-1.417 1.13-.75.001-1.183-.635-.436-.64-.435-1.853 0-1.215.435-1.843.434-.627 1.183-.627 1.053 0 1.417 1.133h4.208q-.425-2.163-1.901-3.365-1.478-1.205-3.642-1.204-1.68 0-2.985.72a5.08 5.08 0 0 0-2.034 2.056q-.728 1.34-.728 3.13ZM70.651 168.725q-1.174 0-2.074.483-.9.486-1.425 1.267v-5.33h-3.966v15.228h3.966v-6.195q-.001-.987.505-1.553.505-.565 1.396-.566.85.001 1.355.566.506.566.506 1.553v6.195h3.966v-6.73q0-2.262-1.143-3.59-1.143-1.329-3.086-1.328ZM84.492 168.725q-1.154 0-2.043.483a3.96 3.96 0 0 0-1.417 1.267v-1.646h-3.967v11.544h3.967v-6.195q0-.987.506-1.553.505-.565 1.396-.566.849.001 1.356.566.506.566.506 1.553v6.195h3.966v-6.73q0-2.262-1.154-3.59-1.154-1.329-3.116-1.328ZM96.228 180.518q1.7 0 3.055-.72a5.3 5.3 0 0 0 2.135-2.07q.78-1.347.779-3.137 0-1.792-.78-3.13a5.34 5.34 0 0 0-2.124-2.056q-1.346-.72-3.045-.72-1.7 0-3.044.72a5.33 5.33 0 0 0-2.126 2.056q-.78 1.339-.779 3.13 0 1.81.769 3.149a5.26 5.26 0 0 0 2.115 2.058q1.346.72 3.045.72Zm0-3.5q-.83 0-1.356-.618-.526-.614-.526-1.81 0-1.173.546-1.79.546-.619 1.356-.619t1.366.62q.556.616.556 1.79t-.556 1.8a1.78 1.78 0 0 1-1.386.626ZM103.815 180.373h3.965v-15.228h-3.965ZM115.328 180.518q1.7 0 3.056-.72a5.3 5.3 0 0 0 2.134-2.07q.78-1.347.78-3.137 0-1.792-.78-3.13a5.34 5.34 0 0 0-2.124-2.056q-1.346-.72-3.045-.72-1.701 0-3.045.72a5.33 5.33 0 0 0-2.125 2.056q-.78 1.339-.78 3.13 0 1.81.77 3.149a5.26 5.26 0 0 0 2.114 2.058q1.346.72 3.045.72Zm0-3.5q-.83 0-1.355-.618-.527-.614-.526-1.81 0-1.173.545-1.79.546-.619 1.357-.619t1.366.62q.555.616.556 1.79 0 1.173-.556 1.8a1.78 1.78 0 0 1-1.387.626ZM127.104 168.685q-1.356 0-2.458.72t-1.741 2.056q-.637 1.34-.637 3.13t.637 3.137q.638 1.349 1.74 2.069a4.4 4.4 0 0 0 2.459.72q1.154 0 2.013-.473a3.4 3.4 0 0 0 1.326-1.275v1.48q0 2.307-2.024 2.306-.769 0-1.254-.309a1.32 1.32 0 0 1-.607-.864h-3.906q.224 2.161 1.8 3.416 1.58 1.255 4.21 1.255 1.961 0 3.249-.782 1.283-.782 1.89-2.088.608-1.308.608-2.933v-11.421h-3.966v1.605a3.37 3.37 0 0 0-1.326-1.277q-.86-.472-2.013-.472Zm3.339 5.906q0 1.13-.597 1.769a1.93 1.93 0 0 1-1.468.638 1.9 1.9 0 0 1-1.476-.648q-.586-.647-.586-1.76 0-1.13.586-1.758.587-.629 1.476-.63.87.001 1.468.64.596.636.597 1.749ZM144.546 168.829l-2.307 6.542-2.387-6.542h-4.41l4.652 11.05-2.711 5.989h4.31l7.204-17.04z"/></g></svg>