<svg xmlns="http://www.w3.org/2000/svg" xmlns:xlink="http://www.w3.org/1999/xlink" width="297.636" height="419.526"><defs><path id="b" d="M.033.157q.097.075.16.131a.7.7 0 0 1 .103.114.2.2 0 0 1 .042.111.08.08 0 0 1-.014.05Q.309.581.28.581A.05.05 0 0 1 .236.557.13.13 0 0 1 .221.485h-.19q.003.09.04.148a.2.2 0 0 0 .093.086.3.3 0 0 0 .13.027q.122 0 .182-.061.06-.06.06-.158a.3.3 0 0 0-.07-.195.8.8 0 0 0-.173-.163h.25v-.16h-.51z"/><path id="c" d="M.04.376Q.038.548.11.647q.07.1.22.1t.22-.1A.46.46 0 0 0 .62.376.47.47 0 0 0 .55.103q-.07-.1-.22-.1-.152 0-.221.1a.47.47 0 0 0-.07.273m.387 0q0 .09-.019.138Q.387.56.33.56.27.561.251.514A.4.4 0 0 1 .232.376q0-.092.019-.14Q.269.19.329.19t.079.047a.4.4 0 0 1 .018.14"/><path id="d" d="M.05.12v.162L.359.72h.215V.29H.65V.12H.573V0H.375v.12zM.39.499.252.29H.39z"/><path id="e" d="M0 0"/><path id="f" d="M.49.428V.265H.035v.163z"/><path id="g" d="M.57.558h-.3V.447q.019.02.053.032A.2.2 0 0 0 .396.49.196.196 0 0 0 .588.37.3.3 0 0 0 .61.253.25.25 0 0 0 .544.067.25.25 0 0 0 .358 0a.3.3 0 0 0-.144.029.21.21 0 0 0-.125.196h.19A.07.07 0 0 1 .3.185Q.318.168.35.168q.036 0 .054.024A.1.1 0 0 1 .42.256q0 .039-.02.06-.018.02-.054.02A.07.07 0 0 1 .303.322.05.05 0 0 1 .283.29h-.19V.73H.57z"/><clipPath id="a"><path fill-rule="evenodd" d="M0 419.526h297.636V0H0Z"/></clipPath></defs><g clip-path="url(#a)" data-name="Layer 1"><path fill="#070707" d="M.114 419.525H297.52V.485H.114Z"/><path fill="none" stroke="#30c7c0" stroke-miterlimit="10" stroke-width="1.5" d="M35.434 367.261q-4.133.782-6.518 4.022-2.38 3.24-2.381 8.193-.001 3.948 1.694 6.964a11.8 11.8 0 0 0 4.728 4.674q3.037 1.656 6.909 1.657 3.91 0 6.945-1.657a11.8 11.8 0 0 0 4.73-4.694q1.695-3.034 1.694-6.98 0-3.24-1.174-5.774-1.172-2.53-2.996-4.189-1.826-1.658-3.91-2.514h-7.077v13.63h5.25v-7.336q3.464 1.64 3.464 5.474 0 3.24-1.769 4.934-1.768 1.695-5.157 1.695-3.017-.001-4.805-1.583-1.786-1.582-1.787-4.338 0-1.49.558-2.588a4.24 4.24 0 0 1 1.602-1.733zM26.795 347.487h9.868v8.9h-9.868v7.3h26.253v-7.3H42.51v-8.9h10.538v-7.299H26.795zM26.795 336.018h26.254v-7.3H26.795ZM26.795 314.158v10.391h26.253v-10.391q0-4.096-1.693-7.206-1.696-3.108-4.675-4.803t-6.778-1.694q-3.834-.001-6.814 1.675t-4.636 4.785q-1.657 3.11-1.657 7.243Zm19.811.56v2.53H33.124v-2.53q.002-3.204 1.77-5.03 1.77-1.823 5.008-1.823 3.204 0 4.954 1.824t1.75 5.029ZM26.795 297.29h15.23q3.65 0 6.183-1.435 2.532-1.433 3.815-3.947 1.286-2.513 1.286-5.717 0-3.202-1.286-5.828-1.283-2.625-3.833-4.152-2.553-1.526-6.165-1.525h-15.23v7.297h15.23q2.085 0 3.259 1.025 1.172 1.023 1.172 3.035 0 2.01-1.154 2.998-1.154.986-3.277.986h-15.23zM26.795 263.364v7.3h26.253v-15.456h-5.586v8.156zM39.568 228.508q-.56-2.01-2.104-3.221-1.546-1.211-3.855-1.212-3.24 0-5.027 2.292-1.787 2.29-1.787 6.312v12.587h26.253V232.27q.001-4.173-1.9-6.48-1.898-2.31-5.25-2.309-2.27 0-4.04 1.358-1.77 1.36-2.29 3.669Zm-6.964 9.458v-3.686q-.002-2.755 2.346-2.755 2.271 0 2.271 2.755v3.686zm14.561-4.245v4.245h-4.767v-4.207q0-1.343.633-2.067.633-.726 1.825-.726 2.309 0 2.309 2.755ZM53.31 207.692q0-3.687-1.732-6.778a12.8 12.8 0 0 0-4.805-4.878q-3.072-1.788-6.944-1.788-3.874 0-6.945 1.788a12.67 12.67 0 0 0-4.787 4.86q-1.712 3.072-1.712 6.796 0 3.687 1.712 6.778a12.8 12.8 0 0 0 4.787 4.896q3.071 1.807 6.945 1.807t6.944-1.807a12.9 12.9 0 0 0 4.805-4.896q1.731-3.09 1.731-6.778Zm-6.778 0q0 2.83-1.807 4.431-1.806 1.603-4.896 1.601-3.129.001-4.935-1.6-1.806-1.602-1.807-4.432.001-2.793 1.807-4.413t4.935-1.62q3.054 0 4.877 1.62 1.826 1.62 1.826 4.413ZM39.568 174.214q-.56-2.01-2.104-3.223-1.546-1.21-3.855-1.21-3.24 0-5.027 2.29c-1.192 1.529-1.787 3.631-1.787 6.314v12.587h26.253v-12.997q.001-4.17-1.9-6.48-1.898-2.308-5.25-2.309-2.27 0-4.04 1.359-1.77 1.36-2.29 3.67Zm-6.964 9.458v-3.686q-.002-2.756 2.346-2.755 2.271-.001 2.271 2.755v3.686zm14.561-4.245v4.245h-4.767v-4.21q0-1.338.633-2.066.633-.724 1.825-.724 2.309 0 2.309 2.755ZM53.31 153.397q0-3.686-1.732-6.778a12.8 12.8 0 0 0-4.805-4.879q-3.072-1.786-6.944-1.786-3.874 0-6.945 1.786-3.074 1.79-4.787 4.86-1.712 3.072-1.712 6.797 0 3.687 1.712 6.777a12.75 12.75 0 0 0 4.787 4.896q3.071 1.809 6.945 1.807 3.873.002 6.944-1.807a12.9 12.9 0 0 0 4.805-4.896q1.731-3.09 1.731-6.777Zm-6.778 0q0 2.83-1.807 4.43-1.806 1.604-4.896 1.603-3.129.001-4.935-1.603-1.806-1.6-1.807-4.43.001-2.794 1.807-4.414t4.935-1.62q3.054 0 4.877 1.62 1.826 1.62 1.826 4.414ZM39.866 137.571q3.91 0 6.945-1.62a11.63 11.63 0 0 0 4.73-4.6q1.695-2.978 1.694-6.852c0-3.276-.875-6.034-2.626-8.266-1.75-2.237-4.127-3.674-7.131-4.32v7.858q1.49.707 2.272 1.953.78 1.25.781 2.887 0 2.532-1.806 4.04t-4.86 1.51q-3.015-.001-4.822-1.51-1.805-1.509-1.806-4.04 0-1.638.782-2.887.782-1.246 2.272-1.953v-7.858c-3.005.646-5.382 2.083-7.132 4.32q-2.625 3.35-2.625 8.266 0 3.874 1.694 6.852a11.63 11.63 0 0 0 4.73 4.6q3.035 1.62 6.908 1.62ZM26.795 108.56h15.23q3.65 0 6.183-1.432 2.532-1.435 3.815-3.948 1.286-2.514 1.286-5.717t-1.286-5.827q-1.283-2.627-3.833-4.152-2.553-1.529-6.165-1.527h-15.23v7.299h15.23q2.085 0 3.259 1.022 1.172 1.027 1.172 3.036 0 2.014-1.154 2.998-1.154.986-3.277.986h-15.23zM26.795 74.637v7.298h26.253V66.479h-5.586v8.158zM26.795 63.762h15.23q3.65.001 6.183-1.435 2.532-1.433 3.815-3.945 1.286-2.515 1.286-5.717 0-3.203-1.286-5.83-1.283-2.625-3.833-4.152-2.553-1.526-6.165-1.526h-15.23v7.298h15.23q2.085.002 3.259 1.025 1.172 1.025 1.172 3.036 0 2.01-1.154 2.998-1.154.986-3.277.986h-15.23zM26.795 37.137h26.254V29.84H26.795Z"/><use xlink:href="#b" fill="#ff3427" data-text="2" transform="matrix(0 -21.4849 -21.4849 0 79.588 153.752)"/><use xlink:href="#c" fill="#ff3427" data-text="0" transform="matrix(0 -21.4849 -21.4849 0 79.588 141.527)"/><use xlink:href="#b" fill="#ff3427" data-text="2" transform="matrix(0 -21.4849 -21.4849 0 79.588 127.411)"/><use xlink:href="#d" fill="#ff3427" data-text="4" transform="matrix(0 -21.4849 -21.4849 0 79.588 115.186)"/><use xlink:href="#e" fill="#ff3427" transform="matrix(0 -21.4849 -21.4849 0 79.588 100.34)"/><use xlink:href="#f" fill="#ff3427" data-text="-" transform="matrix(0 -21.4849 -21.4849 0 79.588 96.237)"/><use xlink:href="#e" fill="#ff3427" transform="matrix(0 -21.4849 -21.4849 0 79.588 83.818)"/><use xlink:href="#b" fill="#ff3427" data-text="2" transform="matrix(0 -21.4849 -21.4849 0 79.588 79.715)"/><use xlink:href="#c" fill="#ff3427" data-text="0" transform="matrix(0 -21.4849 -21.4849 0 79.588 67.49)"/><use xlink:href="#b" fill="#ff3427" data-text="2" transform="scale(21.4849 -21.4849)rotate(90 3.094 .61)"/><use xlink:href="#g" fill="#ff3427" data-text="5" transform="matrix(0 -21.4849 -21.4849 0 79.588 41.15)"/><path fill="#f74829" d="M224.608 390.88c.011 1.033-.478 1.484-1.572 1.585-.946.087-1.308-.2-1.431-1.179-.142-1.124-.255-2.252-.392-3.375-.082-.673.162-1.132.85-1.234.71-.104 1.502-.321 1.832.657.402 1.194.488 2.453.713 3.545"/><path fill="#fc3f2c" d="M261.199 335.673v.075c1.015 0 2.035.06 3.043-.017.9-.067 1.795-.898 1.783-1.576-.019-.935-.715-1.31-1.476-1.558-.66-.214-1.358-.23-2.047-.267a48 48 0 0 1-2.066-.15c-.857-.082-1.32-.559-1.354-1.429a21 21 0 0 1-.017-1.096c.046-4.064.104-8.127.142-12.19.014-1.5-.156-1.702-1.591-2.17-.927-.303-1.86-.59-2.772-.933-2.155-.812-2.412-1.318-1.91-3.582.607-2.726.439-5.406-.512-8.032-.235-.652-.437-1.309-.42-2.015.017-.755.358-1.28 1.126-1.344 2.429-.202 4.857-.38 7.291-.522.77-.044 1.234.377 1.154 1.208-.098 1.049-.182 2.102-.345 3.142-.303 1.922-.672 3.835-.989 5.755-.173 1.038.072 1.39 1.082 1.461.93.066 1.872.091 2.799.018.67-.052 1.603-.207 1.723-.848.1-.545-.746-.969-1.3-1.29-1.472-.853-1.57-1.052-1.311-2.695.497-3.138.689-6.29.35-9.46-.105-.974-.463-1.346-1.404-1.25-3.192.326-6.381.684-9.569 1.058-.94.11-1.696.561-2.044 1.507-.156.433-.3.91-.883.799-.581-.113-.701-.634-.728-1.131-.04-.73.005-1.464-.038-2.194-.154-2.525-2.29-4.115-4.752-3.566-.802.179-1.526.541-2.275.856-1.263.532-2.125 1.406-2.198 2.808-.076 1.463.748 2.424 2.006 3.07q1.084.56 2.129 1.182c.367.22.868.408.688.996-.17.563-.667.497-1.113.495-2.758-.012-5.235-2.069-5.659-4.783-.413-2.657-.265-5.35-.373-8.026-.148-3.661-.34-7.313-1.36-10.856-.628-2.178-2.497-2.585-4.051-.941-.84.889-.803 1.978.282 2.548 1.51.793 1.725 1.908 1.447 3.448-.777 4.324-1.183 8.684-.99 13.088q.201 4.567.86 9.088c.897 6.175 2.915 11.895 6.774 16.881 1.097 1.416 2.35 2.687 3.605 3.959.912.923.938 1.245.216 2.33-.494.741-1.056 1.44-1.598 2.15q-2.255 2.953-4.519 5.9c-.43.561-.733 1.162-.034 1.7 1.949 1.499 4.053 2.702 6.497 3.207.595.122 1.17.08 1.456-.555.274-.61.003-1.112-.463-1.51-.432-.369-.895-.7-1.334-1.06-1.351-1.108-1.435-1.724-.303-3.035 1.65-1.903 3.332-3.776 5.012-5.649 1.142-1.275 1.144-1.431.086-2.77-1.207-1.527-2.424-3.052-3.571-4.624-.855-1.169-.49-1.995.917-2.235 2.484-.425 4.999-.563 7.51-.745.911-.066 1.475.244 1.588 1.234.18 1.57.446 3.132.617 4.704.352 3.305.66 6.618 1.003 9.926.125 1.17.444 1.46 1.627 1.506.852.032 1.704.005 2.556.005m3.85-35.1c0 1.502.026 3.004-.01 4.505-.022 1.013.326 1.723 1.325 2.073.917.32 1.529.926 1.572 1.952.048 1.113-.408 2.028-1.38 2.532-2.484 1.29-5.038 1.051-7.553.087-.974-.374-.68-1.29-.571-2.023.271-1.846.621-3.682.905-5.527.148-.961.34-1.92.316-2.904-.01-.47-.134-.672-.645-.562-1.306.284-2.623.533-3.934.808-.655.138-.977.588-.943 1.23q.228 4.137.506 8.27c.048.725.543 1.152 1.143 1.468.943.498 1.97.751 2.98 1.055 2.261.678 2.43.905 2.434 3.245.005 3.576-.002 7.155 0 10.731 0 2.202.14 2.382 2.24 2.938 1.06.28 2.126.549 3.11 1.045 2.035 1.024 2.393 2.934.852 4.595-1.347 1.452-2.995 2.193-5.007 2.023-1.74-.148-3.484-.268-5.222-.442-1.96-.199-2.314-.62-2.46-2.605q-.492-6.623-1.03-13.24c-.122-1.498-.453-1.728-1.946-1.55-.967.117-1.934.263-2.906.319-.802.045-1.04.195-.478.95.97 1.304 2.018 2.543 3.074 3.777 1.4 1.636 1.395 2.153-.028 3.751-1.807 2.033-3.6 4.081-5.45 6.072-.6.645-.555 1.02.127 1.524.679.503 1.344 1.04 1.86 1.742.616.84.964 1.753.518 2.727-.456.992-1.366 1.47-2.436 1.606-.658.082-1.294-.038-1.913-.263-2.851-1.036-5.47-2.477-7.785-4.447-1.075-.917-1.132-1.443-.284-2.564 1.839-2.427 3.687-4.845 5.513-7.279 1.049-1.4 1.04-1.556 0-2.98-1.531-2.098-3.343-3.978-4.723-6.196-2.955-4.748-4.468-9.973-5.218-15.462-.968-7.093-1.11-14.173.33-21.226.182-.887.104-1.571-.838-2.013-1.895-.89-2.392-2.777-1.278-4.644.925-1.548 2.986-2.452 4.848-2.13 1.695.296 2.65 1.28 3.027 3.352.771 4.238 1.382 8.5 1.632 12.805.097 1.672.083 1.672 1.589 1.043.826-.344 1.63-.744 2.477-1.016 3.002-.962 5.253.007 6.684 2.826.993 1.956.99 1.941 3.177 1.719 3.115-.316 6.228-.614 9.343-.904 1.978-.184 2.53.243 2.621 2.209.077 1.663.017 3.332.017 4.999z"/><path fill="none" stroke="#ff412e" stroke-miterlimit="10" stroke-width=".6" d="M261.199 335.673v.075c1.015 0 2.035.06 3.043-.017.9-.067 1.795-.898 1.783-1.576-.019-.935-.715-1.31-1.476-1.558-.66-.214-1.358-.23-2.047-.267a48 48 0 0 1-2.066-.15c-.857-.082-1.32-.559-1.354-1.429a21 21 0 0 1-.017-1.096c.046-4.064.104-8.127.142-12.19.014-1.5-.156-1.702-1.591-2.17-.927-.303-1.86-.59-2.772-.933-2.155-.812-2.412-1.318-1.91-3.582.607-2.726.439-5.406-.512-8.032-.235-.652-.437-1.309-.42-2.015.017-.755.358-1.28 1.126-1.344 2.429-.202 4.857-.38 7.291-.522.77-.044 1.234.377 1.154 1.208-.098 1.049-.182 2.102-.345 3.142-.303 1.922-.672 3.835-.989 5.755-.173 1.038.072 1.39 1.082 1.461.93.066 1.872.091 2.799.018.67-.052 1.603-.207 1.723-.848.1-.545-.746-.969-1.3-1.29-1.472-.853-1.57-1.052-1.311-2.695.497-3.138.689-6.29.35-9.46-.105-.974-.463-1.346-1.404-1.25-3.192.326-6.381.684-9.569 1.058-.94.11-1.696.561-2.044 1.507-.156.433-.3.91-.883.799-.581-.113-.701-.634-.728-1.131-.04-.73.005-1.464-.038-2.194-.154-2.525-2.29-4.115-4.752-3.566-.802.179-1.526.541-2.275.856-1.263.532-2.125 1.406-2.198 2.808-.076 1.463.748 2.424 2.006 3.07q1.084.56 2.129 1.182c.367.22.868.408.688.996-.17.563-.667.497-1.113.495-2.758-.012-5.235-2.069-5.659-4.783-.413-2.657-.265-5.35-.373-8.026-.148-3.661-.34-7.313-1.36-10.856-.628-2.178-2.497-2.585-4.051-.941-.84.889-.803 1.978.282 2.548 1.51.793 1.725 1.908 1.447 3.448-.777 4.324-1.183 8.684-.99 13.088q.201 4.567.86 9.088c.897 6.175 2.915 11.895 6.774 16.881 1.097 1.416 2.35 2.687 3.605 3.959.912.923.938 1.245.216 2.33-.494.741-1.056 1.44-1.598 2.15q-2.255 2.953-4.519 5.9c-.43.561-.733 1.162-.034 1.7 1.949 1.499 4.053 2.702 6.497 3.207.595.122 1.17.08 1.456-.555.274-.61.003-1.112-.463-1.51-.432-.369-.895-.7-1.334-1.06-1.351-1.108-1.435-1.724-.303-3.035 1.65-1.903 3.332-3.776 5.012-5.649 1.142-1.275 1.144-1.431.086-2.77-1.207-1.527-2.424-3.052-3.571-4.624-.855-1.169-.49-1.995.917-2.235 2.484-.425 4.999-.563 7.51-.745.911-.066 1.475.244 1.588 1.234.18 1.57.446 3.132.617 4.704.352 3.305.66 6.618 1.003 9.926.125 1.17.444 1.46 1.627 1.506.852.032 1.704.005 2.556.005Zm3.85-35.1c0 1.502.026 3.004-.01 4.505-.022 1.013.326 1.723 1.325 2.073.917.32 1.529.926 1.572 1.952.048 1.113-.408 2.028-1.38 2.532-2.484 1.29-5.038 1.051-7.553.087-.974-.374-.68-1.29-.571-2.023.271-1.846.621-3.682.905-5.527.148-.961.34-1.92.316-2.904-.01-.47-.134-.672-.645-.562-1.306.284-2.623.533-3.934.808-.655.138-.977.588-.943 1.23q.228 4.137.506 8.27c.048.725.543 1.152 1.143 1.468.943.498 1.97.751 2.98 1.055 2.261.678 2.43.905 2.434 3.245.005 3.576-.002 7.155 0 10.731 0 2.202.14 2.382 2.24 2.938 1.06.28 2.126.549 3.11 1.045 2.035 1.024 2.393 2.934.852 4.595-1.347 1.452-2.995 2.193-5.007 2.023-1.74-.148-3.484-.268-5.222-.442-1.96-.199-2.314-.62-2.46-2.605q-.492-6.623-1.03-13.24c-.122-1.498-.453-1.728-1.946-1.55-.967.117-1.934.263-2.906.319-.802.045-1.04.195-.478.95.97 1.304 2.018 2.543 3.074 3.777 1.4 1.636 1.395 2.153-.028 3.751-1.807 2.033-3.6 4.081-5.45 6.072-.6.645-.555 1.02.127 1.524.679.503 1.344 1.04 1.86 1.742.616.84.964 1.753.518 2.727-.456.992-1.366 1.47-2.436 1.606-.658.082-1.294-.038-1.913-.263-2.851-1.036-5.47-2.477-7.785-4.447-1.075-.917-1.132-1.443-.284-2.564 1.839-2.427 3.687-4.845 5.513-7.279 1.049-1.4 1.04-1.556 0-2.98-1.531-2.098-3.343-3.978-4.723-6.196-2.955-4.748-4.468-9.973-5.218-15.462-.968-7.093-1.11-14.173.33-21.226.182-.887.104-1.571-.838-2.013-1.895-.89-2.392-2.777-1.278-4.644.925-1.548 2.986-2.452 4.848-2.13 1.695.296 2.65 1.28 3.027 3.352.771 4.238 1.382 8.5 1.632 12.805.097 1.672.083 1.672 1.589 1.043.826-.344 1.63-.744 2.477-1.016 3.002-.962 5.253.007 6.684 2.826.993 1.956.99 1.941 3.177 1.719 3.115-.316 6.228-.614 9.343-.904 1.978-.184 2.53.243 2.621 2.209.077 1.663.017 3.332.017 4.999z"/><path fill="#2dc7bf" d="M224.608 390.88c-.225-1.093-.31-2.352-.713-3.546-.33-.978-1.121-.76-1.832-.657-.688.102-.932.561-.85 1.234.137 1.123.25 2.251.392 3.375.123.98.485 1.266 1.431 1.179 1.094-.1 1.583-.552 1.572-1.586m-21.901-12.75c.062-.74-.27-1.773.723-2.19.927-.387 1.971-.507 2.983-.241.695.183.859.704.43 1.3-.184.256-.455.463-.719.643-1.014.69-1.092 1.02-.417 2.056q.402.613.976 1.08c2.913 2.375 6.107 3.851 9.996 3.882 6.407.051 12.343-1.191 17.454-5.309 1.026-.826 1.634-.744 2.718.12 1.494 1.19 2.972 2.398 4.481 3.568.742.576 1.61.91 2.494.393 1.958-1.149 3.556-2.692 4.737-4.643.23-.383.4-.894.099-1.238-.252-.287-.692.016-1.013.15-.408.17-.795.403-1.174.636-1.037.638-2.037 1.341-3.103 1.922-1.274.696-1.723.582-2.558-.608-1.052-1.494-2.023-3.043-3.064-4.543-1.037-1.49-1.409-1.593-3.039-.89-2.237.964-4.457 1.966-6.696 2.922-.644.274-1.335.472-1.88-.242-.511-.673-.28-1.306.122-1.913.672-1.016 1.338-2.038 2.046-3.028 3.672-5.123 7.141-10.36 9.607-16.202 1.19-2.82 1.202-2.854-1.442-4.483-1.625-1-3.332-1.487-5.226-1.087-.501.106-1.109.132-1.293.75-.2.667.125 1.191.616 1.606.558.471 1.149.903 1.716 1.363 1.294 1.047 1.36 1.46.484 2.862-3.401 5.441-6.934 10.806-9.746 16.594-.212.435-.433.872-.82 1.194-.453.376-.944.453-1.476.21-.528-.24-.643-.712-.602-1.22.032-.403.115-.806.224-1.195.334-1.201.092-2.227-.812-3.114-1.05-1.03-2.154-1.967-3.523-2.565-1.43-.626-2.083-.94-3.046.667-.58.966-1.317.821-1.755-.24-.326-.793-.368-1.66-.441-2.508-.238-2.787-2.385-4.166-5.007-3.2-.688.255-1.338.597-1.89 1.088-1.616 1.436-1.456 3.208.432 4.272.846.476 1.765.823 2.646 1.238.326.155.712.297.74.725.03.465-.333.719-.661.958-.465.339-1.006.32-1.524.195-.55-.132-1.082-.348-1.623-.523-3.214-1.043-6.131 1.509-5.573 4.876.696 4.203 1.368 8.41 2.101 12.609.272 1.558.196 2.962-.905 4.229-.59.677-.38 1.116.508 1.408 1.762.58 3.46-.512 3.563-2.361.052-.928-.038-1.868-.112-2.798-.238-3.032-.497-6.062-.756-9.174m20.422 15.934c-1.252.01-2.513.114-3.656-.623-1.105-.712-1.258-1.07-.767-2.298.165-.416.344-.83.455-1.26.49-1.915-.357-3.183-2.31-3.446-1.45-.197-2.892-.385-4.308-.78a24.6 24.6 0 0 1-6.453-2.82c-.699-.436-.887-.345-.845.492.125 2.473.455 4.933.426 7.414-.018 1.746-.382 2.277-2.05 2.863-1.936.677-3.897.83-5.856.137-1.903-.674-2.182-2.01-.652-3.336 1.506-1.306 1.593-2.93 1.247-4.678-.805-4.061-1.436-8.15-2.057-12.241-.333-2.195.554-3.877 2.375-5.09.372-.248.768-.457 1.151-.689.834-.507 1.166-1.236.867-2.176-.482-1.52.066-2.684 1.154-3.714 1.891-1.79 4.138-2.519 6.703-2.244 1.615.174 2.838 1.041 3.525 2.492.59 1.251 1.52 1.89 2.808 2.284 2.51.772 4.758 2.059 6.739 3.799.94.826.947.809 1.593-.194q3.567-5.53 7.135-11.059c.868-1.348.822-1.617-.367-2.653a24 24 0 0 1-1.418-1.332c-.863-.88-1.26-1.899-.75-3.106.531-1.256 1.467-2.03 2.842-2.188.898-.103 1.786.016 2.659.238a16.55 16.55 0 0 1 7.027 3.742c1.29 1.156 1.44 1.867.604 3.416a935 935 0 0 1-5.208 9.505c-1.397 2.522-2.948 4.952-4.502 7.379-.243.378-.58.766-.261 1.216.37.524.869.255 1.32.08.948-.364 1.894-.729 2.837-1.107 1.164-.47 2.153-.24 2.944.735 1.125 1.386 2.23 2.79 3.353 4.177.974 1.203 1.15 1.244 2.541.5 1.22-.648 2.417-1.333 3.622-2.007.914-.51 1.822-.72 2.695.07.86.78 1.183 1.704.794 2.851-.523 1.55-1.413 2.827-2.723 3.798-1.503 1.112-2.981 2.245-4.366 3.505-.86.78-1.558.782-2.515.063-1.397-1.045-2.767-2.126-4.153-3.184-1.332-1.016-2.267-1.108-3.69-.22-1.844 1.15-3.806 1.986-5.885 2.6-1.593.472-1.896 1.049-1.654 2.702.218 1.48.496 2.956.607 4.444.1 1.351-.4 1.831-1.75 1.935-.605.045-1.217.008-1.827.008"/><path fill="none" stroke="#2dc7bf" stroke-miterlimit="10" stroke-width=".49992000000000003" d="M224.608 390.88c-.225-1.093-.31-2.352-.713-3.546-.33-.978-1.121-.76-1.832-.657-.688.102-.932.561-.85 1.234.137 1.123.25 2.251.392 3.375.123.98.485 1.266 1.431 1.179 1.094-.1 1.583-.552 1.572-1.586Zm-21.901-12.75c.062-.74-.27-1.774.723-2.19.927-.388 1.971-.508 2.983-.242.695.183.859.704.43 1.3-.184.256-.455.463-.719.643-1.014.69-1.092 1.02-.417 2.056q.402.613.976 1.08c2.913 2.375 6.107 3.851 9.996 3.882 6.407.051 12.343-1.191 17.454-5.309 1.026-.826 1.634-.744 2.718.12 1.494 1.19 2.972 2.398 4.481 3.568.742.576 1.61.91 2.494.393 1.958-1.149 3.556-2.692 4.737-4.643.23-.383.4-.894.099-1.238-.252-.287-.692.016-1.013.15-.408.17-.795.403-1.174.636-1.037.638-2.037 1.341-3.103 1.922-1.274.696-1.723.582-2.558-.608-1.052-1.494-2.023-3.043-3.064-4.543-1.037-1.49-1.409-1.593-3.039-.89-2.237.964-4.457 1.966-6.696 2.922-.644.274-1.335.472-1.88-.242-.511-.673-.28-1.306.122-1.913.672-1.016 1.338-2.038 2.046-3.028 3.672-5.123 7.141-10.36 9.607-16.202 1.19-2.82 1.202-2.854-1.442-4.483-1.625-1-3.332-1.487-5.226-1.087-.501.106-1.109.132-1.293.75-.2.667.125 1.191.616 1.606.558.471 1.149.903 1.716 1.363 1.294 1.047 1.36 1.46.484 2.862-3.401 5.441-6.934 10.806-9.746 16.594-.212.435-.433.872-.82 1.194-.453.376-.944.453-1.476.21-.528-.24-.643-.712-.602-1.22.032-.403.115-.806.224-1.195.334-1.201.092-2.227-.812-3.114-1.05-1.03-2.154-1.967-3.523-2.565-1.43-.626-2.083-.94-3.046.667-.58.966-1.317.821-1.755-.24-.326-.793-.368-1.66-.441-2.508-.238-2.787-2.385-4.166-5.007-3.2-.688.255-1.338.597-1.89 1.088-1.616 1.436-1.456 3.208.432 4.272.846.476 1.765.823 2.646 1.238.326.155.712.297.74.725.03.465-.333.719-.661.958-.465.339-1.006.32-1.524.195-.55-.132-1.082-.348-1.623-.523-3.214-1.043-6.131 1.509-5.573 4.876.696 4.203 1.368 8.41 2.101 12.609.272 1.558.196 2.962-.905 4.229-.59.677-.38 1.116.508 1.408 1.762.58 3.46-.512 3.563-2.361.052-.928-.038-1.868-.112-2.798-.238-3.032-.497-6.062-.756-9.174Zm20.422 15.934c-1.252.01-2.513.114-3.656-.623-1.105-.712-1.258-1.07-.767-2.298.165-.416.344-.83.455-1.26.49-1.915-.357-3.183-2.31-3.446-1.45-.197-2.892-.385-4.308-.78a24.6 24.6 0 0 1-6.453-2.82c-.699-.436-.887-.345-.845.492.125 2.473.455 4.933.426 7.414-.018 1.746-.382 2.277-2.05 2.863-1.936.677-3.897.83-5.856.137-1.903-.674-2.182-2.01-.652-3.336 1.506-1.306 1.593-2.93 1.247-4.678-.805-4.061-1.436-8.15-2.057-12.241-.333-2.195.554-3.877 2.375-5.09.372-.248.768-.457 1.151-.689.834-.507 1.166-1.236.867-2.176-.482-1.52.066-2.684 1.154-3.714 1.891-1.79 4.138-2.519 6.703-2.244 1.615.174 2.838 1.041 3.525 2.492.59 1.251 1.52 1.89 2.808 2.284 2.51.772 4.758 2.059 6.739 3.799.94.826.947.809 1.593-.194q3.567-5.53 7.135-11.059c.868-1.348.822-1.617-.367-2.653a24 24 0 0 1-1.418-1.332c-.863-.88-1.26-1.899-.75-3.106.531-1.256 1.467-2.03 2.842-2.188.898-.103 1.786.016 2.659.238a16.55 16.55 0 0 1 7.027 3.742c1.29 1.156 1.44 1.867.604 3.416a935 935 0 0 1-5.208 9.505c-1.397 2.522-2.948 4.952-4.502 7.379-.243.378-.58.766-.261 1.216.37.524.869.255 1.32.08.948-.364 1.894-.729 2.837-1.107 1.164-.47 2.153-.24 2.944.735 1.125 1.386 2.23 2.79 3.353 4.177.974 1.203 1.15 1.244 2.541.5 1.22-.648 2.417-1.333 3.622-2.007.914-.51 1.822-.72 2.695.07.86.78 1.183 1.704.794 2.851-.523 1.55-1.413 2.827-2.723 3.798-1.503 1.112-2.981 2.245-4.366 3.505-.86.78-1.558.782-2.515.063-1.397-1.045-2.767-2.126-4.153-3.184-1.332-1.016-2.267-1.108-3.69-.22-1.844 1.15-3.806 1.986-5.885 2.6-1.593.472-1.896 1.049-1.654 2.702.218 1.48.496 2.956.607 4.444.1 1.351-.4 1.831-1.75 1.935-.605.045-1.217.008-1.827.008Z"/><path fill="#f74829" d="M202.707 378.13c.259 3.112.518 6.142.756 9.174.074.93.164 1.87.112 2.797-.103 1.849-1.8 2.942-3.563 2.362-.889-.292-1.098-.73-.508-1.408 1.101-1.267 1.177-2.671.905-4.23-.733-4.197-1.405-8.405-2.1-12.608-.56-3.367 2.358-5.919 5.573-4.876.54.175 1.071.391 1.622.523.518.124 1.06.143 1.524-.194.328-.24.692-.494.662-.959-.03-.428-.415-.57-.74-.725-.882-.415-1.8-.762-2.647-1.239-1.888-1.063-2.048-2.835-.432-4.27.552-.492 1.202-.833 1.89-1.087 2.622-.968 4.77.411 5.007 3.198.073.849.115 1.714.441 2.507.438 1.062 1.176 1.207 1.755.24.963-1.608 1.615-1.292 3.046-.665 1.369.597 2.473 1.534 3.523 2.565.904.886 1.146 1.912.813 3.113a6.3 6.3 0 0 0-.225 1.194c-.041.509.074.98.602 1.22.532.244 1.023.167 1.475-.21.388-.32.609-.757.822-1.192 2.811-5.789 6.344-11.154 9.745-16.595.877-1.403.81-1.815-.484-2.861-.567-.46-1.158-.893-1.716-1.363-.49-.416-.816-.94-.616-1.606.184-.62.792-.644 1.293-.75 1.894-.4 3.601.086 5.226 1.086 2.644 1.63 2.632 1.662 1.442 4.483-2.466 5.842-5.935 11.08-9.607 16.202-.708.99-1.374 2.011-2.046 3.028-.402.607-.633 1.241-.121 1.913.544.713 1.235.516 1.879.242 2.24-.956 4.46-1.958 6.696-2.922 1.63-.703 2.002-.602 3.039.89 1.041 1.5 2.012 3.049 3.064 4.543.835 1.189 1.284 1.304 2.558.609 1.066-.583 2.066-1.285 3.103-1.923.38-.233.766-.466 1.174-.636.321-.134.76-.437 1.013-.15.302.344.132.854-.099 1.239-1.18 1.951-2.78 3.494-4.737 4.642-.884.518-1.752.183-2.494-.393-1.509-1.17-2.987-2.378-4.48-3.568-1.085-.864-1.693-.946-2.719-.12-5.111 4.118-11.047 5.36-17.454 5.31-3.89-.032-7.083-1.507-9.996-3.883a4.8 4.8 0 0 1-.976-1.08c-.675-1.035-.597-1.368.417-2.056.264-.18.535-.387.72-.642.428-.596.264-1.119-.43-1.3-1.013-.267-2.057-.147-2.984.241-.994.416-.661 1.45-.723 2.19"/><path fill="#fc3f2c" d="M244.253 282.842c-.082-.747-.159-1.582-.574-2.321-.269-.48-.677-.79-1.26-.55-.518.214-.828.616-.696 1.2.161.72.355 1.435.576 2.137.18.568.54 1.018 1.203.907.71-.119.741-.72.75-1.373"/><path fill="none" stroke="#ff412e" stroke-miterlimit="10" stroke-width=".49992000000000003" d="M244.253 282.842c-.082-.747-.159-1.582-.574-2.321-.269-.48-.677-.79-1.26-.55-.518.214-.828.616-.696 1.2.161.72.355 1.435.576 2.137.18.568.54 1.018 1.203.907.71-.119.741-.72.75-1.373Z"/><path fill="#fc3f2c" d="M252.977 281.416c-.147.035-.288.047-.413.1-.958.404-2.088 3.005-1.738 4.005.228.654.71.667 1.015.177a31 31 0 0 0 1.764-3.3c.238-.507-.07-.88-.628-.982"/><path fill="none" stroke="#ff412e" stroke-miterlimit="10" stroke-width=".49992000000000003" d="M252.977 281.416c-.147.035-.288.047-.413.1-.958.404-2.088 3.005-1.738 4.005.228.654.71.667 1.015.177a31 31 0 0 0 1.764-3.3c.238-.507-.07-.88-.628-.982Z"/><path fill="#fc3f2c" d="M248.986 281.647c0-.231.021-.465-.005-.692-.055-.463-.115-.972-.663-1.103-.645-.156-.892.361-1.108.82-.341.713-.603 1.458-.608 2.257-.002.398-.038.88.464 1.054.525.18 1.003.075 1.365-.384.451-.573.579-1.245.555-1.952"/><path fill="none" stroke="#ff412e" stroke-miterlimit="10" stroke-width=".49992000000000003" d="M248.986 281.647c0-.231.021-.465-.005-.692-.055-.463-.115-.972-.663-1.103-.645-.156-.892.361-1.108.82-.341.713-.603 1.458-.608 2.257-.002.398-.038.88.464 1.054.525.18 1.003.075 1.365-.384.451-.573.579-1.245.555-1.952Z"/><path fill="#fc3f2c" d="M254.647 289.607c.163-.05.437-.055.58-.191.697-.665 1.347-1.378 1.782-2.248.184-.369.038-.729-.245-.997-.295-.276-.675-.349-1.013-.12-.898.6-1.538 1.459-1.973 2.41-.264.572.118 1.045.87 1.146"/><path fill="none" stroke="#ff412e" stroke-miterlimit="10" stroke-width=".49992000000000003" d="M254.647 289.607c.163-.05.437-.055.58-.191.697-.665 1.347-1.378 1.782-2.248.184-.369.038-.729-.245-.997-.295-.276-.675-.349-1.013-.12-.898.6-1.538 1.459-1.973 2.41-.264.572.118 1.045.87 1.146Z"/><path fill="#fc3f2c" d="M244.253 282.842c-.01.653-.041 1.254-.751 1.373-.663.111-1.023-.339-1.203-.907a26 26 0 0 1-.576-2.137c-.132-.584.178-.986.696-1.2.583-.24.991.07 1.26.55.415.74.492 1.574.574 2.32"/><path fill="none" stroke="#ff412e" stroke-miterlimit="10" stroke-width=".49992000000000003" d="M244.253 282.842c-.01.653-.041 1.254-.751 1.373-.663.111-1.023-.339-1.203-.907a26 26 0 0 1-.576-2.137c-.132-.584.178-.986.696-1.2.583-.24.991.07 1.26.55.415.74.492 1.574.574 2.32Z"/><path fill="#fc3f2c" d="M252.977 281.416c.559.102.866.475.628.983a31 31 0 0 1-1.764 3.299c-.304.49-.787.477-1.015-.177-.35-1 .78-3.6 1.738-4.005.125-.053.266-.065.413-.1"/><path fill="none" stroke="#ff412e" stroke-miterlimit="10" stroke-width=".49992000000000003" d="M252.977 281.416c.559.102.866.475.628.983a31 31 0 0 1-1.764 3.299c-.304.49-.787.477-1.015-.177-.35-1 .78-3.6 1.738-4.005.125-.053.266-.065.413-.1Z"/><path fill="#fc3f2c" d="M248.986 281.647c.024.707-.104 1.379-.555 1.952-.362.459-.84.564-1.365.384-.502-.174-.466-.656-.464-1.054.005-.799.267-1.544.608-2.257.216-.459.463-.976 1.108-.82.548.131.608.64.663 1.103.026.227.005.461.005.692"/><path fill="none" stroke="#ff412e" stroke-miterlimit="10" stroke-width=".49992000000000003" d="M248.986 281.647c.024.707-.104 1.379-.555 1.952-.362.459-.84.564-1.365.384-.502-.174-.466-.656-.464-1.054.005-.799.267-1.544.608-2.257.216-.459.463-.976 1.108-.82.548.131.608.64.663 1.103.026.227.005.461.005.692Z"/><path fill="#fc3f2c" d="M254.647 289.607c-.751-.101-1.133-.574-.869-1.147.435-.95 1.075-1.81 1.973-2.41.338-.228.718-.155 1.013.121.283.268.43.628.245.997-.435.87-1.085 1.583-1.781 2.248-.144.136-.418.141-.58.19"/><path fill="none" stroke="#ff412e" stroke-miterlimit="10" stroke-width=".49992000000000003" d="M254.647 289.607c-.751-.101-1.133-.574-.869-1.147.435-.95 1.075-1.81 1.973-2.41.338-.228.718-.155 1.013.121.283.268.43.628.245.997-.435.87-1.085 1.583-1.781 2.248-.144.136-.418.141-.58.19Z"/></g></svg>