<svg xmlns="http://www.w3.org/2000/svg" xmlns:xlink="http://www.w3.org/1999/xlink" width="297.636" height="419.526"><defs><path id="c" d="M.03.355a.4.4 0 0 0 .042.187.3.3 0 0 0 .122.127q.08.046.186.046A.4.4 0 0 0 .544.68.3.3 0 0 0 .662.583.35.35 0 0 0 .723.436H.489A.12.12 0 0 1 .376.51.1.1 0 0 1 .288.468.18.18 0 0 1 .255.355.18.18 0 0 1 .288.242.1.1 0 0 1 .376.2a.12.12 0 0 1 .113.074h.234a.35.35 0 0 0-.06-.147A.3.3 0 0 0 .543.03.4.4 0 0 0 .38-.005a.37.37 0 0 0-.186.046.3.3 0 0 0-.122.127.4.4 0 0 0-.042.187"/><path id="d" d="M.504.107H.268L.233 0H0l.259.708h.256L.773 0H.539zM.45.274.386.471.322.274z"/><path id="e" d="M.629.465A.24.24 0 0 0 .598.343.22.22 0 0 0 .506.257.3.3 0 0 0 .36.225H.272V0H.05v.708h.31q.13 0 .2-.066A.23.23 0 0 0 .628.465M.335.4Q.404.4.404.465T.334.53H.273V.4z"/><path id="f" d="M.272.708V0H.05v.708z"/><path id="g" d="M.606.708V.532H.418V0H.196v.532H.01v.176z"/><path id="h" d="M.395-.007A.37.37 0 0 0 .079.17.36.36 0 0 0 .03.357a.36.36 0 0 0 .182.316.4.4 0 0 0 .183.047.37.37 0 0 0 .183-.047.35.35 0 0 0 .131-.13.36.36 0 0 0 .049-.186A.36.36 0 0 0 .709.17a.366.366 0 0 0-.314-.177m0 .207Q.461.2.497.243a.17.17 0 0 1 .036.114.17.17 0 0 1-.036.115.13.13 0 0 1-.102.043Q.328.515.292.472A.17.17 0 0 1 .256.357q0-.072.036-.114T.395.2"/><path id="i" d="M.272.168h.214V0H.05v.708h.222z"/><path id="j" d="M.267.708V.31q0-.049.021-.077.022-.03.07-.029t.07.029a.12.12 0 0 1 .024.077v.4h.22v-.4A.34.34 0 0 0 .632.137.27.27 0 0 0 .516.029a.4.4 0 0 0-.163-.036.34.34 0 0 0-.16.036.26.26 0 0 0-.108.107.36.36 0 0 0-.04.173v.4z"/><path id="k" d="M0 0"/><path id="l" d="M.01.523v.208h.34v-.73H.115v.522z"/><path id="m" d="M.445.568A.19.19 0 0 0 .596.503.27.27 0 0 0 .651.327V0H.43v.299a.1.1 0 0 1-.022.064.07.07 0 0 1-.057.023.07.07 0 0 1-.058-.023.1.1 0 0 1-.021-.064V0H.05v.564h.222V.478a.2.2 0 0 0 .173.09"/><path id="n" d="M.162.61Q.103.61.07.64a.1.1 0 0 0-.035.078q0 .048.035.08a.13.13 0 0 0 .093.031Q.22.83.254.798A.1.1 0 0 0 .29.718.1.1 0 0 0 .254.64.13.13 0 0 0 .162.61m.11-.046V0H.05v.564z"/><path id="o" d="m.336.211.09.353h.236L.474 0H.197L.009.564h.236z"/><path id="p" d="M.596.287.593.243H.236Q.242.17.297.17.333.17.35.203h.235a.24.24 0 0 0-.05-.107A.3.3 0 0 0 .437.02a.3.3 0 0 0-.129-.027.3.3 0 0 0-.15.035.25.25 0 0 0-.101.1.3.3 0 0 0-.037.154q0 .088.037.154a.25.25 0 0 0 .102.1.3.3 0 0 0 .15.035.3.3 0 0 0 .149-.034A.25.25 0 0 0 .56.438.3.3 0 0 0 .596.287M.371.34q0 .028-.018.043a.07.07 0 0 1-.045.014Q.248.397.24.34z"/><path id="q" d="M.272.46a.3.3 0 0 0 .083.078q.048.03.102.03V.331H.394Q.33.331.3.309T.271.231V0H.05v.564h.222z"/><path id="r" d="M.301-.007A.4.4 0 0 0 .16.02a.24.24 0 0 0-.098.072.2.2 0 0 0-.04.104h.212A.05.05 0 0 1 .256.158.1.1 0 0 1 .3.146q.017 0 .027.008.01.007.01.018 0 .02-.021.027a1 1 0 0 1-.071.018 1 1 0 0 0-.1.026.16.16 0 0 0-.07.048.14.14 0 0 0-.029.094.17.17 0 0 0 .11.161q.053.025.13.025A.26.26 0 0 0 .465.515.23.23 0 0 0 .542.369H.345a.06.06 0 0 1-.021.035.07.07 0 0 1-.043.013A.04.04 0 0 1 .255.41Q.246.404.246.391q0-.017.021-.026A.4.4 0 0 1 .334.348 1 1 0 0 0 .437.321.15.15 0 0 0 .541.169.15.15 0 0 0 .512.08.2.2 0 0 0 .429.016.3.3 0 0 0 .3-.007"/><path id="s" d="M.401.189V0H.317Q.085 0 .085.23V.38h-.07v.185h.07V.7h.222V.564h.092V.379H.307V.227q0-.02.01-.029.009-.009.03-.009z"/><path id="t" d="M.02.282q0 .089.03.155.03.064.084.1a.2.2 0 0 0 .12.034.2.2 0 0 0 .094-.023A.15.15 0 0 0 .41.487v.077H.63V0H.41v.077A.15.15 0 0 0 .347.016a.2.2 0 0 0-.095-.023.2.2 0 0 0-.119.035.23.23 0 0 0-.083.1.4.4 0 0 0-.03.154m.388 0a.1.1 0 0 1-.023.07.08.08 0 0 1-.059.025.08.08 0 0 1-.059-.025.1.1 0 0 1-.023-.07.1.1 0 0 1 .023-.07.08.08 0 0 1 .06-.025q.035 0 .058.025a.1.1 0 0 1 .023.07"/><path id="u" d="M.606.708V.532H.418V0H.196v.532H.01v.176z"/><path id="v" d="M.596.287.593.243H.236Q.242.17.297.17.333.17.35.203h.235a.24.24 0 0 0-.05-.107A.3.3 0 0 0 .437.02a.3.3 0 0 0-.129-.027.3.3 0 0 0-.15.035.25.25 0 0 0-.101.1.3.3 0 0 0-.037.154q0 .088.037.154a.25.25 0 0 0 .102.1.3.3 0 0 0 .15.035.3.3 0 0 0 .149-.034A.25.25 0 0 0 .56.438.3.3 0 0 0 .596.287M.371.34q0 .028-.018.043a.07.07 0 0 1-.045.014Q.248.397.24.34z"/><path id="w" d="M.445.568A.19.19 0 0 0 .596.503.27.27 0 0 0 .651.327V0H.43v.299a.1.1 0 0 1-.022.064.07.07 0 0 1-.057.023.07.07 0 0 1-.058-.023.1.1 0 0 1-.021-.064V0H.05v.74h.222V.478a.2.2 0 0 0 .173.09"/><path id="x" d="M.445.568A.19.19 0 0 0 .596.503.27.27 0 0 0 .651.327V0H.43v.299a.1.1 0 0 1-.022.064.07.07 0 0 1-.057.023.07.07 0 0 1-.058-.023.1.1 0 0 1-.021-.064V0H.05v.564h.222V.478a.2.2 0 0 0 .173.09"/><path id="y" d="M.162.61Q.103.61.07.64a.1.1 0 0 0-.035.078q0 .048.035.08a.13.13 0 0 0 .093.031Q.22.83.254.798A.1.1 0 0 0 .29.718.1.1 0 0 0 .254.64.13.13 0 0 0 .162.61m.11-.046V0H.05v.564z"/><path id="z" d="M.02.282q0 .088.037.153a.25.25 0 0 0 .102.1.3.3 0 0 0 .15.036Q.416.57.493.509A.28.28 0 0 0 .589.337H.354Q.34.38.304.38A.05.05 0 0 1 .26.356.14.14 0 0 1 .245.282q0-.049.016-.074A.05.05 0 0 1 .303.183q.038 0 .051.044H.59A.28.28 0 0 0 .494.055a.28.28 0 0 0-.186-.062.3.3 0 0 0-.15.035.25.25 0 0 0-.101.1.3.3 0 0 0-.037.154"/><path id="A" d="M.02.282q0 .089.03.155.03.064.084.1a.2.2 0 0 0 .12.034.2.2 0 0 0 .094-.023A.15.15 0 0 0 .41.487v.077H.63V0H.41v.077A.15.15 0 0 0 .347.016a.2.2 0 0 0-.095-.023.2.2 0 0 0-.119.035.23.23 0 0 0-.083.1.4.4 0 0 0-.03.154m.388 0a.1.1 0 0 1-.023.07.08.08 0 0 1-.059.025.08.08 0 0 1-.059-.025.1.1 0 0 1-.023-.07.1.1 0 0 1 .023-.07.08.08 0 0 1 .06-.025q.035 0 .058.025a.1.1 0 0 1 .023.07m.126.521q0-.099-.052-.151A.18.18 0 0 0 .347.6Q.265.6.212.652T.159.803V.82h.103q0-.03.02-.047Q.3.758.346.758t.066.015q.02.015.02.047h.102z"/><path id="B" d="M0 0"/><path id="C" d="M.02.282q0 .089.03.155.03.064.084.1a.2.2 0 0 0 .12.034.2.2 0 0 0 .094-.023.15.15 0 0 0 .06-.061V.74H.63V0H.408v.077a.15.15 0 0 0-.06-.061.2.2 0 0 0-.095-.023.2.2 0 0 0-.119.035.23.23 0 0 0-.083.1.4.4 0 0 0-.03.154m.388 0a.1.1 0 0 1-.023.07.08.08 0 0 1-.059.025.08.08 0 0 1-.059-.025.1.1 0 0 1-.023-.07.1.1 0 0 1 .023-.07.08.08 0 0 1 .06-.025q.035 0 .058.025a.1.1 0 0 1 .023.07"/><path id="D" d="M.272.74V0H.05v.74z"/><path id="E" d="M.647.564V0H.425v.086a.2.2 0 0 0-.173-.09A.19.19 0 0 0 .1.061a.27.27 0 0 0-.054.176v.327h.22V.265A.1.1 0 0 1 .289.202.07.07 0 0 1 .346.178q.036 0 .058.024a.1.1 0 0 1 .02.063v.3z"/><path id="F" d="M.161.61Q.102.61.068.64a.1.1 0 0 0-.035.078q0 .048.035.08a.13.13 0 0 0 .093.031Q.218.83.253.798a.1.1 0 0 0 .035-.08A.1.1 0 0 0 .253.64.13.13 0 0 0 .161.61M.273-.04q0-.231-.232-.231h-.074v.189H.01q.022 0 .032.009.01.01.01.029v.607h.221z"/><path id="G" d="M.486.433V.25H.02v.183z"/><path id="H" d="M.729 0H.507L.272.356V0H.05v.708h.222L.507.346v.362h.222z"/><path id="I" d="M.272.487a.15.15 0 0 0 .06.062.2.2 0 0 0 .095.022.2.2 0 0 0 .119-.034.23.23 0 0 0 .083-.1.4.4 0 0 0 .03-.155Q.66.194.63.128a.23.23 0 0 0-.083-.1.2.2 0 0 0-.12-.035.2.2 0 0 0-.094.023.15.15 0 0 0-.06.061V-.27H.05v.834h.222zM.435.282a.1.1 0 0 1-.023.07.08.08 0 0 1-.06.025.08.08 0 0 1-.058-.025.1.1 0 0 1-.023-.07.1.1 0 0 1 .023-.07.08.08 0 0 1 .059-.025q.035 0 .059.025a.1.1 0 0 1 .023.07"/><path id="J" d="M.318-.007a.3.3 0 0 0-.153.035.26.26 0 0 0-.106.1.3.3 0 0 0-.039.154Q.02.37.06.435a.26.26 0 0 0 .106.1.3.3 0 0 0 .153.036.3.3 0 0 0 .153-.035.26.26 0 0 0 .107-.1.3.3 0 0 0 .038-.154.3.3 0 0 0-.038-.153.26.26 0 0 0-.107-.1.3.3 0 0 0-.153-.036m0 .192q.03 0 .052.025.021.024.021.072t-.02.072A.07.07 0 0 1 .317.38.07.07 0 0 1 .266.354Q.246.33.246.282T.265.21A.07.07 0 0 1 .318.185"/><path id="K" d="M.02.282q0 .088.037.153a.25.25 0 0 0 .102.1.3.3 0 0 0 .15.036Q.416.57.493.509A.28.28 0 0 0 .589.337H.354Q.34.38.304.38A.05.05 0 0 1 .26.356.14.14 0 0 1 .245.282q0-.049.016-.074A.05.05 0 0 1 .303.183q.038 0 .051.044H.59A.28.28 0 0 0 .494.055a.28.28 0 0 0-.186-.062.3.3 0 0 0-.15.035.25.25 0 0 0-.101.1.3.3 0 0 0-.037.154"/><clipPath id="a"><path fill-rule="evenodd" d="M0 419.526h297.636V0H0Z"/></clipPath><clipPath id="b"><path d="M-102.015 459.038H627.87v-526.78h-729.885Z"/></clipPath></defs><g clip-path="url(#a)" data-name="Layer 1"><g clip-path="url(#b)"><path fill="#f7f1e5" d="M-92.547 443.282H627.87V-67.742H-92.547Z"/><path fill="#fbd77f" d="M224.547 171.385c-1.279 10.392-.883 20.786.17 31.132.87-10.414 1.507-20.78-.17-31.132m44.342 138.064c.247 1.541.002 3.726 2.752 3.665 2.568-.058 3.091-1.787 3.391-3.745 1.414-9.26.046-18.385-1.521-27.472-.89-5.179-2.143-10.296-3.233-15.441l-1.044.176c-1.212 14.257-2.654 28.514-.345 42.817m132.555-170.416c-1.178 1.037-1.452 1.932-.631 3.48 3.554 6.696 6.93 13.483 10.747 20.97 4.651-12.318 9.228-23.956 14.604-35.98-10.147 1.258-17.866 5.472-24.72 11.53m153.558-11.714c-1.035-16.978-2.727-33.876-7.7-50.254a60.2 60.2 0 0 0-4.9-11.61c-1.174-2.125-2.585-2.773-4.995-1.923-4.041 1.426-7.583 3.64-10.93 6.22-10.012 7.724-17.833 17.456-25.261 27.56-1.25 1.701-.984 2.592.595 3.914 26.673 22.327 42.888 51.141 52.087 84.281.108.384.276.758.47 1.107.12.216.338.377 1.073 1.156.907-20.537.773-40.5-.44-60.451m-237.208 77.657c3.926-22.178 10.236-43.623 20.344-63.838.783-1.563 1.203-2.837.053-4.474-10.272-14.623-21.172-28.668-35.983-39.088-5.599-3.941-11.56-7.066-18.611-7.668-3.533-.303-4.817 1.046-5.036 4.478-.722 11.412 1.31 22.495 3.84 33.497 6.977 30.354 17.535 59.656 26.568 89.406 1.416 4.664 2.854 9.321 4.28 13.982l.614-.182c1.296-8.708 2.397-17.448 3.93-26.113m46.995 28.746c-3.581 35.193-1.918 70.053 7.185 104.366 2.935 11.065 6.915 21.748 13.09 31.493 2.047 3.234 4.39 6.23 7.413 8.61 3.92 3.084 6.907 2.578 9.375-1.76 4.077-7.17 4.843-15.191 5.608-23.185.168-1.757.113-3.535.25-5.295.646-8.274-.746-15.62-5.477-23.047-8.19-12.857-10.613-27.801-11.563-42.856-.607-9.638-.458-19.296.365-28.933.091-1.062.132-2.213-.175-3.21-5.381-17.537-11.856-34.662-19.613-52.44-3.34 12.572-5.249 24.362-6.458 36.257m112.969-85.81c-3.377-3.765-3.473-3.734-5.592.98-13.502 30.01-23.69 61.04-28.91 93.609-.367 2.312-.432 4.515.218 6.833 4.932 17.553 9.091 35.285 11.551 53.367.432 3.185 1.882 3.663 4.623 3.303 20.4-2.684 35.047-13.16 43.466-32.03 5.71-12.796 7.387-26.36 7.358-42.524-1.565-29.876-10.821-59.117-32.714-83.537m61.391 217.667c2.928-21.265 5.621-42.559 7.846-64.01-1.627.056-1.654 1.392-2.12 2.197-18.388 31.8-46.098 49.072-82.44 52.669-3.848.381-4.736 1.736-5.048 5.368-1.123 13.09-4.15 25.717-10.272 37.498-17.31 33.312-57.945 41.744-86.973 17.944-12.278-10.067-20.447-23.152-26.925-37.404-5.76-12.674-9.753-25.938-12.897-39.475-.29-1.255-.656-2.493-1.064-4.032-16.526 32.36-69.692 37.947-90.542 7.646-.804 4.665-1.455 8.885-2.27 13.073-3.674 18.848-9.88 36.705-23.834 50.499-17.382 17.18-37.978 25.467-62.421 17.86-17.068-5.311-27.492-18.397-35.377-33.69-9.255-17.948-14.153-37.338-17.92-56.994-4.398-22.96-8.21-46.033-12.376-69.038a66.4 66.4 0 0 0-4.808-15.543c-8.618-19.116-23.387-29.074-44.25-30.1-8.716-.429-17.394.044-26.02 1.396v-51.44c10.456-.155 20.872-1.077 31.376-.31 49.402 3.613 79.617 35.84 91.022 76.439 5.268 18.75 7.275 38.18 10.682 57.317 3.693 20.746 7.118 41.575 15.443 61.153 1.652 3.886 3.656 7.572 6.334 10.893 1.544 1.915 3.12 2.196 5.34 1.297 5.37-2.173 8.843-6.185 11.31-11.22 5.496-11.222 7.065-23.353 8.054-35.59 1.751-21.641.294-43.234-1.145-64.823-2.097-31.476-6.018-62.87-4.512-94.515.54-11.328 2.206-22.48 6.679-33.016 8.066-19 23.35-28.853 43.91-28.075 3.515.134 4.327-.68 4.116-4.16-.564-9.254-.236-18.477 2.258-27.527 6.327-22.963 23.665-37.024 47.533-38.43 23.546-1.388 43.192 7.977 60.971 22.283 11.825 9.516 22.027 20.64 31.17 32.714 1.827 2.414 2.847 2.532 5.298.72 22.183-16.39 47.169-21.484 74.17-17.712 2.9.406 4.326-.338 5.907-2.693C467.861 56.126 481.872 38.851 500.6 26c10.821-7.428 22.572-12.569 35.817-13.589 20.225-1.56 35.597 6.943 46.913 23.263 10.315 14.88 14.762 31.99 17.81 49.497 5.46 31.38 5.916 63.064 5.23 94.79-1.17 54.058-6.418 107.79-13.045 161.413a2545 2545 0 0 1-16.74 114.242c-.187 1.1-1.07 2.333.125 3.424h-52.254c5.76-31.018 10.392-62.213 14.692-93.459"/><path fill="#fbd77f" d="M5.483 219.597c-.022.07-.05.161-.157.307-.679.914-3.343 1.085-18.404 3.931-17.783 3.362-15.417 3.377-22.652 4.531 0 0-28.682 4.572-51.589-1.462-1.472-.386-3.76-1.05-6.138-2.776-7.539-5.473-8.326-16.07-8.477-18.123-.683-9.21 3.17-11.308 3.215-23.822.02-5.427-1.835-8.103-.292-9.498 3.194-2.89 13.937 4.207 17.391 6.43 38.71 24.916 88.907 34.671 87.103 40.482"/><path fill="#fbd77f" d="M5.848 170.345c-.094-.232-.507-.314-4.53-.328-1.347-.005-2.02-.008-2.193 0-3.507.15-19.724 2.424-25.554 3.112-4.324.514-6.05.898-11.931 1.308-7.515.526-24.49 2.42-30.296 2.285-4.316-.098-10.403-.238-16.763-3.453-6.276-3.17-7.506-6.65-9.646-5.99-4.052 1.247-6.881 15.942-.584 24.551 6.343 8.672 17.073 1.566 40.628 8.768 5.549 1.697 13.051 4.785 28.06 10.96 11.173 4.6 17.769 7.598 24.99 4.97 1.48-.538 7.55-2.747 9.939-8.33 5.086-11.888-11.717-27.63-5.846-34.637 1.245-1.488 3.995-2.544 3.726-3.216"/></g><use xlink:href="#c" fill="#1265e5" data-text="C" transform="matrix(0 -57.03547 -57.03547 0 75.644 385.982)"/><use xlink:href="#d" fill="#1265e5" data-text="A" transform="matrix(0 -57.03547 -57.03547 0 75.644 343.034)"/><use xlink:href="#e" fill="#1265e5" data-text="P" transform="matrix(0 -57.03547 -57.03547 0 75.644 298.946)"/><use xlink:href="#f" fill="#1265e5" data-text="I" transform="matrix(0 -57.03547 -57.03547 0 75.644 261.93)"/><use xlink:href="#g" fill="#1265e5" data-text="T" transform="matrix(0 -57.03547 -57.03547 0 75.644 243.564)"/><use xlink:href="#h" fill="#1265e5" data-text="O" transform="matrix(0 -57.03547 -57.03547 0 75.644 208.43)"/><use xlink:href="#i" fill="#1265e5" data-text="L" transform="scale(57.03547 -57.03547)rotate(90 2.096 -.77)"/><use xlink:href="#j" fill="#1265e5" data-text="U" transform="matrix(0 -57.03547 -57.03547 0 75.644 134.626)"/><use xlink:href="#i" fill="#1265e5" data-text="L" transform="matrix(0 -57.03547 -57.03547 0 75.644 93.618)"/><use xlink:href="#k" fill="#1265e5" transform="scale(57.03547 -57.03547)rotate(90 1.23 .095)"/><use xlink:href="#l" fill="#1265e5" data-text="1" transform="scale(57.03547 -57.03547)rotate(90 1.146 .18)"/><use xlink:href="#j" fill="#fa7860" data-text="U" transform="matrix(28.41974 0 0 -28.41974 64.922 140.999)"/><use xlink:href="#m" fill="#fa7860" data-text="n" transform="matrix(28.41974 0 0 -28.41974 85.356 140.999)"/><use xlink:href="#n" fill="#fa7860" data-text="i" transform="matrix(28.41974 0 0 -28.41974 105.165 140.999)"/><use xlink:href="#o" fill="#fa7860" data-text="v" transform="matrix(28.41974 0 0 -28.41974 114.316 140.999)"/><use xlink:href="#p" fill="#fa7860" data-text="e" transform="matrix(28.41974 0 0 -28.41974 133.385 140.999)"/><use xlink:href="#q" fill="#fa7860" data-text="r" transform="matrix(28.41974 0 0 -28.41974 150.892 140.999)"/><use xlink:href="#r" fill="#fa7860" data-text="s" transform="matrix(28.41974 0 0 -28.41974 164.164 140.999)"/><use xlink:href="#n" fill="#fa7860" data-text="i" transform="matrix(28.41974 0 0 -28.41974 180.619 140.999)"/><use xlink:href="#s" fill="#fa7860" data-text="t" transform="matrix(28.41974 0 0 -28.41974 189.77 140.999)"/><use xlink:href="#t" fill="#fa7860" data-text="a" transform="matrix(28.41974 0 0 -28.41974 202.161 140.999)"/><use xlink:href="#s" fill="#fa7860" data-text="t" transform="matrix(28.41974 0 0 -28.41974 221.487 140.999)"/><use xlink:href="#p" fill="#fa7860" data-text="e" transform="matrix(28.41974 0 0 -28.41974 233.878 140.999)"/><use xlink:href="#t" fill="#fa7860" data-text="a" transform="matrix(28.41974 0 0 -28.41974 251.384 140.999)"/><use xlink:href="#k" fill="#fa7860" transform="matrix(28.41974 0 0 -28.41974 270.71 140.999)"/><path fill="none" stroke="#fa7860" stroke-miterlimit="10" stroke-width=".49992000000000003" d="M66.229 120.877v11.34q0 2.898 1.108 4.917 1.108 2.016 3.084 3.039 1.975 1.026 4.533 1.025 2.559 0 4.632-1.025a7.64 7.64 0 0 0 3.268-3.053q1.194-2.03 1.194-4.903v-11.34h-6.28v11.34q0 1.393-.654 2.203-.655.81-2.018.811-1.365 0-1.974-.81-.613-.81-.613-2.204v-11.34zM98.002 124.856q-1.706.001-2.941.71a5.7 5.7 0 0 0-1.976 1.849v-2.444h-6.31v16.027h6.31V132.5q-.001-1.137.598-1.802.594-.67 1.648-.67 1.023 0 1.634.67.61.666.61 1.802v8.498h6.28v-9.292q.002-3.154-1.548-5.004-1.55-1.845-4.305-1.846ZM109.768 123.692q1.618-.001 2.614-.88.994-.883.995-2.218-.001-1.365-.995-2.26-.995-.894-2.614-.894-1.649 0-2.644.893-.995.897-.995 2.26 0 1.336.995 2.218.995.88 2.644.881Zm-3.184 17.306h6.31V124.97h-6.31ZM121.278 124.971h-6.707l5.343 16.027h7.872l5.343-16.027h-6.707l-2.559 10.03zM150.322 132.843c0-1.648-.346-3.081-1.037-4.29a7.05 7.05 0 0 0-2.9-2.802q-1.86-.979-4.248-.979-2.386 0-4.249.994a7.07 7.07 0 0 0-2.899 2.856q-1.036 1.86-1.036 4.363 0 2.5 1.036 4.363a7.06 7.06 0 0 0 2.899 2.854q1.863.996 4.249.996 1.989-.001 3.652-.78 1.662-.785 2.757-2.134a6.96 6.96 0 0 0 1.436-3.053h-6.68q-.454.936-1.478.936-1.592.001-1.733-2.076h10.147q.084-.595.084-1.248Zm-10.146-1.507q.283-1.62 1.96-1.62.769 0 1.28.413.512.411.511 1.207zM158.62 127.926v-2.957h-6.309v16.03h6.31v-6.564c0-1.064.279-1.8.838-2.218q.837-.623 2.63-.624h1.79v-6.737q-1.506 0-2.9.84a7.6 7.6 0 0 0-2.358 2.23ZM172.718 141.198q2.074.001 3.622-.653t2.374-1.79q.824-1.137.823-2.559 0-1.819-.88-2.856-.882-1.036-2.075-1.464-1.194-.425-2.928-.768c-.872-.17-1.504-.336-1.904-.497q-.595-.241-.595-.724-.001-.369.255-.555.255-.184.74-.185.766.001 1.22.356.456.355.597 1.01h5.599q-.369-2.559-2.202-4.15-1.834-1.594-5.074-1.593-2.189 0-3.722.698c-1.024.463-1.796 1.1-2.316 1.903a4.84 4.84 0 0 0-.781 2.686q-.001 1.707.838 2.671.837.966 1.96 1.363 1.122.4 2.857.742c.947.187 1.62.36 2.017.511q.598.226.597.766 0 .312-.285.528-.284.21-.765.21-.768.001-1.265-.34-.499-.342-.612-1.051h-6.054a5.46 5.46 0 0 0 1.166 2.954q1.023 1.31 2.772 2.047 1.746.741 4.02.74ZM185.222 123.692q1.618-.001 2.615-.88.994-.883.994-2.218 0-1.365-.994-2.26-.996-.894-2.615-.894-1.649 0-2.644.893-.995.897-.995 2.26 0 1.336.995 2.218.995.88 2.644.881Zm-3.184 17.306h6.31V124.97h-6.31ZM199.66 135.627q-.626 0-.896-.254-.27-.258-.27-.826v-4.32h2.615v-5.256h-2.615v-3.866h-6.31v3.866h-1.989v5.256h1.99v4.208q0 6.563 6.593 6.563h2.388v-5.37zM202.728 132.985q0 2.53.867 4.39.865 1.863 2.373 2.841 1.505.982 3.382.982 1.561 0 2.7-.641a4.33 4.33 0 0 0 1.733-1.747v2.188h6.28v-16.027h-6.28v2.187a4.35 4.35 0 0 0-1.733-1.747q-1.138-.64-2.7-.639-1.876 0-3.382.98-1.507.983-2.373 2.841-.867 1.863-.867 4.392Zm11.055 0q0 1.277-.654 1.99-.654.709-1.676.71-1.024-.001-1.677-.71-.653-.713-.653-1.99 0-1.28.653-1.99.653-.709 1.677-.71 1.023.001 1.676.71.654.71.654 1.99ZM231.375 135.627q-.626 0-.896-.254-.27-.258-.27-.826v-4.32h2.615v-5.256h-2.615v-3.866H223.9v3.866h-1.988v5.256h1.988v4.208q0 6.563 6.593 6.563h2.388v-5.37zM250.814 132.843c0-1.648-.345-3.081-1.036-4.29a7.06 7.06 0 0 0-2.902-2.802q-1.86-.979-4.248-.979t-4.248.994a7.06 7.06 0 0 0-2.9 2.856q-1.036 1.86-1.036 4.363 0 2.5 1.037 4.363a7.06 7.06 0 0 0 2.899 2.854q1.86.996 4.248.996 1.99-.001 3.653-.78 1.663-.785 2.757-2.134a6.95 6.95 0 0 0 1.433-3.053h-6.677q-.456.936-1.478.936-1.592.001-1.733-2.076h10.145q.086-.595.086-1.248Zm-10.147-1.507q.284-1.62 1.961-1.62.767 0 1.28.413.51.411.51 1.207zM251.95 132.985q.001 2.53.866 4.39.866 1.863 2.373 2.841 1.506.982 3.382.982 1.563 0 2.7-.641a4.33 4.33 0 0 0 1.735-1.747v2.188h6.28v-16.027h-6.28v2.187a4.34 4.34 0 0 0-1.735-1.747q-1.137-.64-2.7-.639-1.875 0-3.382.98-1.507.983-2.373 2.841-.865 1.863-.867 4.392Zm11.056 0q0 1.277-.655 1.99-.652.709-1.675.71-1.024-.001-1.678-.71-.654-.713-.653-1.99-.001-1.28.653-1.99.654-.709 1.678-.71 1.022.001 1.675.71.655.71.655 1.99Z"/><use xlink:href="#u" fill="#fa7860" data-text="T" transform="matrix(28.41974 0 0 -28.41974 97.177 173.339)"/><use xlink:href="#v" fill="#fa7860" data-text="e" transform="matrix(28.41974 0 0 -28.41974 114.684 173.339)"/><use xlink:href="#w" fill="#fa7860" data-text="h" transform="matrix(28.41974 0 0 -28.41974 132.19 173.339)"/><use xlink:href="#x" fill="#fa7860" data-text="n" transform="matrix(28.41974 0 0 -28.41974 152 173.339)"/><use xlink:href="#y" fill="#fa7860" data-text="i" transform="matrix(28.41974 0 0 -28.41974 171.808 173.339)"/><use xlink:href="#z" fill="#fa7860" data-text="c" transform="matrix(28.41974 0 0 -28.41974 180.959 173.339)"/><use xlink:href="#A" fill="#fa7860" data-text="ă" transform="matrix(28.41974 0 0 -28.41974 198.267 173.339)"/><use xlink:href="#B" fill="#fa7860" transform="matrix(28.41974 0 0 -28.41974 217.592 173.339)"/><use xlink:href="#C" fill="#fa7860" data-text="d" transform="matrix(28.41974 0 0 -28.41974 222.423 173.339)"/><use xlink:href="#y" fill="#fa7860" data-text="i" transform="matrix(28.41974 0 0 -28.41974 241.749 173.339)"/><use xlink:href="#x" fill="#fa7860" data-text="n" transform="matrix(28.41974 0 0 -28.41974 250.9 173.339)"/><use xlink:href="#B" fill="#fa7860" transform="matrix(28.41974 0 0 -28.41974 270.708 173.339)"/><path fill="none" stroke="#fa7860" stroke-miterlimit="10" stroke-width=".49992000000000003" d="M97.462 153.217v5.001h5.285v15.12h6.31v-15.12h5.342v-5.001zM131.622 165.18c0-1.646-.346-3.079-1.037-4.29a7.05 7.05 0 0 0-2.9-2.799q-1.861-.98-4.248-.982-2.386.001-4.25.996a7.07 7.07 0 0 0-2.898 2.856q-1.036 1.862-1.037 4.364 0 2.5 1.037 4.363a7.1 7.1 0 0 0 2.899 2.853q1.863.997 4.249.996 1.989 0 3.652-.782 1.662-.78 2.757-2.131a6.94 6.94 0 0 0 1.436-3.053h-6.68q-.454.936-1.478.936-1.59 0-1.733-2.076h10.146a9 9 0 0 0 .085-1.25Zm-10.146-1.504q.284-1.62 1.96-1.62.768 0 1.28.41.511.415.511 1.21zM144.837 157.196q-1.705 0-2.941.71a5.7 5.7 0 0 0-1.975 1.848v-7.447h-6.31v21.031h6.31v-8.498q0-1.138.597-1.803.595-.67 1.648-.67 1.023 0 1.634.67.61.665.611 1.803v8.498h6.28v-9.293q0-3.153-1.548-5.004-1.55-1.844-4.306-1.845ZM164.645 157.196q-1.704 0-2.941.71a5.7 5.7 0 0 0-1.974 1.848v-2.443h-6.31v16.027h6.31v-8.498q-.001-1.138.597-1.803.596-.67 1.647-.67 1.023 0 1.634.67.61.665.611 1.803v8.498h6.28v-9.293q0-3.153-1.547-5.004-1.55-1.844-4.307-1.845ZM176.412 156.03q1.618 0 2.614-.879.995-.882.995-2.217 0-1.365-.995-2.261-.996-.893-2.614-.893-1.649 0-2.644.893-.995.895-.995 2.26 0 1.335.995 2.218.995.879 2.644.878Zm-3.184 17.308h6.31V157.31h-6.31ZM181.527 165.325q0 2.498 1.037 4.363a7.06 7.06 0 0 0 2.9 2.853q1.86.997 4.248.996 3.125 0 5.272-1.761 2.145-1.762 2.714-4.889h-6.679q-.369 1.25-1.449 1.25-.767 0-1.208-.71t-.44-2.102q0-1.394.44-2.105.44-.71 1.208-.71 1.08 0 1.45 1.25h6.678q-.568-3.125-2.714-4.887c-1.431-1.173-3.188-1.764-5.272-1.764q-2.387.001-4.248.996a7.07 7.07 0 0 0-2.9 2.856q-1.036 1.862-1.037 4.364ZM198.834 165.325q0 2.526.868 4.39.864 1.861 2.372 2.84 1.505.983 3.383.982 1.56 0 2.7-.64a4.33 4.33 0 0 0 1.733-1.748v2.19h6.28V157.31h-6.28v2.186a4.35 4.35 0 0 0-1.733-1.747q-1.14-.64-2.7-.64-1.877 0-3.383.981c-1.005.653-1.796 1.603-2.372 2.842-.579 1.243-.868 2.704-.868 4.392Zm11.056 0q0 1.277-.654 1.99-.654.709-1.676.71-1.025-.001-1.678-.71-.654-.713-.653-1.99 0-1.281.653-1.99t1.678-.71q1.022 0 1.676.71.654.709.654 1.99Zm3.581-14.808v-.483h-2.928q0 .881-.54 1.323-.54.44-1.875.439-1.337 0-1.875-.44-.54-.44-.54-1.322h-2.93v.483q.002 2.815 1.493 4.29 1.493 1.48 3.852 1.48t3.85-1.48q1.493-1.475 1.493-4.29ZM222.99 165.325q0 2.526.868 4.39.865 1.861 2.373 2.84 1.505.983 3.381.982 1.563 0 2.686-.64a4.35 4.35 0 0 0 1.72-1.748v2.19h6.308v-21.032h-6.309v7.19a4.37 4.37 0 0 0-1.719-1.747q-1.123-.64-2.686-.64-1.875 0-3.381.981c-1.005.653-1.797 1.603-2.373 2.842-.579 1.243-.867 2.704-.867 4.392Zm11.056 0q0 1.277-.655 1.99-.653.709-1.675.71-1.024-.001-1.677-.71-.654-.713-.654-1.99 0-1.281.654-1.99.652-.71 1.677-.71 1.022 0 1.675.71.655.709.655 1.99ZM246.353 156.03q1.617 0 2.613-.879.994-.882.994-2.217 0-1.365-.994-2.261c-.662-.595-1.536-.893-2.613-.893-1.102 0-1.98.298-2.645.893q-.995.895-.996 2.26.002 1.335.996 2.218c.665.586 1.543.878 2.645.878Zm-3.185 17.308h6.31V157.31h-6.31ZM263.544 157.196q-1.704 0-2.94.71a5.7 5.7 0 0 0-1.975 1.848v-2.443h-6.31v16.027h6.31v-8.498q0-1.138.597-1.803.595-.67 1.647-.67 1.026 0 1.634.67.612.665.612 1.803v8.498h6.28v-9.293q.001-3.153-1.55-5.004-1.548-1.844-4.305-1.845Z"/><use xlink:href="#c" fill="#fa7860" data-text="C" transform="matrix(28.41974 0 0 -28.41974 79.388 205.678)"/><use xlink:href="#D" fill="#fa7860" data-text="l" transform="matrix(28.41974 0 0 -28.41974 100.788 205.678)"/><use xlink:href="#E" fill="#fa7860" data-text="u" transform="matrix(28.41974 0 0 -28.41974 109.939 205.678)"/><use xlink:href="#F" fill="#fa7860" data-text="j" transform="matrix(28.41974 0 0 -28.41974 129.719 205.678)"/><use xlink:href="#G" fill="#fa7860" data-text="-" transform="matrix(28.41974 0 0 -28.41974 138.842 205.678)"/><use xlink:href="#H" fill="#fa7860" data-text="N" transform="matrix(28.41974 0 0 -28.41974 155.212 205.678)"/><use xlink:href="#t" fill="#fa7860" data-text="a" transform="matrix(28.41974 0 0 -28.41974 177.35 205.678)"/><use xlink:href="#I" fill="#fa7860" data-text="p" transform="matrix(28.41974 0 0 -28.41974 196.676 205.678)"/><use xlink:href="#J" fill="#fa7860" data-text="o" transform="matrix(28.41974 0 0 -28.41974 216.001 205.678)"/><use xlink:href="#K" fill="#fa7860" data-text="c" transform="matrix(28.41974 0 0 -28.41974 234.076 205.678)"/><use xlink:href="#t" fill="#fa7860" data-text="a" transform="matrix(28.41974 0 0 -28.41974 251.384 205.678)"/><path fill="none" stroke="#fa7860" stroke-miterlimit="10" stroke-width=".49992000000000003" d="M80.24 195.589q0 2.985 1.208 5.314a8.7 8.7 0 0 0 3.453 3.624q2.245 1.293 5.286 1.293 2.613 0 4.675-.981 2.059-.98 3.353-2.771t1.72-4.177h-6.65q-.456.994-1.293 1.549-.84.554-1.919.554-1.592 0-2.515-1.194-.924-1.193-.924-3.211t.924-3.212 2.515-1.193q1.08 0 1.92.554.836.554 1.292 1.55h6.65q-.426-2.389-1.72-4.18-1.293-1.79-3.353-2.77-2.062-.98-4.675-.98-3.041 0-5.286 1.293a8.7 8.7 0 0 0-3.453 3.623q-1.209 2.33-1.208 5.315ZM102.208 205.677h6.31v-21.03h-6.31ZM122.017 189.649v8.498q0 1.137-.597 1.804-.596.668-1.648.668-1.023 0-1.634-.668-.61-.668-.611-1.804v-8.498h-6.28v9.293q0 3.154 1.548 5.002 1.55 1.847 4.306 1.848 1.705 0 2.941-.711a5.7 5.7 0 0 0 1.975-1.848v2.445h6.31v-16.03zM134.294 188.37q1.619.001 2.615-.88.994-.882.994-2.218.001-1.364-.994-2.259-.996-.895-2.615-.894-1.65 0-2.643.894-.996.895-.995 2.26 0 1.336.995 2.217t2.643.88Zm3.184 1.28h-6.31v17.25q0 .569-.27.824-.27.256-.895.257h-1.222v5.37h2.103q6.593 0 6.594-6.565zM139.41 198.573h13.243v-5.202H139.41ZM175.928 185.557h-6.31v10.288l-6.677-10.288h-6.31v20.121h6.31v-10.117l6.677 10.117h6.31zM177.917 197.663q0 2.53.867 4.39.865 1.863 2.373 2.843 1.505.981 3.381.98 1.564 0 2.7-.639a4.35 4.35 0 0 0 1.735-1.748v2.189h6.28v-16.03h-6.28v2.189a4.35 4.35 0 0 0-1.735-1.748q-1.136-.639-2.7-.639-1.875 0-3.381.98-1.507.982-2.373 2.842-.867 1.863-.867 4.391Zm11.056 0q-.001 1.28-.656 1.99-.651.71-1.676.71-1.022 0-1.676-.71t-.653-1.99q0-1.279.653-1.989.654-.709 1.676-.71 1.025.001 1.676.71.655.71.656 1.99ZM204.404 191.838v-2.188h-6.31v23.701h6.31v-9.861a4.35 4.35 0 0 0 1.718 1.747q1.124.64 2.687.64 1.875 0 3.382-.98 1.506-.98 2.372-2.842.867-1.862.867-4.392 0-2.529-.867-4.39-.866-1.861-2.372-2.842-1.507-.981-3.382-.98-1.564 0-2.687.638a4.36 4.36 0 0 0-1.718 1.749Zm4.632 5.825q0 1.28-.653 1.99-.655.71-1.678.71t-1.676-.71q-.655-.71-.653-1.99c0-.853.215-1.515.653-1.989q.654-.71 1.676-.71 1.023 0 1.678.71.653.71.653 1.99ZM225.035 205.877q2.415 0 4.35-.996a7.3 7.3 0 0 0 3.026-2.855q1.093-1.861 1.094-4.363-.001-2.499-1.094-4.363a7.34 7.34 0 0 0-3.027-2.855q-1.935-.995-4.349-.995-2.416 0-4.348.995a7.34 7.34 0 0 0-3.027 2.855q-1.092 1.863-1.093 4.363t1.093 4.363a7.3 7.3 0 0 0 3.027 2.855q1.933.997 4.348.996Zm0-5.457q-.908 0-1.49-.696-.584-.696-.583-2.06 0-1.364.596-2.06.597-.698 1.477-.698t1.48.698q.595.696.595 2.06t-.595 2.06q-.599.697-1.48.696ZM234.642 197.663q0 2.501 1.037 4.363a7.1 7.1 0 0 0 2.9 2.856q1.86.994 4.248.994 3.125 0 5.27-1.76 2.146-1.763 2.715-4.89h-6.68q-.366 1.251-1.446 1.25-.77.001-1.21-.709t-.44-2.104q0-1.392.44-2.102t1.21-.71q1.08 0 1.447 1.25h6.679q-.57-3.126-2.714-4.889-2.146-1.762-5.27-1.762-2.389 0-4.25.996a7.07 7.07 0 0 0-2.9 2.855q-1.036 1.862-1.036 4.362ZM251.95 197.663q-.001 2.53.866 4.39.866 1.863 2.373 2.843 1.506.981 3.382.98 1.563 0 2.7-.639a4.37 4.37 0 0 0 1.735-1.748v2.189h6.279v-16.03h-6.279v2.189a4.37 4.37 0 0 0-1.735-1.748q-1.137-.639-2.7-.639-1.875 0-3.382.98-1.507.982-2.373 2.842-.868 1.863-.867 4.391Zm11.056 0q-.001 1.28-.655 1.99t-1.678.71q-1.022 0-1.677-.71-.651-.71-.65-1.99-.001-1.279.65-1.989.655-.709 1.677-.71 1.024.001 1.678.71.653.71.655 1.99Z"/><path fill="none" stroke="#1265e5" stroke-miterlimit="10" stroke-width="1.0000799999999999" d="M86.998 35.37v10.17q0 2.598.995 4.406.993 1.81 2.764 2.726 1.771.918 4.064.917 2.294 0 4.154-.917a6.85 6.85 0 0 0 2.93-2.738q1.07-1.822 1.07-4.395V35.371h-5.631v10.168c0 .833-.197 1.488-.587 1.976q-.584.724-1.809.724-1.222 0-1.77-.724c-.366-.488-.548-1.143-.548-1.976V35.371zM115.486 38.94q-1.53-.001-2.638.635a5.1 5.1 0 0 0-1.77 1.656v-2.19h-5.656v14.37h5.656v-7.617q0-1.02.535-1.618.533-.6 1.477-.6.918 0 1.465.6.547.599.547 1.618v7.617h5.633v-8.33q0-2.83-1.39-4.486-1.388-1.656-3.86-1.656ZM126.034 37.895q1.453 0 2.344-.79.892-.791.892-1.986 0-1.225-.892-2.028-.89-.8-2.344-.802-1.477.001-2.37.802-.892.803-.891 2.028 0 1.195.891 1.987.893.789 2.37.79Zm-2.853 15.516h5.656v-14.37h-5.656ZM136.352 39.04h-6.013l4.79 14.371h7.058l4.792-14.37h-6.014l-2.293 8.994zM162.393 46.099q0-2.217-.93-3.848a6.34 6.34 0 0 0-2.599-2.51q-1.67-.879-3.81-.878-2.14 0-3.808.892a6.33 6.33 0 0 0-2.6 2.559q-.93 1.67-.93 3.912t.93 3.912a6.35 6.35 0 0 0 2.6 2.56q1.668.892 3.808.89 1.784 0 3.275-.697 1.492-.7 2.471-1.913a6.2 6.2 0 0 0 1.286-2.739H156.1q-.409.841-1.326.84-1.427 0-1.553-1.86h9.095q.077-.534.077-1.12Zm-9.096-1.352q.254-1.451 1.757-1.452.689.001 1.148.37.458.37.458 1.082zM169.833 41.692V39.04h-5.656v14.371h5.656v-5.884q0-1.427.752-1.99.75-.559 2.356-.56h1.606V38.94q-1.351 0-2.6.752a6.9 6.9 0 0 0-2.114 2.001ZM182.471 53.589q1.86.001 3.249-.586 1.388-.586 2.127-1.605.739-1.017.74-2.292 0-1.632-.79-2.561-.79-.93-1.86-1.313-1.073-.38-2.625-.686-1.172-.231-1.708-.447-.534-.217-.533-.65 0-.33.228-.497.229-.165.662-.165.688-.001 1.096.319.407.317.536.902h5.019q-.332-2.293-1.975-3.717-1.642-1.429-4.55-1.428-1.96 0-3.337.624-1.375.625-2.075 1.708a4.3 4.3 0 0 0-.702 2.408q.001 1.526.752 2.395c.501.576 1.087.986 1.758 1.221q1.007.357 2.56.663 1.276.256 1.81.458.534.206.535.689 0 .28-.255.47-.254.194-.688.192-.686.001-1.133-.304-.446-.306-.549-.944h-5.427q.127 1.478 1.045 2.65t2.486 1.836q1.564.661 3.604.66ZM193.682 37.895q1.453 0 2.344-.79.891-.791.891-1.986 0-1.225-.89-2.028-.894-.8-2.345-.802-1.477.001-2.37.802-.892.803-.892 2.028 0 1.195.892 1.987.892.789 2.37.79Zm-2.854 15.516h5.656v-14.37h-5.656ZM206.626 48.597q-.562 0-.804-.23-.242-.228-.241-.74v-3.873h2.344V39.04h-2.344v-3.463h-5.657v3.463h-1.783v4.714h1.783v3.773q0 5.885 5.911 5.884h2.142v-4.814zM209.377 46.226q0 2.268.777 3.938.778 1.666 2.128 2.547 1.35.88 3.032.878 1.401 0 2.42-.571a3.9 3.9 0 0 0 1.554-1.567v1.963h5.632V39.04h-5.632v1.963a3.9 3.9 0 0 0-1.554-1.567q-1.019-.572-2.42-.573-1.682 0-3.032.878-1.35.882-2.128 2.549-.777 1.667-.777 3.936Zm9.911 0q0 1.147-.585 1.783-.585.638-1.504.638-.917 0-1.503-.638-.587-.636-.587-1.783t.587-1.783q.586-.637 1.503-.636.918-.002 1.504.636.585.637.585 1.783ZM235.06 48.597q-.56 0-.803-.23-.241-.228-.242-.74v-3.873h2.346V39.04h-2.346v-3.463h-5.655v3.463h-1.785v4.714h1.785v3.773q0 5.885 5.91 5.884h2.142v-4.814zM252.49 46.099q-.002-2.217-.932-3.848a6.33 6.33 0 0 0-2.599-2.51q-1.67-.879-3.809-.878-2.142 0-3.808.892a6.33 6.33 0 0 0-2.6 2.559q-.93 1.67-.93 3.912t.93 3.912a6.35 6.35 0 0 0 2.6 2.56q1.666.892 3.808.89 1.784 0 3.276-.697 1.49-.7 2.47-1.913a6.2 6.2 0 0 0 1.286-2.739h-5.988q-.405.841-1.324.84-1.427 0-1.553-1.86h9.096q.076-.534.076-1.12Zm-9.099-1.352q.255-1.451 1.76-1.452.687.001 1.147.37.457.37.458 1.082zM253.507 46.226q0 2.268.778 3.938.776 1.666 2.126 2.547 1.353.88 3.034.878c.933 0 1.742-.19 2.419-.571.679-.384 1.2-.905 1.555-1.567v1.963h5.63V39.04h-5.63v1.963a3.9 3.9 0 0 0-1.555-1.567q-1.017-.572-2.42-.573-1.68 0-3.033.878-1.35.882-2.126 2.549-.778 1.667-.778 3.936Zm9.912 0q.001 1.147-.586 1.783-.585.638-1.504.638-.916 0-1.503-.638-.586-.636-.585-1.783 0-1.146.585-1.783.587-.637 1.503-.636.918-.002 1.504.636.587.637.586 1.783ZM115 63.791v4.486h4.74v13.555h5.656V68.277h4.79V63.79zM145.627 74.52q0-2.218-.931-3.848a6.3 6.3 0 0 0-2.598-2.51q-1.67-.879-3.81-.879-2.14.001-3.808.89a6.36 6.36 0 0 0-2.6 2.561q-.93 1.67-.93 3.91 0 2.244.93 3.914a6.36 6.36 0 0 0 2.6 2.561q1.668.89 3.808.89 1.784.001 3.275-.7a6.9 6.9 0 0 0 2.471-1.91 6.2 6.2 0 0 0 1.286-2.74h-5.987q-.408.84-1.325.84-1.426 0-1.554-1.86h9.096q.076-.535.077-1.12Zm-9.097-1.352q.255-1.451 1.758-1.452.688-.001 1.147.37.459.368.46 1.082zM157.475 67.358q-1.529 0-2.638.638a5.1 5.1 0 0 0-1.77 1.656v-6.674h-5.656v18.854h5.656v-7.62q0-1.016.534-1.618.536-.597 1.478-.597.918 0 1.464.597.55.602.549 1.618v7.62h5.631v-8.333q0-2.827-1.388-4.483-1.39-1.657-3.86-1.658ZM175.234 67.358q-1.529 0-2.638.638a5.1 5.1 0 0 0-1.77 1.656V67.46h-5.656v14.37h5.656v-7.62q0-1.015.535-1.617.535-.597 1.477-.597.918 0 1.465.597.55.602.548 1.618v7.62h5.632v-8.333q0-2.827-1.389-4.483-1.39-1.657-3.86-1.658ZM185.783 66.314q1.452.001 2.344-.79.89-.789.89-1.987 0-1.223-.89-2.026-.892-.803-2.344-.804-1.478 0-2.37.804-.892.802-.892 2.026 0 1.198.892 1.987.892.791 2.37.79Zm-2.854 15.518h5.656V67.46h-5.656ZM190.369 74.646q0 2.243.93 3.912a6.33 6.33 0 0 0 2.598 2.559q1.67.892 3.81.892 2.803.001 4.725-1.579 1.925-1.578 2.435-4.385h-5.989q-.33 1.124-1.298 1.124-.69 0-1.083-.636c-.264-.428-.396-1.054-.396-1.887q0-1.247.396-1.886.394-.637 1.083-.636.968 0 1.298 1.12h5.989q-.51-2.802-2.435-4.382-1.922-1.58-4.726-1.581-2.14.002-3.809.893a6.35 6.35 0 0 0-2.598 2.56q-.93 1.67-.93 3.912ZM205.886 74.646q0 2.269.777 3.936.777 1.67 2.127 2.549t3.033.878q1.401-.001 2.42-.57a3.9 3.9 0 0 0 1.554-1.57v1.963h5.632V67.46h-5.632v1.963a3.87 3.87 0 0 0-1.554-1.567q-1.019-.575-2.42-.576-1.682.001-3.033.88t-2.127 2.55q-.777 1.666-.777 3.935Zm9.911 0q0 1.148-.586 1.783-.585.637-1.502.636-.919.001-1.504-.636-.587-.635-.587-1.783t.587-1.783q.585-.637 1.504-.636.916 0 1.502.636t.586 1.783Zm3.211-13.274v-.434h-2.624q0 .79-.484 1.185-.486.395-1.682.394-1.199.001-1.682-.394-.484-.395-.484-1.185h-2.624v.434q0 2.521 1.337 3.847 1.339 1.325 3.453 1.325t3.452-1.325q1.338-1.326 1.338-3.847ZM227.544 74.646q0 2.269.777 3.936.777 1.67 2.127 2.549t3.033.878q1.4-.001 2.408-.57a3.93 3.93 0 0 0 1.54-1.57v1.963h5.657V62.978h-5.656v6.446a3.9 3.9 0 0 0-1.541-1.567q-1.007-.575-2.408-.576-1.682.001-3.033.88t-2.127 2.55q-.777 1.666-.777 3.935Zm9.911 0q0 1.148-.586 1.783-.585.637-1.503.636-.917.001-1.503-.636-.587-.635-.587-1.783t.587-1.783q.586-.637 1.503-.636.918 0 1.503.636.586.636.586 1.783ZM248.489 66.314q1.45.001 2.342-.79.893-.789.893-1.987 0-1.223-.893-2.026-.892-.803-2.342-.804-1.48 0-2.371.804c-.596.535-.89 1.21-.89 2.026q-.002 1.198.89 1.987.892.791 2.37.79Zm-2.856 15.518h5.657V67.46h-5.657ZM263.904 67.358q-1.53 0-2.638.638a5.1 5.1 0 0 0-1.771 1.656V67.46h-5.654v14.37h5.654v-7.62q.001-1.015.535-1.617.534-.597 1.479-.597.917 0 1.464.597.546.602.547 1.618v7.62h5.633v-8.333q0-2.827-1.39-4.483-1.39-1.657-3.86-1.658ZM99.56 101.207q-.001 2.674 1.084 4.764a7.84 7.84 0 0 0 3.096 3.25q2.013 1.157 4.739 1.156 2.343.002 4.19-.878a7.73 7.73 0 0 0 3.008-2.484q1.158-1.605 1.541-3.747h-5.962q-.41.894-1.159 1.39a3.05 3.05 0 0 1-1.721.497q-1.426-.001-2.254-1.07t-.829-2.878q0-1.81.83-2.88.826-1.071 2.253-1.07.968 0 1.721.496.75.498 1.159 1.387h5.962q-.383-2.137-1.541-3.744a7.73 7.73 0 0 0-3.007-2.483q-1.849-.88-4.191-.881-2.726.002-4.74 1.159a7.84 7.84 0 0 0-3.095 3.25c-.723 1.394-1.083 2.98-1.083 4.766ZM119.257 110.252h5.656V91.398h-5.656ZM137.016 95.881v7.618q0 1.02-.535 1.617-.536.6-1.479.6-.916 0-1.465-.6-.547-.598-.547-1.617V95.88h-5.631v8.33q0 2.83 1.387 4.486 1.39 1.656 3.862 1.656 1.529 0 2.637-.638a5.1 5.1 0 0 0 1.771-1.656v2.193h5.656v-14.37zM148.023 94.734q1.453 0 2.344-.79.891-.787.891-1.987 0-1.223-.891-2.025-.89-.803-2.344-.804-1.476 0-2.37.804-.891.802-.891 2.025 0 1.2.891 1.988.894.789 2.37.79Zm2.854 1.145h-5.657v15.468q0 .507-.242.739-.244.228-.802.23h-1.095v4.815h1.884q5.912.001 5.912-5.887zM152.61 103.88h11.873v-4.663h-11.874ZM185.35 92.212h-5.657v9.223l-5.987-9.223h-5.657v18.038h5.657v-9.07l5.987 9.07h5.657zM187.133 103.067c0 1.51.26 2.825.778 3.936.517 1.113 1.227 1.96 2.127 2.549q1.35.878 3.033.878 1.4 0 2.42-.574a3.9 3.9 0 0 0 1.554-1.567v1.963h5.631v-14.37h-5.631v1.96a3.9 3.9 0 0 0-1.555-1.567q-1.018-.573-2.42-.574-1.682.001-3.032.881t-2.127 2.546q-.778 1.671-.778 3.939Zm9.912 0q0 1.145-.586 1.783-.585.637-1.504.636-.917 0-1.503-.636-.586-.638-.587-1.783 0-1.148.587-1.783.587-.64 1.503-.639.918-.002 1.504.639.585.635.586 1.783ZM210.88 97.842V95.88h-5.656v21.252h5.656v-8.842a3.9 3.9 0 0 0 1.541 1.567q1.007.573 2.408.574 1.682 0 3.033-.878 1.35-.88 2.127-2.55c.518-1.11.777-2.426.777-3.938q0-2.265-.777-3.936-.776-1.666-2.127-2.546t-3.033-.88q-1.4 0-2.408.573a3.9 3.9 0 0 0-1.54 1.567Zm4.153 5.222q0 1.149-.586 1.786-.584.637-1.504.636-.916 0-1.501-.636-.588-.637-.587-1.786 0-1.144.587-1.78.585-.64 1.501-.639.92-.002 1.504.639.586.636.586 1.78ZM229.378 110.43q2.166 0 3.898-.893a6.56 6.56 0 0 0 2.714-2.56q.981-1.668.981-3.913 0-2.239-.981-3.91a6.56 6.56 0 0 0-2.714-2.56q-1.732-.893-3.898-.893t-3.897.893a6.56 6.56 0 0 0-2.715 2.56q-.981 1.672-.981 3.91 0 2.245.981 3.912a6.56 6.56 0 0 0 2.715 2.561q1.731.893 3.897.893Zm0-4.894q-.816 0-1.338-.621-.522-.627-.522-1.85 0-1.22.535-1.846.536-.625 1.325-.624.79-.001 1.325.624.536.625.535 1.845.001 1.224-.535 1.85-.536.623-1.325.622ZM237.99 103.067q0 2.24.93 3.91a6.33 6.33 0 0 0 2.6 2.56q1.67.893 3.808.893 2.804 0 4.725-1.582 1.927-1.575 2.434-4.382H246.5q-.33 1.123-1.298 1.123-.688.001-1.083-.638-.396-.638-.396-1.884 0-1.25.396-1.887.395-.637 1.083-.638.967 0 1.298 1.123h5.988c-.338-1.87-1.15-3.329-2.434-4.385q-1.92-1.577-4.725-1.579-2.139 0-3.809.893a6.35 6.35 0 0 0-2.599 2.56q-.93 1.67-.93 3.913ZM253.507 103.067c0 1.51.26 2.825.778 3.936.518 1.113 1.226 1.96 2.126 2.549q1.353.878 3.034.878c.933 0 1.742-.192 2.419-.574.679-.381 1.2-.904 1.555-1.567v1.963h5.63v-14.37h-5.63v1.96a3.9 3.9 0 0 0-1.555-1.567q-1.017-.573-2.42-.574-1.68.001-3.033.881-1.35.88-2.126 2.546-.778 1.671-.778 3.939Zm9.912 0q.001 1.145-.586 1.783-.585.637-1.504.636-.916 0-1.503-.636-.586-.638-.585-1.783 0-1.148.585-1.783.587-.64 1.503-.639.918-.002 1.504.639.587.635.586 1.783ZM87.383 220.279v10.167q0 2.597.993 4.407.994 1.809 2.765 2.726 1.77.918 4.063.918 2.294 0 4.154-.918a6.87 6.87 0 0 0 2.93-2.737q1.07-1.823 1.071-4.396v-10.167h-5.631v10.167q-.001 1.247-.587 1.974t-1.808.726q-1.224 0-1.771-.726-.55-.727-.549-1.974v-10.167zM115.87 223.846q-1.529 0-2.639.636a5.1 5.1 0 0 0-1.77 1.657v-2.191h-5.656v14.37h5.656V230.7q.001-1.018.535-1.618.536-.6 1.478-.599.917 0 1.464.599.55.6.549 1.618v7.619h5.631v-8.333q-.001-2.827-1.388-4.485-1.39-1.655-3.86-1.655ZM126.418 222.8q1.452 0 2.345-.789.89-.79.89-1.988 0-1.223-.89-2.025-.893-.803-2.345-.802-1.477-.001-2.37.802-.891.803-.892 2.025 0 1.198.892 1.988.893.79 2.37.79Zm-2.854 15.519h5.656v-14.371h-5.656ZM136.737 223.947h-6.013l4.79 14.37h7.058l4.79-14.37h-6.014l-2.293 8.995zM162.777 231.005q0-2.217-.93-3.847a6.3 6.3 0 0 0-2.6-2.509q-1.668-.88-3.81-.88-2.138 0-3.806.891a6.35 6.35 0 0 0-2.6 2.562q-.93 1.669-.93 3.91 0 2.244.93 3.912a6.33 6.33 0 0 0 2.6 2.56q1.667.894 3.807.893 1.784 0 3.276-.702a6.9 6.9 0 0 0 2.47-1.91 6.2 6.2 0 0 0 1.286-2.74h-5.987q-.407.84-1.325.84-1.427.001-1.554-1.859h9.097q.076-.535.076-1.12Zm-9.097-1.35q.256-1.452 1.758-1.452.69 0 1.147.369.459.37.46 1.082zM170.216 226.597v-2.65h-5.655v14.372h5.655v-5.887q0-1.425.752-1.986.75-.562 2.356-.562h1.606v-6.038q-1.35 0-2.6.752a6.9 6.9 0 0 0-2.114 2ZM182.855 238.497q1.859 0 3.248-.586t2.128-1.605.739-2.293q0-1.63-.79-2.562-.79-.93-1.86-1.311-1.072-.383-2.624-.689-1.173-.228-1.707-.445-.536-.217-.535-.651 0-.33.228-.497.23-.165.663-.165.687 0 1.096.319.407.319.535.904h5.02q-.333-2.294-1.975-3.72-1.644-1.427-4.549-1.427-1.962 0-3.338.624-1.376.623-2.076 1.708a4.33 4.33 0 0 0-.701 2.408q0 1.528.752 2.394a4.14 4.14 0 0 0 1.759 1.223q1.005.358 2.559.662 1.275.256 1.81.46.535.203.536.687 0 .28-.255.471-.256.192-.689.193-.687 0-1.134-.306-.446-.307-.547-.943h-5.428a4.9 4.9 0 0 0 1.045 2.65q.917 1.171 2.485 1.834 1.566.662 3.605.663ZM194.066 222.8q1.452 0 2.344-.789.89-.79.89-1.988 0-1.223-.89-2.025-.892-.803-2.344-.802-1.478-.001-2.37.802t-.892 2.025q0 1.198.892 1.988.893.79 2.37.79Zm-2.854 15.519h5.656v-14.371h-5.656ZM207.01 233.503q-.562 0-.804-.23-.243-.23-.242-.74v-3.872h2.346v-4.714h-2.346v-3.465h-5.656v3.465h-1.784v4.714h1.784v3.772q0 5.885 5.91 5.885h2.142v-4.815zM209.76 231.133q0 2.268.778 3.936.777 1.67 2.127 2.547 1.35.88 3.033.88 1.4 0 2.42-.572a3.9 3.9 0 0 0 1.554-1.568v1.963h5.632v-14.372h-5.632v1.962a3.9 3.9 0 0 0-1.554-1.567q-1.02-.572-2.42-.572-1.682 0-3.033.88-1.35.877-2.127 2.545-.777 1.671-.777 3.938Zm9.912 0q0 1.146-.586 1.784-.584.637-1.503.636-.917 0-1.503-.636-.586-.638-.587-1.784 0-1.147.587-1.783.586-.638 1.503-.639.918 0 1.503.639.585.636.586 1.783ZM235.444 233.503q-.561 0-.802-.23-.242-.23-.242-.74v-3.872h2.344v-4.714H234.4v-3.465h-5.656v3.465h-1.784v4.714h1.784v3.772q0 5.885 5.91 5.885h2.141v-4.815zM252.873 231.005q-.002-2.217-.93-3.847a6.33 6.33 0 0 0-2.597-2.509c-1.116-.586-2.384-.88-3.812-.88q-2.14 0-3.808.891a6.35 6.35 0 0 0-2.6 2.562q-.93 1.669-.93 3.91 0 2.244.93 3.912a6.33 6.33 0 0 0 2.6 2.56q1.668.894 3.808.893 1.784 0 3.274-.702 1.494-.698 2.472-1.91a6.24 6.24 0 0 0 1.286-2.74h-5.988q-.406.84-1.324.84-1.427.001-1.553-1.859h9.096q.076-.535.076-1.12Zm-9.098-1.35q.254-1.452 1.76-1.452.687 0 1.147.369.457.37.458 1.082zM253.891 231.133q0 2.268.778 3.936.777 1.67 2.126 2.547c.902.587 1.91.88 3.034.88q1.4 0 2.419-.572a3.9 3.9 0 0 0 1.555-1.568v1.963h5.63v-14.372h-5.63v1.962a3.9 3.9 0 0 0-1.555-1.567q-1.02-.572-2.42-.572c-1.123 0-2.13.293-3.033.88q-1.35.877-2.126 2.545-.778 1.671-.778 3.938Zm9.912 0q.001 1.146-.586 1.784-.584.637-1.504.636-.916 0-1.503-.636-.587-.638-.588-1.784 0-1.147.588-1.783.587-.638 1.503-.639.92 0 1.504.639.587.636.586 1.783ZM115.384 248.699v4.483h4.74v13.557h5.656v-13.557h4.79V248.7zM146.01 259.426c0-1.48-.31-2.76-.93-3.848a6.32 6.32 0 0 0-2.598-2.509q-1.67-.879-3.81-.878-2.141 0-3.808.89a6.35 6.35 0 0 0-2.6 2.561q-.93 1.67-.93 3.91 0 2.244.93 3.912a6.33 6.33 0 0 0 2.6 2.561q1.666.893 3.808.892 1.784 0 3.274-.7a6.9 6.9 0 0 0 2.472-1.912 6.2 6.2 0 0 0 1.286-2.738h-5.987q-.408.84-1.326.84-1.427 0-1.553-1.86h9.096a8 8 0 0 0 .076-1.12Zm-9.096-1.35q.255-1.454 1.758-1.453.688 0 1.147.37.458.369.459 1.082zM157.858 252.267q-1.529 0-2.638.636a5.1 5.1 0 0 0-1.77 1.656v-6.676h-5.656v18.856h5.656v-7.618q.001-1.02.536-1.619.533-.598 1.476-.598.918 0 1.465.598.548.6.548 1.619v7.618h5.632v-8.332q0-2.828-1.389-4.485-1.388-1.655-3.86-1.655ZM175.618 252.267q-1.529 0-2.638.636a5.1 5.1 0 0 0-1.77 1.656v-2.191h-5.656v14.37h5.656v-7.617q.002-1.02.534-1.619.536-.598 1.478-.598.918 0 1.465.598.549.6.548 1.619v7.618h5.632v-8.332q0-2.828-1.39-4.485-1.389-1.655-3.859-1.655ZM186.167 251.221q1.45 0 2.344-.79.89-.79.89-1.987 0-1.224-.89-2.025-.894-.804-2.344-.803-1.478 0-2.37.803-.893.801-.893 2.025 0 1.197.893 1.987.892.79 2.37.79Zm-2.855 15.518h5.657v-14.371h-5.657ZM190.752 259.553q0 2.243.93 3.91a6.34 6.34 0 0 0 2.6 2.562q1.668.893 3.809.892 2.801 0 4.726-1.58 1.923-1.578 2.434-4.383h-5.988q-.332 1.122-1.3 1.122-.69.001-1.082-.637-.397-.637-.397-1.886t.397-1.885q.393-.637 1.082-.637.968 0 1.3 1.121h5.988q-.51-2.804-2.434-4.383-1.925-1.578-4.726-1.578-2.14 0-3.81.89a6.35 6.35 0 0 0-2.599 2.561q-.93 1.67-.93 3.91ZM206.27 259.553q0 2.269.777 3.937.777 1.67 2.127 2.547 1.35.88 3.033.88 1.4 0 2.42-.573a3.9 3.9 0 0 0 1.554-1.567v1.963h5.632v-14.373h-5.632v1.962a3.9 3.9 0 0 0-1.554-1.566q-1.02-.573-2.42-.572-1.683 0-3.033.878-1.35.879-2.127 2.547-.777 1.67-.777 3.937Zm9.91 0q0 1.147-.585 1.784t-1.503.637-1.503-.637-.587-1.784.587-1.782q.586-.639 1.503-.639.918 0 1.503.639.585.635.586 1.782Zm3.212-13.273v-.434h-2.624q0 .789-.484 1.185-.486.393-1.682.394-1.199 0-1.682-.394-.484-.397-.484-1.185h-2.624v.434q0 2.52 1.337 3.845 1.338 1.325 3.453 1.325 2.114.001 3.452-1.325 1.338-1.324 1.338-3.845ZM227.926 259.553q0 2.269.778 3.937.777 1.67 2.127 2.547 1.35.88 3.033.88 1.4 0 2.408-.573a3.9 3.9 0 0 0 1.541-1.567v1.963h5.657v-18.857h-5.657v6.446a3.9 3.9 0 0 0-1.54-1.566q-1.008-.573-2.41-.572-1.681 0-3.032.878-1.35.879-2.127 2.547-.778 1.67-.778 3.937Zm9.912 0q0 1.147-.586 1.784-.584.637-1.503.637-.917 0-1.503-.637-.586-.638-.587-1.784 0-1.147.587-1.782.586-.639 1.503-.639.918 0 1.503.639.585.635.586 1.782ZM248.87 251.221q1.454 0 2.345-.79.89-.79.89-1.987 0-1.224-.89-2.025-.891-.804-2.345-.803-1.476 0-2.368.803-.893.801-.893 2.025 0 1.197.893 1.987.892.79 2.368.79Zm-2.853 15.518h5.656v-14.371h-5.656ZM264.285 252.267q-1.53 0-2.637.636a5.1 5.1 0 0 0-1.769 1.656v-2.191h-5.657v14.37h5.657v-7.617q0-1.02.535-1.619.533-.598 1.476-.598.918 0 1.464.598.55.6.55 1.619v7.618h5.63v-8.332q0-2.828-1.387-4.485-1.389-1.655-3.862-1.655ZM99.945 286.114q0 2.674 1.083 4.764a7.83 7.83 0 0 0 3.095 3.249q2.013 1.158 4.74 1.158 2.344 0 4.191-.878a7.75 7.75 0 0 0 3.006-2.485q1.16-1.605 1.542-3.746h-5.962q-.409.893-1.16 1.39a3.05 3.05 0 0 1-1.72.496q-1.427 0-2.255-1.07t-.828-2.878.828-2.88q.828-1.07 2.255-1.07.969 0 1.72.496.751.497 1.16 1.39h5.962q-.382-2.141-1.542-3.747a7.74 7.74 0 0 0-3.006-2.483q-1.848-.88-4.192-.88-2.726 0-4.739 1.16a7.82 7.82 0 0 0-3.095 3.248q-1.084 2.09-1.083 4.766ZM119.64 295.159h5.657v-18.855h-5.656ZM137.4 280.787v7.619q-.001 1.02-.536 1.618-.536.6-1.477.599-.918 0-1.466-.599-.547-.597-.547-1.618v-7.619h-5.631v8.332q0 2.83 1.388 4.484 1.388 1.657 3.86 1.657 1.53 0 2.638-.637a5.1 5.1 0 0 0 1.77-1.656v2.19h5.656v-14.37zM148.408 279.641q1.45 0 2.343-.79.891-.79.891-1.988 0-1.223-.89-2.025-.894-.802-2.344-.802-1.479 0-2.37.802-.894.803-.893 2.025 0 1.2.893 1.988.891.79 2.37.79Zm2.853 1.146h-5.657v15.467q0 .51-.241.74-.244.228-.804.228h-1.095v4.816h1.886q5.91 0 5.911-5.886zM152.994 288.788h11.872v-4.663h-11.872ZM185.734 277.119h-5.657v9.223l-5.988-9.223h-5.656v18.04h5.656v-9.071l5.988 9.07h5.657zM187.517 287.973q0 2.269.777 3.937.778 1.668 2.127 2.547 1.35.88 3.033.88 1.4 0 2.42-.573a3.9 3.9 0 0 0 1.554-1.567v1.962h5.632v-14.372h-5.632v1.962a3.9 3.9 0 0 0-1.554-1.567q-1.02-.572-2.42-.572-1.682 0-3.033.88-1.35.877-2.127 2.546-.776 1.67-.777 3.937Zm9.911 0q0 1.148-.586 1.784-.584.636-1.503.636-.917 0-1.503-.636-.587-.638-.587-1.784 0-1.147.587-1.783.586-.638 1.503-.638.919 0 1.503.638.586.636.586 1.783ZM211.264 282.75v-1.963h-5.656v21.251h5.656v-8.841q.534.992 1.54 1.567 1.008.573 2.409.573 1.682 0 3.032-.88 1.35-.879 2.128-2.548.777-1.668.777-3.936t-.777-3.937-2.128-2.548q-1.35-.878-3.032-.878-1.401 0-2.408.573-1.006.572-1.54 1.566Zm4.153 5.223q0 1.147-.586 1.784-.585.637-1.504.637-.917 0-1.502-.637-.586-.638-.586-1.784 0-1.147.586-1.783.584-.638 1.502-.638t1.504.638q.585.636.586 1.783ZM229.762 295.337q2.165 0 3.898-.893a6.56 6.56 0 0 0 2.714-2.56q.98-1.668.98-3.911 0-2.241-.98-3.91a6.56 6.56 0 0 0-2.714-2.562q-1.733-.892-3.898-.892t-3.898.892a6.56 6.56 0 0 0-2.714 2.561q-.98 1.67-.98 3.91 0 2.244.98 3.912a6.56 6.56 0 0 0 2.714 2.56q1.732.894 3.898.893Zm0-4.893q-.816 0-1.338-.624t-.522-1.847.534-1.847q.537-.625 1.326-.625.79 0 1.325.625.535.624.535 1.847t-.535 1.847-1.325.624ZM238.374 287.973q0 2.244.93 3.911a6.34 6.34 0 0 0 2.6 2.561q1.668.892 3.808.892 2.802 0 4.725-1.58 1.926-1.58 2.434-4.384h-5.985q-.335 1.122-1.301 1.122-.69 0-1.083-.636-.396-.638-.396-1.886t.396-1.886q.394-.636 1.083-.636.966 0 1.3 1.121h5.986q-.507-2.803-2.434-4.383-1.923-1.58-4.725-1.58-2.14 0-3.809.892a6.34 6.34 0 0 0-2.6 2.56q-.93 1.671-.93 3.912ZM253.891 287.973q0 2.269.778 3.937.777 1.668 2.126 2.547c.902.586 1.91.88 3.034.88q1.4 0 2.419-.573a3.9 3.9 0 0 0 1.555-1.567v1.962h5.63v-14.372h-5.63v1.962a3.9 3.9 0 0 0-1.555-1.567q-1.02-.572-2.42-.572c-1.123 0-2.13.293-3.033.88q-1.35.877-2.126 2.546-.778 1.67-.778 3.937Zm9.912 0q.001 1.148-.586 1.784-.584.636-1.504.636-.916 0-1.503-.636-.587-.638-.588-1.784 0-1.147.588-1.783.587-.638 1.503-.638.92 0 1.504.638.587.636.586 1.783ZM86.208 307.173v10.167q-.001 2.599.994 4.408.994 1.808 2.764 2.726t4.063.918q2.294 0 4.154-.918a6.86 6.86 0 0 0 2.93-2.738q1.07-1.822 1.071-4.396v-10.167h-5.632v10.167q0 1.248-.586 1.975-.585.725-1.808.725t-1.771-.725q-.55-.728-.549-1.975v-10.167zM114.694 310.74q-1.528 0-2.638.637a5.1 5.1 0 0 0-1.77 1.656v-2.191h-5.655v14.37h5.655v-7.618q.001-1.019.536-1.617t1.476-.598q.917-.001 1.466.598.549.598.548 1.617v7.619h5.632v-8.332q-.002-2.828-1.389-4.485-1.39-1.656-3.86-1.656ZM125.243 309.695q1.453 0 2.345-.79.89-.79.89-1.986 0-1.225-.89-2.026-.892-.803-2.345-.803-1.477 0-2.37.803-.891.8-.891 2.026 0 1.196.891 1.986.893.79 2.37.79Zm-2.854 15.518h5.656v-14.371h-5.656ZM135.562 310.842h-6.013l4.79 14.37h7.058l4.79-14.37h-6.013l-2.293 8.994zM161.603 317.9q0-2.217-.931-3.848a6.34 6.34 0 0 0-2.599-2.509q-1.67-.878-3.81-.878t-3.808.89a6.35 6.35 0 0 0-2.6 2.562q-.93 1.668-.93 3.91 0 2.244.93 3.911a6.34 6.34 0 0 0 2.6 2.561q1.668.893 3.808.892 1.784 0 3.276-.7 1.49-.701 2.47-1.912a6.2 6.2 0 0 0 1.286-2.738h-5.987q-.408.84-1.324.84-1.428 0-1.555-1.86h9.096a8 8 0 0 0 .078-1.12Zm-9.098-1.35q.256-1.453 1.758-1.453.689 0 1.148.37.457.369.458 1.082zM169.042 313.492v-2.65h-5.656v14.37h5.656v-5.885q0-1.426.752-1.987.75-.56 2.356-.56h1.605v-6.04q-1.35 0-2.6.752a6.9 6.9 0 0 0-2.113 2ZM181.68 325.392q1.86 0 3.248-.587 1.39-.586 2.129-1.605a3.82 3.82 0 0 0 .738-2.292q0-1.632-.79-2.562t-1.86-1.312q-1.071-.383-2.624-.689-1.172-.229-1.708-.444-.534-.218-.534-.652 0-.329.228-.497.23-.164.663-.165.688 0 1.096.32.405.318.535.904h5.02q-.333-2.294-1.975-3.72-1.644-1.428-4.548-1.427-1.962 0-3.339.623-1.376.625-2.076 1.708a4.34 4.34 0 0 0-.7 2.409q0 1.528.751 2.393a4.14 4.14 0 0 0 1.758 1.224q1.006.357 2.56.662 1.275.256 1.81.46.534.204.535.686 0 .282-.255.472-.255.192-.687.193-.688 0-1.135-.307-.446-.305-.548-.943h-5.426q.126 1.479 1.044 2.65.917 1.172 2.485 1.834 1.566.664 3.605.664ZM192.892 309.695q1.45 0 2.343-.79.89-.79.89-1.986 0-1.225-.89-2.026-.893-.803-2.343-.803-1.479 0-2.37.803-.893.8-.893 2.026 0 1.196.893 1.986.891.79 2.37.79Zm-2.855 15.518h5.656v-14.371h-5.656ZM205.834 320.398q-.56-.001-.803-.23-.242-.23-.242-.74v-3.872h2.345v-4.715h-2.345v-3.465h-5.656v3.465h-1.784v4.715h1.784v3.771q0 5.886 5.911 5.886h2.141v-4.815zM208.586 318.027q0 2.269.777 3.937.778 1.67 2.127 2.547 1.35.88 3.033.88 1.401 0 2.42-.573a3.9 3.9 0 0 0 1.554-1.567v1.962h5.632V310.84h-5.632v1.962a3.9 3.9 0 0 0-1.554-1.565q-1.019-.575-2.42-.573-1.682 0-3.033.878-1.35.88-2.127 2.547-.776 1.67-.777 3.937Zm9.911 0q0 1.148-.586 1.784-.584.638-1.503.637-.916.001-1.502-.637-.588-.638-.588-1.784 0-1.147.588-1.782.585-.639 1.502-.639.919 0 1.503.639.586.635.586 1.782ZM234.27 320.398q-.563-.001-.803-.23-.243-.23-.243-.74v-3.872h2.346v-4.715h-2.346v-3.465h-5.656v3.465h-1.784v4.715h1.784v3.771q0 5.886 5.911 5.886h2.142v-4.815zM251.697 317.9q0-2.217-.928-3.848a6.35 6.35 0 0 0-2.6-2.509q-1.67-.878-3.81-.878t-3.807.89a6.35 6.35 0 0 0-2.6 2.562q-.93 1.668-.93 3.91 0 2.244.93 3.911a6.34 6.34 0 0 0 2.6 2.561q1.667.893 3.806.892 1.784 0 3.276-.7a6.9 6.9 0 0 0 2.472-1.912 6.2 6.2 0 0 0 1.284-2.738h-5.985q-.41.84-1.325.84-1.43 0-1.555-1.86h9.096q.076-.535.076-1.12Zm-9.095-1.35q.255-1.453 1.756-1.453.691 0 1.148.37c.304.245.46.607.46 1.082zM252.717 318.027q-.001 2.269.776 3.937.778 1.67 2.128 2.547 1.35.88 3.032.88 1.403 0 2.421-.573a3.9 3.9 0 0 0 1.553-1.567v1.962h5.633V310.84h-5.633v1.962a3.87 3.87 0 0 0-1.553-1.565q-1.018-.575-2.421-.573-1.682 0-3.032.878-1.35.88-2.128 2.547-.777 1.67-.776 3.937Zm9.91 0q.001 1.148-.586 1.784-.583.638-1.502.637-.918.001-1.505-.637-.584-.638-.585-1.784 0-1.147.585-1.782.587-.639 1.505-.639.919 0 1.502.639.587.635.586 1.782ZM114.209 335.594v4.484h4.739v13.556h5.657v-13.556h4.79v-4.484zM144.836 346.321q-.001-2.219-.931-3.848a6.33 6.33 0 0 0-2.598-2.509q-1.67-.88-3.81-.88t-3.808.892a6.34 6.34 0 0 0-2.6 2.56q-.93 1.67-.93 3.912t.93 3.911a6.33 6.33 0 0 0 2.6 2.56q1.668.893 3.808.893 1.784 0 3.275-.701a6.9 6.9 0 0 0 2.471-1.91 6.2 6.2 0 0 0 1.286-2.74h-5.987q-.408.84-1.325.84-1.426 0-1.554-1.86h9.096q.076-.534.077-1.12Zm-9.097-1.351q.255-1.452 1.758-1.452.689 0 1.147.369.459.37.46 1.083zM156.684 339.16q-1.53 0-2.638.638a5.1 5.1 0 0 0-1.77 1.656v-6.676h-5.656v18.856h5.656v-7.62q0-1.017.535-1.617.533-.598 1.476-.598.918 0 1.466.598.547.6.547 1.618v7.619h5.633v-8.332q0-2.828-1.39-4.485-1.388-1.656-3.86-1.656ZM174.443 339.16q-1.529 0-2.638.638a5.1 5.1 0 0 0-1.77 1.656v-2.191h-5.655v14.37h5.655v-7.618q.001-1.018.535-1.618.535-.598 1.477-.598.918 0 1.465.598.549.6.548 1.618v7.619h5.632v-8.332q0-2.828-1.389-4.485-1.39-1.656-3.86-1.656ZM184.992 338.115q1.452 0 2.344-.789.89-.79.89-1.987 0-1.224-.89-2.026-.892-.802-2.344-.802-1.478 0-2.37.802t-.892 2.026q0 1.197.892 1.987t2.37.79Zm-2.854 15.519h5.655v-14.371h-5.655ZM189.577 346.448q0 2.243.93 3.911a6.33 6.33 0 0 0 2.6 2.56q1.668.893 3.808.893 2.804 0 4.727-1.58t2.434-4.383h-5.988q-.331 1.121-1.3 1.12-.689.001-1.082-.635-.397-.637-.397-1.886 0-1.247.397-1.886.393-.636 1.083-.636.968 0 1.299 1.121h5.988q-.51-2.803-2.434-4.384-1.923-1.578-4.727-1.578-2.14 0-3.808.891a6.34 6.34 0 0 0-2.6 2.56q-.93 1.67-.93 3.912ZM205.095 346.448q0 2.268.777 3.936.777 1.67 2.127 2.547 1.35.88 3.033.88 1.401 0 2.42-.572a3.9 3.9 0 0 0 1.554-1.568v1.963h5.632v-14.372h-5.632v1.962a3.9 3.9 0 0 0-1.554-1.566q-1.019-.574-2.42-.573-1.682 0-3.033.88-1.35.878-2.127 2.546-.777 1.67-.777 3.937Zm9.91 0q0 1.148-.585 1.784-.584.637-1.503.637-.917 0-1.503-.637-.586-.638-.587-1.784 0-1.147.587-1.783.586-.638 1.503-.638.918 0 1.503.638.586.636.586 1.783Zm3.212-13.274v-.434h-2.624q0 .79-.484 1.185-.486.395-1.682.395-1.198 0-1.682-.395-.484-.396-.484-1.185h-2.624v.434q0 2.52 1.337 3.846 1.338 1.326 3.453 1.325 2.115 0 3.452-1.325 1.338-1.325 1.338-3.846ZM226.753 346.448q0 2.268.777 3.936.777 1.67 2.127 2.547 1.35.88 3.033.88 1.4 0 2.408-.572a3.9 3.9 0 0 0 1.54-1.568v1.963h5.659v-18.856h-5.658v6.446a3.9 3.9 0 0 0-1.54-1.566q-1.008-.574-2.41-.573-1.681 0-3.032.88-1.35.878-2.127 2.546-.776 1.67-.777 3.937Zm9.91 0q0 1.148-.585 1.784-.584.637-1.503.637-.917 0-1.503-.637-.586-.638-.587-1.784.001-1.147.587-1.783.586-.638 1.503-.638.918 0 1.503.638.585.636.586 1.783ZM247.697 338.115q1.454 0 2.344-.789.89-.79.89-1.987 0-1.224-.89-2.026-.892-.802-2.344-.802-1.476 0-2.37.802-.891.802-.892 2.026 0 1.197.893 1.987t2.369.79Zm-2.854 15.519h5.656v-14.371h-5.656ZM263.112 339.16q-1.53 0-2.638.638a5.1 5.1 0 0 0-1.769 1.656v-2.191h-5.656v14.37h5.656v-7.618q0-1.018.533-1.618.536-.598 1.479-.598.917 0 1.464.598.549.6.547 1.618v7.619h5.633v-8.332q0-2.828-1.39-4.485-1.388-1.656-3.86-1.656ZM98.77 373.008q0 2.675 1.083 4.765a7.8 7.8 0 0 0 3.096 3.248q2.012 1.16 4.739 1.16 2.344 0 4.191-.88a7.73 7.73 0 0 0 3.007-2.484q1.16-1.605 1.54-3.746h-5.962q-.408.893-1.158 1.389a3.06 3.06 0 0 1-1.722.497q-1.426 0-2.253-1.07t-.829-2.879q0-1.809.829-2.88.827-1.07 2.253-1.07.97 0 1.722.497.75.496 1.158 1.39h5.963q-.382-2.142-1.541-3.747a7.74 7.74 0 0 0-3.007-2.484q-1.849-.879-4.191-.879-2.726 0-4.74 1.16a7.8 7.8 0 0 0-3.095 3.247q-1.084 2.09-1.083 4.766ZM118.466 382.053h5.656v-18.855h-5.656ZM136.225 367.682v7.619q-.001 1.02-.535 1.618-.536.6-1.478.6-.917 0-1.466-.6-.548-.599-.548-1.618v-7.62h-5.63v8.332q0 2.83 1.388 4.485 1.39 1.657 3.86 1.657 1.53 0 2.638-.637a5.1 5.1 0 0 0 1.77-1.656v2.19h5.657v-14.37zM147.232 366.535q1.452.001 2.345-.79.89-.79.89-1.986 0-1.223-.89-2.026-.893-.803-2.345-.803-1.477 0-2.37.803-.892.802-.892 2.026 0 1.196.892 1.986.893.791 2.37.79Zm2.855 1.147h-5.657v15.467q0 .51-.243.74-.243.227-.803.227h-1.094v4.816h1.885q5.911.001 5.912-5.884zM151.818 375.682h11.873v-4.663h-11.873ZM184.56 364.013h-5.658v9.224l-5.988-9.224h-5.655v18.04h5.655v-9.071l5.988 9.07h5.657zM186.342 374.868q0 2.268.777 3.936.778 1.67 2.128 2.547 1.35.881 3.032.88 1.401 0 2.42-.573a3.9 3.9 0 0 0 1.554-1.567v1.963h5.632v-14.372h-5.632v1.961a3.9 3.9 0 0 0-1.554-1.565q-1.019-.575-2.42-.573-1.683 0-3.032.878-1.35.88-2.128 2.548-.777 1.67-.777 3.937Zm9.911 0q0 1.146-.586 1.784-.585.637-1.502.637-.918 0-1.504-.637-.587-.638-.587-1.784 0-1.147.587-1.783.585-.639 1.504-.639.916 0 1.502.639.586.636.586 1.783ZM210.089 369.644v-1.962h-5.656v21.251h5.656v-8.842q.534.993 1.541 1.568 1.007.572 2.408.573 1.681 0 3.032-.88 1.351-.879 2.128-2.549.777-1.667.777-3.935t-.777-3.937q-.777-1.668-2.128-2.548t-3.032-.88q-1.401 0-2.408.575a3.9 3.9 0 0 0-1.541 1.566Zm4.153 5.224q0 1.147-.586 1.784-.585.637-1.504.637-.916 0-1.502-.637-.585-.638-.586-1.784 0-1.148.586-1.784.585-.637 1.502-.637.919 0 1.504.637.586.637.586 1.784ZM228.587 382.232q2.166 0 3.898-.893a6.55 6.55 0 0 0 2.714-2.56q.981-1.668.981-3.911 0-2.242-.981-3.911a6.57 6.57 0 0 0-2.714-2.562q-1.732-.891-3.898-.891t-3.898.891a6.57 6.57 0 0 0-2.714 2.562q-.981 1.67-.981 3.91 0 2.244.981 3.912a6.55 6.55 0 0 0 2.714 2.56q1.732.894 3.898.893Zm0-4.893q-.815 0-1.338-.624-.522-.625-.522-1.847 0-1.223.535-1.847.537-.625 1.325-.625.79 0 1.325.625.535.624.535 1.847 0 1.221-.535 1.847-.535.624-1.325.624ZM237.2 374.868q0 2.242.93 3.91a6.34 6.34 0 0 0 2.597 2.561q1.67.893 3.809.893 2.805 0 4.728-1.58 1.922-1.579 2.433-4.383h-5.987q-.333 1.121-1.299 1.12-.69.002-1.082-.636-.4-.637-.399-1.885 0-1.25.399-1.886.391-.636 1.082-.637.966 0 1.299 1.121h5.987q-.51-2.802-2.433-4.382t-4.728-1.58q-2.138 0-3.809.891a6.35 6.35 0 0 0-2.598 2.562q-.93 1.67-.93 3.91ZM252.717 374.868q-.001 2.268.776 3.936.778 1.67 2.128 2.547 1.35.881 3.032.88 1.403 0 2.421-.573a3.9 3.9 0 0 0 1.553-1.567v1.963h5.633v-14.372h-5.633v1.961a3.87 3.87 0 0 0-1.553-1.565q-1.018-.575-2.421-.573-1.682 0-3.032.878-1.35.88-2.128 2.548-.777 1.67-.776 3.937Zm9.91 0q.001 1.146-.586 1.784-.583.637-1.502.637-.918 0-1.505-.637-.584-.638-.585-1.784 0-1.147.585-1.783.587-.639 1.505-.639.919 0 1.502.639.587.636.586 1.783Z"/></g></svg>