<svg xmlns="http://www.w3.org/2000/svg" xmlns:xlink="http://www.w3.org/1999/xlink" width="297.636" height="419.526"><defs><path id="b" d="M.032.354q0 .105.044.185.044.082.123.128.08.045.184.045a.35.35 0 0 0 .222-.07A.32.32 0 0 0 .721.45h-.21a.14.14 0 0 1-.053.061.14.14 0 0 1-.078.021.13.13 0 0 1-.108-.049.2.2 0 0 1-.04-.129q0-.082.04-.13A.13.13 0 0 1 .38.174q.044 0 .078.021.033.02.052.061h.211A.32.32 0 0 0 .605.065a.35.35 0 0 0-.222-.07Q.28-.005.2.04a.3.3 0 0 0-.123.127.4.4 0 0 0-.044.187"/><path id="c" d="M.502.115h-.25L.214 0H.008l.257.705h.226L.747 0H.54zm-.049.15L.377.493.302.265z"/><path id="d" d="M.613.47a.23.23 0 0 0-.03-.116A.2.2 0 0 0 .496.27.3.3 0 0 0 .349.238H.252V0H.056v.705h.293q.085 0 .145-.03t.09-.083A.24.24 0 0 0 .613.47M.33.394q.083 0 .083.076 0 .077-.083.077H.252V.394z"/><path id="e" d="M.252.705V0H.056v.705z"/><path id="f" d="M.587.705V.55H.399V0H.203v.55H.017v.155z"/><path id="g" d="M.394-.007a.37.37 0 0 0-.182.046.35.35 0 0 0-.131.13.36.36 0 0 0-.049.186q0 .104.049.186A.34.34 0 0 0 .212.67q.083.046.182.046A.37.37 0 0 0 .576.67a.34.34 0 0 0 .13-.129.36.36 0 0 0 .049-.186.36.36 0 0 0-.048-.186.34.34 0 0 0-.131-.13.37.37 0 0 0-.182-.046m0 .182q.076 0 .118.049a.2.2 0 0 1 .044.131q0 .084-.044.132a.15.15 0 0 1-.118.049.15.15 0 0 1-.119-.049.2.2 0 0 1-.043-.132q0-.083.043-.132A.15.15 0 0 1 .394.175"/><path id="h" d="M.252.15h.219V0H.056v.705h.196z"/><path id="i" d="M.248.705V.296q0-.057.027-.088Q.3.178.355.177q.054 0 .082.031.027.032.027.088v.409H.66V.296A.3.3 0 0 0 .62.13.26.26 0 0 0 .507.027.35.35 0 0 0 .35-.007a.33.33 0 0 0-.153.034.25.25 0 0 0-.106.103.33.33 0 0 0-.039.166v.409z"/><path id="j" d="M0 0"/><path id="k" d="M.05.12v.162L.359.72h.215V.29H.65V.12H.573V0H.375v.12zM.39.499.252.29H.39z"/><path id="l" d="M.506.362A.17.17 0 0 0 .604.301.17.17 0 0 0 .641.192q0-.09-.062-.141A.27.27 0 0 0 .405 0H.056v.705h.338a.27.27 0 0 0 .17-.048.16.16 0 0 0 .061-.135.16.16 0 0 0-.033-.103.16.16 0 0 0-.086-.057M.252.425h.099q.074 0 .074.061 0 .063-.074.063H.252zM.366.158Q.44.158.44.22q0 .032-.02.049a.1.1 0 0 1-.055.017H.252V.158z"/><path id="m" d="M.252.548V.433h.225V.284H.252V.157h.255V0H.056v.705h.451V.548z"/><path id="n" d="M.322-.007A.33.33 0 0 0 .12.052a.21.21 0 0 0-.085.167h.21Q.246.183.265.165a.07.07 0 0 1 .05-.017.07.07 0 0 1 .044.014.05.05 0 0 1 .017.037q0 .03-.029.048a.5.5 0 0 1-.094.038A1 1 0 0 0 .143.33a.2.2 0 0 0-.074.063A.18.18 0 0 0 .037.5q0 .068.034.116a.2.2 0 0 0 .094.074q.06.024.136.025A.3.3 0 0 0 .498.658.2.2 0 0 0 .576.497H.363q0 .031-.02.048A.07.07 0 0 1 .297.56.05.05 0 0 1 .26.548Q.245.535.246.51q0-.02.016-.035A.1.1 0 0 1 .3.451L.368.425a1 1 0 0 0 .11-.046.2.2 0 0 0 .076-.063.16.16 0 0 0 .031-.102.21.21 0 0 0-.122-.192.3.3 0 0 0-.14-.029"/><clipPath id="a"><path fill-rule="evenodd" d="M0 419.526h297.636V0H0Z"/></clipPath></defs><g clip-path="url(#a)" data-name="Layer 1"><path fill="#3e0f6b" d="M50.375 129.596c.818.706 1.403.435 1.99.123 8.21-4.344 16.1-9.245 24.35-13.539 9.275-4.828 18.105-10.5 27.301-15.482 13.193-7.147 26.143-14.7 39.054-22.332 8.608-5.088 16.746-10.836 24.55-17.068.746-.598 2.237-.73 1.713-2.16-.4-1.09-1.585-1.342-2.62-1.368-4.284-.116-8.548-.245-12.796.823-9.73 2.445-18.688 6.578-27.596 11.153-16.073 8.258-29.737 19.869-43.983 30.633-8.774 6.631-16.772 14.306-24.957 21.688-2.525 2.278-5.304 4.457-7.006 7.53m-64.989 195.45c-1.086-1.683-2.71-2.252-4.155-3.079-9.706-5.552-17.915-12.853-25.203-21.288-5.918-6.85-10.23-14.716-14.567-22.56-.97-1.753-1.482-2.386-3.43-1.195-2.981 1.825-6.348 3.037-9.26 4.95-8.674 5.701-17.558 11.09-25.634 17.692-5.983 4.89-11.507 10.17-15.65 16.693-3.123 4.92-2.29 6.985 3.057 9.182 7.786 3.2 16.017 4.574 24.314 4.981 19.67.964 39.263-.43 58.74-3.193 3.885-.55 8.005-.335 11.788-2.183m60.049-35.94c11.924.173 25.823-3.812 38.518-9.71 5.807-2.697 10.973-6.522 15.37-11.16 3.354-3.538 6.492-7.675 3.647-12.885-1.98-3.627-4.763-6.664-8.636-8.746-8.661-4.656-18.132-5.566-27.564-5.832-13.523-.382-26.825 1.84-40.158 4.262-13.502 2.452-26.394 6.704-39.418 10.671-1.541.469-2.082 1.278-1.272 2.9C-9.557 267.66-3.06 275.096 5.54 280.24c11.069 6.623 23.44 8.875 39.895 8.866M-250.39-7.339h48.509c-.207 8.92 2.933 16.512 9.163 22.833 7.817 7.937 17.567 12.475 28.097 15.365 21.602 5.928 43.672 6.41 65.804 4.67 20.333-1.6 40.287-6.057 60.478-8.726 9.528-1.258 19.168-1.46 28.177 3.333 14.55 7.745 19.11 24.267 11.547 39.055-4.95 9.677-13.099 16.462-20.941 23.378-12.077 10.651-25.238 19.99-38.244 29.484-15.402 11.24-30.965 22.257-46.425 33.415-11.8 8.517-23.64 16.985-35.291 25.7-7.174 5.366-13.815 11.454-21.07 16.702-13.924 10.072-26.684 21.513-39.574 32.805-9.21 8.07-17.835 16.74-25.974 25.898-7.898 8.889-14.969 18.298-19.562 29.377-1.771 4.272-1.013 7.127 2.64 9.876 7.651 5.757 16.092 5.294 24.533 2.68 14.803-4.582 27.746-12.657 40.433-21.434 13.938-9.646 26.927-20.42 39.581-31.584 14.425-12.726 28.436-25.918 41.95-39.644 17.911-18.191 36.183-36.027 54.288-54.029 15.402-15.312 30.484-30.962 46.275-45.859 11.143-10.514 22.55-20.779 34.127-30.854 19.654-17.104 39.958-33.201 62.677-46.108 13.598-7.726 27.687-14.045 43.121-17.215 20.447-4.202 39.832-2.035 57.813 9.036 7.523 4.632 14.235 10.373 18.011 18.484 7.28 15.641 4.102 30.13-5.972 43.526-5.433 7.224-12.28 12.946-19.28 18.588-9.324 7.515-19.507 13.723-29.56 20.11-7.964 5.059-16.323 9.499-24.511 14.203-6.2 3.559-12.267 7.384-18.643 10.596-13.808 6.957-27.079 14.875-40.615 22.315-10.567 5.81-20.803 12.223-31.137 18.452-2.544 1.532-4.89 3.391-7.326 5.1 6.991.738 13.645-.05 20.193.207 10.077.394 20.23.308 30.226 2.742 10.462 2.544 20.726 5.683 29.578 11.69 12.055 8.179 21.265 19.09 26.287 33.02 3.676 10.204 4.948 20.64 2.384 31.403-1.018 4.267-2.972 8.228-4.06 12.47.559.168.824.347 1.027.294 10.819-2.911 21.187-7.148 31.755-10.796 1.176-.406 1.758-1.467 2.372-2.49 2.451-4.09 5.896-7.273 9.677-10.056 12.281-9.044 26.365-11.776 41.256-11.474 10.761.219 20.38 7.292 23.92 17.486 3.21 9.25-.957 22.245-8.896 28.446-5.39 4.209-11.597 6.903-17.643 9.869-2.371 1.162-2.84 2.446-1.837 4.543 1.29 2.69 2.527 5.432 4.122 7.94 5.715 8.99 11.472 17.959 17.398 26.811 12.422 18.562 25.735 36.547 35.68 56.68 5.134 10.387 8.885 21.064 8.813 32.809h-48.51c-.682-6.097-3.802-11.237-6.59-16.48-6.668-12.539-14.956-24.061-22.841-35.825-11.93-17.798-24.772-35.024-33.603-54.72-.919-2.05-2.28-2.348-4.4-1.59-6.115 2.188-12.318 4.127-18.468 6.216-18.319 6.222-36.873 11.703-55.47 16.982-16.473 4.676-33.154 8.639-49.803 12.668-16.91 4.092-34.03 7.178-51.12 10.438-13.41 2.56-26.927 4.195-40.438 5.828-14.476 1.748-29.068 2.101-43.663 1.734-15.395-.386-30.514-2.172-45.077-7.615-10.83-4.047-19.991-10.25-27.455-19.117-5.514-6.546-8.62-14.086-10.38-22.324-.42-1.963-.825-4.034-3.727-2.196-11.375 7.206-23.573 12.713-36.35 16.878-12.559 4.094-25.507 4.948-38.543 3.246-12.288-1.604-23.047-7.082-32.75-14.55-6.346-4.884-11.674-10.943-15.19-18.116-8.7-17.754-7.144-35.63.934-53.103 7.718-16.693 19.03-30.997 31.598-44.22 19.827-20.855 41.647-39.5 64.469-57.032 9.16-7.037 18.141-14.314 27.394-21.245 24.104-18.053 48.8-35.287 73.18-52.953.934-.677 2.533-1.21 2.167-2.429-.48-1.598-2.271-.948-3.424-.787-7.094.984-14.246 1.145-21.371 1.332-7.14.187-14.284.108-21.454-.514-9.971-.864-19.946-1.706-29.733-3.7-15.752-3.207-30.656-8.664-44.49-17.141-12.027-7.37-21.678-16.985-28.946-28.853-7.822-12.775-11.595-26.862-11.297-41.934"/><path fill="none" stroke="#3e0f6b" stroke-miterlimit="10" stroke-width=".75" d="M50.375 129.596c.818.706 1.403.435 1.99.123 8.21-4.344 16.1-9.245 24.35-13.539 9.275-4.828 18.105-10.5 27.301-15.482 13.193-7.147 26.143-14.7 39.054-22.332 8.608-5.088 16.746-10.836 24.55-17.068.746-.598 2.237-.73 1.713-2.16-.4-1.09-1.585-1.342-2.62-1.368-4.284-.116-8.548-.245-12.796.823-9.73 2.445-18.688 6.578-27.596 11.153-16.073 8.258-29.737 19.869-43.983 30.633-8.774 6.631-16.772 14.306-24.957 21.688-2.525 2.278-5.304 4.457-7.006 7.53Zm-64.989 195.45c-1.086-1.682-2.71-2.251-4.155-3.078-9.706-5.552-17.915-12.853-25.203-21.288-5.918-6.85-10.23-14.716-14.567-22.56-.97-1.753-1.482-2.386-3.43-1.195-2.981 1.825-6.348 3.037-9.26 4.95-8.674 5.701-17.558 11.09-25.634 17.692-5.983 4.89-11.507 10.17-15.65 16.693-3.123 4.92-2.29 6.985 3.057 9.182 7.786 3.2 16.017 4.574 24.314 4.981 19.67.964 39.263-.43 58.74-3.193 3.885-.55 8.005-.335 11.788-2.183Zm60.049-35.94c11.924.174 25.823-3.81 38.518-9.708 5.807-2.698 10.973-6.523 15.37-11.16 3.354-3.54 6.492-7.676 3.647-12.886-1.98-3.627-4.763-6.664-8.636-8.746-8.661-4.656-18.132-5.566-27.564-5.832-13.523-.382-26.825 1.84-40.158 4.262-13.502 2.452-26.394 6.704-39.418 10.671-1.541.469-2.082 1.278-1.272 2.9C-9.557 267.66-3.06 275.096 5.54 280.24c11.069 6.623 23.44 8.875 39.895 8.866ZM-250.39-7.339h48.509c-.207 8.92 2.933 16.512 9.163 22.833 7.817 7.937 17.567 12.475 28.097 15.365 21.602 5.928 43.672 6.41 65.804 4.67 20.333-1.6 40.287-6.057 60.478-8.726 9.528-1.258 19.168-1.46 28.177 3.333 14.55 7.745 19.11 24.267 11.547 39.055-4.95 9.677-13.099 16.462-20.941 23.378-12.077 10.651-25.238 19.99-38.244 29.484-15.402 11.24-30.965 22.257-46.425 33.415-11.8 8.517-23.64 16.985-35.291 25.7-7.174 5.366-13.815 11.454-21.07 16.702-13.924 10.072-26.684 21.513-39.574 32.805-9.21 8.07-17.835 16.74-25.974 25.898-7.898 8.889-14.969 18.298-19.562 29.377-1.771 4.272-1.013 7.127 2.64 9.876 7.651 5.757 16.092 5.294 24.533 2.68 14.803-4.582 27.746-12.657 40.433-21.434 13.938-9.646 26.927-20.42 39.581-31.584 14.425-12.726 28.436-25.918 41.95-39.644 17.911-18.191 36.183-36.027 54.288-54.029 15.402-15.312 30.484-30.962 46.275-45.859 11.143-10.514 22.55-20.779 34.127-30.854 19.654-17.104 39.958-33.201 62.677-46.108 13.598-7.726 27.687-14.045 43.121-17.215 20.447-4.202 39.832-2.035 57.813 9.036 7.523 4.632 14.235 10.373 18.011 18.484 7.28 15.641 4.102 30.13-5.972 43.526-5.433 7.224-12.28 12.946-19.28 18.588-9.324 7.515-19.507 13.723-29.56 20.11-7.964 5.059-16.323 9.499-24.511 14.203-6.2 3.559-12.267 7.384-18.643 10.596-13.808 6.957-27.079 14.875-40.615 22.315-10.567 5.81-20.803 12.223-31.137 18.452-2.544 1.532-4.89 3.391-7.326 5.1 6.991.738 13.645-.05 20.193.207 10.077.394 20.23.308 30.226 2.742 10.462 2.544 20.726 5.683 29.578 11.69 12.055 8.179 21.265 19.09 26.287 33.02 3.676 10.204 4.948 20.64 2.384 31.403-1.018 4.267-2.972 8.228-4.06 12.47.559.168.824.347 1.027.294 10.819-2.911 21.187-7.148 31.755-10.796 1.176-.406 1.758-1.467 2.372-2.49 2.451-4.09 5.896-7.273 9.677-10.056 12.281-9.044 26.365-11.776 41.256-11.474 10.761.219 20.38 7.292 23.92 17.486 3.21 9.25-.957 22.245-8.896 28.446-5.39 4.209-11.597 6.903-17.643 9.869-2.371 1.162-2.84 2.446-1.837 4.543 1.29 2.69 2.527 5.432 4.122 7.94 5.715 8.99 11.472 17.959 17.398 26.811 12.422 18.562 25.735 36.547 35.68 56.68 5.134 10.387 8.885 21.064 8.813 32.809h-48.51c-.682-6.097-3.802-11.237-6.59-16.48-6.668-12.539-14.956-24.061-22.841-35.825-11.93-17.798-24.772-35.024-33.603-54.72-.919-2.05-2.28-2.348-4.4-1.59-6.115 2.188-12.318 4.127-18.468 6.216-18.319 6.222-36.873 11.703-55.47 16.982-16.473 4.676-33.154 8.639-49.803 12.668-16.91 4.092-34.03 7.178-51.12 10.438-13.41 2.56-26.927 4.195-40.438 5.828-14.476 1.748-29.068 2.101-43.663 1.734-15.395-.386-30.514-2.172-45.077-7.615-10.83-4.047-19.991-10.25-27.455-19.117-5.514-6.546-8.62-14.086-10.38-22.324-.42-1.963-.825-4.034-3.727-2.196-11.375 7.206-23.573 12.713-36.35 16.878-12.559 4.094-25.507 4.948-38.543 3.246-12.288-1.604-23.047-7.082-32.75-14.55-6.346-4.884-11.674-10.943-15.19-18.116-8.7-17.754-7.144-35.63.934-53.103 7.718-16.693 19.03-30.997 31.598-44.22 19.827-20.855 41.647-39.5 64.469-57.032 9.16-7.037 18.141-14.314 27.394-21.245 24.104-18.053 48.8-35.287 73.18-52.953.934-.677 2.533-1.21 2.167-2.429-.48-1.598-2.271-.948-3.424-.787-7.094.984-14.246 1.145-21.371 1.332-7.14.187-14.284.108-21.454-.514-9.971-.864-19.946-1.706-29.733-3.7-15.752-3.207-30.656-8.664-44.49-17.141-12.027-7.37-21.678-16.985-28.946-28.853-7.822-12.775-11.595-26.862-11.297-41.934Z"/><path fill="#512888" d="M294.962 433.784c.072-11.745-3.68-22.424-8.813-32.812-9.945-20.131-23.258-38.116-35.68-56.677-5.926-8.853-11.683-17.821-17.398-26.813-1.594-2.507-2.833-5.25-4.122-7.94-1.004-2.096-.535-3.38 1.838-4.542 6.045-2.965 12.251-5.66 17.642-9.87 7.939-6.2 12.105-19.195 8.896-28.444-3.54-10.196-13.159-17.268-23.919-17.487-14.893-.302-28.977 2.43-41.257 11.473-3.78 2.784-7.226 5.967-9.677 10.057-.613 1.023-1.196 2.084-2.373 2.49-10.567 3.65-20.935 7.884-31.755 10.795-.2.055-.466-.125-1.026-.292 1.087-4.242 3.042-8.203 4.06-12.471 2.565-10.763 1.293-21.199-2.384-31.401-5.022-13.932-14.232-24.843-26.287-33.023-8.852-6.005-19.116-9.144-29.579-11.69-9.995-2.432-20.148-2.346-30.224-2.741-6.55-.256-13.203.532-20.194-.208 2.438-1.709 4.783-3.567 7.325-5.1 10.334-6.228 20.571-12.641 31.138-18.451 13.536-7.44 26.807-15.36 40.616-22.315 6.375-3.21 12.443-7.037 18.642-10.596 8.188-4.704 16.547-9.144 24.511-14.203 10.054-6.387 20.236-12.595 29.56-20.11 7-5.642 13.847-11.364 19.28-18.588 10.075-13.396 13.252-27.885 5.972-43.523-3.777-8.114-10.488-13.855-18.012-18.487-17.98-11.074-37.364-13.238-57.812-9.036-15.433 3.17-29.523 9.492-43.122 17.215-22.718 12.907-43.022 29.004-62.676 46.11-11.577 10.073-22.984 20.336-34.127 30.85-15.791 14.901-30.874 30.55-46.275 45.864-18.105 18-36.377 35.835-54.289 54.027-13.513 13.725-27.525 26.917-41.949 39.644-12.654 11.163-25.643 21.937-39.581 31.583-12.686 8.778-25.63 16.852-40.432 21.434-8.442 2.615-16.883 3.077-24.534-2.679-3.653-2.75-4.411-5.606-2.64-9.878 4.593-11.077 11.663-20.487 19.562-29.375 8.14-9.159 16.764-17.83 25.974-25.899 12.89-11.292 25.65-22.733 39.573-32.805 7.256-5.248 13.897-11.336 21.072-16.702 11.65-8.715 23.49-17.183 35.29-25.7 15.46-11.158 31.023-22.176 46.424-33.415 13.006-9.492 26.169-18.833 38.245-29.484 7.842-6.916 15.99-13.699 20.94-23.378C8.95 54.405 4.389 37.881-10.16 30.14c-9.008-4.795-18.648-4.594-28.177-3.334-20.191 2.667-40.144 7.126-60.477 8.722-22.133 1.74-44.203 1.257-65.804-4.668-10.531-2.89-20.281-7.428-28.098-15.363-6.23-6.323-9.37-13.915-9.163-22.835 167.31 0 334.617.01 501.927-.072 2.933-.003 3.596.66 3.593 3.592-.084 144.433-.091 288.867.029 433.3.005 3.68-.71 5.031-4.414 4.345-1.384-.259-2.86-.042-4.293-.042"/><path fill="#512888" d="M-250.39-7.34c-.297 15.073 3.476 29.16 11.298 41.935 7.268 11.868 16.92 21.483 28.946 28.853 13.834 8.477 28.738 13.934 44.49 17.14 9.786 1.995 19.762 2.837 29.733 3.701 7.17.622 14.314.704 21.454.514 7.125-.185 14.277-.348 21.372-1.332 1.152-.158 2.942-.811 3.422.787.368 1.22-1.232 1.752-2.164 2.429-24.384 17.666-49.078 34.9-73.182 52.953-9.254 6.931-18.233 14.208-27.394 21.245-22.823 17.531-44.64 36.177-64.469 57.033-12.566 13.222-23.88 27.526-31.598 44.22-8.078 17.472-9.631 35.348-.934 53.103 3.514 7.172 8.844 13.231 15.19 18.115 9.703 7.468 20.462 12.946 32.75 14.55 13.037 1.702 25.983.848 38.544-3.246 12.775-4.165 24.974-9.672 36.35-16.878 2.9-1.838 3.306.233 3.725 2.196 1.761 8.238 4.868 15.778 10.38 22.324 7.465 8.865 16.626 15.07 27.456 19.117 14.564 5.443 29.682 7.229 45.077 7.616 14.595.366 29.187.013 43.663-1.735 13.511-1.633 27.028-3.267 40.439-5.828 17.088-3.26 34.209-6.346 51.12-10.437 16.648-4.03 33.329-7.993 49.802-12.669 18.597-5.279 37.152-10.76 55.47-16.982 6.15-2.088 12.353-4.028 18.468-6.216 2.12-.758 3.48-.46 4.401 1.59 8.83 19.697 21.67 36.922 33.603 54.721 7.885 11.763 16.172 23.285 22.84 35.824 2.788 5.243 5.908 10.383 6.59 16.48-182.177 0-364.352-.008-546.526.073-2.935.002-3.597-.66-3.595-3.592q.126-217.04 0-434.083c-.002-2.932.655-3.628 3.595-3.6 16.56.166 33.122.08 49.685.08"/><path fill="#512888" d="M45.435 289.106c-16.454.009-28.826-2.243-39.894-8.866-8.602-5.146-15.098-12.58-19.618-21.632-.811-1.623-.27-2.432 1.27-2.9 13.025-3.968 25.917-8.22 39.418-10.672 13.334-2.422 26.635-4.644 40.159-4.263 9.432.267 18.904 1.178 27.563 5.833 3.874 2.082 6.655 5.119 8.637 8.746 2.846 5.21-.293 9.347-3.647 12.885-4.396 4.638-9.564 8.462-15.37 11.16-12.695 5.898-26.594 9.883-38.518 9.71M50.375 129.596c1.702-3.072 4.481-5.251 7.006-7.529 8.185-7.382 16.183-15.057 24.957-21.688 14.246-10.764 27.91-22.375 43.983-30.633 8.908-4.575 17.867-8.708 27.596-11.153 4.248-1.068 8.512-.939 12.797-.823 1.034.026 2.22.278 2.62 1.368.523 1.43-.968 1.562-1.713 2.16-7.805 6.232-15.943 11.98-24.55 17.068-12.912 7.632-25.862 15.185-39.055 22.332-9.196 4.982-18.026 10.654-27.3 15.482-8.25 4.294-16.142 9.195-24.35 13.539-.588.312-1.173.583-1.991-.123"/><path fill="none" stroke="#fff" stroke-miterlimit="10" stroke-opacity=".6" stroke-width="1.0000799999999999" d="M32.386 42.652q0 3.91 1.592 6.943 1.592 3.037 4.521 4.73 2.93 1.696 6.739 1.695 4.83 0 8.127-2.625 3.295-2.624 4.249-7.13h-7.726q-.697 1.487-1.924 2.27-1.227.781-2.837.782-2.49 0-3.973-1.805-1.484-1.808-1.483-4.86 0-3.017 1.483-4.824 1.483-1.804 3.973-1.805 1.61 0 2.837.78 1.227.785 1.924 2.273h7.726q-.954-4.506-4.25-7.132-3.295-2.625-8.126-2.626-3.809 0-6.739 1.697-2.93 1.693-4.52 4.728-1.595 3.035-1.593 6.91ZM78.739 55.835h7.58L76.943 29.58H68.67l-9.41 26.255h7.543l1.391-4.284h9.154zm-8.714-9.87 2.746-8.49 2.782 8.49zM109.055 38.332q0-2.57-1.098-4.543-1.1-1.975-3.278-3.091-2.178-1.119-5.29-1.118H88.66v26.255h7.177v-8.863h3.552q3.15 0 5.328-1.173 2.177-1.175 3.257-3.13t1.081-4.337Zm-10.362 2.83h-2.856v-5.698h2.856q3.039 0 3.04 2.868-.001 2.83-3.04 2.83ZM111.947 55.835h7.176V29.581h-7.176ZM121.796 29.58v5.81h6.81v20.443h7.176V35.39h6.884v-5.81zM157.714 56.094q3.625.001 6.664-1.732 3.039-1.728 4.797-4.803 1.758-3.071 1.758-6.945 0-3.87-1.758-6.946-1.758-3.071-4.778-4.785-3.021-1.712-6.683-1.714c-2.416 0-4.638.574-6.663 1.714q-3.04 1.714-4.816 4.785-1.774 3.075-1.774 6.946 0 3.874 1.774 6.945 1.776 3.074 4.816 4.803 3.038 1.733 6.663 1.732Zm0-6.777q-2.781.001-4.356-1.805-1.575-1.807-1.575-4.898 0-3.128 1.575-4.935 1.575-1.803 4.356-1.804 2.746 0 4.339 1.804 1.593 1.808 1.593 4.935 0 3.053-1.593 4.877-1.592 1.827-4.34 1.826ZM181.33 29.58h-7.176v26.253h15.195v-5.585h-8.019zM192.022 29.58v15.232q0 3.65 1.41 6.18 1.41 2.535 3.88 3.818 2.471 1.285 5.62 1.284t5.731-1.284q2.58-1.285 4.083-3.835 1.501-2.552 1.502-6.163V29.58h-7.178v15.232q0 2.086-1.007 3.257-1.007 1.173-2.984 1.174t-2.947-1.155-.97-3.276V29.58zM225.376 29.58h-7.175v26.253h15.195v-5.585h-8.02zM254.851 51.364v4.471h7.25v-4.47h2.818v-6.33h-2.818V29.023h-7.872l-11.241 16.31v6.031zm.55-6.329h-5.055l5.055-7.783zM32.386 76.165q0 3.915 1.592 6.946c1.062 2.026 2.568 3.6 4.521 4.73q2.93 1.695 6.739 1.695 4.83 0 8.127-2.626 3.295-2.623 4.249-7.133h-7.726q-.697 1.491-1.924 2.273t-2.837.783q-2.49 0-3.973-1.808-1.484-1.803-1.483-4.86 0-3.013 1.483-4.821 1.483-1.804 3.973-1.805 1.61 0 2.837.78 1.227.785 1.924 2.273h7.726q-.954-4.505-4.25-7.133-3.295-2.624-8.126-2.623-3.809 0-6.739 1.694t-4.52 4.728q-1.595 3.039-1.593 6.907ZM78.739 89.349h7.58l-9.375-26.254H68.67L59.26 89.35h7.543l1.391-4.282h9.154zm-8.714-9.87 2.746-8.488 2.782 8.489zM109.055 71.848q0-2.57-1.098-4.543-1.1-1.976-3.278-3.091-2.178-1.12-5.29-1.119H88.66V89.35h7.177v-8.861h3.552q3.15 0 5.328-1.174 2.177-1.172 3.257-3.13 1.08-1.953 1.081-4.336Zm-10.362 2.83h-2.856V68.98h2.856q3.039 0 3.04 2.868-.001 2.83-3.04 2.83ZM111.947 89.349h7.176V63.095h-7.176ZM121.796 63.095v5.81h6.81V89.35h7.176V68.906h6.884v-5.81zM157.714 89.61q3.625.001 6.664-1.733 3.039-1.73 4.797-4.802 1.758-3.073 1.758-6.946 0-3.87-1.758-6.945-1.758-3.072-4.778-4.783-3.021-1.715-6.683-1.716-3.625 0-6.663 1.716-3.04 1.711-4.816 4.783-1.774 3.076-1.774 6.945 0 3.873 1.774 6.946 1.776 3.072 4.816 4.802 3.038 1.734 6.663 1.733Zm0-6.777c-1.853 0-3.307-.6-4.356-1.808q-1.575-1.803-1.575-4.896 0-3.128 1.575-4.934 1.575-1.804 4.356-1.805 2.746.001 4.339 1.805 1.593 1.807 1.593 4.934 0 3.054-1.593 4.88-1.592 1.824-4.34 1.824ZM181.33 63.095h-7.176V89.35h15.195v-5.585h-8.019zM192.022 63.095v15.23q0 3.652 1.41 6.183 1.41 2.534 3.88 3.818 2.471 1.285 5.62 1.284t5.731-1.284q2.58-1.286 4.083-3.835 1.501-2.552 1.502-6.166v-15.23h-7.178v15.23q0 2.087-1.007 3.26t-2.984 1.173q-1.978 0-2.947-1.154-.971-1.155-.97-3.279v-15.23zM225.376 63.095h-7.175V89.35h15.195v-5.585h-8.02zM254.851 84.882v4.469h7.25v-4.469h2.818v-6.33h-2.818V62.537h-7.872l-11.241 16.31v6.034zm.55-6.33h-5.055l5.055-7.784zM32.386 109.684q0 3.909 1.592 6.943 1.592 3.036 4.521 4.73 2.93 1.694 6.739 1.694 4.83.001 8.127-2.625 3.295-2.624 4.249-7.13h-7.726c-.464.99-1.107 1.75-1.924 2.27q-1.227.781-2.837.782-2.49 0-3.973-1.805-1.484-1.806-1.483-4.86 0-3.016 1.483-4.823 1.483-1.805 3.973-1.805 1.61 0 2.837.78 1.227.785 1.924 2.273h7.726q-.954-4.506-4.25-7.133-3.295-2.624-8.126-2.623-3.809 0-6.739 1.694-2.93 1.696-4.52 4.728-1.595 3.035-1.593 6.91ZM78.739 122.867h7.58l-9.375-26.254H68.67l-9.41 26.254h7.543l1.391-4.284h9.154zm-8.714-9.87 2.746-8.49 2.782 8.49zM109.055 105.364q0-2.57-1.098-4.544-1.1-1.974-3.278-3.09-2.178-1.117-5.29-1.117H88.66v26.254h7.177v-8.863h3.552q3.15 0 5.328-1.174 2.177-1.174 3.257-3.13 1.08-1.954 1.081-4.336Zm-10.362 2.83h-2.856v-5.698h2.856q3.039 0 3.04 2.868-.001 2.83-3.04 2.83ZM111.947 122.864h7.176V96.611h-7.176ZM121.796 96.61v5.811h6.81v20.443h7.176v-20.443h6.884v-5.81zM157.714 123.126q3.625 0 6.664-1.73 3.039-1.732 4.797-4.805t1.758-6.946q0-3.87-1.758-6.945-1.758-3.073-4.778-4.784-3.021-1.714-6.683-1.716-3.625.001-6.663 1.716-3.04 1.711-4.816 4.784-1.774 3.075-1.774 6.945 0 3.874 1.774 6.946 1.776 3.074 4.816 4.804 3.038 1.731 6.663 1.73Zm0-6.778q-2.781.001-4.356-1.805t-1.575-4.898q0-3.128 1.575-4.934 1.575-1.805 4.356-1.805 2.746 0 4.339 1.805 1.593 1.807 1.593 4.934 0 3.054-1.593 4.877c-1.061 1.22-2.508 1.826-4.34 1.826ZM181.33 96.61h-7.176v26.254h15.195v-5.585h-8.019zM192.022 96.61v15.234q0 3.649 1.41 6.18 1.41 2.533 3.88 3.818 2.471 1.285 5.62 1.284t5.731-1.284q2.58-1.286 4.083-3.835 1.501-2.553 1.502-6.163V96.61h-7.178v15.233q0 2.085-1.007 3.256-1.007 1.174-2.984 1.174t-2.947-1.155c-.648-.767-.97-1.862-.97-3.275V96.61zM225.376 96.61h-7.175v26.254h15.195v-5.585h-8.02zM254.851 118.398v4.469h7.25v-4.47h2.818v-6.33h-2.818V96.054h-7.872l-11.241 16.31v6.034zm.55-6.331h-5.055l5.055-7.783zM32.386 143.197q0 3.914 1.592 6.945c1.062 2.026 2.568 3.6 4.521 4.73q2.93 1.696 6.739 1.695 4.83 0 8.127-2.625 3.295-2.625 4.249-7.13h-7.726q-.697 1.487-1.924 2.27-1.227.781-2.837.782-2.49 0-3.973-1.807-1.484-1.805-1.483-4.86 0-3.014 1.483-4.82t3.973-1.807q1.61 0 2.837.783c.817.52 1.46 1.28 1.924 2.27h7.726q-.954-4.506-4.25-7.13-3.295-2.627-8.126-2.626-3.809 0-6.739 1.695-2.93 1.694-4.52 4.728-1.595 3.037-1.593 6.907ZM78.739 156.38h7.58l-9.375-26.253H68.67l-9.41 26.253h7.543l1.391-4.282h9.154zm-8.714-9.869 2.746-8.489 2.782 8.49zM109.055 138.88q0-2.571-1.098-4.544-1.1-1.975-3.278-3.091-2.178-1.119-5.29-1.118H88.66v26.253h7.177v-8.86h3.552q3.15 0 5.328-1.174 2.177-1.173 3.257-3.13 1.08-1.954 1.081-4.337Zm-10.362 2.829h-2.856v-5.698h2.856q3.039 0 3.04 2.868-.001 2.83-3.04 2.83ZM111.947 156.382h7.176V130.13h-7.176ZM121.796 130.127v5.81h6.81v20.443h7.176v-20.443h6.884v-5.81zM157.714 156.641q3.625 0 6.664-1.73t4.797-4.805 1.758-6.945-1.758-6.943q-1.758-3.073-4.778-4.786-3.021-1.713-6.683-1.713-3.625 0-6.663 1.713-3.04 1.713-4.816 4.786-1.774 3.072-1.774 6.943 0 3.872 1.774 6.945 1.776 3.074 4.816 4.805 3.038 1.73 6.663 1.73Zm0-6.777q-2.781.002-4.356-1.807-1.575-1.805-1.575-4.896 0-3.126 1.575-4.935 1.575-1.804 4.356-1.804 2.746 0 4.339 1.804 1.593 1.809 1.593 4.935 0 3.054-1.593 4.879t-4.34 1.824ZM181.33 130.127h-7.176v26.253h15.195v-5.585h-8.019zM192.022 130.127v15.23q0 3.653 1.41 6.182 1.41 2.534 3.88 3.818 2.471 1.285 5.62 1.284t5.731-1.284q2.58-1.284 4.083-3.835 1.501-2.552 1.502-6.165v-15.23h-7.178v15.23q0 2.089-1.007 3.259-1.007 1.173-2.984 1.174t-2.947-1.155-.97-3.278v-15.23zM225.376 130.127h-7.175v26.253h15.195v-5.585h-8.02zM254.851 151.914v4.468h7.25v-4.468h2.818v-6.332h-2.818V129.57h-7.872l-11.241 16.31v6.034zm.55-6.332h-5.055l5.055-7.783zM32.386 176.712q0 3.914 1.592 6.946 1.592 3.035 4.521 4.73 2.93 1.695 6.739 1.695 4.83 0 8.127-2.625 3.295-2.625 4.249-7.133h-7.726q-.697 1.49-1.924 2.273-1.227.781-2.837.782-2.49 0-3.973-1.807-1.484-1.804-1.483-4.86 0-3.016 1.483-4.822 1.483-1.804 3.973-1.805 1.61 0 2.837.78 1.227.785 1.924 2.273h7.726c-.636-3.005-2.052-5.38-4.25-7.133q-3.295-2.624-8.126-2.623-3.809 0-6.739 1.694t-4.52 4.728q-1.595 3.039-1.593 6.907ZM78.739 189.896h7.58l-9.375-26.254H68.67l-9.41 26.254h7.543l1.391-4.282h9.154zm-8.714-9.869 2.746-8.489 2.782 8.49zM109.055 172.395q0-2.57-1.098-4.543-1.1-1.976-3.278-3.091-2.178-1.12-5.29-1.119H88.66v26.254h7.177v-8.862h3.552q3.15 0 5.328-1.173 2.177-1.172 3.257-3.13 1.08-1.953 1.081-4.336Zm-10.362 2.83h-2.856v-5.698h2.856q3.039 0 3.04 2.868-.001 2.83-3.04 2.83ZM111.947 189.896h7.176v-26.253h-7.176ZM121.796 163.642v5.81h6.81v20.444h7.176v-20.443h6.884v-5.81zM157.714 190.158q3.625 0 6.664-1.733 3.039-1.731 4.797-4.803t1.758-6.946c0-2.58-.586-4.898-1.758-6.945q-1.758-3.074-4.778-4.783-3.021-1.714-6.683-1.714-3.625 0-6.663 1.714-3.04 1.709-4.816 4.783c-1.183 2.047-1.774 4.366-1.774 6.945q0 3.873 1.774 6.946 1.776 3.073 4.816 4.803 3.038 1.733 6.663 1.733Zm0-6.778q-2.781.001-4.356-1.807-1.575-1.804-1.575-4.897 0-3.128 1.575-4.934 1.575-1.804 4.356-1.805 2.746.001 4.339 1.805 1.593 1.807 1.593 4.934 0 3.056-1.593 4.878-1.592 1.826-4.34 1.826ZM181.33 163.642h-7.176v26.254h15.195v-5.585h-8.019zM192.022 163.642v15.23q0 3.653 1.41 6.183 1.41 2.535 3.88 3.817 2.471 1.285 5.62 1.285t5.731-1.285q2.58-1.284 4.083-3.835 1.501-2.55 1.502-6.165v-15.23h-7.178v15.23q0 2.088-1.007 3.26-1.007 1.174-2.984 1.174t-2.947-1.155-.97-3.279v-15.23zM225.376 163.642h-7.175v26.254h15.195v-5.585h-8.02zM254.851 185.428v4.47h7.25v-4.47h2.818v-6.33h-2.818v-16.015h-7.872l-11.241 16.313v6.032zm.55-6.33h-5.055l5.055-7.783zM32.386 210.23q0 3.91 1.592 6.946 1.592 3.034 4.521 4.729 2.93 1.695 6.739 1.695 4.83 0 8.127-2.626 3.295-2.625 4.249-7.131h-7.726q-.697 1.49-1.924 2.271-1.227.783-2.837.783-2.49 0-3.973-1.807-1.484-1.806-1.483-4.86 0-3.016 1.483-4.822t3.973-1.806q1.61 0 2.837.781 1.227.784 1.924 2.272h7.726q-.954-4.506-4.25-7.132-3.295-2.625-8.126-2.625-3.809 0-6.739 1.695-2.93 1.694-4.52 4.73-1.595 3.034-1.593 6.907ZM78.739 223.412h7.58l-9.375-26.253H68.67l-9.41 26.253h7.543l1.391-4.28h9.154zm-8.714-9.867 2.746-8.491 2.782 8.491zM109.055 205.91q0-2.568-1.098-4.543-1.1-1.974-3.278-3.09-2.178-1.118-5.29-1.118H88.66v26.254h7.177v-8.863h3.552q3.15 0 5.328-1.173 2.177-1.173 3.257-3.129 1.08-1.954 1.081-4.337Zm-10.362 2.83h-2.856v-5.696h2.856q3.039 0 3.04 2.867-.001 2.83-3.04 2.83ZM111.947 223.413h7.176V197.16h-7.176ZM121.796 197.16v5.809h6.81v20.443h7.176V202.97h6.884v-5.81zM157.714 223.674q3.625 0 6.664-1.732t4.797-4.804q1.758-3.071 1.758-6.945c0-2.58-.586-4.898-1.758-6.945q-1.758-3.074-4.778-4.785-3.021-1.714-6.683-1.714-3.625 0-6.663 1.714-3.04 1.712-4.816 4.785-1.774 3.072-1.774 6.945t1.774 6.945 4.816 4.804q3.038 1.732 6.663 1.732Zm0-6.777q-2.781 0-4.356-1.807t-1.575-4.897q0-3.128 1.575-4.934t4.356-1.806q2.746 0 4.339 1.806t1.593 4.934q0 3.055-1.593 4.878-1.592 1.826-4.34 1.826ZM181.33 197.16h-7.176v26.252h15.195v-5.585h-8.019zM192.022 197.16v15.23q0 3.65 1.41 6.182t3.88 3.817 5.62 1.284q3.15 0 5.731-1.284t4.083-3.836q1.501-2.55 1.502-6.163v-15.23h-7.178v15.23q0 2.085-1.007 3.258t-2.984 1.174q-1.978 0-2.947-1.155-.971-1.156-.97-3.277v-15.23zM225.376 197.16h-7.175v26.252h15.195v-5.585h-8.02zM254.851 218.944v4.47h7.25v-4.47h2.818v-6.33h-2.818V196.6h-7.872l-11.241 16.312v6.032zm.55-6.33h-5.055l5.055-7.783z"/><use xlink:href="#b" fill="#fff001" data-text="C" transform="matrix(36.61437 0 0 -37.23966 31.214 256.928)"/><use xlink:href="#c" fill="#fff001" data-text="A" transform="matrix(36.61437 0 0 -37.23966 58.968 256.928)"/><use xlink:href="#d" fill="#fff001" data-text="P" transform="matrix(36.61437 0 0 -37.23966 86.611 256.928)"/><use xlink:href="#e" fill="#fff001" data-text="I" transform="matrix(36.61437 0 0 -37.23966 109.898 256.928)"/><use xlink:href="#f" fill="#fff001" data-text="T" transform="matrix(36.61437 0 0 -37.23966 121.175 256.928)"/><use xlink:href="#g" fill="#fff001" data-text="O" transform="matrix(36.61437 0 0 -37.23966 143.29 256.928)"/><use xlink:href="#h" fill="#fff001" data-text="L" transform="matrix(36.61437 0 0 -37.23966 172.106 256.928)"/><use xlink:href="#i" fill="#fff001" data-text="U" transform="matrix(36.61437 0 0 -37.23966 190.084 256.928)"/><use xlink:href="#h" fill="#fff001" data-text="L" transform="matrix(36.61437 0 0 -37.23966 216.153 256.928)"/><use xlink:href="#j" fill="#fff001" transform="matrix(36.61437 0 0 -37.23966 234.13 256.928)"/><use xlink:href="#k" fill="#fff001" data-text="4" transform="matrix(36.61437 0 0 -37.23966 241.124 256.928)"/><use xlink:href="#b" fill="#e101ff" data-text="C" transform="matrix(36.61437 0 0 -37.23966 31.214 290.444)"/><use xlink:href="#c" fill="#e101ff" data-text="A" transform="matrix(36.61437 0 0 -37.23966 58.968 290.444)"/><use xlink:href="#d" fill="#e101ff" data-text="P" transform="matrix(36.61437 0 0 -37.23966 86.611 290.444)"/><use xlink:href="#e" fill="#e101ff" data-text="I" transform="matrix(36.61437 0 0 -37.23966 109.898 290.444)"/><use xlink:href="#f" fill="#e101ff" data-text="T" transform="matrix(36.61437 0 0 -37.23966 121.175 290.444)"/><use xlink:href="#g" fill="#e101ff" data-text="O" transform="matrix(36.61437 0 0 -37.23966 143.29 290.444)"/><use xlink:href="#h" fill="#e101ff" data-text="L" transform="matrix(36.61437 0 0 -37.23966 172.106 290.444)"/><use xlink:href="#i" fill="#e101ff" data-text="U" transform="matrix(36.61437 0 0 -37.23966 190.084 290.444)"/><use xlink:href="#h" fill="#e101ff" data-text="L" transform="matrix(36.61437 0 0 -37.23966 216.153 290.444)"/><use xlink:href="#j" fill="#e101ff" transform="matrix(36.61437 0 0 -37.23966 234.13 290.444)"/><use xlink:href="#k" fill="#e101ff" data-text="4" transform="matrix(36.61437 0 0 -37.23966 241.124 290.444)"/><use xlink:href="#b" fill="#fff" data-text="C" transform="matrix(36.61437 0 0 -37.23966 31.214 323.96)"/><use xlink:href="#c" fill="#fff" data-text="A" transform="matrix(36.61437 0 0 -37.23966 58.968 323.96)"/><use xlink:href="#d" fill="#fff" data-text="P" transform="matrix(36.61437 0 0 -37.23966 86.611 323.96)"/><use xlink:href="#e" fill="#fff" data-text="I" transform="matrix(36.61437 0 0 -37.23966 109.898 323.96)"/><use xlink:href="#f" fill="#fff" data-text="T" transform="matrix(36.61437 0 0 -37.23966 121.175 323.96)"/><use xlink:href="#g" fill="#fff" data-text="O" transform="matrix(36.61437 0 0 -37.23966 143.29 323.96)"/><use xlink:href="#h" fill="#fff" data-text="L" transform="matrix(36.61437 0 0 -37.23966 172.106 323.96)"/><use xlink:href="#i" fill="#fff" data-text="U" transform="matrix(36.61437 0 0 -37.23966 190.084 323.96)"/><use xlink:href="#h" fill="#fff" data-text="L" transform="matrix(36.61437 0 0 -37.23966 216.153 323.96)"/><use xlink:href="#j" fill="#fff" transform="matrix(36.61437 0 0 -37.23966 234.13 323.96)"/><use xlink:href="#k" fill="#fff" data-text="4" transform="matrix(36.61437 0 0 -37.23966 241.124 323.96)"/><path fill="none" stroke="#fff" stroke-miterlimit="10" stroke-opacity=".6" stroke-width="1.0000799999999999" d="M32.386 344.292q0 3.91 1.592 6.946t4.521 4.73q2.93 1.694 6.739 1.693 4.83.001 8.127-2.626 3.295-2.625 4.249-7.13h-7.726q-.697 1.49-1.924 2.271-1.227.782-2.837.782-2.49 0-3.973-1.807-1.484-1.805-1.483-4.859 0-3.016 1.483-4.822t3.973-1.806q1.61 0 2.837.781 1.227.784 1.924 2.273h7.726q-.954-4.507-4.25-7.133-3.295-2.624-8.126-2.624-3.809 0-6.739 1.694-2.93 1.695-4.52 4.73-1.595 3.034-1.593 6.907ZM78.739 357.475h7.58l-9.375-26.254H68.67l-9.41 26.254h7.543l1.391-4.282h9.154zm-8.714-9.867 2.746-8.491 2.782 8.49zM109.055 339.973q0-2.57-1.098-4.543-1.1-1.975-3.278-3.091-2.178-1.118-5.29-1.118H88.66v26.255h7.177v-8.864h3.552q3.15 0 5.328-1.172 2.177-1.175 3.257-3.129 1.08-1.956 1.081-4.338Zm-10.362 2.829h-2.856v-5.696h2.856q3.039 0 3.04 2.867-.001 2.83-3.04 2.829ZM111.947 357.475h7.176V331.22h-7.176ZM121.796 331.221v5.81h6.81v20.445h7.176v-20.444h6.884v-5.811zM157.714 357.736q3.625 0 6.664-1.731t4.797-4.805 1.758-6.944q0-3.874-1.758-6.946-1.758-3.073-4.778-4.786-3.021-1.713-6.683-1.713-3.625 0-6.663 1.713-3.04 1.714-4.816 4.786-1.774 3.072-1.774 6.946 0 3.872 1.774 6.944 1.776 3.074 4.816 4.805 3.038 1.731 6.663 1.731Zm0-6.777q-2.781 0-4.356-1.808-1.575-1.805-1.575-4.895 0-3.129 1.575-4.935 1.575-1.807 4.356-1.807 2.746 0 4.339 1.807t1.593 4.935q0 3.054-1.593 4.877-1.592 1.826-4.34 1.826ZM181.33 331.221h-7.176v26.255h15.195v-5.587h-8.019zM192.022 331.221v15.23q0 3.651 1.41 6.183t3.88 3.816q2.471 1.286 5.62 1.286 3.15-.001 5.731-1.286 2.58-1.284 4.083-3.833 1.501-2.553 1.502-6.165V331.22h-7.178v15.23q0 2.086-1.007 3.26-1.007 1.172-2.984 1.172t-2.947-1.154-.97-3.277V331.22zM225.376 331.221h-7.175v26.255h15.195v-5.587h-8.02zM254.851 353.007v4.469h7.25v-4.47h2.818v-6.33h-2.818v-16.014h-7.872l-11.241 16.312v6.033zm.55-6.331h-5.055l5.055-7.783zM32.386 377.808q0 3.91 1.592 6.945t4.521 4.73q2.93 1.694 6.739 1.693 4.83.001 8.127-2.626 3.295-2.624 4.249-7.13h-7.726q-.697 1.49-1.924 2.271-1.227.782-2.837.782-2.49 0-3.973-1.806-1.484-1.806-1.483-4.86 0-3.015 1.483-4.823 1.483-1.804 3.973-1.805 1.61 0 2.837.782 1.227.783 1.924 2.272h7.726q-.954-4.507-4.25-7.132-3.295-2.625-8.126-2.625-3.809 0-6.739 1.694-2.93 1.695-4.52 4.73-1.595 3.035-1.593 6.908ZM78.739 390.99h7.58l-9.375-26.254H68.67l-9.41 26.254h7.543l1.391-4.282h9.154zm-8.714-9.867 2.746-8.491 2.782 8.49zM109.055 373.488q0-2.57-1.098-4.543c-.733-1.315-1.826-2.348-3.278-3.091q-2.178-1.118-5.29-1.118H88.66v26.255h7.177v-8.863h3.552q3.15 0 5.328-1.174 2.177-1.173 3.257-3.127 1.08-1.956 1.081-4.339Zm-10.362 2.83h-2.856v-5.697h2.856q3.039 0 3.04 2.867-.001 2.83-3.04 2.83ZM111.947 390.99h7.176v-26.254h-7.176ZM121.796 364.736v5.811h6.81v20.444h7.176v-20.444h6.884v-5.81zM157.714 391.251q3.625 0 6.664-1.731t4.797-4.805q1.758-3.072 1.758-6.944 0-3.873-1.758-6.946t-4.778-4.785q-3.021-1.713-6.683-1.713-3.625 0-6.663 1.713-3.04 1.712-4.816 4.785-1.774 3.073-1.774 6.946t1.774 6.944q1.776 3.074 4.816 4.805 3.038 1.731 6.663 1.731Zm0-6.777q-2.781 0-4.356-1.807t-1.575-4.896q0-3.128 1.575-4.935 1.575-1.805 4.356-1.806 2.746 0 4.339 1.806t1.593 4.935q0 3.054-1.593 4.877-1.592 1.826-4.34 1.826ZM181.33 364.736h-7.176v26.255h15.195v-5.587h-8.019zM192.022 364.736v15.23q0 3.651 1.41 6.184 1.41 2.532 3.88 3.815 2.471 1.286 5.62 1.286t5.731-1.286q2.58-1.284 4.083-3.833 1.501-2.553 1.502-6.165v-15.23h-7.178v15.23q0 2.085-1.007 3.259-1.007 1.172-2.984 1.172t-2.947-1.154-.97-3.277v-15.23zM225.376 364.736h-7.175v26.255h15.195v-5.587h-8.02zM254.851 386.522v4.469h7.25v-4.47h2.818v-6.33h-2.818v-16.013h-7.872l-11.241 16.311v6.033zm.55-6.331h-5.055l5.055-7.783z"/><use xlink:href="#l" fill="#fff" data-text="B" transform="matrix(85.75478 0 0 -87.21919 -232.52 393.14)"/><use xlink:href="#m" fill="#fff" data-text="E" transform="matrix(85.75478 0 0 -87.21919 -174.978 393.14)"/><use xlink:href="#n" fill="#fff" data-text="S" transform="matrix(85.75478 0 0 -87.21919 -127.985 393.14)"/><use xlink:href="#f" fill="#fff" data-text="T" transform="matrix(85.75478 0 0 -87.21919 -74.817 393.14)"/></g></svg>