<?xml version="1.0" encoding="UTF-8"?>
<svg id="Layer_1" data-name="Layer 1" xmlns="http://www.w3.org/2000/svg" viewBox="0 0 400 400">
  <defs>
    <style>
      .cls-1 {
        fill: #fff;
      }

      .cls-2 {
        fill: #151415;
      }
    </style>
  </defs>
  <g id="freewall">
    <path class="cls-1" d="M372.76,215.86c0,13.55,0,27.1,.02,40.65,0,.58-.11,.69-.69,.69-114.73-.02-229.45-.02-344.18,0-.58,0-.69-.11-.69-.69,.02-24.35,.02-48.69,.02-73.04,.17,.08,.34,.09,.39,.37,.03,.22,.26,.52,.54,.42,.62-.23,1.28-.04,1.9-.28,.89-.34,1.06-.21,1.02,.7-.18,4.44-.11,8.88-.06,13.32,.03,2.08-.28,4.46,2.58,5.19,.36,.09,.23,.37,.19,.54-.06,.21-.1,.46-.45,.5-.7,.07-1.12,.47-1.42,1.14-.19,.41-.3,.81-.38,1.23-.5,2.49-1.23,4.96-.56,7.53,.14,.54,.02,.99-.43,1.33-.4,.3-.41,.71-.48,1.17-.07,.49,.38,.83,.18,1.34-.5,1.25-.14,2.44,.93,3.22,.13,.09,.29,.13,.37,.29,.4,.86,1.28,.99,2.01,1.07,1.64,.17,3.31,.16,4.96,.2,.95,.02,1.98-.21,2.85,.06,1.58,.49,3.06,.08,4.57-.1,1.52-.18,2.28-1.59,2.22-2.83-.02-.41-.02-.82,.13-1.24,.13-.37,.17-.95-.31-1.08-1.01-.27-1.83-.88-2.72-1.35-.45-.23-.38-.51-.21-.67,.32-.32,.23-.67,.24-1.02,.01-1.01,.07-2.03,0-3.04-.17-2.21,.58-4.37,.35-6.58-.04-.39,.18-.56,.56-.54,.92,.05,1.83-.19,2.77-.09,.79,.09,1.54-.03,2.14-.71,.62-.7,1.74-.65,2.18-.29,.91,.73,1.84,.47,2.77,.59,.6,.08,.91-.23,1.15-.71,.86-1.75,.89-3.55,.35-5.39-.04-.14-.17-.24-.3-.36-.85-.73-1.92-.79-2.94-.97-.45-.08-.93-.32-1.4-.08-.95,.49-2,.63-3.04,.71-1.15,.09-2.31,.05-3.46,0-.76-.03-1.18-.26-1.16-1.27,.08-5,.02-10.01,.05-15.01,0-.81-.19-1.46-.68-2.08-.53-.67-1.16-.89-1.94-.52-.18,.09-.37,.23-.54,.08-.39-.35-.84-.22-1.28-.24-1.12-.05-2.25,.19-3.34,.13-1.58-.09-3.17-.38-4.72-.73-2.13-.49-2.85-.21-4.28,1.48-.41,.49-.63,1.2-1.3,1.48,0-12.31,0-24.63-.02-36.94,0-.58,.11-.69,.69-.69,114.73,.02,229.45,.02,344.18,0,.58,0,.69,.11,.69,.69-.02,21.09-.02,42.17-.02,63.26-.81-.28-1.62-.55-2.43-.84-.74-.26-1.45-.61-2.29-.52-.66,.07-.89,.48-.64,.94,.48,.87,.35,1.65,.02,2.5-.11,.29-.15,.76,0,.98,.66,.93,.19,1.74-.22,2.49-.66,1.2-1.8,1.96-2.99,2.54-1.3,.63-2.52,1.58-4.11,1.36l-.3,.08c-.46,.7-1.36,1.19-1.06,2.27,.08,.28,.01,.61,.01,.92,0,1.61,.85,2.46,2.45,2.46,.93,0,1.85,0,2.78,0,1.8,0,3.58-.2,5.32-.66,.15-.04,.41-.05,.48,.04,.54,.65,1.07,.27,1.47-.07,.71-.62,1.22-1.38,1.17-2.41-.04-.81,0-1.63-.02-2.44,0-.27,.04-.47,.34-.52m-167.12-30.45c.06,.59,.39,.89,.68,1.14,.42,.35,.82,.59,1.02,1.21,.14,.43,.47,.9,1,1.25,.81,.55,1.59,1.21,2.34,1.89,.94,.86,1.91,1.8,3.4,1.53,.43-.08,.58,.17,.61,.59,.05,.91,.37,1.8,.6,2.65,.21,.77,.25,1.58,.51,2.35,.24,.7,.36,1.51,.47,2.29,.14,.94,.62,1.84,.61,2.84l.07,.32c.25,.81,.61,1.59,.73,2.42,.1,.69,.29,1.38,.45,2.03,.21,.83,.24,1.73,.61,2.52,.29,.61,.14,1.34,.44,1.86,.34,.6,.3,1.26,.49,1.86,.26,.82,.41,1.74,.61,2.6,.22,.94,.59,1.87,.9,2.79,.18,.51,.31,1.12,.43,1.69,.12,.58,.35,1.05,1.16,1.06,2.29,.03,4.54-.55,6.84-.4,.69,.05,1.44-.53,1.71-1.12,.5-1.1,.51-2.37,.7-3.56,.26-1.66,.81-3.2,1.61-4.62,.78-1.4,.9-2.53,.01-3.8l-.03-.08c-.14-1.04-.64-1.97-.87-2.98-.2-.93-.49-1.85-.78-2.73-.35-1.06-.51-2.16-.91-3.19-.22-.57-.18-1.26-.42-1.73-.74-1.47-.88-3.1-1.37-4.63-.19-.6-.42-1.29-.47-2-.03-.53-.1-1.23-.37-1.64-.45-.68-.31-1.45-.57-2.15-.23-.64-.73-1.34-.62-2.21,.04-.3-.09-.95-.29-1.38-.39-.85-.41-1.77-.64-2.65-.16-.61-.19-1.3-.39-1.83-.46-1.18-.55-2.42-.88-3.62-.22-.78-.36-1.65-.54-2.47-.45-2.05-.87-4.11-1.32-6.15-.31-1.4-.43-2.86-.75-4.27-.33-1.45-.37-2.95-.8-4.38-.1-.32-.13-.62,.4-.79,.9-.28,1.75-.73,2.63-1.11,.64-.28,1.11-.64,1-1.46-.1-.82-.02-1.62-.29-2.46-.26-.78-.54-1.15-1.35-1.15-2.68,.03-5.35-.04-8.02,.31-.99,.13-2.03-.7-3.05,.02h-.33c-.99-.62-2.15-.34-3.21-.62-1.04-.28-2.08,.14-3.1,.55-.37,.15-.86,.61-1.2,.38-.74-.51-.93,.03-1.24,.46-.32,.43-.7,.73-1.3,.6-.29-.06-.66,.07-.68,.41-.04,.67-.52,.96-.97,1.29-1.29,.93-2.44,1.99-3.44,3.23-1.34,1.64-2.55,3.33-4.4,4.58-2.39,1.63-3.5,4.17-3.53,7.13-.02,2.03,.08,4,.7,5.99,.45,1.44,.2,3.03-.32,4.51-.08,.22-.06,.46,.07,.71,.39,.76,.81,1.54,1.04,2.35,.33,1.17,.46,2.41,1.57,3.18,.19,.13,.18,.38,.12,.42-.65,.53,.03,1.61-.93,2.07-.33,.16-.52,.81-.41,1.36,.19,.91-.1,1.82,.28,2.8,.45,1.13-.11,2.43,.34,3.71,.4,1.15,0,2.48,.34,3.76,.38,1.42,.2,2.96,.3,4.44,.26,3.7,.19,7.43-.25,11.14l-.04,.24c-.56,.78-.26,1.75-.59,2.6-.22,.56-.39,1.17-.56,1.76-.26,.95-.87,1.75-1.36,2.59-.71,1.22-1.71,2.22-2.97,2.86-.33,.17-.61,.32-.47,.58,.14,.26,.52,.19,.81,0,.64-.43,1.34-.79,1.92-1.3,.92-.81,1.77-1.76,2.22-2.89,.67-1.64,1.31-3.29,1.61-5.09,.25-1.45,.55-2.91,.57-4.36,.05-3.48,.1-6.95-.24-10.44-.18-1.81-.65-3.63-.41-5.49v-.17c-.69-1.26-.28-2.71-.76-4.06-.36-.99-.04-2.22-.08-3.35-.03-.77,.48-.61,.81-.45,.88,.44,1.77,.64,2.75,.61,.42-.01,.52-.14,.51-.53,0-.53-.16-1.09,.08-1.58,.31-.63,.5-1.3,.55-1.95,.11-1.39,1.76-2.13,2.73-1.43,.16,.11,.27,.29,.5,.24,1.06-.23,1.1,.41,1.03,1.17-.03,.28,.03,.57-.01,.84-.07,.46,.2,.67,.55,.8,.82,.31,1.88-.07,2.28-.85,.13-.24,.3-.5,.5-.52,.61-.05,.89-.5,1.3-1.03m91.16,34.32c.02,.17,.03,.25,.03,.33q.02,1.22,1.26,1.19c.73-.02,.92,.06,1.19,.55l.09,.39c.34,.28,.25,1.07,.92,.91,1.57-.38,3.16-.09,4.75-.28,3.44-.4,6.93-.1,10.37-.83,.98-.21,1.92-.5,2.87-.78,.46-.14,.89-.58,.85-1.28-.07-1.15-.14-2.32,.02-3.45,.13-.93-.51-.94-1-1.1-.36-.11-.79-.06-1.17-.01-.44,.05-.7-.18-.92-.47-.43-.57-.79-1.34-.76-1.94,.08-1.72-.47-3.35-.43-5.06,.02-.92,.48-1.98-.46-2.79-.1-.09,.09-.32,.09-.46,0-.33,.41-.41,.38-.68-.13-1.06,.57-2.01,.35-3.07-.22-1.05-.03-2.11,0-3.17,.02-.65-.11-1.27-.07-1.94,.17-2.66,.08-5.34,.07-8.01,0-.15,.1-.38-.15-.41-.77-.1-1.28-.72-1.96-.97-.56-.21-.58-.41-.25-.8,.1-.11,.14-.22,.16-.37,.27-1.45,.59-1.67,2.05-1.31,.3,.07,.59,.03,.6-.23,.02-.47,.27-.51,.64-.63,.79-.26,1.55-.63,2.32-.95,.33-.14,.47-.34,.48-.74,.03-1.03-.18-2.07,.13-3.08,.06-.2-.09-.34-.24-.39-.83-.3-1.61-.82-2.56-.65-.98,.17-1.96,.33-2.96,.32-.96,0-1.91,0-2.87,0-.5,0-.86,.12-.81,.75,.05,.52-.25,.72-.76,.78-.58,.08-.98-.26-1.33-.56-.4-.34,.27-.57,.29-.91,0-.11,.22-.24,.04-.34h-.38c-.17,.14-.3,.31-.41,.51-.25,.43-.6,.63-1.11,.24-.42-.32-.9-.75-1.37-.77-1.46-.07-2.97-.27-4.32,.48-.71,.39-1.45,.84-1.67,1.71-.23,.95-.31,1.92-.26,2.9,.02,.27,.09,.53,.44,.61,1.24,.28,2.49,.74,3.77,.47,1.16-.24,1.51,.62,2.02,1.26,.31,.39,.23,.71-.33,1-.5,.26-1.08,.15-1.53,.53-.37,.32-1.04-.18-1.31,.25-.26,.41,.41,.76,.32,1.31-.22,1.42,.14,2.85-.3,4.31-.32,1.06,.2,2.31,.21,3.43,.07,6.4,.27,12.81-.27,19.21-.03,.33-.03,.68,0,1.01,.05,.57-.14,.84-.75,.79-.5-.04-1.02,.05-1.52-.02-.81-.11-.93,.35-.73,.91,.29,.81-.34,.51-.65,.66-.54,.25-.6-.09-.57-.46,.04-.53-.38-.53-.58-.39-.5,.34-1.05,.69-1.27,1.3-.09,.24,.06,.66-.39,.51-.33-.11-.9-.01-.81-.69,.05-.41,0-.84,.01-1.26,0-.24-.04-.43-.28-.55-.7-.33-1.37-.72-2.15-.86-.49-.09-1.09-.18-1.41-.49-.42-.42,.11-1.4,.73-1.52,.72-.15,1.2-.75,.83-1.12-.25-.24-.33-.56-.46-.78-.72-1.28-.8-2.04,.52-2.55,.91-.35,1.91,.19,1.86,1.1-.04,.65,.46,.82,.78,1.17,.21,.22,.48,.25,.67,.08,.19-.18,.2-.54,.03-.7-.6-.57-.53-1.37-.76-2.05-.29-.86-.48-1.78-.79-2.61-.43-1.15-.74-2.35-1.21-3.5-.35-.85-.77-1.68-1.11-2.53-.24-.6-.69-1.17-.75-1.79-.14-1.46-.69-2.8-1-4.21-.19-.86-.53-1.65-.77-2.48-.33-1.15-.84-2.26-1.45-3.32-.32-.56-.84-.98-1.36-.66-.58,.36-1.19,.81-1.17,1.64,0,.18,.1,.44-.15,.49-.27,.07-.24-.25-.33-.4-.1-.15-.15-.35-.21-.53-.33-1.03-1-1.74-1.93-2.3-.68-.41-1.44-.26-2.12-.57-.18-.08-.37-.04-.33-.32,.1-.78,.65-1.23,1.56-1.25,.58-.01,.96-.57,.57-.93-.48-.45-.64-1.11-1.14-1.48-.45-.33-.32-.66-.22-1.07,.19-.74,.72-.83,1.35-.73,.55,.09,1.22-.32,1.62,.49,.21,.42,.15,.8,.13,1.18-.04,.69,.59,.65,.72,.47,.42-.62,1.11-1.11,1.15-1.95,0-.16,0-.36-.09-.47-1.43-1.93-3.41-2.98-5.77-3.06-3.12-.11-6.24,0-9.36-.05-.73-.01-1.32,.2-1.89,.55-.66,.4-1.21,1.58-.85,1.95,.34,.35,.31,.52,.05,.88-.31,.43-.15,.98-.11,1.46,.04,.46,.51,.16,.77,.29,1.03,.51,2.17,.94,2.63,2.07,.3,.75,.63,1.5,.9,2.24,.46,1.26,1.01,2.51,1.36,3.8,.43,1.57,1.15,3.02,1.64,4.56,.12,.36,.19,.76,.35,1.13,.33,.73,.75,1.46,.89,2.23,.24,1.27,.91,2.37,1.31,3.57,.35,1.05,.84,2.12,1.17,3.16,.38,1.18,.96,2.26,1.35,3.42,.38,1.13,.77,2.29,1.28,3.38,.36,.78,.45,1.67,.98,2.39,.67,.91,.55,1.23-.29,1.98-.71,.64-1.52,1.12-2.33,1.56-.7,.37-.7,.95-.51,1.43,.25,.64,.41,1.32,.76,1.95,.86,1.54,1.59,2.04,3.24,1.68,2.3-.51,4.67,0,6.96-.59,.54-.14,.99-.33,1.4-.68,.3-.26,.54-.42,1.04-.21,1.37,.59,2.59,.22,3.57-.97,.18-.21,.36-.27,.65-.37m-141.38,1.9c.71,.97,.72,.93,1.76,.98,1.26,.06,2.52-.15,3.8,.27,.63,.21,1.56,.39,2.19-.33,1.14-1.31,1.4-2.98,1.51-4.57,.11-1.78,.28-3.58-.24-5.39-.41-1.44,.3-2.91,.3-4.38,0-1.04,0-2.08,.06-3.11,.02-.32,.18-.55-.25-.73-.26-.11-.28-.35,.09-.52,.36-.16,.68-.33,1.09-.32,1.57,.02,3.15,.01,4.72,0,.63,0,1.23,.17,1.87,.17,.3,0,.75,.35,.97,.07,.24-.32-.02-.75-.26-1.07-.63-.86-.46-1.35,.59-1.51,.97-.15,1.84-.56,2.71-.99,.85-.42,.75-1.17,.7-1.9-.05-.72-.68-.34-1.02-.51-.59-.29-1.26-.18-1.82-.38-1.06-.39-2.11-.63-3.23-.62-.51,0-.89,.39-1.43,.36-1.32-.05-2.64-.05-3.96,0-.7,.03-.88-.24-.84-.88,.05-.62,.21-1.34-.04-1.84-.64-1.3,.09-2.76-.61-4.03-.27-.49,.34-.94,.31-1.42-.19-2.38,.56-4.71,.36-7.08-.03-.39,.1-.84-.05-1.17-.38-.83-.49-1.7-.63-2.57-.1-.67-.23-1.25-1.13-1.1-1.71,.28-3.44,.17-5.16,.3-2.18,.16-4.38,.1-6.57,0-.66-.03-1.33-.08-2-.15-.31-.03-.57,.02-.66,.35-.31,1.12-.82,2.15-1.36,3.17-.3,.58-.31,1.27-.09,1.78,.19,.45,.85,.18,1.3,.12h.34c.57-.02,.89,.17,.82,.83-.05,.5,.03,1.01-.02,1.51-.05,.52,.28,.81,.62,.97,.49,.22,.4-.22,.44-.52,.02-.14,.23-.09,.36-.11q1.66-.16,1.51,1.49c-.03,.28-.03,.56-.07,.84-.06,.51-.28,.68-.75,.35-.51-.36-1.07-.67-1.56-1.06-.24-.19-.46-.36-.74-.25-.31,.13-.13,.44-.14,.67-.07,1.03-.04,2.08-.12,3.08-.15,1.81-.16,3.62-.23,5.44-.04,1.02,.04,1.92,.9,2.63,.14,.11,.55,.68-.21,.64-.35-.02-.29,.19-.34,.42-.26,1.09-.27,2.22-.29,3.31-.02,1.34-.19,2.69,.22,4.07,.25,.85,.62,1.79,.39,2.77-.49,2.02-.41,4.05-.03,6.07,.24,1.25-.15,1.98-1.41,2.22-.83,.16-1.26,.15-1.14,1.34,.17,1.81,.95,2.93,2.57,3.44,.96,.3,2.07,.83,2.88-.4,.13-.19,.45-.18,.49,0,.22,1.09,1,.61,1.55,.53,.56-.08,1.17-.28,.99-1.29m-40.06,.25c.14,.32,.13,.53,0,.77-.09,.16-.16,.36,.14,.45,.53,.17,1.94-.42,2.16-.98,.11-.28,.33-.14,.47-.23,.14-.08,.21,0,.19,.12-.11,.78,.45,.57,.85,.58,.65,.01,1.29-.02,1.94,0,.65,.03,1.27-.02,1.94,.28,1.18,.53,2.09,.23,2.7-.74,.68-1.08,.95-2.33,1.17-3.57,.13-.72-.12-1.48,.32-2.2,.15-.24,.12-.72-.02-.98-.35-.64-.27-1.3-.28-1.96,0-2-.03-3.99,.01-5.99,.02-.78-.3-1.62,.33-2.33l-.06-.4c-.39-.9-.21-1.2,.78-1.17,2.33,.07,4.68-.24,7,.32,.22,.05,.48,.08,.61-.26,.07-.2,.17-.47-.03-.5-.54-.06-.31-.62-.63-.86-.2-.14-.22-.87,.25-.86,.78,0,1.39-.44,2.1-.56,1.48-.26,2.05-1.02,1.97-2.49-.02-.38-.12-.53-.53-.55-.73-.04-1.44-.28-2.15-.42-1.01-.2-1.98-.57-3.04-.59-.54,0-.97,.35-1.51,.35-1.46-.01-2.92-.02-4.38,0-.4,0-.51-.14-.59-.51-.27-1.29-.23-2.61-.4-3.91-.42-3.2,.29-6.4,.28-9.62l.03-.33c.79-.82-.07-1.62-.13-2.39-.06-.77-.56-1.6-.54-2.43,.01-.8-.3-.95-.98-.91-2.82,.14-5.63,.33-8.45,.35-1.74,.01-3.47-.05-5.2-.18-.31-.02-.44,.07-.63,.4-.5,.86-.79,1.81-1.3,2.67-.33,.56-.79,1.23-.34,2,.45,.76,1.09,.29,1.66,.33,.49,.03,.8,.16,.79,.8,0,.53-.07,1.06-.08,1.59,0,.49,.46,.64,.69,.95,.06,.08,.4,.11,.44-.07,.21-.98,.98-.46,1.5-.57,.5-.11,.71,.17,.54,.6-.21,.52-.14,1.05-.15,1.57,0,.58-.25,.66-.75,.48-.6-.22-.99-.74-1.59-.99-.92-.39-1.03-.39-1.03,.61-.02,2.08,0,4.16,0,6.24,0,.22,.01,.45-.03,.67-.27,1.43-.75,2.88,.73,4,.2,.15,.36,.6-.14,.62-.43,.02-.41,.27-.46,.53-.04,.22-.13,.45-.1,.65,.34,2.11-.64,4.19-.05,6.32,.2,.72,.42,1.47,.42,2.27,0,1.33-.12,2.64-.33,3.94-.08,.53,.38,.81,.31,1.32-.09,.69-.03,1.4-.02,2.1,0,1.13-.31,1.52-1.44,1.77-.24,.05-.49,.12-.73,.17-.2,.03-.28,.16-.34,.33-.35,1,.49,3.18,1.43,3.72,.86,.49,1.82,.67,2.78,.83,.31,.05,.61,.04,.85-.34,.22-.34,.65-.55,1.05-.87m224.68-10.05h-.01c0,1.29-.03,2.59,.01,3.88,.02,.62-.09,.93-.8,.84-.53-.07-1.07-.03-1.6,0-.31,.02-.73-.16-.86,.3-.12,.44-.23,1.16,.04,1.28,.67,.29,.3,.75,.31,1.08,.05,1.25,.32,2.4,.97,3.48,.29,.49,.62,.5,1.02,.37,.19-.06,.37-.11,.56-.1,2.02,.09,4.03-.26,6.04-.28,3.43-.04,6.82-.32,10.17-1.06,1.01-.22,1.84-1.09,1.84-2.1v-2.53c0-1.35-.27-1.64-1.63-1.61-.71,.02-1.29-.07-1.8-.67-.44-.52-.54-1.22-.55-1.71-.06-1.88-.64-3.72-.41-5.61,.05-.44,.01-.9,0-1.35,0-.17,0-.45-.06-.48-.79-.29-.53-.81-.26-1.26,.36-.6,.17-1.29,.38-1.86,.36-1.01,.5-1.94-.03-2.92-.06-.12-.02-.34,.05-.48,.38-.74,.51-1.45-.04-2.18-.09-.12-.12-.44,.08-.53,.31-.13,.22-.36,.22-.56,0-2.64,0-5.28,0-7.92,0-.16,.12-.39-.18-.48-.71-.2-1.28-.73-1.95-.96-.44-.15-.43-.38-.38-.67,.22-1.37,.68-1.75,2.06-1.75,.17,0,.34,0,.51,0l.27-.12c-.12-.91,.73-.86,1.15-.99,.55-.16,1.07-.42,1.62-.57,.66-.19,1.07-.55,.98-1.36-.09-.78-.01-1.57-.03-2.36,0-.17,.1-.37-.15-.51-.76-.41-1.46-1.03-2.41-.83-1.96,.4-3.94,.33-5.92,.33-.52,0-1.02,.01-.98,.76,.03,.4-.25,.65-.58,.75-.61,.18-1.04-.22-1.44-.6-.41-.38,.1-.5,.24-.71,.13-.19,.18-.38-.03-.5-.13-.07-.34-.1-.38,.17l-.09,.14c-.16,.28-.63,.31-.6,.74-.38-.04-.68-.33-1.01-.42-.5-.14-.73-.71-1.34-.68-1.38,.06-2.76-.11-4.08,.5-.71,.33-1.96,1.45-1.83,2.49,.03,.26,.1,.56-.09,.81-.52,.69-.22,1.21,.26,1.79,.43,.52,1.01,.23,1.49,.46,.83,.39,1.77,.22,2.65,.15,.57-.05,2.01,1.14,1.94,1.7-.02,.19-.15,.29-.3,.37-.82,.4-1.62,.88-2.58,.84-.43-.02-.45,.17-.51,.53-.14,.8,.38,1.44,.41,2.22,.03,.97-.45,1.82-.4,2.78,.1,2.31,.15,4.61,.28,6.92,.16,2.93,.34,5.9-.2,8.85-.25,1.36-.04,2.8-.04,4.2m-258.52-18.54l.04,.33c.07,.22-.22,.63,.28,.63,.19,0,.51,.16,.54-.19,.02-.24,.22-.62-.33-.68-.27-.03-.21-.37-.01-.51,1.06-.79,1.17-2.09,1.31-3.16,.31-2.36,.59-4.76,.41-7.17-.01-.2,.08-.47-.02-.58-.87-.96,.18-1.81,.18-2.73,0-.46,.32-1.04,.06-1.47-.3-.49-.91-.43-1.46-.45-.92-.03-1.79,.67-2.73,.23-.4-.19-.81-.15-1.22-.16-2.4-.1-4.76,.55-7.17,.35-1.06-.09-2.14,.02-3.2-.03-.42-.02-.68,.18-.89,.41-.94,1.04-1.54,2.3-1.89,3.64-.11,.39-.33,1.03,.18,1.36,.92,.59,2.01,.78,3.04,.98,.68,.13,.82,.33,.8,.94-.05,1.58-.18,3.16,0,4.74,.07,.63-.04,1.52,.71,1.69,.92,.22,1.24,.86,1.62,1.52,.12,.21,.11,.5,.24,.7,.45,.71,.4,.93-.33,1.25-1.02,.45-1.12,.72-.67,1.77l.1,.32c.02,.22,.06,.45-.3,.44-1.02-.03-1.22,.63-1.25,1.47-.11,2.77,.15,5.54-.09,8.31-.16,1.88-.02,3.78-.04,5.67-.02,1.22-.06,2.41-1.71,2.63-.4,.06-.77,.51-1.09,.85-.3,.31-.45,.74-1.03,.64-.3-.05-.2,.27-.2,.44,0,.73,.13,1.43,.29,2.16,.42,1.93,1.51,2.92,3.22,2.76,2.05-.19,4.09-.06,6.13-.13,.61-.02,1.22-.04,1.83-.15,1.23-.23,2.44-.36,3.69,.1,.71,.27,1.57,.2,2.33,.26,.57,.04,1.43-.58,2-1.21,1.26-1.38,1.06-3.12,1.27-4.76,.06-.44-.32-.45-.63-.49-1.14-.15-2.56-1.43-2.44-2.77,.09-.98,.02-1.96,.02-2.95,0-.25,.06-.54-.26-.63-.66-.19-.51-.53-.16-.89,.23-.24,.43-.53,.21-.79-.19-.23-.44-.01-.64,.17l-.39,.09c-.22-.03-.59,.32-.65-.2-.06-.43,.21-.45,.56-.49,.83-.1,1.33-.75,1.33-1.62,0-1.85,0-3.71,0-5.56,0-.27-.07-.52,.22-.81,.28-.28,.25-.79-.34-.93-.69-.16-1.38-.35-2.08-.5-.17-.04-.35,0-.33-.26,.01-.14,.04-.27,.07-.4,.52,.15,.73-.55,1.29-.49-.1,.55-.01,.84,.64,.84,.78,0,.47-.51,.52-.85,.02-.16,0-.34,0-.51,.04-.59-.21-.72-.76-.56-.71,.2-1.01-.04-1.09-.82-.02-.17,.06-.42-.02-.49-.74-.59-.08-.93,.32-1.31m12.49,12.33c1.09,.42,1.97-.11,2.83-.34,.96-.26,1.86-.91,2.78-1.36,2.64-1.29,4.15-3.49,5-6.11,.57-1.77,.84-3.67,.74-5.59-.07-1.23-.03-2.47,0-3.71,.02-1.17-.52-2.18-.87-3.25-.36-1.09-1.21-1.88-1.69-2.91-.36-.79-.73-1.62-1.63-1.98-.52-.21-1.05-.45-1.53-.69-1.24-.64-2.65-.66-3.89-1.25-.29-.14-.75-.15-1.12,.11-.47,.33-1.01,.3-1.47,.03-.24-.14-.46-.17-.71-.17-1.03-.02-2.06-.76-3.1,0h-.33c-.77-.63-1.66-.21-2.49-.33-.24-.03-.44,0-.43,.34,.02,.67-.18,1.33-.18,2.01,0,.92,.13,1.84-.14,2.75-.16,.55,.07,.82,.72,.69,1.93-.4,3.62,.22,5.14,1.37,1.18,.89,1.29,1.42,.76,2.87-.12,.31-.19,.74,.04,.96,.31,.3,.19,.61,.24,.92,.24,1.45-.39,2.83-.35,4.27,.02,.54-.04,1.05-.29,1.61-.85,1.97-2.49,2.78-4.37,3.27-.63,.16-1.34,.24-1.91,.43-.93,.31,.11,1.19-.15,1.82-.1,.24-.06,.56-.01,.83,.07,.46-.3,.89-.16,1.31,.35,1.02,.55,2.09,.97,3.1,.2,.49,.47,.96,.56,1.51,.09,.55,.33,1.08,.52,1.61,.55,1.51,1.11,3.01,1.64,4.52,.32,.9,.58,1.81,.87,2.71,.25,.76,.68,1.48,.9,2.2,.26,.84,.71,1.63,.8,2.54,.04,.42,.41,.87,1.08,.73,2.04-.44,4.14-.11,6.22-.45,2-.32,4.09-.07,6.15-.07,1.26,0,1.7-.43,1.7-1.65,0-1.01,0-2.02,0-3.04,0-.52-.27-.95-.65-1.26-.74-.58-1.56-1.04-2.56-.98-.23,.02-.4-.08-.46-.28-.3-.95-.67-1.88-1.04-2.81-.48-1.2-.85-2.45-1.38-3.63-.16-.36-.49-.61-.52-1.06-.04-.75-.42-.98-1.17-.83l-.3-.07c-.24-.37-.6-.24-.92-.24-1.01-.01-2.02,0-3.04,0-.26,0-.58,.13-.83-.44m149.53-16.27c1.02,.09,.8-.53,.83-1,.03-.45-.28-.87-.29-1.23-.03-1.1-.42-2.09-.77-3.08-.32-.9-.53-1.98-1.47-2.49-.67-.36-.61-.76-.21-1.15,.65-.63,.54-1.4,.55-2.16,0-.22-.04-.46-.27-.44-.53,.05-.92-.31-1.39-.44-1.01-.28-2.04-.12-3.06-.27-1.34-.2-2.64,.09-3.59,1.24-.84,1.02-1.26,2.25-1.43,3.49-.09,.7-.48,1.47-.06,2.22,.09,.16-.06,.35-.15,.53-.65,1.22-.9,2.58-1.16,3.92-.21,1.07-.31,2.22-.63,3.2-.47,1.41,.06,2.5,.5,3.62,.22,.57,.71,1.01,.87,1.72,.11,.47,.09,1.02,.32,1.47,.5,.96,.59,2.04,.9,3.06,.21,.7,.38,1.45,.64,2.13,.53,1.38,.82,2.81,1.27,4.21,.26,.8,.5,1.61,.79,2.4,.3,.82,.59,1.65,1,2.45,.62,1.21,.84,2.61,1.82,3.65,.18,.19,.12,.48-.1,.57-.51,.2-.38,.63-.27,.9,.33,.76,.7,1.51,1.14,2.21,.46,.73,.88,1.79,1.78,1.8,1.69,0,3.44,.45,5.1-.26,.13-.05,.43-.02,.46,.06,.15,.38,.45,.24,.7,.26,1.01,.09,1.53-.75,2.23-1.24,.17-.12,.41-.24,.51-.51,.63-1.56,.94-3.19,1.22-4.85,.21-1.24,.12-2.52,.57-3.73,.16-.43,.18-.96-.25-1.42-.22-.24-.39-.57-.56-.88-.56-1.08-.95-2.23-1.59-3.28-.4-.66-.84-1.42-.86-2.14-.03-1.26-.44-2.4-.78-3.55-.18-.6-.46-1.38-1.33-1.5-.17-.02-.43,.13-.47-.18-.03-.26,.11-.4,.35-.49,.39-.15,.67-.51,.46-.85-.47-.76-.55-1.63-.86-2.4-.19-.47-.13-.97-.35-1.36-.52-.94-.61-2.02-.88-3.01-.19-.72-.33-1.07-1.23-1.15m30.96,22.4c1.65,.09,2.74,.07,3.83-.27,.98-.31,1.21-.61,1.33-1.49,.08-.63-.36-1.05-.37-1.61-.02-1.5-1.4-3.09-3.05-3-.98,.06-1.97-.03-2.95,.02-.78,.04-.66-.42-.5-.84,.34-.87,.63-1.79,1.14-2.55,.39-.58,.35-1.45,1.16-1.77,.25-.09,.21-.44,.13-.61-.2-.44-.18-.98-.37-1.33-.62-1.17-.67-2.54-1.44-3.64-.45-.65-.67-1.46-1.07-2.16-.42-.72-2.55-.6-2.76,.19-.18,.69-.23,1.5,.08,2.22,.07,.17,.18,.36,.43,.35,.85-.02,1.4,.31,1.75,1.15,.29,.7,.82,1.25,.28,2.1-.21,.32-.25,1.07-.03,1.29,.81,.83-.32,1.36-.23,2.06,0,.04,.01,.55-.35,.65-.86,.24-1.69-.39-2.59-.06-.18,.07-.59-.44-.87-.7-.12-.11-.19-.26-.29-.39-.15-.2-.38-.25-.6-.22-.31,.04-.09,.33-.18,.47-.41,.64-.36,1.48-1.02,2.04-.23,.2-.51,.63-.5,1.09,.01,.51,.48,.19,.59,.37,.15,.25,.31,.62,.22,.83-.12,.25-.4,.18-.65-.08-.26-.27-.72-.24-.78,.2-.15,1.09-.66,2.06-1.09,3.02-.47,1.04-.93,2.11-1.34,3.16-.18,.45-1.05,1.19-.16,1.87,.06,.04,0,.24-.15,.22-.31-.04-.41,.27-.64,.34-.48,.15-.82,.49-.67,.95,.13,.4,.64,.39,1.05,.41h.25c.17,.06,.39-.41,.51,.03,.1,.34-.06,.47-.42,.52-.33,.05-.63,.26-.58,.69,.03,.27-.09,.72,.23,.72,.78-.01,.75,.44,.83,.99,.14,.9-.94,2.01-1.85,1.8-.75-.17-1.05,.15-.88,.9,.13,.55,.2,1.05,.99,.63,.26-.14,.66-.04,1-.03,1.25,.04,2.52,.15,3.74,.12,1.71-.05,3.39-.37,5.07,.19l.4-.07c.75-.39,1.37-.9,1.77-1.67,.31-.61,.77-1.16,.97-1.79,.27-.86-.28-1.64-1.42-2.16-.83-.38-1.69-.71-2.56-.99-.31-.1-.53-.21-.3-.46,.62-.69,.59-1.68,1.14-2.36,.28-.35,.04-1.07,.73-1.08,1.2-.02,2.38-.33,3.06-.22m-20.91-15.15c.21-.79-.47-1.83,.93-1.7l.19-.23c.7-.33,.67-1.05,.92-1.63,.33-.75,.61-1.55,.82-2.32,.21-.74,.31-1.55,.67-2.21,.8-1.44,.34-2.86,.08-4.26-.15-.82-.28-.79,.56-.8,.98,0,1.97,.05,2.95-.02,.74-.05,1.41-.31,1.88-.99,.95-1.37,1.23-2.88,1.18-4.51-.02-.71-.44-.8-.92-.71-2.03,.38-4.05,.09-6.06-.15-1.81-.21-3.62-.29-5.44-.19-.32,.02-.64,.23-.97,.14-1.1-.3-2.22-.12-3.33-.16-.48-.02-.79,.21-1.02,.62-.54,.98-.7,2.02-.68,3.14,.04,1.93,.01,1.93,1.92,1.81,1.22-.08,1.24-.11,1.31-1.33,0-.18-.1-.63,.21-.49,.47,.22,1.2,.33,1.27,.92,.07,.65,.29,1.02,.87,1.23,.31,.11,.18,.38,.18,.57-.03,.87-.52,1.69-.33,2.59,.05,.22-.15,.58,.15,.65,.36,.08,.65-.18,.86-.48,.08-.11,.13-.25,.15-.38,.09-.5,.54-.78,.83-.56,.28,.21,1.06,.45,.55,1.15-.22,.3-.35,.65-.69,.89-.29,.21-.28,.52,.15,.63,.19,.04,.39,0,.59,.03,.26,.03,.65-.17,.63,.38-.02,.45-.07,.86-.59,.96-.62,.12-2.03-.68-2.28-1.3-.15-.37-.42-.16-.63-.2-.18-.03-.45-.05-.4,.25,.17,1.03-.11,1.9-.78,2.68-.13,.15-.04,.49-.05,.74,0,.2,.07,.45-.03,.58-.78,1-.9,2.24-1.27,3.38-.17,.53-.2,1.09,.27,1.55,.52,.51,.5,1.25,.65,1.86,.24,.98,.45,1.99,.82,2.9,.45,1.09,.88,2.2,1.45,3.23,.29,.53,.57,1.17,1.27,1.34,.19,.05,.57,.21,.56-.23-.04-1.16,.37-2.2,.65-3.29,.2-.78,.42-1.55,.61-2.33,.14-.56,.41-1.13,.22-1.7-.18-.55-.74-.46-1.19-.54-.25-.04-.36-.32-.25-.53,.1-.2,.36-.14,.54-.08,.56,.21,1.26-.17,1.28-.75,.01-.25,.18-.61-.12-.76-.25-.12-.45,.15-.64,.31-.08,.06-.17,.12-.46,.31m-71.25-12.62c-.12-.89-.29-1.79-.24-2.71,.07-1.11-.4-2.08-.94-2.98-.37-.63-.98-1.17-1.87-.65-.27,.16-.6,.16-.88-.01-.43-.27-.9-.22-1.37-.24-1.65-.09-3.26,.33-4.91,.37-1.19,.03-2.36-.28-3.55-.05-.41,.08-.7,.47-1.17,.37-.74-.17-.91,.23-.86,.89,.08,.98-.16,1.88-.72,2.72-.24,.36-.23,.78,.42,1,.88,.3,1.79,.33,2.67,.53,.94,.21,1.82,.71,2.76,.9,1.25,.26,2.43,.69,3.2,1.68,.77,.98,1,2.27,1.28,3.47,.2,.87,.65,1.62,.89,2.45,.06,.22,.27,.17,.43,.16,1.17-.08,2.24-.53,3.31-.98,.35-.15,.32-.5,.28-.81-.05-.36-.35-.15-.53-.22-.21-.07-.56,.19-.62-.2-.03-.23,0-.43,.22-.7,1.18-1.44,2.32-2.93,2.19-4.98m-37.66-.51c.2-.91-.47-1.99-.44-3.17,.01-.41-.15-1.04-.36-1.53-.27-.64-.8-1.01-1.39-1.31-.41-.21-.66,.16-.99,.24-.21,.06-.47,.1-.65-.06-.36-.33-.78-.24-1.19-.25-1.99-.06-3.93,.45-5.93,.36-1.29-.06-2.56-.2-3.89,.25-.86,.29-1.17,.61-1.05,1.38,.12,.81-.13,1.54-.45,2.22-.37,.78-.38,.93,.47,1.19,.71,.22,1.51,.19,2.17,.42,1.08,.38,2.21,.56,3.29,.93,1.04,.35,2.03,.72,2.84,1.52,.82,.81,1.05,1.89,1.24,2.9,.19,.97,.59,1.84,.86,2.76,.18,.6,.74,.78,1.27,.55,.78-.34,1.64-.47,2.39-.9,.34-.19,.66-.36,.58-.8-.09-.48-.49-.24-.75-.26-.24-.02-.46-.05-.57-.27-.15-.32,.17-.4,.31-.56,1.35-1.52,2.22-3.23,2.22-5.58m175.94,35.63c0,.25,0,.42,0,.59,0,1.65,.59,2.29,2.27,2.21,1.82-.08,3.66,.31,5.47-.29,.79-.26,1.72,.23,2.52-.35,.11-.08,.41-.08,.51,.14,.11,.26,.33,.17,.51,.18,.82,.05,1.98-1.18,2.06-2.12,.11-1.31-.32-2.66,.32-3.93l-.07-.46c-.42-.17-.22-.52-.25-.79-.25-1.86,.52-3.66,.33-5.52-.02-.23,.16-.33,.24-.5,.21-.42,.12-.89,.07-1.32-.05-.42-.49-.07-.69-.23-.65-.51-1.49-.55-2.21-.91-.7-.35-1.48-.54-2.3-.42-.31,.05-.56,.13-.44,.48,.38,1.15,.57,2.29-.09,3.41l-.02,.4c.82,1.44,.38,2.24-.41,3.12-1.21,1.35-2.77,2.28-4.49,2.86-.72,.24-1.35,.83-2.23,.56-.31-.1-1.31,1.02-1.2,1.3,.22,.55,.03,1.11,.11,1.58m-141.66,2.82c.64,0,1.2,0,1.76,0,.57,0,.93-.43,1.38-.69,.42-.24-.06-.52,0-.81,.15-.84-.2-1.67-.14-2.5,.14-1.74,.47-3.47,.4-5.23-.02-.53-.16-1.06-.03-1.59,.19-.75,.09-1.37-.62-1.82-.2-.13-.31-.44-.61-.33-.34,.12-.1,.44-.17,.65-.06,.18,.13,.47-.25,.51-.32,.03-.38-.1-.45-.41-.23-.95-.82-1.4-1.48-1.08-.64,.31-1.34,.54-1.91,1.02-.33,.28-.47,.39-.04,.71,.28,.21,.63,.63-.12,.78-.22,.04-.26,.26-.35,.43-.35,.65-.84,1.21-1.34,1.75-2.05,2.22-4.65,3.59-7.46,4.51-.99,.32-1.08,.86-.93,1.59,.12,.58,.21,1.17,.22,1.73,0,.61,.37,1.05,.46,1.59,.06,.32,.35,.47,.64,.3,.8-.48,1.67-.65,2.58-.85,1.24-.27,2.5-.38,3.75-.6,1.62-.28,3.18,.51,4.72,.33m-35.88-11.68c-.54-.02-.66-.3-.63-.76,.02-.31,.14-.7-.31-.86-.57-.21-2.78,.56-3.1,1.09l-.02,.23c.21,.53,.53,.86-.21,1.48-.63,.53-1.04,1.49-1.7,2.12-1.16,1.11-2.44,2.03-3.88,2.79-1.28,.66-2.56,1.27-3.93,1.7-.32,.1-.48,.23-.36,.5,.35,.76,.13,1.55,.17,2.32,.03,.54,.13,1.04,.31,1.55,.21,.62,.71,.7,1.14,.51,.71-.32,1.42-.51,2.17-.7,1.3-.33,2.62-.45,3.92-.57,1-.09,2.03-.12,3.09,.23,.91,.31,2.01,0,3.01,.09,.76,.06,1.31-.35,1.77-.76,.37-.33,.14-.91-.2-1.32v-.33c.11-1.26,0-2.5,.23-3.79,.32-1.83,.13-3.75,.06-5.63-.02-.59-.54-1.14-1.16-1.12-.63,.03-.19,.68-.33,1.03l-.05,.22m-96.79-30.53c0,.44,0,.81,0,1.17,.02,.87,.56,1.4,1.42,1.4,.97,0,1.93,.11,2.88,.33,1.35,.31,2.65,.67,3.83,1.48,1.07,.73,1.85,1.59,2.34,2.8,.5,1.21,.86,2.5,1.76,3.53,.48,.54,.93,.42,1.33,.08,.89-.75,1.7-1.59,2.59-2.33,.38-.31,.55-.61,.54-1.09-.02-1.74,0-3.48,0-5.22,0-.19,.1-.45-.1-.54-.4-.2-.21-.44-.11-.69,.54-1.36,.03-2.32-1.33-2.92-1.01-.45-1.9-.12-2.88,0-2.16,.26-4.31-.18-6.45-.46-1.28-.17-2.52-.12-3.76,.15-.48,.11-.99,.18-1.43,.38-.9,.42-.61,1.29-.65,1.95m314.6,50.18c0-.39-.03-.79,0-1.18,.05-.55-.25-.59-.67-.56-.4,.03-.89-.14-.83,.58,.05,.53,0,1.07,.03,1.6,.02,.63-.23,.62-.7,.37-.86-.46-2.72-.19-3.21,.98-.46,1.12-.86,2.16-.52,3.44,.38,1.41,1.26,2.27,2.7,2.32,.81,.03,1.6-.38,2.45-.03,.45,.18,.63-.27,.67-.73,.18-2.27-.03-4.53,.07-6.8m-87.85,2.96h0c0-1.38-.03-2.75,.01-4.13,.02-.57-.17-.63-.67-.61-.52,.02-.7,.2-.69,.69,0,.48-.01,.95,0,1.43,0,.45-.09,.56-.59,.4-1.71-.55-3.43,.27-3.74,1.82-.16,.78-.12,1.62-.06,2.43,.18,2.52,2.03,2.89,3.96,2.4,.31-.08,.48-.31,.84,.07,.37,.4,.94,.03,.94-.55,0-1.32,0-2.64,0-3.96m59.75,1.32c.13-.77-.02-1.68-.23-2.58-.08-.34-.21-.57-.56-.75-1.08-.53-2.16-.35-3.25-.15-.68,.13-1.23,.45-1.54,1.13-.14,.29-.33,.71-.1,.81,.41,.18,1.23,.27,1.32-.05,.32-1.17,1.19-.85,1.92-.87,.46-.01,.91,.27,1,.69,.1,.49-.3,.74-.8,.86-.3,.07-.61,.07-.89,.14-1.1,.28-2.51,.01-2.73,1.79-.1,.83,.1,1.91,.88,2.11,.95,.24,1.94,.3,2.87-.09,.39-.16,.68-.31,1.03,.08,.27,.3,.71,.21,1.03,.1,.38-.13,.26-.55,.18-.81-.22-.75-.14-1.5-.14-2.42m-77.61,.35h-.02c0-.7,.02-1.41,0-2.11-.02-.56-.14-1.25-.59-1.46-1.35-.64-2.79-.63-4.16,0-.31,.14-.7,.34-.81,.79-.08,.33-.43,.8-.01,.94,.41,.14,1.14,.29,1.37-.22,.35-.77,.88-.8,1.55-.77,.54,.03,1.07,0,1.15,.75,.09,.86-.56,.88-1.09,.92-.61,.05-1.23,.03-1.83,.2-1.03,.28-1.51,.93-1.52,2.02-.01,1.05,.3,1.67,1.16,1.78,.97,.12,2,.35,2.93-.31,.22-.16,.51-.33,.7,.16,.19,.47,.69,.22,1.03,.19,.4-.03,.15-.39,.15-.61v-2.28m-17.4-.18c0-.75,.01-1.37,0-1.99-.03-.89-.78-1.76-1.62-1.83-.5-.04-1.03-.09-1.51,0-.93,.19-1.96,.24-2.41,1.34-.12,.3-.32,.69,.02,.79,.38,.11,1.09,.4,1.22-.03,.38-1.22,1.29-.94,2.1-.93,.5,.01,.73,.46,.84,.87,.12,.48-.29,.54-.66,.64-.95,.27-1.98,.09-2.89,.64-.66,.4-1.09,1.11-1,1.91,.12,1.02,.49,1.52,1.46,1.61,.93,.09,1.9,.23,2.79-.31,.24-.15,.48-.34,.7,.15,.18,.39,.71,.17,1.07,.15,.26-.01,.28-.33,.19-.47-.54-.86-.19-1.8-.3-2.57m112.38,.41h0c0-.37,0-.73,0-1.1,0-.37,0-.73-.01-1.1-.05-1.27-.74-1.99-1.99-2.03-.72-.03-1.45-.05-2.16,.15-.74,.2-1.22,.66-1.51,1.32-.17,.39-.2,.79,.47,.72,.42-.04,.82,.11,.91-.6,.06-.46,1.86-.58,2.36-.26,.36,.24,.45,.54,.4,.93-.05,.43-.4,.38-.68,.47-.8,.24-1.64,.09-2.45,.42-1.14,.46-1.72,2.09-.97,3.1,.49,.68,2.42,.95,3.33,.46,.43-.24,.78-.52,1.2,.08,.19,.27,.71,.16,1.03,.06,.28-.09,.09-.45,.09-.69,0-.65,0-1.29,0-1.94m21.26-1.29c0-.63-.02-1.11,0-1.59,.02-.58-.22-.88-.78-1.12-.85-.36-1.74-.35-2.56-.19-.74,.14-1.67,.28-1.99,1.25-.1,.31-.32,.75,.05,.84,.36,.09,1.03,.44,1.21-.1,.37-1.16,1.21-.86,2.01-.87,.56,0,.63,.38,.69,.75,.06,.38-.05,.66-.53,.79-.76,.21-1.54,.12-2.3,.31-.79,.2-1.67,1.23-1.66,2.05,0,.79,.68,1.76,1.43,1.8,.96,.05,1.98,.3,2.85-.35,.31-.23,.41-.07,.58,.16,.28,.38,.74,.27,1.09,.2,.42-.09,.22-.52,.2-.78-.07-1.11-.52-2.18-.31-3.17m-72.34,3.97c1.3,.04,2.34-.21,2.94-1.48,.16-.34,.32-.74,.07-.81-.43-.12-1.1-.36-1.35,.22-.37,.88-1.06,.95-1.79,.89-.69-.05-1.14-.49-1.36-1.17-.16-.48-.12-.72,.48-.7,.95,.03,1.91,.02,2.86,0,1.43-.02,1.45-.08,1.32-1.49-.03-.3-.27-.39-.35-.63-.73-2.37-4.03-2.14-5.23-.69-.9,1.09-.91,3.42-.25,4.61,.59,1.06,1.6,1.28,2.65,1.23m-17.29-3.04v.03c.39,0,.78,.01,1.17,0,1.29-.05,1.56-.41,1.2-1.67-.06-.21-.21-.39-.29-.59-.72-1.82-3.49-2.24-4.91-.88-.81,.78-.99,1.71-.98,2.62,0,.72-.05,1.53,.41,2.25,.79,1.25,1.96,1.23,3.23,1.29,1.21,.06,2.14-.85,2.49-1.84,.06-.18,.15-.38-.06-.53-.24-.17-1.49,.03-1.54,.3-.25,1.18-1.15,.82-1.87,.83-.47,0-1.23-.97-1.13-1.55,.1-.63,.67-.2,1.02-.27,.4-.08,.84-.02,1.26-.02m27.85,3.04c.22,0,.45,0,.67,0,.85-.01,1.92-.77,2.04-1.45,.25-1.39-.09-2.11-1.36-2.46-.75-.21-1.54-.29-2.26-.64-.24-.12-.45-.12-.45-.45,0-.3,.08-.57,.33-.71,.56-.3,1.65,.06,1.96,.68,.28,.56,.74,.25,1.11,.28,.43,.03,.31-.36,.34-.62,.06-.49-.19-.78-.56-1.04-.98-.68-3.03-.7-4.02-.03-.67,.46-.69,2.19-.07,2.74,.83,.73,1.91,.76,2.89,1.09,.32,.11,.56,.19,.59,.58,.03,.43-.19,.69-.54,.82-1.01,.38-1.6,.19-2.11-.79-.19-.37-.38-.43-.7-.38-.76,.12-.93,.77-.41,1.51,.65,.92,1.61,.86,2.56,.86m-85.19,0c.46,0,.77,0,1.08,0,.79-.03,1.76-.67,1.78-1.27,.07-1.68,.28-2.06-1.15-2.56-.78-.27-1.57-.53-2.37-.77-.65-.2-.45-.58-.19-.94,.31-.43,1.84-.26,1.98,.24,.12,.43,.31,.65,.75,.57,.22-.04,.53,.17,.66-.17,.15-.41,.15-.8-.12-1.19-.61-.91-2.98-1.15-4.15-.4-.71,.46-.85,1.09-.79,1.8,.06,.65,.42,1.19,1.06,1.36,.8,.21,1.57,.51,2.36,.77,.28,.09,.59-.03,.62,.46,.03,.45-.13,.76-.51,.83-.51,.1-1.06,.1-1.58,.06-.37-.03-.35-.45-.5-.71-.34-.6-.91-.59-1.36-.33-.46,.26-.19,.74,0,1.12,.55,1.07,1.5,1.23,2.41,1.12m92.5-3.44c-.22,.97,.12,1.82,.62,2.56,1.01,1.5,3.98,1.17,4.97-.52,.23-.4,.53-.97-.06-1.23-.46-.2-1.05-.15-1.22,.6-.23,.99-1.07,.93-1.81,.84-.57-.07-.76-.61-1.02-1.07-.47-.82-.23-1.55,0-2.37,.18-.68,.57-1.02,1.17-1.11,.68-.09,1.31-.06,1.56,.84,.19,.69,.88,.42,1.29,.27,.42-.15,.29-.59,.09-.93-.75-1.24-2.03-1.81-3.39-1.34-.67,.23-1.43,.48-1.76,1.23-.31,.71-.63,1.42-.42,2.21m-72.58-1.22c0-1.35,0-2.7,0-4.05,0-.36,.04-.7-.49-.62-.38,.06-.87-.14-.9,.56-.1,2.73-.1,5.45,0,8.17,.02,.68,.42,.56,.84,.59,.58,.05,.55-.3,.55-.69,0-1.32,0-2.64,0-3.96m94.99,.09c0-1.4,0-2.8,0-4.21,0-.4-.17-.57-.56-.53-.31,.03-.59-.07-.68,.46-.14,.75-.16,1.49-.15,2.24,.02,2.01-.07,4.03,.07,6.04,.04,.6,.37,.55,.78,.57,.49,.02,.54-.24,.54-.63-.01-1.32,0-2.64,0-3.95m-83.49-14.55c-.15,.8,.22,1.39,.62,1.98,.45,.68,.93,.81,1.64,.41,.15-.09,.29-.17,.46-.15,.56,.09,.59-.34,.45-.61-.58-1.12-1.19-2.23-1.87-3.29-.18-.29-.82-.31-.93,.06-.16,.53-.63,1.01-.36,1.6m113.15,11.5c.62,.17,1.21,0,1.6-.6,.21-.33,.3-.8-.02-1.05-.23-.18-.59-.04-.84,.29-.51,.67-1.23,.61-1.69-.1-.24-.37-.6-.3-.88-.21-.32,.1-.14,.41-.09,.65,.24,1.01,.97,1.16,1.91,1.02m-116.82,.03c.39,0,.65,.05,.89-.01,.6-.16,1.25-.33,1.23-1.16,0-.18,.16-.51-.22-.51-.21,0-.44-.1-.65,.19-.66,.91-1.15,.91-1.81,.07-.25-.32-.57-.41-.88-.28-.33,.15-.17,.48-.09,.74,.25,.85,.83,1.11,1.53,.97"/>
    <path class="cls-2" d="M27.23,180.43c.67-.28,.88-.99,1.3-1.48,1.43-1.7,2.15-1.98,4.28-1.48,1.55,.36,3.13,.64,4.72,.73,1.1,.06,2.22-.18,3.34-.13,.43,.02,.89-.11,1.28,.24,.17,.15,.35,0,.54-.08,.77-.37,1.41-.15,1.94,.52,.49,.63,.69,1.28,.68,2.08-.03,5,.03,10.01-.05,15.01-.02,1,.4,1.24,1.16,1.27,1.15,.04,2.31,.08,3.46,0,1.04-.08,2.08-.22,3.04-.71,.47-.24,.95,0,1.4,.08,1.02,.18,2.08,.24,2.94,.97,.13,.11,.26,.21,.3,.36,.54,1.84,.51,3.64-.35,5.39-.24,.48-.55,.78-1.15,.71-.93-.12-1.86,.14-2.77-.59-.45-.36-1.57-.41-2.18,.29-.6,.67-1.35,.8-2.14,.71-.93-.11-1.84,.14-2.77,.09-.39-.02-.6,.15-.56,.54,.22,2.21-.52,4.37-.35,6.58,.08,1.01,.02,2.02,0,3.04,0,.35,.09,.7-.24,1.02-.17,.17-.24,.44,.21,.67,.9,.47,1.71,1.07,2.72,1.35,.48,.13,.45,.71,.31,1.08-.15,.42-.15,.83-.13,1.24,.06,1.24-.7,2.65-2.22,2.83-1.51,.18-2.99,.59-4.57,.1-.87-.27-1.9-.03-2.85-.06-1.66-.04-3.32-.03-4.96-.2-.73-.08-1.61-.21-2.01-1.07-.08-.17-.24-.2-.37-.3-1.06-.78-1.43-1.97-.93-3.22,.2-.51-.25-.85-.18-1.34,.07-.46,.08-.87,.48-1.17,.45-.34,.57-.8,.43-1.33-.67-2.57,.05-5.05,.56-7.53,.09-.42,.19-.82,.38-1.23,.3-.67,.72-1.07,1.42-1.14,.35-.04,.4-.29,.45-.5,.04-.16,.17-.45-.19-.54-2.86-.73-2.55-3.11-2.58-5.19-.05-4.44-.13-8.88,.06-13.32,.04-.92-.13-1.04-1.02-.7-.62,.24-1.28,.05-1.9,.28-.28,.1-.5-.2-.54-.42-.04-.27-.21-.29-.39-.37v-3.04Zm10.02,23.94c-.62,.06-1.04-.13-1.41-.54-.22-.25-.6-.43-.98-.23-.17,.09-.56,.23-.35,.42,.22,.2,.17,.68,.53,.62,.42-.06,.67-.13,1.02,.31,.25,.33,.49,.74,.55,1.02,.11,.54,.12,.94,.79,.77,.48-.12,.89,.35,1.24,.23,1.03-.35,1.37-.35,1.88,.53,.22,.38,.6,.28,.64,.17,.16-.42,.89-.42,.73-1.01-.14-.55-.63-.15-.92-.31-.17-.09-.38-.1-.56-.17-.18-.07-.28-.28-.18-.41,.57-.79,.7-1.9,1.84-2.27,.58-.19,.77-.69,.69-1.32-.07-.57-.36-.75-.89-.68-.14,.02-.26-.03-.3-.21-.09-.45-.37-.42-.55-.11-.31,.52-.69,.28-1.07,.17-.25,1.09,.03,2.1,.26,3.13,.09,.38-.02,.63-.51,.59-.38-.04-.75,.04-.67-.54,.04-.25,0-.5,0-.78-.26,.09-.62,.01-.64,.31-.03,.46-.54,.83-.18,1.36,.16,.23,.14,.59-.11,.77-.27,.18-.51-.08-.74-.21-.71-.43-.37-.97-.11-1.6m3.65,10.53c-.04-.91-.64-1.64-1.44-1.95-.53-.21-1.37-.22-1.1-1.22,.08-.29-.21-.26-.4-.26-.19,0-.3,.04-.27,.29,.04,.36,0,.73,.01,1.09,0,.38,.14,.86-.32,1.02-.65,.22-.75,.36-.41,1.09,.46,.99,1.39,1.92,2.51,1.92,.24,0,.33-.05,.44-.33,.16-.46,.11-1.15,.88-1.2,.37-.03,0-.31,.1-.44m2.87-23.11c0-.57,.02-1.06,0-1.55,0-.18,.16-.48-.21-.52-.11-.01-1.07,1.24-1.11,1.42-.06,.26,.11,.3,.28,.26,.4-.1,.63,.23,1.05,.4m-9.74,24.23c.55,.05,.92,.02,.96-.53,.03-.38-.25-.34-.44-.29-.37,.09-.91,.01-.99,.51-.08,.44,.36,.29,.47,.31m.29-3.93h1.15c-.37-.34-.62-.58-.89-.83-.09,.3-.17,.54-.26,.83m3.02-7.87c-.02-.38,.12-.72-.24-1.22-.1,.54-.16,.85,.24,1.22"/>
    <path class="cls-2" d="M372.76,215.86c-.3,.05-.35,.25-.34,.52,.02,.81-.03,1.63,.01,2.44,.06,1.03-.45,1.79-1.17,2.41-.4,.35-.93,.73-1.47,.07-.07-.09-.33-.08-.48-.04-1.74,.46-3.52,.67-5.32,.66-.93,0-1.85,0-2.78,0-1.6,0-2.45-.85-2.45-2.46,0-.31,.07-.64-.01-.92-.31-1.08,.6-1.57,1.06-2.27l.3-.08c1.59,.22,2.81-.73,4.11-1.36,1.19-.58,2.33-1.34,2.99-2.54,.41-.75,.89-1.57,.22-2.49-.16-.22-.12-.69,0-.98,.33-.85,.46-1.63-.02-2.5-.25-.46-.02-.87,.64-.94,.84-.09,1.55,.26,2.29,.52,.81,.29,1.62,.56,2.43,.84v4.22c-.21,.07-.36,.11-.35,.42,.03,1.08,.02,2.16,.01,3.24,0,.24,0,.46,.34,.38v.84Z"/>
    <path class="cls-1" d="M372.76,215.01c-.34,.08-.34-.14-.34-.38,0-1.08,.02-2.16-.01-3.24,0-.31,.14-.36,.35-.42v4.05Z"/>
    <path class="cls-2" d="M205.65,185.4c-.41,.53-.69,.98-1.3,1.03-.21,.02-.38,.27-.5,.52-.4,.78-1.47,1.16-2.28,.85-.35-.13-.62-.34-.55-.8,.04-.27-.02-.56,.01-.84,.08-.77,.04-1.41-1.02-1.17-.23,.05-.35-.13-.5-.24-.97-.7-2.62,.03-2.73,1.43-.05,.65-.25,1.33-.55,1.95-.24,.49-.08,1.05-.08,1.58,0,.39-.1,.52-.51,.53-.98,.03-1.88-.18-2.75-.61-.33-.16-.84-.32-.81,.45,.04,1.12-.28,2.35,.08,3.35,.49,1.35,.07,2.8,.75,4.06v.17c-.23,1.85,.24,3.67,.42,5.49,.34,3.48,.29,6.96,.24,10.44-.02,1.45-.33,2.91-.57,4.36-.31,1.79-.95,3.45-1.62,5.09-.46,1.13-1.3,2.08-2.22,2.89-.57,.51-1.28,.86-1.91,1.3-.28,.19-.67,.26-.81,0-.14-.27,.14-.42,.47-.58,1.26-.65,2.26-1.64,2.97-2.86,.49-.84,1.1-1.64,1.36-2.59,.16-.6,.34-1.21,.56-1.76,.33-.86,.03-1.83,.59-2.6l.04-.25c.44-3.7,.51-7.44,.25-11.14-.11-1.48,.08-3.03-.3-4.44-.34-1.28,.06-2.61-.34-3.76-.45-1.28,.11-2.59-.34-3.71-.39-.97-.09-1.89-.28-2.8-.12-.56,.08-1.2,.41-1.36,.97-.46,.29-1.54,.93-2.07,.06-.05,.07-.29-.12-.42-1.11-.77-1.24-2.01-1.57-3.18-.23-.82-.65-1.59-1.04-2.35-.13-.26-.15-.49-.07-.71,.52-1.48,.76-3.08,.32-4.51-.62-1.99-.72-3.96-.7-5.99,.03-2.95,1.14-5.5,3.53-7.13,1.84-1.25,3.06-2.94,4.39-4.58,1-1.23,2.16-2.3,3.44-3.23,.45-.32,.93-.61,.97-1.28,.02-.35,.39-.47,.68-.41,.61,.12,.99-.17,1.3-.6,.32-.43,.51-.97,1.25-.46,.34,.23,.83-.23,1.2-.38,1.02-.41,2.06-.83,3.1-.55,1.06,.29,2.22,0,3.21,.61h.33c1.02-.72,2.06,.12,3.05-.01,2.67-.35,5.35-.29,8.02-.31,.81,0,1.09,.36,1.35,1.15,.28,.84,.19,1.64,.29,2.46,.1,.82-.36,1.19-1,1.46-.87,.38-1.72,.83-2.63,1.11-.53,.16-.5,.46-.4,.79,.43,1.43,.46,2.93,.8,4.38,.33,1.41,.45,2.87,.75,4.27,.45,2.05,.87,4.11,1.32,6.16,.18,.82,.31,1.69,.54,2.47,.34,1.19,.43,2.44,.89,3.61,.21,.53,.23,1.22,.39,1.83,.23,.87,.25,1.8,.64,2.64,.2,.43,.33,1.08,.29,1.38-.11,.87,.39,1.56,.62,2.2,.25,.7,.12,1.47,.57,2.15,.27,.41,.34,1.11,.37,1.64,.04,.71,.27,1.4,.46,2,.49,1.53,.63,3.16,1.37,4.62,.24,.48,.2,1.17,.42,1.73,.4,1.04,.56,2.14,.91,3.19,.29,.88,.58,1.8,.78,2.73,.22,1.01,.73,1.95,.87,2.98l.03,.08c.89,1.27,.77,2.41-.01,3.8-.8,1.42-1.35,2.96-1.61,4.62-.18,1.19-.19,2.46-.7,3.56-.27,.59-1.02,1.16-1.71,1.12-2.3-.15-4.55,.43-6.84,.4-.81-.01-1.04-.47-1.16-1.06-.12-.57-.26-1.18-.43-1.7-.31-.92-.69-1.85-.91-2.79-.2-.87-.35-1.78-.61-2.61-.19-.6-.15-1.26-.49-1.86-.3-.52-.15-1.25-.44-1.86-.37-.78-.4-1.68-.61-2.51-.16-.64-.35-1.34-.45-2.03-.12-.82-.48-1.61-.73-2.42l-.07-.32c0-1-.47-1.9-.61-2.84-.11-.77-.24-1.59-.47-2.29-.26-.77-.3-1.59-.51-2.36-.23-.85-.54-1.74-.6-2.65-.03-.42-.18-.67-.61-.59-1.49,.27-2.47-.67-3.4-1.53-.74-.68-1.52-1.34-2.34-1.89-.52-.35-.86-.81-1-1.25-.2-.61-.6-.85-1.02-1.21-.29-.25-.62-.55-.68-1.14m-5.65-13.97c.65-.33,1.13-.68,1.66-.81,1.07-.27,1.86-1.46,3.21-.84,.64,.29,1.02,.6,1.04,1.31,.03,1.15-.24,2.27-.33,3.4-.14,1.79,.28,3.57,.16,5.37-.01,.18-.05,.39,.26,.41,1.25,.07,2.17,1.06,3.47,1.12,1.36,.06,1.87,1.47,2.78,2.27,.15,.13-.07,.56,.31,.45,.37-.11,.16-.45,.08-.63-.48-1.09-.38-2.3-.74-3.43-.35-1.11-.42-2.31-.74-3.46-.3-1.08-.47-2.22-.66-3.33-.21-1.21-.48-2.41-.67-3.61-.2-1.19-.54-2.31-.82-3.46-.29-1.2-.47-2.45-.7-3.68-.22-1.2-.56-2.4-.65-3.58-.08-1.08-.57-.96-1.24-.94-.25,0-.51,0-.76,0-.81,0-1.69-.36-1.85,1.06-.12,.99-.57,1.98-.9,2.96-.3,.88-.48,1.86-.79,2.73-.34,.95-.55,1.93-.9,2.88-.32,.85-.32,1.86-.93,2.55-.36,.41-.23,.72-.29,1.25m-3.01-8.1c.15,.02,.28,.04,.41,.06,.55,.11,1.77,1.48,1.56,1.86-.46,.84-.55,1.92-1.57,2.46-.24,.13-.62,.51-.61,1,.03,1.23,.02,2.47,0,3.71,0,.44,.3,.66,.58,.86,.31,.22,.49-.1,.69-.29,.58-.52,1.08-.97,1.36-1.85,.34-1.09,.88-2.19,1.2-3.3,.34-1.17,.67-2.34,1.01-3.52,.41-1.42,.9-2.82,1.2-4.26,.19-.92,.47-1.82,.78-2.69,.19-.55,.24-.96,.11-1.53-.19-.85-.56-.54-1-.31-.52,.27-.46,.88-.75,1.29-.63,.87-1.33,1.72-1.83,2.67-.3,.57-.53,1.04-1.09,1.5-.77,.62-1.82,1.13-2.06,2.33m-.47,21.71c-.12-.81-.62-.59-.99-.48-.65,.19-1.08,.13-.91-.68,.17-.79-.51-1.21-.71-1.83-.07-.22-.36-.14-.52-.09-.2,.06-.07,.29-.13,.43-.15,.37,.31,.36,.36,.65,.26,1.36,1.13,2.5,1.4,3.87,.04,.19,.23,.38,.48,.43,.34,.07,.33-.25,.42-.41,.35-.61,.11-1.39,.62-1.9m27.03,14.97c-.18,.16-.09,.37-.09,.55,0,.31,.18,.46,.48,.44,.17-.01,.42,.12,.5-.13,.09-.29-.22-.35-.37-.5-.15-.14-.25-.39-.52-.35m-8.02-40.75c.77,.07,1.05-.22,.87-.94-.28,.31-.55,.6-.87,.94m10.59,57.59c.22-.28,.71-.4,.51-.9-.05-.13-.15-.09-.27-.05-.5,.18-.4,.55-.25,.95"/>
    <path class="cls-2" d="M296.81,219.72c-.29,.09-.48,.15-.65,.37-.98,1.19-2.2,1.56-3.57,.97-.5-.21-.74-.05-1.04,.21-.41,.35-.87,.54-1.4,.68-2.29,.59-4.66,.08-6.96,.59-1.65,.37-2.37-.14-3.24-1.68-.35-.63-.51-1.3-.76-1.95-.19-.48-.19-1.06,.51-1.43,.82-.44,1.63-.92,2.33-1.56,.84-.76,.96-1.08,.29-1.99-.54-.72-.62-1.61-.98-2.39-.5-1.09-.89-2.25-1.28-3.38-.39-1.16-.98-2.24-1.35-3.42-.33-1.05-.82-2.12-1.17-3.16-.4-1.2-1.08-2.3-1.31-3.57-.14-.77-.56-1.5-.89-2.23-.16-.36-.24-.77-.35-1.13-.49-1.54-1.21-2.99-1.64-4.56-.35-1.29-.9-2.53-1.36-3.8-.27-.75-.6-1.5-.9-2.24-.46-1.12-1.6-1.56-2.63-2.07-.26-.13-.72,.17-.77-.29-.04-.48-.21-1.03,.11-1.46,.25-.35,.29-.52-.05-.88-.36-.38,.19-1.55,.85-1.95,.58-.35,1.16-.56,1.89-.55,3.12,.05,6.24-.06,9.36,.05,2.36,.09,4.33,1.13,5.77,3.06,.09,.12,.1,.32,.09,.47-.04,.84-.73,1.33-1.15,1.95-.12,.18-.76,.23-.72-.47,.02-.38,.08-.76-.13-1.18-.4-.81-1.07-.4-1.62-.49-.62-.1-1.15-.02-1.35,.73-.1,.4-.23,.74,.22,1.07,.5,.37,.66,1.04,1.14,1.48,.39,.36,0,.92-.57,.93-.9,.02-1.46,.47-1.56,1.25-.03,.28,.15,.24,.33,.32,.67,.31,1.44,.16,2.12,.57,.94,.56,1.6,1.27,1.93,2.3,.06,.18,.1,.38,.21,.53,.1,.14,.06,.46,.33,.4,.25-.06,.15-.31,.15-.49-.01-.83,.6-1.27,1.17-1.64,.52-.33,1.04,.09,1.36,.65,.61,1.06,1.12,2.16,1.45,3.32,.24,.83,.58,1.62,.77,2.48,.31,1.4,.86,2.75,1,4.21,.06,.61,.51,1.18,.75,1.79,.34,.86,.76,1.68,1.11,2.53,.47,1.14,.78,2.34,1.21,3.5,.31,.83,.5,1.75,.79,2.61,.23,.69,.15,1.49,.76,2.05,.17,.16,.16,.52-.03,.7-.19,.18-.46,.15-.67-.08-.32-.35-.81-.51-.78-1.17,.05-.91-.95-1.45-1.86-1.1-1.33,.51-1.24,1.28-.52,2.55,.13,.23,.21,.54,.46,.78,.37,.36-.11,.97-.83,1.12-.62,.12-1.15,1.1-.73,1.52,.32,.32,.92,.4,1.41,.49,.78,.15,1.45,.54,2.15,.86,.25,.11,.29,.31,.28,.55,0,.42,.04,.85-.01,1.26-.09,.68,.48,.59,.81,.69,.45,.15,.31-.27,.39-.51,.22-.61,.77-.96,1.27-1.3,.2-.13,.63-.13,.58,.39-.03,.37,.03,.71,.57,.46,.3-.14,.94,.15,.65-.66-.2-.56-.08-1.02,.73-.91,.5,.07,1.01-.02,1.52,.02,.61,.05,.81-.22,.75-.79-.03-.33-.03-.68,0-1.01,.55-6.4,.34-12.81,.27-19.21-.01-1.12-.53-2.37-.21-3.43,.44-1.46,.08-2.89,.3-4.31,.09-.54-.59-.89-.32-1.31,.27-.43,.94,.06,1.31-.25,.45-.38,1.03-.27,1.53-.53,.55-.29,.64-.61,.33-1-.51-.64-.85-1.5-2.02-1.26-1.28,.27-2.53-.19-3.77-.47-.34-.08-.42-.34-.43-.61-.05-.98,.02-1.96,.26-2.9,.21-.87,.96-1.32,1.67-1.71,1.36-.75,2.87-.56,4.33-.48,.47,.02,.95,.45,1.37,.77,.51,.38,.86,.19,1.11-.25,.12-.2,.25-.37,.41-.5h.38c.18,.1-.04,.22-.04,.33-.02,.35-.68,.57-.29,.91,.35,.3,.75,.64,1.33,.56,.51-.07,.81-.26,.76-.78-.06-.63,.31-.75,.8-.75,.96,0,1.91,0,2.87,0,1,0,1.98-.15,2.96-.32,.95-.17,1.73,.36,2.56,.65,.15,.05,.3,.19,.24,.39-.3,1.02-.1,2.06-.13,3.08,0,.4-.14,.6-.48,.74-.77,.32-1.53,.69-2.32,.95-.37,.12-.62,.16-.64,.63-.01,.26-.3,.3-.6,.22-1.46-.35-1.78-.14-2.05,1.31-.03,.14-.07,.25-.16,.37-.32,.38-.31,.59,.25,.8,.68,.25,1.19,.86,1.96,.97,.24,.03,.15,.27,.15,.41,0,2.67,.1,5.35-.07,8.01-.04,.68,.08,1.3,.07,1.94-.02,1.06-.21,2.11,0,3.17,.22,1.06-.49,2.02-.35,3.07,.03,.27-.38,.35-.38,.68,0,.14-.2,.37-.09,.46,.94,.8,.48,1.86,.46,2.79-.04,1.7,.5,3.34,.43,5.06-.03,.61,.33,1.37,.76,1.95,.22,.29,.48,.52,.92,.47,.39-.05,.81-.1,1.17,.01,.49,.16,1.13,.16,1,1.1-.15,1.13-.09,2.3-.02,3.45,.04,.71-.39,1.15-.85,1.28-.94,.28-1.89,.57-2.87,.78-3.44,.73-6.93,.42-10.37,.83-1.59,.19-3.18-.1-4.75,.28-.66,.16-.58-.63-.92-.91l-.09-.39c-.28-.49-.46-.57-1.19-.55q-1.23,.03-1.26-1.19c0-.08-.02-.17-.03-.34m14.86-26.57c-.03-1.01-.32-1.68-1-2.33-.29-.27-.59-.4-.95-.11-.53,.43-1.07,.86-1.59,1.29-.21,.17-.21,.39-.04,.59,.4,.49,.6,1.35,1.56,.84,.12-.07,.35-.05,.56,.17,.42,.44,.83-.1,1.26-.18,.18-.03,.23-.11,.21-.27m-26.16,4.3c0-.39-.47-.81,.1-.95,.23-.06,1.05-.46,.79,.51-.03,.13,.1,.16,.22,.17,.22,.02,1.12-.85,1.11-1.09,0-.11,.03-.26-.1-.28-.73-.12-1.29-.61-1.96-.84-.31-.11-.62,0-.64,.43-.02,.33,0,.67-.28,.93-.31,.29-.31,.74-.18,1.01,.15,.32,.59,.1,.94,.12m-2.71-3.29c.41-.46,.65-.68,1.01-.75,.42-.08,.6-.8,.24-1.03-.6-.37-1.21-.85-2.15-.53,.77,.54,1.11,1.21,.9,2.31m2.91,11.17c-.11-.28-.32-.61-.46-.95-.19-.42-.58,.04-.88,.06-.18,.01-.33,.33-.5,.52,.41,.32,.79,.7,1.25,.93,.19,.1,.6-.05,.6-.55m24.81-23.64c-.07,.52-.01,1.01,.52,1.09,.29,.04,.78-.03,.93-.36,.28-.62-.55-.55-.69-.93l-.15-.05c-.19-.08-.28-.42-.54-.29-.26,.13,0,.4-.06,.54m-25.05,10.42q.59-.59,.37-1.03c-.21,.29-.69,.47-.37,1.03"/>
    <path class="cls-2" d="M155.43,221.63c.18,1-.43,1.21-.98,1.29-.55,.08-1.34,.56-1.55-.53-.04-.18-.37-.19-.49,0-.81,1.23-1.92,.71-2.88,.4-1.63-.51-2.4-1.63-2.58-3.44-.11-1.19,.31-1.19,1.14-1.34,1.26-.24,1.65-.97,1.41-2.22-.39-2.02-.47-4.06,.03-6.07,.24-.98-.13-1.92-.39-2.77-.41-1.38-.25-2.72-.22-4.07,.02-1.1,.03-2.22,.29-3.31,.05-.22,0-.43,.35-.42,.76,.03,.35-.53,.21-.64-.86-.7-.94-1.61-.9-2.63,.07-1.81,.09-3.62,.23-5.44,.08-1.01,.06-2.05,.12-3.08,.02-.23-.16-.54,.15-.67,.28-.11,.5,.05,.74,.24,.49,.39,1.05,.7,1.56,1.06,.47,.33,.69,.17,.75-.35,.03-.28,.04-.56,.07-.84q.15-1.66-1.51-1.49c-.13,.01-.35-.04-.36,.1-.04,.3,.05,.74-.44,.52-.34-.16-.68-.45-.62-.97,.05-.5-.03-1.02,.02-1.52,.07-.65-.25-.85-.82-.83h-.34c-.46,.06-1.11,.33-1.31-.12-.22-.51-.21-1.2,.09-1.78,.54-1.02,1.05-2.05,1.36-3.17,.09-.33,.36-.39,.66-.35,.66,.07,1.34,.12,1.99,.15,2.19,.1,4.39,.16,6.57,0,1.72-.13,3.45-.02,5.16-.3,.89-.15,1.02,.43,1.13,1.1,.13,.87,.25,1.74,.63,2.57,.15,.33,.01,.78,.05,1.17,.2,2.38-.54,4.7-.36,7.08,.04,.48-.57,.93-.31,1.42,.7,1.27-.03,2.73,.61,4.03,.24,.5,.08,1.22,.04,1.83-.05,.64,.14,.91,.84,.88,1.32-.05,2.64-.05,3.96,0,.54,.02,.92-.36,1.43-.36,1.12,0,2.17,.23,3.23,.62,.56,.21,1.23,.09,1.82,.38,.34,.17,.97-.21,1.02,.51,.05,.72,.15,1.48-.7,1.9-.87,.43-1.74,.84-2.71,.99-1.05,.16-1.23,.65-.59,1.51,.24,.32,.5,.76,.26,1.08-.22,.28-.67-.07-.97-.07-.63,0-1.24-.17-1.86-.17-1.57,0-3.15,.02-4.72,0-.41,0-.74,.16-1.09,.32-.36,.16-.35,.4-.09,.52,.42,.18,.27,.41,.25,.73-.07,1.03-.06,2.08-.06,3.11,0,1.47-.71,2.94-.3,4.38,.52,1.8,.36,3.61,.24,5.39-.1,1.59-.37,3.26-1.51,4.57-.63,.72-1.55,.54-2.19,.33-1.28-.42-2.54-.21-3.8-.27-1.04-.05-1.05,0-1.76-.98m9.98-20.63c0-.34,0-.67,0-1.01,0-.18-.04-.28-.26-.34-1.14-.28-2.01,.12-2.43,1.19-.15,.39-.32,.83-.14,1.21,.15,.31,.56,.07,.85,.14l.16,.03c1.32,.44,1.82,.1,1.82-1.22m-6.16,8.44c1.28,.06,2.15-.38,1.95-1.5-.1-.53-.54-.75-.84-1.08-.49-.51-1.45-.36-1.63,.3-.12,.42-.29,.82-.38,1.24-.2,.89-.07,1.02,.91,1.03m-7.24-6.2c.45-.09,.71,0,1.01-.23,.67-.53,.61-1.2,.54-1.89-.02-.18-1.83-.89-2.02-.76-.63,.43-.29,1.31-.8,1.83-.1,.1-.11,.44,.16,.57,.4,.2,.72,.64,1.1,.49m5.13-8.58c0,.17-.01,.34,0,.5,.01,.15-.09,.36,.14,.42,.21,.06,.46-.02,.47-.22,.02-.55,.4-.48,.7-.42,.4,.08,.61-.21,.88-.37,.39-.24,.7-.48-.07-.7-.36-.1-.88-.33-.62-.96,.06-.14,.35-.31,.06-.48-.17-.09-.39-.08-.55,.07-.61,.58-1.07,1.24-1.01,2.15m6.32-8.41c-.08-.46-.17-.95-.24-1.44-.03-.23,0-.38-.32-.54-.64-.32-.9,.19-1.27,.41-.22,.13-.18,.61-.06,.68,.6,.36,.87,1.41,1.89,.9m-9.3,27.44c.13,.28,0,.72,.56,.68,.45-.03,.71-.17,.71-.68h-1.27Zm1.58,2.45c-.53-.37-1.07-.37-1.61,0h1.61Z"/>
    <path class="cls-2" d="M115.37,221.88c-.4,.32-.83,.53-1.05,.87-.24,.38-.54,.39-.85,.34-.96-.16-1.92-.34-2.78-.83-.94-.54-1.78-2.73-1.43-3.72,.06-.16,.14-.29,.34-.33,.25-.04,.49-.11,.73-.17,1.13-.25,1.44-.64,1.44-1.77,0-.7-.07-1.41,.02-2.1,.07-.51-.4-.79-.31-1.32,.2-1.3,.32-2.61,.33-3.94,0-.81-.22-1.56-.42-2.27-.59-2.14,.39-4.22,.05-6.32-.03-.21,.06-.44,.1-.65,.04-.27,.03-.51,.46-.53,.5-.03,.34-.47,.14-.62-1.48-1.12-1-2.58-.73-4,.04-.22,.03-.45,.03-.67,0-2.08-.01-4.16,0-6.24,0-1,.11-1,1.03-.61,.59,.25,.99,.76,1.59,.99,.49,.19,.74,.1,.75-.48,0-.52-.06-1.05,.15-1.57,.17-.43-.04-.71-.54-.6-.52,.12-1.29-.41-1.5,.57-.04,.17-.39,.14-.44,.07-.23-.31-.7-.46-.69-.95,0-.53,.08-1.05,.08-1.59,0-.63-.3-.76-.79-.8-.57-.04-1.21,.43-1.66-.33-.45-.78,0-1.44,.34-2,.51-.86,.81-1.81,1.3-2.67,.2-.34,.32-.43,.63-.41,1.73,.12,3.46,.19,5.2,.18,2.82-.02,5.64-.21,8.45-.35,.68-.03,1,.12,.98,.91-.01,.83,.48,1.65,.54,2.43,.06,.77,.92,1.57,.13,2.39l-.03,.33c.01,3.21-.7,6.42-.28,9.61,.17,1.3,.14,2.62,.4,3.91,.08,.37,.19,.51,.59,.51,1.46-.02,2.92-.02,4.38,0,.54,0,.97-.36,1.51-.35,1.06,.02,2.03,.39,3.04,.59,.71,.14,1.42,.38,2.15,.42,.41,.02,.51,.17,.53,.55,.08,1.47-.49,2.23-1.97,2.48-.72,.12-1.33,.57-2.1,.56-.46,0-.44,.72-.25,.86,.32,.24,.1,.8,.63,.86,.2,.03,.11,.29,.03,.5-.12,.34-.39,.31-.61,.26-2.31-.57-4.66-.26-7-.32-.99-.03-1.17,.27-.78,1.17l.06,.4c-.63,.71-.31,1.56-.33,2.33-.05,1.99-.02,3.99-.01,5.99,0,.66-.07,1.33,.28,1.96,.14,.26,.17,.74,.02,.98-.43,.71-.19,1.47-.32,2.2-.21,1.24-.49,2.49-1.17,3.57-.61,.98-1.52,1.27-2.7,.74-.67-.3-1.29-.25-1.94-.28-.64-.03-1.29,0-1.94,0-.4,0-.97,.2-.85-.58,.02-.13-.05-.2-.19-.12-.15,.09-.36-.05-.47,.23-.22,.56-1.63,1.15-2.16,.98-.29-.09-.23-.29-.14-.45,.14-.24,.15-.46,0-.77m12.25-20.78c0-.46,0-.77,0-1.08,0-.13,.08-.34-.11-.34-.63,0-1.4-.29-1.86,.12-.56,.49-.88,1.26-.81,2.09l.1,.22c.7-.09,1.24,.61,1.96,.37,.78-.26,.85-.84,.71-1.38m-11.81,.6c0-1.1-.11-1.18-1.62-1.2-.49,0-1.19,1.13-1.04,2.02,.1,.59,.77,.68,1.35,.68,1.03,0,1.31-.32,1.31-1.5m5.95,7.6c1.45-.02,1.77-.28,1.65-1.37-.08-.75-1.2-1.54-1.78-1.26-.44,.21-1.16,2.06-.97,2.48,.08,.17,.27,.19,.43,.2,.22,0,.45-.03,.67-.04m.4-15.3c-.71-.1-1.16-.35-1.32-.96-.06-.21,.26-.53-.12-.63-.37-.09-.74,.26-.79,.45-.23,.8-.53,1.61-.44,2.48,.01,.11,0,.22,.16,.25,.2,.03,.37-.04,.36-.24-.01-.49,.32-.46,.61-.41,.74,.12,1.09-.37,1.55-.94m3.06-7.67c.25-.02,.75,.02,.51-.35-.37-.58,.19-1.6-.79-1.79-.66-.13-.95,.47-1.14,.98-.1,.27,1.03,1.16,1.42,1.16m-8.03,27.32c-.29,.06-.78-.2-.71,.46,.03,.26,.05,.47,.36,.38,.36-.1,.87-.05,.87-.63,0-.4-.35-.11-.52-.21m1.05,2.5c-.66-.48-1.21-.25-1.74-.17,.51,.27,1.05,.19,1.74,.17"/>
    <path class="cls-2" d="M340.05,211.83c0-1.4-.21-2.85,.04-4.2,.55-2.95,.36-5.92,.2-8.85-.12-2.31-.18-4.62-.28-6.92-.04-.96,.43-1.81,.4-2.78-.02-.78-.54-1.42-.41-2.22,.06-.36,.08-.55,.51-.53,.96,.05,1.76-.44,2.58-.84,.15-.07,.28-.17,.3-.37,.07-.56-1.37-1.75-1.94-1.7-.88,.07-1.82,.24-2.65-.15-.48-.23-1.06,.07-1.49-.46-.48-.59-.78-1.11-.26-1.79,.19-.25,.12-.55,.09-.81-.14-1.05,1.11-2.16,1.83-2.49,1.32-.61,2.71-.44,4.08-.5,.61-.03,.84,.54,1.34,.68,.34,.1,.63,.38,1.01,.42-.03-.43,.44-.46,.6-.74l.09-.14c.04-.26,.25-.24,.38-.17,.21,.12,.16,.31,.03,.5-.15,.21-.65,.33-.24,.71,.4,.38,.82,.78,1.44,.6,.33-.1,.61-.34,.58-.75-.05-.75,.45-.76,.98-.76,1.98,0,3.96,.07,5.92-.33,.96-.2,1.65,.43,2.41,.84,.25,.14,.15,.33,.15,.5,.01,.79-.06,1.58,.03,2.36,.09,.81-.32,1.17-.98,1.36-.55,.16-1.07,.41-1.62,.57-.43,.13-1.27,.08-1.15,.99l-.27,.12c-.17,0-.34,0-.51,0-1.39,0-1.84,.38-2.06,1.75-.05,.29-.06,.52,.38,.67,.68,.23,1.24,.76,1.96,.96,.3,.09,.18,.31,.18,.48,0,2.64,0,5.28,0,7.93,0,.2,.08,.43-.22,.56-.21,.09-.17,.41-.08,.53,.55,.73,.42,1.44,.04,2.18-.07,.14-.12,.36-.05,.48,.53,.98,.39,1.91,.03,2.92-.21,.58-.02,1.27-.38,1.87-.27,.45-.53,.97,.26,1.26,.07,.03,.06,.31,.06,.48,0,.45,.05,.91,0,1.35-.23,1.9,.35,3.73,.41,5.61,.02,.48,.11,1.18,.55,1.71,.51,.6,1.09,.69,1.8,.67,1.36-.03,1.63,.27,1.63,1.61v2.53c0,1.01-.83,1.88-1.84,2.1-3.35,.74-6.74,1.02-10.17,1.06-2.01,.02-4.02,.37-6.04,.28-.19,0-.37,.04-.56,.1-.4,.14-.73,.13-1.02-.36-.65-1.09-.92-2.24-.97-3.49-.01-.33,.36-.79-.31-1.08-.27-.11-.16-.84-.04-1.28,.13-.46,.55-.29,.86-.3,.53-.03,1.07-.06,1.6,0,.71,.09,.82-.22,.8-.84-.04-1.29-.01-2.59-.01-3.88h.01Zm6.58-19.47c.11,.3,.17,.78,.42,1.11,.25,.32,.66,.01,1-.04,.18-.03,.47-.03,.55,.07,.55,.69,.99-.06,1.43-.15,.31-.06,.11-.62-.07-.93-.12-.2-.1-.43-.17-.63-.37-1.2-1.26-1.46-2.16-.65-.22,.2-.45,.43-.72,.53-.33,.12-.31,.33-.29,.7m3.86-9.92c.02-.36-.89-1.17-1.23-1.17-.2,0-.55-.06-.43,.28,.16,.45,.14,1.12,.75,1.18,.23,.02,.76,.07,.91-.3"/>
    <path class="cls-2" d="M81.53,193.29c-.4,.39-1.05,.72-.32,1.31,.09,.07,0,.33,.02,.49,.09,.78,.38,1.02,1.09,.82,.55-.16,.8-.03,.76,.56-.01,.17,.02,.34,0,.51-.05,.35,.26,.85-.52,.85-.66,0-.74-.28-.64-.84-.56-.06-.77,.64-1.29,.49-.02,.14-.05,.27-.07,.4-.02,.25,.17,.22,.33,.26,.69,.16,1.38,.34,2.08,.5,.6,.14,.63,.66,.34,.93-.29,.29-.22,.54-.22,.81-.02,1.85,0,3.71,0,5.56,0,.87-.51,1.52-1.33,1.62-.35,.04-.62,.06-.56,.49,.07,.51,.43,.16,.65,.2l.39-.09c.2-.18,.45-.4,.64-.17,.22,.26,.02,.55-.21,.79-.35,.35-.49,.69,.16,.89,.32,.09,.26,.39,.26,.63,0,.98,.07,1.97-.02,2.95-.12,1.34,1.3,2.61,2.44,2.77,.31,.04,.69,.04,.63,.49-.21,1.64,0,3.38-1.27,4.76-.57,.63-1.44,1.25-2,1.21-.75-.06-1.62,0-2.33-.26-1.25-.47-2.46-.33-3.69-.1-.61,.12-1.22,.13-1.83,.15-2.04,.07-4.08-.06-6.13,.13-1.71,.16-2.8-.83-3.22-2.76-.16-.73-.29-1.42-.29-2.16,0-.16-.1-.49,.2-.44,.58,.1,.73-.33,1.03-.64,.32-.33,.69-.79,1.09-.84,1.66-.23,1.7-1.42,1.71-2.64,.02-1.89-.13-3.79,.04-5.67,.24-2.78-.02-5.54,.09-8.31,.03-.84,.23-1.5,1.25-1.47,.37,.01,.33-.22,.3-.44l-.1-.31c-.45-1.05-.34-1.33,.67-1.77,.73-.32,.77-.54,.33-1.25-.13-.2-.11-.49-.24-.7-.38-.66-.71-1.31-1.62-1.52-.75-.18-.64-1.06-.71-1.7-.18-1.58-.05-3.16,0-4.74,.02-.61-.11-.81-.8-.94-1.04-.2-2.13-.39-3.04-.98-.51-.33-.29-.96-.18-1.36,.36-1.34,.95-2.59,1.89-3.64,.21-.23,.48-.43,.89-.41,1.06,.05,2.14-.05,3.2,.03,2.41,.2,4.77-.45,7.17-.35,.41,.02,.82-.02,1.22,.16,.94,.43,1.8-.26,2.73-.23,.55,.02,1.16-.05,1.46,.45,.26,.43-.06,1.01-.06,1.47,0,.92-1.05,1.77-.18,2.73,.1,.11,0,.38,.02,.58,.19,2.41-.1,4.8-.41,7.17-.14,1.07-.25,2.37-1.31,3.16-.19,.14-.26,.49,.01,.51,.56,.06,.35,.44,.33,.68-.03,.35-.35,.19-.54,.19-.5,0-.21-.41-.28-.63l-.04-.33Zm-7.26,7.05l.14-.2c-1.16-.6-.78-1.72-.86-2.6-.05-.55-.26-.45-.46-.39-.74,.2-1.38,.77-1.46,1.42-.06,.53,.35,1.21,.75,1.73l.24,.03c.55,0,1.09,0,1.64,0m-2.33,8.81c.07-.46-.38-.72-.42-1.15-.01-.13-.56-.28-.81-.12-.28,.17-.03,.37,.12,.53,.21,.24,.12,.54,.1,.8-.04,.52,.31,.39,.59,.42,.4,.04,.48-.16,.43-.47m0,3.41c.02,.2-.04,.38,.14,.41,.22,.04,.44,.05,.62-.14,.36-.36,.74-.59,1.29-.37,.33,.13,.42-.24,.26-.37-.29-.25-.66-.54-1.08-.37-.47,.2-1.01,.35-1.24,.83m2.18-25.69c.64-.1,.99,.56,1.53,.48,.22-.03,.51,.11,.52-.32,.01-.41-.24-.39-.49-.35-.5,.07-.61-.15-.54-.59,.02-.13,.09-.34-.2-.43-.27,.39-.55,.8-.82,1.21"/>
    <path class="cls-2" d="M94.01,205.62c.25,.57,.57,.44,.83,.44,1.01,.01,2.02,0,3.04,0,.32,0,.68-.13,.92,.24l.3,.07c.75-.15,1.13,.08,1.17,.83,.02,.46,.36,.7,.52,1.06,.53,1.19,.9,2.43,1.38,3.63,.37,.93,.73,1.86,1.04,2.81,.06,.2,.23,.3,.46,.28,1-.07,1.82,.39,2.56,.98,.38,.3,.64,.73,.65,1.25,0,1.01,0,2.02,0,3.04,0,1.22-.44,1.65-1.7,1.65-2.05,0-4.14-.25-6.15,.07-2.08,.33-4.18,0-6.22,.44-.67,.15-1.04-.31-1.08-.73-.09-.91-.55-1.7-.8-2.54-.22-.73-.66-1.44-.9-2.2-.29-.9-.56-1.82-.87-2.71-.53-1.51-1.1-3.01-1.65-4.52-.19-.53-.43-1.06-.52-1.61-.09-.55-.36-1.02-.56-1.51-.41-1.01-.61-2.08-.97-3.1-.14-.42,.23-.85,.16-1.31-.04-.27-.09-.6,.01-.83,.26-.63-.78-1.51,.15-1.81,.57-.19,1.29-.27,1.91-.43,1.88-.49,3.53-1.3,4.37-3.27,.24-.56,.3-1.06,.28-1.61-.04-1.44,.59-2.82,.35-4.27-.05-.31,.06-.63-.24-.92-.24-.23-.16-.66-.04-.97,.54-1.44,.43-1.98-.76-2.87-1.52-1.14-3.21-1.77-5.14-1.37-.65,.13-.88-.13-.72-.69,.27-.92,.14-1.84,.14-2.75,0-.68,.2-1.33,.18-2.01,0-.34,.18-.37,.43-.34,.83,.12,1.72-.3,2.49,.32h.33c1.04-.74,2.07,0,3.1,.02,.25,0,.47,.03,.71,.17,.46,.28,1,.31,1.47-.03,.37-.26,.83-.25,1.12-.11,1.24,.59,2.65,.62,3.89,1.25,.47,.24,1.01,.48,1.53,.69,.9,.37,1.27,1.19,1.63,1.98,.47,1.02,1.33,1.82,1.69,2.91,.35,1.07,.89,2.08,.87,3.25-.02,1.24-.06,2.48,0,3.71,.1,1.92-.17,3.82-.74,5.59-.85,2.62-2.35,4.82-4.99,6.11-.92,.45-1.82,1.1-2.78,1.36-.86,.23-1.74,.76-2.83,.34"/>
    <path class="cls-2" d="M243.55,189.36c.9,.07,1.04,.42,1.23,1.15,.27,1,.36,2.07,.88,3.01,.22,.39,.16,.9,.35,1.36,.32,.78,.39,1.65,.86,2.4,.21,.34-.07,.7-.46,.85-.24,.09-.38,.23-.35,.49,.04,.32,.3,.16,.47,.19,.87,.12,1.15,.9,1.33,1.5,.34,1.15,.74,2.3,.78,3.55,.02,.73,.47,1.48,.86,2.14,.63,1.05,1.03,2.2,1.59,3.28,.16,.32,.34,.65,.56,.88,.42,.45,.41,.98,.25,1.42-.45,1.21-.36,2.49-.57,3.73-.28,1.66-.59,3.29-1.22,4.85-.11,.27-.34,.39-.51,.51-.69,.49-1.21,1.33-2.23,1.24-.25-.02-.56,.12-.71-.26-.03-.07-.33-.11-.46-.06-1.67,.71-3.41,.27-5.1,.26-.89,0-1.32-1.07-1.78-1.8-.44-.7-.82-1.45-1.14-2.22-.12-.27-.25-.7,.26-.9,.23-.09,.28-.38,.1-.57-.99-1.04-1.21-2.44-1.82-3.65-.41-.8-.7-1.63-1-2.45-.29-.78-.53-1.59-.79-2.4-.45-1.39-.75-2.83-1.27-4.21-.26-.68-.43-1.43-.64-2.13-.31-1.01-.4-2.09-.9-3.06-.23-.44-.21-.99-.32-1.47-.16-.71-.65-1.15-.87-1.71-.44-1.12-.97-2.21-.5-3.62,.32-.97,.41-2.13,.63-3.2,.27-1.34,.51-2.69,1.16-3.92,.1-.18,.24-.37,.16-.53-.42-.75-.03-1.52,.06-2.22,.17-1.25,.58-2.47,1.43-3.49,.95-1.15,2.26-1.44,3.59-1.24,1.02,.15,2.05,0,3.06,.27,.47,.13,.86,.48,1.39,.44,.23-.02,.27,.22,.27,.44,0,.76,.11,1.53-.55,2.16-.4,.39-.46,.79,.21,1.15,.95,.51,1.15,1.59,1.47,2.49,.35,.99,.74,1.98,.77,3.08,0,.36,.32,.77,.29,1.23-.03,.47,.19,1.08-.83,1m-8.27,11.92c.31,.19,.5,0,.7-.22,.21-.22,.39-.53,.66-.64,.81-.33,.46-.7,.06-1.02-.39-.31-.71-.5-.17-.99,.26-.23-.12-.29-.28-.25-.4,.09-.83,.27-.97,.65-.11,.29-.08,.64,.35,.9,.32,.2,.64,.75-.06,1.09-.15,.07-.34,.22-.3,.48m9.15-6.72c-.23-.47-.48-.74-.89-.62-.42,.12-.45,.67-.84,.87-.09,.05,.05,.3,.19,.41l.28-.04c.17-.63,.71-.57,1.26-.62m-11.16-11.08l.18,.28c.52,.18,.67-.34,.97-.57,.11-.08,.23-.2,.11-.34l-.39-.02c-.3,.2-.58,.42-.87,.64m9.5,24.82c-.45-.02-.79-.13-1.22,.13,.47,.23,.81,.59,1.22-.13m-8.72-23.32c.05,.37-.48,.57-.24,.95l.3,.04c.25-.31,.14-.64-.06-1"/>
    <path class="cls-2" d="M274.5,211.76c-.68-.11-1.86,.21-3.06,.22-.69,.01-.45,.73-.73,1.08-.55,.68-.52,1.67-1.14,2.36-.23,.25,0,.36,.3,.46,.87,.28,1.73,.62,2.56,.99,1.14,.52,1.69,1.3,1.42,2.16-.2,.64-.66,1.19-.98,1.79-.4,.77-1.03,1.28-1.77,1.67l-.4,.07c-1.68-.56-3.37-.23-5.07-.19-1.22,.03-2.49-.08-3.74-.12-.34-.01-.74-.11-1,.03-.79,.42-.86-.08-.99-.63-.17-.75,.13-1.07,.88-.9,.9,.21,1.99-.9,1.85-1.8-.09-.55-.06-1-.83-.99-.33,0-.21-.45-.23-.72-.04-.43,.25-.64,.58-.69,.36-.05,.52-.18,.42-.52-.13-.44-.34,.04-.51-.02h-.25c-.4-.02-.92-.01-1.05-.41-.15-.46,.19-.8,.67-.95,.23-.07,.34-.38,.64-.34,.16,.02,.21-.18,.15-.22-.89-.68-.02-1.42,.16-1.87,.41-1.05,.87-2.12,1.35-3.16,.44-.96,.94-1.93,1.09-3.02,.06-.44,.52-.47,.78-.2,.25,.26,.54,.34,.65,.08,.09-.21-.08-.58-.22-.83-.11-.18-.58,.14-.59-.37-.01-.46,.26-.89,.5-1.09,.66-.56,.61-1.4,1.02-2.04,.09-.14-.13-.43,.18-.46,.22-.03,.45,.02,.6,.22,.1,.13,.17,.29,.29,.39,.29,.26,.69,.77,.87,.7,.9-.33,1.73,.3,2.59,.06,.36-.1,.35-.61,.34-.65-.09-.7,1.04-1.23,.23-2.06-.22-.22-.17-.97,.03-1.29,.54-.85,.01-1.4-.28-2.1-.35-.84-.9-1.17-1.75-1.15-.24,0-.35-.18-.43-.35-.31-.73-.27-1.53-.08-2.22,.21-.79,2.35-.91,2.76-.19,.4,.69,.62,1.51,1.07,2.16,.78,1.11,.82,2.48,1.44,3.64,.19,.35,.17,.9,.37,1.33,.08,.17,.11,.51-.13,.61-.81,.31-.77,1.18-1.16,1.77-.51,.76-.8,1.68-1.14,2.55-.16,.42-.28,.87,.5,.84,.98-.05,1.97,.04,2.95-.02,1.65-.1,3.03,1.49,3.05,3,0,.57,.46,.99,.37,1.61-.12,.87-.35,1.17-1.33,1.49-1.09,.35-2.18,.36-3.83,.27m-2.45-.93c-.69-.35-.32-1.18-.78-1.8-.88-1.18-1.81-2.28-2.86-3.3-.1-.1-.21-.24-.34-.12-.13,.12-.1,.31,.01,.46l.3,.29c.65,.42,.47,.84-.06,1.15-.44,.25-.37,.4-.09,.74,.5,.59,.91,1.25,1.3,1.92,.32,.55,.62,1.16,1.09,1.55,.24,.2,.53-.46,.91-.57l.33-.02c.15,0,.17-.11,.19-.3m-2.65,10.08c.44-.08,1.02-.28,1.23-.77,.16-.36-1.14-1.51-1.54-1.4-.49,.14-.81,.6-.99,1.04-.14,.34,.79,1.14,1.31,1.13"/>
    <path class="cls-2" d="M253.6,196.61c.29-.2,.38-.25,.46-.31,.19-.16,.4-.43,.64-.31,.3,.15,.13,.5,.12,.76-.02,.58-.73,.96-1.28,.75-.17-.06-.44-.12-.53,.08-.11,.22,0,.49,.25,.53,.46,.08,1.01,0,1.19,.54,.19,.57-.08,1.14-.22,1.7-.19,.78-.41,1.56-.61,2.33-.28,1.09-.69,2.14-.65,3.29,.02,.44-.36,.28-.56,.23-.7-.17-.97-.81-1.27-1.34-.57-1.03-1-2.15-1.45-3.23-.37-.9-.58-1.92-.81-2.9-.15-.61-.13-1.36-.65-1.86-.47-.45-.44-1.01-.27-1.55,.37-1.14,.49-2.39,1.27-3.38,.1-.12,.02-.38,.03-.58,0-.25-.08-.59,.04-.74,.68-.79,.95-1.65,.78-2.68-.05-.3,.22-.28,.4-.25,.21,.04,.48-.16,.63,.2,.25,.62,1.66,1.42,2.28,1.3,.52-.1,.58-.5,.59-.96,.02-.56-.37-.35-.63-.38-.19-.02-.4,.02-.59-.03-.43-.1-.44-.42-.15-.63,.33-.24,.46-.59,.69-.89,.52-.69-.27-.94-.55-1.15-.29-.22-.75,.06-.83,.57-.02,.13-.08,.27-.15,.38-.2,.3-.5,.56-.86,.48-.3-.07-.1-.43-.15-.65-.19-.9,.3-1.72,.33-2.59,0-.19,.14-.46-.17-.57-.58-.21-.8-.58-.87-1.23-.06-.59-.8-.7-1.26-.92-.3-.14-.2,.3-.21,.49-.06,1.22-.09,1.26-1.31,1.33-1.91,.12-1.88,.12-1.92-1.81-.02-1.11,.14-2.16,.68-3.14,.22-.41,.54-.64,1.02-.62,1.11,.04,2.23-.14,3.33,.16,.33,.09,.65-.12,.97-.14,1.82-.1,3.63-.03,5.44,.19,2.01,.24,4.02,.53,6.06,.15,.48-.09,.9,0,.92,.71,.04,1.63-.24,3.14-1.18,4.51-.47,.68-1.14,.94-1.88,.99-.98,.07-1.97,.02-2.95,.02-.84,0-.71-.02-.56,.8,.26,1.4,.72,2.82-.08,4.26-.36,.65-.46,1.47-.67,2.21-.22,.77-.49,1.57-.82,2.32-.26,.58-.23,1.3-.92,1.63l-.19,.23c-1.41-.13-.72,.91-.93,1.7m-3.59-4.67c.44,.23,.91-.05,1.08,.24,.19,.34,.47,.28,.61,.18,.22-.15,.09-.47,.09-.71,0-.38-.31-.22-.5-.27-.53-.14-.83,.25-1.29,.56"/>
    <path class="cls-2" d="M182.35,183.99c.13,2.05-1.01,3.54-2.19,4.98-.22,.27-.25,.47-.22,.7,.06,.39,.41,.13,.62,.2,.18,.06,.49-.14,.54,.22,.04,.31,.06,.66-.28,.81-1.07,.45-2.14,.9-3.31,.98-.15,.01-.36,.06-.43-.16-.24-.84-.69-1.59-.89-2.45-.28-1.2-.51-2.49-1.28-3.47-.77-.99-1.95-1.42-3.2-1.68-.94-.2-1.82-.69-2.76-.9-.88-.2-1.79-.23-2.67-.53-.65-.23-.66-.64-.42-1.01,.56-.84,.8-1.73,.72-2.72-.05-.65,.11-1.05,.86-.89,.47,.1,.75-.29,1.17-.37,1.19-.23,2.37,.08,3.55,.05,1.65-.04,3.25-.46,4.91-.37,.47,.03,.94-.02,1.37,.24,.28,.17,.61,.18,.88,.02,.89-.52,1.49,.02,1.87,.65,.53,.9,1,1.88,.94,2.98-.06,.92,.12,1.82,.24,2.71"/>
    <path class="cls-2" d="M144.69,183.48c0,2.35-.88,4.06-2.22,5.58-.15,.16-.47,.24-.32,.56,.11,.23,.33,.25,.57,.27,.26,.03,.67-.22,.75,.26,.08,.44-.24,.61-.58,.8-.75,.42-1.61,.56-2.39,.9-.53,.23-1.09,.05-1.27-.55-.27-.92-.67-1.79-.86-2.76-.2-1.01-.42-2.09-1.24-2.9-.81-.8-1.8-1.16-2.84-1.52-1.08-.37-2.21-.55-3.29-.93-.67-.23-1.46-.2-2.17-.42-.84-.26-.83-.4-.47-1.19,.32-.68,.56-1.41,.45-2.22-.11-.77,.19-1.09,1.05-1.38,1.33-.45,2.6-.3,3.89-.25,1.99,.09,3.94-.42,5.93-.36,.41,.01,.83-.07,1.19,.25,.17,.16,.44,.12,.65,.06,.33-.09,.57-.46,.99-.24,.59,.31,1.12,.68,1.39,1.31,.2,.49,.37,1.12,.36,1.53-.03,1.19,.64,2.26,.44,3.17"/>
    <path class="cls-2" d="M320.63,219.11c-.08-.46,.11-1.02-.11-1.58-.11-.28,.88-1.4,1.2-1.3,.88,.27,1.52-.31,2.23-.56,1.72-.58,3.28-1.52,4.49-2.87,.8-.88,1.24-1.68,.41-3.12l.02-.4c.67-1.12,.47-2.26,.1-3.41-.12-.36,.13-.44,.44-.48,.82-.12,1.61,.07,2.31,.42,.72,.36,1.56,.4,2.21,.91,.2,.15,.64-.19,.69,.23,.05,.43,.14,.9-.07,1.32-.08,.16-.27,.27-.24,.5,.18,1.86-.59,3.66-.33,5.52,.04,.27-.16,.61,.25,.79l.07,.45c-.64,1.27-.21,2.62-.32,3.94-.08,.94-1.24,2.17-2.06,2.12-.18,0-.39,.09-.51-.17-.1-.23-.4-.23-.51-.15-.79,.58-1.73,.09-2.52,.35-1.81,.6-3.65,.21-5.47,.29-1.68,.08-2.27-.56-2.27-2.21v-.59Z"/>
    <path class="cls-2" d="M178.97,221.93c-1.54,.18-3.1-.61-4.72-.33-1.25,.22-2.5,.33-3.75,.6-.91,.2-1.78,.37-2.58,.85-.29,.17-.58,.03-.64-.3-.1-.55-.46-.98-.46-1.59,0-.56-.1-1.16-.22-1.73-.15-.72-.06-1.26,.93-1.59,2.81-.91,5.41-2.29,7.46-4.51,.5-.54,.99-1.1,1.34-1.75,.09-.17,.13-.39,.35-.43,.76-.15,.41-.56,.12-.78-.43-.32-.3-.43,.04-.71,.57-.49,1.27-.71,1.91-1.02,.66-.32,1.25,.13,1.48,1.08,.08,.31,.13,.44,.45,.41,.38-.04,.19-.33,.25-.51,.07-.22-.17-.53,.17-.65,.3-.11,.41,.2,.62,.33,.71,.45,.81,1.07,.62,1.82-.13,.53,0,1.06,.03,1.59,.07,1.76-.26,3.49-.4,5.23-.07,.84,.28,1.66,.14,2.5-.05,.28,.42,.57,0,.81-.45,.26-.81,.68-1.38,.69-.56,0-1.12,0-1.76,0m-3.09-5.02c-.1-.21,.22-.7-.38-.56-.24,.05-.74-.19-.62,.35,.07,.32,.19,.77,.63,.83,.55,.08,.3-.38,.37-.62"/>
    <path class="cls-2" d="M143.09,210.24l.05-.22c.14-.35-.3-1,.33-1.03,.62-.02,1.14,.53,1.16,1.12,.07,1.88,.26,3.81-.06,5.63-.22,1.29-.12,2.53-.24,3.79v.33c.35,.41,.58,.99,.21,1.32-.46,.41-1.01,.82-1.77,.76-1-.08-2.1,.22-3.01-.08-1.06-.36-2.08-.33-3.09-.23-1.3,.12-2.62,.23-3.92,.57-.75,.19-1.46,.38-2.17,.7-.43,.2-.92,.11-1.14-.51-.18-.51-.28-1.01-.31-1.55-.04-.77,.18-1.56-.17-2.32-.13-.27,.04-.4,.36-.5,1.36-.44,2.65-1.04,3.93-1.7,1.45-.75,2.72-1.68,3.89-2.78,.67-.63,1.07-1.59,1.7-2.12,.74-.62,.42-.95,.21-1.48l.02-.24c.32-.53,2.53-1.3,3.1-1.09,.45,.16,.33,.55,.31,.86-.03,.47,.09,.75,.63,.76m-4.99,6.77c-.12-.22,.22-.71-.36-.64-.26,.03-.75,.03-.63,.43,.1,.33,.45,.77,.76,.83,.43,.09,.1-.41,.24-.62"/>
    <path class="cls-2" d="M46.3,179.71c.04-.66-.26-1.52,.65-1.94,.44-.21,.95-.27,1.43-.38,1.24-.27,2.48-.32,3.76-.15,2.14,.28,4.29,.72,6.45,.45,.98-.12,1.87-.45,2.88,0,1.35,.61,1.87,1.56,1.33,2.92-.1,.26-.29,.49,.11,.69,.19,.1,.09,.36,.09,.54,0,1.74,0,3.48,0,5.22,0,.48-.16,.78-.54,1.09-.9,.73-1.7,1.58-2.59,2.33-.4,.34-.85,.47-1.33-.08-.9-1.03-1.27-2.31-1.77-3.52-.49-1.2-1.27-2.06-2.34-2.8-1.18-.81-2.48-1.18-3.83-1.49-.95-.21-1.91-.33-2.88-.33-.87,0-1.41-.53-1.42-1.4,0-.36,0-.73,0-1.17"/>
    <path class="cls-2" d="M360.9,229.9c-.1,2.27,.11,4.53-.07,6.8-.04,.45-.22,.91-.67,.73-.85-.35-1.64,.06-2.45,.03-1.44-.05-2.32-.91-2.7-2.32-.35-1.28,.05-2.32,.52-3.45,.48-1.17,2.34-1.44,3.21-.98,.47,.25,.72,.25,.7-.37-.02-.53,.02-1.07-.03-1.6-.06-.72,.43-.55,.83-.58,.42-.03,.72,0,.67,.56-.04,.39,0,.78,0,1.18m-1.48,4.06c.23-.59-.18-1.08-.41-1.6-.31-.72-1.42-.89-2.02-.35-.84,.75-.97,2.02-.42,3.31,.29,.68,.83,1.04,1.46,1.05,.66,.02,1.03-.54,1.28-1.14,.17-.4,.21-.81,.11-1.27"/>
    <path class="cls-2" d="M273.05,232.86c0,1.32,0,2.64,0,3.96,0,.58-.57,.95-.94,.55-.36-.38-.53-.15-.84-.07-1.93,.49-3.78,.12-3.96-2.4-.06-.81-.09-1.65,.06-2.43,.31-1.55,2.03-2.38,3.74-1.83,.5,.16,.59,.05,.59-.4,0-.48,.02-.95,0-1.43,0-.49,.18-.67,.69-.69,.5-.02,.69,.04,.67,.61-.05,1.37-.02,2.75-.02,4.13h0Zm-1.25,1.6c.17-.83-.17-1.29-.3-1.8-.14-.52-.41-.96-1.11-.96-.73,0-1.35,.15-1.53,.91-.21,.86-.54,1.71-.03,2.63,.62,1.13,1.41,1.6,2.38,.78,.62-.53,.43-1.24,.6-1.57"/>
    <path class="cls-2" d="M332.81,234.18c0,.92-.09,1.67,.14,2.42,.08,.26,.2,.68-.18,.81-.32,.11-.76,.2-1.03-.1-.35-.39-.64-.25-1.03-.09-.93,.39-1.92,.33-2.87,.09-.79-.2-.99-1.29-.89-2.11,.23-1.78,1.63-1.51,2.73-1.79,.29-.07,.59-.07,.89-.14,.5-.12,.9-.36,.8-.86-.08-.42-.53-.7-1-.69-.74,.02-1.6-.31-1.92,.87-.09,.32-.91,.23-1.32,.05-.23-.1-.04-.52,.1-.81,.31-.68,.86-1.01,1.54-1.13,1.09-.2,2.18-.38,3.25,.15,.36,.18,.48,.4,.56,.75,.21,.91,.36,1.81,.23,2.58m-2.29,.23c-.7-.07-1.32,.26-1.95,.53-.5,.21-.42,.59-.17,1,.34,.56,.83,.59,1.36,.45,.63-.16,1.28-.34,1.48-1.09,.26-.93,.25-.93-.73-.89"/>
    <path class="cls-2" d="M255.19,234.53c0,.76,0,1.52,0,2.28,0,.22,.25,.57-.15,.61-.34,.03-.84,.28-1.03-.19-.19-.49-.48-.32-.7-.16-.93,.65-1.96,.43-2.93,.31-.87-.11-1.17-.72-1.16-1.78,.02-1.1,.49-1.75,1.52-2.02,.6-.16,1.22-.15,1.83-.2,.52-.04,1.17-.06,1.09-.92-.08-.75-.61-.72-1.15-.75-.67-.03-1.21,0-1.55,.77-.23,.52-.96,.36-1.37,.22-.42-.14-.06-.61,.01-.94,.1-.45,.5-.65,.81-.79,1.37-.64,2.81-.64,4.16,0,.45,.21,.57,.91,.59,1.46,.03,.7,0,1.41,0,2.11h.02Zm-1.54,.54c0-.85,0-.87-.41-.8-.57,.09-1.14,.18-1.69,.33-.33,.09-.69,.26-.74,.66-.03,.31-.14,.67,.18,.93,.59,.47,1.28,.28,1.8,.02,.39-.19,1.11-.44,.85-1.14"/>
    <path class="cls-2" d="M237.79,234.36c.11,.76-.24,1.71,.3,2.57,.09,.14,.07,.45-.19,.47-.37,.02-.89,.24-1.07-.15-.23-.49-.47-.29-.7-.15-.88,.54-1.86,.4-2.79,.31-.97-.09-1.34-.59-1.46-1.61-.09-.8,.34-1.51,1-1.91,.9-.55,1.94-.37,2.89-.64,.37-.1,.78-.16,.66-.64-.1-.41-.34-.87-.84-.87-.82-.02-1.72-.29-2.1,.92-.13,.43-.85,.15-1.22,.03-.33-.1-.14-.49-.02-.79,.45-1.11,1.48-1.16,2.41-1.34,.49-.1,1.01-.05,1.51-.01,.84,.07,1.59,.94,1.62,1.83,.02,.62,0,1.24,0,1.99m-2.28,.04c-.36-.11-.78,.11-1.21,.2-.38,.08-.84,.17-.91,.74-.08,.64,.26,.81,.78,.95,.75,.2,1.7-.02,2.03-.67,.16-.31,.35-.76,.18-1.12-.15-.32-.5-.08-.87-.1"/>
    <path class="cls-2" d="M350.17,234.76c0,.65,0,1.29,0,1.94,0,.24,.18,.59-.09,.69-.32,.11-.84,.22-1.03-.06-.43-.6-.77-.32-1.21-.08-.91,.5-2.84,.21-3.33-.46-.74-1.01-.17-2.64,.97-3.1,.81-.33,1.65-.18,2.45-.42,.28-.09,.64-.04,.68-.47,.04-.39-.05-.69-.4-.93-.5-.33-2.3-.21-2.36,.26-.09,.71-.49,.56-.91,.6-.66,.07-.63-.33-.46-.72,.29-.66,.77-1.12,1.51-1.32,.72-.2,1.44-.17,2.16-.15,1.25,.04,1.94,.77,1.99,2.03,.01,.37,.01,.73,.02,1.1,0,.37,0,.73,0,1.1h0Zm-4.41,.72c0,.69,.2,1.07,.9,.91,.25-.05,.5-.05,.75-.1,.78-.14,1.29-.86,1.22-1.64-.03-.37-.2-.43-.49-.38-.54,.1-1.09,.17-1.61,.34-.44,.14-.92,.32-.78,.88"/>
    <path class="cls-2" d="M371.43,233.48c-.21,.99,.24,2.06,.31,3.17,.02,.26,.21,.69-.2,.77-.35,.07-.81,.18-1.09-.2-.17-.23-.27-.39-.58-.16-.87,.64-1.9,.4-2.85,.35-.75-.04-1.42-1.01-1.43-1.8,0-.83,.88-1.85,1.66-2.05,.76-.19,1.54-.1,2.3-.31,.48-.13,.59-.41,.53-.79-.06-.37-.13-.76-.69-.75-.8,0-1.64-.29-2.01,.87-.17,.54-.84,.19-1.21,.1-.37-.09-.15-.52-.05-.84,.31-.97,1.24-1.11,1.99-1.25,.81-.16,1.7-.17,2.56,.19,.56,.24,.8,.54,.78,1.12-.02,.48,0,.95,0,1.59m-3.25,2.96c1.15,0,1.73-.64,2.04-1.54,.09-.27,.05-.59-.38-.55-.6,.07-1.23,.07-1.78,.27-.43,.16-1.02,.39-.83,1.11,.14,.52,.44,.82,.95,.71"/>
    <path class="cls-2" d="M299.09,237.45c-1.05,.04-2.06-.17-2.65-1.23-.66-1.19-.65-3.52,.25-4.61,1.2-1.45,4.49-1.68,5.23,.69,.07,.24,.32,.32,.34,.63,.14,1.41,.11,1.47-1.32,1.49-.95,0-1.91,.03-2.86,0-.6-.02-.64,.22-.48,.7,.22,.67,.67,1.11,1.36,1.17,.74,.05,1.42-.02,1.8-.89,.25-.58,.92-.34,1.35-.22,.25,.07,.09,.47-.07,.81-.61,1.27-1.64,1.52-2.94,1.48m.11-4.06h0c.34,0,.68-.03,1.01,.01,.69,.08,.66-.48,.46-.71-.31-.36-.42-.95-1.09-1-.84-.06-1.5,.2-1.94,.88-.29,.44-.18,.82,.46,.82h1.1"/>
    <path class="cls-2" d="M281.79,234.41c-.42,0-.85-.06-1.26,.02-.35,.07-.92-.36-1.02,.27-.09,.58,.66,1.56,1.13,1.55,.72-.01,1.63,.34,1.87-.83,.06-.27,1.31-.47,1.54-.3,.21,.15,.12,.35,.06,.53-.35,.98-1.29,1.89-2.49,1.84-1.27-.06-2.45-.05-3.23-1.29-.45-.72-.4-1.53-.41-2.25-.01-.91,.17-1.84,.98-2.62,1.42-1.36,4.19-.94,4.91,.88,.08,.2,.23,.38,.29,.59,.35,1.25,.09,1.61-1.2,1.66-.39,.02-.78,0-1.18,0v-.03Zm-.62-1.02v-.02c.33,0,.67-.02,1,0,.56,.04,.71-.16,.51-.69-.19-.51-.51-.86-1.04-.97-.75-.16-1.39,.15-1.92,.64-.23,.21-.16,.6-.07,.88,.08,.27,.39,.13,.59,.15,.31,.03,.62,0,.92,0"/>
    <path class="cls-2" d="M309.65,237.46c-.95,0-1.91,.06-2.56-.86-.52-.74-.35-1.39,.41-1.51,.33-.05,.51,0,.7,.38,.5,.98,1.1,1.17,2.11,.79,.35-.13,.57-.39,.54-.82-.03-.39-.26-.47-.59-.58-.97-.33-2.06-.36-2.89-1.09-.62-.55-.6-2.28,.07-2.74,.99-.68,3.04-.66,4.02,.03,.37,.26,.62,.55,.56,1.04-.03,.26,.09,.65-.34,.62-.37-.03-.83,.27-1.11-.28-.31-.62-1.39-.98-1.96-.68-.26,.14-.33,.41-.33,.71,0,.33,.21,.33,.45,.45,.72,.35,1.51,.43,2.26,.64,1.26,.35,1.61,1.07,1.35,2.46-.12,.68-1.19,1.43-2.04,1.45-.22,0-.45,0-.67,0"/>
    <path class="cls-2" d="M224.45,237.45c-.91,.11-1.86-.05-2.41-1.12-.19-.38-.47-.85,0-1.12,.45-.26,1.02-.28,1.36,.33,.14,.25,.13,.68,.5,.71,.52,.04,1.07,.04,1.58-.05,.38-.07,.54-.39,.51-.83-.03-.48-.34-.36-.62-.46-.78-.26-1.55-.56-2.36-.77-.64-.17-1-.71-1.06-1.36-.07-.72,.08-1.34,.79-1.81,1.17-.75,3.54-.51,4.15,.4,.27,.39,.27,.79,.12,1.19-.12,.34-.43,.13-.66,.17-.45,.08-.63-.15-.75-.57-.15-.5-1.67-.67-1.98-.24-.26,.36-.46,.74,.19,.94,.79,.24,1.58,.5,2.37,.77,1.43,.5,1.22,.87,1.15,2.56-.03,.6-1,1.24-1.78,1.27-.31,.01-.62,0-1.08,0"/>
    <path class="cls-2" d="M316.95,234.01c-.21-.79,.11-1.5,.42-2.21,.33-.75,1.1-1,1.76-1.23,1.36-.47,2.64,.09,3.39,1.34,.2,.34,.33,.78-.09,.93-.41,.15-1.1,.42-1.29-.27-.25-.9-.89-.94-1.56-.84-.6,.08-.99,.42-1.17,1.11-.22,.82-.46,1.55,0,2.37,.27,.46,.45,1.01,1.02,1.08,.74,.09,1.58,.15,1.81-.85,.18-.75,.76-.8,1.22-.6,.59,.26,.3,.82,.07,1.23-.98,1.69-3.96,2.02-4.97,.52-.5-.74-.84-1.59-.62-2.56"/>
    <path class="cls-2" d="M244.37,232.79c0,1.32,0,2.64,0,3.96,0,.39,.03,.74-.55,.69-.42-.04-.82,.09-.84-.59-.09-2.73-.09-5.45,0-8.17,.03-.7,.52-.5,.9-.56,.53-.08,.49,.27,.49,.62,0,1.35,0,2.7,0,4.05"/>
    <path class="cls-2" d="M339.36,232.88c0,1.32,0,2.64,0,3.95,0,.39-.05,.65-.54,.63-.41-.02-.75,.03-.78-.57-.14-2.02-.05-4.03-.07-6.04,0-.75,.02-1.49,.15-2.24,.1-.53,.38-.44,.68-.47,.39-.04,.56,.13,.56,.53-.01,1.4,0,2.8,0,4.21"/>
    <path class="cls-2" d="M255.87,218.33c-.27-.59,.2-1.07,.36-1.6,.11-.37,.75-.34,.93-.06,.68,1.06,1.29,2.17,1.87,3.3,.14,.27,.11,.7-.45,.61-.17-.03-.3,.06-.46,.15-.71,.4-1.19,.27-1.64-.41-.39-.59-.77-1.18-.62-1.98"/>
    <path class="cls-2" d="M369.01,229.83c-.95,.13-1.68,0-1.91-1.02-.06-.24-.23-.55,.08-.65,.28-.09,.64-.16,.88,.21,.46,.71,1.18,.78,1.69,.1,.25-.33,.62-.47,.84-.29,.31,.25,.23,.71,.02,1.04-.39,.61-.99,.77-1.6,.6"/>
    <path class="cls-2" d="M252.2,229.86c-.69,.15-1.28-.12-1.53-.97-.08-.26-.24-.59,.09-.74,.31-.14,.63-.04,.88,.28,.66,.85,1.15,.84,1.81-.07,.21-.29,.44-.19,.65-.19,.37,0,.21,.33,.22,.51,.02,.83-.63,.99-1.23,1.16-.23,.07-.5,.01-.89,.01"/>
    <path class="cls-1" d="M37.26,204.37c-.26,.63-.6,1.17,.11,1.6,.23,.14,.47,.39,.74,.21,.25-.17,.27-.54,.11-.77-.37-.53,.15-.91,.18-1.36,.02-.29,.39-.22,.64-.31,0,.28,.03,.54,0,.78-.09,.58,.29,.51,.67,.54,.5,.05,.6-.2,.51-.59-.23-1.02-.5-2.04-.26-3.13,.38,.11,.76,.35,1.07-.17,.18-.3,.46-.33,.55,.11,.04,.18,.16,.23,.3,.21,.53-.07,.81,.11,.89,.68,.08,.63-.11,1.14-.69,1.32-1.13,.37-1.27,1.48-1.83,2.27-.1,.14,0,.34,.18,.41,.18,.07,.39,.08,.56,.17,.29,.15,.78-.24,.92,.31,.15,.59-.57,.59-.73,1.01-.04,.11-.42,.21-.64-.18-.51-.88-.85-.88-1.88-.53-.36,.12-.77-.36-1.24-.23-.67,.17-.69-.23-.8-.77-.06-.28-.3-.7-.55-1.02-.34-.45-.6-.38-1.02-.31-.37,.06-.31-.42-.53-.62-.21-.19,.18-.33,.35-.42,.38-.21,.75-.02,.98,.23,.37,.41,.79,.6,1.41,.54"/>
    <path class="cls-1" d="M40.9,214.9c-.11,.13,.27,.41-.1,.44-.78,.06-.72,.75-.88,1.21-.1,.29-.19,.33-.44,.33-1.12,0-2.05-.92-2.51-1.91-.34-.73-.24-.86,.41-1.09,.46-.16,.32-.64,.32-1.02,0-.36,.02-.73-.01-1.09-.03-.25,.08-.29,.27-.29,.19,0,.48-.03,.4,.26-.27,1,.58,1.01,1.1,1.22,.8,.31,1.4,1.05,1.44,1.95"/>
    <path class="cls-1" d="M43.77,191.78c-.41-.16-.65-.5-1.05-.4-.17,.04-.33,0-.28-.26,.04-.18,1-1.43,1.11-1.42,.38,.05,.2,.34,.21,.52,.03,.49,0,.98,0,1.55"/>
    <path class="cls-1" d="M34.03,216.02c-.12-.02-.55,.12-.47-.31,.09-.5,.62-.43,.99-.51,.2-.04,.47-.08,.44,.29-.04,.55-.41,.58-.96,.53"/>
    <path class="cls-1" d="M34.32,212.09c.09-.29,.16-.53,.26-.83,.27,.26,.52,.49,.89,.83h-1.15Z"/>
    <path class="cls-1" d="M37.34,204.21c-.4-.37-.34-.68-.24-1.22,.36,.5,.22,.84,.24,1.22"/>
    <path class="cls-1" d="M200,171.43c.06-.53-.07-.85,.29-1.25,.61-.69,.61-1.71,.93-2.55,.36-.94,.57-1.93,.9-2.88,.31-.87,.49-1.84,.79-2.73,.34-.98,.79-1.97,.9-2.96,.17-1.42,1.05-1.05,1.85-1.06,.25,0,.51,0,.76,0,.67-.02,1.16-.14,1.24,.94,.09,1.19,.43,2.39,.65,3.58,.23,1.23,.41,2.47,.7,3.68,.28,1.15,.62,2.27,.82,3.46,.2,1.2,.47,2.4,.68,3.6,.19,1.11,.36,2.24,.66,3.33,.31,1.15,.39,2.35,.74,3.46,.36,1.13,.26,2.34,.74,3.43,.08,.18,.29,.52-.08,.63-.38,.11-.16-.32-.31-.45-.91-.79-1.42-2.2-2.78-2.27-1.3-.06-2.22-1.06-3.47-1.12-.32-.02-.27-.22-.26-.41,.12-1.8-.3-3.58-.16-5.37,.09-1.14,.36-2.25,.33-3.4-.02-.72-.4-1.02-1.04-1.31-1.35-.62-2.15,.57-3.21,.84-.53,.13-1.01,.48-1.66,.81"/>
    <path class="cls-1" d="M196.99,163.33c.24-1.2,1.3-1.7,2.06-2.33,.56-.45,.78-.92,1.09-1.5,.5-.95,1.2-1.8,1.83-2.67,.3-.41,.23-1.02,.75-1.29,.44-.23,.81-.54,1,.31,.13,.57,.08,.98-.11,1.53-.3,.87-.58,1.77-.78,2.69-.3,1.44-.79,2.84-1.2,4.26-.34,1.17-.67,2.35-1.01,3.52-.32,1.11-.86,2.21-1.2,3.3-.28,.89-.79,1.33-1.36,1.86-.2,.18-.39,.5-.69,.28-.28-.2-.59-.42-.58-.86,.02-1.24,.03-2.47,0-3.71-.01-.5,.36-.88,.61-1,1.02-.54,1.11-1.61,1.57-2.46,.21-.39-1-1.76-1.56-1.86-.13-.03-.27-.04-.42-.06"/>
    <path class="cls-1" d="M196.52,185.05c-.51,.5-.27,1.28-.62,1.9-.09,.16-.08,.48-.42,.41-.25-.05-.44-.24-.48-.43-.26-1.37-1.14-2.51-1.4-3.87-.05-.29-.51-.28-.36-.65,.06-.14-.07-.38,.13-.44,.16-.04,.45-.13,.52,.09,.2,.62,.88,1.04,.71,1.83-.17,.81,.27,.87,.91,.68,.37-.11,.87-.33,.99,.48"/>
    <path class="cls-1" d="M223.55,200.02c.28-.03,.37,.21,.52,.36,.15,.14,.46,.21,.37,.5-.08,.26-.33,.12-.5,.13-.3,.02-.48-.13-.48-.44,0-.18-.09-.39,.09-.55"/>
    <path class="cls-1" d="M215.53,159.27c.32-.35,.59-.64,.87-.95,.18,.72-.1,1.02-.87,.95"/>
    <path class="cls-1" d="M226.11,216.86c-.16-.4-.25-.77,.25-.95,.12-.04,.22-.08,.27,.05,.2,.5-.3,.62-.51,.9"/>
    <path class="cls-1" d="M311.67,193.15c.03,.16-.03,.24-.21,.27-.43,.07-.84,.61-1.26,.18-.21-.22-.44-.23-.56-.17-.97,.51-1.16-.35-1.56-.84-.17-.2-.16-.42,.04-.59,.53-.44,1.06-.86,1.59-1.3,.36-.29,.66-.16,.95,.11,.68,.64,.97,1.32,1,2.33"/>
    <path class="cls-1" d="M285.52,197.45c-.35-.02-.79,.2-.94-.12-.13-.27-.13-.72,.18-1.01,.27-.25,.26-.6,.28-.93,.02-.43,.33-.54,.64-.43,.67,.23,1.23,.73,1.96,.84,.13,.02,.1,.17,.1,.28,0,.24-.89,1.1-1.11,1.09-.12,0-.26-.04-.22-.17,.26-.97-.56-.57-.79-.51-.57,.14-.09,.56-.09,.95"/>
    <path class="cls-1" d="M282.8,194.16c.2-1.1-.13-1.77-.9-2.31,.94-.32,1.55,.16,2.15,.53,.36,.23,.18,.95-.24,1.03-.36,.07-.6,.28-1.01,.75"/>
    <path class="cls-1" d="M285.71,205.33c0,.5-.41,.65-.6,.55-.46-.23-.84-.61-1.25-.93,.17-.18,.32-.5,.5-.52,.3-.02,.7-.48,.88-.05,.15,.34,.35,.67,.46,.95"/>
    <path class="cls-1" d="M310.52,181.68c.06-.14-.2-.41,.06-.54,.26-.13,.34,.21,.54,.29l.15,.05c.15,.38,.97,.31,.7,.93-.15,.33-.64,.4-.93,.36-.53-.08-.58-.56-.52-1.09"/>
    <path class="cls-1" d="M285.48,192.1c-.32-.56,.16-.74,.37-1.03q.22,.44-.37,1.03"/>
    <path class="cls-1" d="M165.41,201c0,1.32-.5,1.66-1.82,1.22l-.16-.03c-.29-.07-.71,.17-.85-.14-.18-.38,0-.83,.14-1.21,.42-1.07,1.29-1.47,2.43-1.19,.22,.05,.26,.15,.26,.34,0,.34,0,.67,0,1.01"/>
    <path class="cls-1" d="M159.26,209.44c-.98-.02-1.11-.14-.91-1.03,.09-.42,.26-.83,.38-1.25,.19-.66,1.15-.82,1.63-.3,.31,.33,.75,.54,.84,1.08,.2,1.12-.67,1.56-1.95,1.5"/>
    <path class="cls-1" d="M152.02,203.24c-.38,.15-.7-.28-1.1-.49-.27-.14-.26-.47-.16-.57,.51-.52,.17-1.4,.8-1.83,.19-.13,2,.58,2.02,.76,.07,.69,.13,1.36-.54,1.89-.3,.23-.57,.14-1.01,.23"/>
    <path class="cls-1" d="M157.15,194.67c-.07-.9,.39-1.56,1.01-2.15,.16-.15,.39-.17,.55-.07,.29,.16,0,.33-.06,.48-.26,.63,.27,.85,.62,.96,.77,.22,.46,.46,.07,.7-.27,.16-.47,.45-.88,.37-.3-.06-.68-.13-.7,.42,0,.2-.26,.29-.47,.22-.22-.07-.12-.27-.14-.42-.02-.17,0-.34,0-.5"/>
    <path class="cls-1" d="M163.47,186.26c-1.03,.52-1.29-.54-1.89-.9-.12-.07-.16-.54,.06-.67,.37-.22,.63-.73,1.27-.41,.32,.16,.29,.31,.32,.54,.07,.49,.16,.98,.24,1.44"/>
    <path class="cls-1" d="M154.17,213.69h1.27c0,.52-.26,.65-.71,.68-.56,.04-.43-.4-.56-.68"/>
    <path class="cls-1" d="M155.75,216.15h-1.61c.55-.37,1.08-.37,1.61,0"/>
    <path class="cls-1" d="M127.62,201.1c.14,.53,.07,1.12-.71,1.38-.72,.24-1.27-.46-1.96-.37l-.1-.22c-.08-.83,.25-1.6,.81-2.09,.46-.4,1.23-.11,1.86-.12,.19,0,.11,.21,.11,.34,0,.31,0,.62,0,1.08"/>
    <path class="cls-1" d="M115.81,201.71c0,1.18-.28,1.5-1.31,1.5-.57,0-1.25-.09-1.35-.68-.15-.89,.55-2.02,1.04-2.02,1.51,.02,1.62,.1,1.62,1.2"/>
    <path class="cls-1" d="M121.76,209.3c-.22,.02-.45,.05-.67,.04-.16,0-.35-.03-.43-.2-.2-.42,.53-2.26,.97-2.48,.58-.28,1.7,.51,1.78,1.26,.12,1.08-.19,1.35-1.65,1.37"/>
    <path class="cls-1" d="M122.16,194.01c-.46,.57-.81,1.05-1.55,.94-.29-.05-.62-.07-.61,.41,0,.2-.17,.27-.36,.24-.15-.02-.14-.14-.15-.25-.09-.87,.21-1.67,.44-2.48,.05-.19,.43-.54,.79-.45,.39,.1,.07,.42,.12,.63,.16,.61,.61,.86,1.32,.96"/>
    <path class="cls-1" d="M125.22,186.34c-.39,0-1.52-.89-1.42-1.16,.19-.52,.49-1.12,1.14-.98,.97,.2,.42,1.22,.79,1.79,.24,.37-.26,.33-.51,.35"/>
    <path class="cls-1" d="M117.19,213.66c.17,.1,.52-.19,.52,.21,0,.57-.52,.52-.87,.62-.31,.09-.33-.12-.36-.38-.06-.66,.42-.4,.71-.46"/>
    <path class="cls-1" d="M118.25,216.16c-.69,.02-1.22,.1-1.74-.17,.53-.08,1.07-.31,1.74,.17"/>
    <path class="cls-1" d="M346.63,192.36c-.03-.37-.04-.58,.29-.7,.27-.1,.5-.33,.72-.53,.9-.81,1.79-.55,2.16,.65,.06,.21,.05,.43,.17,.63,.18,.31,.38,.87,.07,.93-.44,.08-.89,.84-1.43,.15-.08-.11-.37-.1-.55-.07-.34,.06-.75,.37-1,.04-.25-.33-.31-.81-.42-1.11"/>
    <path class="cls-1" d="M350.49,182.45c-.15,.37-.68,.32-.91,.3-.61-.06-.59-.74-.75-1.18-.12-.34,.23-.28,.43-.28,.34,0,1.25,.81,1.23,1.17"/>
    <path class="cls-1" d="M74.27,200.34c-.55,0-1.09,0-1.64,0l-.24-.03c-.4-.52-.81-1.2-.75-1.73,.08-.65,.72-1.23,1.46-1.42,.19-.05,.41-.15,.46,.4,.08,.87-.31,2,.86,2.6l-.14,.2Zm-1.99-1.77c-.08,.29,.07,.46,.49,.43,.33-.02,.55-.1,.52-.48-.02-.42-.32-.51-.67-.55-.42-.05-.33,.25-.34,.59"/>
    <path class="cls-1" d="M71.94,209.15c.05,.31-.02,.51-.42,.47-.29-.03-.63,.1-.6-.42,.02-.26,.11-.56-.1-.8-.14-.16-.4-.36-.12-.53,.26-.15,.8,0,.81,.12,.04,.43,.49,.69,.42,1.15"/>
    <path class="cls-1" d="M71.94,212.56c.23-.48,.77-.64,1.24-.83,.43-.18,.8,.11,1.08,.37,.15,.14,.06,.5-.26,.38-.56-.22-.93,.01-1.29,.37-.18,.18-.41,.17-.62,.14-.18-.03-.13-.21-.14-.41"/>
    <path class="cls-1" d="M74.12,186.87c.28-.41,.56-.81,.82-1.21,.29,.08,.22,.29,.2,.43-.07,.45,.05,.67,.54,.59,.24-.04,.5-.06,.49,.35-.01,.43-.3,.29-.52,.32-.54,.08-.89-.58-1.53-.48"/>
    <path class="cls-1" d="M235.28,201.28c-.04-.26,.15-.41,.3-.48,.7-.34,.38-.89,.06-1.09-.43-.27-.46-.61-.35-.9,.14-.39,.57-.56,.97-.65,.15-.04,.53,.02,.27,.25-.55,.49-.22,.68,.17,.99,.4,.32,.74,.7-.06,1.02-.26,.11-.45,.41-.66,.64-.2,.21-.39,.41-.7,.22"/>
    <path class="cls-1" d="M244.43,194.56c-.55,.05-1.09,0-1.26,.62l-.28,.04c-.14-.11-.28-.36-.19-.41,.39-.21,.42-.75,.84-.87,.41-.12,.66,.14,.89,.62"/>
    <path class="cls-1" d="M233.27,183.48c.29-.21,.58-.44,.87-.64l.39,.02c.13,.14,0,.26-.11,.34-.3,.23-.45,.75-.97,.57l-.18-.28Z"/>
    <path class="cls-1" d="M242.77,208.3c-.41,.72-.75,.37-1.22,.13,.43-.26,.77-.15,1.22-.13"/>
    <path class="cls-1" d="M234.05,184.98c.2,.35,.31,.69,.06,1l-.3-.04c-.24-.39,.28-.59,.24-.95"/>
    <path class="cls-1" d="M272.05,210.83c-.02,.19-.04,.29-.19,.29l-.33,.02c-.37,.11-.66,.77-.91,.57-.47-.39-.78-1-1.09-1.55-.39-.68-.79-1.34-1.3-1.92-.29-.34-.35-.48,.09-.74,.53-.31,.71-.72,.06-1.15l-.3-.3c-.11-.14-.15-.33-.01-.45,.13-.12,.25,.02,.34,.12,1.04,1.02,1.98,2.12,2.86,3.3,.46,.63,.09,1.45,.78,1.8"/>
    <path class="cls-1" d="M269.4,220.91c-.52,.01-1.44-.79-1.31-1.13,.18-.44,.5-.9,.99-1.04,.41-.11,1.7,1.04,1.54,1.4-.21,.48-.79,.69-1.23,.77"/>
    <path class="cls-1" d="M250,191.94c.46-.31,.76-.69,1.29-.56,.18,.05,.5-.11,.5,.27,0,.25,.12,.57-.09,.71-.14,.1-.42,.16-.61-.18-.17-.29-.64,0-1.08-.24"/>
    <path class="cls-1" d="M175.88,216.91c-.08,.25,.18,.7-.37,.62-.45-.06-.56-.51-.63-.83-.11-.54,.39-.3,.62-.35,.6-.14,.28,.35,.38,.56"/>
    <path class="cls-1" d="M138.1,217.02c-.14,.21,.2,.71-.24,.62-.31-.06-.66-.49-.76-.83-.12-.4,.38-.4,.63-.43,.58-.07,.24,.42,.36,.64"/>
    <path class="cls-1" d="M359.42,233.96c.1,.47,.07,.87-.11,1.27-.26,.59-.62,1.15-1.28,1.14-.64-.01-1.17-.38-1.46-1.05-.55-1.29-.41-2.56,.42-3.31,.6-.54,1.71-.36,2.02,.35,.22,.52,.63,1.01,.41,1.6"/>
    <path class="cls-1" d="M271.8,234.46c-.17,.33,.02,1.05-.6,1.57-.96,.81-1.76,.34-2.38-.78-.5-.93-.18-1.77,.03-2.63,.19-.76,.8-.92,1.53-.91,.69,0,.97,.44,1.11,.96,.13,.5,.47,.97,.3,1.8"/>
    <path class="cls-1" d="M330.52,234.41c.98-.04,.99-.04,.73,.89-.21,.75-.85,.93-1.48,1.09-.53,.14-1.03,.11-1.36-.45-.25-.41-.33-.79,.17-1,.63-.27,1.25-.59,1.95-.53"/>
    <path class="cls-1" d="M253.65,235.08c.26,.7-.46,.95-.85,1.14-.53,.26-1.21,.45-1.8-.02-.33-.26-.22-.62-.18-.93,.04-.4,.41-.57,.74-.66,.55-.15,1.12-.23,1.69-.33,.41-.07,.42-.04,.41,.8"/>
    <path class="cls-1" d="M235.51,234.4c.37,.02,.72-.22,.87,.1,.17,.37-.02,.81-.18,1.12-.33,.65-1.28,.87-2.03,.67-.51-.14-.86-.31-.78-.95,.07-.57,.53-.66,.91-.74,.43-.09,.85-.32,1.21-.2"/>
    <path class="cls-1" d="M345.75,235.48c-.13-.56,.35-.74,.78-.88,.52-.16,1.07-.24,1.61-.34,.28-.05,.46,.02,.49,.38,.06,.79-.44,1.51-1.22,1.64-.25,.04-.51,.04-.75,.1-.71,.16-.91-.21-.9-.91"/>
    <path class="cls-1" d="M368.18,236.44c-.51,.11-.81-.18-.95-.71-.2-.72,.4-.95,.83-1.11,.55-.2,1.18-.21,1.78-.27,.42-.04,.47,.28,.38,.55-.31,.9-.89,1.53-2.04,1.54"/>
    <path class="cls-1" d="M299.19,233.39h-1.1c-.64,0-.75-.37-.46-.82,.44-.68,1.1-.94,1.94-.88,.67,.05,.78,.64,1.09,1,.2,.23,.23,.8-.46,.71-.33-.04-.67,0-1.01,0h0Z"/>
    <path class="cls-1" d="M281.17,233.4c-.31,0-.62,.02-.92,0-.2-.02-.51,.13-.59-.15-.09-.28-.15-.68,.07-.88,.53-.49,1.17-.8,1.92-.64,.52,.11,.85,.46,1.04,.97,.2,.53,.05,.73-.51,.69-.33-.02-.67,0-1,0v.02Z"/>
    <path class="cls-2" d="M72.28,198.56c.01-.34-.08-.64,.34-.59,.35,.04,.64,.13,.67,.55,.02,.38-.2,.45-.52,.48-.42,.03-.57-.14-.49-.43"/>
  </g>
</svg>