<svg xmlns="http://www.w3.org/2000/svg" xmlns:xlink="http://www.w3.org/1999/xlink" version="1.1" width="1920" height="1080" viewBox="0 0 1920 1080">
<defs>
<clipPath id="clip_0">
<path transform="matrix(1,0,0,-1,0,1080)" d="M0 0H1920V1080H0Z"/>
</clipPath>
<g id="pattern_tile_1">
<path transform="matrix(1,0,0,-1,-294.941,-165.90003)" d="M344.681 0H0V234.723H344.681Z" fill="#202b6d"/>
<path transform="matrix(1,0,0,-1,-184.35631,-353.65254)" d="M0 0C.141 2.368-.128 4.755 .455 7.111 .715 8.163 1.089 8.536 2.254 8.474 7.836 8.179 13.316 7.157 18.825 6.331 19.998 6.155 20.516 5.634 20.549 4.452 20.578 3.412 20.652 2.07 22.081 2.222 23.635 2.387 23.313 3.815 23.27 4.906 23.256 5.271 23.099 5.628 23.031 5.994 22.326 9.805 25.225 13.275 29.11 13.374 31.206 13.428 33.202 12.844 34.81 11.733 38.956 8.869 39.293 5.218 34.961 2.565 33.768 1.834 32.393 1.406 31.132 .778 30.529 .478 29.92 .018 30.065-.764 30.235-1.691 31.077-1.479 31.705-1.494 36.39-1.607 40.745 2.624 40.742 7.286 40.737 16.598 40.921 25.88 43.411 34.963 43.941 36.897 45.056 37.728 46.865 37.756 48.708 37.785 51.132 36.004 51.279 34.511 51.461 32.676 50.105 31.885 48.675 31.331 47.304 30.8 47.1 30.004 47.26 28.559 48.234 19.705 49.597 10.878 48.855 1.904 48.156-6.547 46.256-14.69 43.093-22.535 40.522-28.913 36.669-34.429 31.527-39.022 30.56-39.885 29.882-40.89 30.733-42.136 33.501-46.191 36.203-50.3 39.172-54.204 41.86-57.739 42.064-57.73 38.362-60.178 35.508-62.064 32.486-63.715 28.868-63.601 27.921-63.571 27.003-63.38 26.628-62.444 26.236-61.465 26.931-60.672 27.582-60.113 28.535-59.293 29.652-58.664 30.701-57.956 32.918-56.46 32.977-56.104 31.331-53.983 28.547-50.395 25.579-46.961 22.445-43.679 21.469-42.657 21.409-41.901 22.319-40.841 24.257-38.584 26.156-36.289 27.989-33.946 30.082-31.269 29.522-29.727 26.091-29.163 22.724-28.61 19.331-28.196 15.892-28.146 14.107-28.12 13.271-28.758 13.08-30.457 12.724-33.635 12.314-36.807 11.989-39.988 11.543-44.347 11.154-48.712 10.742-53.074 10.68-53.735 10.744-54.416 9.823-54.615 5.925-55.454 2.034-55.949-1.79-54.346-2.902-53.88-4.09-53.181-3.951-51.801-3.81-50.393-2.582-49.694-1.314-49.389 .428-48.97 2.191-48.951 4.003-49.18 6.548-49.502 7.158-48.843 7.162-46.287 7.174-39.431 7.202-32.574 7.159-25.718 7.15-24.314 7.506-23.531 9.024-23.249 10.771-22.925 12.452-22.256 14.184-21.834 16.187-21.346 17.265-20.127 17.39-18.091 17.723-12.673 18.002-7.251 18.377-1.836 18.48-.358 17.921 .449 16.509 .664 13.137 1.18 9.77 1.77 6.379 2.124 3.979 2.374 3.455 1.782 3.582-.684 3.762-4.181 4.739-7.56 5.278-11.005 6.007-15.657 4.844-16.775 .098-16.045-.706-15.922-1.496-15.666-2.271-15.407-2.92-15.191-3.536-14.861-3.546-14.04-3.555-13.19-3.051-12.642-2.326-12.33-1.784-12.096-1.2-11.933-.619-11.826 .734-11.578 .952-10.804 .742-9.547 .215-6.393-.118-3.212 0 0M25.063-32.44C23.322-34.382 21.829-36.022 20.368-37.69 19.83-38.304 19.364-38.981 18.87-39.633 17.528-41.399 17.377-42.94 19.182-44.667 22.278-47.631 24.39-51.5 27.839-54.185 29.05-55.129 28.654-56.65 27.182-57.272 25.027-58.184 24.059-59.991 23.725-62.112 23.363-64.415 24.635-65.978 26.946-66.393 29.208-66.8 31.417-66.523 33.532-65.673 37.448-64.099 40.742-61.5 44.124-59.064 45.368-58.168 45.21-57.15 44.083-56.108 39.76-52.108 37.302-46.716 33.737-42.147 33.028-41.239 33.81-40.831 34.311-40.33 36.742-37.898 38.966-35.281 40.824-32.397 46.055-24.273 48.758-15.234 50.627-5.826 52.716 4.686 51.467 15.099 50.34 25.537 50.143 27.36 50.284 28.607 51.882 29.922 55.604 32.986 54.565 37.859 50.021 39.627 45.676 41.317 42.507 40.055 40.872 35.707 38.931 30.548 38.815 25.066 38.422 19.647 38.267 17.495 38.156 15.341 38.027 13.234 37.092 12.89 36.658 13.566 36.145 13.91 34.315 15.138 32.305 15.92 30.159 16.276 25.941 16.976 22.007 14.55 20.898 10.384 20.465 8.76 19.842 8.516 18.295 8.72 12.689 9.458 7.167 10.924 1.449 10.745-1.516 10.652-1.954 10.344-2.275 7.315-2.802 2.334-2.868-2.661-2.074-7.621-1.883-8.817-2.126-9.384-3.297-9.745-5.092-10.299-6.685-11.283-6.657-13.41-6.629-15.628-5.337-17.159-3.301-17.997 .274-19.469 3.881-18.953 7.451-17.995 8.842-17.622 8.874-16.366 8.678-15.231 8.145-12.157 7.389-9.117 6.978-6.029 6.162 .106 5.961-.593 11.389-1.728 15.143-2.513 15.143-2.51 14.938-6.353 14.759-9.701 14.534-13.048 14.429-16.399 14.382-17.886 13.852-18.68 12.329-19.017 10.297-19.467 8.338-20.236 6.313-20.726 4.63-21.134 4.07-22.092 4.086-23.769 4.148-30.179 4.007-36.593 4.17-43 4.229-45.299 3.581-46.301 1.25-46.177-.657-46.077-2.415-46.748-4.129-47.504-7.543-49.011-8.233-52.276-5.741-55.101-3.559-57.575-.629-58.343 2.481-58.594 5.39-58.828 8.276-58.478 11.173-58.176 13.423-57.942 14.198-56.753 14.319-54.71 14.575-50.397 14.867-46.086 15.19-41.777 15.423-38.656 15.764-35.543 15.986-32.421 16.068-31.277 16.442-30.85 17.643-31.093 19.965-31.562 22.372-31.584 25.063-32.44" fill="#202b8f"/>
<path transform="matrix(1,0,0,-1,-243.766,-290.20094)" d="M0 0C-2.999-.042-3.906 .982-3.363 3.828-3.084 5.287-2.817 6.75-2.467 8.193-1.929 10.412-.218 9.266 1.022 9.292 2.409 9.321 2.458 8.375 2.271 7.279 2.009 5.755 1.459 4.249 1.911 2.66 2.542 .439 2.239 .032 0 0M33.639-.959C29.558-.985 28.493 .026 28.767 4.012 29.181 10.03 29.693 16.043 30.283 22.046 30.473 23.979 29.606 24.807 27.92 25.14 27.263 25.27 26.595 25.382 25.928 25.411 25.062 25.448 24.027 25.678 23.823 24.38 23.653 23.296 24.315 22.798 25.227 22.402 27.187 21.551 27.554 20.199 26.071 18.761 23.723 16.485 21.223 14.353 18.054 13.268 13.394 11.672 8.577 11.245 3.718 11.842-4.268 12.823-11.646 15.419-17.921 20.641-19.414 21.883-20.65 22.014-22.145 20.521-24.199 18.471-26.578 16.783-28.913 15.047-30.734 13.693-32.216 14.052-33.687 15.384-35.507 17.033-37.291 18.725-39.038 20.452-39.553 20.961-39.984 21.611-40.281 22.273-40.605 22.995-41.009 23.86-40.271 24.56-39.445 25.343-38.746 24.613-38.094 24.18-36.109 22.86-34.17 21.473-32.173 20.172-30.519 19.096-29.116 19.326-28.011 21.084-26.784 23.036-25.536 24.981-24.191 26.853-21.8 30.179-21.544 30.214-17.794 28.585-14.652 27.22-11.515 25.847-8.365 24.501-7.37 24.076-6.303 23.805-5.507 24.823-4.714 25.839-5.537 26.637-6.061 27.42-10.328 33.793-14.801 40.031-18.611 46.703-20.904 50.72-22.988 54.832-24.527 59.203-24.934 60.359-25.277 61.567-24.036 62.443-21.711 64.085-19.264 65.579-16.433 66.086-14.495 66.433-12.15 66.324-11.257 64.418-10.266 62.302-12.298 61.147-13.881 60.118-14.006 60.037-14.128 59.95-14.251 59.867-16.568 58.31-16.691 57.754-15.175 55.356-10.76 48.372-6.05 41.56-2.824 33.891-1.953 31.819-.77 29.925 .649 28.18 1.279 27.406 2.014 27.069 2.998 27.573 3.957 28.066 3.882 28.938 3.688 29.709 3.474 30.563 3.049 31.373 2.647 32.167 2.309 32.836 2.273 33.396 2.787 34.006 5.318 37.015 8.05 39.685 12.143 40.47 13.518 40.734 14.337 40.588 14.361 38.975 14.372 38.271 14.644 37.571 15.463 37.537 16.286 37.503 16.807 38.044 17.089 38.822 17.531 40.044 17.433 41.32 17.516 42.579 17.811 47.069 21.666 49.365 25.77 47.516 26.798 47.052 27.726 46.456 28.605 45.752 31.242 43.64 31.095 40.623 28.208 38.794 27.013 38.037 25.768 37.381 24.307 37.208 23.462 37.108 22.58 36.644 22.677 35.707 22.77 34.812 23.689 34.499 24.549 34.417 26.028 34.277 27.307 34.878 28.588 35.513 29.355 35.892 30.093 36.552 31.071 35.937 32.517 35.028 34.154 34.434 35.447 33.27 36.837 32.019 37.582 30.682 37.363 28.605 36.582 21.188 34.951 13.923 33.667 6.598 33.359 4.844 33.402 3.41 34.837 2.165 35.564 1.535 36.288 .664 35.774-.367 35.341-1.235 34.301-.799 33.639-.959M-11.726 29.261C-14.096 29.681-15.551 30.764-17.143 31.507-21.091 33.351-22.776 32.992-25.425 29.635-26.719 27.997-28.114 26.424-29.247 24.68-30.23 23.166-31.253 23.144-32.563 24.05-34.033 25.065-35.475 26.123-36.961 27.114-38.757 28.312-40.723 28.896-42.552 27.398-44.213 26.038-43.973 24.049-43.457 22.225-42.703 19.563-41.022 17.452-38.953 15.69-37.026 14.048-34.952 12.58-32.99 10.979-31.754 9.971-30.605 9.997-29.342 10.9-26.554 12.894-23.734 14.844-20.936 16.824-20.243 17.315-19.693 17.723-18.813 16.957-15.481 14.052-11.405 12.549-7.286 11.212-5.853 10.747-5.508 10.106-5.763 8.651-6.226 6.012-6.428 3.328-6.785 .67-6.987-.829-6.43-1.843-4.978-2.212-2.127-2.936 .774-3.229 3.64-2.393 6.396-1.589 7.164-.065 5.91 2.424 4.896 4.435 5.826 6.297 5.933 8.206 5.988 9.184 7.12 8.885 7.807 8.9 12.017 8.99 16.116 9.619 20.043 11.213 22.122 12.056 23.963 13.29 25.931 14.806 25.931 12.836 25.998 11.101 25.916 9.373 25.782 6.545 25.586 3.718 25.346 .896 25.228-.481 25.775-1.328 26.967-1.968 30.593-3.914 34.368-4.015 38.259-3.039 39.346-2.766 39.859-1.995 40.022-.964 40.254 .509 40.172 2.222 38.84 2.872 35.551 4.478 36.502 7.023 36.957 9.52 38.037 15.458 39.149 21.388 40.146 27.343 40.974 32.288 39.069 35.432 34.926 37.545 33.476 38.284 33.162 39.005 33.509 40.633 34.135 43.565 33.071 45.842 30.423 47.636 27.934 49.323 25.438 50.619 22.417 50.556 19.148 50.488 16.662 48.991 15.396 45.93 14.67 44.174 13.962 43.229 11.695 43.37 8.998 43.539 6.62 41.875 4.656 40.16 .16 36.234 .243 36.136-2.666 41.267-5.5 46.265-8.773 50.983-12.047 55.69-13.019 57.087-12.908 57.855-11.629 58.768-10.783 59.372-10.015 60.089-9.234 60.78-7.717 62.124-6.916 63.678-7.791 65.736-8.675 67.817-10.099 69.198-12.452 69.323-17.488 69.592-21.761 67.673-25.648 64.664-29.356 61.793-29.479 61.144-27.517 56.805-23.729 48.425-18.882 40.648-14.03 32.871-13.364 31.805-12.678 30.752-11.726 29.261" fill="#202b8f"/>
<path transform="matrix(1,0,0,-1,-218.33531,-365.75303)" d="M0 0C-.299-6.848-1.985-13.189-6.69-18.468-7.163-18.999-8.033-19.888-7.088-20.816-6.205-21.684-5.338-21.056-4.703-20.517-1.799-18.055 .02-14.794 1.539-11.391 3.598-6.778 2.953-1.869 2.828 2.971 2.803 3.908 2.22 4.316 1.395 4.349 .457 4.387 .092 3.676 .021 2.901-.067 1.941 0 .968 0 0" fill="#202b8f"/>
<path transform="matrix(1,0,0,-1,-129.78151,-319.22096)" d="M0 0C.037 .861-.171 1.65-.569 2.381-.858 2.911-1.201 3.403-1.946 3.285-2.755 3.158-3.147 2.632-3.108 1.89-2.866-2.66-5.191-6.22-7.508-9.804-7.94-10.471-9.129-11.233-8.16-12.054-7.145-12.913-5.873-12.254-5.183-11.391-2.508-8.042-.465-4.364 0 0" fill="#202b8f"/>
<path transform="matrix(1,0,0,-1,-209.11872,-358.90873)" d="M0 0C-.099 .543-.156 1.138-.324 1.7-.518 2.349-.816 3.071-1.645 2.966-2.371 2.873-2.812 2.25-2.849 1.545-3.091-3.045-5.277-6.82-7.785-10.473-8.333-11.271-8.563-12.192-7.738-12.888-6.942-13.56-6.143-12.903-5.536-12.436-4.843-11.903-4.197-11.227-3.742-10.484-1.777-7.276-.611-3.767 0 0" fill="#202b8f"/>
<path transform="matrix(1,0,0,-1,-221.72281,-364.3593)" d="M0 0C-.02 .233-.101 1.119-.171 2.006-.241 2.894-.651 3.378-1.603 3.255-2.425 3.149-3.027 2.799-3.043 1.878-3.066 .616-3.01-.648-3.065-1.907-3.208-5.126-4.062-8.061-6.624-10.251-7.177-10.724-7.587-11.236-7.164-11.966-6.669-12.82-5.891-12.635-5.207-12.304-3.288-11.374-2.239-9.638-1.403-7.81-.373-5.557 .037-3.14 0 0" fill="#202b8f"/>
<path transform="matrix(1,0,0,-1,-141.78821,-312.8034)" d="M0 0C.328-1.151 1.002-1.333 1.981-.706 3.671 .376 4.779 1.926 5.441 3.778 5.912 5.098 6.258 6.464 6.627 7.818 6.846 8.62 6.45 9.093 5.686 9.283 5.07 9.436 4.439 9.443 4.215 8.714 3.296 5.728 2.238 2.82 .114 .432 .029 .337 .039 .157 0 0" fill="#202b8f"/>
<path transform="matrix(1,0,0,-1,-272.6554,-333.90663)" d="M0 0C-.128 .97 .165 1.934-.969 2.189-2.246 2.476-2.408 1.434-2.707 .631-3.686-1.998-4.135-4.831-5.711-7.23-6.154-7.904-5.845-8.368-5.31-8.722-4.448-9.293-3.713-8.92-3.196-8.204-1.384-5.694-.359-2.874 0 0" fill="#202b8f"/>
<path transform="matrix(1,0,0,-1,-153.9118,-374.76405)" d="M0 0C-.023-.442-.05-.884-.066-1.327-.095-2.09 .261-2.616 .989-2.813 1.816-3.036 2.296-2.46 2.5-1.835 2.979-.368 3.335 1.139 3.724 2.635 3.969 3.579 3.885 4.472 2.84 4.84 1.75 5.223 .992 4.611 .518 3.691-.076 2.535 .03 1.251 0 0" fill="#202b8f"/>
<path transform="matrix(1,0,0,-1,-156.98291,-375.80723)" d="M0 0C-.013 1.174 .178 2.378-.548 3.445-1.113 4.275-1.857 4.601-2.843 4.384-3.883 4.156-3.7 3.317-3.712 2.609-3.737 1.193-3.674-.238-3.009-1.514-2.616-2.269-2.153-3.206-1.048-3.013 .173-2.8-.005-1.77 0-.889 .001-.593 0-.296 0 0" fill="#202b8f"/>
<path transform="matrix(1,0,0,-1,-162.25312,-372.91874)" d="M0 0C-.283 1.665-1.115 3.265-2.565 4.541-3.131 5.04-3.761 5.195-4.401 4.861-5.213 4.437-4.85 3.697-4.674 3.091-4.218 1.512-3.379 .121-2.463-1.232-2.019-1.888-1.444-2.051-.735-1.812 .045-1.55 .212-.96 0 0" fill="#202b8f"/>
<path transform="matrix(1,0,0,-1,-167.3117,-365.53504)" d="M0 0C.806 .185 1.249 .658 .881 1.58 .157 3.397-.832 5.03-2.404 6.261-3.002 6.729-3.586 6.833-4.241 6.408-4.97 5.935-4.828 5.309-4.602 4.637-4.087 3.11-1.003-.068 0 0" fill="#202b8f"/>
<path transform="matrix(1,0,0,-1,-97.85991,-322.14283)" d="M0 0C.082-.645 .171-1.293 .196-1.941 .296-4.477 .252-4.343-2.368-5.029-5.494-5.847-8.567-6.885-11.514-8.242-12.793-8.83-13.51-9.705-13.56-11.256-13.611-12.873-14.989-13.497-16.099-12.504-17.305-11.424-17.652-9.953-17.614-8.354-17.577-6.809-16.513-6.51-15.32-6.065-12.791-5.12-10.327-3.997-7.852-2.91-5.717-1.972-5.303-1.285-6 .844-7.451 5.28-8.203 9.846-8.832 14.447-9.105 16.449-8.899 16.748-6.846 17.328-5.812 17.621-4.779 17.961-3.805 18.408-3.317 18.632-3.061 19.187-3.192 19.798-3.34 20.49-3.889 20.557-4.442 20.551-5.958 20.533-7.472 20.629-8.968 20.167-11.401 19.414-13.701 19.89-15.801 21.255-17.252 22.199-17.667 23.494-17.234 25.208-15.815 30.833-8.287 34.422-3.739 29.684-3.079 28.996-2.332 28.373-1.553 27.824-1.057 27.475-.468 27.023 .201 27.638 .881 28.263 .943 28.958 .424 29.667-.551 31.002-1.833 31.976-3.242 32.846-5.56 34.279-5.571 34.415-4.407 36.938-3.087 39.795-1.521 42.521 .098 45.218 .599 46.052 1.045 46.943 1.352 47.863 1.843 49.337 1.621 50.763 .185 51.574-1.427 52.485-2.73 53.811-4.402 54.653-6.169 55.542-7.209 57.118-6.959 59.177-6.672 61.545-5.482 63.453-3.493 64.814-3.027 65.133-2.681 64.85-2.419 64.466-1.839 63.616-1.639 62.639-1.809 61.66-2.111 59.92-1.214 59.132 .244 58.531 2.335 57.668 4.331 56.57 6.438 55.754 7.956 55.167 8.329 54.202 8.155 52.719 7.925 50.765 7.353 48.916 6.607 47.118 5.818 45.219 4.937 43.358 4.124 41.469 3.869 40.876 3.614 40.26 3.509 39.63 2.894 35.954 3.366 35.041 6.998 34.403 13.338 33.289 19.015 30.584 24.08 26.864 32.19 20.906 37.713 13.104 39.542 2.927 40.127-.325 40.242-3.542 40.123-6.796 39.997-10.254 40.548-9.727 43.013-10.516 44.116-10.869 45.388-10.869 46.564-10.781 48.775-10.616 50.868-11.265 53.006-11.553 54.955-11.815 55.304-12.467 55.114-14.493 55.065-15.025 54.944-15.562 54.771-16.067 53.367-20.198 51.377-24.04 48.967-27.667 48.67-28.115 48.305-28.56 47.874-28.87 46.561-29.816 44.843-29.175 44.683-27.566 44.515-25.869 44.384-24.179 45.258-22.486 46.563-19.957 46.174-19.296 43.445-18.711 40.177-18.011 36.879-17.447 33.616-16.728 30.3-15.997 30.358-15.875 30.15-12.392 29.949-9.037 29.518-5.696 29.615-2.325 29.628-1.895 29.653-1.402 29.231-1.173 28.78-.928 28.397-1.265 28.094-1.569 26.477-3.187 24.828-4.777 23.277-6.456 18.483-11.646 14.088-17.199 8.984-22.105 7.727-23.313 6.532-24.592 5.217-25.733 2.838-27.796 .209-27.933-2.526-26.265-3.82-25.475-5.138-24.722-6.419-23.912-6.963-23.567-7.476-23.154-7.935-22.703-8.349-22.296-8.424-21.739-8.229-21.186-8.003-20.544-7.432-20.589-6.894-20.536-4.69-20.319-2.511-20.701-.493-21.405 1.502-22.101 2.912-21.561 4.16-20.186 5.837-18.337 7.571-16.507 9.004-14.474 12.441-9.594 16.194-4.971 19.951-.342 22.893 3.282 22.7 4.182 18.551 6.327 15.282 8.017 11.885 9.433 8.377 10.563 6.85 11.056 5.215 11.214 3.924 12.371 3.246 12.979 2.254 12.768 1.395 12.782-.569 12.816-.93 12.488-1.086 10.64-1.131 10.099-1.093 9.551-1.093 8.512-.77 6-.381 3 0 0M2.79 7.929C2.791 8.796 3.185 9.11 4.012 8.773 8.545 6.928 13.076 5.076 17.611 3.235 18.469 2.887 18.433 2.508 17.882 1.812 12.816-4.589 7.768-11.004 2.763-17.452 1.832-18.651 .856-19.014-.597-18.519-3.198-17.635-5.898-17.202-8.641-17.499-12.18-17.881-13.207-20.334-11.13-23.261-10.878-23.615-10.624-23.977-10.317-24.28-7.662-26.891-4.589-28.895-1.276-30.574 .942-31.698 2.943-31.398 4.702-29.764 8.286-26.436 12.084-23.34 15.392-19.71 18.251-16.572 21.229-13.54 24.169-10.477 24.695-9.929 25.253-9.392 25.872-8.96 26.593-8.458 27.126-8.732 27.155-9.608 27.209-11.242 27.192-12.878 27.189-14.513 27.182-18.517 27.485-18.902 31.379-19.711 31.912-19.821 32.454-19.895 32.994-19.963 35.583-20.285 38.168-20.653 40.764-20.895 42.009-21.011 42.516-21.506 42.344-22.755 42.211-23.726 42.166-24.709 42.086-25.687 41.986-26.903 42.15-28.072 42.659-29.194 43.877-31.884 45.569-32.472 48.164-31.104 49.651-30.321 50.743-29.114 51.725-27.799 55.118-23.253 57.025-18.111 57.973-12.543 58.253-10.903 57.722-10.12 56.236-9.669 53.11-8.719 49.941-7.969 46.719-7.423 43.267-6.838 43.261-6.808 43.032-3.309 42.512 4.654 40.745 12.367 35.92 18.777 28.943 28.045 19.97 34.788 8.385 37.371 6.746 37.736 6.87 38.305 7.272 39.479 8.786 43.908 10.263 48.35 11.731 52.794 12.508 55.149 12.434 55.311 10.473 56.841 8.626 58.281 6.394 58.89 4.246 59.622 2.146 60.338 1.113 61.591 .832 63.83 .404 67.245-.408 67.725-3.795 67.346-5.448 67.162-6.626 66.293-7.477 64.947-8.719 62.983-9.386 60.82-9.655 58.509-9.874 56.622-9.301 55.129-7.888 53.85-6.344 52.451-4.625 51.318-2.904 50.169-1.166 49.01-1.14 48.96-2.121 47.063-3.971 43.489-5.9 39.954-7.751 36.38-8.428 35.071-9.198 34.248-10.842 33.927-13.649 33.378-16.139 31.942-18.054 29.725-21.8 25.388-20.931 20.827-15.918 18.325-15.82 18.277-15.731 18.205-15.629 18.173-13.151 17.379-12.093 15.548-11.646 13.093-10.962 9.346-10.108 5.629-9.327 1.9-8.885-.213-8.903-.175-10.934-1.108-13.604-2.334-16.262-3.588-18.889-4.904-21.09-6.007-21.458-6.722-21.011-9.037-20.613-11.097-19.746-12.981-18.348-14.564-15.442-17.855-11.55-17.129-10.415-12.932-10.024-11.486-9.309-11.038-8.127-10.637-5.139-9.622-2.189-8.499 .799-7.484 3.761-6.477 3.297-6.478 3.162-4.139 3.011-1.535 2.535 1.055 2.79 3.89 2.79 5.095 2.788 6.512 2.79 7.929" fill="#202b8f"/>
<path transform="matrix(1,0,0,-1,22.1604,-327.55033)" d="M0 0C-.024 2.252-.548 2.833-2.588 2.357-7.935 1.11-13.266-.23-18.568-1.684-19.804-2.023-21.567-2.439-21.724-3.997-21.868-5.426-20.145-5.81-19.142-6.493-16.544-8.261-13.891-9.937-11.286-11.694-9.265-13.057-9.092-13.617-10.052-15.894-11.808-20.057-13.577-24.215-15.425-28.33-16.107-29.85-15.863-30.452-14.264-30.569-11.843-30.744-9.587-31.642-7.393-32.719-6.747-33.036-6.103-33.483-6.207-34.304-6.325-35.235-7.098-35.492-7.881-35.506-12.147-35.582-16.339-35.035-20.471-33.862-21.535-33.561-21.475-32.972-21.254-32.104-20.265-28.204-19.3-24.297-18.327-20.393-18.135-19.626-17.915-18.865-17.761-18.088-17.476-16.652-17.937-15.715-19.274-15.152-22.479-13.803-25.649-12.356-28.828-10.936-35.999-7.735-39.509-1.92-39.408 6.42-39.34 12.044-39.659 17.761-37.914 23.156-36.083 28.821-36.692 28.501-41.424 29.852-46.652 31.344-51.906 32.731-57.151 34.157-59.794 34.876-61.574 34.148-63.158 31.646-64.436 29.628-65.435 27.407-67.133 25.7-69.294 23.527-71.975 22.123-74.17 19.969-75.583 18.582-77.419 19.133-78.497 20.774-79.543 22.369-79.303 23.409-77.632 24.2-75.963 24.991-74.574 26.133-73.439 27.672-70.533 31.615-67.577 35.516-64.7 39.484-63.31 41.402-61.652 42.376-59.325 42.28-53.918 42.056-48.506 41.95-43.095 41.877-41.446 41.855-40.362 41.152-39.47 39.667-37.472 36.34-34.651 34.439-30.874 34.501-30.421 34.508-29.77 34.38-29.571 34.971-29.353 35.621-30.031 35.798-30.366 36.139-31.272 37.062-32.348 37.668-33.49 38.198-36.992 39.82-37.931 41.824-36.923 45.35-35.832 49.161-32.589 51.5-29.38 50.788-26.536 50.157-24.713 48.173-24.191 45.07-23.961 43.702-23.835 42.315-23.625 40.943-23.454 39.825-23.3 38.458-21.94 38.52-20.479 38.587-20.671 40.019-20.615 41.124-20.564 42.114-20.662 43.138-20.458 44.089-20.16 45.478-19.101 46.247-17.988 46.873-14.283 48.96-10.525 50.944-6.885 53.156-5.146 54.212-3.814 53.94-2.355 52.699 2.355 48.691 6.508 44.105 10.178 38.996 11.745 36.814 11.984 36.805 14.347 37.995 15.569 38.611 16.808 39.233 18.098 39.632 19.762 40.145 20.707 39.204 20.287 37.438 19.69 34.922 17.906 33.333 16.105 31.806 13.904 29.938 11.929 30.766 9.869 32.248 5.982 35.043 1.996 37.677-1.918 40.428-4.295 42.098-6.671 42.494-9.162 40.768-9.368 40.625-9.596 40.516-9.822 40.412-13.935 38.528-14.329 39.037-13.316 33.159-12.261 27.036-11.273 20.899-10.346 14.752-10.005 12.49-8.893 11.201-6.888 10.651-3.612 9.753-.349 8.797 2.93 7.914 5.584 7.2 6.146 6.425 5.919 3.464 5.494-2.082 5.015-7.624 4.631-13.173 4.356-17.143 4.649-17.459 8.238-18.043 9.33-18.221 10.423-18.418 11.497-18.691 12.237-18.88 12.678-19.494 12.565-20.314 12.451-21.141 12.043-21.854 11.125-21.816 7.747-21.674 4.367-21.545 .993-21.316-.225-21.233-.319-20.146-.316-19.087-.308-15.905-.313-12.723-.313-9.541-.206-9.541-.099-9.541 .008-9.541 .008-6.36 .033-3.18 0 0M-5.549-1.284C-2.988-.655-2.51-1.137-2.564-4.038-2.67-9.739-2.79-15.439-2.939-21.139-2.983-22.822-2.507-24.074-.814-24.256 2.919-24.659 6.658-25.128 10.414-25.029 12.842-24.964 14.8-23.768 15.969-21.384 16.799-19.693 16.434-18.317 14.948-17.279 13.633-16.361 12.132-15.984 10.622-15.643 8.217-15.098 7.997-14.829 8.131-12.199 8.415-6.637 8.74-1.079 9.034 4.482 9.214 7.884 8.793 8.535 5.793 9.426 2.242 10.48-1.313 11.522-4.878 12.519-6.35 12.931-7.207 13.807-7.449 15.474-8.382 21.89-9.381 28.296-10.314 34.713-10.629 36.883-9.967 37.905-8 38.547-5.882 39.238-4.009 38.565-2.223 37.344 2.139 34.361 6.515 31.4 10.879 28.419 12.138 27.559 13.426 27.041 14.858 27.902 18.204 29.915 20.98 32.607 22.84 36.237 24.436 39.353 22.431 42.614 19.124 42.43 17.887 42.361 16.689 42.025 15.554 41.491 13.687 40.614 12.195 40.995 10.752 42.623 6.929 46.937 3.022 51.166-.9 55.376-3.043 57.676-4.374 57.822-7.007 56.326-10.922 54.101-14.838 51.878-18.755 49.656-21.41 48.149-21.46 48.1-23.54 50.518-25.66 52.982-28.123 54.331-31.269 53.574-34.43 52.813-36.942 50.95-38.37 47.772-39.333 45.629-40.752 44.809-42.903 44.816-48.87 44.835-54.837 44.685-60.805 44.691-63.355 44.693-65.312 43.628-66.815 41.463-67.735 40.136-68.656 38.809-69.597 37.498-72.809 33.02-75.468 27.975-80.92 25.957-82.587 25.34-82.91 23.292-82.035 21.56-81.414 20.33-80.544 19.29-79.594 18.336-76.05 14.777-74.935 14.798-71.49 18.504-68.007 22.251-64.522 25.997-61.052 29.758-59.895 31.012-58.558 31.826-56.915 31.305-51.786 29.678-46.685 27.953-41.567 26.284-40.449 25.919-40.114 25.198-40.482 24.019-42.118 18.782-42.15 13.359-42.211 7.911-42.326-2.331-38.129-9.43-29.352-13.385-27.254-14.331-25.185-15.353-23.111-16.357-20.913-17.422-20.641-18.005-21.238-20.528-22.21-24.638-23.207-28.74-24.204-32.843-24.576-34.374-24.48-35.588-22.751-36.049-17.167-37.538-11.515-38.307-5.756-37.997-4.13-37.91-2.873-37.207-2.494-35.368-2.102-33.468-2.907-32.119-4.458-31.326-6.345-30.362-8.252-29.424-10.207-28.64-11.503-28.119-11.799-27.448-11.199-26.109-9.73-22.826-8.323-19.51-6.904-16.201-5.488-12.899-5.583-12.619-8.336-10.545-10.842-8.657-13.587-7.12-16.013-4.561-12.548-2.757-9.013-2.135-5.549-1.284" fill="#202b8f"/>
<path transform="matrix(1,0,0,-1,-20.30841,-377.70213)" d="M0 0C-1.728 .128-3.586 2.028-3.452 3.52-3.402 4.076-3.347 4.582-2.612 4.651-1.505 4.755 1.356 2.082 1.346 .928 1.338-.029 .844-.264 0 0" fill="#202b8f"/>
<path transform="matrix(1,0,0,-1,-8.436523,-387.8225)" d="M0 0C.16 .893 .277 1.797 .496 2.676 .648 3.286 1.032 3.885 1.745 3.75 2.513 3.605 3.204 3.15 3.165 2.224 3.127 1.317 3.063 .39 2.83-.48 2.6-1.338 2.283-2.357 1.057-2.161-.249-1.951-.038-.935 0 0" fill="#202b8f"/>
<path transform="matrix(1,0,0,-1,-14.514618,-388.99943)" d="M0 0C.217 .715-.207 1.66 .783 1.773 1.728 1.882 2.637 1.105 2.506 .378 2.286-.846 2.815-1.823 2.968-2.911 3.078-3.69 2.726-4.291 1.987-4.493 1.15-4.721 1.003-4.002 .85-3.422 .541-2.254 .265-1.076 0 0" fill="#202b8f"/>
<path transform="matrix(1,0,0,-1,5.776184,-385.04194)" d="M0 0C-.032-1.203-3.448-3.391-4.482-2.864-5.046-2.576-5.196-2.142-4.981-1.527-4.612-.475-1.872 1.341-.935 1.11-.357 .967 .026 .653 0 0" fill="#202b8f"/>
<path transform="matrix(1,0,0,-1,-15.876404,-383.02046)" d="M0 0C.04-.777-.372-1.388-.98-1.369-2.31-1.327-2.667 .007-3.346 .851-3.875 1.508-4.102 2.378-3.457 3.158-2.997 3.714-2.406 3.768-1.86 3.286-.851 2.396-.556 1.094 0 0" fill="#202b8f"/>
<path transform="matrix(1,0,0,-1,.062286378,-389.79335)" d="M0 0C.737-.063 1.199-.576 1.103-1.2 .836-2.922-.463-3.923-1.85-4.726-2.256-4.962-2.924-4.723-3.154-4.107-3.507-3.165-1.067 0 0 0" fill="#202b8f"/>
<path transform="matrix(1,0,0,-1,-60.41971,-228.49213)" d="M0 0C-.21-1.257 .008-2.032 1.361-2.279 1.942-2.386 2.526-2.55 3.068-2.783 3.793-3.095 4.297-3.643 4.287-4.494 4.278-5.314 3.661-5.644 3.013-5.861 2.238-6.119 1.448-6.375 .644-6.498-4.102-7.228-5.265-6.11-4.537-1.458-3.997 1.987-3.02 5.366-2.84 8.863-2.713 11.328-3.238 11.92-5.638 11.67-9.028 11.317-12.395 10.727-15.768 10.211-17.18 9.995-17.738 9.189-17.636 7.71-17.26 2.296-16.982-3.126-16.649-8.544-16.523-10.58-15.445-11.799-13.443-12.287-11.71-12.71-10.03-13.378-8.282-13.702-6.764-13.984-6.408-14.767-6.417-16.171-6.46-23.027-6.432-29.884-6.42-36.741-6.416-39.296-5.806-39.955-3.261-39.633-1.449-39.404 .314-39.424 2.055-39.842 3.324-40.147 4.552-40.846 4.693-42.254 4.832-43.634 3.644-44.333 2.532-44.799-1.292-46.402-5.184-45.907-9.081-45.068-10.002-44.869-9.938-44.188-10.001-43.527-10.412-39.165-10.801-34.8-11.247-30.441-11.573-27.26-11.982-24.088-12.339-20.91-12.529-19.211-13.365-18.573-15.151-18.599-18.589-18.649-21.982-19.064-25.349-19.617-28.78-20.18-29.34-21.723-27.247-24.399-25.414-26.743-23.515-29.037-21.577-31.295-20.668-32.354-20.727-33.11-21.703-34.132-24.837-37.414-27.805-40.848-30.589-44.436-32.235-46.557-32.176-46.914-29.959-48.41-28.91-49.117-27.793-49.746-26.84-50.566-26.19-51.126-25.494-51.918-25.886-52.897-26.261-53.833-27.179-54.024-28.126-54.054-31.745-54.168-34.766-52.517-37.62-50.631-41.322-48.183-41.118-48.192-38.431-44.658-35.462-40.753-32.76-36.644-29.992-32.59-29.141-31.343-29.819-30.338-30.785-29.475-35.928-24.882-39.78-19.366-42.352-12.989-45.515-5.143-47.414 3-48.113 11.451-48.855 20.425-47.493 29.252-46.518 38.106-46.359 39.551-46.563 40.347-47.933 40.878-49.363 41.432-50.719 42.223-50.537 44.058-50.39 45.551-47.966 47.332-46.124 47.303-44.314 47.275-43.199 46.444-42.669 44.51-40.179 35.427-39.995 26.144-40 16.833-40.003 12.17-35.648 7.94-30.963 8.052-30.335 8.067-29.494 7.856-29.323 8.783-29.179 9.565-29.787 10.025-30.39 10.325-31.651 10.953-33.026 11.381-34.219 12.111-38.551 14.765-38.214 18.416-34.068 21.28-32.46 22.391-30.465 22.975-28.368 22.921-24.483 22.821-21.585 19.352-22.29 15.54-22.357 15.175-22.514 14.818-22.528 14.453-22.571 13.361-22.894 11.934-21.34 11.769-19.91 11.616-19.836 12.958-19.807 13.998-19.775 15.18-19.257 15.702-18.083 15.878-12.574 16.704-7.095 17.725-1.512 18.021-.347 18.082 .027 17.71 .287 16.658 .869 14.302 .601 11.915 .742 9.547 .86 6.334 .527 3.154 0 0M-16.901-21.546C-15.7-21.304-15.326-21.73-15.245-22.875-15.022-25.996-14.682-29.11-14.448-32.231-14.125-36.539-13.833-40.85-13.578-45.163-13.457-47.206-12.681-48.395-10.431-48.63-7.534-48.932-4.648-49.281-1.739-49.047 1.371-48.796 4.301-48.028 6.483-45.554 8.975-42.729 8.284-39.464 4.871-37.957 3.157-37.201 1.398-36.53-.508-36.631-2.839-36.754-3.487-35.752-3.428-33.453-3.265-27.047-3.406-20.633-3.345-14.222-3.329-12.545-3.888-11.588-5.571-11.18-7.596-10.689-9.555-9.92-11.587-9.47-13.11-9.133-13.64-8.339-13.687-6.852-13.792-3.501-14.017-.155-14.196 3.194-14.401 7.037-14.401 7.034-10.647 7.819-5.22 8.954-5.421 9.652-6.237 3.518-6.647 .43-7.404-2.611-7.936-5.685-8.132-6.819-8.1-8.075-6.71-8.448-3.14-9.407 .468-9.922 4.043-8.45 6.078-7.612 7.371-6.081 7.399-3.863 7.426-1.736 5.834-.752 4.039-.198 2.867 .163 2.625 .73 2.816 1.926 3.61 6.886 3.543 11.881 3.016 16.862 2.696 19.891 2.257 20.199-.707 20.292-6.425 20.471-11.947 19.004-17.553 18.267-19.101 18.063-19.723 18.306-20.156 19.931-21.266 24.097-25.199 26.523-29.417 25.823-31.563 25.467-33.573 24.685-35.403 23.457-35.916 23.113-36.35 22.437-37.285 22.781-37.414 24.887-37.525 27.042-37.681 29.194-38.073 34.612-38.19 40.095-40.13 45.254-41.766 49.602-44.934 50.864-49.28 49.174-53.823 47.406-54.862 42.532-51.14 39.469-49.543 38.154-49.401 36.906-49.598 35.084-50.725 24.646-51.974 14.232-49.885 3.721-48.016-5.687-45.313-14.726-40.082-22.85-38.224-25.735-36-28.351-33.569-30.783-33.068-31.285-32.287-31.692-32.995-32.6-36.56-37.169-39.018-42.561-43.342-46.561-44.468-47.603-44.626-48.621-43.382-49.517-40.001-51.953-36.706-54.552-32.79-56.126-30.676-56.976-28.466-57.253-26.204-56.847-23.893-56.431-22.621-54.868-22.983-52.565-23.317-50.444-24.285-48.637-26.441-47.725-27.912-47.103-28.308-45.582-27.097-44.638-23.649-41.953-21.537-38.084-18.44-35.121-16.636-33.393-16.786-31.852-18.128-30.086-18.623-29.435-19.088-28.757-19.626-28.143-21.087-26.475-22.581-24.835-24.322-22.893-21.63-22.037-19.224-22.015-16.901-21.546" fill="#202b8f"/>
<path transform="matrix(1,0,0,-1,-2.1791077,-177.24692)" d="M0 0C.452 1.59-.099 3.095-.36 4.62-.548 5.716-.498 6.661 .889 6.632 2.129 6.606 3.839 7.753 4.378 5.533 4.727 4.091 4.995 2.627 5.273 1.168 5.817-1.677 4.91-2.702 1.911-2.66-.328-2.628-.631-2.221 0 0M-33.863-3.027C-34.378-1.995-33.653-1.124-32.927-.494-31.491 .751-31.448 2.184-31.756 3.938-33.041 11.263-34.671 18.528-35.453 25.945-35.671 28.023-34.926 29.36-33.537 30.61-32.243 31.774-30.606 32.368-29.16 33.278-28.183 33.893-27.444 33.232-26.678 32.853-25.396 32.219-24.117 31.618-22.638 31.758-21.779 31.839-20.86 32.153-20.767 33.048-20.669 33.984-21.551 34.448-22.397 34.548-23.857 34.722-25.103 35.377-26.297 36.134-29.184 37.964-29.331 40.981-26.694 43.093-25.815 43.796-24.888 44.392-23.859 44.856-19.756 46.705-15.9 44.41-15.605 39.92-15.522 38.661-15.62 37.384-15.178 36.163-14.896 35.384-14.375 34.844-13.552 34.878-12.733 34.911-12.461 35.612-12.451 36.316-12.426 37.928-11.608 38.074-10.232 37.81-6.139 37.025-3.407 34.356-.876 31.347-.363 30.736-.398 30.177-.737 29.507-1.138 28.713-1.563 27.903-1.777 27.05-1.972 26.278-2.047 25.406-1.087 24.914-.103 24.409 .632 24.747 1.261 25.521 2.68 27.265 3.863 29.159 4.735 31.232 7.961 38.9 12.671 45.713 17.086 52.696 18.602 55.095 18.479 55.65 16.162 57.207 16.038 57.29 15.917 57.377 15.792 57.458 14.209 58.487 12.176 59.642 13.168 61.758 14.061 63.664 16.406 63.773 18.344 63.426 21.175 62.919 23.622 61.426 25.947 59.784 27.188 58.908 26.845 57.699 26.438 56.543 24.899 52.173 22.815 48.061 20.521 44.044 16.712 37.372 12.239 31.133 7.971 24.76 7.447 23.978 6.624 23.179 7.418 22.164 8.214 21.145 9.281 21.416 10.276 21.841 13.425 23.187 16.563 24.561 19.705 25.925 23.455 27.555 23.711 27.52 26.101 24.193 27.447 22.322 28.695 20.377 29.922 18.424 31.027 16.666 32.43 16.436 34.084 17.513 36.08 18.813 38.02 20.201 40.005 21.52 40.657 21.954 41.355 22.683 42.181 21.9 42.92 21.2 42.516 20.336 42.192 19.613 41.895 18.951 41.464 18.302 40.948 17.792 39.202 16.065 37.418 14.374 35.597 12.725 34.126 11.392 32.645 11.033 30.824 12.387 28.489 14.123 26.11 15.811 24.056 17.861 22.561 19.354 21.325 19.223 19.832 17.981 13.557 12.76 6.179 10.163-1.807 9.182-6.666 8.585-11.483 9.013-16.143 10.608-19.312 11.693-21.813 13.825-24.16 16.101-25.643 17.539-25.276 18.892-23.316 19.742-22.405 20.138-21.742 20.636-21.913 21.721-22.117 23.018-23.151 22.788-24.017 22.751-24.684 22.722-25.352 22.611-26.009 22.481-27.695 22.148-28.562 21.32-28.372 19.386-27.782 13.383-27.271 7.37-26.856 1.353-26.582-2.633-27.647-3.644-31.729-3.619-32.39-3.459-33.431-3.895-33.863-3.027M15.94 30.212C20.793 37.988 25.64 45.766 29.428 54.145 31.389 58.484 31.267 59.134 27.559 62.004 23.672 65.013 19.399 66.932 14.363 66.664 12.01 66.538 10.586 65.157 9.702 63.077 8.827 61.019 9.628 59.465 11.145 58.121 11.926 57.429 12.694 56.712 13.54 56.108 14.819 55.196 14.93 54.427 13.958 53.03 10.684 48.323 7.41 43.606 4.577 38.608 1.668 33.477 1.75 33.574-2.745 37.5-4.709 39.216-7.088 40.879-9.784 40.711-12.051 40.569-12.76 41.515-13.486 43.27-14.752 46.331-17.238 47.828-20.506 47.896-23.527 47.96-26.024 46.663-28.512 44.977-31.16 43.182-32.224 40.905-31.598 37.973-31.251 36.346-31.566 35.625-33.015 34.885-37.158 32.772-39.063 29.629-38.235 24.683-37.238 18.728-36.126 12.798-35.046 6.861-34.591 4.363-33.641 1.819-36.929 .213-38.262-.438-38.343-2.151-38.111-3.624-37.949-4.655-37.435-5.425-36.348-5.698-32.457-6.675-28.682-6.574-25.056-4.628-23.864-3.988-23.317-3.141-23.435-1.763-23.676 1.058-23.871 3.885-24.005 6.714-24.087 8.442-24.021 10.177-24.021 12.146-22.052 10.631-20.211 9.397-18.132 8.553-14.205 6.96-10.107 6.331-5.896 6.24-5.209 6.225-4.077 6.525-4.022 5.546-3.915 3.637-2.986 1.776-3.999-.235-5.254-2.725-4.485-4.249-1.729-5.053 1.137-5.889 4.038-5.596 6.888-4.871 8.34-4.502 8.898-3.489 8.696-1.99 8.339 .669 8.136 3.352 7.674 5.991 7.418 7.446 7.764 8.087 9.197 8.552 13.315 9.889 17.391 11.393 20.724 14.297 21.603 15.064 22.154 14.656 22.847 14.165 25.645 12.184 28.465 10.235 31.253 8.241 32.516 7.337 33.665 7.311 34.9 8.319 36.863 9.921 38.937 11.389 40.864 13.03 42.932 14.792 44.614 16.904 45.368 19.566 45.884 21.389 46.124 23.378 44.463 24.738 42.634 26.236 40.668 25.652 38.872 24.454 37.385 23.463 35.944 22.406 34.474 21.39 33.163 20.485 32.141 20.507 31.157 22.021 30.025 23.764 28.629 25.338 27.336 26.976 24.687 30.332 23.002 30.691 19.054 28.848 17.462 28.105 16.007 27.022 13.636 26.601 14.589 28.092 15.275 29.145 15.94 30.212" fill="#202b8f"/>
<path transform="matrix(1,0,0,-1,-25.699006,-250.13944)" d="M0 0C.299-6.848 1.985-13.189 6.69-18.468 7.163-18.999 8.033-19.888 7.088-20.816 6.205-21.684 5.338-21.056 4.703-20.517 1.799-18.055-.02-14.794-1.539-11.391-3.598-6.778-2.953-1.869-2.828 2.971-2.803 3.908-2.22 4.316-1.395 4.349-.457 4.387-.092 3.676-.021 2.901 .067 1.941 0 .968 0 0" fill="#202b8f"/>
<path transform="matrix(1,0,0,-1,-114.25281,-203.60733)" d="M0 0C-.037 .861 .171 1.65 .569 2.381 .858 2.911 1.201 3.403 1.946 3.285 2.755 3.158 3.147 2.632 3.108 1.89 2.866-2.66 5.191-6.22 7.508-9.804 7.94-10.471 9.129-11.233 8.16-12.054 7.145-12.913 5.873-12.254 5.183-11.391 2.508-8.042 .465-4.364 0 0" fill="#202b8f"/>
<path transform="matrix(1,0,0,-1,-34.91562,-243.29514)" d="M0 0C.099 .543 .156 1.138 .324 1.7 .518 2.349 .816 3.071 1.645 2.966 2.371 2.873 2.812 2.25 2.849 1.545 3.091-3.045 5.277-6.82 7.785-10.473 8.333-11.271 8.563-12.192 7.738-12.888 6.942-13.56 6.143-12.903 5.536-12.436 4.843-11.903 4.197-11.227 3.742-10.484 1.777-7.276 .611-3.767 0 0" fill="#202b8f"/>
<path transform="matrix(1,0,0,-1,-22.311524,-248.74573)" d="M0 0C.02 .233 .101 1.119 .171 2.006 .241 2.894 .651 3.378 1.603 3.255 2.425 3.149 3.027 2.799 3.043 1.878 3.066 .616 3.01-.648 3.065-1.907 3.208-5.126 4.062-8.061 6.624-10.251 7.177-10.724 7.587-11.236 7.164-11.966 6.669-12.82 5.891-12.635 5.207-12.304 3.288-11.374 2.239-9.638 1.403-7.81 .373-5.557-.037-3.14 0 0" fill="#202b8f"/>
<path transform="matrix(1,0,0,-1,-102.24611,-197.18982)" d="M0 0C-.328-1.151-1.002-1.333-1.981-.706-3.671 .376-4.779 1.926-5.441 3.778-5.912 5.098-6.258 6.464-6.627 7.818-6.846 8.62-6.45 9.093-5.686 9.283-5.07 9.436-4.439 9.443-4.215 8.714-3.296 5.728-2.238 2.82-.114 .432-.029 .337-.039 .157 0 0" fill="#202b8f"/>
<path transform="matrix(1,0,0,-1,28.621094,-218.29303)" d="M0 0C.128 .97-.165 1.934 .969 2.189 2.246 2.476 2.408 1.434 2.707 .631 3.686-1.998 4.135-4.831 5.711-7.23 6.154-7.904 5.845-8.368 5.31-8.722 4.448-9.293 3.713-8.92 3.196-8.204 1.384-5.694 .359-2.874 0 0" fill="#202b8f"/>
<path transform="matrix(1,0,0,-1,-90.12251,-259.15043)" d="M0 0C.023-.442 .05-.884 .066-1.327 .095-2.09-.261-2.616-.989-2.813-1.816-3.036-2.296-2.46-2.5-1.835-2.979-.368-3.335 1.139-3.724 2.635-3.969 3.579-3.885 4.472-2.84 4.84-1.75 5.223-.992 4.611-.518 3.691 .076 2.535-.03 1.251 0 0" fill="#202b8f"/>
<path transform="matrix(1,0,0,-1,-87.05141,-260.19364)" d="M0 0C.013 1.174-.178 2.378 .548 3.445 1.113 4.275 1.857 4.601 2.843 4.384 3.883 4.156 3.7 3.317 3.712 2.609 3.737 1.193 3.674-.238 3.009-1.514 2.616-2.269 2.153-3.206 1.048-3.013-.173-2.8 .005-1.77 0-.889-.001-.593 0-.296 0 0" fill="#202b8f"/>
<path transform="matrix(1,0,0,-1,-81.78111,-257.30525)" d="M0 0C.283 1.665 1.115 3.265 2.565 4.541 3.131 5.04 3.761 5.195 4.401 4.861 5.213 4.437 4.85 3.697 4.674 3.091 4.218 1.512 3.379 .121 2.463-1.232 2.019-1.888 1.444-2.051 .735-1.812-.045-1.55-.212-.96 0 0" fill="#202b8f"/>
<path transform="matrix(1,0,0,-1,-76.72261,-249.92142)" d="M0 0C-.806 .185-1.249 .658-.881 1.58-.157 3.397 .832 5.03 2.404 6.261 3.002 6.729 3.586 6.833 4.241 6.408 4.97 5.935 4.828 5.309 4.602 4.637 4.087 3.11 1.003-.068 0 0" fill="#202b8f"/>
<path transform="matrix(1,0,0,-1,-145.0816,-215.04163)" d="M0 0C0 1.039 .039 1.587-.007 2.128-.163 3.976-.524 4.304-2.488 4.27-3.346 4.255-4.339 4.466-5.017 3.859-6.308 2.702-7.942 2.544-9.47 2.051-12.978 .92-16.375-.495-19.644-2.185-23.792-4.33-23.985-5.23-21.044-8.854-17.287-13.483-13.534-18.106-10.096-22.986-8.664-25.019-6.93-26.849-5.252-28.698-4.005-30.073-2.594-30.614-.6-29.917 1.418-29.213 3.597-28.831 5.801-29.048 6.34-29.101 6.91-29.057 7.136-29.698 7.331-30.251 7.256-30.808 6.842-31.215 6.384-31.666 5.87-32.08 5.326-32.424 4.045-33.235 2.728-33.987 1.433-34.777-1.301-36.445-3.931-36.309-6.31-34.245-7.625-33.104-8.819-31.826-10.076-30.618-15.181-25.711-19.576-20.158-24.369-14.969-25.921-13.289-27.57-11.7-29.186-10.081-29.49-9.777-29.873-9.44-30.324-9.685-30.746-9.914-30.72-10.407-30.708-10.837-30.611-14.209-31.042-17.549-31.243-20.904-31.451-24.388-31.393-24.509-34.709-25.24-37.972-25.959-41.27-26.523-44.538-27.223-47.267-27.808-47.656-28.47-46.351-30.998-45.476-32.692-45.608-34.382-45.776-36.078-45.936-37.688-47.653-38.329-48.967-37.382-49.398-37.072-49.763-36.628-50.06-36.18-52.469-32.552-54.459-28.71-55.864-24.58-56.036-24.074-56.157-23.537-56.207-23.005-56.396-20.979-56.048-20.328-54.099-20.065-51.961-19.778-49.868-19.128-47.657-19.294-46.48-19.382-45.209-19.382-44.105-19.029-41.641-18.24-41.089-18.766-41.215-15.308-41.334-12.054-41.219-8.837-40.635-5.585-38.806 4.592-33.282 12.393-25.172 18.351-20.108 22.072-14.43 24.776-8.09 25.89-4.459 26.528-3.986 27.442-4.602 31.118-4.707 31.748-4.961 32.364-5.217 32.957-6.03 34.846-6.911 36.707-7.699 38.606-8.446 40.404-9.018 42.252-9.248 44.207-9.422 45.69-9.049 46.654-7.531 47.242-5.424 48.058-3.428 49.156-1.337 50.018 .121 50.62 1.019 51.408 .716 53.148 .546 54.126 .747 55.103 1.327 55.954 1.588 56.337 1.934 56.621 2.4 56.302 4.39 54.941 5.579 53.032 5.867 50.665 6.117 48.605 5.076 47.03 3.309 46.141 1.637 45.299 .334 43.973-1.278 43.062-2.713 42.251-2.936 40.825-2.445 39.351-2.138 38.431-1.692 37.54-1.191 36.706 .428 34.008 1.995 31.283 3.314 28.425 4.479 25.903 4.468 25.766 2.149 24.334 .74 23.464-.541 22.49-1.517 21.155-2.035 20.446-1.974 19.75-1.294 19.125-.624 18.51-.036 18.963 .46 19.312 1.24 19.861 1.986 20.484 2.646 21.172 7.194 25.91 14.723 22.321 16.142 16.696 16.574 14.981 16.16 13.686 14.708 12.743 12.609 11.378 10.309 10.902 7.875 11.654 6.379 12.117 4.865 12.021 3.349 12.039 2.796 12.045 2.248 11.978 2.099 11.286 1.968 10.675 2.225 10.12 2.713 9.896 3.687 9.449 4.719 9.108 5.753 8.816 7.806 8.235 8.013 7.937 7.739 5.935 7.111 1.334 6.359-3.233 4.907-7.669 4.21-9.797 4.624-10.485 6.76-11.422 9.234-12.509 11.698-13.633 14.228-14.577 15.42-15.022 16.484-15.322 16.521-16.866 16.56-18.465 16.212-19.936 15.006-21.016 13.897-22.009 12.518-21.385 12.467-19.768 12.418-18.217 11.7-17.343 10.421-16.754 7.474-15.397 4.401-14.36 1.275-13.541-1.344-12.855-1.389-12.99-1.289-10.454-1.263-9.805-1.175-9.158-1.093-8.512-.712-5.512-.323-2.513 0 0M-3.882-4.623C-3.628-7.457-4.104-10.047-4.254-12.651-4.39-14.99-4.854-14.989-1.892-15.996 1.096-17.011 4.047-18.135 7.034-19.149 8.216-19.55 8.931-19.998 9.323-21.445 10.458-25.641 14.349-26.367 17.255-23.077 18.653-21.493 19.52-19.609 19.918-17.549 20.365-15.234 19.997-14.519 17.796-13.417 15.169-12.101 12.511-10.847 9.841-9.62 7.81-8.687 7.792-8.725 8.234-6.613 9.015-2.883 9.87 .833 10.553 4.581 11 7.036 12.059 8.867 14.536 9.66 14.638 9.693 14.728 9.764 14.825 9.813 19.838 12.314 20.707 16.875 16.962 21.212 15.047 23.43 12.556 24.866 9.749 25.414 8.105 25.736 7.335 26.559 6.658 27.867 4.807 31.442 2.879 34.976 1.029 38.551 .047 40.447 .074 40.497 1.811 41.657 3.532 42.805 5.252 43.939 6.796 45.337 8.208 46.617 8.782 48.11 8.562 49.997 8.294 52.308 7.626 54.471 6.384 56.435 5.533 57.781 4.355 58.649 2.703 58.834-.684 59.213-1.497 58.733-1.925 55.317-2.206 53.079-3.239 51.826-5.338 51.11-7.487 50.378-9.719 49.769-11.565 48.329-13.526 46.799-13.601 46.637-12.824 44.282-11.356 39.837-9.879 35.396-8.365 30.967-7.963 29.792-7.839 29.224-9.477 28.859-21.062 26.276-30.036 19.533-37.013 10.265-41.838 3.855-43.605-3.859-44.125-11.822-44.354-15.32-44.36-15.35-47.812-15.935-51.034-16.482-54.202-17.231-57.329-18.181-58.815-18.632-59.345-19.415-59.066-21.056-58.118-26.623-56.21-31.765-52.817-36.312-51.836-37.627-50.743-38.833-49.257-39.617-46.662-40.984-44.97-40.396-43.751-37.706-43.243-36.584-43.079-35.415-43.179-34.199-43.259-33.221-43.304-32.238-43.437-31.268-43.609-30.019-43.102-29.524-41.857-29.408-39.26-29.165-36.676-28.798-34.087-28.475-33.546-28.407-33.005-28.334-32.472-28.223-28.577-27.414-28.275-27.03-28.282-23.025-28.285-21.39-28.302-19.754-28.248-18.121-28.219-17.244-27.685-16.97-26.965-17.472-26.345-17.904-25.788-18.441-25.262-18.989-22.321-22.053-19.344-25.084-16.484-28.222-13.177-31.852-9.379-34.948-5.795-38.277-4.036-39.91-2.035-40.21 .184-39.086 3.496-37.407 6.569-35.404 9.224-32.792 9.532-32.49 9.786-32.127 10.037-31.773 12.114-28.847 11.087-26.393 7.549-26.011 4.805-25.715 2.105-26.147-.495-27.032-1.949-27.526-2.924-27.164-3.855-25.964-8.86-19.516-13.909-13.101-18.975-6.7-19.526-6.005-19.562-5.626-18.703-5.277-14.168-3.437-9.638-1.584-5.105 .261-4.278 .598-3.884 .283-3.883-.583-3.881-2-3.882-3.417-3.882-4.623" fill="#202b8f"/>
<path transform="matrix(1,0,0,-1,-266.20323,-202.39612)" d="M0 0C.107 0 .215 0 .322 0 .322-3.182 .316-6.364 .325-9.546 .328-10.605 .233-11.692-.985-11.775-4.359-12.005-7.739-12.134-11.117-12.275-12.035-12.313-12.443-11.601-12.557-10.774-12.669-9.954-12.229-9.339-11.488-9.151-10.415-8.877-9.321-8.681-8.229-8.503-4.64-7.918-4.348-7.602-4.623-3.632-5.007 1.917-5.486 7.458-5.911 13.004-6.138 15.965-5.575 16.741-2.922 17.455 .358 18.338 3.62 19.294 6.896 20.192 8.902 20.742 10.014 22.03 10.355 24.293 11.282 30.44 12.269 36.577 13.324 42.699 14.337 48.577 13.944 48.069 9.83 49.953 9.604 50.056 9.376 50.166 9.171 50.309 6.68 52.035 4.304 51.639 1.927 49.968-1.988 47.218-5.973 44.583-9.86 41.789-11.92 40.307-13.895 39.479-16.097 41.346-17.897 42.874-19.681 44.463-20.279 46.979-20.698 48.744-19.754 49.686-18.09 49.172-16.8 48.774-15.56 48.151-14.338 47.536-11.975 46.346-11.737 46.354-10.17 48.536-6.499 53.645-2.346 58.232 2.363 62.239 3.822 63.481 5.155 63.753 6.894 62.696 10.533 60.485 14.291 58.5 17.996 56.414 19.109 55.787 20.168 55.019 20.466 53.629 20.67 52.679 20.573 51.655 20.623 50.665 20.68 49.56 20.488 48.127 21.949 48.061 23.309 47.998 23.462 49.365 23.633 50.483 23.844 51.855 23.97 53.243 24.2 54.61 24.721 57.713 26.545 59.698 29.389 60.329 32.597 61.04 35.841 58.702 36.931 54.891 37.94 51.364 37.001 49.361 33.499 47.738 32.357 47.209 31.281 46.602 30.374 45.679 30.04 45.339 29.361 45.161 29.58 44.512 29.778 43.921 30.43 44.049 30.883 44.041 34.66 43.98 37.48 45.881 39.478 49.207 40.371 50.693 41.455 51.395 43.104 51.418 48.514 51.491 53.926 51.597 59.333 51.82 61.66 51.917 63.318 50.943 64.709 49.025 67.585 45.057 70.541 41.155 73.448 37.212 74.582 35.674 75.971 34.532 77.64 33.741 79.312 32.949 79.552 31.91 78.505 30.315 77.428 28.673 75.591 28.122 74.178 29.509 71.983 31.664 69.303 33.067 67.141 35.241 65.444 36.948 64.445 39.169 63.167 41.187 61.583 43.688 59.803 44.416 57.159 43.698 51.915 42.272 46.661 40.885 41.432 39.393 36.7 38.042 36.091 38.362 37.923 32.696 39.667 27.302 39.348 21.584 39.416 15.961 39.518 7.621 36.007 1.806 28.837-1.396 25.657-2.815 22.488-4.262 19.282-5.611 17.945-6.174 17.485-7.112 17.77-8.548 17.924-9.324 18.144-10.085 18.335-10.852 19.309-14.757 20.273-18.663 21.263-22.563 21.483-23.432 21.543-24.02 20.48-24.322 16.347-25.494 12.155-26.041 7.89-25.965 7.107-25.951 6.334-25.694 6.215-24.764 6.111-23.942 6.756-23.496 7.402-23.178 9.595-22.101 11.851-21.204 14.272-21.028 15.871-20.912 16.115-20.31 15.433-18.79 13.585-14.674 11.816-10.516 10.06-6.353 9.1-4.076 9.273-3.516 11.294-2.154 13.899-.396 16.552 1.279 19.151 3.048 20.154 3.731 21.877 4.115 21.733 5.544 21.575 7.102 19.812 7.518 18.576 7.856 13.275 9.31 7.944 10.651 2.596 11.898 .556 12.374 .032 11.792 .008 9.541-.025 6.361 0 3.18 0 0M16.022 4.98C13.596 2.42 10.851 .883 8.345-1.005 5.592-3.079 5.496-3.358 6.913-6.661 8.332-9.97 9.738-13.285 11.208-16.568 11.807-17.908 11.512-18.579 10.216-19.099 8.261-19.884 6.354-20.821 4.467-21.786 2.916-22.579 2.111-23.928 2.502-25.827 2.881-27.666 4.138-28.369 5.765-28.457 11.524-28.767 17.175-27.997 22.76-26.508 24.489-26.047 24.585-24.833 24.213-23.302 23.215-19.2 22.219-15.097 21.246-10.988 20.649-8.465 20.921-7.881 23.119-6.817 25.194-5.812 27.262-4.79 29.36-3.844 38.138 .111 42.334 7.209 42.219 17.451 42.158 22.9 42.127 28.323 40.491 33.56 40.123 34.739 40.457 35.46 41.576 35.825 46.693 37.493 51.795 39.219 56.923 40.845 58.566 41.366 59.904 40.552 61.061 39.298 64.53 35.537 68.015 31.792 71.498 28.045 74.944 24.338 76.058 24.317 79.603 27.877 80.553 28.831 81.422 29.87 82.044 31.101 82.918 32.833 82.595 34.88 80.929 35.497 75.477 37.516 72.818 42.561 69.605 47.039 68.665 48.349 67.744 49.677 66.823 51.003 65.321 53.168 63.364 54.234 60.813 54.232 54.846 54.226 48.879 54.376 42.912 54.356 40.761 54.349 39.342 55.169 38.379 57.313 36.951 60.491 34.439 62.354 31.277 63.115 28.131 63.872 25.668 62.523 23.549 60.058 21.469 57.641 21.419 57.69 18.763 59.197 14.847 61.419 10.931 63.641 7.015 65.866 4.382 67.363 3.052 67.216 .909 64.917-3.014 60.707-6.921 56.478-10.744 52.164-12.186 50.535-13.679 50.155-15.546 51.032-16.681 51.566-17.878 51.901-19.115 51.971-22.422 52.155-24.427 48.893-22.831 45.778-20.972 42.148-18.195 39.456-14.85 37.443-13.418 36.582-12.129 37.1-10.87 37.96-6.507 40.941-2.131 43.902 2.232 46.885 4.018 48.106 5.891 48.779 8.009 48.088 9.976 47.446 10.638 46.423 10.322 44.254 9.389 37.837 8.391 31.431 7.458 25.014 7.215 23.348 6.358 22.471 4.887 22.06 1.321 21.063-2.233 20.021-5.784 18.967-8.784 18.076-9.205 17.425-9.025 14.023-8.732 8.462-8.406 2.903-8.123-2.658-7.989-5.288-8.209-5.557-10.614-6.102-12.123-6.444-13.624-6.82-14.939-7.738-16.426-8.777-16.79-10.152-15.961-11.843-14.791-14.228-12.834-15.423-10.405-15.488-6.649-15.588-2.911-15.118 .822-14.716 2.515-14.533 2.991-13.281 2.947-11.598 2.798-5.899 2.679-.198 2.572 5.503 2.518 8.404 2.997 8.886 5.557 8.257 9.021 7.406 12.556 6.783 16.022 4.98" fill="#202b8f"/>
<path transform="matrix(1,0,0,-1,-223.7259,-262.08854)" d="M0 0C1.728 .128 3.586 2.028 3.452 3.52 3.402 4.076 3.347 4.582 2.612 4.651 1.505 4.755-1.356 2.082-1.346 .928-1.338-.029-.844-.264 0 0" fill="#202b8f"/>
<path transform="matrix(1,0,0,-1,-235.59781,-272.20893)" d="M0 0C-.16 .893-.277 1.797-.496 2.676-.648 3.286-1.032 3.885-1.745 3.75-2.513 3.605-3.204 3.15-3.165 2.224-3.127 1.317-3.063 .39-2.83-.48-2.6-1.338-2.283-2.357-1.057-2.161 .249-1.951 .038-.935 0 0" fill="#202b8f"/>
<path transform="matrix(1,0,0,-1,-229.51972,-273.38584)" d="M0 0C-.217 .715 .207 1.66-.783 1.773-1.728 1.882-2.637 1.105-2.506 .378-2.286-.846-2.815-1.823-2.968-2.911-3.078-3.69-2.726-4.291-1.987-4.493-1.15-4.721-1.003-4.002-.85-3.422-.541-2.254-.265-1.076 0 0" fill="#202b8f"/>
<path transform="matrix(1,0,0,-1,-249.81052,-269.4283)" d="M0 0C.032-1.203 3.448-3.391 4.482-2.864 5.046-2.576 5.196-2.142 4.981-1.527 4.612-.475 1.872 1.341 .935 1.11 .357 .967-.026 .653 0 0" fill="#202b8f"/>
<path transform="matrix(1,0,0,-1,-228.15792,-267.40693)" d="M0 0C-.04-.777 .372-1.388 .98-1.369 2.31-1.327 2.667 .007 3.346 .851 3.875 1.508 4.102 2.378 3.457 3.158 2.997 3.714 2.406 3.768 1.86 3.286 .851 2.396 .556 1.094 0 0" fill="#202b8f"/>
<path transform="matrix(1,0,0,-1,-244.09662,-274.17973)" d="M0 0C-.737-.063-1.199-.576-1.103-1.2-.836-2.922 .463-3.923 1.85-4.726 2.256-4.962 2.924-4.723 3.154-4.107 3.507-3.165 1.067 0 0 0" fill="#202b8f"/>
</g>
<pattern id="pattern_1" patternUnits="userSpaceOnUse" patternContentUnits="userSpaceOnUse" x="0" y="0" width="344.681" height="234.723">
<g transform="matrix(1,0,0,-1,294.941,-165.90003)">
<use x="0" y="0" xlink:href="#pattern_tile_1"/>
</g>
</pattern>
</defs>
<g id="layer_1" data-name="Layer 1">
<g clip-path="url(#clip_0)">
<rect transform="matrix(1,0,0,-1,-294.941,-165.90003)" fill="url(#pattern_1)" x="294.941" y="-1245.9" width="1919.9999" height="1080"/>
</g>
</g>
</svg>
