<svg xmlns="http://www.w3.org/2000/svg" xmlns:xlink="http://www.w3.org/1999/xlink" version="1.1" width="700" height="100" viewBox="0 0 700 100">
<defs>
<clipPath id="clip_0">
<path transform="matrix(1,0,0,-1,0,100)" d="M0 100H700V0H0Z"/>
</clipPath>
<clipPath id="clip_1">
<path transform="matrix(1,0,0,-1,0,100)" d="M-22.4077-353.871H714.809V138.207H-22.4077Z"/>
</clipPath>
<path id="font_2_698" d="M.48432923 .46600343C.47566224 .47994996 .46332804 .490743 .44732667 .49838258 .4313253 .50602218 .4119873 .5098419 .38931275 .5098419 .34662882 .5098419 .313619 .49602256 .2902832 .4683838 .26694743 .44074504 .25527955 .40294395 .25527955 .35498048 .25527955 .29969279 .26828004 .25839234 .294281 .2310791 .32028199 .20377605 .36029054 .19012451 .41430665 .19012451 .46564738 .19012451 .5069885 .21081035 .5383301 .252182H.36132813V.4091797H.7223358V.18711853C.69166567 .13445537 .6493276 .089289348 .59532168 .051620485 .54132589 .013951619 .47298686-.0048828127 .39030458-.0048828127 .31697084-.0048828127 .25313316 .010279338 .1987915 .040603639 .14446004 .07092794 .10278829 .11341349 .073776248 .1680603 .044774373 .22270711 .030273438 .28501383 .030273438 .35498048 .030273438 .42495729 .044774373 .487264 .073776248 .54190066 .10278829 .5965474 .14429219 .639033 .19828797 .6693573 .2522939 .6996816 .31563316 .71484377 .38830567 .71484377 .4809774 .71484377 .556483 .69252017 .6148224 .6478729 .6731618 .6032359 .70766708 .54261276 .718338 .46600343H.48432923Z"/>
<path id="font_2_699" d="M.7050781 .70799258V0H.483078V.27612306H.27200318V0H.049804689V.70799258H.27200318V.453125H.483078V.70799258H.7050781Z"/>
<path id="font_2_700" d="M.2718048 .70799258V0H.049804689V.70799258H.2718048Z"/>
<path id="font_2_695" d="M.34484864 .7080078C.41885377 .7080078 .48369346 .6930084 .5393677 .66300967 .59504196 .63301089 .6378784 .5913391 .6678772 .5379944 .69788619 .48465983 .7128906 .42399598 .7128906 .3560028 .7128906 .28867088 .69788619 .22800191 .6678772 .17399597 .6378784 .120000209 .59504196 .07749939 .5393677 .04649353 .48369346 .015497844 .41885377 0 .34484864 0H.049804689V.7080078H.34484864M.32481385 .19799805C.37484233 .19799805 .41453044 .21166484 .44387818 .23899842 .47322593 .266332 .48789979 .30533348 .48789979 .3560028 .48789979 .40668235 .47322593 .44568888 .44387818 .47302247 .41453044 .500356 .37484233 .5140228 .32481385 .5140228H.2718048V.19799805H.32481385Z"/>
<path id="font_2_712" d="M.26689149 .7080078V.30914308C.26689149 .2764791 .27405296 .25065104 .28837586 .23165894 .30270896 .21266683 .32587687 .20317078 .35787965 .20317078 .38987223 .20317078 .41352845 .21266683 .42884828 .23165894 .44417826 .25065104 .45184327 .2764791 .45184327 .30914308V.7080078H.67285159V.30911256C.67285159 .2417806 .65884909 .18428548 .6308441 .1366272 .6028493 .08897909 .5645192 .053156537 .5158539 .029159546 .4671885 .005162557 .41285707-.0068359377 .3528595-.0068359377 .2928721-.0068359377 .2397105 .005162557 .19337464 .029159546 .14704895 .053156537 .11088562 .08881632 .08488464 .13613892 .05889384 .1834615 .045898439 .24111939 .045898439 .30911256V.7080078H.26689149Z"/>
<path id="font_2_703" d="M.2718048 .16799927H.48583985V0H.049804689V.7080078H.2718048V.16799927Z"/>
<path id="font_2_3" d="M0 0Z"/>
<clipPath id="clip_3">
<path transform="matrix(1,0,0,-1,0,100)" d="M0 100H700V0H0Z"/>
</clipPath>
<path id="font_2_693" d="M.52378848 .36332704C.5664012 .35331727 .599528 .3327993 .62316897 .30177308 .6468099 .27074687 .6586304 .23487854 .6586304 .19416809 .6586304 .13211568 .63813278 .084238689 .59713748 .05053711 .55615237 .016845704 .49733988 0 .42070008 0H.049804689V.7080078H.41090394C.48292542 .7080078 .5396118 .6923523 .58096316 .66104128 .62231448 .6297404 .6429901 .5841217 .6429901 .5241852 .6429901 .48288474 .63213607 .44807945 .61042788 .4197693 .58872988 .39145915 .55985006 .37264506 .52378848 .36332704M.27200318 .43232728H.35798646C.37798564 .43232728 .39281718 .4363098 .40248109 .4442749 .41215516 .45225016 .4169922 .46454875 .4169922 .48117066 .4169922 .49845378 .41215516 .5112457 .40248109 .5195465 .39281718 .5278575 .37798564 .53201296 .35798646 .53201296H.27200318V.43232728M.37277223 .17799378C.39272056 .17799378 .40751649 .18183899 .41716004 .18952942 .42681376 .19723003 .43164063 .20977275 .43164063 .2271576 .43164063 .26126609 .41201783 .2783203 .37277223 .2783203H.27200318V.17799378H.37277223Z"/>
<path id="font_2_706" d="M.39523316-.0068359377C.3285726-.0068359377 .26741029 .00881958 .21174622 .040130617 .15609233 .07145182 .11193339 .11476135 .07926941 .1700592 .046605428 .22536724 .030273438 .2876587 .030273438 .3569336 .030273438 .42622886 .046605428 .4885254 .07926941 .54382327 .11193339 .5991313 .15609233 .64227297 .21174622 .6732483 .26741029 .7042338 .3285726 .71972659 .39523316 .71972659 .4618937 .71972659 .5228882 .7042338 .57821658 .6732483 .6335449 .64227297 .67737326 .5991313 .70970156 .54382327 .74202987 .4885254 .75819399 .42622886 .75819399 .3569336 .75819399 .2876587 .74202987 .22536724 .70970156 .1700592 .67737326 .11476135 .6333771 .07145182 .577713 .040130617 .52205917 .00881958 .4612325-.0068359377 .39523316-.0068359377M.39523316 .2001648C.43921916 .2001648 .47321067 .21430969 .49720765 .24259949 .52120468 .27089945 .5332031 .3090159 .5332031 .35694886 .5332031 .405543 .52120468 .443985 .49720765 .47227479 .47321067 .50057479 .43921916 .51472476 .39523316 .51472476 .35058595 .51472476 .31626383 .50057479 .29226686 .47227479 .26826988 .443985 .25627137 .405543 .25627137 .35694886 .25627137 .3090159 .26826988 .27089945 .29226686 .24259949 .31626383 .21430969 .35058595 .2001648 .39523316 .2001648Z"/>
<path id="font_2_694" d="M.030273438 .35498048C.030273438 .42495729 .04443868 .487264 .072769168 .54190066 .101109828 .5965474 .14161174 .639033 .1942749 .6693573 .24693807 .6996816 .3089396 .71484377 .38027955 .71484377 .4416097 .71484377 .4964396 .7033437 .5447693 .6803436 .59310916 .6573537 .6324412 .6248627 .6627655 .5828705 .6931 .5408885 .7132721 .49190269 .72328189 .4359131H.48927308C.47861228 .45921836 .46344505 .47736613 .44377137 .49035646 .42410789 .50334677 .40161134 .5098419 .37628175 .5098419 .33894859 .5098419 .30944825 .4958547 .28778077 .46788026 .26611329 .4399058 .25527955 .40227256 .25527955 .35498048 .25527955 .3076884 .26611329 .27005515 .28778077 .24208069 .30944825 .21410625 .33894859 .20011902 .37628175 .20011902 .40161134 .20011902 .42410789 .20661418 .44377137 .21960449 .46344505 .2325948 .47861228 .25074769 .48927308 .2740631H.72328189C.7132721 .21807353 .6931 .16908264 .6627655 .12709046 .6324412 .08509827 .59310916 .05260213 .5447693 .02960205 .4964396 .006612142 .4416097-.0048828127 .38027955-.0048828127 .3089396-.0048828127 .24693807 .010279338 .1942749 .040603639 .14161174 .07092794 .101109828 .11341349 .072769168 .1680603 .04443868 .22270711 .030273438 .28501383 .030273438 .35498048Z"/>
<path id="font_2_677" d="M.028320313 .17677307C.11766561 .24339295 .18833924 .30385337 .24034119 .3581543 .2923533 .41246543 .31835938 .4632721 .31835938 .51057437 .31835938 .52656558 .31486003 .5388896 .30786134 .5475464 .30086265 .5562134 .29169718 .5605469 .280365 .5605469 .26701866 .5605469 .2565104 .553716 .24884033 .5400543 .24118042 .52639266 .23835247 .50556948 .24035645 .47758485H.025314331C.02731832 .53957626 .04081726 .590566 .06581116 .6305542 .090815227 .67055258 .12332153 .69987997 .16333008 .7185364 .20333863 .73720297 .24734497 .74653628 .29534913 .74653628 .38068644 .74653628 .44319154 .7260437 .48286439 .6850586 .52253726 .6440735 .54237368 .5915985 .54237368 .52763369 .54237368 .46033225 .52086898 .39719139 .4778595 .33821107 .43486024 .27923075 .38102723 .2294159 .31636048 .18876648H.5453186V.009765625H.028320313V.17677307Z"/>
<path id="font_2_675" d="M.032226564 .37600709C.032226564 .49135337 .056722005 .58203127 .10571289 .6480408 .15470378 .7140605 .23018392 .7470703 .33215333 .7470703 .43346153 .7470703 .50877889 .7138977 .55810549 .6475525 .60743209 .5812073 .63209536 .49069215 .63209536 .37600709 .63209536 .26064048 .60743209 .16977947 .55810549 .10342407 .50877889 .037078859 .43346153 .00390625 .33215333 .00390625 .23018392 .00390625 .15470378 .037078859 .10571289 .10342407 .056722005 .16977947 .032226564 .26064048 .032226564 .37600709M.41308595 .37600709C.41308595 .4293518 .40775553 .4695333 .39709474 .4965515 .3864441 .52356979 .36479698 .53707888 .33215333 .53707888 .29884849 .53707888 .27686564 .52356979 .26620484 .4965515 .2555542 .4695333 .25022889 .4293518 .25022889 .37600709 .25022889 .3219706 .2555542 .28144328 .26620484 .25442506 .27686564 .22741699 .29884849 .21391297 .33215333 .21391297 .36479698 .21391297 .3864441 .22741699 .39709474 .25442506 .40775553 .28144328 .41308595 .3219706 .41308595 .37600709Z"/>
<path id="font_2_679" d="M.051757814 .11035156V.29534913L.34986878 .72021487H.5888214V.3023529H.66075137V.11035156H.5888672V.00048828127H.36486817V.11035156H.051757814M.3828125 .46730042 .2748413 .3023529H.3828125V.46730042Z"/>
<path id="font_2_672" d="M.4855194 .43299867V.25H.01953125V.43299867H.4855194Z"/>
<path id="font_2_680" d="M.5841217 .5361328H.2937622V.45210267C.30643717 .46343486 .32295228 .47243754 .3433075 .47911073 .36366273 .4857839 .38652549 .48912049 .41189576 .48912049 .4572754 .48912049 .49565126 .4784495 .5270233 .45710755 .5583954 .43577577 .5817515 .40726725 .5970917 .37158204 .612442 .33590699 .6201172 .29640199 .6201172 .25306703 .6201172 .17303975 .5976003 .1108551 .5525665 .06651306 .5075429 .02217102 .4456736 0 .36695863 0 .30958558 0 .26005046 .009999593 .21835327 .02999878 .17665608 .049997968 .14496358 .07766724 .12327576 .11300659 .10159811 .14834595 .091425579 .18868001 .09275818 .23400879H.30880738C.30880738 .22334798 .31248475 .21334839 .31983949 .20401001 .3271942 .19467163 .3392334 .19000244 .35595704 .19000244 .37268067 .19000244 .38505555 .19600423 .39308167 .20800781 .4011078 .2200114 .40512086 .23635356 .40512086 .2570343 .40512086 .2763621 .40060426 .2910258 .39157105 .3010254 .382548 .31103517 .36967469 .31604005 .35295106 .31604005 .3389028 .31604005 .3281962 .31270347 .3208313 .30603028 .31347657 .29936729 .3097992 .29170228 .3097992 .28303529H.09375V.73114016H.5841217V.5361328Z"/>
<clipPath id="clip_4">
<path transform="matrix(1,0,0,-1,0,100)" d="M12.538 51.146H84.217V93.127H12.538Z"/>
</clipPath>
<path id="font_5_38" d="M.35791017-.013671875C.31038413-.013671875 .26668296-.0056915285 .22680664 .010269165 .18693035 .026229859 .15250652 .050008138 .123535159 .081604007 .094563808 .11319987 .07210287 .15261333 .056152345 .19984436 .040201826 .2470754 .032226564 .3013102 .032226564 .36254884 .032226564 .4234619 .039957685 .4765574 .055419923 .5218353 .070882167 .5671132 .09342448 .6065267 .123046878 .6400757 .15201824 .67264816 .18636067 .6974843 .22607422 .71458438 .26578776 .7316844 .31022135 .7402344 .359375 .7402344 .38378907 .7402344 .4066569 .7384491 .42797853 .73487856 .44930015 .731308 .46907554 .72676089 .4873047 .7212372 .5029297 .7163747 .5189616 .71029159 .5354004 .7029877 .5518392 .6956838 .5680339 .6876475 .5839844 .6788788V.5625H.5761719C.5677083 .5701904 .5568034 .57948306 .54345706 .5903778 .53011068 .6012828 .51383468 .61202499 .4946289 .62260439 .47607423 .6325429 .45589195 .64071658 .43408204 .64712527 .41227214 .65353396 .38704429 .6567383 .35839845 .6567383 .32747398 .6567383 .2981771 .6503957 .2705078 .6377106 .24283855 .62502548 .21858724 .60632327 .1977539 .581604 .1772461 .55688479 .16129558 .52582296 .14990235 .48841859 .13850911 .4510142 .1328125 .40889488 .1328125 .36206056 .1328125 .31229655 .13883464 .2694448 .1508789 .23350525 .16292317 .19756572 .17936199 .16723633 .20019531 .14251709 .22037761 .11844889 .24414063 .10031637 .27148438 .08811951 .29882813 .075922649 .32779948 .06982422 .35839845 .06982422 .38639323 .06982422 .41227214 .07324219 .43603517 .080078128 .4597982 .08691406 .48095704 .09554037 .49951173 .10595703 .51741537 .11604818 .5328776 .12638347 .54589846 .13696289 .55891928 .14754232 .56917318 .15657552 .57666018 .1640625H.5839844V.048828126C.5680339 .041341146 .5529785 .034179689 .53881838 .02734375 .5246582 .020507813 .507487 .013834636 .4873047 .0073242189 .46614585 .00048828127 .4465332-.0047200524 .4284668-.008300781 .4104004-.011881511 .3868815-.013671875 .35791017-.013671875Z"/>
<path id="font_5_47" d="M.4951172 0H.07373047V.72753909H.17041016V.0859375H.4951172V0Z"/>
<path id="font_5_56" d="M.32763673-.015625C.2849935-.015625 .24772136-.01000468 .21582031 .0012359619 .18391927 .012486775 .15673828 .02919515 .13427735 .051361085 .10888672 .07678223 .09098307 .107172649 .080566409 .14253235 .07014974 .17790222 .064941409 .22150167 .064941409 .2733307V.72753909H.1616211V.2732544C.1616211 .23967488 .16373699 .21139018 .16796875 .18840027 .17220052 .16542053 .1805013 .14480591 .1928711 .1265564 .20589192 .10699463 .22355144 .092158 .24584961 .08204651 .2681478 .07194519 .29541017 .06689453 .32763673 .06689453 .35791017 .06689453 .38476563 .07194519 .40820313 .08204651 .43164063 .092158 .44986979 .10699463 .46289063 .1265564 .4749349 .14513143 .4831543 .16566468 .48754884 .18815613 .49194337 .21065776 .49414063 .23821004 .49414063 .270813V.72753909H.5908203V.2733307C.5908203 .22280376 .58569338 .17944844 .57543948 .14326477 .56518557 .10709127 .5472005 .0764567 .5214844 .051361085 .4983724 .028869629 .47143556 .012079875 .44067384 .0009918213 .4099121-.01008606 .37223307-.015625 .32763673-.015625Z"/>
<path id="font_5_45" d="M.34765626 .18873596C.34765626 .1248525 .3282064 .07563273 .28930665 .04107666 .2504069 .0065307619 .19824219-.0107421879 .1328125-.0107421879 .1171875-.0107421879 .09627279-.009343465 .07006836-.0065460207 .043863935-.0037587484 .021972657-.00039164225 .0043945314 .0035552979V.09667969H.009765625C.023111979 .092030849 .03963216 .086878459 .059326173 .081222537 .07902018 .07557678 .099121097 .072753909 .119628909 .072753909 .14957683 .072753909 .17342122 .076171878 .19116211 .08300781 .208903 .08985392 .2220052 .09962972 .23046875 .112335208 .23925781 .12536621 .24487305 .1413269 .24731446 .16021729 .24975586 .17911785 .25097657 .20094808 .25097657 .22570801V.6503906H.09716797V.72753909H.34765626V.18873596Z"/>
<path id="font_5_16" d="M.31933595 .27490235H.043945314V.3623047H.31933595V.27490235Z"/>
<path id="font_5_49" d="M.59375 0H.48535157L.1640625 .6273804V0H.07373047V.72753909H.2109375L.50341799 .151474V.72753909H.59375V0Z"/>
<path id="font_5_36" d="M-.0048828127 0 .24023438 .72753909H.359375L.6044922 0H.5024414L.43652345 .20263672H.1586914L.09277344 0H-.0048828127M.40966798 .2861328 .29736329 .6288452 .18554688 .2861328H.40966798Z"/>
<path id="font_5_51" d="M.53271487 .5083008C.53271487 .47672526 .5270996 .44685874 .51586917 .41870118 .5046387 .3905436 .48909507 .36653648 .46923829 .3466797 .4441732 .3219401 .41471354 .30322267 .38085938 .29052735 .34700523 .27783204 .30419923 .27148438 .2524414 .27148438H.17041016V0H.07373047V.72753909H.25634767C.2993164 .72753909 .3359375 .7239583 .36621095 .7167969 .39648438 .70963546 .4231771 .6980794 .44628907 .6821289 .47330729 .6635742 .49446617 .64005538 .5097656 .61157229 .5250651 .5830892 .53271487 .54866537 .53271487 .5083008M.4321289 .506073C.4321289 .53100588 .42781578 .55270388 .41918946 .571167 .41056315 .5896301 .39746095 .60469058 .3798828 .61634829 .36458335 .62638857 .34676109 .6335144 .32641603 .63772585 .30607096 .64193728 .28076173 .64404299 .25048829 .64404299H.17041016V.35498048H.23632813C.27539063 .35498048 .30696617 .35813905 .3310547 .36445619 .35514323 .37077333 .37516276 .3820292 .39111329 .39822389 .4054362 .41279093 .41585288 .428655 .42236329 .44581605 .4288737 .46298728 .4321289 .4830729 .4321289 .506073Z"/>
<path id="font_5_50" d="M.5878906 .6443329C.6155599 .6123708 .63704428 .5727437 .65234377 .52545168 .66764327 .47815959 .67529299 .42418418 .67529299 .3635254 .67529299 .30449424 .66780599 .25116984 .65283206 .20355225 .6378581 .15593465 .61621096 .115982059 .5878906 .08369446 .55826827 .049769086 .52368167 .024734498 .48413087 .008590698 .44458009-.0075531008 .40104167-.015625 .35351563-.015625 .30436198-.015625 .26009117-.00730896 .22070313 .00932312 .18131511 .0259552 .14746094 .050745649 .119140628 .08369446 .091145839 .115982059 .06966146 .1557719 .0546875 .20306397 .039713544 .25035606 .032226564 .30384318 .032226564 .3635254 .032226564 .42484538 .039794923 .47865806 .05493164 .5249634 .07006836 .57127889 .09163412 .6110687 .119628909 .6443329 .1476237 .6766307 .18139649 .70117697 .22094727 .7179718 .26049806 .73476669 .3046875 .74316409 .35351563 .74316409 .40299479 .74316409 .44759117 .7345174 .4873047 .7172241 .52701827 .699941 .5605469 .6756439 .5878906 .6443329M.57470706 .3635254C.57470706 .41182456 .5694987 .45457459 .55908206 .4917755 .54866537 .52897647 .5340169 .55981448 .5151367 .58428958 .495931 .6094157 .47273765 .6282603 .44555665 .64082339 .41837565 .6533864 .38785807 .65966799 .3540039 .65966799 .31884767 .65966799 .28816734 .6535492 .2619629 .64131167 .23575847 .6290741 .21256511 .6100667 .19238281 .58428958 .17317708 .55948898 .15844727 .5283203 .14819336 .4907837 .13793946 .45325724 .1328125 .4108378 .1328125 .3635254 .1328125 .26791383 .15283203 .19473267 .1928711 .14398194 .23291016 .09324137 .2866211 .067871097 .3540039 .067871097 .42138673 .067871097 .47501628 .09324137 .5148926 .14398194 .55476889 .19473267 .57470706 .26791383 .57470706 .3635254Z"/>
<clipPath id="clip_6">
<path transform="matrix(1,0,0,-1,0,100)" d="M0 100H700V0H0Z"/>
</clipPath>
</defs>
<g>
<g id="layer_1" data-name="Layer 1">
<g clip-path="url(#clip_0)">
<g opacity=".949997">
<g clip-path="url(#clip_1)">
<path transform="matrix(1,0,0,-1,487.3536,47.3866)" d="M0 0C-.724-2.16-4.264-2.74-2.257-5.262-1.475-6.246 .533-7.441 1.934-5.923 4.245-3.419 1.191-2.248 0 0M226.455-77.028C226.455-185.229 226.436-293.429 226.545-401.63 226.549-405.004 225.665-405.613 222.496-405.567 209.044-405.372 195.588-405.484 182.133-405.484 179.692-399.575 175.496-395.111 170.43-391.391 166.939-388.827 163.454-386.299 160.291-383.287 142.867-366.695 128.525-347.438 113.196-329.038 107.559-322.273 102.246-315.253 98.727-307.065 94.116-296.335 93.171-285.051 93.491-273.55 93.634-268.426 93.797-268.178 98.201-270.575 110.383-277.205 123.52-280.986 136.943-284.025 146.257-286.134 155.788-286.479 165.176-287.798 181.939-290.154 196.072-281.417 200.375-265.097 203.903-251.721 203.079-238.117 202.926-224.573 202.783-211.877 200.145-199.96 192.747-188.968 184.199-176.266 172.317-168.929 158.488-163.936 146.737-159.694 134.499-159.324 122.15-159.457 114.944-159.534 108.38-161.63 102.295-164.9 87.928-172.619 77.589-184.154 71.704-199.474 70.622-202.292 69.398-202.913 67.114-200.586 61.535-194.902 55.59-189.55 50.311-183.603 36.757-168.333 21.595-154.804 5.836-141.931-9.296-129.569-25.512-119.253-45.698-117.392-58.419-116.219-71.183-116.717-83.729-118.498-97.862-120.503-111.52-124.599-124.636-130.654-138.246-136.938-150.392-145.031-159.977-156.498-164.572-161.996-169.044-168.136-170.412-175.29-174.606-197.223-174.143-218.443-158.657-236.756-142.508-255.853-121.856-264.212-97.088-263.1-94.349-262.977-91.531-262.792-88.861-263.264-74.918-265.725-61.987-270.627-50.712-279.469-41.606-286.61-33.426-294.365-30.432-306.156-28.677-313.069-28.187-320.115-28.36-327.166-28.427-329.92-28.656-333.037-30.668-335.373-35.56-341.054-41.348-345.032-49.273-344.669-55.76-344.371-62.273-344.304-68.725-343.65-74.142-343.101-79.497-342.243-84.675-340.039-100.331-333.373-116.384-328.689-133.803-329.77-145.33-330.485-155.445-334.695-164.996-340.459-176.74-347.546-186.332-357.129-194.554-368.087-202.883-379.188-208.315-391.126-205.463-405.484H-354.94C-354.943-401.431-355.037-397.376-354.928-393.327-354.783-387.907-352.165-384.097-347.162-381.904-328.444-373.702-308.749-368.642-288.981-363.836-268.94-358.965-248.56-354.984-230.93-343.404-217.669-334.694-207.482-323.27-202.877-307.785-199.24-295.555-198.721-282.971-199.171-270.201-199.55-259.432-202.337-250.155-208.736-241.278-226.094-217.196-257.052-207.579-284.469-216.807-306.937-224.369-328.279-234.647-349.955-244.095-364.518-250.443-378.841-257.205-394.694-259.896-406.528-261.905-418.512-261.809-430.403-262.948-432.073-263.108-433.503-262.401-434.934-261.678-447.799-255.178-451.188-238.795-442.371-227.337-435.182-217.996-424.839-214.072-414.483-210.071-407.093-207.215-399.637-204.429-392.841-200.386-378.404-191.8-367.87-179.368-358.496-165.574-347.527-149.433-352.051-125.779-366.581-115.004-372.761-110.422-379.531-106.937-385.711-102.472-390.428-99.064-395.598-96.593-401.007-94.462-408.624-91.462-416.498-90.413-424.614-89.715-439.898-88.4-454.653-89.483-468.201-97.263-478.336-103.083-488.186-109.399-498.177-115.471-501.422-117.443-504.799-119.057-508.761-118.737V-1.431C-501.611-3.631-495.78-.163-490.124 3.244-477.892 10.613-465.613 17.844-452.214 22.955-445.742 25.424-439.014 26.819-432.304 24.934-415.198 20.127-401.888 9.201-390.118-3.431-376.389-18.164-362.097-31.963-344.074-41.452-321.013-53.593-296.76-59.505-270.638-56.232-250.373-53.693-235.778-43.43-227.861-24.363-224.284-15.747-222.103-6.635-223.354 2.619-225.088 15.446-232.434 24.96-242.829 32.564-251.782 39.112-261.805 44.175-269.828 52.002-271.94 54.062-275.562 55.797-274.661 59.033-273.795 62.147-269.827 61.379-267.137 62.034-254.438 65.125-244.774 71.8-240.225 84.594H-151.582C-151.195 82.441-152.83 81.132-153.756 79.563-156.552 74.825-158.838 69.889-160.315 64.57-163.097 54.55-162.962 44.468-162.216 34.145-161.129 19.092-158.592 4.57-153.497-9.734-148.634-23.385-139.293-31.443-125.693-33.28-113.723-34.896-101.536-32.554-89.616-30.373-71.209-27.004-56.151-17.457-42.985-4.512-32.473 5.823-22.503 16.721-11.279 26.321-7.573 29.49-4.291 33.542 .828 34.369 10.074 35.863 16.533 33.374 16.273 23.361 16.031 14.044 14.38 5.237 9.76-2.81 5.439-10.336 4.153-18.432 3.984-26.885 3.75-38.606 4.81-50.249 6.765-61.763 8.943-74.587 12.717-86.998 23.242-95.666 36.916-106.926 51.945-114.923 70.599-113.564 83.6-112.618 95.124-108.355 104.928-99.829 123.283-83.867 136.222-63.702 148.242-42.924 155.415-30.525 162.958-18.455 172.457-7.661 177.225-2.244 182.908-.339 189.868-1.83 190.851-2.04 191.871-2.081 192.851-2.299 204.008-4.787 213.098-10.391 217.854-21.047 220.72-27.471 221.443-34.639 222.159-41.688 223.14-51.347 222.903-61.026 223.026-70.703 223.059-73.335 223.537-75.884 226.455-77.028" fill="#202b6d"/>
<path transform="matrix(1,0,0,-1,372.272,-37.207)" d="M0 0C112.542 0 225.084-.016 337.626 .082 340.884 .085 341.649-.649 341.624-3.911 341.456-25.778 341.537-47.646 341.537-69.515 340.873-69.272 340.106-69.168 339.56-68.765 331.29-62.668 322.165-58.384 312.034-56.706 300.524-54.801 288.986-53.913 278.466-60.697 270.035-66.133 262.55-72.683 256.499-80.693 246.908-93.389 239.494-107.448 231.881-121.345 224.905-134.081 216.83-145.855 206.707-156.375 199.081-164.3 190.389-167.761 179.565-166.904 171.107-166.234 158.292-158.788 155.351-149.196 152.555-140.072 151.827-130.876 151.138-121.536 150.508-113.014 152.758-105.363 156.46-97.781 159.041-92.495 162.084-87.337 163.442-81.484 165.102-74.324 163.911-67.072 164.281-59.872 164.854-48.693 161.203-38.909 154.505-30.11 146.532-19.637 135.693-14.239 122.823-14.151 111.381-14.073 101.262-19.104 92.093-25.716 76.342-37.077 65.119-52.985 51.489-66.478 45.988-71.923 40.529-77.372 33.573-81.222 26.039-85.391 17.821-86.503 9.664-88.191-1.547-90.511-12.468-82.886-13.903-71.601-14.829-64.321-15.842-57.031-16.895-49.793-19.19-34.01-15.16-20.43-5.832-7.906-3.881-5.286-.944-3.36 0 0" fill="#202b6d"/>
<path transform="matrix(1,0,0,-1,372.272,-37.207)" d="M0 0C-.944-3.36-3.881-5.286-5.832-7.906-15.16-20.43-19.19-34.01-16.895-49.793-15.842-57.031-14.829-64.321-13.903-71.601-12.468-82.886-1.547-90.511 9.664-88.191 17.821-86.503 26.039-85.391 33.573-81.222 40.529-77.372 45.988-71.923 51.489-66.478 65.119-52.985 76.342-37.077 92.093-25.716 101.262-19.104 111.381-14.073 122.823-14.151 135.693-14.239 146.532-19.637 154.505-30.11 161.203-38.909 164.854-48.693 164.281-59.872 163.911-67.072 165.102-74.324 163.442-81.484 162.084-87.337 159.041-92.495 156.46-97.781 152.758-105.363 150.508-113.014 151.138-121.536 151.827-130.876 152.555-140.072 155.351-149.196 158.292-158.788 171.107-166.234 179.565-166.904 190.389-167.761 199.081-164.3 206.707-156.375 216.83-145.855 224.905-134.081 231.881-121.345 239.494-107.448 246.908-93.389 256.499-80.693 262.55-72.683 270.035-66.133 278.466-60.697 288.986-53.913 300.524-54.801 312.034-56.706 322.165-58.384 331.29-62.668 339.56-68.765 340.106-69.168 340.873-69.272 341.537-69.515V-161.621C338.619-160.478 338.141-157.929 338.108-155.296 337.985-145.62 338.222-135.941 337.241-126.282 336.525-119.232 335.802-112.065 332.935-105.641 328.18-94.984 319.09-89.381 307.933-86.893 306.952-86.674 305.932-86.634 304.949-86.423 297.989-84.932 292.307-86.837 287.539-92.255 278.04-103.049 270.497-115.119 263.324-127.517 251.303-148.296 238.365-168.46 220.01-184.423 210.205-192.949 198.682-197.211 185.681-198.158 167.027-199.516 151.997-191.52 138.324-180.26 127.798-171.592 124.025-159.181 121.847-146.357 119.891-134.843 118.832-123.2 119.066-111.479 119.234-103.026 120.521-94.929 124.842-87.403 129.461-79.357 131.113-70.55 131.355-61.232 131.614-51.22 125.155-48.731 115.91-50.224 110.791-51.051 107.509-55.104 103.803-58.273 92.578-67.872 82.609-78.77 72.096-89.106 58.93-102.051 43.873-111.598 25.466-114.966 13.546-117.148 1.359-119.49-10.611-117.873-24.212-116.037-33.552-107.979-38.415-94.327-43.51-80.024-46.048-65.502-47.135-50.449-47.88-40.126-48.015-30.043-45.233-20.023-43.756-14.705-41.471-9.768-38.674-5.031-37.748-3.461-36.113-2.152-36.5 0Z" fill="#2f4ab1"/>
<path transform="matrix(1,0,0,-1,372.272,-37.207)" stroke-width="2" stroke-linecap="butt" stroke-miterlimit="10" stroke-linejoin="miter" fill="none" stroke="#2f4ab1" d="M0 0C-.944-3.36-3.881-5.286-5.832-7.906-15.16-20.43-19.19-34.01-16.895-49.793-15.842-57.031-14.829-64.321-13.903-71.601-12.468-82.886-1.547-90.511 9.664-88.191 17.821-86.503 26.039-85.391 33.573-81.222 40.529-77.372 45.988-71.923 51.489-66.478 65.119-52.985 76.342-37.077 92.093-25.716 101.262-19.104 111.381-14.073 122.823-14.151 135.693-14.239 146.532-19.637 154.505-30.11 161.203-38.909 164.854-48.693 164.281-59.872 163.911-67.072 165.102-74.324 163.442-81.484 162.084-87.337 159.041-92.495 156.46-97.781 152.758-105.363 150.508-113.014 151.138-121.536 151.827-130.876 152.555-140.072 155.351-149.196 158.292-158.788 171.107-166.234 179.565-166.904 190.389-167.761 199.081-164.3 206.707-156.375 216.83-145.855 224.905-134.081 231.881-121.345 239.494-107.448 246.908-93.389 256.499-80.693 262.55-72.683 270.035-66.133 278.466-60.697 288.986-53.913 300.524-54.801 312.034-56.706 322.165-58.384 331.29-62.668 339.56-68.765 340.106-69.168 340.873-69.272 341.537-69.515V-161.621C338.619-160.478 338.141-157.929 338.108-155.296 337.985-145.62 338.222-135.941 337.241-126.282 336.525-119.232 335.802-112.065 332.935-105.641 328.18-94.984 319.09-89.381 307.933-86.893 306.952-86.674 305.932-86.634 304.949-86.423 297.989-84.932 292.307-86.837 287.539-92.255 278.04-103.049 270.497-115.119 263.324-127.517 251.303-148.296 238.365-168.46 220.01-184.423 210.205-192.949 198.682-197.211 185.681-198.158 167.027-199.516 151.997-191.52 138.324-180.26 127.798-171.592 124.025-159.181 121.847-146.357 119.891-134.843 118.832-123.2 119.066-111.479 119.234-103.026 120.521-94.929 124.842-87.403 129.461-79.357 131.113-70.55 131.355-61.232 131.614-51.22 125.155-48.731 115.91-50.224 110.791-51.051 107.509-55.104 103.803-58.273 92.578-67.872 82.609-78.77 72.096-89.106 58.93-102.051 43.873-111.598 25.466-114.966 13.546-117.148 1.359-119.49-10.611-117.873-24.212-116.037-33.552-107.979-38.415-94.327-43.51-80.024-46.048-65.502-47.135-50.449-47.88-40.126-48.015-30.043-45.233-20.023-43.756-14.705-41.471-9.768-38.674-5.031-37.748-3.461-36.113-2.152-36.5 0H0Z"/>
<path transform="matrix(1,0,0,-1,-21.4077,22.749299)" d="M0 0C0 18.652 .076 37.305-.075 55.956-.1 59.036 .341 60.06 3.809 60.053 73.222 59.924 142.635 59.956 212.048 59.956 212.106 58.24 210.644 57.607 209.728 56.529 206.616 52.865 202.434 50.06 201.55 44.677 199.548 32.478 204.219 22.327 210.995 12.878 219.634 .832 231.973-6.769 244.521-13.988 251.004-17.718 254.388-23.201 254.57-30.543 254.845-41.6 246.93-50.086 234.357-52.124 221.99-54.129 209.865-51.982 198.128-48.438 180.972-43.257 166.057-34.182 153.526-21.127 137.234-4.152 121.027 13.002 99.389 23.553 90.426 27.924 80.916 30.556 71.044 30.169 56.469 29.597 43.452 23.544 30.822 16.735 20.532 11.187 10.273 5.581 0 0" fill="#202b6d"/>
<path transform="matrix(1,0,0,-1,-21.4077,22.749299)" d="M0 0C10.273 5.581 20.532 11.187 30.822 16.735 43.452 23.544 56.469 29.597 71.044 30.169 80.916 30.556 90.426 27.924 99.389 23.553 121.027 13.002 137.234-4.152 153.526-21.127 166.057-34.182 180.972-43.257 198.128-48.438 209.865-51.982 221.99-54.129 234.357-52.124 246.93-50.086 254.845-41.6 254.57-30.543 254.388-23.201 251.004-17.718 244.521-13.988 231.973-6.769 219.634 .832 210.995 12.878 204.219 22.327 199.548 32.478 201.55 44.677 202.434 50.06 206.616 52.865 209.728 56.529 210.644 57.607 212.106 58.24 212.048 59.956H268.536C263.988 47.162 254.324 40.488 241.625 37.396 238.935 36.741 234.966 37.509 234.1 34.396 233.2 31.159 236.822 29.425 238.933 27.365 246.956 19.538 256.98 14.475 265.932 7.927 276.327 .323 283.674-9.191 285.407-22.018 286.658-31.272 284.477-40.384 280.9-49 272.983-68.068 258.389-78.331 238.123-80.87 212.001-84.142 187.748-78.23 164.688-66.089 146.665-56.601 132.373-42.801 118.644-28.068 106.873-15.436 93.563-4.51 76.458 .296 69.747 2.182 63.019 .787 56.548-1.682 43.148-6.793 30.87-14.024 18.638-21.393 12.981-24.8 7.15-28.269 0-26.068 0-17.379 0-8.689 0 0" fill="#2f4ab1"/>
<path transform="matrix(1,0,0,-1,-21.4077,22.749299)" stroke-width="2" stroke-linecap="butt" stroke-miterlimit="10" stroke-linejoin="miter" fill="none" stroke="#2f4ab1" d="M0 0C10.273 5.581 20.532 11.187 30.822 16.735 43.452 23.544 56.469 29.597 71.044 30.169 80.916 30.556 90.426 27.924 99.389 23.553 121.027 13.002 137.234-4.152 153.526-21.127 166.057-34.182 180.972-43.257 198.128-48.438 209.865-51.982 221.99-54.129 234.357-52.124 246.93-50.086 254.845-41.6 254.57-30.543 254.388-23.201 251.004-17.718 244.521-13.988 231.973-6.769 219.634 .832 210.995 12.878 204.219 22.327 199.548 32.478 201.55 44.677 202.434 50.06 206.616 52.865 209.728 56.529 210.644 57.607 212.106 58.24 212.048 59.956H268.536C263.988 47.162 254.324 40.488 241.625 37.396 238.935 36.741 234.966 37.509 234.1 34.396 233.2 31.159 236.822 29.425 238.933 27.365 246.956 19.538 256.98 14.475 265.932 7.927 276.327 .323 283.674-9.191 285.407-22.018 286.658-31.272 284.477-40.384 280.9-49 272.983-68.068 258.389-78.331 238.123-80.87 212.001-84.142 187.748-78.23 164.688-66.089 146.665-56.601 132.373-42.801 118.644-28.068 106.873-15.436 93.563-4.51 76.458 .296 69.747 2.182 63.019 .787 56.548-1.682 43.148-6.793 30.87-14.024 18.638-21.393 12.981-24.8 7.15-28.269 0-26.068 0-17.379 0-8.689 0 0Z"/>
<path transform="matrix(1,0,0,-1,487.3536,47.3866)" d="M0 0C1.191-2.248 4.245-3.419 1.934-5.923 .533-7.441-1.475-6.246-2.257-5.262-4.264-2.74-.724-2.16 0 0" fill="#202b6d" stroke="#202b6d"/>
</g>
</g>
<path transform="matrix(1,0,0,-1,265.7026,47.5379)" d="M0 0C.144-.863-.005-1.394-.934-1.564-1.333-1.638-1.734-1.75-2.105-1.91-2.603-2.124-2.949-2.5-2.943-3.084-2.936-3.647-2.513-3.874-2.068-4.022-1.536-4.2-.994-4.375-.442-4.46 2.816-4.961 3.614-4.194 3.114-1.001 2.743 1.364 2.073 3.683 1.949 6.083 1.862 7.775 2.222 8.182 3.869 8.01 6.197 7.768 8.507 7.362 10.822 7.008 11.791 6.86 12.174 6.307 12.104 5.292 11.847 1.576 11.655-2.146 11.427-5.864 11.341-7.262 10.601-8.098 9.226-8.433 8.037-8.723 6.884-9.182 5.685-9.405 4.642-9.598 4.398-10.136 4.404-11.099 4.434-15.805 4.414-20.511 4.406-25.217 4.403-26.971 3.985-27.423 2.238-27.202 .995-27.045-.216-27.058-1.411-27.346-2.281-27.555-3.124-28.035-3.221-29.001-3.316-29.949-2.501-30.428-1.738-30.748 .887-31.848 3.558-31.508 6.233-30.932 6.865-30.796 6.821-30.328 6.864-29.875 7.146-26.881 7.413-23.885 7.719-20.893 7.943-18.71 8.224-16.533 8.469-14.352 8.599-13.185 9.173-12.748 10.399-12.766 12.758-12.8 15.088-13.084 17.398-13.464 19.753-13.851 20.138-14.909 18.701-16.746 17.443-18.355 16.139-19.929 14.809-21.479 14.185-22.206 14.226-22.725 14.896-23.427 17.047-25.679 19.084-28.036 20.995-30.499 22.124-31.955 22.084-32.199 20.563-33.226 19.843-33.712 19.076-34.143 18.422-34.706 17.975-35.09 17.498-35.634 17.767-36.306 18.024-36.948 18.654-37.079 19.304-37.1 21.788-37.179 23.862-36.045 25.82-34.75 28.361-33.071 28.221-33.076 26.377-30.651 24.339-27.971 22.485-25.151 20.585-22.368 20.001-21.512 20.466-20.822 21.129-20.23 24.659-17.078 27.303-13.292 29.068-8.915 31.239-3.53 32.543 2.059 33.022 7.859 33.532 14.018 32.597 20.077 31.928 26.154 31.818 27.146 31.958 27.692 32.899 28.056 33.88 28.437 34.811 28.98 34.686 30.239 34.585 31.264 32.921 32.487 31.657 32.467 30.415 32.447 29.65 31.877 29.286 30.549 27.577 24.315 27.451 17.944 27.454 11.553 27.456 8.353 24.467 5.449 21.252 5.527 20.821 5.537 20.243 5.392 20.126 6.028 20.027 6.565 20.445 6.88 20.858 7.086 21.724 7.518 22.667 7.811 23.486 8.313 26.46 10.134 26.228 12.64 23.383 14.605 22.279 15.368 20.909 15.769 19.47 15.732 16.804 15.663 14.815 13.282 15.299 10.666 15.345 10.415 15.452 10.17 15.462 9.92 15.491 9.171 15.713 8.191 14.646 8.077 13.665 7.973 13.615 8.894 13.595 9.608 13.572 10.419 13.217 10.777 12.411 10.898 8.63 11.465 4.869 12.166 1.038 12.369 .238 12.411-.019 12.155-.197 11.433-.597 9.816-.413 8.178-.509 6.552-.59 4.348-.362 2.165 0 0M11.6-14.788C10.776-14.622 10.519-14.914 10.463-15.7 10.311-17.843 10.077-19.979 9.916-22.122 9.695-25.079 9.495-28.038 9.319-30.998 9.236-32.4 8.704-33.216 7.16-33.377 5.171-33.584 3.19-33.824 1.194-33.663-.941-33.491-2.952-32.964-4.449-31.266-6.16-29.327-5.686-27.086-3.343-26.052-2.166-25.533-.96-25.072 .349-25.142 1.949-25.226 2.393-24.538 2.353-22.961 2.241-18.563 2.338-14.161 2.296-9.762 2.285-8.611 2.669-7.953 3.824-7.673 5.213-7.336 6.558-6.809 7.953-6.5 8.998-6.268 9.362-5.724 9.394-4.703 9.466-2.403 9.621-.106 9.743 2.192 9.884 4.83 9.884 4.828 7.308 5.366 3.583 6.145 3.72 6.625 4.281 2.415 4.562 .295 5.081-1.792 5.447-3.902 5.582-4.68 5.56-5.542 4.605-5.799 2.155-6.456-.321-6.81-2.775-5.8-4.172-5.225-5.059-4.174-5.078-2.651-5.097-1.192-4.004-.516-2.772-.136-1.968 .112-1.801 .501-1.933 1.322-2.478 4.726-2.432 8.154-2.07 11.573-1.85 13.652-1.549 13.864 .486 13.927 4.41 14.05 8.2 13.044 12.048 12.537 13.11 12.398 13.537 12.565 13.834 13.68 14.596 16.539 17.295 18.204 20.19 17.724 21.663 17.479 23.043 16.942 24.299 16.1 24.651 15.863 24.949 15.4 25.591 15.636 25.679 17.081 25.755 18.56 25.862 20.037 26.132 23.756 26.212 27.519 27.543 31.06 28.666 34.044 30.841 34.91 33.823 33.75 36.942 32.537 37.655 29.192 35.1 27.09 34.004 26.187 33.907 25.331 34.042 24.08 34.815 16.916 35.672 9.768 34.239 2.554 32.956-3.903 31.101-10.107 27.51-15.683 26.235-17.663 24.709-19.459 23.04-21.128 22.696-21.472 22.16-21.752 22.646-22.375 25.093-25.511 26.78-29.212 29.748-31.957 30.521-32.672 30.629-33.371 29.775-33.986 27.454-35.658 25.193-37.442 22.505-38.522 21.054-39.106 19.537-39.296 17.985-39.017 16.399-38.731 15.526-37.659 15.775-36.078 16.004-34.622 16.668-33.382 18.148-32.756 19.158-32.329 19.429-31.285 18.598-30.638 16.231-28.795 14.782-26.139 12.657-24.105 11.418-22.92 11.521-21.862 12.442-20.65 12.782-20.202 13.101-19.737 13.47-19.316 14.473-18.171 15.498-17.045 16.693-15.712 14.846-15.125 13.194-15.11 11.6-14.788" fill="#ff8b00"/>
<path transform="matrix(1,0,0,-1,265.7026,47.5379)" stroke-width=".15" stroke-linecap="butt" stroke-miterlimit="10" stroke-linejoin="miter" fill="none" stroke="#ff8b00" d="M0 0C.144-.863-.005-1.394-.934-1.564-1.333-1.638-1.734-1.75-2.105-1.91-2.603-2.124-2.949-2.5-2.943-3.084-2.936-3.647-2.513-3.874-2.068-4.022-1.536-4.2-.994-4.375-.442-4.46 2.816-4.961 3.614-4.194 3.114-1.001 2.743 1.364 2.073 3.683 1.949 6.083 1.862 7.775 2.222 8.182 3.869 8.01 6.197 7.768 8.507 7.362 10.822 7.008 11.791 6.86 12.174 6.307 12.104 5.292 11.847 1.576 11.655-2.146 11.427-5.864 11.341-7.262 10.601-8.098 9.226-8.433 8.037-8.723 6.884-9.182 5.685-9.405 4.642-9.598 4.398-10.136 4.404-11.099 4.434-15.805 4.414-20.511 4.406-25.217 4.403-26.971 3.985-27.423 2.238-27.202 .995-27.045-.216-27.058-1.411-27.346-2.281-27.555-3.124-28.035-3.221-29.001-3.316-29.949-2.501-30.428-1.738-30.748 .887-31.848 3.558-31.508 6.233-30.932 6.865-30.796 6.821-30.328 6.864-29.875 7.146-26.881 7.413-23.885 7.719-20.893 7.943-18.71 8.224-16.533 8.469-14.352 8.599-13.185 9.173-12.748 10.399-12.766 12.758-12.8 15.088-13.084 17.398-13.464 19.753-13.851 20.138-14.909 18.701-16.746 17.443-18.355 16.139-19.929 14.809-21.479 14.185-22.206 14.226-22.725 14.896-23.427 17.047-25.679 19.084-28.036 20.995-30.499 22.124-31.955 22.084-32.199 20.563-33.226 19.843-33.712 19.076-34.143 18.422-34.706 17.975-35.09 17.498-35.634 17.767-36.306 18.024-36.948 18.654-37.079 19.304-37.1 21.788-37.179 23.862-36.045 25.82-34.75 28.361-33.071 28.221-33.076 26.377-30.651 24.339-27.971 22.485-25.151 20.585-22.368 20.001-21.512 20.466-20.822 21.129-20.23 24.659-17.078 27.303-13.292 29.068-8.915 31.239-3.53 32.543 2.059 33.022 7.859 33.532 14.018 32.597 20.077 31.928 26.154 31.818 27.146 31.958 27.692 32.899 28.056 33.88 28.437 34.811 28.98 34.686 30.239 34.585 31.264 32.921 32.487 31.657 32.467 30.415 32.447 29.65 31.877 29.286 30.549 27.577 24.315 27.451 17.944 27.454 11.553 27.456 8.353 24.467 5.449 21.252 5.527 20.821 5.537 20.243 5.392 20.126 6.028 20.027 6.565 20.445 6.88 20.858 7.086 21.724 7.518 22.667 7.811 23.486 8.313 26.46 10.134 26.228 12.64 23.383 14.605 22.279 15.368 20.909 15.769 19.47 15.732 16.804 15.663 14.815 13.282 15.299 10.666 15.345 10.415 15.452 10.17 15.462 9.92 15.491 9.171 15.713 8.191 14.646 8.077 13.665 7.973 13.615 8.894 13.595 9.608 13.572 10.419 13.217 10.777 12.411 10.898 8.63 11.465 4.869 12.166 1.038 12.369 .238 12.411-.019 12.155-.197 11.433-.597 9.816-.413 8.178-.509 6.552-.59 4.348-.362 2.165 0 0ZM11.6-14.788C10.776-14.622 10.519-14.914 10.463-15.7 10.311-17.843 10.077-19.979 9.916-22.122 9.695-25.079 9.495-28.038 9.319-30.998 9.236-32.4 8.704-33.216 7.16-33.377 5.171-33.584 3.19-33.824 1.194-33.663-.941-33.491-2.952-32.964-4.449-31.266-6.16-29.327-5.686-27.086-3.343-26.052-2.166-25.533-.96-25.072 .349-25.142 1.949-25.226 2.393-24.538 2.353-22.961 2.241-18.563 2.338-14.161 2.296-9.762 2.285-8.611 2.669-7.953 3.824-7.673 5.213-7.336 6.558-6.809 7.953-6.5 8.998-6.268 9.362-5.724 9.394-4.703 9.466-2.403 9.621-.106 9.743 2.192 9.884 4.83 9.884 4.828 7.308 5.366 3.583 6.145 3.72 6.625 4.281 2.415 4.562 .295 5.081-1.792 5.447-3.902 5.582-4.68 5.56-5.542 4.605-5.799 2.155-6.456-.321-6.81-2.775-5.8-4.172-5.225-5.059-4.174-5.078-2.651-5.097-1.192-4.004-.516-2.772-.136-1.968 .112-1.801 .501-1.933 1.322-2.478 4.726-2.432 8.154-2.07 11.573-1.85 13.652-1.549 13.864 .486 13.927 4.41 14.05 8.2 13.044 12.048 12.537 13.11 12.398 13.537 12.565 13.834 13.68 14.596 16.539 17.295 18.204 20.19 17.724 21.663 17.479 23.043 16.942 24.299 16.1 24.651 15.863 24.949 15.4 25.591 15.636 25.679 17.081 25.755 18.56 25.862 20.037 26.132 23.756 26.212 27.519 27.543 31.06 28.666 34.044 30.841 34.91 33.823 33.75 36.942 32.537 37.655 29.192 35.1 27.09 34.004 26.187 33.907 25.331 34.042 24.08 34.815 16.916 35.672 9.768 34.239 2.554 32.956-3.903 31.101-10.107 27.51-15.683 26.235-17.663 24.709-19.459 23.04-21.128 22.696-21.472 22.16-21.752 22.646-22.375 25.093-25.511 26.78-29.212 29.748-31.957 30.521-32.672 30.629-33.371 29.775-33.986 27.454-35.658 25.193-37.442 22.505-38.522 21.054-39.106 19.537-39.296 17.985-39.017 16.399-38.731 15.526-37.659 15.775-36.078 16.004-34.622 16.668-33.382 18.148-32.756 19.158-32.329 19.429-31.285 18.598-30.638 16.231-28.795 14.782-26.139 12.657-24.105 11.418-22.92 11.521-21.862 12.442-20.65 12.782-20.202 13.101-19.737 13.47-19.316 14.473-18.171 15.498-17.045 16.693-15.712 14.846-15.125 13.194-15.11 11.6-14.788Z"/>
<path transform="matrix(1,0,0,-1,232.3444,84.0628)" d="M0 0C-.31 1.091 .068 2.125 .247 3.171 .376 3.923 .342 4.572-.61 4.552-1.461 4.534-2.635 5.321-3.005 3.798-3.245 2.808-3.428 1.803-3.619 .802-3.993-1.151-3.37-1.854-1.311-1.825 .225-1.804 .433-1.524 0 0M23.242-2.077C23.595-1.369 23.098-.772 22.599-.339 21.614 .515 21.584 1.499 21.796 2.703 22.677 7.731 23.796 12.717 24.333 17.807 24.483 19.233 23.971 20.151 23.018 21.009 22.13 21.808 21.007 22.216 20.014 22.84 19.343 23.262 18.836 22.809 18.31 22.549 17.431 22.113 16.553 21.701 15.538 21.797 14.948 21.853 14.317 22.068 14.253 22.682 14.186 23.325 14.792 23.644 15.372 23.712 16.374 23.831 17.229 24.281 18.049 24.801 20.031 26.056 20.131 28.127 18.321 29.577 17.718 30.06 17.082 30.469 16.375 30.787 13.559 32.056 10.913 30.481 10.711 27.399 10.654 26.535 10.721 25.659 10.417 24.82 10.224 24.286 9.867 23.915 9.302 23.938 8.739 23.961 8.553 24.442 8.545 24.925 8.529 26.032 7.967 26.132 7.023 25.951 4.214 25.412 2.338 23.58 .601 21.515 .249 21.096 .273 20.712 .506 20.252 .781 19.707 1.073 19.151 1.22 18.566 1.353 18.036 1.405 17.438 .746 17.1 .071 16.753-.434 16.985-.866 17.516-1.84 18.714-2.652 20.013-3.25 21.436-5.464 26.699-8.697 31.375-11.727 36.168-12.768 37.814-12.683 38.196-11.093 39.264-11.008 39.321-10.925 39.381-10.839 39.437-9.752 40.143-8.357 40.935-9.038 42.388-9.651 43.696-11.26 43.771-12.59 43.533-14.534 43.184-16.213 42.16-17.809 41.033-18.661 40.431-18.425 39.602-18.146 38.808-17.089 35.809-15.659 32.986-14.085 30.23-11.47 25.65-8.4 21.368-5.471 16.994-5.112 16.457-4.547 15.909-5.091 15.212-5.638 14.513-6.37 14.699-7.053 14.991-9.215 15.915-11.368 16.857-13.524 17.794-16.098 18.912-16.274 18.888-17.915 16.605-18.838 15.32-19.695 13.986-20.537 12.646-21.295 11.439-22.258 11.281-23.393 12.02-24.764 12.912-26.095 13.865-27.457 14.77-27.905 15.068-28.384 15.569-28.951 15.031-29.458 14.551-29.181 13.957-28.958 13.462-28.754 13.007-28.459 12.562-28.105 12.212-26.906 11.026-25.682 9.865-24.432 8.734-23.423 7.819-22.406 7.573-21.156 8.502-19.553 9.694-17.92 10.852-16.511 12.259-15.484 13.284-14.636 13.194-13.612 12.341-9.305 8.758-4.241 6.976 1.241 6.302 4.575 5.893 7.881 6.186 11.08 7.281 13.255 8.025 14.971 9.489 16.582 11.051 17.6 12.038 17.348 12.966 16.003 13.55 15.377 13.822 14.923 14.164 15.04 14.908 15.18 15.799 15.89 15.641 16.484 15.615 16.942 15.596 17.4 15.519 17.851 15.43 19.009 15.201 19.604 14.633 19.473 13.306 19.068 9.186 18.717 5.059 18.433 .928 18.244-1.807 18.976-2.501 21.777-2.484 22.231-2.374 22.945-2.673 23.242-2.077M-10.941 20.736C-14.271 26.073-17.598 31.411-20.198 37.162-21.544 40.141-21.46 40.586-18.915 42.556-16.247 44.622-13.314 45.939-9.858 45.755-8.243 45.668-7.265 44.721-6.659 43.293-6.059 41.88-6.608 40.814-7.649 39.891-8.185 39.416-8.712 38.925-9.293 38.51-10.171 37.884-10.247 37.356-9.58 36.397-7.333 33.167-5.086 29.929-3.141 26.498-1.145 22.977-1.201 23.044 1.884 25.738 3.232 26.916 4.865 28.057 6.715 27.942 8.271 27.845 8.758 28.494 9.256 29.699 10.125 31.799 11.831 32.827 14.074 32.874 16.148 32.917 17.861 32.027 19.57 30.87 21.387 29.638 22.117 28.075 21.688 26.063 21.449 24.946 21.665 24.451 22.66 23.943 25.503 22.493 26.811 20.336 26.243 16.941 25.558 12.854 24.795 8.784 24.054 4.709 23.742 2.995 23.089 1.248 25.347 .146 26.261-.301 26.317-1.476 26.158-2.487 26.046-3.195 25.694-3.724 24.948-3.911 22.277-4.581 19.686-4.512 17.197-3.176 16.379-2.737 16.004-2.156 16.085-1.21 16.25 .726 16.384 2.667 16.476 4.608 16.532 5.794 16.487 6.985 16.487 8.336 15.136 7.296 13.872 6.45 12.445 5.871 9.75 4.777 6.937 4.345 4.047 4.283 3.575 4.273 2.798 4.478 2.761 3.807 2.687 2.496 2.049 1.219 2.745-.161 3.606-1.87 3.078-2.916 1.187-3.468-.78-4.042-2.771-3.841-4.728-3.343-5.724-3.09-6.107-2.394-5.969-1.366-5.723 .459-5.584 2.301-5.267 4.112-5.092 5.111-5.329 5.551-6.312 5.87-9.139 6.787-11.937 7.819-14.224 9.813-14.827 10.339-15.205 10.059-15.681 9.722-17.601 8.363-19.537 7.025-21.45 5.656-22.318 5.036-23.106 5.018-23.954 5.71-25.301 6.809-26.724 7.817-28.047 8.943-29.467 10.153-30.621 11.602-31.138 13.429-31.493 14.681-31.657 16.045-30.517 16.979-29.262 18.007-27.913 17.607-26.68 16.784-25.66 16.104-24.67 15.378-23.661 14.681-22.762 14.06-22.06 14.075-21.385 15.114-20.608 16.31-19.65 17.391-18.762 18.515-16.944 20.818-15.787 21.065-13.078 19.8-11.985 19.29-10.986 18.546-9.359 18.258-10.013 19.281-10.484 20.004-10.941 20.736" fill="#fec400"/>
<path transform="matrix(1,0,0,-1,232.3444,84.0628)" stroke-width=".15" stroke-linecap="butt" stroke-miterlimit="10" stroke-linejoin="miter" fill="none" stroke="#fec400" d="M0 0C-.31 1.091 .068 2.125 .247 3.171 .376 3.923 .342 4.572-.61 4.552-1.461 4.534-2.635 5.321-3.005 3.798-3.245 2.808-3.428 1.803-3.619 .802-3.993-1.151-3.37-1.854-1.311-1.825 .225-1.804 .433-1.524 0 0ZM23.242-2.077C23.595-1.369 23.098-.772 22.599-.339 21.614 .515 21.584 1.499 21.796 2.703 22.677 7.731 23.796 12.717 24.333 17.807 24.483 19.233 23.971 20.151 23.018 21.009 22.13 21.808 21.007 22.216 20.014 22.84 19.343 23.262 18.836 22.809 18.31 22.549 17.431 22.113 16.553 21.701 15.538 21.797 14.948 21.853 14.317 22.068 14.253 22.682 14.186 23.325 14.792 23.644 15.372 23.712 16.374 23.831 17.229 24.281 18.049 24.801 20.031 26.056 20.131 28.127 18.321 29.577 17.718 30.06 17.082 30.469 16.375 30.787 13.559 32.056 10.913 30.481 10.711 27.399 10.654 26.535 10.721 25.659 10.417 24.82 10.224 24.286 9.867 23.915 9.302 23.938 8.739 23.961 8.553 24.442 8.545 24.925 8.529 26.032 7.967 26.132 7.023 25.951 4.214 25.412 2.338 23.58 .601 21.515 .249 21.096 .273 20.712 .506 20.252 .781 19.707 1.073 19.151 1.22 18.566 1.353 18.036 1.405 17.438 .746 17.1 .071 16.753-.434 16.985-.866 17.516-1.84 18.714-2.652 20.013-3.25 21.436-5.464 26.699-8.697 31.375-11.727 36.168-12.768 37.814-12.683 38.196-11.093 39.264-11.008 39.321-10.925 39.381-10.839 39.437-9.752 40.143-8.357 40.935-9.038 42.388-9.651 43.696-11.26 43.771-12.59 43.533-14.534 43.184-16.213 42.16-17.809 41.033-18.661 40.431-18.425 39.602-18.146 38.808-17.089 35.809-15.659 32.986-14.085 30.23-11.47 25.65-8.4 21.368-5.471 16.994-5.112 16.457-4.547 15.909-5.091 15.212-5.638 14.513-6.37 14.699-7.053 14.991-9.215 15.915-11.368 16.857-13.524 17.794-16.098 18.912-16.274 18.888-17.915 16.605-18.838 15.32-19.695 13.986-20.537 12.646-21.295 11.439-22.258 11.281-23.393 12.02-24.764 12.912-26.095 13.865-27.457 14.77-27.905 15.068-28.384 15.569-28.951 15.031-29.458 14.551-29.181 13.957-28.958 13.462-28.754 13.007-28.459 12.562-28.105 12.212-26.906 11.026-25.682 9.865-24.432 8.734-23.423 7.819-22.406 7.573-21.156 8.502-19.553 9.694-17.92 10.852-16.511 12.259-15.484 13.284-14.636 13.194-13.612 12.341-9.305 8.758-4.241 6.976 1.241 6.302 4.575 5.893 7.881 6.186 11.08 7.281 13.255 8.025 14.971 9.489 16.582 11.051 17.6 12.038 17.348 12.966 16.003 13.55 15.377 13.822 14.923 14.164 15.04 14.908 15.18 15.799 15.89 15.641 16.484 15.615 16.942 15.596 17.4 15.519 17.851 15.43 19.009 15.201 19.604 14.633 19.473 13.306 19.068 9.186 18.717 5.059 18.433 .928 18.244-1.807 18.976-2.501 21.777-2.484 22.231-2.374 22.945-2.673 23.242-2.077ZM-10.941 20.736C-14.271 26.073-17.598 31.411-20.198 37.162-21.544 40.141-21.46 40.586-18.915 42.556-16.247 44.622-13.314 45.939-9.858 45.755-8.243 45.668-7.265 44.721-6.659 43.293-6.059 41.88-6.608 40.814-7.649 39.891-8.185 39.416-8.712 38.925-9.293 38.51-10.171 37.884-10.247 37.356-9.58 36.397-7.333 33.167-5.086 29.929-3.141 26.498-1.145 22.977-1.201 23.044 1.884 25.738 3.232 26.916 4.865 28.057 6.715 27.942 8.271 27.845 8.758 28.494 9.256 29.699 10.125 31.799 11.831 32.827 14.074 32.874 16.148 32.917 17.861 32.027 19.57 30.87 21.387 29.638 22.117 28.075 21.688 26.063 21.449 24.946 21.665 24.451 22.66 23.943 25.503 22.493 26.811 20.336 26.243 16.941 25.558 12.854 24.795 8.784 24.054 4.709 23.742 2.995 23.089 1.248 25.347 .146 26.261-.301 26.317-1.476 26.158-2.487 26.046-3.195 25.694-3.724 24.948-3.911 22.277-4.581 19.686-4.512 17.197-3.176 16.379-2.737 16.004-2.156 16.085-1.21 16.25 .726 16.384 2.667 16.476 4.608 16.532 5.794 16.487 6.985 16.487 8.336 15.136 7.296 13.872 6.45 12.445 5.871 9.75 4.777 6.937 4.345 4.047 4.283 3.575 4.273 2.798 4.478 2.761 3.807 2.687 2.496 2.049 1.219 2.745-.161 3.606-1.87 3.078-2.916 1.187-3.468-.78-4.042-2.771-3.841-4.728-3.343-5.724-3.09-6.107-2.394-5.969-1.366-5.723 .459-5.584 2.301-5.267 4.112-5.092 5.111-5.329 5.551-6.312 5.87-9.139 6.787-11.937 7.819-14.224 9.813-14.827 10.339-15.205 10.059-15.681 9.722-17.601 8.363-19.537 7.025-21.45 5.656-22.318 5.036-23.106 5.018-23.954 5.71-25.301 6.809-26.724 7.817-28.047 8.943-29.467 10.153-30.621 11.602-31.138 13.429-31.493 14.681-31.657 16.045-30.517 16.979-29.262 18.007-27.913 17.607-26.68 16.784-25.66 16.104-24.67 15.378-23.661 14.681-22.762 14.06-22.06 14.075-21.385 15.114-20.608 16.31-19.65 17.391-18.762 18.515-16.944 20.818-15.787 21.065-13.078 19.8-11.985 19.29-10.986 18.546-9.359 18.258-10.013 19.281-10.484 20.004-10.941 20.736Z"/>
<path transform="matrix(1,0,0,-1,248.4873,34.032999)" d="M0 0C-.205-4.7-1.362-9.052-4.591-12.676-4.916-13.04-5.513-13.65-4.865-14.287-4.259-14.883-3.663-14.452-3.228-14.082-1.235-12.392 .014-10.154 1.056-7.819 2.47-4.652 2.027-1.283 1.941 2.039 1.924 2.682 1.523 2.962 .958 2.985 .314 3.011 .063 2.523 .014 1.991-.046 1.332 0 .664 0 0" fill="#fec400"/>
<path transform="matrix(1,0,0,-1,248.4873,34.032999)" stroke-width=".15" stroke-linecap="butt" stroke-miterlimit="10" stroke-linejoin="miter" fill="none" stroke="#fec400" d="M0 0C-.205-4.7-1.362-9.052-4.591-12.676-4.916-13.04-5.513-13.65-4.865-14.287-4.259-14.883-3.663-14.452-3.228-14.082-1.235-12.392 .014-10.154 1.056-7.819 2.47-4.652 2.027-1.283 1.941 2.039 1.924 2.682 1.523 2.962 .958 2.985 .314 3.011 .063 2.523 .014 1.991-.046 1.332 0 .664 0 0Z"/>
<path transform="matrix(1,0,0,-1,302.651,64.6176)" d="M0 0C.026 .591-.117 1.132-.391 1.634-.589 1.998-.824 2.335-1.336 2.255-1.891 2.168-2.16 1.806-2.133 1.297-1.967-1.826-3.563-4.269-5.153-6.729-5.449-7.187-6.266-7.71-5.6-8.274-4.904-8.863-4.031-8.41-3.558-7.818-1.722-5.52-.319-2.995 0 0" fill="#ff8b00"/>
<path transform="matrix(1,0,0,-1,302.651,64.6176)" stroke-width=".15" stroke-linecap="butt" stroke-miterlimit="10" stroke-linejoin="miter" fill="none" stroke="#ff8b00" d="M0 0C.026 .591-.117 1.132-.391 1.634-.589 1.998-.824 2.335-1.336 2.255-1.891 2.168-2.16 1.806-2.133 1.297-1.967-1.826-3.563-4.269-5.153-6.729-5.449-7.187-6.266-7.71-5.6-8.274-4.904-8.863-4.031-8.41-3.558-7.818-1.722-5.52-.319-2.995 0 0Z"/>
<path transform="matrix(1,0,0,-1,254.8132,38.7306)" d="M0 0C-.068 .373-.107 .781-.222 1.167-.356 1.613-.56 2.108-1.129 2.035-1.627 1.972-1.93 1.544-1.956 1.06-2.122-2.09-3.622-4.681-5.344-7.188-5.72-7.736-5.877-8.368-5.311-8.846-4.765-9.307-4.216-8.856-3.799-8.535-3.324-8.169-2.88-7.706-2.568-7.196-1.22-4.994-.42-2.586 0 0" fill="#fec400"/>
<path transform="matrix(1,0,0,-1,254.8132,38.7306)" stroke-width=".15" stroke-linecap="butt" stroke-miterlimit="10" stroke-linejoin="miter" fill="none" stroke="#fec400" d="M0 0C-.068 .373-.107 .781-.222 1.167-.356 1.613-.56 2.108-1.129 2.035-1.627 1.972-1.93 1.544-1.956 1.06-2.122-2.09-3.622-4.681-5.344-7.188-5.72-7.736-5.877-8.368-5.311-8.846-4.765-9.307-4.216-8.856-3.799-8.535-3.324-8.169-2.88-7.706-2.568-7.196-1.22-4.994-.42-2.586 0 0Z"/>
<path transform="matrix(1,0,0,-1,246.1623,34.989503)" d="M0 0C-.014 .16-.069 .768-.117 1.377-.165 1.986-.447 2.318-1.1 2.234-1.665 2.162-2.077 1.921-2.089 1.289-2.104 .423-2.066-.444-2.104-1.309-2.202-3.518-2.788-5.532-4.546-7.036-4.926-7.361-5.208-7.712-4.917-8.213-4.577-8.799-4.043-8.672-3.574-8.445-2.257-7.807-1.537-6.615-.963-5.361-.256-3.814 .026-2.155 0 0" fill="#fec400"/>
<path transform="matrix(1,0,0,-1,246.1623,34.989503)" stroke-width=".15" stroke-linecap="butt" stroke-miterlimit="10" stroke-linejoin="miter" fill="none" stroke="#fec400" d="M0 0C-.014 .16-.069 .768-.117 1.377-.165 1.986-.447 2.318-1.1 2.234-1.665 2.162-2.077 1.921-2.089 1.289-2.104 .423-2.066-.444-2.104-1.309-2.202-3.518-2.788-5.532-4.546-7.036-4.926-7.361-5.208-7.712-4.917-8.213-4.577-8.799-4.043-8.672-3.574-8.445-2.257-7.807-1.537-6.615-.963-5.361-.256-3.814 .026-2.155 0 0Z"/>
<path transform="matrix(1,0,0,-1,294.4102,69.0223)" d="M0 0C.225-.79 .688-.915 1.36-.485 2.519 .258 3.28 1.322 3.734 2.593 4.058 3.499 4.295 4.436 4.549 5.366 4.699 5.917 4.427 6.241 3.902 6.371 3.48 6.476 3.047 6.481 2.893 5.981 2.262 3.932 1.536 1.936 .078 .297 .02 .231 .027 .108 0 0" fill="#ff8b00"/>
<path transform="matrix(1,0,0,-1,294.4102,69.0223)" stroke-width=".15" stroke-linecap="butt" stroke-miterlimit="10" stroke-linejoin="miter" fill="none" stroke="#ff8b00" d="M0 0C.225-.79 .688-.915 1.36-.485 2.519 .258 3.28 1.322 3.734 2.593 4.058 3.499 4.295 4.436 4.549 5.366 4.699 5.917 4.427 6.241 3.902 6.371 3.48 6.476 3.047 6.481 2.893 5.981 2.262 3.932 1.536 1.936 .078 .297 .02 .231 .027 .108 0 0Z"/>
<path transform="matrix(1,0,0,-1,211.2047,55.8907)" d="M0 0C-.088 .666 .113 1.327-.665 1.502-1.542 1.699-1.653 .984-1.858 .433-2.53-1.372-2.838-3.316-3.92-4.962-4.224-5.425-4.012-5.743-3.644-5.987-3.053-6.378-2.548-6.122-2.193-5.631-.95-3.908-.246-1.972 0 0" fill="#fec400"/>
<path transform="matrix(1,0,0,-1,211.2047,55.8907)" stroke-width=".15" stroke-linecap="butt" stroke-miterlimit="10" stroke-linejoin="miter" fill="none" stroke="#fec400" d="M0 0C-.088 .666 .113 1.327-.665 1.502-1.542 1.699-1.653 .984-1.858 .433-2.53-1.372-2.838-3.316-3.92-4.962-4.224-5.425-4.012-5.743-3.644-5.987-3.053-6.378-2.548-6.122-2.193-5.631-.95-3.908-.246-1.972 0 0Z"/>
<path transform="matrix(1,0,0,-1,286.0891,26.495598)" d="M0 0C-.015-.304-.034-.607-.046-.911-.065-1.434 .179-1.795 .679-1.931 1.246-2.084 1.576-1.688 1.716-1.26 2.044-.253 2.289 .782 2.556 1.808 2.724 2.456 2.666 3.069 1.949 3.322 1.201 3.585 .681 3.164 .356 2.533-.052 1.74 .02 .859 0 0" fill="#ff8b00"/>
<path transform="matrix(1,0,0,-1,286.0891,26.495598)" stroke-width=".15" stroke-linecap="butt" stroke-miterlimit="10" stroke-linejoin="miter" fill="none" stroke="#ff8b00" d="M0 0C-.015-.304-.034-.607-.046-.911-.065-1.434 .179-1.795 .679-1.931 1.246-2.084 1.576-1.688 1.716-1.26 2.044-.253 2.289 .782 2.556 1.808 2.724 2.456 2.666 3.069 1.949 3.322 1.201 3.585 .681 3.164 .356 2.533-.052 1.74 .02 .859 0 0Z"/>
<path transform="matrix(1,0,0,-1,283.9813,25.779603)" d="M0 0C-.009 .806 .122 1.632-.376 2.365-.764 2.934-1.275 3.158-1.951 3.009-2.665 2.853-2.54 2.276-2.548 1.791-2.565 .819-2.522-.164-2.065-1.039-1.795-1.557-1.478-2.2-.719-2.068 .119-1.922-.004-1.215 0-.61 .001-.407 0-.203 0 0" fill="#ff8b00"/>
<path transform="matrix(1,0,0,-1,283.9813,25.779603)" stroke-width=".15" stroke-linecap="butt" stroke-miterlimit="10" stroke-linejoin="miter" fill="none" stroke="#ff8b00" d="M0 0C-.009 .806 .122 1.632-.376 2.365-.764 2.934-1.275 3.158-1.951 3.009-2.665 2.853-2.54 2.276-2.548 1.791-2.565 .819-2.522-.164-2.065-1.039-1.795-1.557-1.478-2.2-.719-2.068 .119-1.922-.004-1.215 0-.61 .001-.407 0-.203 0 0Z"/>
<path transform="matrix(1,0,0,-1,280.364,27.7621)" d="M0 0C-.194 1.143-.765 2.241-1.76 3.117-2.149 3.459-2.582 3.566-3.021 3.336-3.578 3.045-3.328 2.538-3.208 2.122-2.895 1.038-2.319 .083-1.691-.846-1.386-1.296-.991-1.408-.505-1.244 .031-1.064 .146-.659 0 0" fill="#ff8b00"/>
<path transform="matrix(1,0,0,-1,280.364,27.7621)" stroke-width=".15" stroke-linecap="butt" stroke-miterlimit="10" stroke-linejoin="miter" fill="none" stroke="#ff8b00" d="M0 0C-.194 1.143-.765 2.241-1.76 3.117-2.149 3.459-2.582 3.566-3.021 3.336-3.578 3.045-3.328 2.538-3.208 2.122-2.895 1.038-2.319 .083-1.691-.846-1.386-1.296-.991-1.408-.505-1.244 .031-1.064 .146-.659 0 0Z"/>
<path transform="matrix(1,0,0,-1,276.8921,32.829904)" d="M0 0C.553 .127 .857 .451 .605 1.084 .108 2.331-.571 3.452-1.65 4.297-2.06 4.618-2.461 4.69-2.911 4.398-3.411 4.074-3.314 3.644-3.158 3.182-2.805 2.135-.689-.047 0 0" fill="#ff8b00"/>
<path transform="matrix(1,0,0,-1,276.8921,32.829904)" stroke-width=".15" stroke-linecap="butt" stroke-miterlimit="10" stroke-linejoin="miter" fill="none" stroke="#ff8b00" d="M0 0C.553 .127 .857 .451 .605 1.084 .108 2.331-.571 3.452-1.65 4.297-2.06 4.618-2.461 4.69-2.911 4.398-3.411 4.074-3.314 3.644-3.158 3.182-2.805 2.135-.689-.047 0 0Z"/>
</g>
<use data-text="G" xlink:href="#font_2_698" transform="matrix(30.3787,0,0,-30.3787,314.9336,56.8242)" fill="#fec400"/>
<use data-text="H" xlink:href="#font_2_699" transform="matrix(30.3787,0,0,-30.3787,337.77839,56.8242)" fill="#fec400"/>
<use data-text="I" xlink:href="#font_2_700" transform="matrix(30.3787,0,0,-30.3787,360.7143,56.8242)" fill="#fec400"/>
<use data-text="D" xlink:href="#font_2_695" transform="matrix(30.3787,0,0,-30.3787,370.49626,56.8242)" fill="#fec400"/>
<use data-text="U" xlink:href="#font_2_712" transform="matrix(30.3787,0,0,-30.3787,393.06764,56.8242)" fill="#fec400"/>
<use data-text="L" xlink:href="#font_2_703" transform="matrix(30.3787,0,0,-30.3787,414.9099,56.8242)" fill="#fec400"/>
<use data-text=" " xlink:href="#font_2_3" transform="matrix(30.3787,0,0,-30.3787,430.28153,56.8242)" fill="#fec400"/>
<g clip-path="url(#clip_3)">
<use data-text="B" xlink:href="#font_2_693" transform="matrix(30.3787,0,0,-30.3787,314.9336,84.8535)" fill="#fec400"/>
<use data-text="O" xlink:href="#font_2_706" transform="matrix(30.3787,0,0,-30.3787,335.71263,84.8535)" fill="#fec400"/>
<use data-text="B" xlink:href="#font_2_693" transform="matrix(30.3787,0,0,-30.3787,359.65104,84.8535)" fill="#fec400"/>
<use data-text="O" xlink:href="#font_2_706" transform="matrix(30.3787,0,0,-30.3787,380.43006,84.8535)" fill="#fec400"/>
<use data-text="C" xlink:href="#font_2_694" transform="matrix(30.3787,0,0,-30.3787,404.36848,84.8535)" fill="#fec400"/>
<use data-text="U" xlink:href="#font_2_712" transform="matrix(30.3787,0,0,-30.3787,427.24363,84.8535)" fill="#fec400"/>
<use data-text="L" xlink:href="#font_2_703" transform="matrix(30.3787,0,0,-30.3787,449.0859,84.8535)" fill="#fec400"/>
<use data-text="U" xlink:href="#font_2_712" transform="matrix(30.3787,0,0,-30.3787,464.45753,84.8535)" fill="#fec400"/>
<use data-text="I" xlink:href="#font_2_700" transform="matrix(30.3787,0,0,-30.3787,486.2998,84.8535)" fill="#fec400"/>
</g>
<use data-text="2" xlink:href="#font_2_677" transform="matrix(15.0327,0,0,-15.0327,314.4668,28.951203)" fill="#ff8b00"/>
<use data-text="0" xlink:href="#font_2_675" transform="matrix(15.0327,0,0,-15.0327,322.9753,28.951203)" fill="#ff8b00"/>
<use data-text="2" xlink:href="#font_2_677" transform="matrix(15.0327,0,0,-15.0327,332.92698,28.951203)" fill="#ff8b00"/>
<use data-text="4" xlink:href="#font_2_679" transform="matrix(15.0327,0,0,-15.0327,341.4355,28.951203)" fill="#ff8b00"/>
<use data-text=" " xlink:href="#font_2_3" transform="matrix(15.0327,0,0,-15.0327,352.0185,28.951203)" fill="#ff8b00"/>
<use data-text="-" xlink:href="#font_2_672" transform="matrix(15.0327,0,0,-15.0327,354.57408,28.951203)" fill="#ff8b00"/>
<use data-text=" " xlink:href="#font_2_3" transform="matrix(15.0327,0,0,-15.0327,363.2329,28.951203)" fill="#ff8b00"/>
<use data-text="2" xlink:href="#font_2_677" transform="matrix(15.0327,0,0,-15.0327,365.78849,28.951203)" fill="#ff8b00"/>
<use data-text="0" xlink:href="#font_2_675" transform="matrix(15.0327,0,0,-15.0327,374.297,28.951203)" fill="#ff8b00"/>
<use data-text="2" xlink:href="#font_2_677" transform="matrix(15.0327,0,0,-15.0327,384.24867,28.951203)" fill="#ff8b00"/>
<use data-text="5" xlink:href="#font_2_680" transform="matrix(15.0327,0,0,-15.0327,392.75718,28.951203)" fill="#ff8b00"/>
<g clip-path="url(#clip_4)">
<path transform="matrix(1,0,0,-1,52.1777,29.634697)" d="M0 0C0 .375-.057 .684-.171 .927-.284 1.17-.514 1.377-.86 1.547-1.083 1.658-1.326 1.729-1.589 1.76-1.852 1.792-2.225 1.808-2.709 1.808H-4.308V-1.874H-3.164C-2.548-1.874-2.062-1.847-1.706-1.794-1.351-1.74-1.038-1.627-.768-1.453-.502-1.279-.308-1.081-.185-.86-.062-.639 0-.352 0 0M-.5 4.517C-.5 4.758-.542 4.966-.627 5.142-.713 5.318-.85 5.457-1.04 5.559-1.267 5.679-1.52 5.753-1.8 5.779-2.079 5.806-2.466 5.819-2.958 5.819H-4.308V2.908H-2.709C-2.269 2.908-1.944 2.929-1.736 2.971-1.527 3.014-1.312 3.101-1.089 3.235-.876 3.364-.725 3.533-.634 3.743-.545 3.952-.5 4.21-.5 4.517M1.464 .054C1.464-.44 1.365-.877 1.166-1.255 .967-1.634 .699-1.946 .363-2.191-.035-2.485-.462-2.694-.917-2.816-1.371-2.939-1.959-3-2.679-3H-5.713V6.945H-2.907C-2.154 6.945-1.589 6.922-1.213 6.875-.836 6.828-.475 6.718-.129 6.545 .25 6.354 .527 6.103 .702 5.794 .877 5.485 .965 5.121 .965 4.703 .965 4.236 .833 3.818 .57 3.449 .307 3.079-.056 2.79-.52 2.581V2.527C.11 2.367 .599 2.074 .945 1.649 1.291 1.223 1.464 .692 1.464 .054" fill="#fec400"/>
<path transform="matrix(1,0,0,-1,55.0422,32.634599)" d="M0 0V9.945H6.627V8.769H1.405V6.043H6.272V4.867H1.405V1.177H6.627V0Z" fill="#fec400"/>
<path transform="matrix(1,0,0,-1,66.1561,32.8123)" d="M0 0C-.767 0-1.419 .075-1.957 .223-2.494 .372-2.999 .556-3.473 .774V2.429H-3.373C-2.91 2.02-2.384 1.704-1.797 1.479-1.21 1.255-.644 1.143-.1 1.143 .676 1.143 1.263 1.295 1.661 1.6 2.058 1.904 2.257 2.306 2.257 2.804 2.257 3.2 2.153 3.523 1.945 3.772 1.737 4.021 1.405 4.206 .951 4.326 .624 4.415 .326 4.488 .056 4.546-.214 4.604-.553 4.682-.96 4.78-1.325 4.869-1.652 4.982-1.94 5.12-2.229 5.258-2.485 5.438-2.708 5.661-2.925 5.879-3.095 6.136-3.215 6.432-3.336 6.728-3.397 7.069-3.397 7.457-3.397 8.262-3.063 8.938-2.395 9.483-1.728 10.028-.876 10.301 .161 10.301 .753 10.301 1.313 10.245 1.84 10.133 2.368 10.022 2.857 9.864 3.307 9.659V8.075H3.2C2.864 8.365 2.433 8.617 1.908 8.834 1.383 9.05 .832 9.158 .254 9.158-.399 9.158-.927 9.015-1.329 8.727-1.731 8.441-1.932 8.063-1.932 7.596-1.932 7.174-1.814 6.838-1.577 6.589-1.341 6.34-.998 6.157-.548 6.042-.25 5.966 .115 5.88 .546 5.785 .977 5.689 1.335 5.601 1.619 5.521 2.348 5.312 2.881 4.995 3.217 4.573 3.553 4.15 3.722 3.629 3.722 3.011 3.722 2.624 3.637 2.241 3.469 1.863 3.301 1.484 3.066 1.164 2.763 .901 2.422 .612 2.037 .389 1.609 .234 1.18 .078 .644 0 0 0" fill="#fec400"/>
<path transform="matrix(1,0,0,-1,73.7885,32.634599)" d="M0 0V8.769H-3.555V9.945H4.96V8.769H1.405V0Z" fill="#fec400"/>
<path transform="matrix(1,0,0,-1,41.1847,32.647699)" d="M0 0-2.331 1.343H-8.417L-10.747 0C-8.517-3.874-1.851-10.218 5.373-10.767 2.856-9.357-1.15-4.291 0 0" fill="#fec400"/>
<path transform="matrix(1,0,0,-1,42.8298,12.642303)" d="M0 0C.038-2.886-2.346-8.886-6.637-10.037L-6.635-12.727-3.592-17.998-1.264-19.344C.977-15.476 3.138-6.531 0 0M-6.635-12.727V-12.727L-6.681-12.648Z" fill="#fec400"/>
<path transform="matrix(1,0,0,-1,35.4292,22.679)" d="M0 0C-4.47 .006-13.298-2.596-17.384-8.578-14.904-7.103-8.514-6.166-5.373-9.308L-3.045-7.961-.002-2.691ZM-3.045-7.961V-7.961L-3.09-8.04Z" fill="#fec400"/>
<path transform="matrix(1,0,0,-1,34.3845,29.103898)" d="M0 0C0 .787 .639 1.426 1.427 1.426 2.214 1.426 2.853 .787 2.853 0 2.853-.79 2.214-1.427 1.427-1.427 .639-1.427 0-.79 0 0" fill="#fec400"/>
</g>
<use data-text="C" xlink:href="#font_5_38" transform="matrix(3.6784,0,0,-3.6784,55.5952,36.5283)" fill="#fec400"/>
<use data-text="L" xlink:href="#font_5_47" transform="matrix(3.6784,0,0,-3.6784,57.80408,36.5283)" fill="#fec400"/>
<use data-text="U" xlink:href="#font_5_56" transform="matrix(3.6784,0,0,-3.6784,59.635927,36.5283)" fill="#fec400"/>
<use data-text="J" xlink:href="#font_5_45" transform="matrix(3.6784,0,0,-3.6784,62.048955,36.5283)" fill="#fec400"/>
<use data-text="-" xlink:href="#font_5_16" transform="matrix(3.6784,0,0,-3.6784,63.582849,36.5283)" fill="#fec400"/>
<use data-text="N" xlink:href="#font_5_49" transform="matrix(3.6784,0,0,-3.6784,64.918109,36.5283)" fill="#fec400"/>
<use data-text="A" xlink:href="#font_5_36" transform="matrix(3.6784,0,0,-3.6784,67.3738,36.5283)" fill="#fec400"/>
<use data-text="P" xlink:href="#font_5_51" transform="matrix(3.6784,0,0,-3.6784,69.58084,36.5283)" fill="#fec400"/>
<use data-text="O" xlink:href="#font_5_50" transform="matrix(3.6784,0,0,-3.6784,71.60764,36.5283)" fill="#fec400"/>
<use data-text="C" xlink:href="#font_5_38" transform="matrix(3.6784,0,0,-3.6784,74.21011,36.5283)" fill="#fec400"/>
<use data-text="A" xlink:href="#font_5_36" transform="matrix(3.6784,0,0,-3.6784,76.41899,36.5283)" fill="#fec400"/>
<g clip-path="url(#clip_6)">
<path transform="matrix(1,0,0,-1,644.5259,11.798302)" d="M0 0H7.253C7.829 0 8.088-.198 8.088-.756V-14.169C7.094-14.138 6.143-13.909 5.268-13.517V-2.082C5.268-1.611 4.997-.83 4.196-.818H0Z" fill="#fec400" fill-rule="evenodd"/>
<path transform="matrix(1,0,0,-1,647.4151,23.903)" d="M0 0C.379-.302 .85-.584 1.276-.799V9.466C1.276 10.012 .87 10.309 .295 10.309H-2.896V6.69C-2.896 3.803-2.149 1.713 0 0" fill="#fec400" fill-rule="evenodd"/>
<path transform="matrix(1,0,0,-1,661.7552,11.798302)" d="M0 0H-7.254C-7.829 0-8.089-.198-8.089-.756V-14.169C-7.094-14.138-6.144-13.909-5.268-13.517V-2.082C-5.268-1.611-4.997-.83-4.197-.818H0Z" fill="#fec400" fill-rule="evenodd"/>
<path transform="matrix(1,0,0,-1,658.8661,23.903)" d="M0 0C-.379-.302-.85-.584-1.277-.799V9.466C-1.277 10.012-.871 10.309-.295 10.309H2.896V6.69C2.896 3.803 2.149 1.713 0 0" fill="#fec400" fill-rule="evenodd"/>
<path transform="matrix(1,0,0,-1,637.2369,43.7155)" d="M0 0H-.89V2.436H-.014C.223 2.436 .413 2.413 .556 2.369 .699 2.324 .828 2.249 .945 2.145 1.068 2.033 1.161 1.898 1.225 1.74 1.288 1.581 1.32 1.403 1.32 1.206 1.32 .985 1.276 .788 1.187 .613 1.099 .438 .97 .295 .8 .182 .705 .117 .597 .07 .479 .042 .36 .014 .201 0 0 0M-.032 .418C.252 .418 .461 .482 .595 .612 .73 .741 .797 .944 .797 1.219 .797 1.473 .723 1.669 .576 1.81 .43 1.95 .224 2.021-.039 2.021H-.374V.418Z" fill="#fec400"/>
<path transform="matrix(1,0,0,-1,0,100)" d="M639.194 58.72H639.707V56.284H639.194Z" fill="#fec400"/>
<path transform="matrix(1,0,0,-1,640.9694,43.7155)" d="M0 0H-.503V2.436H-.018L1.065 .88V2.436H1.566V0H1.091L0 1.603Z" fill="#fec400"/>
<path transform="matrix(1,0,0,-1,647.0425,42.0021)" d="M0 0H-.626C-.7 .094-.789 .164-.891 .211-.994 .257-1.11 .281-1.241 .281-1.347 .281-1.447 .263-1.541 .225-1.636 .189-1.72 .135-1.794 .065-1.871-.009-1.932-.094-1.974-.19-2.016-.287-2.038-.385-2.038-.487-2.038-.71-1.96-.897-1.806-1.048-1.652-1.2-1.464-1.275-1.24-1.275-1.112-1.275-.997-1.253-.894-1.208-.792-1.164-.709-1.098-.645-1.014H-.018C-.14-1.263-.303-1.45-.507-1.575-.711-1.7-.954-1.762-1.237-1.762-1.434-1.762-1.615-1.726-1.781-1.656-1.948-1.586-2.096-1.482-2.228-1.343-2.34-1.229-2.425-1.098-2.482-.951-2.539-.805-2.568-.648-2.568-.481-2.568-.311-2.533-.15-2.464 .002-2.394 .154-2.293 .293-2.158 .418-2.031 .534-1.89 .622-1.735 .681-1.579 .741-1.412 .771-1.234 .771-.947 .771-.702 .708-.499 .58-.296 .453-.129 .26 0 0" fill="#fec400"/>
<path transform="matrix(1,0,0,-1,649.0023,43.7155)" d="M0 0H-1.329V2.436H-.822V.428H0Z" fill="#fec400"/>
<path transform="matrix(1,0,0,-1,649.5511,41.2798)" d="M0 0H.513V-1.405C.513-1.625 .538-1.777 .587-1.863 .637-1.948 .722-1.991 .843-1.991 .964-1.991 1.05-1.948 1.099-1.863 1.149-1.777 1.174-1.625 1.174-1.405V0H1.687V-1.546C1.687-1.717 1.676-1.846 1.656-1.932 1.636-2.018 1.601-2.093 1.554-2.158 1.472-2.269 1.374-2.352 1.259-2.405 1.143-2.458 1.005-2.484 .843-2.484 .681-2.484 .543-2.458 .428-2.405 .313-2.352 .215-2.269 .133-2.158 .085-2.093 .051-2.021 .031-1.941 .01-1.86 0-1.729 0-1.546Z" fill="#fec400"/>
<path transform="matrix(1,0,0,-1,653.2241,42.8824)" d="M0 0C0-.164-.009-.288-.027-.372-.045-.455-.075-.528-.118-.59-.182-.684-.267-.756-.373-.806-.479-.856-.599-.881-.734-.881-.965-.881-1.142-.821-1.264-.7-1.386-.579-1.447-.404-1.447-.176H-.939V-.183C-.939-.252-.921-.305-.886-.344-.85-.382-.8-.401-.737-.401-.656-.401-.598-.369-.563-.304-.53-.239-.513-.125-.513 .037V1.603H0Z" fill="#fec400"/>
<path transform="matrix(1,0,0,-1,0,100)" d="M654.786 57.008H653.85806V57.402H654.786Z" fill="#fec400"/>
<path transform="matrix(1,0,0,-1,655.9899,43.7155)" d="M0 0H-.503V2.436H-.018L1.065 .88V2.436H1.566V0H1.091L0 1.603Z" fill="#fec400"/>
<path transform="matrix(1,0,0,-1,658.6962,43.205)" d="M0 0-.204-.51H-.734L.282 1.925H.724L1.726-.51H1.177L.971 0ZM.802 .452 .492 1.236 .176 .452Z" fill="#fec400"/>
<path transform="matrix(1,0,0,-1,661.3682,43.7155)" d="M0 0H-.513V2.436H.138C.304 2.436 .434 2.427 .53 2.411 .624 2.394 .702 2.367 .761 2.33 .868 2.262 .953 2.173 1.015 2.061 1.077 1.949 1.108 1.83 1.108 1.703 1.108 1.47 1.025 1.284 .86 1.144 .694 1.005 .471 .935 .191 .935H0ZM0 1.347H.135C.277 1.347 .387 1.375 .463 1.433 .539 1.49 .577 1.573 .577 1.68 .577 1.79 .541 1.872 .467 1.926 .393 1.98 .281 2.007 .131 2.007H0Z" fill="#fec400"/>
<path transform="matrix(1,0,0,-1,662.9553,42.4924)" d="M0 0C0 .133 .019 .26 .057 .379 .095 .497 .153 .609 .228 .713 .358 .888 .521 1.022 .716 1.118 .911 1.213 1.124 1.261 1.356 1.261 1.529 1.261 1.697 1.23 1.858 1.167 2.02 1.105 2.164 1.015 2.291 .898 2.422 .776 2.521 .64 2.589 .488 2.658 .337 2.692 .177 2.692 .01 2.692-.164 2.66-.328 2.596-.48 2.532-.633 2.438-.769 2.313-.887 2.187-1.01 2.04-1.105 1.873-1.172 1.706-1.238 1.531-1.271 1.349-1.271 1.154-1.271 .974-1.239 .809-1.174 .645-1.11 .5-1.014 .372-.887 .25-.766 .157-.631 .095-.481 .031-.331 0-.171 0 0M.538 .016C.538-.089 .556-.186 .594-.276 .63-.367 .685-.45 .758-.524 .839-.605 .931-.668 1.032-.712 1.134-.756 1.24-.778 1.349-.778 1.578-.778 1.77-.702 1.926-.551 2.081-.399 2.158-.21 2.158 .016 2.158 .224 2.081 .401 1.924 .548 1.767 .695 1.579 .768 1.359 .768 1.131 .768 .936 .695 .777 .549 .617 .403 .538 .225 .538 .016" fill="#fec400"/>
<path transform="matrix(1,0,0,-1,668.7515,42.0021)" d="M0 0H-.626C-.7 .094-.789 .164-.891 .211-.994 .257-1.11 .281-1.241 .281-1.347 .281-1.447 .263-1.541 .225-1.637 .189-1.72 .135-1.794 .065-1.871-.009-1.932-.094-1.974-.19-2.017-.287-2.038-.385-2.038-.487-2.038-.71-1.961-.897-1.807-1.048-1.652-1.2-1.464-1.275-1.241-1.275-1.113-1.275-.997-1.253-.895-1.208-.792-1.164-.709-1.098-.645-1.014H-.018C-.14-1.263-.303-1.45-.507-1.575-.711-1.7-.955-1.762-1.237-1.762-1.434-1.762-1.615-1.726-1.781-1.656-1.948-1.586-2.096-1.482-2.228-1.343-2.34-1.229-2.424-1.098-2.482-.951-2.539-.805-2.569-.648-2.569-.481-2.569-.311-2.534-.15-2.464 .002-2.394 .154-2.293 .293-2.159 .418-2.031 .534-1.89 .622-1.735 .681-1.579 .741-1.412 .771-1.234 .771-.947 .771-.703 .708-.499 .58-.296 .453-.13 .26 0 0" fill="#fec400"/>
<path transform="matrix(1,0,0,-1,669.7616,43.205)" d="M0 0-.203-.51H-.734L.282 1.925H.724L1.726-.51H1.177L.971 0ZM.802 .452 .493 1.236 .176 .452Z" fill="#fec400"/>
<path transform="matrix(1,0,0,-1,628.4925,31.756798)" d="M0 0V2.191H1.452V-.01C1.452-.267 1.482-.443 1.543-.539 1.604-.636 1.707-.684 1.855-.684 2-.684 2.104-.634 2.166-.535 2.229-.436 2.26-.261 2.26-.01V2.191H3.712V0C3.712-.286 3.693-.523 3.656-.71 3.618-.895 3.558-1.051 3.475-1.176 3.313-1.427 3.092-1.622 2.812-1.755 2.532-1.89 2.213-1.957 1.855-1.957 1.494-1.957 1.174-1.89 .894-1.755 .614-1.622 .394-1.427 .232-1.176 .151-1.052 .092-.899 .056-.714 .019-.531 0-.292 0 0" fill="#fec400"/>
<path transform="matrix(1,0,0,-1,633.2482,33.6064)" d="M0 0V4.041H1.424L2.68 1.927C2.664 2.02 2.652 2.125 2.646 2.239 2.639 2.353 2.636 2.501 2.636 2.686V4.041H4.035V0H2.6L1.358 2.098C1.373 2.008 1.383 1.911 1.391 1.806 1.398 1.703 1.402 1.587 1.402 1.457V0Z" fill="#fec400"/>
<path transform="matrix(1,0,0,-1,0,100)" d="M638.345 70.434H639.821V66.393H638.345Z" fill="#fec400"/>
<path transform="matrix(1,0,0,-1,641.8625,33.6064)" d="M0 0-1.543 4.041H.03L.458 2.578C.52 2.365 .567 2.184 .598 2.037 .628 1.89 .648 1.751 .657 1.623H.684C.703 1.759 .729 1.902 .763 2.054 .797 2.205 .841 2.369 .894 2.545L1.347 4.041H2.89L1.352 0Z" fill="#fec400"/>
<path transform="matrix(1,0,0,-1,645.222,33.6064)" d="M0 0V4.041H2.702V2.945H1.424V2.556H2.583V1.521H1.424V1.095H2.735V0Z" fill="#fec400"/>
<path transform="matrix(1,0,0,-1,648.836,33.6064)" d="M0 0V4.041H1.828C2.357 4.041 2.762 3.924 3.042 3.69 3.322 3.457 3.461 3.12 3.461 2.681 3.461 2.393 3.391 2.157 3.25 1.971 3.109 1.784 2.919 1.676 2.68 1.645L3.759 0H2.131L1.424 1.333V0ZM1.424 3.001V2.211H1.65C1.789 2.211 1.894 2.245 1.969 2.312 2.043 2.379 2.081 2.475 2.081 2.6 2.081 2.73 2.043 2.828 1.969 2.897 1.894 2.966 1.789 3.001 1.65 3.001Z" fill="#fec400"/>
<path transform="matrix(1,0,0,-1,652.8067,33.261598)" d="M0 0 .463 1.132C.672 .986 .856 .88 1.02 .813 1.182 .746 1.335 .712 1.476 .712 1.576 .712 1.654 .731 1.711 .769 1.768 .807 1.797 .857 1.797 .922 1.797 1.035 1.654 1.12 1.369 1.179 1.276 1.199 1.205 1.214 1.153 1.226 .852 1.299 .621 1.43 .461 1.618 .3 1.805 .22 2.039 .22 2.319 .22 2.753 .376 3.106 .687 3.378 .997 3.651 1.405 3.787 1.909 3.787 2.142 3.787 2.37 3.757 2.595 3.696 2.819 3.636 3.046 3.543 3.274 3.42L2.832 2.363C2.692 2.465 2.552 2.545 2.411 2.599 2.271 2.653 2.134 2.68 2.001 2.68 1.9 2.68 1.822 2.663 1.767 2.63 1.711 2.596 1.683 2.548 1.683 2.487 1.683 2.373 1.885 2.272 2.289 2.187 2.352 2.171 2.403 2.16 2.437 2.153 2.715 2.09 2.934 1.963 3.094 1.769 3.254 1.576 3.334 1.343 3.334 1.068 3.334 .622 3.173 .256 2.85-.027 2.527-.311 2.106-.452 1.59-.452 1.324-.452 1.06-.415 .795-.339 .529-.264 .265-.151 0 0" fill="#fec400"/>
<path transform="matrix(1,0,0,-1,0,100)" d="M656.945 70.434H658.422V66.393H656.945Z" fill="#fec400"/>
<path transform="matrix(1,0,0,-1,660.0182,33.6064)" d="M0 0V2.719H-.809V4.041H2.26V2.719H1.452V0Z" fill="#fec400"/>
<path transform="matrix(1,0,0,-1,662.2743,33.6064)" d="M0 0 1.44 4.041H3.058L4.471 0H2.909L2.779 .508H1.683L1.559 0ZM1.926 1.469H2.531L2.407 1.927C2.346 2.158 2.305 2.337 2.283 2.463 2.26 2.587 2.247 2.705 2.241 2.815H2.217C2.211 2.705 2.197 2.587 2.175 2.463 2.153 2.337 2.111 2.158 2.051 1.927Z" fill="#fec400"/>
<path transform="matrix(1,0,0,-1,667.5529,33.6064)" d="M0 0V2.719H-.809V4.041H2.26V2.719H1.452V0Z" fill="#fec400"/>
<path transform="matrix(1,0,0,-1,670.5731,33.6064)" d="M0 0V4.041H2.702V2.945H1.424V2.556H2.583V1.521H1.424V1.095H2.735V0Z" fill="#fec400"/>
<path transform="matrix(1,0,0,-1,673.6516,33.6064)" d="M0 0 1.44 4.041H3.058L4.471 0H2.909L2.779 .508H1.683L1.559 0ZM1.926 1.469H2.531L2.407 1.927C2.346 2.158 2.305 2.337 2.283 2.463 2.26 2.587 2.247 2.705 2.241 2.815H2.217C2.211 2.705 2.197 2.587 2.175 2.463 2.153 2.337 2.111 2.158 2.051 1.927Z" fill="#fec400"/>
<path transform="matrix(1,0,0,-1,640.1056,39.3732)" d="M0 0V2.719H-.809V4.041H2.26V2.719H1.452V0Z" fill="#fec400"/>
<path transform="matrix(1,0,0,-1,643.1257,39.3732)" d="M0 0V4.041H2.702V2.945H1.424V2.556H2.583V1.521H1.424V1.095H2.735V0Z" fill="#fec400"/>
<path transform="matrix(1,0,0,-1,646.7396,39.3732)" d="M0 0V4.041H1.454V2.697H2.34V4.041H3.792V0H2.34V1.424H1.454V0Z" fill="#fec400"/>
<path transform="matrix(1,0,0,-1,651.5876,39.3732)" d="M0 0V4.041H1.424L2.68 1.927C2.663 2.02 2.652 2.125 2.645 2.239 2.639 2.353 2.636 2.501 2.636 2.686V4.041H4.035V0H2.6L1.358 2.098C1.372 2.008 1.383 1.911 1.39 1.806 1.398 1.702 1.402 1.587 1.402 1.457V0Z" fill="#fec400"/>
<path transform="matrix(1,0,0,-1,0,100)" d="M656.685 64.668H658.161V60.627H656.685Z" fill="#fec400"/>
<path transform="matrix(1,0,0,-1,662.209,36.9361)" d="M0 0C-.133 .127-.268 .223-.406 .285-.544 .348-.69 .379-.842 .379-1.08 .379-1.271 .305-1.415 .16-1.559 .013-1.632-.182-1.632-.425-1.632-.662-1.564-.852-1.424-.993-1.288-1.135-1.102-1.206-.87-1.206-.731-1.206-.589-1.176-.444-1.116-.299-1.056-.142-.962 .029-.831L-.017-2.351C-.176-2.416-.333-2.464-.492-2.497-.65-2.528-.809-2.545-.967-2.545-1.164-2.545-1.354-2.523-1.535-2.479-1.718-2.434-1.882-2.371-2.03-2.29-2.387-2.085-2.656-1.824-2.839-1.509-3.022-1.195-3.114-.834-3.114-.425-3.114-.123-3.063 .157-2.958 .415-2.854 .672-2.703 .899-2.505 1.096-2.304 1.295-2.071 1.445-1.807 1.547-1.543 1.65-1.257 1.701-.95 1.701-.786 1.701-.625 1.684-.466 1.65-.306 1.616-.151 1.565 0 1.496Z" fill="#fec400"/>
<path transform="matrix(1,0,0,-1,662.6041,39.3732)" d="M0 0 1.44 4.041H3.058L4.471 0H2.909L2.779 .508H1.683L1.559 0ZM1.926 1.469H2.531L2.407 1.927C2.346 2.158 2.305 2.337 2.283 2.463 2.26 2.587 2.247 2.705 2.241 2.815H2.217C2.211 2.705 2.197 2.587 2.175 2.463 2.153 2.337 2.111 2.158 2.051 1.927Z" fill="#fec400"/>
<path transform="matrix(1,0,0,-1,0,100)" d="M663.95 65.762H665.601V65.275H663.95Z" fill="#fec400" fill-rule="evenodd"/>
</g>
</g>
</g>
</svg>
