<?xml version="1.0" encoding="UTF-8"?>
<svg id="Layer_1" data-name="Layer 1" xmlns="http://www.w3.org/2000/svg" viewBox="0 0 128 128">
  <defs>
    <style>
      .cls-1 {
        fill: #ff8b00;
        stroke: #ff8b00;
        stroke-miterlimit: 10;
        stroke-width: .5px;
      }
    </style>
  </defs>
  <path class="cls-1" d="M61.59,92.58q4.62,5.24,.87,11.14c-1.28,2.02-2.45,4.1-3.73,6.12-.82,1.3-.52,2.1,.8,2.87,1.82,1.06,3.66,2.17,5.25,3.53,1.86,1.59,3.44,3.61,2.39,6.26-1.09,2.75-3.58,3.15-6.22,3.01-6.85-.35-12.72-3.45-18.51-6.68-1.63-.91-1.79-2.54-.81-4.08,2.84-4.45,4.06-9.64,6.58-14.23,.94-1.72,.35-2.91-1.12-3.99-12.35-9.04-16.48-21.14-13.09-35.9,.34-1.48-.07-2.44-.84-3.52-3.81-5.32-7.03-11-10.19-16.72-1.39-2.52-1.3-4.58,.75-6.7,3.38-3.49,6.04-7.54,8.69-11.61,2.77-4.24,5.92-8.23,10.07-11.25,3.33-2.43,6.89-2.15,9.4,.58,2.6,2.83,2.33,6.25-.97,8.17-6.89,3.99-9.61,11.43-14.47,17.09-.81,.94-.14,1.72,.74,2.23,.92,.53,1.95,1.52,2.87,.16,5.01-7.36,11.76-6.7,18.9-4.12,1.11,.4,1.72-.03,2.36-.78,1.61-1.89,3.11-3.9,4.92-5.59,2.17-2.03,1.48-3.67-.3-5.3-1.9-1.74-3.82-3.46-5.82-5.09-1.92-1.56-2.39-3.1-1-5.41,1.86-3.09,3.45-6.31,6.7-8.23,3.91-2.31,8.55,.03,8.42,4.58-.1,3.48,1.31,5.88,3.51,8.29,6.98,7.64,6.98,7.76,1.22,16.31-2.73,4.05-5.04,8.33-7.34,12.63-.58,1.09-.82,2.18-.82,3.42,.02,6,1.68,11.85,1.54,17.85-.03,1.37,.95,1.73,1.88,2.02,2.28,.7,4.58,1.48,6.92,1.81,2.81,.39,3.68,1.94,3.7,4.5,.03,4.87,.23,9.74,.21,14.61,0,1.7,.46,2.27,2.21,2.05,2.79-.36,5.53-.05,7.97,1.52,2.86,1.84,3.07,4.59,.43,6.74-5.85,4.75-12.73,7.25-19.99,8.82-2.21,.48-2.1-1.14-2.14-2.55-.2-6.63-1.03-13.2-2.28-19.71-.68-3.54-.71-3.55-4.14-2.24-2.15,.82-4.24,1.79-6.43,2.46-2.19,.67-2.51,1.52-.76,3.07,.61,.55,1.11,1.23,1.66,1.85ZM41.67,14.93c-.34,.3-.76,.56-1.02,.92-4.69,6.33-9.36,12.69-14.05,19.02-1.2,1.62-.62,3.1,.15,4.62,1.88,3.68,3.89,7.31,6.44,10.55,3.41,4.32,4.91,8.38,3.59,14.4-2.81,12.77,2.31,22.88,13.27,30.05,1.95,1.28,3.14,2.9,1.66,5.56-1.91,3.45-3.57,7.06-5.04,10.72-1.65,4.08-2.88,5.41,2.49,7.21,.69,.23,1.27,.75,1.95,1.02,3.13,1.29,6.2,2.85,9.7,2.83,.96,0,2.24-.02,2.58-1.15,.32-1.07-.54-1.81-1.39-2.46-1.41-1.06-2.93-1.88-4.54-2.58-4.05-1.78-4.24-2.12-2.17-6.07,1.36-2.6,2.98-5.07,4.61-7.51,1.48-2.21,2.03-4.15-.21-6.32-1.5-1.45-2.54-3.36-3.85-5.01-2.27-2.85-1.9-4.3,1.49-5.78,3.97-1.73,8.31-2.34,12.24-4.21,2.54-1.21,3.59-.46,4.13,2.4,1.23,6.59,2.29,13.21,2.72,19.91,.11,1.78,.89,2.42,2.7,2.07,4.2-.8,8-2.66,11.87-4.32,1.06-.45,2.32-1.12,2.09-2.58-.23-1.5-1.58-2.11-2.85-2.19-1.81-.12-3.65,.12-5.48,.22-1.71,.09-2.74-.31-2.72-2.42,.04-4.77-.23-9.54-.26-14.31-.02-2.66-.53-4.58-3.76-4.97-2.34-.28-4.6-1.24-6.89-1.88-1.4-.39-2.01-1.16-2.1-2.75-.36-5.95-.87-11.89-1.43-17.83-.38-4.08,.45-7.63,2.9-11.07,3.02-4.25,5.48-8.9,8.18-13.38,1.14-1.88,1.1-3.46-.6-5.13-2.09-2.06-3.85-4.45-5.86-6.6-1.5-1.61-2.53-3.12-1.91-5.58,.52-2.05-1.22-3.58-2.76-2.73-1.17,.64-2.41,1.29-3.3,2.42-2.55,3.26-2.45,4.77,.5,7.57,2.06,1.96,4.02,4.03,6.09,5.98,1.39,1.31,1.44,2.4,.28,4.02-2.19,3.07-5.05,5.57-7.11,8.74-.85,1.31-1.14,2.36-.39,3.78,1.66,3.16,1.44,6.39,.08,9.58-.49,1.16-.91,2.8-2.56,2.32-1.85-.54-.88-2.03-.58-3.22,1.51-5.98,0-9.73-5.07-11.77-2.98-1.2-6.14-.97-9.14,.27-3.39,1.4-4.54,4.35-3.59,7.85,.92,3.4,3.51,5.01,6.17,6.64,.96,.59,1.69,1.38,1.27,2.45-.48,1.25-1.73,1.26-2.85,.98-3.46-.86-6.18-3.1-7.22-6.26-1.13-3.44-2.73-5.89-5.85-7.82-2.83-1.75-2.73-2.98-.8-5.65,1.4-1.93,2.71-3.94,4.28-5.73,3.71-4.21,5.74-9.92,11.28-12.52,.98-.46,1.76-1.58,1.17-2.78-.67-1.35-1.68-2.5-3.45-2.2-1.96,.33-3.65,1.22-5.04,2.64Z"/>
</svg>