<svg id="Layer_1" data-name="Layer 1" xmlns="http://www.w3.org/2000/svg" viewBox="0 0 128 128">
  <defs>
    <style>
      .cls-1 {
        fill: #fec400;
        stroke: #fec400;
      }

      .cls-1, .cls-2 {
        stroke-miterlimit: 10;
        stroke-width: .4px;
      }

      .cls-2 {
        fill: #ff8b00;
        stroke: #ff8b00;
      }
    </style>
  </defs>
  <path class="cls-2" d="M91.74,77.27c-.95-.19-1.25,.15-1.31,1.05-.18,2.47-.45,4.94-.63,7.42-.26,3.42-.49,6.83-.69,10.25-.1,1.62-.71,2.56-2.49,2.75-2.3,.24-4.58,.52-6.89,.33-2.47-.2-4.79-.81-6.52-2.77-1.98-2.24-1.43-4.83,1.28-6.02,1.36-.6,2.75-1.13,4.26-1.05,1.85,.1,2.36-.7,2.31-2.52-.13-5.08-.02-10.16-.07-15.25-.01-1.33,.43-2.09,1.76-2.41,1.61-.39,3.16-1,4.77-1.36,1.21-.27,1.63-.9,1.66-2.08,.08-2.66,.26-5.31,.4-7.96q.16-3.05-2.81-3.67c-4.3-.9-4.14-1.45-3.5,3.41,.33,2.45,.93,4.86,1.35,7.3,.16,.9,.13,1.9-.97,2.19-2.83,.76-5.69,1.17-8.52,0-1.61-.66-2.64-1.88-2.66-3.64-.02-1.69,1.24-2.47,2.66-2.9,.93-.29,1.12-.74,.97-1.68-.63-3.93-.58-7.89-.16-11.84,.25-2.4,.6-2.65,2.95-2.72,4.53-.14,8.91,1.02,13.35,1.61,1.23,.16,1.72-.03,2.06-1.32,.88-3.3,4-5.23,7.34-4.67,1.7,.28,3.29,.9,4.75,1.88,.41,.27,.75,.81,1.49,.54,.1-1.67,.19-3.38,.31-5.08,.31-4.3,.4-8.64,1.94-12.73,1.3-3.45,3.81-4.45,7.25-3.11,3.6,1.4,4.43,5.26,1.48,7.69-1.27,1.04-1.38,2.03-1.22,3.48,.89,8.27,1.88,16.53,.23,24.86-1.48,7.46-3.62,14.62-7.77,21.06-1.47,2.29-3.24,4.36-5.16,6.29-.4,.4-1.02,.72-.46,1.44,2.83,3.62,4.77,7.9,8.2,11.07,.89,.83,1.02,1.63,.03,2.34-2.68,1.93-5.29,3.99-8.4,5.24-1.68,.67-3.43,.89-5.22,.57-1.83-.33-2.84-1.57-2.55-3.39,.26-1.68,1.03-3.11,2.74-3.84,1.17-.49,1.48-1.7,.52-2.45-2.73-2.13-4.41-5.2-6.86-7.55-1.43-1.37-1.31-2.59-.25-3.99,.39-.52,.76-1.05,1.19-1.54,1.16-1.32,2.34-2.62,3.72-4.16-2.13-.68-4.04-.7-5.88-1.07Zm-13.4-17.08c.17,1,0,1.61-1.08,1.81-.46,.08-.92,.21-1.35,.4-.58,.25-.97,.68-.97,1.36,0,.65,.5,.91,1.01,1.08,.61,.21,1.24,.41,1.88,.51,3.76,.58,4.68-.31,4.11-4-.43-2.73-1.2-5.41-1.34-8.18-.1-1.95,.32-2.42,2.22-2.23,2.69,.28,5.36,.75,8.03,1.16,1.12,.17,1.56,.81,1.48,1.98-.3,4.29-.52,8.59-.78,12.89-.1,1.61-.95,2.58-2.54,2.97-1.37,.33-2.71,.86-4.09,1.12-1.2,.22-1.49,.84-1.48,1.96,.03,5.44,.01,10.87,0,16.31,0,2.03-.49,2.55-2.5,2.29-1.44-.18-2.83-.17-4.21,.17-1.01,.24-1.98,.8-2.09,1.91-.11,1.09,.83,1.65,1.71,2.02,3.03,1.27,6.12,.88,9.21,.21,.73-.16,.68-.7,.73-1.22,.33-3.46,.63-6.92,.99-10.37,.26-2.52,.58-5.04,.87-7.56,.15-1.35,.81-1.85,2.23-1.83,2.73,.04,5.42,.37,8.08,.81,2.72,.45,3.16,1.67,1.5,3.79-1.45,1.86-2.96,3.68-4.49,5.47-.72,.84-.67,1.44,.1,2.25,2.48,2.6,4.84,5.32,7.04,8.17,1.3,1.68,1.26,1.96-.5,3.15-.83,.56-1.72,1.06-2.47,1.71-.52,.44-1.07,1.07-.76,1.85,.3,.74,1.03,.89,1.78,.92,2.87,.09,5.26-1.22,7.53-2.71,2.93-1.94,2.77-1.93,.64-4.74-2.35-3.1-4.5-6.35-6.69-9.57-.67-.99-.14-1.79,.63-2.47,4.08-3.64,7.13-8.01,9.17-13.07,2.51-6.22,4.01-12.67,4.57-19.37,.59-7.11-.49-14.11-1.26-21.13-.13-1.15,.04-1.78,1.12-2.2,1.13-.44,2.21-1.07,2.06-2.52-.12-1.18-2.04-2.6-3.5-2.57-1.43,.02-2.32,.68-2.74,2.21-1.97,7.2-2.12,14.56-2.12,21.94,0,3.7-3.45,7.05-7.16,6.96-.5-.01-1.16,.16-1.3-.58-.11-.62,.37-.98,.85-1.22,1-.5,2.09-.84,3.04-1.42,3.43-2.1,3.17-5-.12-7.27-1.27-.88-2.86-1.34-4.52-1.3-3.08,.08-5.38,2.83-4.82,5.85,.05,.29,.18,.57,.19,.86,.03,.87,.29,2-.94,2.13-1.13,.12-1.19-.94-1.21-1.77-.03-.94-.44-1.35-1.37-1.49-4.37-.66-8.71-1.46-13.14-1.7-.92-.05-1.22,.25-1.43,1.08-.46,1.87-.25,3.76-.36,5.64-.09,2.55,.17,5.07,.59,7.57Z"/>
  <path class="cls-1" d="M27.18,78.42c-3.85-6.16-7.69-12.33-10.69-18.97-1.56-3.44-1.46-3.95,1.48-6.23,3.08-2.39,6.47-3.91,10.46-3.69,1.87,.1,2.99,1.19,3.7,2.84,.69,1.63,.06,2.86-1.14,3.93-.62,.55-1.23,1.12-1.9,1.6-1.01,.72-1.1,1.33-.33,2.44,2.6,3.73,5.19,7.47,7.44,11.43,2.31,4.07,2.24,3.99,5.8,.88,1.56-1.36,3.44-2.68,5.58-2.55,1.8,.11,2.36-.64,2.93-2.03,1-2.43,2.97-3.61,5.57-3.67,2.4-.05,4.37,.98,6.35,2.31,2.1,1.42,2.94,3.23,2.45,5.55-.28,1.29-.03,1.86,1.12,2.45,3.28,1.67,4.79,4.17,4.14,8.09-.79,4.72-1.67,9.42-2.53,14.13-.36,1.98-1.11,4,1.49,5.27,1.06,.52,1.12,1.87,.94,3.04-.13,.82-.54,1.43-1.4,1.64-3.08,.77-6.08,.69-8.95-.85-.94-.51-1.38-1.18-1.29-2.27,.19-2.24,.35-4.48,.45-6.72,.06-1.37,.01-2.75,.01-4.31-1.56,1.2-3.02,2.18-4.67,2.85-3.11,1.26-6.36,1.76-9.7,1.83-.54,.01-1.44-.23-1.49,.55-.08,1.51-.82,2.99-.02,4.58,.99,1.97,.39,3.18-1.8,3.82-2.27,.66-4.57,.43-6.83-.14-1.15-.29-1.59-1.1-1.43-2.28,.28-2.11,.44-4.23,.81-6.33,.2-1.15-.07-1.66-1.21-2.03-3.26-1.06-6.5-2.25-9.14-4.55-.7-.61-1.13-.28-1.68,.1-2.22,1.57-4.45,3.12-6.66,4.7-1,.72-1.91,.74-2.89-.06-1.56-1.27-3.2-2.43-4.73-3.73-1.64-1.4-2.97-3.07-3.57-5.18-.41-1.45-.6-3.02,.72-4.1,1.45-1.19,3.01-.72,4.43,.23,1.18,.79,2.32,1.62,3.49,2.43,1.04,.72,1.85,.7,2.63-.5,.9-1.38,2-2.63,3.03-3.93,2.1-2.66,3.44-2.95,6.57-1.48,1.26,.59,2.42,1.45,4.29,1.78-.75-1.18-1.3-2.02-1.83-2.86Zm39.48,26.35c.41-.82-.17-1.51-.74-2.01-1.14-.99-1.17-2.12-.93-3.51,1.02-5.81,2.31-11.57,2.93-17.45,.17-1.65-.42-2.71-1.52-3.7-1.03-.92-2.32-1.39-3.47-2.11-.77-.49-1.36,.04-1.97,.34-1.02,.5-2.03,.98-3.2,.87-.68-.06-1.41-.31-1.48-1.02-.08-.74,.62-1.11,1.29-1.19,1.16-.14,2.15-.66,3.09-1.26,2.29-1.45,2.41-3.84,.31-5.52-.7-.56-1.43-1.03-2.25-1.4-3.25-1.47-6.31,.35-6.54,3.91-.07,1,.01,2.01-.34,2.98-.22,.62-.64,1.05-1.29,1.02-.65-.03-.86-.58-.87-1.14-.02-1.28-.67-1.39-1.76-1.18-3.24,.62-5.41,2.74-7.42,5.12-.41,.48-.38,.93-.11,1.46,.32,.63,.65,1.27,.83,1.95,.15,.61,.21,1.3-.55,1.69-.78,.4-1.36,.13-1.86-.48-1.12-1.38-2.06-2.88-2.75-4.53-2.56-6.08-6.29-11.48-9.79-17.02-1.2-1.9-1.1-2.34,.73-3.58,.1-.07,.19-.13,.29-.2,1.25-.82,2.87-1.73,2.08-3.41-.71-1.51-2.57-1.6-4.1-1.32-2.24,.4-4.18,1.59-6.03,2.89-.98,.69-.71,1.65-.39,2.57,1.22,3.46,2.87,6.72,4.69,9.91,3.02,5.29,6.57,10.23,9.95,15.29,.42,.62,1.07,1.25,.44,2.06-.63,.81-1.48,.59-2.27,.26-2.5-1.07-4.98-2.16-7.47-3.24-2.97-1.29-3.18-1.26-5.07,1.37-1.07,1.48-2.06,3.03-3.03,4.57-.88,1.39-1.99,1.58-3.3,.72-1.58-1.03-3.12-2.13-4.69-3.18-.52-.34-1.07-.92-1.73-.3-.59,.55-.27,1.24,0,1.81,.24,.53,.58,1.04,.99,1.44,1.38,1.37,2.8,2.71,4.24,4.02,1.17,1.06,2.34,1.34,3.78,.27,1.85-1.38,3.74-2.71,5.37-4.34,1.19-1.18,2.17-1.08,3.35-.09,4.97,4.14,10.82,6.2,17.15,6.98,3.85,.47,7.67,.13,11.36-1.13,2.51-.86,4.49-2.55,6.36-4.35,1.18-1.14,.88-2.21-.67-2.89-.72-.31-1.25-.71-1.11-1.57,.16-1.03,.98-.85,1.67-.82,.53,.02,1.06,.11,1.58,.21,1.34,.26,2.02,.92,1.87,2.45-.47,4.76-.87,9.53-1.2,14.3-.22,3.16,.63,3.96,3.86,3.94,.52-.13,1.35,.22,1.69-.47Zm-26.84-2.4c-.36-1.26,.08-2.45,.29-3.66,.15-.87,.11-1.62-.99-1.6-.98,.02-2.34-.89-2.77,.87-.28,1.14-.49,2.3-.71,3.46-.43,2.26,.29,3.07,2.67,3.03,1.77-.02,2.01-.35,1.51-2.11Z"/>
  <path class="cls-1" d="M58.46,44.59c-.24,5.43-1.57,10.46-5.3,14.64-.38,.42-1.07,1.13-.32,1.86,.7,.69,1.39,.19,1.89-.24,2.3-1.95,3.74-4.54,4.95-7.23,1.63-3.66,1.12-7.55,1.02-11.39-.02-.74-.48-1.07-1.14-1.09-.74-.03-1.03,.53-1.09,1.15-.07,.76-.02,1.53-.02,2.3Z"/>
  <path class="cls-2" d="M121.02,79.91c.03-.68-.14-1.31-.45-1.89-.23-.42-.5-.81-1.09-.72-.64,.1-.95,.52-.92,1.11,.19,3.61-1.65,6.43-3.49,9.27-.34,.53-1.28,1.13-.52,1.78,.8,.68,1.81,.16,2.36-.53,2.12-2.65,3.74-5.57,4.11-9.03Z"/>
  <path class="cls-1" d="M65.77,50.01c-.08-.43-.12-.9-.26-1.35-.15-.52-.39-1.09-1.05-1-.58,.07-.93,.57-.95,1.13-.19,3.64-1.92,6.63-3.91,9.53-.43,.63-.62,1.36,.04,1.91,.63,.53,1.26,.01,1.75-.36,.55-.42,1.06-.96,1.42-1.55,1.56-2.54,2.48-5.32,2.97-8.31Z"/>
  <path class="cls-1" d="M55.77,45.69c-.02-.18-.08-.89-.14-1.59-.06-.7-.38-1.09-1.13-.99-.65,.08-1.13,.36-1.14,1.09-.02,1,.03,2-.02,3-.11,2.55-.79,4.88-2.82,6.61-.44,.37-.76,.78-.43,1.36,.39,.68,1.01,.53,1.55,.27,1.52-.74,2.35-2.11,3.02-3.56,.82-1.79,1.14-3.7,1.11-6.19Z"/>
  <path class="cls-2" d="M111.5,85c.26,.91,.79,1.06,1.57,.56,1.34-.86,2.22-2.09,2.74-3.55,.37-1.05,.65-2.13,.94-3.2,.17-.64-.14-1.01-.75-1.16-.49-.12-.99-.13-1.17,.45-.73,2.37-1.57,4.67-3.25,6.57-.07,.08-.06,.22-.09,.34Z"/>
  <path class="cls-1" d="M15.4,69.83c-.1-.77,.13-1.53-.77-1.74-1.01-.23-1.14,.6-1.38,1.24-.78,2.08-1.13,4.33-2.38,6.23-.35,.53-.11,.9,.32,1.18,.68,.45,1.27,.16,1.68-.41,1.44-1.99,2.25-4.23,2.53-6.5Z"/>
  <path class="cls-2" d="M101.89,35.88c-.02,.35-.04,.7-.05,1.05-.02,.6,.26,1.02,.84,1.18,.66,.18,1.04-.28,1.2-.77,.38-1.16,.66-2.36,.97-3.54,.19-.75,.13-1.46-.7-1.75-.86-.3-1.46,.18-1.84,.91-.47,.92-.39,1.93-.41,2.93Z"/>
  <path class="cls-2" d="M99.45,35.05c-.01-.93,.14-1.89-.43-2.73-.45-.66-1.04-.92-1.82-.74-.82,.18-.68,.85-.69,1.41-.02,1.12,.03,2.26,.56,3.27,.31,.6,.68,1.34,1.55,1.19,.97-.17,.83-.99,.83-1.68,0-.24,0-.47,0-.71Z"/>
  <path class="cls-2" d="M95.28,37.34c-.22-1.32-.88-2.59-2.03-3.6-.45-.4-.95-.52-1.46-.25-.64,.34-.36,.92-.22,1.4,.36,1.25,1.03,2.35,1.75,3.43,.35,.52,.81,.65,1.37,.46,.62-.21,.75-.68,.58-1.44Z"/>
  <path class="cls-2" d="M91.27,43.2c.64-.15,.99-.52,.7-1.25-.57-1.44-1.36-2.73-2.6-3.71-.47-.37-.94-.45-1.46-.12-.58,.37-.47,.87-.29,1.4,.41,1.21,2.85,3.73,3.65,3.68Z"/>
</svg>