<?xml version="1.0" encoding="UTF-8"?>
<svg id="Layer_1" data-name="Layer 1" xmlns="http://www.w3.org/2000/svg" viewBox="0 0 128 128">
  <defs>
    <style>
      .cls-1 {
        fill: #ff8b00;
        stroke: #ff8b00;
        stroke-miterlimit: 10;
      }
    </style>
  </defs>
  <path class="cls-1" d="M47.04,80.92c-.3,3.33,.26,6.37,.44,9.43,.16,2.75,.7,2.75-2.77,3.93-3.51,1.19-6.97,2.51-10.48,3.7-1.39,.47-2.23,1-2.69,2.69-1.33,4.93-5.9,5.78-9.31,1.92-1.64-1.86-2.66-4.07-3.13-6.49-.52-2.72-.09-3.56,2.49-4.85,3.08-1.55,6.21-3.02,9.34-4.46,2.38-1.1,2.41-1.05,1.89-3.53-.92-4.38-1.92-8.74-2.72-13.14-.53-2.88-1.77-5.03-4.68-5.96-.12-.04-.22-.12-.34-.18-5.89-2.94-6.91-8.29-2.51-13.38,2.25-2.6,5.17-4.29,8.47-4.93,1.93-.38,2.83-1.34,3.63-2.88,2.17-4.2,4.44-8.35,6.61-12.54,1.15-2.23,1.12-2.29-.92-3.65-2.02-1.35-4.04-2.68-5.85-4.32-1.66-1.5-2.33-3.26-2.07-5.47,.32-2.71,1.1-5.25,2.56-7.56,1-1.58,2.38-2.6,4.32-2.82,3.98-.44,4.93,.12,5.43,4.13,.33,2.63,1.54,4.1,4.01,4.94,2.52,.86,5.14,1.57,7.31,3.27,2.3,1.8,2.39,1.99,1.48,4.75-1.72,5.22-3.46,10.43-5.24,15.63-.47,1.38-.62,2.05,1.31,2.47,13.6,3.03,24.14,10.95,32.33,21.83,5.67,7.53,7.74,16.58,8.35,25.93,.27,4.11,.28,4.14,4.33,4.83,3.78,.64,7.5,1.52,11.17,2.64,1.74,.53,2.37,1.45,2.04,3.38-1.11,6.54-3.35,12.57-7.34,17.91-1.15,1.54-2.44,2.96-4.18,3.88-3.05,1.61-5.03,.92-6.46-2.24-.6-1.32-.79-2.69-.67-4.12,.09-1.15,.15-2.3,.3-3.44,.2-1.47-.39-2.05-1.86-2.18-3.05-.28-6.08-.72-9.12-1.1-.63-.08-1.27-.17-1.9-.3-4.57-.95-4.93-1.4-4.92-6.1,0-1.92,.02-3.84-.04-5.76-.03-1.03-.66-1.35-1.51-.76-.73,.51-1.38,1.14-2,1.78-3.45,3.6-6.95,7.16-10.31,10.84-3.88,4.26-8.34,7.9-12.55,11.8-2.07,1.92-4.42,2.27-7.02,.95-3.89-1.97-7.5-4.32-10.61-7.39-.36-.36-.66-.78-.95-1.2-2.44-3.44-1.23-6.32,2.92-6.77,3.22-.35,6.39,.16,9.44,1.2,1.71,.58,2.85,.16,3.94-1.25,5.88-7.57,11.8-15.1,17.75-22.62,.65-.82,.69-1.26-.32-1.67-5.32-2.16-10.64-4.34-15.97-6.5-.97-.4-1.43-.03-1.43,.99,0,1.66,0,3.33,0,4.74Zm-4.56-5.43c0-1.22-.05-1.86,0-2.5,.18-2.17,.61-2.55,2.91-2.52,1.01,.02,2.17-.23,2.97,.48,1.52,1.36,3.44,1.54,5.23,2.12,4.12,1.33,8.11,2.99,11.95,4.97,4.87,2.52,5.1,3.58,1.64,7.83-4.41,5.43-8.82,10.86-12.85,16.59-1.68,2.39-3.72,4.54-5.69,6.71-1.46,1.61-3.12,2.25-5.46,1.43-2.37-.83-4.93-1.27-7.52-1.02-.63,.06-1.3,0-1.57,.76-.23,.65-.14,1.3,.34,1.78,.54,.53,1.14,1.02,1.78,1.42,1.5,.95,3.05,1.84,4.57,2.76,3.21,1.96,6.3,1.8,9.09-.62,1.54-1.34,2.95-2.84,4.42-4.26,5.99-5.76,11.15-12.28,16.78-18.37,1.82-1.97,3.76-3.84,5.66-5.74,.36-.36,.81-.75,1.34-.47,.5,.27,.47,.85,.45,1.35-.11,3.96,.39,7.88,.63,11.82,.24,4.09,.18,4.23,4.07,5.09,3.83,.84,7.7,1.51,11.54,2.33,3.2,.69,3.66,1.46,2.13,4.43-1.03,1.99-.87,3.97-.67,5.96,.19,1.89,2.2,2.64,3.75,1.53,.51-.36,.93-.89,1.28-1.41,2.83-4.26,5.17-8.77,6.81-13.62,.2-.59,.34-1.22,.4-1.85,.22-2.38-.19-3.14-2.48-3.45-2.51-.34-4.97-1.1-7.56-.91-1.38,.1-2.87,.1-4.17-.31-2.89-.93-3.54-.31-3.39-4.37,.14-3.82,0-7.6-.68-11.42-2.15-11.95-8.63-21.11-18.15-28.1-5.95-4.37-12.61-7.54-20.06-8.85-4.26-.75-4.82-1.82-4.1-6.14,.12-.74,.42-1.46,.72-2.16,.95-2.22,1.99-4.4,2.92-6.63,.88-2.11,1.55-4.28,1.82-6.58,.2-1.74-.23-2.87-2.02-3.56-2.47-.96-4.82-2.25-7.27-3.26-1.71-.71-2.77-1.63-2.41-3.67,.2-1.15-.04-2.3-.72-3.3-.31-.45-.71-.78-1.26-.41-2.34,1.6-3.73,3.84-4.07,6.62-.29,2.42,.93,4.27,3,5.31,1.96,.99,3.49,2.55,5.39,3.61,1.69,.95,1.95,2.63,1.37,4.36-.36,1.08-.88,2.13-1.47,3.11-1.9,3.17-3.74,6.37-5.29,9.72-1.37,2.96-1.35,3.12,1.37,4.8,1.65,1.02,3.16,2.16,4.3,3.73,.61,.83,.54,1.65-.26,2.38-.79,.72-1.48,.19-2.06-.22-.92-.64-1.79-1.38-2.57-2.18-5.34-5.56-14.18-1.35-15.85,5.26-.51,2.01-.02,3.53,1.68,4.64,2.47,1.6,5.17,2.16,8.02,1.28,1.76-.54,3.53-.43,5.31-.45,.65,0,1.29,.07,1.47,.88,.15,.72-.15,1.37-.72,1.63-1.14,.52-2.36,.92-3.57,1.27-2.41,.68-2.65,1.03-2.33,3.38,.74,5.4,1.62,10.76,3.33,15.97,.82,2.5,.33,3.31-2.18,4.41-2.91,1.28-5.8,2.6-8.77,3.7-1.4,.52-2.65,.87-2.69,2.69-.05,1.88,.36,3.6,1.78,4.87,1.3,1.17,2.92,.43,2.98-1.46,.06-1.82,.9-2.85,2.4-3.54,3.46-1.59,7.07-2.81,10.74-3.77,3.08-.81,3.13-.65,3.01-3.62-.03-.76-.13-1.52-.23-2.28-.45-3.52-.9-7.04-1.28-9.99Z"/>
</svg>